<?xml version="1.0" encoding="utf-8" standalone="no"?>
<!DOCTYPE svg PUBLIC "-//W3C//DTD SVG 1.1//EN"
  "http://www.w3.org/Graphics/SVG/1.1/DTD/svg11.dtd">
<!-- Created with matplotlib (https://matplotlib.org/) -->
<svg height="864pt" version="1.1" viewBox="0 0 1728 864" width="1728pt" xmlns="http://www.w3.org/2000/svg" xmlns:xlink="http://www.w3.org/1999/xlink">
 <metadata>
  <rdf:RDF xmlns:cc="http://creativecommons.org/ns#" xmlns:dc="http://purl.org/dc/elements/1.1/" xmlns:rdf="http://www.w3.org/1999/02/22-rdf-syntax-ns#">
   <cc:Work>
    <dc:type rdf:resource="http://purl.org/dc/dcmitype/StillImage"/>
    <dc:date>2020-09-13T12:15:46.880230</dc:date>
    <dc:format>image/svg+xml</dc:format>
    <dc:creator>
     <cc:Agent>
      <dc:title>Matplotlib v3.3.1, https://matplotlib.org/</dc:title>
     </cc:Agent>
    </dc:creator>
   </cc:Work>
  </rdf:RDF>
 </metadata>
 <defs>
  <style type="text/css">*{stroke-linecap:butt;stroke-linejoin:round;}</style>
 </defs>
 <g id="figure_1">
  <g id="patch_1">
   <path d="M 0 864 
L 1728 864 
L 1728 0 
L 0 0 
z
" style="fill:#ffffff;"/>
  </g>
  <g id="axes_1">
   <g id="patch_2">
    <path d="M 216 768.96 
L 1555.2 768.96 
L 1555.2 103.68 
L 216 103.68 
z
" style="fill:#ffffff;"/>
   </g>
   <g id="matplotlib.axis_1">
    <g id="xtick_1">
     <g id="line2d_1">
      <defs>
       <path d="M 0 0 
L 0 3.5 
" id="mdf4d0cafdc" style="stroke:#000000;stroke-width:0.8;"/>
      </defs>
      <g>
       <use style="stroke:#000000;stroke-width:0.8;" x="276.872727" xlink:href="#mdf4d0cafdc" y="768.96"/>
      </g>
     </g>
     <g id="text_1">
      <!-- 0 -->
      <g transform="translate(273.691477 783.558437)scale(0.1 -0.1)">
       <defs>
        <path d="M 31.78125 66.40625 
Q 24.171875 66.40625 20.328125 58.90625 
Q 16.5 51.421875 16.5 36.375 
Q 16.5 21.390625 20.328125 13.890625 
Q 24.171875 6.390625 31.78125 6.390625 
Q 39.453125 6.390625 43.28125 13.890625 
Q 47.125 21.390625 47.125 36.375 
Q 47.125 51.421875 43.28125 58.90625 
Q 39.453125 66.40625 31.78125 66.40625 
z
M 31.78125 74.21875 
Q 44.046875 74.21875 50.515625 64.515625 
Q 56.984375 54.828125 56.984375 36.375 
Q 56.984375 17.96875 50.515625 8.265625 
Q 44.046875 -1.421875 31.78125 -1.421875 
Q 19.53125 -1.421875 13.0625 8.265625 
Q 6.59375 17.96875 6.59375 36.375 
Q 6.59375 54.828125 13.0625 64.515625 
Q 19.53125 74.21875 31.78125 74.21875 
z
" id="DejaVuSans-48"/>
       </defs>
       <use xlink:href="#DejaVuSans-48"/>
      </g>
     </g>
    </g>
    <g id="xtick_2">
     <g id="line2d_2">
      <g>
       <use style="stroke:#000000;stroke-width:0.8;" x="437.14847" xlink:href="#mdf4d0cafdc" y="768.96"/>
      </g>
     </g>
     <g id="text_2">
      <!-- 250 -->
      <g transform="translate(427.60472 783.558437)scale(0.1 -0.1)">
       <defs>
        <path d="M 19.1875 8.296875 
L 53.609375 8.296875 
L 53.609375 0 
L 7.328125 0 
L 7.328125 8.296875 
Q 12.9375 14.109375 22.625 23.890625 
Q 32.328125 33.6875 34.8125 36.53125 
Q 39.546875 41.84375 41.421875 45.53125 
Q 43.3125 49.21875 43.3125 52.78125 
Q 43.3125 58.59375 39.234375 62.25 
Q 35.15625 65.921875 28.609375 65.921875 
Q 23.96875 65.921875 18.8125 64.3125 
Q 13.671875 62.703125 7.8125 59.421875 
L 7.8125 69.390625 
Q 13.765625 71.78125 18.9375 73 
Q 24.125 74.21875 28.421875 74.21875 
Q 39.75 74.21875 46.484375 68.546875 
Q 53.21875 62.890625 53.21875 53.421875 
Q 53.21875 48.921875 51.53125 44.890625 
Q 49.859375 40.875 45.40625 35.40625 
Q 44.1875 33.984375 37.640625 27.21875 
Q 31.109375 20.453125 19.1875 8.296875 
z
" id="DejaVuSans-50"/>
        <path d="M 10.796875 72.90625 
L 49.515625 72.90625 
L 49.515625 64.59375 
L 19.828125 64.59375 
L 19.828125 46.734375 
Q 21.96875 47.46875 24.109375 47.828125 
Q 26.265625 48.1875 28.421875 48.1875 
Q 40.625 48.1875 47.75 41.5 
Q 54.890625 34.8125 54.890625 23.390625 
Q 54.890625 11.625 47.5625 5.09375 
Q 40.234375 -1.421875 26.90625 -1.421875 
Q 22.3125 -1.421875 17.546875 -0.640625 
Q 12.796875 0.140625 7.71875 1.703125 
L 7.71875 11.625 
Q 12.109375 9.234375 16.796875 8.0625 
Q 21.484375 6.890625 26.703125 6.890625 
Q 35.15625 6.890625 40.078125 11.328125 
Q 45.015625 15.765625 45.015625 23.390625 
Q 45.015625 31 40.078125 35.4375 
Q 35.15625 39.890625 26.703125 39.890625 
Q 22.75 39.890625 18.8125 39.015625 
Q 14.890625 38.140625 10.796875 36.28125 
z
" id="DejaVuSans-53"/>
       </defs>
       <use xlink:href="#DejaVuSans-50"/>
       <use x="63.623047" xlink:href="#DejaVuSans-53"/>
       <use x="127.246094" xlink:href="#DejaVuSans-48"/>
      </g>
     </g>
    </g>
    <g id="xtick_3">
     <g id="line2d_3">
      <g>
       <use style="stroke:#000000;stroke-width:0.8;" x="597.424214" xlink:href="#mdf4d0cafdc" y="768.96"/>
      </g>
     </g>
     <g id="text_3">
      <!-- 500 -->
      <g transform="translate(587.880464 783.558437)scale(0.1 -0.1)">
       <use xlink:href="#DejaVuSans-53"/>
       <use x="63.623047" xlink:href="#DejaVuSans-48"/>
       <use x="127.246094" xlink:href="#DejaVuSans-48"/>
      </g>
     </g>
    </g>
    <g id="xtick_4">
     <g id="line2d_4">
      <g>
       <use style="stroke:#000000;stroke-width:0.8;" x="757.699957" xlink:href="#mdf4d0cafdc" y="768.96"/>
      </g>
     </g>
     <g id="text_4">
      <!-- 750 -->
      <g transform="translate(748.156207 783.558437)scale(0.1 -0.1)">
       <defs>
        <path d="M 8.203125 72.90625 
L 55.078125 72.90625 
L 55.078125 68.703125 
L 28.609375 0 
L 18.3125 0 
L 43.21875 64.59375 
L 8.203125 64.59375 
z
" id="DejaVuSans-55"/>
       </defs>
       <use xlink:href="#DejaVuSans-55"/>
       <use x="63.623047" xlink:href="#DejaVuSans-53"/>
       <use x="127.246094" xlink:href="#DejaVuSans-48"/>
      </g>
     </g>
    </g>
    <g id="xtick_5">
     <g id="line2d_5">
      <g>
       <use style="stroke:#000000;stroke-width:0.8;" x="917.9757" xlink:href="#mdf4d0cafdc" y="768.96"/>
      </g>
     </g>
     <g id="text_5">
      <!-- 1000 -->
      <g transform="translate(905.2507 783.558437)scale(0.1 -0.1)">
       <defs>
        <path d="M 12.40625 8.296875 
L 28.515625 8.296875 
L 28.515625 63.921875 
L 10.984375 60.40625 
L 10.984375 69.390625 
L 28.421875 72.90625 
L 38.28125 72.90625 
L 38.28125 8.296875 
L 54.390625 8.296875 
L 54.390625 0 
L 12.40625 0 
z
" id="DejaVuSans-49"/>
       </defs>
       <use xlink:href="#DejaVuSans-49"/>
       <use x="63.623047" xlink:href="#DejaVuSans-48"/>
       <use x="127.246094" xlink:href="#DejaVuSans-48"/>
       <use x="190.869141" xlink:href="#DejaVuSans-48"/>
      </g>
     </g>
    </g>
    <g id="xtick_6">
     <g id="line2d_6">
      <g>
       <use style="stroke:#000000;stroke-width:0.8;" x="1078.251443" xlink:href="#mdf4d0cafdc" y="768.96"/>
      </g>
     </g>
     <g id="text_6">
      <!-- 1250 -->
      <g transform="translate(1065.526443 783.558437)scale(0.1 -0.1)">
       <use xlink:href="#DejaVuSans-49"/>
       <use x="63.623047" xlink:href="#DejaVuSans-50"/>
       <use x="127.246094" xlink:href="#DejaVuSans-53"/>
       <use x="190.869141" xlink:href="#DejaVuSans-48"/>
      </g>
     </g>
    </g>
    <g id="xtick_7">
     <g id="line2d_7">
      <g>
       <use style="stroke:#000000;stroke-width:0.8;" x="1238.527187" xlink:href="#mdf4d0cafdc" y="768.96"/>
      </g>
     </g>
     <g id="text_7">
      <!-- 1500 -->
      <g transform="translate(1225.802187 783.558437)scale(0.1 -0.1)">
       <use xlink:href="#DejaVuSans-49"/>
       <use x="63.623047" xlink:href="#DejaVuSans-53"/>
       <use x="127.246094" xlink:href="#DejaVuSans-48"/>
       <use x="190.869141" xlink:href="#DejaVuSans-48"/>
      </g>
     </g>
    </g>
    <g id="xtick_8">
     <g id="line2d_8">
      <g>
       <use style="stroke:#000000;stroke-width:0.8;" x="1398.80293" xlink:href="#mdf4d0cafdc" y="768.96"/>
      </g>
     </g>
     <g id="text_8">
      <!-- 1750 -->
      <g transform="translate(1386.07793 783.558437)scale(0.1 -0.1)">
       <use xlink:href="#DejaVuSans-49"/>
       <use x="63.623047" xlink:href="#DejaVuSans-55"/>
       <use x="127.246094" xlink:href="#DejaVuSans-53"/>
       <use x="190.869141" xlink:href="#DejaVuSans-48"/>
      </g>
     </g>
    </g>
    <g id="text_9">
     <!-- Vector length -->
     <g transform="translate(852.139844 797.236562)scale(0.1 -0.1)">
      <defs>
       <path d="M 28.609375 0 
L 0.78125 72.90625 
L 11.078125 72.90625 
L 34.1875 11.53125 
L 57.328125 72.90625 
L 67.578125 72.90625 
L 39.796875 0 
z
" id="DejaVuSans-86"/>
       <path d="M 56.203125 29.59375 
L 56.203125 25.203125 
L 14.890625 25.203125 
Q 15.484375 15.921875 20.484375 11.0625 
Q 25.484375 6.203125 34.421875 6.203125 
Q 39.59375 6.203125 44.453125 7.46875 
Q 49.3125 8.734375 54.109375 11.28125 
L 54.109375 2.78125 
Q 49.265625 0.734375 44.1875 -0.34375 
Q 39.109375 -1.421875 33.890625 -1.421875 
Q 20.796875 -1.421875 13.15625 6.1875 
Q 5.515625 13.8125 5.515625 26.8125 
Q 5.515625 40.234375 12.765625 48.109375 
Q 20.015625 56 32.328125 56 
Q 43.359375 56 49.78125 48.890625 
Q 56.203125 41.796875 56.203125 29.59375 
z
M 47.21875 32.234375 
Q 47.125 39.59375 43.09375 43.984375 
Q 39.0625 48.390625 32.421875 48.390625 
Q 24.90625 48.390625 20.390625 44.140625 
Q 15.875 39.890625 15.1875 32.171875 
z
" id="DejaVuSans-101"/>
       <path d="M 48.78125 52.59375 
L 48.78125 44.1875 
Q 44.96875 46.296875 41.140625 47.34375 
Q 37.3125 48.390625 33.40625 48.390625 
Q 24.65625 48.390625 19.8125 42.84375 
Q 14.984375 37.3125 14.984375 27.296875 
Q 14.984375 17.28125 19.8125 11.734375 
Q 24.65625 6.203125 33.40625 6.203125 
Q 37.3125 6.203125 41.140625 7.25 
Q 44.96875 8.296875 48.78125 10.40625 
L 48.78125 2.09375 
Q 45.015625 0.34375 40.984375 -0.53125 
Q 36.96875 -1.421875 32.421875 -1.421875 
Q 20.0625 -1.421875 12.78125 6.34375 
Q 5.515625 14.109375 5.515625 27.296875 
Q 5.515625 40.671875 12.859375 48.328125 
Q 20.21875 56 33.015625 56 
Q 37.15625 56 41.109375 55.140625 
Q 45.0625 54.296875 48.78125 52.59375 
z
" id="DejaVuSans-99"/>
       <path d="M 18.3125 70.21875 
L 18.3125 54.6875 
L 36.8125 54.6875 
L 36.8125 47.703125 
L 18.3125 47.703125 
L 18.3125 18.015625 
Q 18.3125 11.328125 20.140625 9.421875 
Q 21.96875 7.515625 27.59375 7.515625 
L 36.8125 7.515625 
L 36.8125 0 
L 27.59375 0 
Q 17.1875 0 13.234375 3.875 
Q 9.28125 7.765625 9.28125 18.015625 
L 9.28125 47.703125 
L 2.6875 47.703125 
L 2.6875 54.6875 
L 9.28125 54.6875 
L 9.28125 70.21875 
z
" id="DejaVuSans-116"/>
       <path d="M 30.609375 48.390625 
Q 23.390625 48.390625 19.1875 42.75 
Q 14.984375 37.109375 14.984375 27.296875 
Q 14.984375 17.484375 19.15625 11.84375 
Q 23.34375 6.203125 30.609375 6.203125 
Q 37.796875 6.203125 41.984375 11.859375 
Q 46.1875 17.53125 46.1875 27.296875 
Q 46.1875 37.015625 41.984375 42.703125 
Q 37.796875 48.390625 30.609375 48.390625 
z
M 30.609375 56 
Q 42.328125 56 49.015625 48.375 
Q 55.71875 40.765625 55.71875 27.296875 
Q 55.71875 13.875 49.015625 6.21875 
Q 42.328125 -1.421875 30.609375 -1.421875 
Q 18.84375 -1.421875 12.171875 6.21875 
Q 5.515625 13.875 5.515625 27.296875 
Q 5.515625 40.765625 12.171875 48.375 
Q 18.84375 56 30.609375 56 
z
" id="DejaVuSans-111"/>
       <path d="M 41.109375 46.296875 
Q 39.59375 47.171875 37.8125 47.578125 
Q 36.03125 48 33.890625 48 
Q 26.265625 48 22.1875 43.046875 
Q 18.109375 38.09375 18.109375 28.8125 
L 18.109375 0 
L 9.078125 0 
L 9.078125 54.6875 
L 18.109375 54.6875 
L 18.109375 46.1875 
Q 20.953125 51.171875 25.484375 53.578125 
Q 30.03125 56 36.53125 56 
Q 37.453125 56 38.578125 55.875 
Q 39.703125 55.765625 41.0625 55.515625 
z
" id="DejaVuSans-114"/>
       <path id="DejaVuSans-32"/>
       <path d="M 9.421875 75.984375 
L 18.40625 75.984375 
L 18.40625 0 
L 9.421875 0 
z
" id="DejaVuSans-108"/>
       <path d="M 54.890625 33.015625 
L 54.890625 0 
L 45.90625 0 
L 45.90625 32.71875 
Q 45.90625 40.484375 42.875 44.328125 
Q 39.84375 48.1875 33.796875 48.1875 
Q 26.515625 48.1875 22.3125 43.546875 
Q 18.109375 38.921875 18.109375 30.90625 
L 18.109375 0 
L 9.078125 0 
L 9.078125 54.6875 
L 18.109375 54.6875 
L 18.109375 46.1875 
Q 21.34375 51.125 25.703125 53.5625 
Q 30.078125 56 35.796875 56 
Q 45.21875 56 50.046875 50.171875 
Q 54.890625 44.34375 54.890625 33.015625 
z
" id="DejaVuSans-110"/>
       <path d="M 45.40625 27.984375 
Q 45.40625 37.75 41.375 43.109375 
Q 37.359375 48.484375 30.078125 48.484375 
Q 22.859375 48.484375 18.828125 43.109375 
Q 14.796875 37.75 14.796875 27.984375 
Q 14.796875 18.265625 18.828125 12.890625 
Q 22.859375 7.515625 30.078125 7.515625 
Q 37.359375 7.515625 41.375 12.890625 
Q 45.40625 18.265625 45.40625 27.984375 
z
M 54.390625 6.78125 
Q 54.390625 -7.171875 48.1875 -13.984375 
Q 42 -20.796875 29.203125 -20.796875 
Q 24.46875 -20.796875 20.265625 -20.09375 
Q 16.0625 -19.390625 12.109375 -17.921875 
L 12.109375 -9.1875 
Q 16.0625 -11.328125 19.921875 -12.34375 
Q 23.78125 -13.375 27.78125 -13.375 
Q 36.625 -13.375 41.015625 -8.765625 
Q 45.40625 -4.15625 45.40625 5.171875 
L 45.40625 9.625 
Q 42.625 4.78125 38.28125 2.390625 
Q 33.9375 0 27.875 0 
Q 17.828125 0 11.671875 7.65625 
Q 5.515625 15.328125 5.515625 27.984375 
Q 5.515625 40.671875 11.671875 48.328125 
Q 17.828125 56 27.875 56 
Q 33.9375 56 38.28125 53.609375 
Q 42.625 51.21875 45.40625 46.390625 
L 45.40625 54.6875 
L 54.390625 54.6875 
z
" id="DejaVuSans-103"/>
       <path d="M 54.890625 33.015625 
L 54.890625 0 
L 45.90625 0 
L 45.90625 32.71875 
Q 45.90625 40.484375 42.875 44.328125 
Q 39.84375 48.1875 33.796875 48.1875 
Q 26.515625 48.1875 22.3125 43.546875 
Q 18.109375 38.921875 18.109375 30.90625 
L 18.109375 0 
L 9.078125 0 
L 9.078125 75.984375 
L 18.109375 75.984375 
L 18.109375 46.1875 
Q 21.34375 51.125 25.703125 53.5625 
Q 30.078125 56 35.796875 56 
Q 45.21875 56 50.046875 50.171875 
Q 54.890625 44.34375 54.890625 33.015625 
z
" id="DejaVuSans-104"/>
      </defs>
      <use xlink:href="#DejaVuSans-86"/>
      <use x="60.658203" xlink:href="#DejaVuSans-101"/>
      <use x="122.181641" xlink:href="#DejaVuSans-99"/>
      <use x="177.162109" xlink:href="#DejaVuSans-116"/>
      <use x="216.371094" xlink:href="#DejaVuSans-111"/>
      <use x="277.552734" xlink:href="#DejaVuSans-114"/>
      <use x="318.666016" xlink:href="#DejaVuSans-32"/>
      <use x="350.453125" xlink:href="#DejaVuSans-108"/>
      <use x="378.236328" xlink:href="#DejaVuSans-101"/>
      <use x="439.759766" xlink:href="#DejaVuSans-110"/>
      <use x="503.138672" xlink:href="#DejaVuSans-103"/>
      <use x="566.615234" xlink:href="#DejaVuSans-116"/>
      <use x="605.824219" xlink:href="#DejaVuSans-104"/>
     </g>
    </g>
   </g>
   <g id="matplotlib.axis_2">
    <g id="ytick_1">
     <g id="line2d_9">
      <defs>
       <path d="M 0 0 
L -3.5 0 
" id="m51d53ea3fa" style="stroke:#000000;stroke-width:0.8;"/>
      </defs>
      <g>
       <use style="stroke:#000000;stroke-width:0.8;" x="216" xlink:href="#m51d53ea3fa" y="737.486874"/>
      </g>
     </g>
     <g id="text_10">
      <!-- 0 -->
      <g transform="translate(202.6375 741.286093)scale(0.1 -0.1)">
       <use xlink:href="#DejaVuSans-48"/>
      </g>
     </g>
    </g>
    <g id="ytick_2">
     <g id="line2d_10">
      <g>
       <use style="stroke:#000000;stroke-width:0.8;" x="216" xlink:href="#m51d53ea3fa" y="662.60918"/>
      </g>
     </g>
     <g id="text_11">
      <!-- 50 -->
      <g transform="translate(196.275 666.408399)scale(0.1 -0.1)">
       <use xlink:href="#DejaVuSans-53"/>
       <use x="63.623047" xlink:href="#DejaVuSans-48"/>
      </g>
     </g>
    </g>
    <g id="ytick_3">
     <g id="line2d_11">
      <g>
       <use style="stroke:#000000;stroke-width:0.8;" x="216" xlink:href="#m51d53ea3fa" y="587.731486"/>
      </g>
     </g>
     <g id="text_12">
      <!-- 100 -->
      <g transform="translate(189.9125 591.530705)scale(0.1 -0.1)">
       <use xlink:href="#DejaVuSans-49"/>
       <use x="63.623047" xlink:href="#DejaVuSans-48"/>
       <use x="127.246094" xlink:href="#DejaVuSans-48"/>
      </g>
     </g>
    </g>
    <g id="ytick_4">
     <g id="line2d_12">
      <g>
       <use style="stroke:#000000;stroke-width:0.8;" x="216" xlink:href="#m51d53ea3fa" y="512.853792"/>
      </g>
     </g>
     <g id="text_13">
      <!-- 150 -->
      <g transform="translate(189.9125 516.653011)scale(0.1 -0.1)">
       <use xlink:href="#DejaVuSans-49"/>
       <use x="63.623047" xlink:href="#DejaVuSans-53"/>
       <use x="127.246094" xlink:href="#DejaVuSans-48"/>
      </g>
     </g>
    </g>
    <g id="ytick_5">
     <g id="line2d_13">
      <g>
       <use style="stroke:#000000;stroke-width:0.8;" x="216" xlink:href="#m51d53ea3fa" y="437.976098"/>
      </g>
     </g>
     <g id="text_14">
      <!-- 200 -->
      <g transform="translate(189.9125 441.775317)scale(0.1 -0.1)">
       <use xlink:href="#DejaVuSans-50"/>
       <use x="63.623047" xlink:href="#DejaVuSans-48"/>
       <use x="127.246094" xlink:href="#DejaVuSans-48"/>
      </g>
     </g>
    </g>
    <g id="ytick_6">
     <g id="line2d_14">
      <g>
       <use style="stroke:#000000;stroke-width:0.8;" x="216" xlink:href="#m51d53ea3fa" y="363.098404"/>
      </g>
     </g>
     <g id="text_15">
      <!-- 250 -->
      <g transform="translate(189.9125 366.897623)scale(0.1 -0.1)">
       <use xlink:href="#DejaVuSans-50"/>
       <use x="63.623047" xlink:href="#DejaVuSans-53"/>
       <use x="127.246094" xlink:href="#DejaVuSans-48"/>
      </g>
     </g>
    </g>
    <g id="ytick_7">
     <g id="line2d_15">
      <g>
       <use style="stroke:#000000;stroke-width:0.8;" x="216" xlink:href="#m51d53ea3fa" y="288.22071"/>
      </g>
     </g>
     <g id="text_16">
      <!-- 300 -->
      <g transform="translate(189.9125 292.019928)scale(0.1 -0.1)">
       <defs>
        <path d="M 40.578125 39.3125 
Q 47.65625 37.796875 51.625 33 
Q 55.609375 28.21875 55.609375 21.1875 
Q 55.609375 10.40625 48.1875 4.484375 
Q 40.765625 -1.421875 27.09375 -1.421875 
Q 22.515625 -1.421875 17.65625 -0.515625 
Q 12.796875 0.390625 7.625 2.203125 
L 7.625 11.71875 
Q 11.71875 9.328125 16.59375 8.109375 
Q 21.484375 6.890625 26.8125 6.890625 
Q 36.078125 6.890625 40.9375 10.546875 
Q 45.796875 14.203125 45.796875 21.1875 
Q 45.796875 27.640625 41.28125 31.265625 
Q 36.765625 34.90625 28.71875 34.90625 
L 20.21875 34.90625 
L 20.21875 43.015625 
L 29.109375 43.015625 
Q 36.375 43.015625 40.234375 45.921875 
Q 44.09375 48.828125 44.09375 54.296875 
Q 44.09375 59.90625 40.109375 62.90625 
Q 36.140625 65.921875 28.71875 65.921875 
Q 24.65625 65.921875 20.015625 65.03125 
Q 15.375 64.15625 9.8125 62.3125 
L 9.8125 71.09375 
Q 15.4375 72.65625 20.34375 73.4375 
Q 25.25 74.21875 29.59375 74.21875 
Q 40.828125 74.21875 47.359375 69.109375 
Q 53.90625 64.015625 53.90625 55.328125 
Q 53.90625 49.265625 50.4375 45.09375 
Q 46.96875 40.921875 40.578125 39.3125 
z
" id="DejaVuSans-51"/>
       </defs>
       <use xlink:href="#DejaVuSans-51"/>
       <use x="63.623047" xlink:href="#DejaVuSans-48"/>
       <use x="127.246094" xlink:href="#DejaVuSans-48"/>
      </g>
     </g>
    </g>
    <g id="ytick_8">
     <g id="line2d_16">
      <g>
       <use style="stroke:#000000;stroke-width:0.8;" x="216" xlink:href="#m51d53ea3fa" y="213.343016"/>
      </g>
     </g>
     <g id="text_17">
      <!-- 350 -->
      <g transform="translate(189.9125 217.142234)scale(0.1 -0.1)">
       <use xlink:href="#DejaVuSans-51"/>
       <use x="63.623047" xlink:href="#DejaVuSans-53"/>
       <use x="127.246094" xlink:href="#DejaVuSans-48"/>
      </g>
     </g>
    </g>
    <g id="ytick_9">
     <g id="line2d_17">
      <g>
       <use style="stroke:#000000;stroke-width:0.8;" x="216" xlink:href="#m51d53ea3fa" y="138.465321"/>
      </g>
     </g>
     <g id="text_18">
      <!-- 400 -->
      <g transform="translate(189.9125 142.26454)scale(0.1 -0.1)">
       <defs>
        <path d="M 37.796875 64.3125 
L 12.890625 25.390625 
L 37.796875 25.390625 
z
M 35.203125 72.90625 
L 47.609375 72.90625 
L 47.609375 25.390625 
L 58.015625 25.390625 
L 58.015625 17.1875 
L 47.609375 17.1875 
L 47.609375 0 
L 37.796875 0 
L 37.796875 17.1875 
L 4.890625 17.1875 
L 4.890625 26.703125 
z
" id="DejaVuSans-52"/>
       </defs>
       <use xlink:href="#DejaVuSans-52"/>
       <use x="63.623047" xlink:href="#DejaVuSans-48"/>
       <use x="127.246094" xlink:href="#DejaVuSans-48"/>
      </g>
     </g>
    </g>
    <g id="text_19">
     <!-- Time, ms -->
     <g transform="translate(183.832812 459.206719)rotate(-90)scale(0.1 -0.1)">
      <defs>
       <path d="M -0.296875 72.90625 
L 61.375 72.90625 
L 61.375 64.59375 
L 35.5 64.59375 
L 35.5 0 
L 25.59375 0 
L 25.59375 64.59375 
L -0.296875 64.59375 
z
" id="DejaVuSans-84"/>
       <path d="M 9.421875 54.6875 
L 18.40625 54.6875 
L 18.40625 0 
L 9.421875 0 
z
M 9.421875 75.984375 
L 18.40625 75.984375 
L 18.40625 64.59375 
L 9.421875 64.59375 
z
" id="DejaVuSans-105"/>
       <path d="M 52 44.1875 
Q 55.375 50.25 60.0625 53.125 
Q 64.75 56 71.09375 56 
Q 79.640625 56 84.28125 50.015625 
Q 88.921875 44.046875 88.921875 33.015625 
L 88.921875 0 
L 79.890625 0 
L 79.890625 32.71875 
Q 79.890625 40.578125 77.09375 44.375 
Q 74.3125 48.1875 68.609375 48.1875 
Q 61.625 48.1875 57.5625 43.546875 
Q 53.515625 38.921875 53.515625 30.90625 
L 53.515625 0 
L 44.484375 0 
L 44.484375 32.71875 
Q 44.484375 40.625 41.703125 44.40625 
Q 38.921875 48.1875 33.109375 48.1875 
Q 26.21875 48.1875 22.15625 43.53125 
Q 18.109375 38.875 18.109375 30.90625 
L 18.109375 0 
L 9.078125 0 
L 9.078125 54.6875 
L 18.109375 54.6875 
L 18.109375 46.1875 
Q 21.1875 51.21875 25.484375 53.609375 
Q 29.78125 56 35.6875 56 
Q 41.65625 56 45.828125 52.96875 
Q 50 49.953125 52 44.1875 
z
" id="DejaVuSans-109"/>
       <path d="M 11.71875 12.40625 
L 22.015625 12.40625 
L 22.015625 4 
L 14.015625 -11.625 
L 7.71875 -11.625 
L 11.71875 4 
z
" id="DejaVuSans-44"/>
       <path d="M 44.28125 53.078125 
L 44.28125 44.578125 
Q 40.484375 46.53125 36.375 47.5 
Q 32.28125 48.484375 27.875 48.484375 
Q 21.1875 48.484375 17.84375 46.4375 
Q 14.5 44.390625 14.5 40.28125 
Q 14.5 37.15625 16.890625 35.375 
Q 19.28125 33.59375 26.515625 31.984375 
L 29.59375 31.296875 
Q 39.15625 29.25 43.1875 25.515625 
Q 47.21875 21.78125 47.21875 15.09375 
Q 47.21875 7.46875 41.1875 3.015625 
Q 35.15625 -1.421875 24.609375 -1.421875 
Q 20.21875 -1.421875 15.453125 -0.5625 
Q 10.6875 0.296875 5.421875 2 
L 5.421875 11.28125 
Q 10.40625 8.6875 15.234375 7.390625 
Q 20.0625 6.109375 24.8125 6.109375 
Q 31.15625 6.109375 34.5625 8.28125 
Q 37.984375 10.453125 37.984375 14.40625 
Q 37.984375 18.0625 35.515625 20.015625 
Q 33.0625 21.96875 24.703125 23.78125 
L 21.578125 24.515625 
Q 13.234375 26.265625 9.515625 29.90625 
Q 5.8125 33.546875 5.8125 39.890625 
Q 5.8125 47.609375 11.28125 51.796875 
Q 16.75 56 26.8125 56 
Q 31.78125 56 36.171875 55.265625 
Q 40.578125 54.546875 44.28125 53.078125 
z
" id="DejaVuSans-115"/>
      </defs>
      <use xlink:href="#DejaVuSans-84"/>
      <use x="57.958984" xlink:href="#DejaVuSans-105"/>
      <use x="85.742188" xlink:href="#DejaVuSans-109"/>
      <use x="183.154297" xlink:href="#DejaVuSans-101"/>
      <use x="244.677734" xlink:href="#DejaVuSans-44"/>
      <use x="276.464844" xlink:href="#DejaVuSans-32"/>
      <use x="308.251953" xlink:href="#DejaVuSans-109"/>
      <use x="405.664062" xlink:href="#DejaVuSans-115"/>
     </g>
    </g>
   </g>
   <g id="line2d_18">
    <path clip-path="url(#pdaafcb2b2c)" d="M 276.872727 737.484018 
L 293.541405 737.417965 
L 294.182508 737.35334 
L 295.464713 737.3944 
L 299.952434 737.354768 
L 315.338906 737.157679 
L 315.980009 736.902749 
L 316.621112 737.132329 
L 320.467729 737.015575 
L 321.108832 737.097339 
L 323.673244 736.998794 
L 326.237656 736.937026 
L 327.519862 736.949522 
L 328.160965 736.806704 
L 329.443171 736.776713 
L 330.084274 736.536422 
L 330.725377 736.78064 
L 335.854201 736.694949 
L 336.495304 736.516784 
L 337.77751 736.582123 
L 338.418613 736.440377 
L 339.700819 736.673884 
L 340.341922 736.501431 
L 344.829642 736.384678 
L 348.035157 736.376823 
L 348.67626 736.264711 
L 350.599569 736.237932 
L 351.240672 735.981574 
L 351.881775 736.287204 
L 353.805084 736.216867 
L 354.446187 736.015136 
L 355.728393 736.170451 
L 356.369496 736.061195 
L 357.010599 736.091544 
L 357.651702 735.931231 
L 359.575011 736.052269 
L 360.216114 735.708078 
L 360.857217 735.859108 
L 361.49832 735.769133 
L 362.139423 735.859108 
L 362.780526 735.806622 
L 364.062732 735.520629 
L 364.703835 735.838399 
L 365.344938 735.583469 
L 367.268246 735.76342 
L 367.909349 735.577757 
L 369.191555 735.637383 
L 369.832658 735.387095 
L 370.473761 735.507062 
L 371.114864 735.276411 
L 371.755967 735.474214 
L 372.39707 735.359245 
L 373.679276 735.500992 
L 374.320379 735.325683 
L 376.884791 735.129666 
L 377.525894 735.321041 
L 378.166997 734.471989 
L 379.449203 735.065397 
L 380.090306 735.032549 
L 380.731409 734.31489 
L 381.372512 735.074324 
L 382.654718 734.879734 
L 383.295821 734.34631 
L 384.578027 734.530545 
L 385.21913 735.099674 
L 385.860233 734.548754 
L 386.501336 734.65551 
L 387.142439 734.440926 
L 387.783542 734.637301 
L 388.424645 734.330243 
L 389.065748 734.710138 
L 390.347953 734.467705 
L 392.271262 734.531973 
L 392.912365 733.743261 
L 393.553468 734.315247 
L 394.194571 734.321316 
L 394.835674 733.985694 
L 395.476777 734.114945 
L 396.758983 733.755401 
L 397.400086 734.049962 
L 398.041189 734.103876 
L 399.964498 733.82681 
L 400.605601 733.952846 
L 401.246704 733.644003 
L 402.52891 733.66971 
L 403.170013 733.608298 
L 403.811116 733.873225 
L 405.093322 733.531891 
L 405.734425 733.697916 
L 406.375528 733.0838 
L 407.657734 733.453698 
L 408.298837 733.231259 
L 408.93994 733.455126 
L 409.581043 733.416565 
L 410.222146 733.220548 
L 410.863249 732.889567 
L 411.504352 732.272594 
L 412.145455 733.140927 
L 412.786558 733.344442 
L 413.42766 733.110935 
L 414.068763 733.197697 
L 414.709866 732.878856 
L 415.350969 733.004536 
L 416.633175 733.000251 
L 417.274278 732.804234 
L 417.915381 732.311512 
L 418.556484 733.131644 
L 419.197587 732.915989 
L 419.83869 732.83851 
L 420.479793 732.447903 
L 421.761999 732.77567 
L 422.403102 732.311512 
L 423.044205 731.547079 
L 423.685308 731.829145 
L 424.326411 732.611072 
L 424.967514 732.345431 
L 425.608617 732.43862 
L 426.24972 732.772457 
L 426.890823 731.847354 
L 427.531926 732.371138 
L 428.173029 731.524943 
L 428.814132 732.452188 
L 429.455235 731.972677 
L 430.096338 732.055154 
L 430.737441 731.989458 
L 431.378544 732.365426 
L 432.019647 731.74881 
L 432.66075 732.228678 
L 433.301853 730.726948 
L 433.942956 731.887343 
L 434.584059 731.468172 
L 435.225162 731.426041 
L 435.866265 729.675451 
L 436.507368 731.993385 
L 437.14847 731.814149 
L 437.789573 731.27037 
L 438.430676 731.559576 
L 439.071779 730.993303 
L 439.712882 731.559576 
L 440.353985 731.02508 
L 440.995088 731.47567 
L 441.636191 730.780504 
L 442.277294 731.182537 
L 442.918397 730.475231 
L 443.5595 730.524146 
L 444.200603 731.161471 
L 444.841706 731.128266 
L 445.482809 730.937961 
L 446.123912 728.609673 
L 446.765015 730.602696 
L 447.406118 730.331342 
L 448.047221 730.438099 
L 448.688324 730.815495 
L 449.97053 730.668392 
L 450.611633 730.075341 
L 451.252736 729.653314 
L 451.893839 730.35098 
L 452.534942 730.189238 
L 453.176045 729.64903 
L 453.817148 730.451666 
L 454.458251 730.875121 
L 455.099354 729.476577 
L 455.740457 728.926729 
L 456.38156 729.957516 
L 457.022663 729.757571 
L 457.663766 729.211293 
L 458.304869 730.201378 
L 458.945972 729.379461 
L 459.587075 728.372952 
L 460.228178 729.947876 
L 460.86928 728.684295 
L 461.510383 729.540488 
L 462.151486 729.268063 
L 462.792589 729.498714 
L 463.433692 729.202367 
L 464.074795 729.398742 
L 464.715898 729.004921 
L 465.357001 728.357956 
L 465.998104 729.154523 
L 466.639207 728.819258 
L 467.28031 729.105251 
L 467.921413 728.013408 
L 468.562516 727.998412 
L 469.203619 728.809975 
L 469.844722 729.010634 
L 470.485825 728.393661 
L 471.126928 728.461142 
L 471.768031 727.98056 
L 472.409134 728.239418 
L 473.050237 728.243702 
L 473.69134 728.651447 
L 474.332443 727.669217 
L 474.973546 728.360456 
L 475.614649 727.787042 
L 476.255752 727.838099 
L 476.896855 728.554331 
L 477.537958 727.424999 
L 478.179061 728.124092 
L 478.820164 727.944142 
L 479.461267 727.40072 
L 480.10237 727.54318 
L 480.743473 728.101955 
L 481.384576 727.569959 
L 482.025679 727.758835 
L 482.666782 727.134364 
L 483.307885 727.366443 
L 484.59009 727.247904 
L 485.231193 726.949772 
L 485.872296 726.527745 
L 486.513399 727.436781 
L 487.154502 726.98262 
L 487.795605 726.334584 
L 488.436708 726.694128 
L 489.077811 726.90657 
L 489.718914 727.246476 
L 491.00112 726.866224 
L 491.642223 726.174271 
L 492.283326 723.681028 
L 492.924429 723.607477 
L 494.206635 726.385285 
L 494.847738 726.564878 
L 495.488841 725.746175 
L 496.129944 725.217391 
L 496.771047 725.271662 
L 497.41215 725.639775 
L 498.053253 725.323434 
L 498.694356 722.936233 
L 499.335459 724.215524 
L 499.976562 725.074931 
L 500.617665 725.323791 
L 501.258768 722.922665 
L 501.899871 725.98718 
L 502.540974 725.420907 
L 503.82318 724.997095 
L 504.464283 724.203385 
L 505.105386 724.684324 
L 505.746489 724.69325 
L 506.387592 723.01871 
L 507.028695 718.833433 
L 507.669798 723.410031 
L 508.3109 724.326208 
L 508.952003 724.792151 
L 509.593106 724.114838 
L 510.234209 724.325137 
L 510.875312 724.359413 
L 511.516415 724.977814 
L 512.157518 723.775288 
L 513.439724 723.43074 
L 514.080827 724.351915 
L 514.72193 723.264714 
L 515.363033 723.930959 
L 516.004136 722.855898 
L 517.286342 723.810992 
L 517.927445 720.540463 
L 518.568548 723.01871 
L 519.209651 723.525 
L 519.850754 722.819836 
L 520.491857 723.513217 
L 521.13296 720.901078 
L 521.774063 723.140106 
L 523.056269 722.948373 
L 523.697372 721.566253 
L 524.338475 722.89196 
L 524.979578 723.390037 
L 526.261784 719.577514 
L 526.902887 718.622062 
L 527.54399 719.626786 
L 528.185093 721.16065 
L 528.826196 718.005446 
L 529.467299 715.909951 
L 530.108402 717.078558 
L 530.749505 714.923437 
L 531.390607 720.933212 
L 532.03171 719.962765 
L 532.672813 720.983556 
L 533.313916 721.653015 
L 533.955019 721.24277 
L 534.596122 720.983556 
L 535.237225 720.555459 
L 535.878328 721.076744 
L 536.519431 719.830659 
L 537.160534 719.309016 
L 537.801637 720.703633 
L 538.44274 721.049609 
L 539.083843 721.214564 
L 539.724946 718.220744 
L 540.366049 719.93563 
L 541.007152 720.607945 
L 541.648255 720.460842 
L 542.289358 697.843491 
L 542.930461 713.702701 
L 543.571564 719.078722 
L 544.212667 716.581195 
L 545.494873 719.616789 
L 546.135976 718.504952 
L 546.777079 719.818876 
L 547.418182 718.041508 
L 548.059285 718.440684 
L 548.700388 717.532362 
L 549.341491 718.819865 
L 549.982594 717.028929 
L 550.623697 719.221183 
L 552.547006 716.429808 
L 553.188109 717.900118 
L 553.829212 718.324287 
L 554.470315 716.049198 
L 555.111417 718.262875 
L 555.75252 716.6651 
L 556.393623 717.207094 
L 557.034726 714.25255 
L 557.675829 717.554499 
L 558.316932 715.797482 
L 558.958035 716.801135 
L 559.599138 717.047852 
L 560.240241 716.827913 
L 560.881344 717.643046 
L 561.522447 717.296713 
L 562.16355 717.523079 
L 562.804653 717.193527 
L 563.445756 717.319206 
L 564.086859 716.482294 
L 564.727962 717.364194 
L 565.369065 716.343046 
L 566.010168 715.598608 
L 566.651271 714.670292 
L 567.292374 716.197729 
L 567.933477 716.968588 
L 569.215683 716.552631 
L 569.856786 715.362244 
L 570.497889 715.690011 
L 571.138992 715.52827 
L 571.780095 716.833983 
L 573.062301 715.999926 
L 573.703404 715.457932 
L 574.344507 715.857822 
L 574.98561 713.749117 
L 575.626713 714.798828 
L 576.267816 715.050544 
L 576.908919 713.137856 
L 577.550022 714.599954 
L 578.191125 715.261915 
L 578.832227 713.061806 
L 579.47333 714.90487 
L 580.114433 715.713933 
L 580.755536 714.52319 
L 581.396639 714.330028 
L 582.037742 715.183722 
L 582.678845 714.607452 
L 583.319948 713.794104 
L 583.961051 713.361366 
L 584.602154 714.032253 
L 585.243257 713.261037 
L 585.88436 713.816598 
L 586.525463 713.386716 
L 587.166566 714.432143 
L 587.807669 712.081004 
L 588.448772 713.379218 
L 589.089875 713.247469 
L 589.730978 713.99155 
L 590.372081 712.136346 
L 591.013184 709.460296 
L 591.654287 703.625829 
L 592.29539 711.805008 
L 592.936493 711.7843 
L 594.218699 710.493583 
L 594.859802 711.183751 
L 595.500905 712.214539 
L 596.142008 712.979328 
L 596.783111 712.091358 
L 597.424214 712.557302 
L 598.065317 711.47867 
L 598.70642 711.999955 
L 599.347523 712.248458 
L 599.988626 711.797511 
L 600.629729 713.159279 
L 601.270832 712.059581 
L 601.911935 711.30943 
L 602.553037 711.904267 
L 603.19414 711.387623 
L 603.835243 710.626404 
L 604.476346 709.528849 
L 605.117449 710.093693 
L 605.758552 709.805915 
L 606.399655 710.119044 
L 607.040758 708.661587 
L 607.681861 710.312205 
L 608.322964 709.468865 
L 608.964067 708.20814 
L 609.60517 710.628546 
L 610.246273 711.354418 
L 610.887376 711.707892 
L 611.528479 708.98257 
L 612.169582 706.810668 
L 612.810685 706.506823 
L 613.451788 709.247497 
L 614.092891 709.776281 
L 614.733994 709.028629 
L 615.375097 707.859308 
L 616.0162 708.570184 
L 616.657303 707.357303 
L 617.298406 707.785757 
L 617.939509 707.823246 
L 618.580612 707.258759 
L 619.221715 707.142005 
L 619.862818 707.971777 
L 620.503921 706.417204 
L 621.145024 706.44434 
L 622.42723 707.249833 
L 623.068333 706.512892 
L 623.709436 706.744971 
L 624.350539 705.216106 
L 624.991642 702.172657 
L 625.632745 696.467441 
L 626.273847 703.219869 
L 626.91495 705.704186 
L 627.556053 705.229674 
L 628.838259 704.827999 
L 629.479362 703.159886 
L 630.120465 703.420171 
L 630.761568 703.87576 
L 631.402671 703.540138 
L 632.043774 704.151399 
L 632.684877 704.212454 
L 633.32598 704.564857 
L 633.967083 706.417204 
L 634.608186 703.839342 
L 635.249289 702.832119 
L 635.890392 700.883726 
L 636.531495 701.880952 
L 637.172598 702.40188 
L 637.813701 705.630635 
L 638.454804 701.165077 
L 639.095907 704.931542 
L 639.73701 703.99537 
L 640.378113 701.572465 
L 641.019216 703.531212 
L 641.660319 702.946016 
L 642.301422 700.352444 
L 642.942525 701.250411 
L 643.583628 705.129344 
L 644.224731 703.320199 
L 644.865834 702.706082 
L 645.506937 703.973234 
L 646.14804 704.567713 
L 646.789143 704.235304 
L 647.430246 703.447664 
L 648.071349 696.363898 
L 648.712452 700.406357 
L 649.353555 700.825528 
L 649.994657 701.033328 
L 650.63576 699.886143 
L 651.276863 700.54382 
L 651.917966 699.561233 
L 652.559069 701.042611 
L 653.200172 701.8631 
L 653.841275 702.166945 
L 654.482378 698.767879 
L 655.123481 698.534015 
L 655.764584 701.216135 
L 656.405687 702.53113 
L 657.04679 702.020556 
L 657.687893 700.519541 
L 658.328996 701.291114 
L 658.970099 694.02347 
L 659.611202 694.247694 
L 660.252305 699.387709 
L 661.534511 696.128962 
L 662.175614 698.131269 
L 663.45782 697.768868 
L 664.098923 697.197954 
L 664.740026 698.115916 
L 665.381129 696.494219 
L 666.022232 698.408335 
L 666.663335 695.588397 
L 667.304438 698.104133 
L 667.945541 696.916603 
L 668.586644 697.11869 
L 669.227747 696.127534 
L 669.86885 695.396664 
L 670.509953 697.235801 
L 671.151056 696.543848 
L 671.792159 695.652665 
L 672.433262 684.810646 
L 673.074364 693.620366 
L 673.715467 695.530198 
L 674.35657 693.283316 
L 674.997673 695.041761 
L 675.638776 695.161728 
L 676.279879 697.827424 
L 676.920982 694.41729 
L 677.562085 697.402184 
L 678.203188 697.722096 
L 678.844291 696.891253 
L 679.485394 693.616439 
L 680.126497 693.71784 
L 680.7676 690.739373 
L 681.408703 694.083096 
L 682.049806 694.229842 
L 682.690909 696.037559 
L 683.332012 694.024898 
L 683.973115 696.419597 
L 684.614218 697.602486 
L 685.255321 697.328275 
L 685.896424 696.710231 
L 686.537527 689.46758 
L 687.17863 695.531627 
L 687.819733 694.365876 
L 688.460836 694.551539 
L 689.101939 693.843876 
L 689.743042 694.520833 
L 690.384145 694.122371 
L 691.025248 688.043686 
L 691.666351 691.22174 
L 692.307454 693.590375 
L 692.948557 688.548547 
L 693.58966 692.124706 
L 694.871866 691.619488 
L 696.154072 691.799439 
L 697.436277 685.207323 
L 698.07738 690.754369 
L 699.359586 691.397049 
L 700.000689 685.800374 
L 700.641792 688.317539 
L 701.282895 688.485707 
L 701.923998 689.556484 
L 702.565101 666.041522 
L 703.206204 670.200021 
L 703.847307 677.71117 
L 704.48841 675.339679 
L 705.129513 669.617682 
L 705.770616 671.893841 
L 706.411719 684.663901 
L 707.052822 688.193287 
L 707.693925 686.309877 
L 708.335028 685.074502 
L 708.976131 682.594113 
L 709.617234 683.919463 
L 710.258337 688.461428 
L 710.89944 686.814381 
L 711.540543 688.672798 
L 712.181646 689.476863 
L 712.822749 688.228992 
L 713.463852 689.315122 
L 714.104955 687.546323 
L 714.746058 682.529488 
L 715.387161 688.89131 
L 716.028264 688.010838 
L 716.669367 688.218995 
L 717.31047 690.454451 
L 717.951573 689.963515 
L 718.592676 689.978511 
L 719.233779 685.25838 
L 719.874882 681.494772 
L 720.515984 685.168405 
L 721.157087 685.768954 
L 722.439293 685.952832 
L 723.080396 686.779748 
L 723.721499 683.085406 
L 724.362602 681.957502 
L 725.003705 682.399524 
L 725.644808 682.50271 
L 726.285911 682.802627 
L 726.927014 687.062884 
L 727.568117 686.486257 
L 728.20922 686.971124 
L 728.850323 686.911497 
L 729.491426 683.269284 
L 730.132529 686.331657 
L 730.773632 685.424406 
L 731.414735 686.448767 
L 732.055838 681.231273 
L 732.696941 682.450581 
L 733.338044 680.34616 
L 733.979147 682.589471 
L 734.62025 686.201692 
L 735.261353 682.659809 
L 735.902456 683.305346 
L 736.543559 684.311855 
L 737.184662 684.632124 
L 737.825765 682.249565 
L 738.466868 684.262226 
L 739.107971 682.919024 
L 739.749074 683.086835 
L 740.390177 684.997738 
L 741.03128 682.059617 
L 741.672383 682.850114 
L 742.313486 680.565028 
L 742.954589 683.819133 
L 743.595692 672.172693 
L 744.236794 677.33913 
L 744.877897 679.116498 
L 745.519 678.851928 
L 746.160103 678.236026 
L 746.801206 679.407132 
L 747.442309 678.492384 
L 748.083412 680.097657 
L 748.724515 671.591424 
L 749.365618 679.038662 
L 750.006721 678.929406 
L 750.647824 680.723556 
L 751.288927 681.875382 
L 751.93003 677.444101 
L 752.571133 681.085599 
L 753.212236 676.973516 
L 753.853339 681.936794 
L 754.494442 679.164342 
L 755.135545 672.918559 
L 755.776648 674.928007 
L 756.417751 678.628775 
L 757.058854 677.563711 
L 757.699957 678.543084 
L 758.34106 677.993235 
L 758.982163 680.718914 
L 759.623266 677.252011 
L 760.264369 678.640557 
L 760.905472 676.018421 
L 761.546575 677.35234 
L 762.187678 678.017514 
L 762.828781 669.066762 
L 763.469884 675.965579 
L 764.110987 675.144019 
L 764.75209 679.097217 
L 765.393193 677.325562 
L 766.034296 676.355114 
L 766.675399 678.865138 
L 767.316502 676.582909 
L 767.957604 672.644349 
L 768.598707 670.54207 
L 769.23981 674.024684 
L 769.880913 675.97022 
L 770.522016 673.174203 
L 771.163119 676.053769 
L 772.445325 673.28703 
L 773.086428 674.765195 
L 773.727531 674.73306 
L 774.368634 673.415566 
L 775.65084 674.158219 
L 776.291943 674.493841 
L 776.933046 675.220069 
L 777.574149 673.496258 
L 778.215252 670.173243 
L 778.856355 677.241656 
L 779.497458 674.247837 
L 780.138561 670.278571 
L 781.420767 672.522954 
L 782.06187 669.044625 
L 782.702973 670.703454 
L 783.344076 673.412352 
L 783.985179 668.822543 
L 784.626282 665.213178 
L 785.267385 666.743829 
L 785.908488 665.819797 
L 786.549591 667.001258 
L 787.190694 664.807576 
L 787.831797 668.530481 
L 788.4729 671.20653 
L 789.114003 669.511282 
L 789.755106 669.978654 
L 790.396209 668.475139 
L 791.037312 667.998841 
L 791.678414 671.314358 
L 792.319517 667.39972 
L 792.96062 669.366322 
L 793.601723 669.403812 
L 794.242826 666.97448 
L 794.883929 670.47566 
L 795.525032 665.619495 
L 796.807238 644.496019 
L 797.448341 667.15693 
L 798.089444 666.724549 
L 798.730547 666.476045 
L 799.37165 665.921912 
L 800.012753 667.374013 
L 800.653856 665.556298 
L 801.294959 665.974041 
L 801.936062 667.74284 
L 802.577165 668.271623 
L 803.218268 665.587718 
L 803.859371 665.304939 
L 804.500474 666.252536 
L 805.141577 664.856848 
L 805.78268 664.448032 
L 806.423783 661.781622 
L 807.064886 659.826446 
L 807.705989 665.888707 
L 808.347092 666.697056 
L 808.988195 664.419825 
L 809.629298 663.591482 
L 810.270401 663.398677 
L 810.911504 663.545066 
L 811.552607 664.148471 
L 812.19371 662.740644 
L 812.834813 663.814635 
L 813.475916 662.376816 
L 814.117019 663.230866 
L 814.758121 663.254431 
L 815.399224 662.191152 
L 816.040327 662.80277 
L 816.68143 659.486896 
L 817.322533 662.813838 
L 817.963636 662.335398 
L 818.604739 660.358442 
L 819.245842 663.02985 
L 819.886945 661.195355 
L 820.528048 663.094118 
L 821.169151 662.365033 
L 821.810254 660.911147 
L 822.451357 662.382885 
L 823.09246 654.029825 
L 823.733563 660.341661 
L 824.374666 661.55954 
L 825.015769 658.052291 
L 825.656872 658.50788 
L 826.297975 659.875004 
L 826.939078 660.578382 
L 827.580181 658.793158 
L 828.221284 660.957563 
L 828.862387 657.588133 
L 829.50349 660.009609 
L 830.144593 656.542349 
L 830.785696 657.842348 
L 831.426799 656.502003 
L 832.067902 650.654325 
L 832.709005 651.791155 
L 833.350108 648.608459 
L 833.991211 653.367865 
L 834.632314 648.280692 
L 835.273417 648.93944 
L 835.91452 650.681103 
L 836.555623 651.581213 
L 837.196726 653.736335 
L 837.837829 653.915571 
L 838.478931 652.562015 
L 839.120034 649.797418 
L 839.761137 646.041665 
L 840.40224 652.154984 
L 841.043343 650.956742 
L 841.684446 650.295852 
L 842.325549 649.013348 
L 842.966652 652.191759 
L 843.607755 653.383932 
L 844.248858 655.164513 
L 844.889961 655.341965 
L 845.531064 653.276818 
L 846.172167 651.661905 
L 846.81327 654.817109 
L 847.454373 649.406811 
L 848.095476 652.650562 
L 848.736579 651.805794 
L 849.377682 652.770529 
L 850.018785 651.522658 
L 850.659888 652.52631 
L 851.300991 649.724224 
L 851.942094 653.508897 
L 852.583197 651.960037 
L 853.2243 649.159736 
L 853.865403 648.824471 
L 854.506506 649.57605 
L 855.788712 650.455094 
L 856.429815 649.224004 
L 857.070918 648.697006 
L 857.712021 651.926118 
L 858.353124 643.329554 
L 858.994227 643.115684 
L 859.63533 646.980692 
L 860.276433 646.786103 
L 860.917536 647.376298 
L 861.558639 649.751359 
L 862.199741 648.671656 
L 862.840844 648.417083 
L 863.481947 646.822165 
L 864.12305 647.935787 
L 864.764153 646.149492 
L 865.405256 648.696649 
L 866.046359 646.643642 
L 866.687462 646.140209 
L 867.328565 645.485032 
L 867.969668 645.847076 
L 868.610771 643.856909 
L 869.251874 645.992393 
L 869.892977 644.518869 
L 870.53408 641.502913 
L 871.175183 641.31118 
L 871.816286 642.190224 
L 872.457389 644.518512 
L 873.098492 629.607256 
L 873.739595 633.582234 
L 874.380698 641.799617 
L 875.021801 641.58789 
L 875.662904 641.155152 
L 876.304007 635.807694 
L 876.94511 635.096104 
L 877.586213 641.495058 
L 878.227316 641.502556 
L 878.868419 640.830241 
L 879.509522 641.953504 
L 880.150625 642.546198 
L 880.791728 640.039744 
L 881.432831 638.504452 
L 882.715037 633.421921 
L 883.35614 632.714973 
L 883.997243 635.89267 
L 884.638346 638.275586 
L 885.279449 632.920273 
L 885.920551 637.947462 
L 886.561654 635.022552 
L 887.202757 615.600751 
L 887.84386 633.285887 
L 888.484963 633.067019 
L 889.126066 635.23428 
L 889.767169 634.16743 
L 890.408272 635.363173 
L 891.049375 633.709699 
L 891.690478 633.472979 
L 892.331581 632.622141 
L 892.972684 638.345567 
L 893.613787 634.925436 
L 894.25489 635.871605 
L 894.895993 637.138756 
L 895.537096 638.085282 
L 896.178199 635.368886 
L 896.819302 633.818955 
L 897.460405 638.044579 
L 898.101508 633.637219 
L 898.742611 637.679322 
L 899.383714 633.895005 
L 900.024817 632.925986 
L 900.66592 634.671935 
L 901.307023 634.057104 
L 901.948126 635.593467 
L 902.589229 635.241778 
L 903.230332 631.573858 
L 903.871435 632.836011 
L 904.512538 627.791327 
L 905.153641 629.99215 
L 905.794744 631.683114 
L 906.435847 623.838842 
L 907.07695 628.828899 
L 907.718053 630.266717 
L 908.359156 627.825603 
L 909.000259 594.534758 
L 909.641361 599.625144 
L 910.282464 617.682678 
L 910.923567 620.395861 
L 911.56467 615.870319 
L 912.205773 620.444062 
L 912.846876 618.919124 
L 913.487979 630.26636 
L 914.129082 622.788774 
L 914.770185 625.866499 
L 915.411288 631.007942 
L 916.052391 629.800774 
L 916.693494 620.685424 
L 917.334597 623.571059 
L 917.9757 629.932524 
L 918.616803 621.209565 
L 919.257906 622.266418 
L 919.899009 620.643292 
L 920.540112 626.591657 
L 921.181215 617.248155 
L 921.822318 623.172597 
L 922.463421 625.733678 
L 923.104524 627.343593 
L 923.745627 625.586576 
L 924.38673 626.693414 
L 925.027833 617.815856 
L 925.668936 619.215828 
L 926.310039 626.527389 
L 926.951142 625.531234 
L 927.592245 623.543923 
L 928.233348 620.950708 
L 928.874451 624.035574 
L 929.515554 619.491466 
L 930.156657 620.976772 
L 930.79776 617.950462 
L 931.438863 618.681689 
L 932.079966 622.317475 
L 932.721069 623.97559 
L 933.362171 624.477952 
L 934.003274 620.92143 
L 934.644377 623.075481 
L 935.28548 618.178256 
L 935.926583 601.417508 
L 936.567686 614.603525 
L 937.849892 615.793912 
L 938.490995 614.545327 
L 939.132098 616.431951 
L 939.773201 615.199432 
L 940.414304 615.689298 
L 941.055407 612.794737 
L 941.69651 613.848732 
L 942.337613 618.339997 
L 942.978716 614.389655 
L 943.619819 611.532227 
L 944.260922 605.71704 
L 944.902025 611.418329 
L 945.543128 611.570787 
L 946.184231 609.461011 
L 946.825334 620.809318 
L 947.466437 619.268671 
L 948.10754 611.581499 
L 948.748643 618.944831 
L 949.389746 615.147304 
L 950.030849 614.374302 
L 950.671952 609.01042 
L 951.313055 616.896466 
L 951.954158 598.383343 
L 952.595261 610.8492 
L 953.236364 611.560433 
L 953.877467 613.033957 
L 954.51857 610.268289 
L 955.159673 608.957578 
L 955.800776 598.448325 
L 956.441879 608.020335 
L 957.082981 607.868948 
L 957.724084 602.856755 
L 958.365187 596.928386 
L 959.00629 587.450278 
L 959.647393 595.7837 
L 960.288496 596.162525 
L 960.929599 603.72366 
L 961.570702 599.145633 
L 962.211805 595.475214 
L 962.852908 596.998009 
L 963.494011 606.386856 
L 964.135114 602.006632 
L 964.776217 600.331735 
L 965.41732 586.098864 
L 966.058423 589.83855 
L 966.699526 599.448407 
L 967.340629 601.537475 
L 967.981732 605.483176 
L 968.622835 604.712316 
L 969.263938 591.253875 
L 970.546144 598.925693 
L 971.187247 598.835718 
L 971.82835 598.608281 
L 972.469453 605.935551 
L 973.110556 599.11457 
L 973.751659 606.338655 
L 974.392762 601.780266 
L 975.033865 607.232695 
L 975.674968 600.502403 
L 976.316071 600.014323 
L 976.957174 604.839424 
L 978.23938 599.565518 
L 978.880483 603.575843 
L 979.521586 599.674416 
L 980.162688 601.790263 
L 980.803791 603.325555 
L 981.444894 598.732532 
L 982.085997 598.145194 
L 982.7271 596.149314 
L 983.368203 586.717622 
L 984.009306 591.746596 
L 984.650409 594.967853 
L 985.291512 596.095757 
L 985.932615 599.073867 
L 986.573718 586.998973 
L 987.214821 582.732647 
L 987.855924 596.343903 
L 988.497027 595.506991 
L 989.13813 601.172219 
L 989.779233 589.231931 
L 990.420336 593.805673 
L 991.061439 591.350634 
L 991.702542 596.553846 
L 992.984748 586.170987 
L 993.625851 586.446268 
L 994.908057 591.821219 
L 995.54916 593.809957 
L 996.190263 578.10392 
L 997.472469 581.61831 
L 998.113572 580.129791 
L 998.754675 592.762031 
L 999.395778 591.683756 
L 1000.036881 587.414216 
L 1000.677984 589.299412 
L 1001.319087 575.762778 
L 1001.96019 584.722814 
L 1002.601293 588.734925 
L 1003.242396 589.782851 
L 1003.883498 576.866403 
L 1004.524601 573.332732 
L 1005.165704 530.646613 
L 1005.806807 574.545255 
L 1006.44791 587.03682 
L 1007.089013 582.414877 
L 1007.730116 586.871865 
L 1008.371219 588.190074 
L 1009.012322 588.246844 
L 1009.653425 585.032728 
L 1010.294528 585.796447 
L 1010.935631 590.707239 
L 1011.576734 587.722703 
L 1012.217837 586.222044 
L 1013.500043 587.238907 
L 1014.141146 590.558709 
L 1014.782249 587.89337 
L 1015.423352 587.933716 
L 1016.064455 564.347345 
L 1016.705558 585.878924 
L 1017.346661 587.975491 
L 1017.987764 588.303615 
L 1018.628867 583.839485 
L 1019.26997 582.014987 
L 1019.911073 586.215974 
L 1020.552176 577.893977 
L 1021.193279 583.673102 
L 1021.834382 582.913668 
L 1022.475485 585.241242 
L 1023.116588 578.414191 
L 1023.757691 580.693207 
L 1024.398794 581.566182 
L 1025.039897 581.708285 
L 1025.681 577.28593 
L 1026.322103 583.210372 
L 1026.963206 583.738798 
L 1027.604308 580.958135 
L 1028.245411 576.550775 
L 1028.886514 584.267582 
L 1030.16872 576.612187 
L 1030.809823 581.714355 
L 1031.450926 571.79137 
L 1032.092029 581.736849 
L 1032.733132 581.031329 
L 1033.374235 581.881809 
L 1034.015338 580.03089 
L 1034.656441 571.646053 
L 1035.297544 578.1232 
L 1035.938647 574.533473 
L 1036.57975 572.87143 
L 1037.220853 575.083322 
L 1037.861956 579.047232 
L 1038.503059 584.34506 
L 1039.144162 570.297138 
L 1039.785265 575.249347 
L 1041.067471 576.884612 
L 1041.708574 577.988594 
L 1042.349677 578.226386 
L 1042.99078 574.900158 
L 1043.631883 575.276126 
L 1044.272986 578.310291 
L 1044.914089 567.690712 
L 1045.555192 570.464949 
L 1046.196295 558.121558 
L 1046.837398 567.127652 
L 1047.478501 562.933806 
L 1048.119604 573.921141 
L 1048.760707 574.364591 
L 1049.40181 561.756629 
L 1050.042913 571.036934 
L 1050.684016 573.193841 
L 1051.325118 571.189035 
L 1051.966221 572.645421 
L 1052.607324 570.487443 
L 1053.248427 568.800764 
L 1053.88953 569.747289 
L 1054.530633 567.704636 
L 1055.171736 560.459843 
L 1055.812839 568.377309 
L 1056.453942 570.642757 
L 1057.095045 571.041576 
L 1058.377251 562.376102 
L 1059.018354 566.183269 
L 1059.659457 562.133669 
L 1060.30056 562.908098 
L 1060.941663 567.591096 
L 1061.582766 561.924083 
L 1062.223869 561.619881 
L 1062.864972 565.912272 
L 1063.506075 561.8641 
L 1064.788281 562.890603 
L 1065.429384 565.969042 
L 1066.070487 565.404555 
L 1066.71159 565.134629 
L 1067.352693 563.593981 
L 1067.993796 554.894588 
L 1068.634899 561.837321 
L 1069.276002 564.32021 
L 1069.917105 559.426199 
L 1070.558208 563.752509 
L 1071.199311 560.531252 
L 1071.840414 560.570527 
L 1072.481517 555.521915 
L 1073.12262 556.869759 
L 1073.763723 559.255531 
L 1075.045928 561.248912 
L 1075.687031 550.33477 
L 1076.328134 557.507798 
L 1076.969237 561.575251 
L 1077.61034 558.341854 
L 1078.251443 547.299177 
L 1078.892546 552.886569 
L 1079.533649 548.856248 
L 1080.174752 554.731418 
L 1080.815855 555.137021 
L 1081.456958 555.705079 
L 1082.098061 557.634906 
L 1082.739164 554.802113 
L 1083.380267 547.838314 
L 1084.02137 551.746525 
L 1084.662473 556.780141 
L 1085.303576 554.431501 
L 1085.944679 551.258445 
L 1086.585782 556.635895 
L 1087.226885 548.434222 
L 1087.867988 552.932627 
L 1088.509091 549.441802 
L 1089.150194 556.076406 
L 1090.4324 551.477313 
L 1091.073503 550.818209 
L 1091.714606 551.943257 
L 1092.355709 546.807883 
L 1092.996812 549.028701 
L 1093.637915 547.313815 
L 1094.279018 545.25938 
L 1094.920121 547.761907 
L 1095.561224 547.607663 
L 1096.202327 547.663005 
L 1096.84343 545.84172 
L 1098.125636 551.060999 
L 1098.766738 545.377562 
L 1099.407841 546.296952 
L 1100.048944 545.102281 
L 1100.690047 546.334799 
L 1101.33115 542.241996 
L 1101.972253 543.860479 
L 1103.254459 548.00434 
L 1103.895562 548.71593 
L 1104.536665 553.485333 
L 1105.177768 546.067015 
L 1105.818871 546.330157 
L 1106.459974 541.520052 
L 1107.101077 541.065891 
L 1107.74218 545.281517 
L 1108.383283 546.024527 
L 1109.024386 542.542985 
L 1109.665489 548.554189 
L 1110.947695 537.966029 
L 1111.588798 538.685117 
L 1112.229901 547.33024 
L 1112.871004 540.724913 
L 1113.512107 540.199343 
L 1114.15321 541.749274 
L 1115.435416 536.696378 
L 1116.076519 547.161357 
L 1116.717622 542.480859 
L 1117.358725 539.21997 
L 1117.999828 536.886683 
L 1118.640931 533.589375 
L 1119.282034 537.151967 
L 1119.923137 534.674791 
L 1120.56424 541.603957 
L 1121.205343 540.194702 
L 1121.846445 540.49819 
L 1122.487548 540.664573 
L 1123.128651 533.517967 
L 1123.769754 540.847379 
L 1124.410857 538.526946 
L 1125.05196 540.344304 
L 1125.693063 534.077098 
L 1126.334166 534.974352 
L 1126.975269 543.069625 
L 1127.616372 536.630682 
L 1128.257475 533.830024 
L 1128.898578 535.896598 
L 1129.539681 529.640104 
L 1130.180784 539.950483 
L 1130.821887 530.334913 
L 1131.46299 527.308603 
L 1132.104093 529.127388 
L 1132.745196 537.58292 
L 1133.386299 538.242025 
L 1134.027402 491.077852 
L 1134.668505 516.785068 
L 1135.309608 514.270402 
L 1135.950711 507.923934 
L 1136.591814 516.388034 
L 1137.232917 532.294731 
L 1137.87402 526.969767 
L 1138.515123 528.296545 
L 1139.156226 532.633924 
L 1140.438432 509.948377 
L 1141.720638 536.133319 
L 1142.361741 522.095393 
L 1143.002844 530.740516 
L 1143.643947 532.495748 
L 1144.28505 533.600801 
L 1144.926153 525.792948 
L 1145.567255 523.140463 
L 1146.208358 521.922584 
L 1147.490564 532.388277 
L 1148.131667 526.765895 
L 1148.77277 533.58152 
L 1149.413873 523.860622 
L 1150.054976 528.317968 
L 1150.696079 518.120772 
L 1151.337182 518.644914 
L 1151.978285 527.679572 
L 1152.619388 515.998856 
L 1153.260491 522.610609 
L 1153.901594 521.439145 
L 1154.542697 503.622973 
L 1155.1838 523.27257 
L 1155.824903 517.544145 
L 1156.466006 490.859341 
L 1157.107109 507.116656 
L 1157.748212 507.473343 
L 1158.389315 520.18092 
L 1159.030418 513.129288 
L 1159.671521 515.48364 
L 1160.312624 512.651562 
L 1160.953727 522.879821 
L 1161.59483 517.049995 
L 1162.235933 521.327033 
L 1162.877036 519.81602 
L 1163.518139 519.414702 
L 1164.159242 512.361285 
L 1164.800345 515.227282 
L 1165.441448 515.991001 
L 1166.082551 517.457383 
L 1166.723654 517.845491 
L 1167.364757 511.637912 
L 1168.00586 516.458372 
L 1168.646963 513.693775 
L 1169.288065 509.741648 
L 1169.929168 514.547826 
L 1170.570271 518.1222 
L 1171.211374 514.597098 
L 1171.852477 515.055187 
L 1172.49358 516.10347 
L 1173.134683 515.489353 
L 1173.775786 509.548844 
L 1174.416889 514.643514 
L 1175.057992 513.726981 
L 1175.699095 515.084821 
L 1176.340198 507.887515 
L 1176.981301 508.982214 
L 1177.622404 515.061613 
L 1178.263507 505.025802 
L 1178.90461 509.984795 
L 1179.545713 505.201468 
L 1180.186816 505.690976 
L 1180.827919 506.503967 
L 1181.469022 510.757083 
L 1182.110125 512.50196 
L 1182.751228 507.725774 
L 1183.392331 505.893063 
L 1184.033434 502.849972 
L 1184.674537 501.00655 
L 1185.31564 510.622477 
L 1185.956743 510.351123 
L 1186.597846 510.701741 
L 1187.238949 507.107729 
L 1187.880052 510.216517 
L 1188.521155 493.99812 
L 1189.162258 511.254446 
L 1189.803361 504.475239 
L 1190.444464 506.983478 
L 1191.085567 508.71443 
L 1191.72667 501.679222 
L 1192.367773 505.614926 
L 1193.008875 510.854913 
L 1193.649978 500.476696 
L 1194.291081 501.743133 
L 1194.932184 488.99164 
L 1195.573287 499.676916 
L 1196.21439 496.316411 
L 1196.855493 501.604243 
L 1197.496596 501.915586 
L 1198.137699 493.572523 
L 1198.778802 505.894849 
L 1199.419905 504.210312 
L 1200.061008 506.291525 
L 1200.702111 496.69345 
L 1201.343214 508.16958 
L 1201.984317 503.350191 
L 1202.62542 506.888861 
L 1203.266523 500.290676 
L 1203.907626 495.610891 
L 1204.548729 494.790045 
L 1205.189832 500.485265 
L 1205.830935 502.940304 
L 1206.472038 499.609791 
L 1207.113141 498.474389 
L 1207.754244 506.442912 
L 1208.395347 500.313169 
L 1209.03645 500.497404 
L 1209.677553 497.172961 
L 1210.318656 495.002844 
L 1210.959759 504.830141 
L 1211.600862 497.394329 
L 1212.241965 493.003751 
L 1212.883068 449.041912 
L 1213.524171 478.952258 
L 1214.165274 490.060989 
L 1214.806377 498.464035 
L 1215.44748 496.256071 
L 1216.088583 497.749946 
L 1217.370788 483.12254 
L 1218.011891 490.579061 
L 1218.652994 491.896912 
L 1219.294097 489.88318 
L 1219.9352 489.691447 
L 1220.576303 489.623966 
L 1221.217406 488.112953 
L 1221.858509 501.46928 
L 1222.499612 497.154752 
L 1223.140715 494.540114 
L 1223.781818 488.097957 
L 1224.422921 494.905728 
L 1225.064024 489.608613 
L 1225.705127 491.429541 
L 1226.34623 488.777413 
L 1226.987333 486.752613 
L 1227.628436 487.477771 
L 1228.269539 488.795979 
L 1228.910642 490.995375 
L 1229.551745 482.889747 
L 1230.192848 494.213418 
L 1230.833951 492.874858 
L 1231.475054 487.567389 
L 1232.116157 486.50161 
L 1232.75726 460.731911 
L 1233.398363 477.185244 
L 1234.039466 482.174943 
L 1234.680569 474.613808 
L 1235.321672 485.625066 
L 1235.962775 486.10779 
L 1236.603878 487.625944 
L 1237.244981 479.984474 
L 1237.886084 495.681229 
L 1238.527187 488.329679 
L 1239.16829 483.028637 
L 1239.809393 485.392987 
L 1240.450495 482.212433 
L 1241.091598 483.870191 
L 1241.732701 480.302601 
L 1242.373804 478.25245 
L 1243.014907 471.726388 
L 1243.65601 467.904582 
L 1244.297113 475.897384 
L 1244.938216 480.874943 
L 1245.579319 484.521441 
L 1246.220422 483.350334 
L 1246.861525 479.678487 
L 1247.502628 476.692522 
L 1248.143731 472.590436 
L 1248.784834 479.65278 
L 1249.425937 481.973927 
L 1250.06704 475.715648 
L 1250.708143 479.798454 
L 1251.349246 478.171758 
L 1251.990349 477.762942 
L 1252.631452 471.923834 
L 1253.272555 456.449518 
L 1253.913658 468.046686 
L 1254.554761 477.009578 
L 1255.195864 472.662202 
L 1255.836967 480.555746 
L 1256.47807 477.169891 
L 1257.119173 469.693019 
L 1257.760276 475.903096 
L 1258.401379 478.185683 
L 1259.042482 478.128913 
L 1259.683585 478.405266 
L 1260.324688 465.864072 
L 1260.965791 468.875386 
L 1261.606894 480.067665 
L 1262.247997 467.699638 
L 1262.8891 465.593789 
L 1263.530202 464.171323 
L 1264.171305 467.787828 
L 1264.812408 464.40483 
L 1265.453511 465.224247 
L 1266.094614 470.548141 
L 1266.735717 466.77882 
L 1267.37682 472.502246 
L 1268.017923 454.049106 
L 1268.659026 465.198183 
L 1269.300129 462.460722 
L 1269.941232 463.862836 
L 1271.223438 451.972178 
L 1271.864541 453.155067 
L 1272.505644 455.851111 
L 1273.146747 425.339859 
L 1273.78785 443.71909 
L 1274.428953 451.169898 
L 1275.070056 452.316726 
L 1275.711159 454.128727 
L 1276.352262 454.28904 
L 1276.993365 448.11431 
L 1277.634468 453.637434 
L 1278.275571 455.883959 
L 1278.916674 456.865832 
L 1279.557777 444.234663 
L 1280.19888 448.006839 
L 1280.839983 452.893353 
L 1281.481086 454.319032 
L 1282.122189 452.919774 
L 1282.763292 453.021889 
L 1283.404395 451.765806 
L 1284.045498 446.580803 
L 1284.686601 446.010603 
L 1285.327704 453.900933 
L 1285.968807 450.447597 
L 1286.60991 457.759158 
L 1287.251012 450.702527 
L 1287.892115 447.701566 
L 1288.533218 454.853885 
L 1289.174321 449.472508 
L 1289.815424 451.405905 
L 1290.456527 449.236144 
L 1291.09763 451.742955 
L 1291.738733 449.384318 
L 1292.379836 448.704505 
L 1293.020939 454.75177 
L 1293.662042 458.182613 
L 1294.303145 457.869127 
L 1294.944248 452.705904 
L 1295.585351 445.601787 
L 1296.226454 443.862979 
L 1296.867557 452.386706 
L 1297.50866 447.051388 
L 1298.790866 454.528617 
L 1299.431969 447.179567 
L 1300.073072 450.173744 
L 1300.714175 460.247759 
L 1301.355278 434.97221 
L 1301.996381 438.771165 
L 1302.637484 436.219367 
L 1303.278587 451.843641 
L 1303.91969 445.635706 
L 1304.560793 444.697035 
L 1305.201896 447.259545 
L 1305.842999 447.852596 
L 1306.484102 447.046746 
L 1307.125205 428.886026 
L 1307.766308 440.357157 
L 1309.048514 449.040127 
L 1309.689617 445.884209 
L 1310.33072 449.342187 
L 1310.971822 449.170805 
L 1311.612925 441.82961 
L 1312.254028 444.294646 
L 1312.895131 442.37446 
L 1313.536234 442.253065 
L 1314.177337 446.387999 
L 1314.81844 438.41662 
L 1315.459543 409.145384 
L 1316.100646 423.71959 
L 1316.741749 427.444994 
L 1317.382852 425.606214 
L 1318.023955 435.008271 
L 1318.665058 440.285391 
L 1319.306161 438.03601 
L 1319.947264 441.004479 
L 1320.588367 438.516592 
L 1321.22947 429.33983 
L 1321.870573 443.653037 
L 1322.511676 433.110579 
L 1323.152779 426.096079 
L 1323.793882 427.738842 
L 1324.434985 440.405001 
L 1325.076088 427.611377 
L 1325.717191 438.470176 
L 1326.358294 432.48468 
L 1326.999397 427.757051 
L 1327.6405 439.711621 
L 1328.281603 434.477703 
L 1328.922706 433.866799 
L 1329.563809 419.43434 
L 1330.204912 433.952133 
L 1330.846015 428.063752 
L 1331.487118 434.104948 
L 1332.128221 416.779713 
L 1332.769324 417.273863 
L 1333.410427 421.841535 
L 1334.05153 434.778692 
L 1334.692632 429.567625 
L 1335.333735 429.005279 
L 1335.974838 425.186686 
L 1336.615941 430.249937 
L 1337.257044 425.206324 
L 1337.898147 433.154138 
L 1338.53925 430.81371 
L 1339.180353 420.858948 
L 1339.821456 427.041177 
L 1340.462559 428.452931 
L 1341.103662 422.369961 
L 1341.744765 422.091466 
L 1342.385868 424.502589 
L 1343.026971 429.899676 
L 1343.668074 422.750571 
L 1344.309177 426.178557 
L 1344.95028 421.305254 
L 1345.591383 417.746947 
L 1346.232486 432.439692 
L 1346.873589 426.209977 
L 1347.514692 417.1364 
L 1348.155795 427.382511 
L 1348.796898 430.729448 
L 1350.079104 426.910855 
L 1350.720207 423.939529 
L 1351.36131 412.655133 
L 1352.002413 411.78073 
L 1352.643516 417.360624 
L 1353.284619 429.306982 
L 1353.925722 426.084297 
L 1354.566825 408.520912 
L 1355.207928 422.068972 
L 1355.849031 424.343704 
L 1356.490134 425.552657 
L 1357.77234 419.990258 
L 1358.413442 416.093473 
L 1359.054545 418.451039 
L 1359.695648 404.74695 
L 1360.336751 417.686963 
L 1360.977854 411.429041 
L 1361.618957 415.647524 
L 1362.26006 402.063403 
L 1364.183369 416.281278 
L 1364.824472 404.498447 
L 1365.465575 402.536487 
L 1366.106678 405.212894 
L 1366.747781 387.420287 
L 1367.388884 408.176364 
L 1368.029987 402.578261 
L 1368.67109 407.951783 
L 1369.312193 405.606714 
L 1369.953296 402.713224 
L 1370.594399 396.408172 
L 1371.235502 409.736293 
L 1371.876605 399.880074 
L 1372.517708 410.919896 
L 1373.158811 409.91053 
L 1373.799914 397.241157 
L 1374.441017 406.14121 
L 1375.08212 403.346264 
L 1375.723223 408.161011 
L 1376.364326 404.252443 
L 1377.005429 404.748379 
L 1377.646532 398.792873 
L 1378.287635 403.963594 
L 1378.928738 410.528575 
L 1379.569841 411.514018 
L 1380.210944 404.099985 
L 1380.852047 401.410368 
L 1381.49315 408.143159 
L 1382.134252 396.574912 
L 1382.775355 396.980158 
L 1383.416458 383.125039 
L 1384.057561 403.677602 
L 1384.698664 396.884827 
L 1385.339767 396.456373 
L 1385.98087 397.200454 
L 1386.621973 374.028969 
L 1387.263076 402.56505 
L 1387.904179 402.443298 
L 1388.545282 396.691309 
L 1389.186385 400.070022 
L 1389.827488 398.055933 
L 1390.468591 400.001113 
L 1391.109694 401.30861 
L 1391.750797 394.837533 
L 1392.3919 389.768212 
L 1393.033003 402.852114 
L 1393.674106 403.381254 
L 1394.956312 383.554921 
L 1395.597415 381.045254 
L 1396.238518 403.391609 
L 1396.879621 383.646325 
L 1397.520724 385.009164 
L 1398.161827 376.210869 
L 1398.80293 379.604222 
L 1399.444033 379.581728 
L 1400.085136 382.331329 
L 1400.726239 383.674888 
L 1401.367342 379.162915 
L 1402.008445 382.906171 
L 1402.649548 379.105787 
L 1403.290651 378.758383 
L 1403.931754 374.776264 
L 1404.572857 376.483651 
L 1405.21396 350.457594 
L 1405.855062 365.64556 
L 1406.496165 372.867146 
L 1407.137268 376.705019 
L 1407.778371 371.480384 
L 1408.419474 372.311227 
L 1409.060577 377.629051 
L 1409.70168 369.164593 
L 1410.342783 373.031744 
L 1411.624989 355.860394 
L 1412.266092 362.240068 
L 1412.907195 352.889783 
L 1413.548298 359.935702 
L 1414.189401 368.823615 
L 1414.830504 370.990162 
L 1415.471607 364.004583 
L 1416.11271 360.708704 
L 1416.753813 370.500654 
L 1417.394916 364.028148 
L 1418.036019 376.235505 
L 1418.677122 374.018615 
L 1419.318225 372.575083 
L 1419.959328 385.891421 
L 1420.600431 368.097029 
L 1421.241534 374.333171 
L 1421.882637 377.572281 
L 1422.52374 376.442948 
L 1423.164843 372.615072 
L 1423.805946 377.02993 
L 1424.447049 368.241275 
L 1425.088152 375.477142 
L 1425.729255 363.4758 
L 1426.370358 365.019661 
L 1427.011461 369.28813 
L 1427.652564 369.049624 
L 1428.293667 363.698953 
L 1429.575872 372.440121 
L 1430.216975 378.770165 
L 1430.858078 359.742541 
L 1431.499181 364.205242 
L 1432.140284 370.770223 
L 1433.42249 366.876293 
L 1434.063593 369.368822 
L 1434.704696 367.800682 
L 1435.345799 365.183188 
L 1435.986902 363.048775 
L 1436.628005 368.172009 
L 1437.269108 362.302194 
L 1437.910211 369.091399 
L 1438.551314 359.739328 
L 1439.192417 371.589283 
L 1439.83352 378.219246 
L 1441.115726 360.291676 
L 1441.756829 362.136883 
L 1442.397932 359.387282 
L 1443.039035 368.42194 
L 1443.680138 364.053498 
L 1444.321241 350.481516 
L 1444.962344 361.108237 
L 1445.603447 364.00137 
L 1446.885653 352.73661 
L 1447.526756 367.589312 
L 1448.167859 366.449625 
L 1448.808962 358.847787 
L 1449.450065 308.301687 
L 1450.091168 362.457152 
L 1450.732271 357.884123 
L 1451.373374 357.518867 
L 1452.014477 353.476407 
L 1452.655579 358.10442 
L 1453.296682 370.794145 
L 1453.937785 350.207306 
L 1454.578888 350.753941 
L 1455.219991 357.509584 
L 1455.861094 357.789864 
L 1457.1433 356.145673 
L 1457.784403 350.030569 
L 1458.425506 334.839746 
L 1459.066609 360.535894 
L 1459.707712 357.51851 
L 1460.348815 365.860144 
L 1460.989918 346.060589 
L 1461.631021 360.595878 
L 1462.272124 354.968497 
L 1462.913227 360.576597 
L 1463.55433 346.965698 
L 1464.195433 345.223677 
L 1464.836536 348.049328 
L 1465.477639 349.406455 
L 1466.118742 354.387228 
L 1466.759845 345.861715 
L 1467.400948 347.564461 
L 1468.042051 349.706015 
L 1468.683154 341.035186 
L 1469.324257 349.59676 
L 1469.96536 342.812197 
L 1470.606463 291.416688 
L 1471.247566 271.55108 
L 1471.888669 336.804563 
L 1472.529772 352.173551 
L 1473.170875 332.347218 
L 1473.811978 133.92 
L 1474.453081 331.739171 
L 1475.094184 341.113735 
L 1475.735287 330.622335 
L 1476.376389 339.85908 
L 1477.017492 351.583713 
L 1477.658595 337.580064 
L 1478.299698 335.761993 
L 1478.940801 343.62126 
L 1479.581904 339.915851 
L 1480.223007 315.756423 
L 1480.86411 341.611456 
L 1481.505213 336.253286 
L 1482.146316 329.046697 
L 1482.787419 334.151007 
L 1483.428522 337.685035 
L 1484.069625 344.07185 
L 1484.710728 332.370068 
L 1485.351831 329.332689 
L 1485.992934 342.12203 
L 1486.634037 341.5529 
L 1487.27514 344.08399 
L 1487.916243 340.407501 
L 1488.557346 341.169434 
L 1489.198449 347.672289 
L 1489.839552 337.005222 
L 1490.480655 337.419751 
L 1491.121758 333.075232 
L 1491.762861 329.50657 
L 1492.403964 338.621207 
L 1493.045067 338.548726 
L 1493.68617 338.918625 
L 1494.327273 343.505935 
L 1494.327273 343.505935 
" style="fill:none;stroke:#1f77b4;stroke-linecap:square;stroke-width:1.5;"/>
   </g>
   <g id="line2d_19">
    <path clip-path="url(#pdaafcb2b2c)" d="M 276.872727 738.719809 
L 296.746919 738.618558 
L 316.621112 738.295846 
L 336.495304 737.751674 
L 356.369496 736.986042 
L 376.243688 735.99895 
L 396.11788 734.790397 
L 415.992072 733.360384 
L 435.866265 731.708912 
L 455.740457 729.835978 
L 475.614649 727.741585 
L 495.488841 725.425731 
L 515.363033 722.888418 
L 535.237225 720.129644 
L 555.111417 717.149409 
L 574.98561 713.947715 
L 594.859802 710.52456 
L 614.733994 706.879946 
L 634.608186 703.01387 
L 654.482378 698.926335 
L 674.35657 694.61734 
L 694.230763 690.086884 
L 714.104955 685.334968 
L 734.62025 680.197474 
L 755.135545 674.824 
L 775.65084 669.214549 
L 796.166135 663.369119 
L 816.68143 657.287711 
L 837.196726 650.970324 
L 857.712021 644.416959 
L 878.227316 637.627615 
L 898.742611 630.602293 
L 919.257906 623.340993 
L 939.773201 615.843714 
L 960.288496 608.110457 
L 980.803791 600.141221 
L 1001.319087 591.936007 
L 1021.834382 583.494815 
L 1042.349677 574.817644 
L 1062.864972 565.904495 
L 1083.380267 556.755367 
L 1104.536665 547.073174 
L 1125.693063 537.140023 
L 1146.849461 526.955915 
L 1168.00586 516.52085 
L 1189.162258 505.834827 
L 1210.318656 494.897846 
L 1231.475054 483.709908 
L 1252.631452 472.271013 
L 1273.78785 460.581159 
L 1294.944248 448.640349 
L 1316.100646 436.448581 
L 1337.257044 424.005855 
L 1358.413442 411.312172 
L 1380.210944 397.971352 
L 1402.008445 384.364134 
L 1423.805946 370.490519 
L 1445.603447 356.350507 
L 1467.400948 341.944097 
L 1489.198449 327.271289 
L 1494.327273 323.780149 
L 1494.327273 323.780149 
" style="fill:none;stroke:#ff7f0e;stroke-linecap:square;stroke-width:1.5;"/>
   </g>
   <g id="patch_3">
    <path d="M 216 768.96 
L 216 103.68 
" style="fill:none;stroke:#000000;stroke-linecap:square;stroke-linejoin:miter;stroke-width:0.8;"/>
   </g>
   <g id="patch_4">
    <path d="M 1555.2 768.96 
L 1555.2 103.68 
" style="fill:none;stroke:#000000;stroke-linecap:square;stroke-linejoin:miter;stroke-width:0.8;"/>
   </g>
   <g id="patch_5">
    <path d="M 216 768.96 
L 1555.2 768.96 
" style="fill:none;stroke:#000000;stroke-linecap:square;stroke-linejoin:miter;stroke-width:0.8;"/>
   </g>
   <g id="patch_6">
    <path d="M 216 103.68 
L 1555.2 103.68 
" style="fill:none;stroke:#000000;stroke-linecap:square;stroke-linejoin:miter;stroke-width:0.8;"/>
   </g>
   <g id="legend_1">
    <g id="patch_7">
     <path d="M 223 141.03625 
L 349.451563 141.03625 
Q 351.451563 141.03625 351.451563 139.03625 
L 351.451563 110.68 
Q 351.451563 108.68 349.451563 108.68 
L 223 108.68 
Q 221 108.68 221 110.68 
L 221 139.03625 
Q 221 141.03625 223 141.03625 
z
" style="fill:#ffffff;opacity:0.8;stroke:#cccccc;stroke-linejoin:miter;"/>
    </g>
    <g id="line2d_20">
     <path d="M 225 116.778437 
L 245 116.778437 
" style="fill:none;stroke:#1f77b4;stroke-linecap:square;stroke-width:1.5;"/>
    </g>
    <g id="line2d_21"/>
    <g id="text_20">
     <!-- Experiment results -->
     <g transform="translate(253 120.278437)scale(0.1 -0.1)">
      <defs>
       <path d="M 9.8125 72.90625 
L 55.90625 72.90625 
L 55.90625 64.59375 
L 19.671875 64.59375 
L 19.671875 43.015625 
L 54.390625 43.015625 
L 54.390625 34.71875 
L 19.671875 34.71875 
L 19.671875 8.296875 
L 56.78125 8.296875 
L 56.78125 0 
L 9.8125 0 
z
" id="DejaVuSans-69"/>
       <path d="M 54.890625 54.6875 
L 35.109375 28.078125 
L 55.90625 0 
L 45.3125 0 
L 29.390625 21.484375 
L 13.484375 0 
L 2.875 0 
L 24.125 28.609375 
L 4.6875 54.6875 
L 15.28125 54.6875 
L 29.78125 35.203125 
L 44.28125 54.6875 
z
" id="DejaVuSans-120"/>
       <path d="M 18.109375 8.203125 
L 18.109375 -20.796875 
L 9.078125 -20.796875 
L 9.078125 54.6875 
L 18.109375 54.6875 
L 18.109375 46.390625 
Q 20.953125 51.265625 25.265625 53.625 
Q 29.59375 56 35.59375 56 
Q 45.5625 56 51.78125 48.09375 
Q 58.015625 40.1875 58.015625 27.296875 
Q 58.015625 14.40625 51.78125 6.484375 
Q 45.5625 -1.421875 35.59375 -1.421875 
Q 29.59375 -1.421875 25.265625 0.953125 
Q 20.953125 3.328125 18.109375 8.203125 
z
M 48.6875 27.296875 
Q 48.6875 37.203125 44.609375 42.84375 
Q 40.53125 48.484375 33.40625 48.484375 
Q 26.265625 48.484375 22.1875 42.84375 
Q 18.109375 37.203125 18.109375 27.296875 
Q 18.109375 17.390625 22.1875 11.75 
Q 26.265625 6.109375 33.40625 6.109375 
Q 40.53125 6.109375 44.609375 11.75 
Q 48.6875 17.390625 48.6875 27.296875 
z
" id="DejaVuSans-112"/>
       <path d="M 8.5 21.578125 
L 8.5 54.6875 
L 17.484375 54.6875 
L 17.484375 21.921875 
Q 17.484375 14.15625 20.5 10.265625 
Q 23.53125 6.390625 29.59375 6.390625 
Q 36.859375 6.390625 41.078125 11.03125 
Q 45.3125 15.671875 45.3125 23.6875 
L 45.3125 54.6875 
L 54.296875 54.6875 
L 54.296875 0 
L 45.3125 0 
L 45.3125 8.40625 
Q 42.046875 3.421875 37.71875 1 
Q 33.40625 -1.421875 27.6875 -1.421875 
Q 18.265625 -1.421875 13.375 4.4375 
Q 8.5 10.296875 8.5 21.578125 
z
M 31.109375 56 
z
" id="DejaVuSans-117"/>
      </defs>
      <use xlink:href="#DejaVuSans-69"/>
      <use x="63.183594" xlink:href="#DejaVuSans-120"/>
      <use x="122.363281" xlink:href="#DejaVuSans-112"/>
      <use x="185.839844" xlink:href="#DejaVuSans-101"/>
      <use x="247.363281" xlink:href="#DejaVuSans-114"/>
      <use x="288.476562" xlink:href="#DejaVuSans-105"/>
      <use x="316.259766" xlink:href="#DejaVuSans-109"/>
      <use x="413.671875" xlink:href="#DejaVuSans-101"/>
      <use x="475.195312" xlink:href="#DejaVuSans-110"/>
      <use x="538.574219" xlink:href="#DejaVuSans-116"/>
      <use x="577.783203" xlink:href="#DejaVuSans-32"/>
      <use x="609.570312" xlink:href="#DejaVuSans-114"/>
      <use x="648.433594" xlink:href="#DejaVuSans-101"/>
      <use x="709.957031" xlink:href="#DejaVuSans-115"/>
      <use x="762.056641" xlink:href="#DejaVuSans-117"/>
      <use x="825.435547" xlink:href="#DejaVuSans-108"/>
      <use x="853.21875" xlink:href="#DejaVuSans-116"/>
      <use x="892.427734" xlink:href="#DejaVuSans-115"/>
     </g>
    </g>
    <g id="line2d_22">
     <path d="M 225 131.456563 
L 245 131.456563 
" style="fill:none;stroke:#ff7f0e;stroke-linecap:square;stroke-width:1.5;"/>
    </g>
    <g id="line2d_23"/>
    <g id="text_21">
     <!-- Approximation -->
     <g transform="translate(253 134.956563)scale(0.1 -0.1)">
      <defs>
       <path d="M 34.1875 63.1875 
L 20.796875 26.90625 
L 47.609375 26.90625 
z
M 28.609375 72.90625 
L 39.796875 72.90625 
L 67.578125 0 
L 57.328125 0 
L 50.6875 18.703125 
L 17.828125 18.703125 
L 11.1875 0 
L 0.78125 0 
z
" id="DejaVuSans-65"/>
       <path d="M 34.28125 27.484375 
Q 23.390625 27.484375 19.1875 25 
Q 14.984375 22.515625 14.984375 16.5 
Q 14.984375 11.71875 18.140625 8.90625 
Q 21.296875 6.109375 26.703125 6.109375 
Q 34.1875 6.109375 38.703125 11.40625 
Q 43.21875 16.703125 43.21875 25.484375 
L 43.21875 27.484375 
z
M 52.203125 31.203125 
L 52.203125 0 
L 43.21875 0 
L 43.21875 8.296875 
Q 40.140625 3.328125 35.546875 0.953125 
Q 30.953125 -1.421875 24.3125 -1.421875 
Q 15.921875 -1.421875 10.953125 3.296875 
Q 6 8.015625 6 15.921875 
Q 6 25.140625 12.171875 29.828125 
Q 18.359375 34.515625 30.609375 34.515625 
L 43.21875 34.515625 
L 43.21875 35.40625 
Q 43.21875 41.609375 39.140625 45 
Q 35.0625 48.390625 27.6875 48.390625 
Q 23 48.390625 18.546875 47.265625 
Q 14.109375 46.140625 10.015625 43.890625 
L 10.015625 52.203125 
Q 14.9375 54.109375 19.578125 55.046875 
Q 24.21875 56 28.609375 56 
Q 40.484375 56 46.34375 49.84375 
Q 52.203125 43.703125 52.203125 31.203125 
z
" id="DejaVuSans-97"/>
      </defs>
      <use xlink:href="#DejaVuSans-65"/>
      <use x="68.408203" xlink:href="#DejaVuSans-112"/>
      <use x="131.884766" xlink:href="#DejaVuSans-112"/>
      <use x="195.361328" xlink:href="#DejaVuSans-114"/>
      <use x="234.224609" xlink:href="#DejaVuSans-111"/>
      <use x="292.28125" xlink:href="#DejaVuSans-120"/>
      <use x="351.460938" xlink:href="#DejaVuSans-105"/>
      <use x="379.244141" xlink:href="#DejaVuSans-109"/>
      <use x="476.65625" xlink:href="#DejaVuSans-97"/>
      <use x="537.935547" xlink:href="#DejaVuSans-116"/>
      <use x="577.144531" xlink:href="#DejaVuSans-105"/>
      <use x="604.927734" xlink:href="#DejaVuSans-111"/>
      <use x="666.109375" xlink:href="#DejaVuSans-110"/>
     </g>
    </g>
   </g>
  </g>
 </g>
 <defs>
  <clipPath id="pdaafcb2b2c">
   <rect height="665.28" width="1339.2" x="216" y="103.68"/>
  </clipPath>
 </defs>
</svg>
