<?xml version="1.0" encoding="utf-8" standalone="no"?>
<!DOCTYPE svg PUBLIC "-//W3C//DTD SVG 1.1//EN"
  "http://www.w3.org/Graphics/SVG/1.1/DTD/svg11.dtd">
<!-- Created with matplotlib (https://matplotlib.org/) -->
<svg height="864pt" version="1.1" viewBox="0 0 1728 864" width="1728pt" xmlns="http://www.w3.org/2000/svg" xmlns:xlink="http://www.w3.org/1999/xlink">
 <metadata>
  <rdf:RDF xmlns:cc="http://creativecommons.org/ns#" xmlns:dc="http://purl.org/dc/elements/1.1/" xmlns:rdf="http://www.w3.org/1999/02/22-rdf-syntax-ns#">
   <cc:Work>
    <dc:type rdf:resource="http://purl.org/dc/dcmitype/StillImage"/>
    <dc:date>2020-09-14T19:25:11.987221</dc:date>
    <dc:format>image/svg+xml</dc:format>
    <dc:creator>
     <cc:Agent>
      <dc:title>Matplotlib v3.3.1, https://matplotlib.org/</dc:title>
     </cc:Agent>
    </dc:creator>
   </cc:Work>
  </rdf:RDF>
 </metadata>
 <defs>
  <style type="text/css">*{stroke-linecap:butt;stroke-linejoin:round;}</style>
 </defs>
 <g id="figure_1">
  <g id="patch_1">
   <path d="M 0 864 
L 1728 864 
L 1728 0 
L 0 0 
z
" style="fill:#ffffff;"/>
  </g>
  <g id="axes_1">
   <g id="patch_2">
    <path d="M 216 768.96 
L 1555.2 768.96 
L 1555.2 103.68 
L 216 103.68 
z
" style="fill:#ffffff;"/>
   </g>
   <g id="matplotlib.axis_1">
    <g id="xtick_1">
     <g id="line2d_1">
      <defs>
       <path d="M 0 0 
L 0 3.5 
" id="mcb97cc5dd5" style="stroke:#000000;stroke-width:0.8;"/>
      </defs>
      <g>
       <use style="stroke:#000000;stroke-width:0.8;" x="276.872727" xlink:href="#mcb97cc5dd5" y="768.96"/>
      </g>
     </g>
     <g id="text_1">
      <!-- 0 -->
      <g transform="translate(273.691477 783.558437)scale(0.1 -0.1)">
       <defs>
        <path d="M 31.78125 66.40625 
Q 24.171875 66.40625 20.328125 58.90625 
Q 16.5 51.421875 16.5 36.375 
Q 16.5 21.390625 20.328125 13.890625 
Q 24.171875 6.390625 31.78125 6.390625 
Q 39.453125 6.390625 43.28125 13.890625 
Q 47.125 21.390625 47.125 36.375 
Q 47.125 51.421875 43.28125 58.90625 
Q 39.453125 66.40625 31.78125 66.40625 
z
M 31.78125 74.21875 
Q 44.046875 74.21875 50.515625 64.515625 
Q 56.984375 54.828125 56.984375 36.375 
Q 56.984375 17.96875 50.515625 8.265625 
Q 44.046875 -1.421875 31.78125 -1.421875 
Q 19.53125 -1.421875 13.0625 8.265625 
Q 6.59375 17.96875 6.59375 36.375 
Q 6.59375 54.828125 13.0625 64.515625 
Q 19.53125 74.21875 31.78125 74.21875 
z
" id="DejaVuSans-48"/>
       </defs>
       <use xlink:href="#DejaVuSans-48"/>
      </g>
     </g>
    </g>
    <g id="xtick_2">
     <g id="line2d_2">
      <g>
       <use style="stroke:#000000;stroke-width:0.8;" x="429.130674" xlink:href="#mcb97cc5dd5" y="768.96"/>
      </g>
     </g>
     <g id="text_2">
      <!-- 250 -->
      <g transform="translate(419.586924 783.558437)scale(0.1 -0.1)">
       <defs>
        <path d="M 19.1875 8.296875 
L 53.609375 8.296875 
L 53.609375 0 
L 7.328125 0 
L 7.328125 8.296875 
Q 12.9375 14.109375 22.625 23.890625 
Q 32.328125 33.6875 34.8125 36.53125 
Q 39.546875 41.84375 41.421875 45.53125 
Q 43.3125 49.21875 43.3125 52.78125 
Q 43.3125 58.59375 39.234375 62.25 
Q 35.15625 65.921875 28.609375 65.921875 
Q 23.96875 65.921875 18.8125 64.3125 
Q 13.671875 62.703125 7.8125 59.421875 
L 7.8125 69.390625 
Q 13.765625 71.78125 18.9375 73 
Q 24.125 74.21875 28.421875 74.21875 
Q 39.75 74.21875 46.484375 68.546875 
Q 53.21875 62.890625 53.21875 53.421875 
Q 53.21875 48.921875 51.53125 44.890625 
Q 49.859375 40.875 45.40625 35.40625 
Q 44.1875 33.984375 37.640625 27.21875 
Q 31.109375 20.453125 19.1875 8.296875 
z
" id="DejaVuSans-50"/>
        <path d="M 10.796875 72.90625 
L 49.515625 72.90625 
L 49.515625 64.59375 
L 19.828125 64.59375 
L 19.828125 46.734375 
Q 21.96875 47.46875 24.109375 47.828125 
Q 26.265625 48.1875 28.421875 48.1875 
Q 40.625 48.1875 47.75 41.5 
Q 54.890625 34.8125 54.890625 23.390625 
Q 54.890625 11.625 47.5625 5.09375 
Q 40.234375 -1.421875 26.90625 -1.421875 
Q 22.3125 -1.421875 17.546875 -0.640625 
Q 12.796875 0.140625 7.71875 1.703125 
L 7.71875 11.625 
Q 12.109375 9.234375 16.796875 8.0625 
Q 21.484375 6.890625 26.703125 6.890625 
Q 35.15625 6.890625 40.078125 11.328125 
Q 45.015625 15.765625 45.015625 23.390625 
Q 45.015625 31 40.078125 35.4375 
Q 35.15625 39.890625 26.703125 39.890625 
Q 22.75 39.890625 18.8125 39.015625 
Q 14.890625 38.140625 10.796875 36.28125 
z
" id="DejaVuSans-53"/>
       </defs>
       <use xlink:href="#DejaVuSans-50"/>
       <use x="63.623047" xlink:href="#DejaVuSans-53"/>
       <use x="127.246094" xlink:href="#DejaVuSans-48"/>
      </g>
     </g>
    </g>
    <g id="xtick_3">
     <g id="line2d_3">
      <g>
       <use style="stroke:#000000;stroke-width:0.8;" x="581.388622" xlink:href="#mcb97cc5dd5" y="768.96"/>
      </g>
     </g>
     <g id="text_3">
      <!-- 500 -->
      <g transform="translate(571.844872 783.558437)scale(0.1 -0.1)">
       <use xlink:href="#DejaVuSans-53"/>
       <use x="63.623047" xlink:href="#DejaVuSans-48"/>
       <use x="127.246094" xlink:href="#DejaVuSans-48"/>
      </g>
     </g>
    </g>
    <g id="xtick_4">
     <g id="line2d_4">
      <g>
       <use style="stroke:#000000;stroke-width:0.8;" x="733.646569" xlink:href="#mcb97cc5dd5" y="768.96"/>
      </g>
     </g>
     <g id="text_4">
      <!-- 750 -->
      <g transform="translate(724.102819 783.558437)scale(0.1 -0.1)">
       <defs>
        <path d="M 8.203125 72.90625 
L 55.078125 72.90625 
L 55.078125 68.703125 
L 28.609375 0 
L 18.3125 0 
L 43.21875 64.59375 
L 8.203125 64.59375 
z
" id="DejaVuSans-55"/>
       </defs>
       <use xlink:href="#DejaVuSans-55"/>
       <use x="63.623047" xlink:href="#DejaVuSans-53"/>
       <use x="127.246094" xlink:href="#DejaVuSans-48"/>
      </g>
     </g>
    </g>
    <g id="xtick_5">
     <g id="line2d_5">
      <g>
       <use style="stroke:#000000;stroke-width:0.8;" x="885.904516" xlink:href="#mcb97cc5dd5" y="768.96"/>
      </g>
     </g>
     <g id="text_5">
      <!-- 1000 -->
      <g transform="translate(873.179516 783.558437)scale(0.1 -0.1)">
       <defs>
        <path d="M 12.40625 8.296875 
L 28.515625 8.296875 
L 28.515625 63.921875 
L 10.984375 60.40625 
L 10.984375 69.390625 
L 28.421875 72.90625 
L 38.28125 72.90625 
L 38.28125 8.296875 
L 54.390625 8.296875 
L 54.390625 0 
L 12.40625 0 
z
" id="DejaVuSans-49"/>
       </defs>
       <use xlink:href="#DejaVuSans-49"/>
       <use x="63.623047" xlink:href="#DejaVuSans-48"/>
       <use x="127.246094" xlink:href="#DejaVuSans-48"/>
       <use x="190.869141" xlink:href="#DejaVuSans-48"/>
      </g>
     </g>
    </g>
    <g id="xtick_6">
     <g id="line2d_6">
      <g>
       <use style="stroke:#000000;stroke-width:0.8;" x="1038.162463" xlink:href="#mcb97cc5dd5" y="768.96"/>
      </g>
     </g>
     <g id="text_6">
      <!-- 1250 -->
      <g transform="translate(1025.437463 783.558437)scale(0.1 -0.1)">
       <use xlink:href="#DejaVuSans-49"/>
       <use x="63.623047" xlink:href="#DejaVuSans-50"/>
       <use x="127.246094" xlink:href="#DejaVuSans-53"/>
       <use x="190.869141" xlink:href="#DejaVuSans-48"/>
      </g>
     </g>
    </g>
    <g id="xtick_7">
     <g id="line2d_7">
      <g>
       <use style="stroke:#000000;stroke-width:0.8;" x="1190.42041" xlink:href="#mcb97cc5dd5" y="768.96"/>
      </g>
     </g>
     <g id="text_7">
      <!-- 1500 -->
      <g transform="translate(1177.69541 783.558437)scale(0.1 -0.1)">
       <use xlink:href="#DejaVuSans-49"/>
       <use x="63.623047" xlink:href="#DejaVuSans-53"/>
       <use x="127.246094" xlink:href="#DejaVuSans-48"/>
       <use x="190.869141" xlink:href="#DejaVuSans-48"/>
      </g>
     </g>
    </g>
    <g id="xtick_8">
     <g id="line2d_8">
      <g>
       <use style="stroke:#000000;stroke-width:0.8;" x="1342.678357" xlink:href="#mcb97cc5dd5" y="768.96"/>
      </g>
     </g>
     <g id="text_8">
      <!-- 1750 -->
      <g transform="translate(1329.953357 783.558437)scale(0.1 -0.1)">
       <use xlink:href="#DejaVuSans-49"/>
       <use x="63.623047" xlink:href="#DejaVuSans-55"/>
       <use x="127.246094" xlink:href="#DejaVuSans-53"/>
       <use x="190.869141" xlink:href="#DejaVuSans-48"/>
      </g>
     </g>
    </g>
    <g id="xtick_9">
     <g id="line2d_9">
      <g>
       <use style="stroke:#000000;stroke-width:0.8;" x="1494.936305" xlink:href="#mcb97cc5dd5" y="768.96"/>
      </g>
     </g>
     <g id="text_9">
      <!-- 2000 -->
      <g transform="translate(1482.211305 783.558437)scale(0.1 -0.1)">
       <use xlink:href="#DejaVuSans-50"/>
       <use x="63.623047" xlink:href="#DejaVuSans-48"/>
       <use x="127.246094" xlink:href="#DejaVuSans-48"/>
       <use x="190.869141" xlink:href="#DejaVuSans-48"/>
      </g>
     </g>
    </g>
    <g id="text_10">
     <!-- Vector length -->
     <g transform="translate(852.139844 797.236562)scale(0.1 -0.1)">
      <defs>
       <path d="M 28.609375 0 
L 0.78125 72.90625 
L 11.078125 72.90625 
L 34.1875 11.53125 
L 57.328125 72.90625 
L 67.578125 72.90625 
L 39.796875 0 
z
" id="DejaVuSans-86"/>
       <path d="M 56.203125 29.59375 
L 56.203125 25.203125 
L 14.890625 25.203125 
Q 15.484375 15.921875 20.484375 11.0625 
Q 25.484375 6.203125 34.421875 6.203125 
Q 39.59375 6.203125 44.453125 7.46875 
Q 49.3125 8.734375 54.109375 11.28125 
L 54.109375 2.78125 
Q 49.265625 0.734375 44.1875 -0.34375 
Q 39.109375 -1.421875 33.890625 -1.421875 
Q 20.796875 -1.421875 13.15625 6.1875 
Q 5.515625 13.8125 5.515625 26.8125 
Q 5.515625 40.234375 12.765625 48.109375 
Q 20.015625 56 32.328125 56 
Q 43.359375 56 49.78125 48.890625 
Q 56.203125 41.796875 56.203125 29.59375 
z
M 47.21875 32.234375 
Q 47.125 39.59375 43.09375 43.984375 
Q 39.0625 48.390625 32.421875 48.390625 
Q 24.90625 48.390625 20.390625 44.140625 
Q 15.875 39.890625 15.1875 32.171875 
z
" id="DejaVuSans-101"/>
       <path d="M 48.78125 52.59375 
L 48.78125 44.1875 
Q 44.96875 46.296875 41.140625 47.34375 
Q 37.3125 48.390625 33.40625 48.390625 
Q 24.65625 48.390625 19.8125 42.84375 
Q 14.984375 37.3125 14.984375 27.296875 
Q 14.984375 17.28125 19.8125 11.734375 
Q 24.65625 6.203125 33.40625 6.203125 
Q 37.3125 6.203125 41.140625 7.25 
Q 44.96875 8.296875 48.78125 10.40625 
L 48.78125 2.09375 
Q 45.015625 0.34375 40.984375 -0.53125 
Q 36.96875 -1.421875 32.421875 -1.421875 
Q 20.0625 -1.421875 12.78125 6.34375 
Q 5.515625 14.109375 5.515625 27.296875 
Q 5.515625 40.671875 12.859375 48.328125 
Q 20.21875 56 33.015625 56 
Q 37.15625 56 41.109375 55.140625 
Q 45.0625 54.296875 48.78125 52.59375 
z
" id="DejaVuSans-99"/>
       <path d="M 18.3125 70.21875 
L 18.3125 54.6875 
L 36.8125 54.6875 
L 36.8125 47.703125 
L 18.3125 47.703125 
L 18.3125 18.015625 
Q 18.3125 11.328125 20.140625 9.421875 
Q 21.96875 7.515625 27.59375 7.515625 
L 36.8125 7.515625 
L 36.8125 0 
L 27.59375 0 
Q 17.1875 0 13.234375 3.875 
Q 9.28125 7.765625 9.28125 18.015625 
L 9.28125 47.703125 
L 2.6875 47.703125 
L 2.6875 54.6875 
L 9.28125 54.6875 
L 9.28125 70.21875 
z
" id="DejaVuSans-116"/>
       <path d="M 30.609375 48.390625 
Q 23.390625 48.390625 19.1875 42.75 
Q 14.984375 37.109375 14.984375 27.296875 
Q 14.984375 17.484375 19.15625 11.84375 
Q 23.34375 6.203125 30.609375 6.203125 
Q 37.796875 6.203125 41.984375 11.859375 
Q 46.1875 17.53125 46.1875 27.296875 
Q 46.1875 37.015625 41.984375 42.703125 
Q 37.796875 48.390625 30.609375 48.390625 
z
M 30.609375 56 
Q 42.328125 56 49.015625 48.375 
Q 55.71875 40.765625 55.71875 27.296875 
Q 55.71875 13.875 49.015625 6.21875 
Q 42.328125 -1.421875 30.609375 -1.421875 
Q 18.84375 -1.421875 12.171875 6.21875 
Q 5.515625 13.875 5.515625 27.296875 
Q 5.515625 40.765625 12.171875 48.375 
Q 18.84375 56 30.609375 56 
z
" id="DejaVuSans-111"/>
       <path d="M 41.109375 46.296875 
Q 39.59375 47.171875 37.8125 47.578125 
Q 36.03125 48 33.890625 48 
Q 26.265625 48 22.1875 43.046875 
Q 18.109375 38.09375 18.109375 28.8125 
L 18.109375 0 
L 9.078125 0 
L 9.078125 54.6875 
L 18.109375 54.6875 
L 18.109375 46.1875 
Q 20.953125 51.171875 25.484375 53.578125 
Q 30.03125 56 36.53125 56 
Q 37.453125 56 38.578125 55.875 
Q 39.703125 55.765625 41.0625 55.515625 
z
" id="DejaVuSans-114"/>
       <path id="DejaVuSans-32"/>
       <path d="M 9.421875 75.984375 
L 18.40625 75.984375 
L 18.40625 0 
L 9.421875 0 
z
" id="DejaVuSans-108"/>
       <path d="M 54.890625 33.015625 
L 54.890625 0 
L 45.90625 0 
L 45.90625 32.71875 
Q 45.90625 40.484375 42.875 44.328125 
Q 39.84375 48.1875 33.796875 48.1875 
Q 26.515625 48.1875 22.3125 43.546875 
Q 18.109375 38.921875 18.109375 30.90625 
L 18.109375 0 
L 9.078125 0 
L 9.078125 54.6875 
L 18.109375 54.6875 
L 18.109375 46.1875 
Q 21.34375 51.125 25.703125 53.5625 
Q 30.078125 56 35.796875 56 
Q 45.21875 56 50.046875 50.171875 
Q 54.890625 44.34375 54.890625 33.015625 
z
" id="DejaVuSans-110"/>
       <path d="M 45.40625 27.984375 
Q 45.40625 37.75 41.375 43.109375 
Q 37.359375 48.484375 30.078125 48.484375 
Q 22.859375 48.484375 18.828125 43.109375 
Q 14.796875 37.75 14.796875 27.984375 
Q 14.796875 18.265625 18.828125 12.890625 
Q 22.859375 7.515625 30.078125 7.515625 
Q 37.359375 7.515625 41.375 12.890625 
Q 45.40625 18.265625 45.40625 27.984375 
z
M 54.390625 6.78125 
Q 54.390625 -7.171875 48.1875 -13.984375 
Q 42 -20.796875 29.203125 -20.796875 
Q 24.46875 -20.796875 20.265625 -20.09375 
Q 16.0625 -19.390625 12.109375 -17.921875 
L 12.109375 -9.1875 
Q 16.0625 -11.328125 19.921875 -12.34375 
Q 23.78125 -13.375 27.78125 -13.375 
Q 36.625 -13.375 41.015625 -8.765625 
Q 45.40625 -4.15625 45.40625 5.171875 
L 45.40625 9.625 
Q 42.625 4.78125 38.28125 2.390625 
Q 33.9375 0 27.875 0 
Q 17.828125 0 11.671875 7.65625 
Q 5.515625 15.328125 5.515625 27.984375 
Q 5.515625 40.671875 11.671875 48.328125 
Q 17.828125 56 27.875 56 
Q 33.9375 56 38.28125 53.609375 
Q 42.625 51.21875 45.40625 46.390625 
L 45.40625 54.6875 
L 54.390625 54.6875 
z
" id="DejaVuSans-103"/>
       <path d="M 54.890625 33.015625 
L 54.890625 0 
L 45.90625 0 
L 45.90625 32.71875 
Q 45.90625 40.484375 42.875 44.328125 
Q 39.84375 48.1875 33.796875 48.1875 
Q 26.515625 48.1875 22.3125 43.546875 
Q 18.109375 38.921875 18.109375 30.90625 
L 18.109375 0 
L 9.078125 0 
L 9.078125 75.984375 
L 18.109375 75.984375 
L 18.109375 46.1875 
Q 21.34375 51.125 25.703125 53.5625 
Q 30.078125 56 35.796875 56 
Q 45.21875 56 50.046875 50.171875 
Q 54.890625 44.34375 54.890625 33.015625 
z
" id="DejaVuSans-104"/>
      </defs>
      <use xlink:href="#DejaVuSans-86"/>
      <use x="60.658203" xlink:href="#DejaVuSans-101"/>
      <use x="122.181641" xlink:href="#DejaVuSans-99"/>
      <use x="177.162109" xlink:href="#DejaVuSans-116"/>
      <use x="216.371094" xlink:href="#DejaVuSans-111"/>
      <use x="277.552734" xlink:href="#DejaVuSans-114"/>
      <use x="318.666016" xlink:href="#DejaVuSans-32"/>
      <use x="350.453125" xlink:href="#DejaVuSans-108"/>
      <use x="378.236328" xlink:href="#DejaVuSans-101"/>
      <use x="439.759766" xlink:href="#DejaVuSans-110"/>
      <use x="503.138672" xlink:href="#DejaVuSans-103"/>
      <use x="566.615234" xlink:href="#DejaVuSans-116"/>
      <use x="605.824219" xlink:href="#DejaVuSans-104"/>
     </g>
    </g>
   </g>
   <g id="matplotlib.axis_2">
    <g id="ytick_1">
     <g id="line2d_10">
      <defs>
       <path d="M 0 0 
L -3.5 0 
" id="mfd66a58550" style="stroke:#000000;stroke-width:0.8;"/>
      </defs>
      <g>
       <use style="stroke:#000000;stroke-width:0.8;" x="216" xlink:href="#mfd66a58550" y="738.721859"/>
      </g>
     </g>
     <g id="text_11">
      <!-- 0 -->
      <g transform="translate(202.6375 742.521078)scale(0.1 -0.1)">
       <use xlink:href="#DejaVuSans-48"/>
      </g>
     </g>
    </g>
    <g id="ytick_2">
     <g id="line2d_11">
      <g>
       <use style="stroke:#000000;stroke-width:0.8;" x="216" xlink:href="#mfd66a58550" y="641.25621"/>
      </g>
     </g>
     <g id="text_12">
      <!-- 50 -->
      <g transform="translate(196.275 645.055429)scale(0.1 -0.1)">
       <use xlink:href="#DejaVuSans-53"/>
       <use x="63.623047" xlink:href="#DejaVuSans-48"/>
      </g>
     </g>
    </g>
    <g id="ytick_3">
     <g id="line2d_12">
      <g>
       <use style="stroke:#000000;stroke-width:0.8;" x="216" xlink:href="#mfd66a58550" y="543.790561"/>
      </g>
     </g>
     <g id="text_13">
      <!-- 100 -->
      <g transform="translate(189.9125 547.589779)scale(0.1 -0.1)">
       <use xlink:href="#DejaVuSans-49"/>
       <use x="63.623047" xlink:href="#DejaVuSans-48"/>
       <use x="127.246094" xlink:href="#DejaVuSans-48"/>
      </g>
     </g>
    </g>
    <g id="ytick_4">
     <g id="line2d_13">
      <g>
       <use style="stroke:#000000;stroke-width:0.8;" x="216" xlink:href="#mfd66a58550" y="446.324911"/>
      </g>
     </g>
     <g id="text_14">
      <!-- 150 -->
      <g transform="translate(189.9125 450.12413)scale(0.1 -0.1)">
       <use xlink:href="#DejaVuSans-49"/>
       <use x="63.623047" xlink:href="#DejaVuSans-53"/>
       <use x="127.246094" xlink:href="#DejaVuSans-48"/>
      </g>
     </g>
    </g>
    <g id="ytick_5">
     <g id="line2d_14">
      <g>
       <use style="stroke:#000000;stroke-width:0.8;" x="216" xlink:href="#mfd66a58550" y="348.859262"/>
      </g>
     </g>
     <g id="text_15">
      <!-- 200 -->
      <g transform="translate(189.9125 352.658481)scale(0.1 -0.1)">
       <use xlink:href="#DejaVuSans-50"/>
       <use x="63.623047" xlink:href="#DejaVuSans-48"/>
       <use x="127.246094" xlink:href="#DejaVuSans-48"/>
      </g>
     </g>
    </g>
    <g id="ytick_6">
     <g id="line2d_15">
      <g>
       <use style="stroke:#000000;stroke-width:0.8;" x="216" xlink:href="#mfd66a58550" y="251.393613"/>
      </g>
     </g>
     <g id="text_16">
      <!-- 250 -->
      <g transform="translate(189.9125 255.192832)scale(0.1 -0.1)">
       <use xlink:href="#DejaVuSans-50"/>
       <use x="63.623047" xlink:href="#DejaVuSans-53"/>
       <use x="127.246094" xlink:href="#DejaVuSans-48"/>
      </g>
     </g>
    </g>
    <g id="ytick_7">
     <g id="line2d_16">
      <g>
       <use style="stroke:#000000;stroke-width:0.8;" x="216" xlink:href="#mfd66a58550" y="153.927964"/>
      </g>
     </g>
     <g id="text_17">
      <!-- 300 -->
      <g transform="translate(189.9125 157.727183)scale(0.1 -0.1)">
       <defs>
        <path d="M 40.578125 39.3125 
Q 47.65625 37.796875 51.625 33 
Q 55.609375 28.21875 55.609375 21.1875 
Q 55.609375 10.40625 48.1875 4.484375 
Q 40.765625 -1.421875 27.09375 -1.421875 
Q 22.515625 -1.421875 17.65625 -0.515625 
Q 12.796875 0.390625 7.625 2.203125 
L 7.625 11.71875 
Q 11.71875 9.328125 16.59375 8.109375 
Q 21.484375 6.890625 26.8125 6.890625 
Q 36.078125 6.890625 40.9375 10.546875 
Q 45.796875 14.203125 45.796875 21.1875 
Q 45.796875 27.640625 41.28125 31.265625 
Q 36.765625 34.90625 28.71875 34.90625 
L 20.21875 34.90625 
L 20.21875 43.015625 
L 29.109375 43.015625 
Q 36.375 43.015625 40.234375 45.921875 
Q 44.09375 48.828125 44.09375 54.296875 
Q 44.09375 59.90625 40.109375 62.90625 
Q 36.140625 65.921875 28.71875 65.921875 
Q 24.65625 65.921875 20.015625 65.03125 
Q 15.375 64.15625 9.8125 62.3125 
L 9.8125 71.09375 
Q 15.4375 72.65625 20.34375 73.4375 
Q 25.25 74.21875 29.59375 74.21875 
Q 40.828125 74.21875 47.359375 69.109375 
Q 53.90625 64.015625 53.90625 55.328125 
Q 53.90625 49.265625 50.4375 45.09375 
Q 46.96875 40.921875 40.578125 39.3125 
z
" id="DejaVuSans-51"/>
       </defs>
       <use xlink:href="#DejaVuSans-51"/>
       <use x="63.623047" xlink:href="#DejaVuSans-48"/>
       <use x="127.246094" xlink:href="#DejaVuSans-48"/>
      </g>
     </g>
    </g>
    <g id="text_18">
     <!-- Time, ms -->
     <g transform="translate(183.832812 459.206719)rotate(-90)scale(0.1 -0.1)">
      <defs>
       <path d="M -0.296875 72.90625 
L 61.375 72.90625 
L 61.375 64.59375 
L 35.5 64.59375 
L 35.5 0 
L 25.59375 0 
L 25.59375 64.59375 
L -0.296875 64.59375 
z
" id="DejaVuSans-84"/>
       <path d="M 9.421875 54.6875 
L 18.40625 54.6875 
L 18.40625 0 
L 9.421875 0 
z
M 9.421875 75.984375 
L 18.40625 75.984375 
L 18.40625 64.59375 
L 9.421875 64.59375 
z
" id="DejaVuSans-105"/>
       <path d="M 52 44.1875 
Q 55.375 50.25 60.0625 53.125 
Q 64.75 56 71.09375 56 
Q 79.640625 56 84.28125 50.015625 
Q 88.921875 44.046875 88.921875 33.015625 
L 88.921875 0 
L 79.890625 0 
L 79.890625 32.71875 
Q 79.890625 40.578125 77.09375 44.375 
Q 74.3125 48.1875 68.609375 48.1875 
Q 61.625 48.1875 57.5625 43.546875 
Q 53.515625 38.921875 53.515625 30.90625 
L 53.515625 0 
L 44.484375 0 
L 44.484375 32.71875 
Q 44.484375 40.625 41.703125 44.40625 
Q 38.921875 48.1875 33.109375 48.1875 
Q 26.21875 48.1875 22.15625 43.53125 
Q 18.109375 38.875 18.109375 30.90625 
L 18.109375 0 
L 9.078125 0 
L 9.078125 54.6875 
L 18.109375 54.6875 
L 18.109375 46.1875 
Q 21.1875 51.21875 25.484375 53.609375 
Q 29.78125 56 35.6875 56 
Q 41.65625 56 45.828125 52.96875 
Q 50 49.953125 52 44.1875 
z
" id="DejaVuSans-109"/>
       <path d="M 11.71875 12.40625 
L 22.015625 12.40625 
L 22.015625 4 
L 14.015625 -11.625 
L 7.71875 -11.625 
L 11.71875 4 
z
" id="DejaVuSans-44"/>
       <path d="M 44.28125 53.078125 
L 44.28125 44.578125 
Q 40.484375 46.53125 36.375 47.5 
Q 32.28125 48.484375 27.875 48.484375 
Q 21.1875 48.484375 17.84375 46.4375 
Q 14.5 44.390625 14.5 40.28125 
Q 14.5 37.15625 16.890625 35.375 
Q 19.28125 33.59375 26.515625 31.984375 
L 29.59375 31.296875 
Q 39.15625 29.25 43.1875 25.515625 
Q 47.21875 21.78125 47.21875 15.09375 
Q 47.21875 7.46875 41.1875 3.015625 
Q 35.15625 -1.421875 24.609375 -1.421875 
Q 20.21875 -1.421875 15.453125 -0.5625 
Q 10.6875 0.296875 5.421875 2 
L 5.421875 11.28125 
Q 10.40625 8.6875 15.234375 7.390625 
Q 20.0625 6.109375 24.8125 6.109375 
Q 31.15625 6.109375 34.5625 8.28125 
Q 37.984375 10.453125 37.984375 14.40625 
Q 37.984375 18.0625 35.515625 20.015625 
Q 33.0625 21.96875 24.703125 23.78125 
L 21.578125 24.515625 
Q 13.234375 26.265625 9.515625 29.90625 
Q 5.8125 33.546875 5.8125 39.890625 
Q 5.8125 47.609375 11.28125 51.796875 
Q 16.75 56 26.8125 56 
Q 31.78125 56 36.171875 55.265625 
Q 40.578125 54.546875 44.28125 53.078125 
z
" id="DejaVuSans-115"/>
      </defs>
      <use xlink:href="#DejaVuSans-84"/>
      <use x="57.958984" xlink:href="#DejaVuSans-105"/>
      <use x="85.742188" xlink:href="#DejaVuSans-109"/>
      <use x="183.154297" xlink:href="#DejaVuSans-101"/>
      <use x="244.677734" xlink:href="#DejaVuSans-44"/>
      <use x="276.464844" xlink:href="#DejaVuSans-32"/>
      <use x="308.251953" xlink:href="#DejaVuSans-109"/>
      <use x="405.664062" xlink:href="#DejaVuSans-115"/>
     </g>
    </g>
   </g>
   <g id="line2d_17">
    <path clip-path="url(#p933b5fc4cf)" d="M 276.872727 738.716282 
L 287.835299 738.67306 
L 293.925617 738.6066 
L 300.015935 738.505284 
L 312.196571 738.232475 
L 312.805603 738.156255 
L 314.023666 738.181817 
L 314.632698 738.17624 
L 315.24173 738.020083 
L 315.850762 738.171592 
L 316.459794 738.080501 
L 317.068825 738.11954 
L 317.677857 738.031702 
L 319.504952 738.10002 
L 328.031398 737.849983 
L 328.640429 737.624579 
L 329.858493 737.647816 
L 331.076556 737.633874 
L 331.685588 737.653858 
L 332.29462 737.503278 
L 333.512684 737.663153 
L 338.384938 737.52884 
L 338.99397 737.335967 
L 339.603002 737.558119 
L 340.212033 737.249988 
L 340.821065 736.470133 
L 341.430097 737.012035 
L 342.039129 737.146348 
L 343.866224 736.969278 
L 345.084288 737.140771 
L 345.693319 737.185852 
L 346.911383 737.033413 
L 347.520415 737.070594 
L 348.738478 736.988797 
L 350.565574 736.920479 
L 352.392669 736.930238 
L 354.828796 736.609094 
L 355.437828 736.624431 
L 356.04686 735.54667 
L 356.655892 736.137371 
L 357.264923 736.532875 
L 357.873955 736.485935 
L 358.482987 735.562007 
L 359.092019 736.444572 
L 359.701051 736.376253 
L 360.310082 735.875715 
L 360.919114 735.928232 
L 361.528146 736.362776 
L 362.746209 736.330243 
L 363.355241 736.162467 
L 363.964273 736.168509 
L 364.573305 736.014676 
L 365.791368 736.125287 
L 367.618464 735.751161 
L 368.227496 736.031407 
L 370.054591 735.895699 
L 370.663623 735.542488 
L 371.272655 735.035443 
L 371.881686 735.517856 
L 373.09975 735.760457 
L 373.708782 735.258524 
L 374.317813 735.550388 
L 376.753941 735.279903 
L 377.362972 735.562007 
L 377.972004 735.47231 
L 378.581036 735.000586 
L 379.190068 735.318477 
L 379.7991 735.236216 
L 380.408131 735.433271 
L 381.017163 735.09772 
L 381.626195 735.034048 
L 382.235227 735.236681 
L 382.844258 735.308717 
L 383.45329 734.772393 
L 385.280386 735.037766 
L 385.889417 734.439165 
L 386.498449 735.083312 
L 387.716513 734.577662 
L 388.325545 733.267524 
L 388.934576 734.433588 
L 389.543608 734.374565 
L 390.15264 734.158455 
L 392.588767 734.082235 
L 393.197799 734.228632 
L 393.806831 733.67883 
L 394.415862 734.211437 
L 395.024894 734.37503 
L 395.633926 733.11555 
L 396.85199 733.879603 
L 397.461021 732.941733 
L 398.070053 733.86659 
L 399.288117 733.496183 
L 400.50618 733.737389 
L 401.115212 733.499436 
L 401.724244 732.918495 
L 402.333276 732.772098 
L 402.942308 733.127634 
L 404.160371 733.353504 
L 404.769403 733.063033 
L 405.378435 733.033754 
L 405.987466 732.758621 
L 406.596498 732.642432 
L 407.20553 732.173962 
L 407.814562 732.940339 
L 408.423594 732.540652 
L 409.641657 732.813461 
L 410.250689 732.333837 
L 410.859721 732.47884 
L 411.468753 731.988991 
L 412.077784 732.107967 
L 412.686816 731.764515 
L 413.90488 732.482093 
L 415.122943 732.061027 
L 415.731975 732.173962 
L 416.341007 731.767304 
L 416.950039 730.645856 
L 417.55907 732.179539 
L 418.168102 731.394572 
L 418.777134 731.963429 
L 419.386166 731.53911 
L 419.995198 731.560024 
L 420.604229 731.929037 
L 421.213261 732.006186 
L 421.822293 731.747784 
L 422.431325 731.743601 
L 423.040357 731.026488 
L 423.649388 731.863972 
L 424.25842 730.963747 
L 424.867452 730.905188 
L 425.476484 731.175674 
L 426.085515 730.516655 
L 426.694547 730.772733 
L 427.303579 731.558165 
L 427.912611 730.327965 
L 428.521643 731.275596 
L 429.130674 730.649574 
L 429.739706 730.273589 
L 430.348738 728.298856 
L 430.95777 727.64402 
L 431.566802 728.18778 
L 432.175833 729.9715 
L 432.784865 730.664911 
L 433.393897 730.329824 
L 434.611961 730.360963 
L 435.220992 730.063056 
L 435.830024 730.07607 
L 436.439056 730.209453 
L 437.048088 729.557871 
L 438.266151 729.409615 
L 438.875183 728.560047 
L 439.484215 726.842322 
L 440.093247 728.010245 
L 440.702278 727.435346 
L 441.31131 728.053467 
L 441.920342 729.285526 
L 442.529374 729.599234 
L 443.138406 729.698691 
L 443.747437 730.031918 
L 444.356469 729.360816 
L 444.965501 729.825103 
L 445.574533 729.195364 
L 446.183565 729.267865 
L 446.792596 729.591797 
L 448.01066 729.708915 
L 448.619692 729.378941 
L 449.228723 729.535098 
L 449.837755 728.353697 
L 450.446787 725.595856 
L 451.055819 725.780363 
L 451.664851 729.122862 
L 452.882914 728.528909 
L 453.491946 728.39413 
L 454.100978 729.150747 
L 454.71001 728.889557 
L 455.319041 728.265394 
L 455.928073 728.445253 
L 456.537105 728.879797 
L 457.146137 728.193357 
L 457.755168 729.16469 
L 458.3642 727.378646 
L 458.973232 726.357121 
L 460.191296 727.452542 
L 460.800327 727.374928 
L 461.409359 728.01071 
L 462.018391 727.692354 
L 462.627423 728.031624 
L 463.845486 726.472379 
L 464.454518 726.444959 
L 465.06355 727.027758 
L 465.672582 727.257811 
L 466.890645 727.423727 
L 467.499677 726.928766 
L 468.108709 727.0338 
L 468.717741 726.737288 
L 469.326772 726.609016 
L 469.935804 726.614593 
L 470.544836 727.160213 
L 471.153868 726.643873 
L 472.371931 726.690813 
L 472.980963 726.277648 
L 473.589995 726.400343 
L 474.199027 722.396036 
L 474.808059 723.66388 
L 475.41709 724.242962 
L 476.026122 724.224836 
L 476.635154 723.669457 
L 477.244186 725.072545 
L 477.853218 724.587343 
L 478.462249 724.817396 
L 479.071281 725.181762 
L 479.680313 725.277501 
L 480.289345 724.977271 
L 480.898376 721.926636 
L 481.507408 724.448847 
L 482.11644 724.260158 
L 482.725472 724.702137 
L 483.334504 724.043583 
L 483.943535 724.117479 
L 484.552567 723.310668 
L 485.161599 721.460489 
L 485.770631 722.700448 
L 486.379663 719.530837 
L 486.988694 718.948502 
L 487.597726 722.409513 
L 488.206758 720.834932 
L 488.81579 720.941825 
L 489.424822 722.05909 
L 490.033853 721.985194 
L 490.642885 722.766908 
L 491.251917 721.891314 
L 491.860949 722.144605 
L 492.46998 721.41169 
L 493.079012 722.232443 
L 493.688044 721.596661 
L 494.297076 721.982871 
L 494.906108 721.912693 
L 495.515139 721.230436 
L 496.733203 722.137168 
L 497.342235 721.862035 
L 497.951267 721.129585 
L 498.560298 722.125085 
L 499.16933 720.509141 
L 500.387394 722.035388 
L 500.996425 721.797899 
L 501.605457 721.433998 
L 502.214489 721.244379 
L 502.823521 720.612781 
L 503.432553 721.45863 
L 504.041584 721.958239 
L 504.650616 721.77838 
L 505.259648 721.324316 
L 505.86868 721.698907 
L 506.477712 721.456771 
L 507.086743 721.718427 
L 507.695775 721.2151 
L 508.304807 721.54275 
L 508.913839 721.207664 
L 509.522871 720.503564 
L 510.131902 719.513641 
L 511.349966 721.290854 
L 511.958998 719.793887 
L 512.568029 719.913328 
L 513.177061 720.386446 
L 513.786093 719.889626 
L 514.395125 716.184155 
L 515.004157 719.176231 
L 515.613188 719.563834 
L 516.22222 719.475996 
L 516.831252 718.61481 
L 517.440284 718.342 
L 518.049316 717.869812 
L 518.658347 716.694918 
L 519.267379 719.482503 
L 519.876411 718.97964 
L 520.485443 719.136727 
L 521.094475 718.132862 
L 521.703506 718.312256 
L 522.312538 719.406283 
L 522.92157 719.60938 
L 523.530602 718.626429 
L 524.139633 719.727892 
L 524.748665 714.150863 
L 525.357697 717.437592 
L 525.966729 718.207687 
L 526.575761 714.302372 
L 527.184792 715.439156 
L 527.793824 716.880354 
L 528.402856 715.398258 
L 529.011888 716.359831 
L 529.62092 715.992677 
L 530.229951 714.988811 
L 530.838983 714.526847 
L 531.448015 714.854498 
L 532.057047 714.454811 
L 532.666078 713.183713 
L 533.884142 715.17843 
L 534.493174 715.338305 
L 535.102206 712.035774 
L 535.711237 713.575499 
L 536.929301 713.885954 
L 537.538333 713.762794 
L 538.147365 713.412371 
L 538.756396 712.226788 
L 539.365428 713.222752 
L 539.97446 711.717419 
L 540.583492 712.544678 
L 541.192524 712.27884 
L 541.801555 714.131343 
L 542.410587 713.010825 
L 543.628651 715.062707 
L 544.846714 714.499892 
L 545.455746 713.575499 
L 546.064778 714.8215 
L 546.67381 713.824606 
L 547.282841 713.971933 
L 547.891873 713.519264 
L 548.500905 713.499745 
L 549.109937 713.271551 
L 549.718969 709.178012 
L 550.328 710.515104 
L 550.937032 712.443362 
L 551.546064 710.864133 
L 552.155096 711.16111 
L 552.764128 713.318491 
L 553.373159 709.382503 
L 553.982191 711.323774 
L 554.591223 709.180335 
L 555.200255 709.778472 
L 555.809286 710.93617 
L 556.418318 708.466476 
L 557.02735 712.053435 
L 557.636382 709.618597 
L 558.245414 709.374602 
L 558.854445 710.925016 
L 559.463477 710.977533 
L 560.072509 711.957696 
L 560.681541 711.835001 
L 561.290573 706.622338 
L 561.899604 710.680556 
L 562.508636 710.721455 
L 563.117668 709.780796 
L 563.7267 709.495438 
L 564.335732 710.178624 
L 566.162827 710.624321 
L 566.771859 711.534771 
L 567.38089 710.388692 
L 567.989922 710.33571 
L 568.598954 707.177717 
L 569.207986 709.101792 
L 569.817018 709.019996 
L 570.426049 710.197679 
L 571.035081 709.306283 
L 571.644113 708.944241 
L 572.862177 709.337887 
L 573.471208 706.883529 
L 574.08024 705.515298 
L 574.689272 707.524887 
L 575.298304 708.339598 
L 575.907335 708.022637 
L 576.516367 707.264161 
L 577.125399 707.37942 
L 577.734431 707.102427 
L 578.343463 706.244494 
L 578.952494 706.727837 
L 579.561526 706.681362 
L 580.170558 707.314354 
L 580.77959 703.558225 
L 581.388622 705.799726 
L 581.997653 706.712035 
L 582.606685 702.880151 
L 583.824749 707.082443 
L 584.433781 696.468427 
L 585.042812 700.655382 
L 586.260876 701.827487 
L 586.869908 703.177593 
L 587.478939 701.374818 
L 588.087971 700.626102 
L 588.697003 702.363347 
L 589.306035 702.56412 
L 589.915067 702.238793 
L 590.524098 700.359334 
L 591.13313 700.018671 
L 591.742162 702.842971 
L 592.351194 700.355152 
L 592.960226 700.392796 
L 593.569257 702.199754 
L 594.178289 701.971096 
L 594.787321 702.938246 
L 595.396353 703.367212 
L 596.005385 704.205625 
L 596.614416 701.438025 
L 597.223448 702.286663 
L 597.83248 702.509744 
L 598.441512 701.415717 
L 599.050543 702.952188 
L 599.659575 701.919043 
L 600.268607 701.647628 
L 600.877639 702.420047 
L 602.095702 700.73346 
L 602.704734 701.607195 
L 603.313766 702.177446 
L 603.922798 700.842212 
L 604.53183 700.932839 
L 605.140861 702.108198 
L 605.749893 701.154526 
L 606.358925 699.060816 
L 606.967957 699.928509 
L 607.576988 701.092249 
L 608.18602 699.61666 
L 608.795052 700.848719 
L 609.404084 700.102326 
L 610.013116 697.713963 
L 610.622147 699.16585 
L 611.231179 699.941987 
L 611.840211 697.310558 
L 612.449243 699.027819 
L 613.058275 698.682972 
L 613.667306 698.172209 
L 614.276338 699.187693 
L 614.88537 699.852289 
L 615.494402 698.972978 
L 616.712465 698.411557 
L 617.321497 696.943869 
L 617.930529 699.441448 
L 618.539561 697.499248 
L 619.148592 694.444895 
L 619.757624 695.240551 
L 620.366656 693.667829 
L 620.975688 696.398714 
L 621.58472 696.149142 
L 622.193751 696.139382 
L 622.802783 697.561989 
L 623.411815 697.225044 
L 624.020847 693.9662 
L 625.23891 696.409868 
L 625.847942 692.798277 
L 626.456974 695.626296 
L 627.066006 691.905023 
L 627.675038 693.655745 
L 628.284069 694.909647 
L 628.893101 695.493841 
L 629.502133 696.259753 
L 630.111165 695.143418 
L 630.720196 692.794094 
L 631.329228 694.930096 
L 633.156324 693.23282 
L 633.765355 692.851259 
L 634.374387 694.021505 
L 634.983419 693.614382 
L 635.592451 694.219025 
L 636.201483 692.620277 
L 636.810514 688.329682 
L 637.419546 693.254199 
L 638.028578 692.834992 
L 638.63761 688.936184 
L 639.246642 691.269706 
L 639.855673 691.544375 
L 640.464705 690.528426 
L 641.073737 691.88225 
L 641.682769 692.757379 
L 642.2918 690.470797 
L 642.900832 689.142999 
L 643.509864 690.794264 
L 644.118896 691.723769 
L 644.727928 692.161101 
L 645.336959 691.062891 
L 645.945991 689.423245 
L 646.555023 690.468008 
L 647.164055 690.776604 
L 647.773087 690.899299 
L 648.382118 689.116043 
L 648.99115 689.532926 
L 649.600182 689.177856 
L 650.209214 687.294679 
L 650.818245 684.455041 
L 651.427277 688.23069 
L 652.036309 686.415367 
L 652.645341 689.388388 
L 653.254373 688.753072 
L 653.863404 689.447412 
L 654.472436 687.224966 
L 655.081468 686.074704 
L 656.299532 688.020622 
L 657.517595 687.08647 
L 658.126627 687.178491 
L 658.735659 686.64449 
L 659.344691 688.002497 
L 659.953722 685.332494 
L 660.562754 683.786263 
L 661.171786 685.324128 
L 661.780818 682.480308 
L 662.389849 685.81909 
L 662.998881 679.757324 
L 663.607913 683.987036 
L 664.216945 681.177607 
L 664.825977 684.131109 
L 665.435008 684.938384 
L 666.04404 683.918717 
L 666.653072 683.95032 
L 667.262104 684.334206 
L 667.871136 684.388582 
L 669.089199 683.565505 
L 669.698231 684.322122 
L 670.916295 680.334082 
L 671.525326 683.64033 
L 672.134358 678.406288 
L 672.74339 680.207204 
L 673.352422 679.241913 
L 673.961453 682.584878 
L 674.570485 682.837238 
L 675.179517 684.051171 
L 676.397581 681.867765 
L 677.006612 683.60315 
L 677.615644 682.150799 
L 678.224676 681.045617 
L 678.833708 678.429061 
L 679.44274 678.568022 
L 680.051771 676.917222 
L 680.660803 677.135191 
L 681.269835 676.168041 
L 681.878867 671.928569 
L 682.487898 673.655589 
L 683.09693 674.887648 
L 683.705962 673.246607 
L 684.314994 675.289659 
L 684.924026 674.419642 
L 685.533057 675.049382 
L 686.142089 675.300813 
L 686.751121 673.451098 
L 687.360153 674.953643 
L 687.969185 673.421354 
L 688.578216 675.154416 
L 689.187248 673.227087 
L 689.79628 672.51741 
L 690.405312 672.956137 
L 691.014344 659.788306 
L 691.623375 674.609261 
L 692.232407 675.669361 
L 692.841439 673.659772 
L 693.450471 675.394228 
L 694.059502 673.12763 
L 694.668534 672.835301 
L 695.277566 674.375026 
L 695.886598 665.148296 
L 696.49563 668.616278 
L 697.104661 675.499727 
L 697.713693 674.575799 
L 698.931757 673.992999 
L 699.540789 668.224957 
L 700.14982 674.817005 
L 700.758852 669.706588 
L 701.367884 671.412229 
L 701.976916 667.404669 
L 702.585948 671.932752 
L 703.194979 673.09045 
L 703.804011 675.152557 
L 704.413043 674.585094 
L 705.631106 670.967461 
L 706.240138 672.930575 
L 706.84917 671.573498 
L 707.458202 671.302548 
L 708.067234 671.63624 
L 708.676265 664.462321 
L 709.285297 661.858778 
L 709.894329 666.741932 
L 710.503361 659.807826 
L 711.112393 663.774023 
L 711.721424 665.527069 
L 712.330456 660.880009 
L 712.939488 660.932526 
L 714.766583 671.074354 
L 715.375615 632.351646 
L 715.984647 658.320153 
L 716.593679 657.567719 
L 717.20271 652.665975 
L 717.811742 663.789824 
L 718.420774 665.954177 
L 719.029806 669.028049 
L 719.638838 668.431772 
L 720.247869 670.419983 
L 720.856901 664.404227 
L 721.465933 667.012883 
L 722.074965 668.607448 
L 722.683997 665.59957 
L 723.293028 660.499842 
L 723.90206 660.786594 
L 724.511092 661.427488 
L 725.120124 660.095972 
L 725.729155 659.661429 
L 726.338187 659.450896 
L 726.947219 653.008498 
L 727.556251 662.355598 
L 728.165283 664.301052 
L 728.774314 662.071635 
L 729.383346 663.751715 
L 729.992378 658.9076 
L 730.60141 656.790653 
L 731.210442 649.712473 
L 731.819473 653.793929 
L 732.428505 652.967599 
L 733.037537 654.892139 
L 733.646569 655.082688 
L 734.255601 652.400601 
L 734.864632 655.190045 
L 735.473664 650.737717 
L 736.082696 657.038366 
L 736.691728 654.593303 
L 737.300759 656.766486 
L 737.909791 656.628454 
L 738.518823 659.316582 
L 739.127855 658.542769 
L 739.736887 659.704186 
L 740.345918 658.948498 
L 740.95495 659.634473 
L 741.563982 657.83774 
L 742.173014 660.283267 
L 742.782046 658.546023 
L 743.391077 657.538904 
L 744.000109 660.472422 
L 744.609141 659.657246 
L 745.218173 654.312593 
L 745.827205 657.107614 
L 746.436236 657.423646 
L 747.045268 654.887492 
L 747.6543 659.79063 
L 748.263332 657.527285 
L 748.872363 656.581514 
L 749.481395 651.359091 
L 750.090427 653.885485 
L 750.699459 645.531096 
L 751.308491 647.44727 
L 751.917522 648.31078 
L 752.526554 647.981735 
L 753.135586 648.847104 
L 753.744618 650.427263 
L 754.35365 640.147403 
L 754.962681 624.073476 
L 755.571713 652.31834 
L 756.180745 654.336295 
L 756.789777 652.922518 
L 757.398808 650.369168 
L 758.616872 642.431662 
L 759.225904 645.921488 
L 759.834936 641.508199 
L 760.443967 640.380709 
L 761.662031 651.429734 
L 762.271063 651.626789 
L 762.880095 650.439346 
L 763.489126 654.337689 
L 764.098158 653.88595 
L 764.70719 647.837197 
L 765.316222 650.265529 
L 765.925254 651.18202 
L 766.534285 649.420144 
L 767.143317 648.538973 
L 767.752349 650.955686 
L 768.361381 652.710591 
L 768.970412 647.092664 
L 769.579444 647.685688 
L 770.188476 631.69681 
L 770.797508 639.298766 
L 771.40654 641.85258 
L 772.015571 638.092733 
L 772.624603 641.500298 
L 773.233635 639.512087 
L 773.842667 649.219371 
L 774.451699 651.465055 
L 775.06073 645.702589 
L 775.669762 645.903362 
L 776.278794 646.614898 
L 776.887826 648.417673 
L 777.496858 648.121626 
L 778.714921 646.934648 
L 779.323953 649.455 
L 779.932985 646.437828 
L 780.542016 646.107853 
L 781.151048 645.454876 
L 781.76008 644.605774 
L 782.369112 645.628229 
L 782.978144 649.749189 
L 783.587175 645.573853 
L 784.196207 645.289424 
L 784.805239 644.778661 
L 785.414271 642.895485 
L 786.023303 647.281818 
L 786.632334 645.565952 
L 787.241366 646.211493 
L 787.850398 644.792604 
L 788.45943 642.301066 
L 789.068462 646.376945 
L 789.677493 644.322275 
L 790.286525 645.856887 
L 790.895557 645.149069 
L 791.504589 642.361019 
L 792.11362 643.188279 
L 792.722652 639.25229 
L 793.331684 640.948172 
L 793.940716 643.029798 
L 794.549748 640.848715 
L 795.158779 644.856275 
L 795.767811 640.386751 
L 796.376843 644.433815 
L 796.985875 642.269463 
L 797.594907 640.587989 
L 798.203938 639.679398 
L 798.81297 637.065165 
L 799.422002 638.850744 
L 800.031034 644.176342 
L 800.640065 640.429508 
L 801.858129 637.209239 
L 802.467161 637.92914 
L 803.076193 638.308843 
L 803.685224 636.841155 
L 804.294256 636.191896 
L 804.903288 634.365418 
L 805.51232 625.648057 
L 806.121352 623.965653 
L 806.730383 629.738343 
L 807.339415 626.119781 
L 807.948447 624.163173 
L 808.557479 616.394371 
L 809.166511 628.511862 
L 809.775542 635.23497 
L 810.384574 635.129471 
L 810.993606 633.525146 
L 811.602638 635.030014 
L 812.211669 630.113863 
L 812.820701 627.755245 
L 813.429733 635.64767 
L 814.038765 634.038233 
L 814.647797 631.712147 
L 815.256828 635.992982 
L 815.86586 634.369137 
L 817.083924 628.461204 
L 817.692956 631.184188 
L 818.301987 630.79612 
L 818.911019 629.80155 
L 819.520051 631.661489 
L 820.129083 635.277728 
L 820.738115 633.369454 
L 821.347146 628.480723 
L 821.956178 628.287851 
L 822.56521 632.075119 
L 823.174242 632.997187 
L 823.783273 629.893571 
L 824.392305 630.591629 
L 825.001337 623.576191 
L 825.610369 629.833153 
L 826.219401 630.024631 
L 826.828432 628.90876 
L 827.437464 630.451274 
L 828.046496 629.298687 
L 828.655528 627.53867 
L 829.26456 626.774617 
L 829.873591 629.505502 
L 831.091655 629.636562 
L 831.700687 623.095637 
L 832.309718 628.66523 
L 832.91875 627.10645 
L 833.527782 627.184529 
L 834.136814 629.46321 
L 834.745846 625.010417 
L 835.354877 626.852695 
L 835.963909 615.550846 
L 836.572941 622.622519 
L 837.181973 624.287727 
L 837.791005 623.572008 
L 838.400036 623.581303 
L 839.009068 620.205806 
L 839.6181 620.755144 
L 840.227132 624.049774 
L 840.836164 623.207642 
L 841.445195 625.684773 
L 842.054227 622.96783 
L 842.663259 621.180392 
L 843.272291 617.882044 
L 843.881322 623.598964 
L 844.490354 623.546447 
L 845.099386 617.761208 
L 845.708418 615.70282 
L 846.31745 621.25057 
L 846.926481 616.863771 
L 847.535513 616.489646 
L 848.144545 613.371157 
L 848.753577 612.209741 
L 849.362609 613.16899 
L 849.97164 622.749396 
L 850.580672 619.227038 
L 851.189704 620.129587 
L 851.798736 618.798071 
L 852.407768 614.035753 
L 853.016799 610.993019 
L 853.625831 611.365285 
L 854.234863 614.353179 
L 854.843895 617.944321 
L 855.452926 612.262258 
L 856.061958 611.957845 
L 856.67099 618.606593 
L 857.280022 618.706515 
L 857.889054 616.079269 
L 858.498085 607.442775 
L 859.716149 617.977783 
L 860.325181 611.876513 
L 860.934213 609.082886 
L 861.543244 614.143111 
L 862.152276 614.667351 
L 863.37034 608.675763 
L 863.979372 611.850952 
L 864.588403 612.612681 
L 865.197435 613.624447 
L 865.806467 614.220724 
L 866.415499 610.687212 
L 867.02453 613.131345 
L 867.633562 614.513518 
L 868.242594 613.782928 
L 869.460658 602.376973 
L 870.069689 608.755236 
L 870.678721 610.979541 
L 871.287753 607.004978 
L 871.896785 606.751223 
L 872.505817 604.667273 
L 873.72388 609.614563 
L 874.332912 606.667568 
L 874.941944 606.743787 
L 875.550975 602.834755 
L 876.160007 601.751417 
L 876.769039 604.96518 
L 877.378071 603.766583 
L 877.987103 607.654237 
L 878.596134 607.70536 
L 879.205166 609.271111 
L 879.814198 605.314673 
L 880.42323 603.451481 
L 881.032262 598.163993 
L 881.641293 602.277981 
L 882.250325 607.299166 
L 882.859357 599.97978 
L 883.468389 598.644547 
L 884.077421 600.706653 
L 884.686452 601.246695 
L 885.295484 604.507863 
L 885.904516 598.696599 
L 886.513548 603.702912 
L 887.122579 604.387028 
L 887.731611 602.696723 
L 888.340643 598.620844 
L 888.949675 595.309483 
L 889.558707 602.64653 
L 890.167738 597.86841 
L 890.77677 599.164605 
L 891.385802 595.307159 
L 891.994834 589.394579 
L 893.212897 599.95236 
L 893.821929 599.041445 
L 894.430961 600.014637 
L 895.039993 597.583982 
L 895.649025 594.685321 
L 896.258056 599.248725 
L 896.867088 597.792655 
L 897.47612 591.831276 
L 898.085152 600.14895 
L 898.694183 593.679596 
L 899.303215 592.492154 
L 899.912247 595.905296 
L 900.521279 586.686931 
L 901.130311 589.979237 
L 901.739342 595.79422 
L 902.348374 591.648163 
L 902.957406 590.82927 
L 903.566438 588.482735 
L 904.17547 587.679178 
L 904.784501 589.815645 
L 905.393533 584.560224 
L 906.002565 586.846806 
L 906.611597 589.99318 
L 907.220628 586.525662 
L 907.82966 596.673532 
L 908.438692 590.005264 
L 909.047724 590.336632 
L 909.656756 585.548753 
L 910.265787 586.868185 
L 910.874819 594.535206 
L 911.483851 589.763128 
L 912.092883 580.498288 
L 912.701915 592.570232 
L 913.310946 589.257942 
L 913.919978 591.432054 
L 914.52901 591.352116 
L 915.138042 589.714329 
L 915.747074 589.104573 
L 916.356105 590.449567 
L 916.965137 590.25623 
L 917.574169 586.823568 
L 918.183201 586.435965 
L 918.792232 584.094542 
L 919.401264 587.201877 
L 920.010296 575.692283 
L 920.619328 588.416275 
L 921.22836 586.375082 
L 921.837391 582.564112 
L 922.446423 587.410086 
L 923.055455 580.888215 
L 923.664487 573.079445 
L 924.273519 582.349862 
L 924.88255 585.256423 
L 925.491582 576.492122 
L 926.100614 579.17049 
L 926.709646 580.466685 
L 927.318678 585.77834 
L 927.927709 584.431952 
L 928.536741 583.464803 
L 929.145773 575.946503 
L 929.754805 580.583338 
L 930.363836 573.741252 
L 930.972868 575.901422 
L 931.5819 581.628566 
L 932.190932 581.022993 
L 932.799964 584.078741 
L 933.408995 578.667628 
L 934.018027 576.216988 
L 934.627059 582.093783 
L 935.845123 573.714761 
L 936.454154 562.761011 
L 937.672218 575.83961 
L 938.28125 577.801794 
L 938.890282 570.257003 
L 939.499313 552.375189 
L 940.108345 570.946231 
L 940.717377 580.285896 
L 941.326409 568.505351 
L 941.93544 565.683375 
L 942.544472 577.010786 
L 943.153504 570.026486 
L 943.762536 566.889872 
L 944.371568 574.110266 
L 944.980599 572.981382 
L 945.589631 571.383098 
L 946.198663 572.5724 
L 946.807695 573.162636 
L 947.416727 566.19832 
L 948.025758 575.525437 
L 948.63479 569.125331 
L 949.243822 568.866464 
L 949.852854 571.946378 
L 951.070917 565.801886 
L 952.288981 573.18262 
L 952.898013 565.866487 
L 953.507044 563.506009 
L 954.116076 562.635063 
L 954.725108 564.999259 
L 955.33414 566.166717 
L 955.943172 561.457381 
L 956.552203 561.338404 
L 957.161235 562.580223 
L 957.770267 569.365608 
L 958.379299 567.252844 
L 958.988331 569.242449 
L 960.206394 562.174959 
L 960.815426 565.040157 
L 961.424458 558.17437 
L 962.033489 561.706953 
L 962.642521 563.778819 
L 963.251553 554.330402 
L 964.469617 563.554808 
L 965.078648 553.30144 
L 965.68768 559.587682 
L 966.905744 555.065641 
L 967.514776 559.579781 
L 968.123807 554.486559 
L 968.732839 555.194377 
L 969.341871 554.572073 
L 969.950903 556.554707 
L 970.559935 557.945247 
L 971.168966 509.367463 
L 971.777998 549.344073 
L 972.38703 553.01097 
L 972.996062 547.548735 
L 973.605093 558.270109 
L 974.214125 551.492624 
L 974.823157 556.106221 
L 976.650252 548.038119 
L 977.259284 547.97956 
L 977.868316 548.804031 
L 978.477348 553.228939 
L 979.08638 547.016593 
L 979.695411 548.478704 
L 980.304443 551.507961 
L 980.913475 553.582151 
L 981.522507 553.086725 
L 982.131538 542.492693 
L 982.74057 549.737719 
L 983.349602 545.665558 
L 983.958634 548.069257 
L 984.567666 547.590098 
L 985.176697 550.942822 
L 985.785729 547.340526 
L 986.394761 549.34965 
L 987.003793 541.870854 
L 987.612825 546.532786 
L 988.221856 540.286048 
L 989.43992 545.199876 
L 990.048952 544.847594 
L 990.657984 551.337861 
L 991.267015 549.793024 
L 991.876047 544.377729 
L 992.485079 535.866718 
L 993.094111 534.997166 
L 993.703142 544.614753 
L 994.312174 547.679795 
L 994.921206 545.772916 
L 995.530238 546.18794 
L 996.13927 534.104376 
L 996.748301 547.930761 
L 997.357333 534.13598 
L 997.966365 534.040241 
L 998.575397 540.480315 
L 999.79346 545.733876 
L 1000.402492 534.161076 
L 1001.011524 531.850792 
L 1002.229588 543.767044 
L 1002.838619 536.683752 
L 1003.447651 540.326482 
L 1004.056683 540.854905 
L 1004.665715 538.003185 
L 1005.274746 533.451399 
L 1005.883778 540.457542 
L 1006.49281 529.505651 
L 1007.101842 525.815982 
L 1007.710874 538.40659 
L 1008.319905 533.762783 
L 1008.928937 536.69723 
L 1009.537969 533.535055 
L 1010.147001 531.861016 
L 1011.365064 533.89152 
L 1011.974096 532.578129 
L 1012.583128 533.827849 
L 1013.19216 528.86894 
L 1013.801192 525.830854 
L 1014.410223 530.778608 
L 1015.019255 533.993765 
L 1015.628287 534.328852 
L 1016.237319 517.56802 
L 1016.84635 521.936693 
L 1017.455382 531.373491 
L 1018.064414 528.141138 
L 1018.673446 535.737981 
L 1019.282478 524.510492 
L 1019.891509 525.352159 
L 1020.500541 530.397046 
L 1021.109573 531.757377 
L 1021.718605 527.876694 
L 1022.327637 527.638276 
L 1022.936668 524.776795 
L 1023.5457 531.767136 
L 1024.154732 522.16721 
L 1024.763764 519.084972 
L 1025.372795 531.340029 
L 1025.981827 532.217946 
L 1026.590859 524.492367 
L 1027.199891 531.46923 
L 1027.808923 527.086615 
L 1028.417954 529.551197 
L 1029.026986 519.60503 
L 1029.636018 518.90976 
L 1030.24505 517.449508 
L 1030.854082 520.298905 
L 1031.463113 524.042021 
L 1032.072145 520.954206 
L 1032.681177 522.763023 
L 1033.290209 527.819529 
L 1034.508272 512.632814 
L 1035.117304 524.5328 
L 1035.726336 523.494078 
L 1036.335368 520.05584 
L 1036.944399 523.659995 
L 1037.553431 515.725741 
L 1038.162463 518.268402 
L 1038.771495 515.829846 
L 1039.380527 522.018489 
L 1039.989558 522.205785 
L 1040.59859 519.238805 
L 1041.207622 508.72657 
L 1042.425686 522.560391 
L 1043.034717 515.299099 
L 1043.643749 523.328162 
L 1044.252781 508.287844 
L 1044.861813 513.355969 
L 1045.470845 504.351855 
L 1046.688908 518.065305 
L 1047.29794 510.435929 
L 1047.906972 515.180587 
L 1048.516003 510.270013 
L 1049.125035 515.238681 
L 1049.734067 511.15676 
L 1050.343099 513.675254 
L 1050.952131 511.998892 
L 1051.561162 504.276565 
L 1052.170194 515.420399 
L 1052.779226 512.915384 
L 1053.388258 499.561187 
L 1053.99729 513.751473 
L 1055.215353 500.14724 
L 1055.824385 498.660032 
L 1056.433417 499.872571 
L 1057.042448 494.267657 
L 1057.65148 505.42218 
L 1058.260512 507.951828 
L 1058.869544 502.825608 
L 1059.478576 507.059503 
L 1060.087607 503.355426 
L 1060.696639 496.956715 
L 1061.305671 494.309485 
L 1061.914703 497.389399 
L 1062.523735 504.387176 
L 1063.132766 493.098805 
L 1063.741798 510.613465 
L 1064.35083 500.895956 
L 1064.959862 507.079022 
L 1065.568894 495.866405 
L 1066.177925 506.798312 
L 1066.786957 499.063902 
L 1067.395989 500.905251 
L 1068.005021 490.786661 
L 1068.614052 489.464905 
L 1069.223084 475.983367 
L 1069.832116 499.738258 
L 1070.441148 494.310879 
L 1071.05018 483.198184 
L 1071.659211 502.391065 
L 1072.268243 493.015149 
L 1072.877275 492.761394 
L 1073.486307 502.131733 
L 1074.095339 487.198308 
L 1075.313402 488.402946 
L 1075.922434 497.057566 
L 1076.531466 492.753029 
L 1077.140498 491.816088 
L 1077.749529 492.735833 
L 1078.358561 483.865103 
L 1079.576625 497.722627 
L 1080.185656 491.876506 
L 1080.794688 496.44967 
L 1081.40372 495.733951 
L 1082.621784 486.901796 
L 1083.230815 473.813902 
L 1083.839847 488.525641 
L 1084.448879 495.531319 
L 1085.057911 478.233233 
L 1085.666943 487.07143 
L 1086.275974 473.267818 
L 1086.885006 492.04614 
L 1087.494038 484.098874 
L 1088.10307 489.602007 
L 1088.712102 488.613479 
L 1089.321133 477.781494 
L 1089.930165 490.155063 
L 1090.539197 489.219051 
L 1091.148229 486.354317 
L 1091.75726 489.932911 
L 1092.366292 480.510055 
L 1092.975324 491.391304 
L 1093.584356 480.786583 
L 1094.193388 480.211684 
L 1094.802419 485.697157 
L 1095.411451 470.239027 
L 1096.020483 485.311413 
L 1096.629515 486.203738 
L 1097.238547 462.543656 
L 1097.847578 470.657769 
L 1098.45661 469.700843 
L 1099.065642 446.233169 
L 1099.674674 482.287734 
L 1100.283705 475.654322 
L 1100.892737 470.379382 
L 1101.501769 481.230886 
L 1102.110801 467.045713 
L 1102.719833 464.919935 
L 1103.328864 463.656273 
L 1103.937896 479.252435 
L 1104.546928 473.779046 
L 1105.15596 474.264248 
L 1105.764992 466.401101 
L 1106.374023 471.927937 
L 1106.983055 462.964257 
L 1107.592087 466.723175 
L 1108.201119 476.744167 
L 1108.810151 462.672392 
L 1109.419182 463.535438 
L 1110.028214 473.466732 
L 1110.637246 476.017294 
L 1111.246278 463.917464 
L 1111.855309 471.036542 
L 1112.464341 463.87889 
L 1113.073373 465.613346 
L 1113.682405 464.340389 
L 1114.291437 466.020469 
L 1114.900468 463.533579 
L 1115.5095 464.927371 
L 1116.118532 474.862849 
L 1116.727564 459.915481 
L 1117.336596 464.689418 
L 1117.945627 458.870717 
L 1118.554659 451.662407 
L 1119.163691 455.818224 
L 1119.772723 446.942846 
L 1120.381755 463.589814 
L 1120.990786 462.566894 
L 1121.599818 465.044024 
L 1122.20885 448.575986 
L 1122.817882 459.625011 
L 1123.426913 442.32739 
L 1124.035945 461.15544 
L 1124.644977 465.603121 
L 1125.254009 464.776791 
L 1125.863041 461.377127 
L 1126.472072 463.077192 
L 1127.081104 466.363921 
L 1127.690136 444.581904 
L 1128.299168 463.146905 
L 1128.9082 466.714809 
L 1129.517231 460.080933 
L 1130.126263 461.956209 
L 1131.344327 437.463291 
L 1131.953358 444.74968 
L 1132.56239 453.742174 
L 1133.171422 450.800756 
L 1133.780454 447.158956 
L 1134.389486 452.032815 
L 1134.998517 455.098787 
L 1135.607549 453.313208 
L 1136.216581 456.861128 
L 1136.825613 448.157244 
L 1137.434645 457.753453 
L 1138.043676 445.788866 
L 1138.652708 455.329304 
L 1139.870772 448.180482 
L 1140.479804 440.596187 
L 1141.088835 438.761809 
L 1141.697867 457.775296 
L 1142.306899 437.611082 
L 1142.915931 454.124201 
L 1143.524962 453.375949 
L 1144.133994 451.346376 
L 1144.743026 451.219498 
L 1145.352058 449.075595 
L 1145.96109 433.405073 
L 1146.570121 458.693182 
L 1147.179153 451.079608 
L 1147.788185 441.559154 
L 1148.397217 438.543376 
L 1149.006249 441.753885 
L 1149.61528 437.539046 
L 1150.224312 456.871353 
L 1151.442376 438.166461 
L 1152.051408 448.260419 
L 1152.660439 446.524104 
L 1153.269471 446.74765 
L 1153.878503 448.342681 
L 1154.487535 448.290164 
L 1155.096566 449.533376 
L 1155.705598 433.849376 
L 1156.31463 431.37364 
L 1156.923662 440.724459 
L 1157.532694 439.84933 
L 1158.141725 440.856913 
L 1158.750757 446.618914 
L 1159.359789 438.36584 
L 1159.968821 442.016935 
L 1160.577853 437.992179 
L 1161.186884 440.480929 
L 1161.795916 448.859021 
L 1163.623012 425.634877 
L 1164.232043 423.666186 
L 1164.841075 435.958423 
L 1165.450107 434.794683 
L 1166.059139 439.56676 
L 1166.66817 419.330975 
L 1167.277202 420.021132 
L 1167.886234 437.946634 
L 1168.495266 427.756007 
L 1169.104298 437.128204 
L 1169.713329 426.22 
L 1170.322361 439.527721 
L 1170.931393 434.683607 
L 1172.149457 407.509997 
L 1172.758488 421.061713 
L 1173.36752 428.180791 
L 1173.976552 426.555551 
L 1174.585584 429.114478 
L 1175.194615 416.143703 
L 1175.803647 418.248566 
L 1176.412679 428.22959 
L 1177.021711 414.247048 
L 1177.630743 428.870948 
L 1178.239774 422.60748 
L 1178.848806 427.348419 
L 1179.457838 419.377915 
L 1180.06687 413.910102 
L 1180.675902 427.069568 
L 1181.284933 424.648672 
L 1181.893965 427.81596 
L 1182.502997 418.981481 
L 1183.112029 432.42398 
L 1184.330092 420.623451 
L 1184.939124 421.393081 
L 1185.548156 426.268334 
L 1186.157188 418.904332 
L 1186.766219 424.499951 
L 1187.375251 418.909444 
L 1187.984283 414.607696 
L 1188.593315 421.989824 
L 1189.202347 407.597835 
L 1189.811378 417.005354 
L 1190.42041 411.281927 
L 1191.029442 421.634753 
L 1191.638474 417.496597 
L 1192.247506 406.94114 
L 1192.856537 406.714805 
L 1193.465569 420.620663 
L 1194.074601 413.650306 
L 1194.683633 369.863191 
L 1195.901696 417.683892 
L 1196.510728 401.480763 
L 1197.11976 417.279558 
L 1197.728792 418.330828 
L 1198.337823 409.857461 
L 1198.946855 392.722969 
L 1199.555887 410.036391 
L 1200.164919 404.799096 
L 1200.773951 412.884394 
L 1201.382982 407.56902 
L 1201.992014 416.318914 
L 1202.601046 418.557162 
L 1203.210078 410.502538 
L 1203.81911 407.120534 
L 1204.428141 409.870939 
L 1205.037173 414.12203 
L 1205.646205 408.966066 
L 1206.255237 413.51181 
L 1206.864268 407.558796 
L 1207.4733 399.709592 
L 1208.082332 402.894076 
L 1208.691364 397.711621 
L 1209.300396 407.465381 
L 1209.909427 383.638918 
L 1210.518459 398.688066 
L 1211.127491 397.39559 
L 1211.736523 389.644913 
L 1212.345555 398.797283 
L 1212.954586 397.899846 
L 1213.563618 387.510305 
L 1214.17265 404.375706 
L 1214.781682 387.488927 
L 1215.390714 396.920148 
L 1216.608777 394.786934 
L 1217.217809 391.919412 
L 1217.826841 397.664681 
L 1218.435872 380.908032 
L 1219.044904 381.738545 
L 1219.653936 379.338563 
L 1220.262968 388.414249 
L 1220.872 391.598268 
L 1221.481031 385.504899 
L 1222.090063 386.502722 
L 1222.699095 395.650444 
L 1223.308127 386.268022 
L 1223.917159 393.178891 
L 1224.52619 390.87093 
L 1225.135222 396.13797 
L 1225.744254 386.480879 
L 1226.353286 387.085057 
L 1226.962318 375.381661 
L 1228.180381 399.724464 
L 1228.789413 384.092981 
L 1229.398445 395.623489 
L 1230.007476 373.266573 
L 1230.616508 384.930929 
L 1231.22554 384.811953 
L 1231.834572 388.535549 
L 1232.443604 363.825592 
L 1233.052635 385.978017 
L 1233.661667 385.123802 
L 1234.270699 369.790689 
L 1234.879731 383.829466 
L 1235.488763 371.736608 
L 1236.097794 363.358516 
L 1236.706826 380.465123 
L 1237.315858 369.436083 
L 1237.92489 381.07209 
L 1238.533922 380.740257 
L 1239.751985 391.251098 
L 1240.361017 358.726328 
L 1240.970049 373.840077 
L 1241.57908 364.77787 
L 1242.188112 379.348788 
L 1242.797144 387.204498 
L 1243.406176 380.04824 
L 1244.015208 381.839861 
L 1244.624239 385.284141 
L 1245.233271 371.798885 
L 1245.842303 373.217774 
L 1246.451335 372.498337 
L 1247.060367 381.130184 
L 1247.669398 380.135614 
L 1248.27843 379.958078 
L 1248.887462 357.863283 
L 1249.496494 351.53382 
L 1250.105525 364.656569 
L 1250.714557 370.557066 
L 1251.323589 355.795135 
L 1251.932621 363.615524 
L 1252.541653 360.939015 
L 1253.150684 353.796699 
L 1253.759716 364.539916 
L 1254.368748 362.831951 
L 1254.97778 364.728606 
L 1255.586812 356.931454 
L 1256.195843 342.578505 
L 1256.804875 369.057775 
L 1257.413907 370.446455 
L 1258.022939 349.281629 
L 1258.631971 365.085071 
L 1259.241002 373.748056 
L 1259.850034 360.348779 
L 1260.459066 359.613541 
L 1261.068098 353.728845 
L 1261.677129 354.17919 
L 1262.286161 346.274681 
L 1262.895193 356.224101 
L 1263.504225 377.368013 
L 1264.113257 356.631224 
L 1264.722288 357.9725 
L 1265.33132 340.24173 
L 1265.940352 359.876591 
L 1267.158416 349.329034 
L 1267.767447 354.926048 
L 1268.376479 363.438453 
L 1269.594543 356.268717 
L 1270.203575 339.572486 
L 1270.812606 342.009648 
L 1271.421638 354.849828 
L 1272.03067 353.256657 
L 1272.639702 359.094877 
L 1273.248733 299.658618 
L 1273.857765 349.135697 
L 1274.466797 344.09871 
L 1275.075829 347.726103 
L 1275.684861 361.236921 
L 1276.293892 356.609846 
L 1276.902924 349.338794 
L 1277.511956 356.572665 
L 1278.120988 350.76419 
L 1278.73002 332.584469 
L 1279.339051 350.918023 
L 1279.948083 355.557181 
L 1280.557115 352.416849 
L 1281.166147 352.825831 
L 1281.775178 350.625693 
L 1282.38421 330.927626 
L 1282.993242 336.262519 
L 1283.602274 340.163651 
L 1284.211306 349.562805 
L 1284.820337 328.537405 
L 1285.429369 339.386121 
L 1286.038401 341.96875 
L 1286.647433 327.931367 
L 1287.256465 341.286029 
L 1287.865496 342.19462 
L 1288.474528 331.434206 
L 1289.08356 351.783392 
L 1289.692592 347.859022 
L 1290.301624 347.448181 
L 1290.910655 328.679619 
L 1291.519687 346.925335 
L 1292.128719 346.331381 
L 1292.737751 346.712943 
L 1293.346782 334.223651 
L 1293.955814 350.503928 
L 1294.564846 328.851577 
L 1295.173878 341.178671 
L 1295.78291 326.537575 
L 1296.391941 342.389351 
L 1297.000973 334.884529 
L 1297.610005 336.98428 
L 1298.219037 324.204518 
L 1298.828069 325.64525 
L 1299.4371 318.383958 
L 1300.046132 314.224424 
L 1300.655164 346.316974 
L 1301.264196 326.483199 
L 1301.873228 328.319436 
L 1302.482259 312.752088 
L 1303.091291 329.28798 
L 1303.700323 326.905659 
L 1304.309355 338.707117 
L 1304.918386 326.061668 
L 1305.527418 328.089383 
L 1306.13645 312.707007 
L 1306.745482 303.966873 
L 1307.354514 286.87142 
L 1307.963545 289.383871 
L 1308.572577 335.315354 
L 1309.181609 317.24485 
L 1309.790641 324.483834 
L 1310.399673 290.438394 
L 1311.008704 317.274594 
L 1311.617736 323.180668 
L 1312.226768 327.73896 
L 1312.8358 309.18279 
L 1313.444832 312.996083 
L 1314.053863 315.143704 
L 1314.662895 318.759943 
L 1315.271927 323.633337 
L 1315.880959 326.112791 
L 1316.48999 317.075215 
L 1317.099022 329.724382 
L 1317.708054 320.001761 
L 1318.317086 322.514213 
L 1318.926118 323.701655 
L 1320.144181 303.994293 
L 1320.753213 324.0307 
L 1321.362245 309.990065 
L 1321.971277 315.413261 
L 1322.580308 326.381883 
L 1323.18934 309.534142 
L 1323.798372 303.411029 
L 1324.407404 330.211908 
L 1325.016435 318.714862 
L 1325.625467 314.323416 
L 1326.234499 307.027268 
L 1326.843531 305.272827 
L 1327.452563 306.07592 
L 1328.061594 306.67638 
L 1328.670626 311.648301 
L 1329.279658 311.179366 
L 1329.88869 306.738192 
L 1330.497722 319.354361 
L 1331.106753 296.420688 
L 1331.715785 284.13031 
L 1332.324817 311.559533 
L 1333.542881 295.972202 
L 1334.151912 292.030636 
L 1334.760944 303.055958 
L 1335.369976 310.058383 
L 1335.979008 296.905889 
L 1336.588039 279.009667 
L 1337.197071 280.719027 
L 1337.806103 309.700059 
L 1338.415135 303.375708 
L 1339.024167 294.480811 
L 1339.633198 310.085804 
L 1340.24223 297.393415 
L 1340.851262 291.227544 
L 1341.460294 241.605927 
L 1342.069326 303.830236 
L 1342.678357 302.568898 
L 1343.287389 276.430756 
L 1343.896421 302.288652 
L 1344.505453 288.795495 
L 1345.114485 286.896516 
L 1346.332548 308.91974 
L 1346.94158 279.113307 
L 1347.550612 295.739825 
L 1348.159643 286.894657 
L 1348.768675 300.247459 
L 1349.377707 286.615341 
L 1350.595771 287.112626 
L 1351.204802 273.596231 
L 1351.813834 279.644984 
L 1352.422866 288.867066 
L 1353.031898 291.044432 
L 1353.64093 278.726633 
L 1354.249961 278.254909 
L 1354.858993 301.441873 
L 1355.468025 288.04306 
L 1356.686088 270.189131 
L 1357.29512 278.411066 
L 1357.904152 282.615682 
L 1358.513184 292.216073 
L 1359.122216 280.785486 
L 1359.731247 239.898427 
L 1360.340279 226.831912 
L 1360.949311 261.933269 
L 1361.558343 270.506557 
L 1362.167375 267.57304 
L 1362.776406 275.547727 
L 1363.385438 255.964453 
L 1363.99447 275.219611 
L 1365.212534 268.894331 
L 1365.821565 254.736577 
L 1366.430597 267.939264 
L 1367.039629 254.477246 
L 1367.648661 255.524333 
L 1368.257692 252.863625 
L 1368.866724 272.336752 
L 1369.475756 266.428819 
L 1370.084788 254.927591 
L 1370.69382 269.196885 
L 1371.302851 249.074034 
L 1371.911883 269.516634 
L 1372.520915 235.015737 
L 1373.129947 255.47414 
L 1373.738979 258.902153 
L 1374.34801 284.584373 
L 1374.957042 264.67252 
L 1375.566074 260.929868 
L 1376.175106 263.629615 
L 1376.784138 267.804486 
L 1377.393169 267.918351 
L 1378.002201 277.553598 
L 1379.220265 257.667771 
L 1379.829296 271.043346 
L 1380.438328 268.109364 
L 1381.04736 263.960519 
L 1381.656392 273.816524 
L 1382.265424 275.451988 
L 1382.874455 251.988496 
L 1383.483487 249.302227 
L 1384.092519 245.296061 
L 1384.701551 262.586246 
L 1385.310583 251.083623 
L 1385.919614 243.516059 
L 1387.137678 265.487695 
L 1387.74671 249.054049 
L 1388.355742 238.777444 
L 1388.964773 243.342707 
L 1389.573805 261.539623 
L 1390.182837 268.204638 
L 1390.791869 249.280849 
L 1391.4009 236.418825 
L 1392.009932 245.600474 
L 1392.618964 261.342568 
L 1393.227996 251.370376 
L 1393.837028 250.465503 
L 1394.446059 257.157938 
L 1395.055091 234.36276 
L 1395.664123 235.567399 
L 1396.273155 204.718991 
L 1396.882187 214.423022 
L 1397.491218 138.760861 
L 1398.10025 218.266989 
L 1398.709282 261.94117 
L 1399.927345 221.348763 
L 1400.536377 209.149941 
L 1401.145409 249.504395 
L 1401.754441 222.146278 
L 1402.363473 229.61392 
L 1402.972504 245.027434 
L 1403.581536 237.596043 
L 1404.190568 258.65444 
L 1404.7996 235.303884 
L 1405.408632 253.317688 
L 1406.017663 245.526114 
L 1406.626695 241.221577 
L 1407.235727 250.550087 
L 1407.844759 231.590512 
L 1408.453791 246.179556 
L 1409.062822 235.761665 
L 1409.671854 241.748141 
L 1410.280886 229.672479 
L 1410.889918 244.430692 
L 1411.498949 243.592744 
L 1412.107981 228.557538 
L 1412.717013 240.321816 
L 1413.326045 248.950874 
L 1414.544108 222.810409 
L 1415.15314 230.559226 
L 1415.762172 242.3974 
L 1416.371204 228.340963 
L 1416.980236 229.750557 
L 1417.589267 233.563386 
L 1418.198299 235.929905 
L 1418.807331 239.803152 
L 1419.416363 240.799117 
L 1420.025395 234.407841 
L 1420.634426 219.502766 
L 1421.85249 196.754529 
L 1422.461522 195.341217 
L 1423.070553 198.686505 
L 1423.679585 187.532446 
L 1424.288617 213.442394 
L 1424.897649 206.319599 
L 1425.506681 205.555546 
L 1426.115712 202.943172 
L 1426.724744 197.586436 
L 1427.333776 188.448473 
L 1427.942808 190.218251 
L 1428.55184 179.310511 
L 1429.160871 163.839832 
L 1429.769903 192.233882 
L 1430.378935 183.674072 
L 1430.987967 207.880702 
L 1431.596998 199.496568 
L 1432.20603 197.076137 
L 1432.815062 214.631231 
L 1433.424094 183.968725 
L 1434.033126 167.551345 
L 1434.642157 205.2186 
L 1435.251189 204.809153 
L 1435.860221 192.904055 
L 1436.469253 205.580642 
L 1437.078285 201.402983 
L 1437.687316 216.71704 
L 1438.296348 200.538543 
L 1438.90538 136.154065 
L 1439.514412 197.265292 
L 1440.123444 177.081558 
L 1440.732475 204.935101 
L 1441.341507 197.350341 
L 1441.950539 133.92 
L 1442.559571 180.545823 
L 1443.168602 196.060653 
L 1443.777634 176.754373 
L 1444.386666 179.452725 
L 1444.995698 207.448017 
L 1445.60473 210.461937 
L 1446.213761 207.904404 
L 1446.822793 208.134457 
L 1447.431825 201.522424 
L 1448.040857 161.390122 
L 1448.649889 201.325369 
L 1449.25892 198.416948 
L 1449.867952 209.043513 
L 1450.476984 202.469589 
L 1451.086016 200.616157 
L 1451.695048 182.140389 
L 1452.304079 198.117183 
L 1452.913111 193.855868 
L 1454.131175 174.104819 
L 1454.740206 195.79528 
L 1455.349238 181.136988 
L 1455.95827 155.201014 
L 1456.567302 209.019345 
L 1457.176334 181.57525 
L 1457.785365 178.127251 
L 1458.394397 186.826487 
L 1459.003429 210.112908 
L 1459.612461 199.099205 
L 1460.221493 184.222944 
L 1460.830524 194.758882 
L 1461.439556 191.380132 
L 1462.048588 194.216051 
L 1462.65762 189.654506 
L 1463.266652 190.38835 
L 1464.484715 200.514376 
L 1465.093747 181.717464 
L 1465.702779 180.030877 
L 1466.31181 198.828254 
L 1466.920842 192.549449 
L 1467.529874 183.150296 
L 1468.138906 157.93004 
L 1468.747938 182.440619 
L 1469.356969 173.373763 
L 1469.966001 196.253061 
L 1470.575033 185.442455 
L 1471.184065 179.204547 
L 1471.793097 170.519254 
L 1472.402128 171.196863 
L 1473.01116 180.042961 
L 1473.620192 175.054308 
L 1474.229224 174.526814 
L 1474.838255 187.386049 
L 1475.447287 185.089707 
L 1476.056319 172.28113 
L 1476.665351 176.690237 
L 1477.274383 175.643614 
L 1477.883414 150.588811 
L 1478.492446 163.803117 
L 1479.101478 187.443214 
L 1479.71051 157.651189 
L 1480.319542 146.204801 
L 1480.928573 173.559664 
L 1481.537605 170.167436 
L 1482.146637 168.185267 
L 1482.755669 186.124711 
L 1483.973732 164.380339 
L 1484.582764 163.961132 
L 1485.191796 171.152247 
L 1485.800828 179.750632 
L 1486.409859 186.01503 
L 1487.018891 168.181085 
L 1487.627923 172.586473 
L 1488.236955 162.941466 
L 1488.845987 158.457999 
L 1489.455018 172.183532 
L 1490.06405 154.620073 
L 1490.673082 171.736441 
L 1491.282114 159.57294 
L 1491.891146 157.881241 
L 1492.500177 165.005896 
L 1493.109209 165.535714 
L 1493.718241 145.179557 
L 1494.327273 168.384181 
L 1494.327273 168.384181 
" style="fill:none;stroke:#1f77b4;stroke-linecap:square;stroke-width:1.5;"/>
   </g>
   <g id="line2d_18">
    <path clip-path="url(#p933b5fc4cf)" d="M 276.872727 736.257878 
L 293.316586 736.62318 
L 309.760444 736.762042 
L 326.204302 736.674465 
L 342.64816 736.360449 
L 359.092019 735.819994 
L 375.535877 735.053101 
L 391.979735 734.059768 
L 408.423594 732.839996 
L 424.867452 731.393784 
L 441.31131 729.721134 
L 457.755168 727.822045 
L 474.199027 725.696517 
L 490.642885 723.34455 
L 507.086743 720.766143 
L 523.530602 717.961298 
L 539.97446 714.930013 
L 556.418318 711.67229 
L 572.862177 708.188127 
L 589.306035 704.477525 
L 605.749893 700.540485 
L 622.193751 696.377005 
L 638.63761 691.987086 
L 655.081468 687.370728 
L 671.525326 682.527931 
L 687.969185 677.458695 
L 704.413043 672.16302 
L 720.856901 666.640906 
L 737.909791 660.675095 
L 754.962681 654.465761 
L 772.015571 648.012904 
L 789.068462 641.316524 
L 806.121352 634.376621 
L 823.174242 627.193195 
L 840.227132 619.766246 
L 857.280022 612.095775 
L 874.332912 604.18178 
L 891.385802 596.024262 
L 908.438692 587.623222 
L 925.491582 578.978658 
L 942.544472 570.090572 
L 959.597362 560.958963 
L 977.259284 551.2445 
L 994.921206 541.26881 
L 1012.583128 531.031891 
L 1030.24505 520.533745 
L 1047.906972 509.77437 
L 1065.568894 498.753768 
L 1083.230815 487.471937 
L 1100.892737 475.928878 
L 1118.554659 464.124592 
L 1136.216581 452.059077 
L 1153.878503 439.732334 
L 1172.149457 426.705636 
L 1190.42041 413.399384 
L 1208.691364 399.813577 
L 1226.962318 385.948215 
L 1245.233271 371.8033 
L 1263.504225 357.37883 
L 1281.775178 342.674805 
L 1300.046132 327.691227 
L 1318.317086 312.428093 
L 1337.197071 296.362502 
L 1356.077057 279.998408 
L 1374.957042 263.335812 
L 1393.837028 246.374715 
L 1412.717013 229.115115 
L 1431.596998 211.557013 
L 1450.476984 193.70041 
L 1469.356969 175.545304 
L 1488.845987 156.491449 
L 1494.327273 151.075244 
L 1494.327273 151.075244 
" style="fill:none;stroke:#ff7f0e;stroke-linecap:square;stroke-width:1.5;"/>
   </g>
   <g id="patch_3">
    <path d="M 216 768.96 
L 216 103.68 
" style="fill:none;stroke:#000000;stroke-linecap:square;stroke-linejoin:miter;stroke-width:0.8;"/>
   </g>
   <g id="patch_4">
    <path d="M 1555.2 768.96 
L 1555.2 103.68 
" style="fill:none;stroke:#000000;stroke-linecap:square;stroke-linejoin:miter;stroke-width:0.8;"/>
   </g>
   <g id="patch_5">
    <path d="M 216 768.96 
L 1555.2 768.96 
" style="fill:none;stroke:#000000;stroke-linecap:square;stroke-linejoin:miter;stroke-width:0.8;"/>
   </g>
   <g id="patch_6">
    <path d="M 216 103.68 
L 1555.2 103.68 
" style="fill:none;stroke:#000000;stroke-linecap:square;stroke-linejoin:miter;stroke-width:0.8;"/>
   </g>
   <g id="legend_1">
    <g id="patch_7">
     <path d="M 223 141.03625 
L 349.451563 141.03625 
Q 351.451563 141.03625 351.451563 139.03625 
L 351.451563 110.68 
Q 351.451563 108.68 349.451563 108.68 
L 223 108.68 
Q 221 108.68 221 110.68 
L 221 139.03625 
Q 221 141.03625 223 141.03625 
z
" style="fill:#ffffff;opacity:0.8;stroke:#cccccc;stroke-linejoin:miter;"/>
    </g>
    <g id="line2d_19">
     <path d="M 225 116.778437 
L 245 116.778437 
" style="fill:none;stroke:#1f77b4;stroke-linecap:square;stroke-width:1.5;"/>
    </g>
    <g id="line2d_20"/>
    <g id="text_19">
     <!-- Experiment results -->
     <g transform="translate(253 120.278437)scale(0.1 -0.1)">
      <defs>
       <path d="M 9.8125 72.90625 
L 55.90625 72.90625 
L 55.90625 64.59375 
L 19.671875 64.59375 
L 19.671875 43.015625 
L 54.390625 43.015625 
L 54.390625 34.71875 
L 19.671875 34.71875 
L 19.671875 8.296875 
L 56.78125 8.296875 
L 56.78125 0 
L 9.8125 0 
z
" id="DejaVuSans-69"/>
       <path d="M 54.890625 54.6875 
L 35.109375 28.078125 
L 55.90625 0 
L 45.3125 0 
L 29.390625 21.484375 
L 13.484375 0 
L 2.875 0 
L 24.125 28.609375 
L 4.6875 54.6875 
L 15.28125 54.6875 
L 29.78125 35.203125 
L 44.28125 54.6875 
z
" id="DejaVuSans-120"/>
       <path d="M 18.109375 8.203125 
L 18.109375 -20.796875 
L 9.078125 -20.796875 
L 9.078125 54.6875 
L 18.109375 54.6875 
L 18.109375 46.390625 
Q 20.953125 51.265625 25.265625 53.625 
Q 29.59375 56 35.59375 56 
Q 45.5625 56 51.78125 48.09375 
Q 58.015625 40.1875 58.015625 27.296875 
Q 58.015625 14.40625 51.78125 6.484375 
Q 45.5625 -1.421875 35.59375 -1.421875 
Q 29.59375 -1.421875 25.265625 0.953125 
Q 20.953125 3.328125 18.109375 8.203125 
z
M 48.6875 27.296875 
Q 48.6875 37.203125 44.609375 42.84375 
Q 40.53125 48.484375 33.40625 48.484375 
Q 26.265625 48.484375 22.1875 42.84375 
Q 18.109375 37.203125 18.109375 27.296875 
Q 18.109375 17.390625 22.1875 11.75 
Q 26.265625 6.109375 33.40625 6.109375 
Q 40.53125 6.109375 44.609375 11.75 
Q 48.6875 17.390625 48.6875 27.296875 
z
" id="DejaVuSans-112"/>
       <path d="M 8.5 21.578125 
L 8.5 54.6875 
L 17.484375 54.6875 
L 17.484375 21.921875 
Q 17.484375 14.15625 20.5 10.265625 
Q 23.53125 6.390625 29.59375 6.390625 
Q 36.859375 6.390625 41.078125 11.03125 
Q 45.3125 15.671875 45.3125 23.6875 
L 45.3125 54.6875 
L 54.296875 54.6875 
L 54.296875 0 
L 45.3125 0 
L 45.3125 8.40625 
Q 42.046875 3.421875 37.71875 1 
Q 33.40625 -1.421875 27.6875 -1.421875 
Q 18.265625 -1.421875 13.375 4.4375 
Q 8.5 10.296875 8.5 21.578125 
z
M 31.109375 56 
z
" id="DejaVuSans-117"/>
      </defs>
      <use xlink:href="#DejaVuSans-69"/>
      <use x="63.183594" xlink:href="#DejaVuSans-120"/>
      <use x="122.363281" xlink:href="#DejaVuSans-112"/>
      <use x="185.839844" xlink:href="#DejaVuSans-101"/>
      <use x="247.363281" xlink:href="#DejaVuSans-114"/>
      <use x="288.476562" xlink:href="#DejaVuSans-105"/>
      <use x="316.259766" xlink:href="#DejaVuSans-109"/>
      <use x="413.671875" xlink:href="#DejaVuSans-101"/>
      <use x="475.195312" xlink:href="#DejaVuSans-110"/>
      <use x="538.574219" xlink:href="#DejaVuSans-116"/>
      <use x="577.783203" xlink:href="#DejaVuSans-32"/>
      <use x="609.570312" xlink:href="#DejaVuSans-114"/>
      <use x="648.433594" xlink:href="#DejaVuSans-101"/>
      <use x="709.957031" xlink:href="#DejaVuSans-115"/>
      <use x="762.056641" xlink:href="#DejaVuSans-117"/>
      <use x="825.435547" xlink:href="#DejaVuSans-108"/>
      <use x="853.21875" xlink:href="#DejaVuSans-116"/>
      <use x="892.427734" xlink:href="#DejaVuSans-115"/>
     </g>
    </g>
    <g id="line2d_21">
     <path d="M 225 131.456563 
L 245 131.456563 
" style="fill:none;stroke:#ff7f0e;stroke-linecap:square;stroke-width:1.5;"/>
    </g>
    <g id="line2d_22"/>
    <g id="text_20">
     <!-- Approximation -->
     <g transform="translate(253 134.956563)scale(0.1 -0.1)">
      <defs>
       <path d="M 34.1875 63.1875 
L 20.796875 26.90625 
L 47.609375 26.90625 
z
M 28.609375 72.90625 
L 39.796875 72.90625 
L 67.578125 0 
L 57.328125 0 
L 50.6875 18.703125 
L 17.828125 18.703125 
L 11.1875 0 
L 0.78125 0 
z
" id="DejaVuSans-65"/>
       <path d="M 34.28125 27.484375 
Q 23.390625 27.484375 19.1875 25 
Q 14.984375 22.515625 14.984375 16.5 
Q 14.984375 11.71875 18.140625 8.90625 
Q 21.296875 6.109375 26.703125 6.109375 
Q 34.1875 6.109375 38.703125 11.40625 
Q 43.21875 16.703125 43.21875 25.484375 
L 43.21875 27.484375 
z
M 52.203125 31.203125 
L 52.203125 0 
L 43.21875 0 
L 43.21875 8.296875 
Q 40.140625 3.328125 35.546875 0.953125 
Q 30.953125 -1.421875 24.3125 -1.421875 
Q 15.921875 -1.421875 10.953125 3.296875 
Q 6 8.015625 6 15.921875 
Q 6 25.140625 12.171875 29.828125 
Q 18.359375 34.515625 30.609375 34.515625 
L 43.21875 34.515625 
L 43.21875 35.40625 
Q 43.21875 41.609375 39.140625 45 
Q 35.0625 48.390625 27.6875 48.390625 
Q 23 48.390625 18.546875 47.265625 
Q 14.109375 46.140625 10.015625 43.890625 
L 10.015625 52.203125 
Q 14.9375 54.109375 19.578125 55.046875 
Q 24.21875 56 28.609375 56 
Q 40.484375 56 46.34375 49.84375 
Q 52.203125 43.703125 52.203125 31.203125 
z
" id="DejaVuSans-97"/>
      </defs>
      <use xlink:href="#DejaVuSans-65"/>
      <use x="68.408203" xlink:href="#DejaVuSans-112"/>
      <use x="131.884766" xlink:href="#DejaVuSans-112"/>
      <use x="195.361328" xlink:href="#DejaVuSans-114"/>
      <use x="234.224609" xlink:href="#DejaVuSans-111"/>
      <use x="292.28125" xlink:href="#DejaVuSans-120"/>
      <use x="351.460938" xlink:href="#DejaVuSans-105"/>
      <use x="379.244141" xlink:href="#DejaVuSans-109"/>
      <use x="476.65625" xlink:href="#DejaVuSans-97"/>
      <use x="537.935547" xlink:href="#DejaVuSans-116"/>
      <use x="577.144531" xlink:href="#DejaVuSans-105"/>
      <use x="604.927734" xlink:href="#DejaVuSans-111"/>
      <use x="666.109375" xlink:href="#DejaVuSans-110"/>
     </g>
    </g>
   </g>
  </g>
 </g>
 <defs>
  <clipPath id="p933b5fc4cf">
   <rect height="665.28" width="1339.2" x="216" y="103.68"/>
  </clipPath>
 </defs>
</svg>
