<?xml version="1.0" encoding="utf-8" standalone="no"?>
<!DOCTYPE svg PUBLIC "-//W3C//DTD SVG 1.1//EN"
  "http://www.w3.org/Graphics/SVG/1.1/DTD/svg11.dtd">
<!-- Created with matplotlib (https://matplotlib.org/) -->
<svg height="864pt" version="1.1" viewBox="0 0 1728 864" width="1728pt" xmlns="http://www.w3.org/2000/svg" xmlns:xlink="http://www.w3.org/1999/xlink">
 <metadata>
  <rdf:RDF xmlns:cc="http://creativecommons.org/ns#" xmlns:dc="http://purl.org/dc/elements/1.1/" xmlns:rdf="http://www.w3.org/1999/02/22-rdf-syntax-ns#">
   <cc:Work>
    <dc:type rdf:resource="http://purl.org/dc/dcmitype/StillImage"/>
    <dc:date>2020-09-12T14:25:23.728581</dc:date>
    <dc:format>image/svg+xml</dc:format>
    <dc:creator>
     <cc:Agent>
      <dc:title>Matplotlib v3.3.1, https://matplotlib.org/</dc:title>
     </cc:Agent>
    </dc:creator>
   </cc:Work>
  </rdf:RDF>
 </metadata>
 <defs>
  <style type="text/css">*{stroke-linecap:butt;stroke-linejoin:round;}</style>
 </defs>
 <g id="figure_1">
  <g id="patch_1">
   <path d="M 0 864 
L 1728 864 
L 1728 0 
L 0 0 
z
" style="fill:#ffffff;"/>
  </g>
  <g id="axes_1">
   <g id="patch_2">
    <path d="M 216 768.96 
L 1555.2 768.96 
L 1555.2 103.68 
L 216 103.68 
z
" style="fill:#ffffff;"/>
   </g>
   <g id="matplotlib.axis_1">
    <g id="xtick_1">
     <g id="line2d_1">
      <defs>
       <path d="M 0 0 
L 0 3.5 
" id="mf0dbd3b633" style="stroke:#000000;stroke-width:0.8;"/>
      </defs>
      <g>
       <use style="stroke:#000000;stroke-width:0.8;" x="276.872727" xlink:href="#mf0dbd3b633" y="768.96"/>
      </g>
     </g>
     <g id="text_1">
      <!-- 0 -->
      <g transform="translate(273.691477 783.558437)scale(0.1 -0.1)">
       <defs>
        <path d="M 31.78125 66.40625 
Q 24.171875 66.40625 20.328125 58.90625 
Q 16.5 51.421875 16.5 36.375 
Q 16.5 21.390625 20.328125 13.890625 
Q 24.171875 6.390625 31.78125 6.390625 
Q 39.453125 6.390625 43.28125 13.890625 
Q 47.125 21.390625 47.125 36.375 
Q 47.125 51.421875 43.28125 58.90625 
Q 39.453125 66.40625 31.78125 66.40625 
z
M 31.78125 74.21875 
Q 44.046875 74.21875 50.515625 64.515625 
Q 56.984375 54.828125 56.984375 36.375 
Q 56.984375 17.96875 50.515625 8.265625 
Q 44.046875 -1.421875 31.78125 -1.421875 
Q 19.53125 -1.421875 13.0625 8.265625 
Q 6.59375 17.96875 6.59375 36.375 
Q 6.59375 54.828125 13.0625 64.515625 
Q 19.53125 74.21875 31.78125 74.21875 
z
" id="DejaVuSans-48"/>
       </defs>
       <use xlink:href="#DejaVuSans-48"/>
      </g>
     </g>
    </g>
    <g id="xtick_2">
     <g id="line2d_2">
      <g>
       <use style="stroke:#000000;stroke-width:0.8;" x="437.14847" xlink:href="#mf0dbd3b633" y="768.96"/>
      </g>
     </g>
     <g id="text_2">
      <!-- 250 -->
      <g transform="translate(427.60472 783.558437)scale(0.1 -0.1)">
       <defs>
        <path d="M 19.1875 8.296875 
L 53.609375 8.296875 
L 53.609375 0 
L 7.328125 0 
L 7.328125 8.296875 
Q 12.9375 14.109375 22.625 23.890625 
Q 32.328125 33.6875 34.8125 36.53125 
Q 39.546875 41.84375 41.421875 45.53125 
Q 43.3125 49.21875 43.3125 52.78125 
Q 43.3125 58.59375 39.234375 62.25 
Q 35.15625 65.921875 28.609375 65.921875 
Q 23.96875 65.921875 18.8125 64.3125 
Q 13.671875 62.703125 7.8125 59.421875 
L 7.8125 69.390625 
Q 13.765625 71.78125 18.9375 73 
Q 24.125 74.21875 28.421875 74.21875 
Q 39.75 74.21875 46.484375 68.546875 
Q 53.21875 62.890625 53.21875 53.421875 
Q 53.21875 48.921875 51.53125 44.890625 
Q 49.859375 40.875 45.40625 35.40625 
Q 44.1875 33.984375 37.640625 27.21875 
Q 31.109375 20.453125 19.1875 8.296875 
z
" id="DejaVuSans-50"/>
        <path d="M 10.796875 72.90625 
L 49.515625 72.90625 
L 49.515625 64.59375 
L 19.828125 64.59375 
L 19.828125 46.734375 
Q 21.96875 47.46875 24.109375 47.828125 
Q 26.265625 48.1875 28.421875 48.1875 
Q 40.625 48.1875 47.75 41.5 
Q 54.890625 34.8125 54.890625 23.390625 
Q 54.890625 11.625 47.5625 5.09375 
Q 40.234375 -1.421875 26.90625 -1.421875 
Q 22.3125 -1.421875 17.546875 -0.640625 
Q 12.796875 0.140625 7.71875 1.703125 
L 7.71875 11.625 
Q 12.109375 9.234375 16.796875 8.0625 
Q 21.484375 6.890625 26.703125 6.890625 
Q 35.15625 6.890625 40.078125 11.328125 
Q 45.015625 15.765625 45.015625 23.390625 
Q 45.015625 31 40.078125 35.4375 
Q 35.15625 39.890625 26.703125 39.890625 
Q 22.75 39.890625 18.8125 39.015625 
Q 14.890625 38.140625 10.796875 36.28125 
z
" id="DejaVuSans-53"/>
       </defs>
       <use xlink:href="#DejaVuSans-50"/>
       <use x="63.623047" xlink:href="#DejaVuSans-53"/>
       <use x="127.246094" xlink:href="#DejaVuSans-48"/>
      </g>
     </g>
    </g>
    <g id="xtick_3">
     <g id="line2d_3">
      <g>
       <use style="stroke:#000000;stroke-width:0.8;" x="597.424214" xlink:href="#mf0dbd3b633" y="768.96"/>
      </g>
     </g>
     <g id="text_3">
      <!-- 500 -->
      <g transform="translate(587.880464 783.558437)scale(0.1 -0.1)">
       <use xlink:href="#DejaVuSans-53"/>
       <use x="63.623047" xlink:href="#DejaVuSans-48"/>
       <use x="127.246094" xlink:href="#DejaVuSans-48"/>
      </g>
     </g>
    </g>
    <g id="xtick_4">
     <g id="line2d_4">
      <g>
       <use style="stroke:#000000;stroke-width:0.8;" x="757.699957" xlink:href="#mf0dbd3b633" y="768.96"/>
      </g>
     </g>
     <g id="text_4">
      <!-- 750 -->
      <g transform="translate(748.156207 783.558437)scale(0.1 -0.1)">
       <defs>
        <path d="M 8.203125 72.90625 
L 55.078125 72.90625 
L 55.078125 68.703125 
L 28.609375 0 
L 18.3125 0 
L 43.21875 64.59375 
L 8.203125 64.59375 
z
" id="DejaVuSans-55"/>
       </defs>
       <use xlink:href="#DejaVuSans-55"/>
       <use x="63.623047" xlink:href="#DejaVuSans-53"/>
       <use x="127.246094" xlink:href="#DejaVuSans-48"/>
      </g>
     </g>
    </g>
    <g id="xtick_5">
     <g id="line2d_5">
      <g>
       <use style="stroke:#000000;stroke-width:0.8;" x="917.9757" xlink:href="#mf0dbd3b633" y="768.96"/>
      </g>
     </g>
     <g id="text_5">
      <!-- 1000 -->
      <g transform="translate(905.2507 783.558437)scale(0.1 -0.1)">
       <defs>
        <path d="M 12.40625 8.296875 
L 28.515625 8.296875 
L 28.515625 63.921875 
L 10.984375 60.40625 
L 10.984375 69.390625 
L 28.421875 72.90625 
L 38.28125 72.90625 
L 38.28125 8.296875 
L 54.390625 8.296875 
L 54.390625 0 
L 12.40625 0 
z
" id="DejaVuSans-49"/>
       </defs>
       <use xlink:href="#DejaVuSans-49"/>
       <use x="63.623047" xlink:href="#DejaVuSans-48"/>
       <use x="127.246094" xlink:href="#DejaVuSans-48"/>
       <use x="190.869141" xlink:href="#DejaVuSans-48"/>
      </g>
     </g>
    </g>
    <g id="xtick_6">
     <g id="line2d_6">
      <g>
       <use style="stroke:#000000;stroke-width:0.8;" x="1078.251443" xlink:href="#mf0dbd3b633" y="768.96"/>
      </g>
     </g>
     <g id="text_6">
      <!-- 1250 -->
      <g transform="translate(1065.526443 783.558437)scale(0.1 -0.1)">
       <use xlink:href="#DejaVuSans-49"/>
       <use x="63.623047" xlink:href="#DejaVuSans-50"/>
       <use x="127.246094" xlink:href="#DejaVuSans-53"/>
       <use x="190.869141" xlink:href="#DejaVuSans-48"/>
      </g>
     </g>
    </g>
    <g id="xtick_7">
     <g id="line2d_7">
      <g>
       <use style="stroke:#000000;stroke-width:0.8;" x="1238.527187" xlink:href="#mf0dbd3b633" y="768.96"/>
      </g>
     </g>
     <g id="text_7">
      <!-- 1500 -->
      <g transform="translate(1225.802187 783.558437)scale(0.1 -0.1)">
       <use xlink:href="#DejaVuSans-49"/>
       <use x="63.623047" xlink:href="#DejaVuSans-53"/>
       <use x="127.246094" xlink:href="#DejaVuSans-48"/>
       <use x="190.869141" xlink:href="#DejaVuSans-48"/>
      </g>
     </g>
    </g>
    <g id="xtick_8">
     <g id="line2d_8">
      <g>
       <use style="stroke:#000000;stroke-width:0.8;" x="1398.80293" xlink:href="#mf0dbd3b633" y="768.96"/>
      </g>
     </g>
     <g id="text_8">
      <!-- 1750 -->
      <g transform="translate(1386.07793 783.558437)scale(0.1 -0.1)">
       <use xlink:href="#DejaVuSans-49"/>
       <use x="63.623047" xlink:href="#DejaVuSans-55"/>
       <use x="127.246094" xlink:href="#DejaVuSans-53"/>
       <use x="190.869141" xlink:href="#DejaVuSans-48"/>
      </g>
     </g>
    </g>
    <g id="text_9">
     <!-- Vector length -->
     <g transform="translate(852.139844 797.236562)scale(0.1 -0.1)">
      <defs>
       <path d="M 28.609375 0 
L 0.78125 72.90625 
L 11.078125 72.90625 
L 34.1875 11.53125 
L 57.328125 72.90625 
L 67.578125 72.90625 
L 39.796875 0 
z
" id="DejaVuSans-86"/>
       <path d="M 56.203125 29.59375 
L 56.203125 25.203125 
L 14.890625 25.203125 
Q 15.484375 15.921875 20.484375 11.0625 
Q 25.484375 6.203125 34.421875 6.203125 
Q 39.59375 6.203125 44.453125 7.46875 
Q 49.3125 8.734375 54.109375 11.28125 
L 54.109375 2.78125 
Q 49.265625 0.734375 44.1875 -0.34375 
Q 39.109375 -1.421875 33.890625 -1.421875 
Q 20.796875 -1.421875 13.15625 6.1875 
Q 5.515625 13.8125 5.515625 26.8125 
Q 5.515625 40.234375 12.765625 48.109375 
Q 20.015625 56 32.328125 56 
Q 43.359375 56 49.78125 48.890625 
Q 56.203125 41.796875 56.203125 29.59375 
z
M 47.21875 32.234375 
Q 47.125 39.59375 43.09375 43.984375 
Q 39.0625 48.390625 32.421875 48.390625 
Q 24.90625 48.390625 20.390625 44.140625 
Q 15.875 39.890625 15.1875 32.171875 
z
" id="DejaVuSans-101"/>
       <path d="M 48.78125 52.59375 
L 48.78125 44.1875 
Q 44.96875 46.296875 41.140625 47.34375 
Q 37.3125 48.390625 33.40625 48.390625 
Q 24.65625 48.390625 19.8125 42.84375 
Q 14.984375 37.3125 14.984375 27.296875 
Q 14.984375 17.28125 19.8125 11.734375 
Q 24.65625 6.203125 33.40625 6.203125 
Q 37.3125 6.203125 41.140625 7.25 
Q 44.96875 8.296875 48.78125 10.40625 
L 48.78125 2.09375 
Q 45.015625 0.34375 40.984375 -0.53125 
Q 36.96875 -1.421875 32.421875 -1.421875 
Q 20.0625 -1.421875 12.78125 6.34375 
Q 5.515625 14.109375 5.515625 27.296875 
Q 5.515625 40.671875 12.859375 48.328125 
Q 20.21875 56 33.015625 56 
Q 37.15625 56 41.109375 55.140625 
Q 45.0625 54.296875 48.78125 52.59375 
z
" id="DejaVuSans-99"/>
       <path d="M 18.3125 70.21875 
L 18.3125 54.6875 
L 36.8125 54.6875 
L 36.8125 47.703125 
L 18.3125 47.703125 
L 18.3125 18.015625 
Q 18.3125 11.328125 20.140625 9.421875 
Q 21.96875 7.515625 27.59375 7.515625 
L 36.8125 7.515625 
L 36.8125 0 
L 27.59375 0 
Q 17.1875 0 13.234375 3.875 
Q 9.28125 7.765625 9.28125 18.015625 
L 9.28125 47.703125 
L 2.6875 47.703125 
L 2.6875 54.6875 
L 9.28125 54.6875 
L 9.28125 70.21875 
z
" id="DejaVuSans-116"/>
       <path d="M 30.609375 48.390625 
Q 23.390625 48.390625 19.1875 42.75 
Q 14.984375 37.109375 14.984375 27.296875 
Q 14.984375 17.484375 19.15625 11.84375 
Q 23.34375 6.203125 30.609375 6.203125 
Q 37.796875 6.203125 41.984375 11.859375 
Q 46.1875 17.53125 46.1875 27.296875 
Q 46.1875 37.015625 41.984375 42.703125 
Q 37.796875 48.390625 30.609375 48.390625 
z
M 30.609375 56 
Q 42.328125 56 49.015625 48.375 
Q 55.71875 40.765625 55.71875 27.296875 
Q 55.71875 13.875 49.015625 6.21875 
Q 42.328125 -1.421875 30.609375 -1.421875 
Q 18.84375 -1.421875 12.171875 6.21875 
Q 5.515625 13.875 5.515625 27.296875 
Q 5.515625 40.765625 12.171875 48.375 
Q 18.84375 56 30.609375 56 
z
" id="DejaVuSans-111"/>
       <path d="M 41.109375 46.296875 
Q 39.59375 47.171875 37.8125 47.578125 
Q 36.03125 48 33.890625 48 
Q 26.265625 48 22.1875 43.046875 
Q 18.109375 38.09375 18.109375 28.8125 
L 18.109375 0 
L 9.078125 0 
L 9.078125 54.6875 
L 18.109375 54.6875 
L 18.109375 46.1875 
Q 20.953125 51.171875 25.484375 53.578125 
Q 30.03125 56 36.53125 56 
Q 37.453125 56 38.578125 55.875 
Q 39.703125 55.765625 41.0625 55.515625 
z
" id="DejaVuSans-114"/>
       <path id="DejaVuSans-32"/>
       <path d="M 9.421875 75.984375 
L 18.40625 75.984375 
L 18.40625 0 
L 9.421875 0 
z
" id="DejaVuSans-108"/>
       <path d="M 54.890625 33.015625 
L 54.890625 0 
L 45.90625 0 
L 45.90625 32.71875 
Q 45.90625 40.484375 42.875 44.328125 
Q 39.84375 48.1875 33.796875 48.1875 
Q 26.515625 48.1875 22.3125 43.546875 
Q 18.109375 38.921875 18.109375 30.90625 
L 18.109375 0 
L 9.078125 0 
L 9.078125 54.6875 
L 18.109375 54.6875 
L 18.109375 46.1875 
Q 21.34375 51.125 25.703125 53.5625 
Q 30.078125 56 35.796875 56 
Q 45.21875 56 50.046875 50.171875 
Q 54.890625 44.34375 54.890625 33.015625 
z
" id="DejaVuSans-110"/>
       <path d="M 45.40625 27.984375 
Q 45.40625 37.75 41.375 43.109375 
Q 37.359375 48.484375 30.078125 48.484375 
Q 22.859375 48.484375 18.828125 43.109375 
Q 14.796875 37.75 14.796875 27.984375 
Q 14.796875 18.265625 18.828125 12.890625 
Q 22.859375 7.515625 30.078125 7.515625 
Q 37.359375 7.515625 41.375 12.890625 
Q 45.40625 18.265625 45.40625 27.984375 
z
M 54.390625 6.78125 
Q 54.390625 -7.171875 48.1875 -13.984375 
Q 42 -20.796875 29.203125 -20.796875 
Q 24.46875 -20.796875 20.265625 -20.09375 
Q 16.0625 -19.390625 12.109375 -17.921875 
L 12.109375 -9.1875 
Q 16.0625 -11.328125 19.921875 -12.34375 
Q 23.78125 -13.375 27.78125 -13.375 
Q 36.625 -13.375 41.015625 -8.765625 
Q 45.40625 -4.15625 45.40625 5.171875 
L 45.40625 9.625 
Q 42.625 4.78125 38.28125 2.390625 
Q 33.9375 0 27.875 0 
Q 17.828125 0 11.671875 7.65625 
Q 5.515625 15.328125 5.515625 27.984375 
Q 5.515625 40.671875 11.671875 48.328125 
Q 17.828125 56 27.875 56 
Q 33.9375 56 38.28125 53.609375 
Q 42.625 51.21875 45.40625 46.390625 
L 45.40625 54.6875 
L 54.390625 54.6875 
z
" id="DejaVuSans-103"/>
       <path d="M 54.890625 33.015625 
L 54.890625 0 
L 45.90625 0 
L 45.90625 32.71875 
Q 45.90625 40.484375 42.875 44.328125 
Q 39.84375 48.1875 33.796875 48.1875 
Q 26.515625 48.1875 22.3125 43.546875 
Q 18.109375 38.921875 18.109375 30.90625 
L 18.109375 0 
L 9.078125 0 
L 9.078125 75.984375 
L 18.109375 75.984375 
L 18.109375 46.1875 
Q 21.34375 51.125 25.703125 53.5625 
Q 30.078125 56 35.796875 56 
Q 45.21875 56 50.046875 50.171875 
Q 54.890625 44.34375 54.890625 33.015625 
z
" id="DejaVuSans-104"/>
      </defs>
      <use xlink:href="#DejaVuSans-86"/>
      <use x="60.658203" xlink:href="#DejaVuSans-101"/>
      <use x="122.181641" xlink:href="#DejaVuSans-99"/>
      <use x="177.162109" xlink:href="#DejaVuSans-116"/>
      <use x="216.371094" xlink:href="#DejaVuSans-111"/>
      <use x="277.552734" xlink:href="#DejaVuSans-114"/>
      <use x="318.666016" xlink:href="#DejaVuSans-32"/>
      <use x="350.453125" xlink:href="#DejaVuSans-108"/>
      <use x="378.236328" xlink:href="#DejaVuSans-101"/>
      <use x="439.759766" xlink:href="#DejaVuSans-110"/>
      <use x="503.138672" xlink:href="#DejaVuSans-103"/>
      <use x="566.615234" xlink:href="#DejaVuSans-116"/>
      <use x="605.824219" xlink:href="#DejaVuSans-104"/>
     </g>
    </g>
   </g>
   <g id="matplotlib.axis_2">
    <g id="ytick_1">
     <g id="line2d_9">
      <defs>
       <path d="M 0 0 
L -3.5 0 
" id="m6003af6a57" style="stroke:#000000;stroke-width:0.8;"/>
      </defs>
      <g>
       <use style="stroke:#000000;stroke-width:0.8;" x="216" xlink:href="#m6003af6a57" y="737.84133"/>
      </g>
     </g>
     <g id="text_10">
      <!-- 0.0 -->
      <g transform="translate(193.096875 741.640548)scale(0.1 -0.1)">
       <defs>
        <path d="M 10.6875 12.40625 
L 21 12.40625 
L 21 0 
L 10.6875 0 
z
" id="DejaVuSans-46"/>
       </defs>
       <use xlink:href="#DejaVuSans-48"/>
       <use x="63.623047" xlink:href="#DejaVuSans-46"/>
       <use x="95.410156" xlink:href="#DejaVuSans-48"/>
      </g>
     </g>
    </g>
    <g id="ytick_2">
     <g id="line2d_10">
      <g>
       <use style="stroke:#000000;stroke-width:0.8;" x="216" xlink:href="#m6003af6a57" y="607.541451"/>
      </g>
     </g>
     <g id="text_11">
      <!-- 0.2 -->
      <g transform="translate(193.096875 611.340669)scale(0.1 -0.1)">
       <use xlink:href="#DejaVuSans-48"/>
       <use x="63.623047" xlink:href="#DejaVuSans-46"/>
       <use x="95.410156" xlink:href="#DejaVuSans-50"/>
      </g>
     </g>
    </g>
    <g id="ytick_3">
     <g id="line2d_11">
      <g>
       <use style="stroke:#000000;stroke-width:0.8;" x="216" xlink:href="#m6003af6a57" y="477.241572"/>
      </g>
     </g>
     <g id="text_12">
      <!-- 0.4 -->
      <g transform="translate(193.096875 481.04079)scale(0.1 -0.1)">
       <defs>
        <path d="M 37.796875 64.3125 
L 12.890625 25.390625 
L 37.796875 25.390625 
z
M 35.203125 72.90625 
L 47.609375 72.90625 
L 47.609375 25.390625 
L 58.015625 25.390625 
L 58.015625 17.1875 
L 47.609375 17.1875 
L 47.609375 0 
L 37.796875 0 
L 37.796875 17.1875 
L 4.890625 17.1875 
L 4.890625 26.703125 
z
" id="DejaVuSans-52"/>
       </defs>
       <use xlink:href="#DejaVuSans-48"/>
       <use x="63.623047" xlink:href="#DejaVuSans-46"/>
       <use x="95.410156" xlink:href="#DejaVuSans-52"/>
      </g>
     </g>
    </g>
    <g id="ytick_4">
     <g id="line2d_12">
      <g>
       <use style="stroke:#000000;stroke-width:0.8;" x="216" xlink:href="#m6003af6a57" y="346.941693"/>
      </g>
     </g>
     <g id="text_13">
      <!-- 0.6 -->
      <g transform="translate(193.096875 350.740911)scale(0.1 -0.1)">
       <defs>
        <path d="M 33.015625 40.375 
Q 26.375 40.375 22.484375 35.828125 
Q 18.609375 31.296875 18.609375 23.390625 
Q 18.609375 15.53125 22.484375 10.953125 
Q 26.375 6.390625 33.015625 6.390625 
Q 39.65625 6.390625 43.53125 10.953125 
Q 47.40625 15.53125 47.40625 23.390625 
Q 47.40625 31.296875 43.53125 35.828125 
Q 39.65625 40.375 33.015625 40.375 
z
M 52.59375 71.296875 
L 52.59375 62.3125 
Q 48.875 64.0625 45.09375 64.984375 
Q 41.3125 65.921875 37.59375 65.921875 
Q 27.828125 65.921875 22.671875 59.328125 
Q 17.53125 52.734375 16.796875 39.40625 
Q 19.671875 43.65625 24.015625 45.921875 
Q 28.375 48.1875 33.59375 48.1875 
Q 44.578125 48.1875 50.953125 41.515625 
Q 57.328125 34.859375 57.328125 23.390625 
Q 57.328125 12.15625 50.6875 5.359375 
Q 44.046875 -1.421875 33.015625 -1.421875 
Q 20.359375 -1.421875 13.671875 8.265625 
Q 6.984375 17.96875 6.984375 36.375 
Q 6.984375 53.65625 15.1875 63.9375 
Q 23.390625 74.21875 37.203125 74.21875 
Q 40.921875 74.21875 44.703125 73.484375 
Q 48.484375 72.75 52.59375 71.296875 
z
" id="DejaVuSans-54"/>
       </defs>
       <use xlink:href="#DejaVuSans-48"/>
       <use x="63.623047" xlink:href="#DejaVuSans-46"/>
       <use x="95.410156" xlink:href="#DejaVuSans-54"/>
      </g>
     </g>
    </g>
    <g id="ytick_5">
     <g id="line2d_13">
      <g>
       <use style="stroke:#000000;stroke-width:0.8;" x="216" xlink:href="#m6003af6a57" y="216.641813"/>
      </g>
     </g>
     <g id="text_14">
      <!-- 0.8 -->
      <g transform="translate(193.096875 220.441032)scale(0.1 -0.1)">
       <defs>
        <path d="M 31.78125 34.625 
Q 24.75 34.625 20.71875 30.859375 
Q 16.703125 27.09375 16.703125 20.515625 
Q 16.703125 13.921875 20.71875 10.15625 
Q 24.75 6.390625 31.78125 6.390625 
Q 38.8125 6.390625 42.859375 10.171875 
Q 46.921875 13.96875 46.921875 20.515625 
Q 46.921875 27.09375 42.890625 30.859375 
Q 38.875 34.625 31.78125 34.625 
z
M 21.921875 38.8125 
Q 15.578125 40.375 12.03125 44.71875 
Q 8.5 49.078125 8.5 55.328125 
Q 8.5 64.0625 14.71875 69.140625 
Q 20.953125 74.21875 31.78125 74.21875 
Q 42.671875 74.21875 48.875 69.140625 
Q 55.078125 64.0625 55.078125 55.328125 
Q 55.078125 49.078125 51.53125 44.71875 
Q 48 40.375 41.703125 38.8125 
Q 48.828125 37.15625 52.796875 32.3125 
Q 56.78125 27.484375 56.78125 20.515625 
Q 56.78125 9.90625 50.3125 4.234375 
Q 43.84375 -1.421875 31.78125 -1.421875 
Q 19.734375 -1.421875 13.25 4.234375 
Q 6.78125 9.90625 6.78125 20.515625 
Q 6.78125 27.484375 10.78125 32.3125 
Q 14.796875 37.15625 21.921875 38.8125 
z
M 18.3125 54.390625 
Q 18.3125 48.734375 21.84375 45.5625 
Q 25.390625 42.390625 31.78125 42.390625 
Q 38.140625 42.390625 41.71875 45.5625 
Q 45.3125 48.734375 45.3125 54.390625 
Q 45.3125 60.0625 41.71875 63.234375 
Q 38.140625 66.40625 31.78125 66.40625 
Q 25.390625 66.40625 21.84375 63.234375 
Q 18.3125 60.0625 18.3125 54.390625 
z
" id="DejaVuSans-56"/>
       </defs>
       <use xlink:href="#DejaVuSans-48"/>
       <use x="63.623047" xlink:href="#DejaVuSans-46"/>
       <use x="95.410156" xlink:href="#DejaVuSans-56"/>
      </g>
     </g>
    </g>
    <g id="text_15">
     <!-- Time, ms -->
     <g transform="translate(187.017188 459.206719)rotate(-90)scale(0.1 -0.1)">
      <defs>
       <path d="M -0.296875 72.90625 
L 61.375 72.90625 
L 61.375 64.59375 
L 35.5 64.59375 
L 35.5 0 
L 25.59375 0 
L 25.59375 64.59375 
L -0.296875 64.59375 
z
" id="DejaVuSans-84"/>
       <path d="M 9.421875 54.6875 
L 18.40625 54.6875 
L 18.40625 0 
L 9.421875 0 
z
M 9.421875 75.984375 
L 18.40625 75.984375 
L 18.40625 64.59375 
L 9.421875 64.59375 
z
" id="DejaVuSans-105"/>
       <path d="M 52 44.1875 
Q 55.375 50.25 60.0625 53.125 
Q 64.75 56 71.09375 56 
Q 79.640625 56 84.28125 50.015625 
Q 88.921875 44.046875 88.921875 33.015625 
L 88.921875 0 
L 79.890625 0 
L 79.890625 32.71875 
Q 79.890625 40.578125 77.09375 44.375 
Q 74.3125 48.1875 68.609375 48.1875 
Q 61.625 48.1875 57.5625 43.546875 
Q 53.515625 38.921875 53.515625 30.90625 
L 53.515625 0 
L 44.484375 0 
L 44.484375 32.71875 
Q 44.484375 40.625 41.703125 44.40625 
Q 38.921875 48.1875 33.109375 48.1875 
Q 26.21875 48.1875 22.15625 43.53125 
Q 18.109375 38.875 18.109375 30.90625 
L 18.109375 0 
L 9.078125 0 
L 9.078125 54.6875 
L 18.109375 54.6875 
L 18.109375 46.1875 
Q 21.1875 51.21875 25.484375 53.609375 
Q 29.78125 56 35.6875 56 
Q 41.65625 56 45.828125 52.96875 
Q 50 49.953125 52 44.1875 
z
" id="DejaVuSans-109"/>
       <path d="M 11.71875 12.40625 
L 22.015625 12.40625 
L 22.015625 4 
L 14.015625 -11.625 
L 7.71875 -11.625 
L 11.71875 4 
z
" id="DejaVuSans-44"/>
       <path d="M 44.28125 53.078125 
L 44.28125 44.578125 
Q 40.484375 46.53125 36.375 47.5 
Q 32.28125 48.484375 27.875 48.484375 
Q 21.1875 48.484375 17.84375 46.4375 
Q 14.5 44.390625 14.5 40.28125 
Q 14.5 37.15625 16.890625 35.375 
Q 19.28125 33.59375 26.515625 31.984375 
L 29.59375 31.296875 
Q 39.15625 29.25 43.1875 25.515625 
Q 47.21875 21.78125 47.21875 15.09375 
Q 47.21875 7.46875 41.1875 3.015625 
Q 35.15625 -1.421875 24.609375 -1.421875 
Q 20.21875 -1.421875 15.453125 -0.5625 
Q 10.6875 0.296875 5.421875 2 
L 5.421875 11.28125 
Q 10.40625 8.6875 15.234375 7.390625 
Q 20.0625 6.109375 24.8125 6.109375 
Q 31.15625 6.109375 34.5625 8.28125 
Q 37.984375 10.453125 37.984375 14.40625 
Q 37.984375 18.0625 35.515625 20.015625 
Q 33.0625 21.96875 24.703125 23.78125 
L 21.578125 24.515625 
Q 13.234375 26.265625 9.515625 29.90625 
Q 5.8125 33.546875 5.8125 39.890625 
Q 5.8125 47.609375 11.28125 51.796875 
Q 16.75 56 26.8125 56 
Q 31.78125 56 36.171875 55.265625 
Q 40.578125 54.546875 44.28125 53.078125 
z
" id="DejaVuSans-115"/>
      </defs>
      <use xlink:href="#DejaVuSans-84"/>
      <use x="57.958984" xlink:href="#DejaVuSans-105"/>
      <use x="85.742188" xlink:href="#DejaVuSans-109"/>
      <use x="183.154297" xlink:href="#DejaVuSans-101"/>
      <use x="244.677734" xlink:href="#DejaVuSans-44"/>
      <use x="276.464844" xlink:href="#DejaVuSans-32"/>
      <use x="308.251953" xlink:href="#DejaVuSans-109"/>
      <use x="405.664062" xlink:href="#DejaVuSans-115"/>
     </g>
    </g>
   </g>
   <g id="line2d_14">
    <path clip-path="url(#pbb099216f7)" d="M 276.872727 736.598693 
L 277.51383 737.220011 
L 278.154933 737.220011 
L 278.796036 736.443364 
L 279.437139 737.220011 
L 280.078242 736.443364 
L 280.719345 737.220011 
L 281.360448 737.064682 
L 282.001551 736.443364 
L 282.642654 736.443364 
L 283.283757 736.598693 
L 283.92486 736.443364 
L 284.565963 736.443364 
L 285.207066 735.822045 
L 285.848169 735.977375 
L 286.489272 735.822045 
L 287.130375 735.977375 
L 287.771478 735.977375 
L 288.412581 735.822045 
L 289.053684 735.822045 
L 289.694787 735.977375 
L 290.33589 735.977375 
L 290.976993 735.200727 
L 291.618096 735.977375 
L 292.259199 735.045398 
L 292.900302 735.200727 
L 294.182508 735.200727 
L 294.823611 734.579409 
L 295.464713 735.200727 
L 296.105816 734.734738 
L 296.746919 734.579409 
L 298.029125 734.579409 
L 298.670228 734.11342 
L 299.311331 733.802761 
L 299.952434 734.734738 
L 300.593537 733.958091 
L 301.23464 734.11342 
L 301.875743 734.11342 
L 302.516846 733.958091 
L 305.081258 733.958091 
L 305.722361 733.802761 
L 306.363464 733.336772 
L 307.004567 733.336772 
L 307.64567 732.560125 
L 308.286773 733.336772 
L 309.568979 733.336772 
L 310.210082 732.715454 
L 310.851185 732.404795 
L 311.492288 732.715454 
L 312.133391 732.094136 
L 312.774494 732.715454 
L 313.415597 731.938806 
L 314.0567 731.938806 
L 314.697803 732.094136 
L 315.338906 731.472818 
L 315.980009 732.094136 
L 316.621112 731.938806 
L 317.262215 731.317488 
L 317.903318 731.317488 
L 318.544421 731.162159 
L 319.185523 731.317488 
L 320.467729 731.317488 
L 321.108832 731.162159 
L 321.749935 731.317488 
L 322.391038 730.69617 
L 323.673244 730.69617 
L 324.314347 731.317488 
L 324.95545 730.69617 
L 325.596553 730.69617 
L 326.237656 730.074852 
L 326.878759 729.919522 
L 327.519862 729.919522 
L 328.160965 730.074852 
L 328.802068 729.919522 
L 329.443171 730.074852 
L 330.084274 730.074852 
L 330.725377 729.453533 
L 331.36648 730.230181 
L 332.007583 729.453533 
L 332.648686 729.298204 
L 334.571995 729.298204 
L 335.213098 728.676886 
L 335.854201 727.900238 
L 336.495304 728.832215 
L 337.136407 728.832215 
L 337.77751 728.676886 
L 338.418613 728.676886 
L 339.059716 728.055567 
L 339.700819 728.676886 
L 340.341922 728.832215 
L 340.983025 728.055567 
L 342.265231 728.055567 
L 342.906333 727.900238 
L 344.188539 728.210897 
L 344.829642 728.210897 
L 345.470745 726.191613 
L 346.111848 727.434249 
L 346.752951 727.434249 
L 347.394054 727.589579 
L 348.035157 727.589579 
L 348.67626 724.793647 
L 349.317363 726.96826 
L 349.958466 727.434249 
L 350.599569 717.027169 
L 351.240672 726.191613 
L 351.881775 726.036283 
L 352.522878 726.657601 
L 353.163981 726.657601 
L 353.805084 726.036283 
L 354.446187 726.036283 
L 355.08729 726.812931 
L 355.728393 726.036283 
L 356.369496 726.191613 
L 357.010599 725.880954 
L 357.651702 726.036283 
L 358.292805 725.259635 
L 358.933908 726.191613 
L 360.216114 724.793647 
L 360.857217 725.414965 
L 361.49832 725.570294 
L 362.139423 725.570294 
L 362.780526 724.793647 
L 363.421629 725.570294 
L 364.062732 724.793647 
L 365.344938 724.793647 
L 365.98604 724.638317 
L 366.627143 724.793647 
L 367.268246 724.793647 
L 367.909349 724.948976 
L 368.550452 724.172328 
L 371.755967 724.172328 
L 372.39707 723.55101 
L 373.038173 723.55101 
L 373.679276 723.395681 
L 374.320379 723.395681 
L 374.961482 722.774362 
L 375.602585 722.774362 
L 376.243688 718.425135 
L 376.884791 719.667771 
L 377.525894 722.153044 
L 378.166997 723.395681 
L 378.8081 722.774362 
L 379.449203 722.929692 
L 380.090306 722.929692 
L 380.731409 722.774362 
L 381.372512 722.308374 
L 382.013615 722.153044 
L 382.654718 722.929692 
L 383.295821 722.774362 
L 383.936924 722.153044 
L 384.578027 722.153044 
L 385.21913 722.308374 
L 385.860233 722.308374 
L 386.501336 722.463703 
L 387.783542 722.153044 
L 389.065748 720.910408 
L 389.70685 721.531726 
L 390.347953 721.065737 
L 390.989056 721.531726 
L 391.630159 720.910408 
L 392.271262 721.065737 
L 392.912365 719.667771 
L 393.553468 720.13376 
L 394.194571 718.891123 
L 394.835674 718.425135 
L 395.476777 720.289089 
L 396.11788 720.444419 
L 396.758983 720.444419 
L 397.400086 720.289089 
L 398.041189 714.231237 
L 398.682292 719.357112 
L 399.323395 719.667771 
L 399.964498 719.512442 
L 400.605601 719.667771 
L 401.246704 720.13376 
L 401.887807 719.667771 
L 402.52891 714.386566 
L 403.170013 716.871839 
L 403.811116 711.124645 
L 404.452219 718.269805 
L 405.093322 718.114476 
L 405.734425 718.269805 
L 406.375528 719.046453 
L 407.016631 718.269805 
L 407.657734 715.007884 
L 408.298837 718.269805 
L 408.93994 707.086077 
L 409.581043 717.648487 
L 410.222146 718.269805 
L 411.504352 718.269805 
L 412.145455 718.114476 
L 412.786558 718.269805 
L 413.42766 717.648487 
L 415.992072 717.648487 
L 416.633175 715.007884 
L 417.274278 717.803816 
L 417.915381 716.871839 
L 418.556484 717.027169 
L 419.197587 717.803816 
L 419.83869 716.871839 
L 420.479793 717.027169 
L 421.120896 717.027169 
L 421.761999 716.871839 
L 422.403102 716.40585 
L 423.044205 716.56118 
L 423.685308 717.027169 
L 424.326411 716.250521 
L 424.967514 716.40585 
L 425.608617 716.250521 
L 426.24972 716.250521 
L 426.890823 715.629203 
L 427.531926 715.784532 
L 428.173029 716.40585 
L 428.814132 715.784532 
L 429.455235 715.629203 
L 430.096338 715.163214 
L 430.737441 715.163214 
L 431.378544 715.629203 
L 432.019647 715.007884 
L 432.66075 703.979486 
L 433.301853 620.412182 
L 433.942956 638.8964 
L 434.584059 662.351163 
L 435.225162 680.524722 
L 435.866265 661.574516 
L 436.507368 712.522611 
L 437.14847 712.9886 
L 437.789573 713.765248 
L 438.430676 713.14393 
L 439.071779 712.9886 
L 439.712882 711.124645 
L 440.353985 713.609918 
L 440.995088 712.9886 
L 441.636191 710.503327 
L 442.277294 713.765248 
L 442.918397 710.503327 
L 443.5595 713.14393 
L 444.200603 713.920577 
L 444.841706 713.609918 
L 445.482809 713.609918 
L 446.123912 713.14393 
L 446.765015 712.522611 
L 447.406118 713.14393 
L 448.047221 711.124645 
L 448.688324 712.9886 
L 449.329427 712.522611 
L 449.97053 712.367282 
L 450.611633 712.367282 
L 451.252736 712.522611 
L 451.893839 712.522611 
L 452.534942 711.901293 
L 453.176045 711.745964 
L 453.817148 711.901293 
L 454.458251 712.522611 
L 455.099354 711.745964 
L 455.740457 711.901293 
L 456.38156 711.745964 
L 457.022663 707.862725 
L 457.663766 711.124645 
L 458.304869 710.969316 
L 459.587075 711.279975 
L 460.228178 710.503327 
L 460.86928 711.124645 
L 461.510383 711.124645 
L 462.792589 709.726679 
L 463.433692 705.99877 
L 464.074795 709.105361 
L 464.715898 710.037338 
L 465.357001 708.484043 
L 465.998104 709.726679 
L 466.639207 709.105361 
L 467.28031 687.048564 
L 467.921413 689.067848 
L 468.562516 682.388677 
L 469.203619 684.563291 
L 469.844722 705.377452 
L 470.485825 708.639372 
L 471.126928 709.105361 
L 471.768031 709.41602 
L 473.050237 709.105361 
L 473.69134 708.639372 
L 474.332443 708.484043 
L 474.973546 708.484043 
L 475.614649 707.707395 
L 476.255752 708.639372 
L 476.896855 707.862725 
L 477.537958 707.862725 
L 478.179061 708.018054 
L 478.820164 707.862725 
L 479.461267 707.241406 
L 480.10237 707.086077 
L 480.743473 705.99877 
L 481.384576 707.241406 
L 482.025679 707.086077 
L 482.666782 706.620088 
L 483.307885 707.241406 
L 483.948988 707.086077 
L 484.59009 703.358167 
L 485.231193 705.688111 
L 485.872296 707.241406 
L 486.513399 706.464759 
L 487.154502 706.620088 
L 487.795605 705.99877 
L 488.436708 706.775418 
L 489.077811 702.736849 
L 489.718914 700.562235 
L 490.360017 703.358167 
L 491.00112 703.358167 
L 491.642223 705.222122 
L 492.283326 702.115531 
L 493.565532 580.181826 
L 494.206635 653.186719 
L 495.488841 703.979486 
L 496.129944 703.979486 
L 496.771047 704.600804 
L 497.41215 703.979486 
L 498.053253 696.678996 
L 498.694356 704.600804 
L 499.335459 704.600804 
L 499.976562 703.358167 
L 500.617665 704.600804 
L 501.258768 704.756133 
L 501.899871 704.600804 
L 503.182077 703.358167 
L 503.82318 703.979486 
L 504.464283 699.940917 
L 505.105386 702.58152 
L 505.746489 702.115531 
L 506.387592 640.139036 
L 507.028695 649.769469 
L 507.669798 636.721786 
L 508.3109 689.533836 
L 508.952003 696.057678 
L 509.593106 694.970371 
L 510.234209 698.232292 
L 510.875312 698.698281 
L 511.516415 690.310484 
L 512.157518 701.494213 
L 512.798621 696.213008 
L 513.439724 698.85361 
L 514.080827 700.717565 
L 514.72193 700.717565 
L 516.004136 701.960201 
L 516.645239 700.872894 
L 517.927445 700.562235 
L 518.568548 701.338883 
L 519.209651 683.786643 
L 519.850754 642.158321 
L 520.491857 637.498434 
L 521.13296 695.43636 
L 521.774063 701.338883 
L 522.415166 700.562235 
L 523.056269 700.562235 
L 523.697372 700.251576 
L 524.338475 692.174439 
L 524.979578 700.251576 
L 525.620681 700.096247 
L 526.261784 699.474928 
L 526.902887 692.329769 
L 527.54399 698.698281 
L 528.185093 699.474928 
L 528.826196 699.474928 
L 529.467299 662.972482 
L 530.108402 669.496323 
L 530.749505 684.563291 
L 531.390607 694.659712 
L 532.03171 697.610974 
L 532.672813 688.912518 
L 533.313916 599.132033 
L 533.955019 662.040504 
L 534.596122 694.815042 
L 535.237225 694.815042 
L 535.878328 698.232292 
L 536.519431 698.232292 
L 537.801637 697.921633 
L 538.44274 692.951087 
L 539.083843 697.921633 
L 539.724946 697.921633 
L 540.366049 698.076962 
L 541.007152 697.921633 
L 541.648255 698.232292 
L 542.289358 697.455644 
L 544.212667 697.455644 
L 544.85377 692.795757 
L 545.494873 693.572405 
L 546.135976 692.795757 
L 546.777079 693.572405 
L 547.418182 695.43636 
L 548.059285 695.43636 
L 548.700388 696.213008 
L 549.341491 692.795757 
L 549.982594 692.795757 
L 550.623697 686.893234 
L 551.2648 686.427245 
L 551.905903 687.048564 
L 552.547006 696.213008 
L 553.188109 695.43636 
L 556.393623 695.43636 
L 557.034726 695.591689 
L 557.675829 695.43636 
L 558.316932 694.970371 
L 558.958035 694.349053 
L 559.599138 694.193723 
L 560.240241 689.689166 
L 560.881344 692.951087 
L 561.522447 693.572405 
L 562.16355 685.805927 
L 562.804653 686.427245 
L 563.445756 689.533836 
L 564.086859 694.193723 
L 564.727962 694.038394 
L 565.369065 694.038394 
L 566.010168 690.931803 
L 566.651271 694.193723 
L 567.292374 694.193723 
L 567.933477 693.572405 
L 568.57458 693.572405 
L 569.215683 692.795757 
L 569.856786 693.417075 
L 570.497889 693.727735 
L 571.138992 693.572405 
L 571.780095 692.795757 
L 572.421198 692.795757 
L 573.062301 692.951087 
L 573.703404 692.174439 
L 574.344507 691.70845 
L 574.98561 692.329769 
L 575.626713 669.496323 
L 576.267816 687.048564 
L 576.908919 691.553121 
L 577.550022 679.282086 
L 578.191125 687.669882 
L 578.832227 687.048564 
L 579.47333 691.087132 
L 580.114433 690.776473 
L 580.755536 691.70845 
L 581.396639 690.931803 
L 582.037742 688.912518 
L 582.678845 690.931803 
L 583.319948 690.310484 
L 583.961051 686.271916 
L 584.602154 690.310484 
L 585.243257 690.776473 
L 585.88436 690.931803 
L 586.525463 687.048564 
L 587.166566 690.310484 
L 587.807669 681.30137 
L 588.448772 681.30137 
L 589.089875 687.514552 
L 589.730978 691.087132 
L 590.372081 690.310484 
L 591.013184 690.931803 
L 591.654287 690.931803 
L 592.29539 685.805927 
L 592.936493 689.999825 
L 593.577596 690.310484 
L 594.218699 690.776473 
L 594.859802 690.310484 
L 595.500905 689.689166 
L 596.142008 691.553121 
L 596.783111 691.087132 
L 597.424214 689.689166 
L 598.065317 668.098357 
L 598.70642 666.389732 
L 599.347523 683.165325 
L 599.988626 670.117641 
L 601.270832 689.533836 
L 601.911935 679.126756 
L 602.553037 690.310484 
L 603.19414 662.972482 
L 603.835243 692.329769 
L 604.476346 692.174439 
L 605.117449 644.643594 
L 605.758552 674.00088 
L 606.399655 672.602914 
L 607.040758 688.2912 
L 607.681861 678.039449 
L 608.322964 688.2912 
L 608.964067 689.378507 
L 609.60517 677.418131 
L 610.246273 660.331879 
L 610.887376 674.622199 
L 611.528479 685.805927 
L 612.169582 687.825211 
L 612.810685 687.048564 
L 613.451788 687.048564 
L 614.092891 687.669882 
L 614.733994 686.893234 
L 615.375097 687.048564 
L 616.0162 686.893234 
L 616.657303 688.44653 
L 617.298406 644.177605 
L 617.939509 688.2912 
L 618.580612 688.44653 
L 619.221715 687.669882 
L 619.862818 687.669882 
L 620.503921 685.184609 
L 621.145024 687.048564 
L 621.786127 687.048564 
L 622.42723 686.271916 
L 623.068333 686.893234 
L 623.709436 677.418131 
L 624.350539 677.262801 
L 624.991642 685.029279 
L 625.632745 687.203893 
L 626.273847 686.427245 
L 626.91495 686.271916 
L 627.556053 686.427245 
L 628.197156 686.271916 
L 628.838259 680.990711 
L 629.479362 685.805927 
L 630.120465 685.805927 
L 630.761568 685.650597 
L 631.402671 683.786643 
L 632.043774 685.184609 
L 632.684877 685.805927 
L 633.32598 685.029279 
L 633.967083 684.87395 
L 634.608186 685.650597 
L 635.249289 683.165325 
L 635.890392 685.029279 
L 636.531495 685.184609 
L 637.172598 684.252631 
L 637.813701 685.184609 
L 638.454804 684.563291 
L 639.095907 684.563291 
L 639.73701 684.252631 
L 640.378113 683.165325 
L 641.019216 684.563291 
L 641.660319 683.631313 
L 642.301422 684.407961 
L 642.942525 684.407961 
L 643.583628 683.786643 
L 644.224731 683.631313 
L 644.865834 683.941972 
L 645.506937 683.786643 
L 646.14804 683.786643 
L 646.789143 679.126756 
L 647.430246 683.786643 
L 648.071349 681.14604 
L 648.712452 681.922688 
L 649.353555 681.14604 
L 649.994657 682.388677 
L 650.63576 683.009995 
L 651.276863 683.165325 
L 651.917966 682.544006 
L 652.559069 685.029279 
L 653.200172 685.029279 
L 653.841275 684.252631 
L 654.482378 684.407961 
L 655.123481 684.407961 
L 655.764584 685.184609 
L 656.405687 684.563291 
L 657.04679 684.252631 
L 657.687893 684.407961 
L 658.328996 681.14604 
L 658.970099 683.631313 
L 659.611202 683.786643 
L 660.252305 683.786643 
L 660.893408 681.14604 
L 661.534511 683.631313 
L 662.816717 683.941972 
L 663.45782 683.165325 
L 664.098923 683.165325 
L 664.740026 683.786643 
L 665.381129 682.544006 
L 666.022232 683.165325 
L 666.663335 682.544006 
L 667.304438 682.544006 
L 667.945541 683.165325 
L 668.586644 683.165325 
L 669.227747 682.544006 
L 669.86885 682.388677 
L 670.509953 682.544006 
L 671.151056 682.388677 
L 671.792159 681.767358 
L 673.074364 681.767358 
L 673.715467 681.922688 
L 674.35657 681.767358 
L 674.997673 680.058733 
L 675.638776 680.990711 
L 676.279879 681.30137 
L 676.920982 680.524722 
L 677.562085 681.14604 
L 678.844291 681.14604 
L 679.485394 682.544006 
L 680.126497 669.496323 
L 680.7676 673.379562 
L 681.408703 662.351163 
L 682.049806 637.032445 
L 682.690909 659.555231 
L 683.332012 675.864835 
L 683.973115 674.00088 
L 684.614218 660.953197 
L 685.255321 634.857831 
L 685.896424 676.020165 
L 686.537527 675.243517 
L 687.17863 677.262801 
L 687.819733 631.595911 
L 688.460836 660.331879 
L 689.101939 602.238624 
L 689.743042 590.433577 
L 690.384145 671.204948 
L 691.025248 649.148151 
L 691.666351 675.864835 
L 692.307454 676.641483 
L 692.948557 676.020165 
L 693.58966 675.864835 
L 694.230763 642.624309 
L 694.871866 671.204948 
L 695.512969 660.953197 
L 696.154072 640.760355 
L 696.795174 672.913574 
L 697.436277 670.73896 
L 698.07738 660.331879 
L 698.718483 671.360278 
L 699.359586 673.379562 
L 700.000689 670.73896 
L 700.641792 670.117641 
L 701.282895 670.117641 
L 701.923998 666.855721 
L 702.565101 637.498434 
L 703.206204 670.894289 
L 703.847307 670.894289 
L 704.48841 669.962312 
L 705.129513 669.962312 
L 705.770616 671.515608 
L 706.411719 667.477039 
L 707.052822 669.962312 
L 707.693925 671.360278 
L 708.335028 671.515608 
L 708.976131 671.515608 
L 709.617234 670.894289 
L 710.258337 670.73896 
L 710.89944 670.894289 
L 711.540543 670.73896 
L 712.181646 670.73896 
L 712.822749 670.117641 
L 713.463852 670.117641 
L 714.104955 662.195834 
L 714.746058 675.243517 
L 715.387161 675.243517 
L 716.028264 675.864835 
L 716.669367 627.868001 
L 717.31047 665.457755 
L 717.951573 647.905514 
L 718.592676 604.879226 
L 719.874882 651.788753 
L 720.515984 660.17655 
L 721.79819 637.653763 
L 722.439293 671.515608 
L 723.080396 671.981596 
L 723.721499 671.515608 
L 724.362602 670.894289 
L 725.003705 671.360278 
L 725.644808 671.515608 
L 726.285911 671.826267 
L 726.927014 668.098357 
L 727.568117 668.098357 
L 728.20922 664.991766 
L 728.850323 668.098357 
L 729.491426 668.098357 
L 730.132529 668.253687 
L 730.773632 668.098357 
L 732.055838 668.098357 
L 732.696941 667.477039 
L 733.338044 667.632369 
L 733.979147 662.972482 
L 734.62025 672.136926 
L 735.261353 672.602914 
L 735.902456 672.602914 
L 736.543559 671.981596 
L 737.184662 672.758244 
L 737.825765 671.981596 
L 738.466868 668.719675 
L 739.107971 671.981596 
L 739.749074 669.185664 
L 740.390177 579.560508 
L 741.03128 656.137981 
L 741.672383 669.496323 
L 742.313486 668.719675 
L 742.954589 669.185664 
L 743.595692 618.703557 
L 744.236794 667.01105 
L 744.877897 645.420241 
L 745.519 664.215118 
L 746.160103 628.33399 
L 746.801206 667.477039 
L 747.442309 668.098357 
L 750.006721 668.098357 
L 750.647824 667.477039 
L 751.288927 640.760355 
L 751.93003 666.234402 
L 752.571133 606.121863 
L 753.212236 662.195834 
L 753.853339 664.991766 
L 754.494442 666.855721 
L 755.135545 664.370448 
L 755.776648 666.855721 
L 756.417751 666.855721 
L 757.058854 666.079073 
L 757.699957 666.079073 
L 758.34106 666.855721 
L 758.982163 666.234402 
L 759.623266 666.389732 
L 760.264369 666.389732 
L 760.905472 666.855721 
L 761.546575 666.234402 
L 762.187678 666.855721 
L 762.828781 665.613084 
L 763.469884 666.234402 
L 764.110987 665.457755 
L 764.75209 666.079073 
L 765.393193 665.613084 
L 766.034296 665.457755 
L 766.675399 665.613084 
L 767.957604 665.613084 
L 768.598707 637.343104 
L 769.23981 665.613084 
L 769.880913 662.351163 
L 770.522016 664.059789 
L 771.163119 664.215118 
L 771.804222 664.215118 
L 772.445325 664.059789 
L 773.086428 664.370448 
L 773.727531 663.5938 
L 774.368634 664.215118 
L 775.009737 657.069958 
L 775.65084 661.729845 
L 776.291943 663.43847 
L 776.933046 666.234402 
L 777.574149 666.389732 
L 778.215252 666.855721 
L 778.856355 666.855721 
L 779.497458 666.079073 
L 780.138561 666.855721 
L 780.779664 666.079073 
L 781.420767 666.079073 
L 782.702973 659.555231 
L 783.344076 662.351163 
L 783.985179 662.351163 
L 784.626282 662.972482 
L 785.267385 662.195834 
L 785.908488 662.351163 
L 786.549591 662.195834 
L 787.190694 661.574516 
L 787.831797 662.351163 
L 788.4729 651.788753 
L 789.114003 664.836436 
L 789.755106 599.753351 
L 790.396209 664.059789 
L 791.037312 664.215118 
L 791.678414 664.836436 
L 792.96062 664.836436 
L 793.601723 664.991766 
L 794.242826 664.681107 
L 794.883929 664.991766 
L 795.525032 666.079073 
L 796.166135 666.389732 
L 796.807238 665.457755 
L 797.448341 652.565401 
L 798.089444 665.613084 
L 798.730547 665.613084 
L 799.37165 665.457755 
L 800.012753 664.991766 
L 800.653856 663.5938 
L 801.294959 665.457755 
L 801.936062 662.972482 
L 802.577165 663.43847 
L 803.218268 662.972482 
L 803.859371 661.729845 
L 804.500474 661.729845 
L 805.141577 659.555231 
L 805.78268 651.944083 
L 806.423783 661.729845 
L 807.064886 659.710561 
L 807.705989 661.574516 
L 808.347092 660.953197 
L 808.988195 660.953197 
L 809.629298 660.17655 
L 810.270401 653.808038 
L 810.911504 658.312595 
L 811.552607 658.933913 
L 812.19371 658.933913 
L 812.834813 658.312595 
L 813.475916 656.44864 
L 814.117019 660.331879 
L 814.758121 658.467924 
L 815.399224 647.905514 
L 816.040327 656.44864 
L 816.68143 656.44864 
L 817.322533 657.846606 
L 817.963636 657.846606 
L 818.604739 657.691277 
L 819.245842 657.691277 
L 819.886945 655.671992 
L 820.528048 657.846606 
L 821.810254 655.827322 
L 822.451357 576.453917 
L 823.09246 640.760355 
L 823.733563 662.351163 
L 824.374666 661.574516 
L 825.015769 662.351163 
L 825.656872 662.351163 
L 826.297975 660.17655 
L 826.939078 659.865891 
L 827.580181 660.331879 
L 828.221284 660.331879 
L 829.50349 589.967588 
L 830.144593 600.840658 
L 830.785696 621.965478 
L 831.426799 659.089243 
L 832.067902 639.362389 
L 832.709005 659.089243 
L 833.350108 658.933913 
L 833.991211 658.312595 
L 834.632314 659.089243 
L 835.273417 658.312595 
L 835.91452 654.429356 
L 836.555623 658.312595 
L 837.196726 658.312595 
L 837.837829 653.652708 
L 838.478931 657.846606 
L 839.120034 658.467924 
L 839.761137 657.691277 
L 840.40224 657.846606 
L 841.043343 657.846606 
L 841.684446 656.914629 
L 842.325549 656.914629 
L 842.966652 657.691277 
L 843.607755 655.050674 
L 844.248858 588.569622 
L 844.889961 652.410072 
L 845.531064 570.396064 
L 846.81327 657.069958 
L 847.454373 656.293311 
L 848.095476 657.069958 
L 848.736579 656.44864 
L 849.377682 657.225288 
L 850.018785 652.410072 
L 850.659888 652.565401 
L 851.300991 652.565401 
L 851.942094 613.422352 
L 852.583197 651.788753 
L 853.2243 651.788753 
L 853.865403 598.976703 
L 854.506506 648.526833 
L 855.147609 649.30348 
L 855.788712 627.091353 
L 856.429815 648.526833 
L 857.070918 651.012106 
L 857.712021 647.284196 
L 858.353124 649.148151 
L 858.994227 419.415731 
L 859.63533 625.848717 
L 860.276433 646.662878 
L 860.917536 646.507548 
L 862.199741 646.507548 
L 862.840844 647.284196 
L 863.481947 641.381673 
L 864.12305 645.88623 
L 864.764153 646.507548 
L 865.405256 645.264912 
L 866.046359 653.808038 
L 866.687462 654.429356 
L 867.328565 653.808038 
L 867.969668 619.324875 
L 868.610771 648.526833 
L 869.251874 651.167435 
L 869.892977 651.322765 
L 870.53408 653.03139 
L 871.175183 649.30348 
L 872.457389 649.30348 
L 873.098492 649.769469 
L 873.739595 649.30348 
L 874.380698 649.148151 
L 875.021801 648.682162 
L 875.662904 649.148151 
L 876.304007 649.30348 
L 876.94511 652.410072 
L 877.586213 652.720731 
L 878.227316 554.707778 
L 878.868419 651.788753 
L 879.509522 652.565401 
L 880.150625 651.944083 
L 880.791728 651.788753 
L 881.432831 651.944083 
L 882.073934 651.788753 
L 882.715037 651.788753 
L 883.35614 651.944083 
L 883.997243 635.013161 
L 884.638346 651.012106 
L 885.279449 627.557342 
L 885.920551 651.167435 
L 886.561654 605.500544 
L 887.202757 599.753351 
L 887.84386 646.818207 
L 888.484963 646.662878 
L 889.126066 646.662878 
L 889.767169 646.818207 
L 890.408272 646.662878 
L 891.049375 644.022275 
L 891.690478 646.507548 
L 892.331581 646.507548 
L 892.972684 617.150261 
L 893.613787 619.324875 
L 894.25489 647.284196 
L 894.895993 649.30348 
L 895.537096 649.769469 
L 896.178199 649.30348 
L 896.819302 620.722841 
L 897.460405 649.30348 
L 898.101508 589.812259 
L 898.742611 645.420241 
L 899.383714 645.264912 
L 900.024817 645.264912 
L 900.66592 644.798923 
L 901.307023 644.643594 
L 901.948126 644.643594 
L 902.589229 644.798923 
L 903.230332 644.022275 
L 903.871435 648.526833 
L 904.512538 648.682162 
L 905.153641 648.526833 
L 905.794744 625.848717 
L 906.435847 648.060844 
L 907.07695 624.450751 
L 907.718053 606.277192 
L 908.359156 603.170601 
L 909.000259 641.381673 
L 909.641361 642.624309 
L 910.282464 640.139036 
L 910.923567 589.5016 
L 912.205773 640.760355 
L 912.846876 588.569622 
L 913.487979 642.779639 
L 914.129082 643.400957 
L 914.770185 642.779639 
L 915.411288 643.400957 
L 916.052391 643.400957 
L 916.693494 642.779639 
L 917.9757 642.779639 
L 918.616803 580.803144 
L 919.257906 643.245628 
L 919.899009 588.103634 
L 921.181215 644.643594 
L 921.822318 646.04156 
L 922.463421 645.264912 
L 923.104524 645.264912 
L 923.745627 645.420241 
L 924.38673 645.264912 
L 925.027833 642.158321 
L 925.668936 644.643594 
L 926.310039 645.420241 
L 926.951142 645.420241 
L 927.592245 645.264912 
L 928.233348 645.264912 
L 928.874451 644.643594 
L 929.515554 644.798923 
L 930.156657 644.643594 
L 930.79776 644.798923 
L 931.438863 644.798923 
L 932.079966 644.643594 
L 932.721069 644.643594 
L 933.362171 634.857831 
L 934.003274 644.643594 
L 934.644377 644.798923 
L 935.28548 644.022275 
L 935.926583 642.779639 
L 936.567686 615.907625 
L 937.208789 644.177605 
L 937.849892 644.177605 
L 938.490995 643.866946 
L 939.132098 643.245628 
L 939.773201 645.264912 
L 940.414304 645.88623 
L 941.055407 641.847662 
L 941.69651 644.643594 
L 942.337613 644.643594 
L 942.978716 644.798923 
L 943.619819 645.264912 
L 944.260922 645.264912 
L 944.902025 643.400957 
L 945.543128 639.362389 
L 946.184231 642.779639 
L 947.466437 642.779639 
L 948.10754 642.002991 
L 948.748643 641.847662 
L 949.389746 642.002991 
L 950.030849 644.643594 
L 950.671952 644.177605 
L 951.954158 644.177605 
L 952.595261 615.441636 
L 953.236364 635.32382 
L 953.877467 626.470035 
L 954.51857 637.032445 
L 955.159673 637.032445 
L 955.800776 636.877116 
L 957.082981 636.877116 
L 957.724084 636.100468 
L 958.365187 636.255797 
L 959.00629 632.527888 
L 959.647393 640.760355 
L 960.288496 640.139036 
L 961.570702 640.139036 
L 962.211805 640.760355 
L 962.852908 640.139036 
L 963.494011 640.760355 
L 964.135114 639.517718 
L 964.776217 640.139036 
L 965.41732 639.517718 
L 966.058423 639.362389 
L 966.699526 617.460921 
L 967.340629 640.139036 
L 967.981732 639.362389 
L 968.622835 639.517718 
L 969.263938 586.550338 
L 969.905041 639.362389 
L 970.546144 606.898511 
L 971.187247 639.362389 
L 971.82835 638.74107 
L 972.469453 638.8964 
L 973.110556 635.634479 
L 973.751659 638.74107 
L 974.392762 637.964423 
L 975.033865 638.74107 
L 976.316071 638.74107 
L 976.957174 638.275082 
L 977.598277 638.275082 
L 978.23938 599.598021 
L 978.880483 593.229509 
L 979.521586 561.386949 
L 980.162688 559.212336 
L 980.803791 637.498434 
L 981.444894 636.100468 
L 982.085997 615.907625 
L 982.7271 542.592073 
L 983.368203 578.93919 
L 984.009306 627.712672 
L 984.650409 630.974592 
L 985.291512 631.595911 
L 985.932615 632.372558 
L 986.573718 632.372558 
L 987.214821 626.470035 
L 987.855924 631.75124 
L 988.497027 631.595911 
L 989.13813 631.595911 
L 989.779233 631.75124 
L 990.420336 627.712672 
L 991.061439 631.595911 
L 991.702542 631.90657 
L 992.343645 631.595911 
L 992.984748 636.255797 
L 993.625851 635.634479 
L 996.190263 635.634479 
L 996.831366 635.32382 
L 997.472469 634.857831 
L 998.113572 635.013161 
L 998.754675 635.47915 
L 999.395778 635.013161 
L 1000.036881 632.838547 
L 1000.677984 634.857831 
L 1001.96019 634.857831 
L 1002.601293 637.032445 
L 1003.242396 636.100468 
L 1003.883498 637.032445 
L 1004.524601 636.877116 
L 1005.165704 633.615195 
L 1005.806807 636.255797 
L 1006.44791 635.47915 
L 1007.089013 635.47915 
L 1007.730116 602.859942 
L 1008.371219 578.317871 
L 1009.012322 635.47915 
L 1009.653425 635.47915 
L 1010.294528 634.857831 
L 1010.935631 635.634479 
L 1011.576734 635.013161 
L 1012.217837 632.838547 
L 1012.85894 632.993877 
L 1013.500043 632.993877 
L 1014.141146 631.595911 
L 1014.782249 632.838547 
L 1015.423352 633.149206 
L 1016.064455 619.946194 
L 1016.705558 624.450751 
L 1017.346661 634.857831 
L 1017.987764 634.236513 
L 1018.628867 632.372558 
L 1019.26997 631.129922 
L 1019.911073 633.615195 
L 1020.552176 633.459865 
L 1021.193279 630.508604 
L 1021.834382 597.734066 
L 1022.475485 633.615195 
L 1023.116588 621.18883 
L 1023.757691 633.615195 
L 1025.681 633.615195 
L 1026.322103 620.412182 
L 1026.963206 630.974592 
L 1027.604308 631.129922 
L 1028.245411 625.072069 
L 1028.886514 625.693387 
L 1029.527617 628.33399 
L 1030.16872 628.489319 
L 1030.809823 627.868001 
L 1031.450926 627.557342 
L 1032.092029 627.712672 
L 1032.733132 615.441636 
L 1033.374235 624.450751 
L 1034.015338 625.382728 
L 1034.656441 625.227399 
L 1035.297544 624.450751 
L 1035.938647 625.072069 
L 1036.57975 623.829433 
L 1037.220853 621.965478 
L 1037.861956 624.450751 
L 1038.503059 623.674103 
L 1039.144162 624.450751 
L 1039.785265 621.654819 
L 1040.426368 624.450751 
L 1041.067471 587.326986 
L 1041.708574 582.822429 
L 1042.349677 613.422352 
L 1042.99078 605.034556 
L 1043.631883 574.900621 
L 1044.272986 612.645704 
L 1044.914089 609.694443 
L 1045.555192 569.774746 
L 1046.196295 608.917795 
L 1046.837398 557.348381 
L 1047.478501 575.055951 
L 1048.119604 483.722169 
L 1048.760707 597.734066 
L 1049.40181 616.528943 
L 1050.042913 619.324875 
L 1050.684016 619.169546 
L 1051.325118 619.946194 
L 1051.966221 619.324875 
L 1052.607324 621.18883 
L 1053.248427 557.348381 
L 1053.88953 618.703557 
L 1054.530633 621.18883 
L 1055.171736 617.926909 
L 1055.812839 620.567512 
L 1056.453942 619.324875 
L 1057.095045 615.907625 
L 1057.736148 619.946194 
L 1058.377251 619.946194 
L 1059.018354 602.238624 
L 1059.659457 617.926909 
L 1060.30056 617.460921 
L 1060.941663 617.926909 
L 1062.223869 619.946194 
L 1064.788281 619.946194 
L 1065.429384 619.169546 
L 1066.070487 619.324875 
L 1066.71159 619.790864 
L 1067.352693 623.674103 
L 1067.993796 625.227399 
L 1068.634899 624.60608 
L 1069.276002 624.450751 
L 1069.917105 574.900621 
L 1070.558208 612.801034 
L 1071.199311 619.946194 
L 1071.840414 617.305591 
L 1072.481517 597.734066 
L 1073.12262 614.664989 
L 1073.763723 558.746347 
L 1074.404826 519.137309 
L 1075.045928 581.424463 
L 1075.687031 617.460921 
L 1076.328134 617.305591 
L 1076.969237 618.703557 
L 1077.61034 618.548228 
L 1078.251443 618.703557 
L 1078.892546 618.548228 
L 1079.533649 507.176933 
L 1080.174752 613.422352 
L 1080.815855 613.422352 
L 1081.456958 617.305591 
L 1082.098061 617.926909 
L 1082.739164 614.04367 
L 1083.380267 617.460921 
L 1084.02137 611.403068 
L 1084.662473 615.286307 
L 1085.303576 616.528943 
L 1085.944679 617.305591 
L 1086.585782 616.062955 
L 1087.226885 616.684273 
L 1087.867988 590.433577 
L 1088.509091 616.684273 
L 1089.150194 592.608191 
L 1089.791297 586.550338 
L 1090.4324 611.403068 
L 1091.073503 615.441636 
L 1091.714606 592.608191 
L 1092.355709 612.024386 
L 1092.996812 615.441636 
L 1093.637915 615.441636 
L 1094.279018 447.219723 
L 1094.920121 611.403068 
L 1095.561224 615.907625 
L 1096.84343 615.907625 
L 1097.484533 615.441636 
L 1098.125636 615.441636 
L 1098.766738 606.898511 
L 1099.407841 572.260019 
L 1100.048944 620.567512 
L 1100.690047 566.512825 
L 1101.33115 606.898511 
L 1101.972253 616.684273 
L 1102.613356 616.528943 
L 1103.254459 593.229509 
L 1103.895562 619.169546 
L 1104.536665 619.790864 
L 1105.177768 619.169546 
L 1105.818871 597.734066 
L 1106.459974 618.703557 
L 1107.101077 619.790864 
L 1107.74218 619.169546 
L 1108.383283 615.441636 
L 1109.024386 619.324875 
L 1109.665489 619.169546 
L 1110.306592 618.703557 
L 1110.947695 618.703557 
L 1111.588798 618.548228 
L 1112.229901 618.858887 
L 1112.871004 614.664989 
L 1113.512107 613.422352 
L 1114.15321 617.926909 
L 1116.076519 617.926909 
L 1116.717622 617.305591 
L 1117.358725 617.926909 
L 1117.999828 617.926909 
L 1118.640931 617.460921 
L 1119.282034 617.926909 
L 1119.923137 617.926909 
L 1120.56424 617.150261 
L 1121.205343 600.374669 
L 1121.846445 611.558397 
L 1122.487548 611.558397 
L 1123.128651 611.713727 
L 1123.769754 612.024386 
L 1124.410857 584.065065 
L 1125.05196 611.403068 
L 1125.693063 611.558397 
L 1126.334166 611.403068 
L 1127.616372 611.403068 
L 1128.257475 608.296477 
L 1128.898578 610.78175 
L 1130.180784 610.78175 
L 1130.821887 607.519829 
L 1131.46299 520.224616 
L 1132.104093 550.824539 
L 1132.745196 592.608191 
L 1133.386299 581.424463 
L 1134.027402 594.472146 
L 1134.668505 593.850827 
L 1135.309608 566.512825 
L 1135.950711 602.859942 
L 1136.591814 598.666044 
L 1137.87402 608.762465 
L 1138.515123 608.917795 
L 1139.156226 608.762465 
L 1139.797329 607.675158 
L 1140.438432 608.141147 
L 1141.079535 589.812259 
L 1141.720638 606.277192 
L 1142.361741 608.296477 
L 1143.002844 607.985817 
L 1143.643947 608.141147 
L 1144.28505 604.413238 
L 1144.926153 608.296477 
L 1145.567255 608.296477 
L 1146.208358 614.04367 
L 1146.849461 614.04367 
L 1147.490564 613.422352 
L 1148.131667 614.04367 
L 1148.77277 614.04367 
L 1149.413873 613.422352 
L 1150.054976 616.062955 
L 1150.696079 615.286307 
L 1151.337182 580.181826 
L 1151.978285 615.441636 
L 1152.619388 614.820318 
L 1153.260491 588.724952 
L 1153.901594 540.883447 
L 1154.542697 610.160431 
L 1155.1838 612.179716 
L 1155.824903 612.179716 
L 1156.466006 612.801034 
L 1157.107109 612.801034 
L 1158.389315 600.374669 
L 1159.030418 605.655874 
L 1159.671521 605.500544 
L 1160.312624 606.121863 
L 1160.953727 605.655874 
L 1161.59483 611.558397 
L 1162.235933 611.403068 
L 1162.877036 611.558397 
L 1163.518139 611.403068 
L 1164.159242 608.296477 
L 1164.800345 610.78175 
L 1165.441448 610.78175 
L 1166.082551 607.675158 
L 1166.723654 608.296477 
L 1167.364757 607.985817 
L 1168.00586 604.879226 
L 1168.646963 603.791919 
L 1169.288065 604.879226 
L 1169.929168 604.413238 
L 1170.570271 604.257908 
L 1171.211374 604.257908 
L 1171.852477 604.879226 
L 1172.49358 603.63659 
L 1173.134683 598.355385 
L 1173.775786 612.645704 
L 1174.416889 612.801034 
L 1175.699095 612.801034 
L 1176.340198 612.179716 
L 1176.981301 612.024386 
L 1177.622404 612.179716 
L 1178.263507 612.024386 
L 1178.90461 588.880282 
L 1179.545713 612.179716 
L 1180.186816 612.024386 
L 1180.827919 612.179716 
L 1181.469022 577.541224 
L 1182.110125 611.403068 
L 1182.751228 611.403068 
L 1183.392331 552.222505 
L 1184.033434 611.403068 
L 1184.674537 611.403068 
L 1185.31564 610.78175 
L 1185.956743 610.78175 
L 1186.597846 598.355385 
L 1187.238949 611.403068 
L 1187.880052 584.065065 
L 1188.521155 602.238624 
L 1189.162258 607.519829 
L 1189.803361 600.374669 
L 1190.444464 603.63659 
L 1191.085567 609.383783 
L 1191.72667 609.539113 
L 1192.367773 607.675158 
L 1193.008875 606.898511 
L 1193.649978 607.05384 
L 1194.291081 584.686383 
L 1194.932184 606.121863 
L 1195.573287 606.898511 
L 1196.21439 606.743181 
L 1197.496596 600.374669 
L 1198.137699 603.791919 
L 1198.778802 600.529999 
L 1199.419905 602.859942 
L 1200.061008 597.268078 
L 1200.702111 589.5016 
L 1201.343214 600.374669 
L 1201.984317 599.753351 
L 1202.62542 593.07418 
L 1203.266523 588.724952 
L 1203.907626 600.374669 
L 1204.548729 596.64676 
L 1205.189832 596.49143 
L 1205.830935 598.976703 
L 1206.472038 599.753351 
L 1207.113141 595.870112 
L 1207.754244 598.821373 
L 1208.395347 598.510714 
L 1209.03645 595.870112 
L 1209.677553 595.248794 
L 1210.318656 595.870112 
L 1210.959759 595.093464 
L 1211.600862 595.093464 
L 1212.241965 595.248794 
L 1212.883068 595.248794 
L 1213.524171 595.093464 
L 1214.165274 555.329097 
L 1214.806377 544.922016 
L 1215.44748 539.174822 
L 1216.088583 602.393953 
L 1216.729685 503.293694 
L 1217.370788 593.229509 
L 1218.011891 597.734066 
L 1218.652994 597.734066 
L 1219.294097 579.560508 
L 1219.9352 573.813314 
L 1220.576303 597.268078 
L 1221.217406 596.49143 
L 1221.858509 585.92902 
L 1222.499612 545.543334 
L 1223.140715 554.707778 
L 1223.781818 561.852938 
L 1224.422921 582.822429 
L 1225.064024 595.093464 
L 1225.705127 584.065065 
L 1226.34623 566.357495 
L 1226.987333 586.550338 
L 1227.628436 587.171656 
L 1228.269539 583.443747 
L 1228.910642 583.288417 
L 1229.551745 587.482315 
L 1230.192848 584.686383 
L 1230.833951 587.171656 
L 1231.475054 588.103634 
L 1232.116157 587.948304 
L 1232.75726 545.077346 
L 1233.398363 583.288417 
L 1234.039466 585.463031 
L 1234.680569 586.084349 
L 1235.321672 586.084349 
L 1235.962775 587.326986 
L 1236.603878 585.463031 
L 1237.244981 580.026497 
L 1237.886084 576.919905 
L 1238.527187 578.93919 
L 1239.16829 584.065065 
L 1239.809393 586.705668 
L 1240.450495 586.705668 
L 1241.091598 584.686383 
L 1241.732701 567.755461 
L 1242.373804 586.705668 
L 1243.014907 561.23162 
L 1243.65601 593.07418 
L 1244.297113 593.07418 
L 1244.938216 593.850827 
L 1245.579319 592.608191 
L 1246.220422 578.317871 
L 1246.861525 594.472146 
L 1247.502628 588.569622 
L 1248.143731 593.695498 
L 1248.784834 594.472146 
L 1249.425937 594.472146 
L 1250.06704 588.724952 
L 1250.708143 588.724952 
L 1251.349246 588.569622 
L 1252.631452 592.608191 
L 1253.272555 591.986873 
L 1253.913658 598.355385 
L 1254.554761 535.291583 
L 1255.195864 573.657985 
L 1255.836967 589.34627 
L 1256.47807 594.627475 
L 1257.119173 591.210225 
L 1257.760276 591.210225 
L 1258.401379 576.919905 
L 1259.042482 590.744236 
L 1259.683585 579.249849 
L 1260.324688 587.326986 
L 1260.965791 584.065065 
L 1261.606894 590.744236 
L 1262.247997 587.326986 
L 1262.8891 587.482315 
L 1263.530202 590.588907 
L 1264.171305 587.482315 
L 1264.812408 586.705668 
L 1265.453511 575.521939 
L 1266.094614 586.860997 
L 1266.735717 585.463031 
L 1267.37682 586.084349 
L 1268.017923 584.686383 
L 1268.659026 586.550338 
L 1269.300129 586.084349 
L 1269.941232 586.705668 
L 1270.582335 583.288417 
L 1271.223438 585.152372 
L 1271.864541 586.084349 
L 1272.505644 586.084349 
L 1273.146747 585.463031 
L 1273.78785 527.525105 
L 1274.428953 593.695498 
L 1275.070056 585.463031 
L 1275.711159 597.112748 
L 1276.352262 559.988983 
L 1276.993365 362.720442 
L 1277.634468 587.482315 
L 1278.275571 587.948304 
L 1278.916674 587.948304 
L 1279.557777 583.443747 
L 1280.19888 585.92902 
L 1280.839983 528.767742 
L 1281.481086 574.900621 
L 1282.122189 584.686383 
L 1282.763292 577.541224 
L 1283.404395 580.026497 
L 1284.045498 579.560508 
L 1284.686601 579.560508 
L 1285.327704 583.288417 
L 1285.968807 583.288417 
L 1286.60991 586.550338 
L 1287.251012 593.850827 
L 1287.892115 476.57701 
L 1288.533218 593.07418 
L 1289.174321 593.229509 
L 1289.815424 593.229509 
L 1290.456527 592.452861 
L 1291.09763 592.608191 
L 1291.738733 593.229509 
L 1292.379836 592.608191 
L 1293.662042 592.608191 
L 1294.303145 567.910791 
L 1294.944248 592.608191 
L 1295.585351 592.452861 
L 1296.867557 591.520884 
L 1297.50866 591.831543 
L 1298.149763 588.569622 
L 1298.790866 588.103634 
L 1299.431969 591.210225 
L 1300.073072 591.210225 
L 1300.714175 592.142202 
L 1301.355278 591.831543 
L 1301.996381 591.831543 
L 1302.637484 591.986873 
L 1303.278587 591.365555 
L 1303.91969 459.646088 
L 1304.560793 589.34627 
L 1305.201896 590.588907 
L 1305.842999 580.803144 
L 1306.484102 447.841041 
L 1307.125205 582.045781 
L 1307.766308 583.443747 
L 1308.407411 583.599076 
L 1309.048514 450.481643 
L 1309.689617 582.822429 
L 1310.33072 582.667099 
L 1310.971822 583.443747 
L 1311.612925 462.908008 
L 1312.254028 582.35644 
L 1312.895131 583.443747 
L 1314.177337 502.517046 
L 1314.81844 290.802856 
L 1315.459543 470.208498 
L 1316.100646 540.417459 
L 1316.741749 548.805255 
L 1317.382852 283.191707 
L 1318.023955 553.931131 
L 1318.665058 406.057389 
L 1319.306161 531.253015 
L 1319.947264 372.816863 
L 1320.588367 522.865218 
L 1321.22947 528.146424 
L 1321.870573 561.386949 
L 1322.511676 566.512825 
L 1323.152779 554.863108 
L 1323.793882 571.79403 
L 1324.434985 573.502655 
L 1325.076088 553.465142 
L 1325.717191 568.998098 
L 1326.358294 573.036666 
L 1326.999397 547.717948 
L 1327.6405 568.998098 
L 1328.281603 571.017382 
L 1328.922706 563.872222 
L 1329.563809 568.687439 
L 1330.204912 519.603298 
L 1330.846015 565.114859 
L 1331.487118 562.629586 
L 1332.128221 566.668154 
L 1332.769324 557.50371 
L 1333.410427 563.872222 
L 1334.05153 567.910791 
L 1334.692632 564.493541 
L 1335.333735 559.833654 
L 1335.974838 568.998098 
L 1336.615941 567.600132 
L 1337.257044 567.600132 
L 1337.898147 558.746347 
L 1338.53925 568.37678 
L 1339.180353 566.512825 
L 1339.821456 555.484426 
L 1340.462559 567.134143 
L 1341.103662 571.6387 
L 1341.744765 585.463031 
L 1342.385868 540.417459 
L 1343.026971 564.493541 
L 1343.668074 556.727063 
L 1344.309177 564.64887 
L 1344.95028 506.555615 
L 1345.591383 559.367665 
L 1346.873589 553.931131 
L 1347.514692 560.144313 
L 1348.155795 562.629586 
L 1348.796898 496.769852 
L 1349.438001 547.562619 
L 1350.079104 531.874333 
L 1351.36131 560.765631 
L 1352.002413 568.532109 
L 1352.643516 568.998098 
L 1353.284619 568.998098 
L 1353.925722 565.891507 
L 1354.566825 563.872222 
L 1355.849031 572.415348 
L 1356.490134 564.64887 
L 1357.131237 576.453917 
L 1357.77234 576.143258 
L 1358.413442 416.619799 
L 1359.054545 575.521939 
L 1359.695648 575.521939 
L 1360.336751 576.298587 
L 1360.977854 561.23162 
L 1361.618957 575.521939 
L 1362.26006 517.584013 
L 1362.901163 575.521939 
L 1363.542266 571.017382 
L 1364.183369 575.055951 
L 1364.824472 575.677269 
L 1365.465575 575.055951 
L 1366.106678 569.153427 
L 1366.747781 574.434632 
L 1367.388884 575.055951 
L 1368.029987 511.68149 
L 1368.67109 570.396064 
L 1369.312193 574.279303 
L 1369.953296 574.900621 
L 1370.594399 559.522995 
L 1371.235502 574.434632 
L 1371.876605 574.123973 
L 1372.517708 574.123973 
L 1373.158811 571.017382 
L 1373.799914 573.813314 
L 1374.441017 573.813314 
L 1375.08212 573.657985 
L 1375.723223 569.774746 
L 1376.364326 572.260019 
L 1377.005429 573.657985 
L 1377.646532 573.813314 
L 1378.287635 573.036666 
L 1379.569841 573.036666 
L 1380.210944 436.035994 
L 1380.852047 569.774746 
L 1381.49315 572.260019 
L 1382.134252 572.260019 
L 1382.775355 568.998098 
L 1383.416458 572.415348 
L 1384.057561 572.104689 
L 1384.698664 571.6387 
L 1385.339767 559.833654 
L 1385.98087 567.755461 
L 1386.621973 568.687439 
L 1387.263076 514.943411 
L 1387.904179 563.250904 
L 1388.545282 562.474256 
L 1389.186385 563.095575 
L 1390.468591 555.484426 
L 1391.109694 571.6387 
L 1391.750797 500.808421 
L 1392.3919 566.512825 
L 1393.033003 570.396064 
L 1393.674106 571.172712 
L 1394.315209 564.493541 
L 1394.956312 570.396064 
L 1395.597415 568.532109 
L 1396.238518 570.396064 
L 1396.879621 568.532109 
L 1397.520724 569.619416 
L 1398.161827 569.774746 
L 1398.80293 570.396064 
L 1399.444033 565.891507 
L 1400.085136 569.774746 
L 1400.726239 569.619416 
L 1401.367342 477.353657 
L 1402.008445 566.512825 
L 1402.649548 569.153427 
L 1403.290651 537.155538 
L 1403.931754 565.891507 
L 1404.572857 568.998098 
L 1405.21396 568.532109 
L 1405.855062 569.153427 
L 1406.496165 565.891507 
L 1407.137268 568.37678 
L 1407.778371 569.153427 
L 1408.419474 436.191324 
L 1409.060577 566.978814 
L 1409.70168 568.37678 
L 1410.342783 568.532109 
L 1410.983886 566.978814 
L 1411.624989 567.910791 
L 1412.266092 568.37678 
L 1412.907195 511.060172 
L 1413.548298 529.38906 
L 1414.189401 202.886325 
L 1414.830504 528.612412 
L 1415.471607 133.92 
L 1416.11271 490.246011 
L 1416.753813 468.810532 
L 1417.394916 550.203221 
L 1418.036019 205.682257 
L 1418.677122 544.300698 
L 1419.318225 546.9413 
L 1419.959328 553.465142 
L 1420.600431 554.707778 
L 1421.241534 557.348381 
L 1421.882637 558.125029 
L 1422.52374 556.727063 
L 1423.164843 557.969699 
L 1423.805946 554.707778 
L 1424.447049 552.067176 
L 1425.088152 557.348381 
L 1425.729255 550.979869 
L 1426.370358 552.688494 
L 1427.011461 555.484426 
L 1427.652564 557.50371 
L 1428.293667 561.386949 
L 1428.934769 552.222505 
L 1429.575872 564.493541 
L 1430.858078 565.891507 
L 1431.499181 561.852938 
L 1432.140284 564.338211 
L 1432.781387 565.114859 
L 1433.42249 563.872222 
L 1434.063593 571.6387 
L 1434.704696 549.426573 
L 1435.345799 566.357495 
L 1435.986902 571.6387 
L 1436.628005 496.148534 
L 1437.269108 470.053168 
L 1438.551314 542.902732 
L 1439.192417 495.527216 
L 1439.83352 557.348381 
L 1440.474623 563.250904 
L 1441.115726 563.250904 
L 1441.756829 563.872222 
L 1442.397932 563.095575 
L 1443.039035 564.027552 
L 1443.680138 563.872222 
L 1444.321241 563.872222 
L 1444.962344 563.250904 
L 1445.603447 563.872222 
L 1446.24455 563.250904 
L 1446.885653 563.250904 
L 1447.526756 570.396064 
L 1448.167859 565.891507 
L 1448.808962 569.153427 
L 1449.450065 569.774746 
L 1450.091168 550.979869 
L 1450.732271 569.774746 
L 1451.373374 569.153427 
L 1452.014477 569.774746 
L 1452.655579 569.619416 
L 1453.296682 569.774746 
L 1453.937785 564.64887 
L 1454.578888 483.722169 
L 1455.219991 572.415348 
L 1455.861094 572.415348 
L 1456.502197 568.532109 
L 1457.1433 569.153427 
L 1457.784403 569.153427 
L 1458.425506 494.12925 
L 1459.066609 569.153427 
L 1459.707712 568.998098 
L 1460.348815 567.600132 
L 1460.989918 557.969699 
L 1461.631021 568.532109 
L 1462.272124 565.270188 
L 1462.913227 568.687439 
L 1463.55433 545.543334 
L 1464.195433 567.600132 
L 1464.836536 567.755461 
L 1465.477639 486.98409 
L 1466.118742 505.157649 
L 1466.759845 566.512825 
L 1467.400948 558.591017 
L 1468.042051 485.586124 
L 1468.683154 555.484426 
L 1469.324257 522.2439 
L 1469.96536 474.713055 
L 1470.606463 557.348381 
L 1471.247566 553.931131 
L 1471.888669 557.969699 
L 1472.529772 559.833654 
L 1473.170875 558.591017 
L 1473.811978 527.369776 
L 1474.453081 557.348381 
L 1475.094184 558.125029 
L 1475.735287 565.891507 
L 1477.017492 565.891507 
L 1477.658595 566.512825 
L 1478.299698 565.891507 
L 1478.940801 566.512825 
L 1479.581904 565.891507 
L 1480.223007 561.852938 
L 1480.86411 549.426573 
L 1481.505213 562.163597 
L 1482.146316 557.969699 
L 1482.787419 557.50371 
L 1483.428522 546.475312 
L 1484.069625 556.727063 
L 1484.710728 557.50371 
L 1485.351831 545.698664 
L 1485.992934 553.309812 
L 1486.634037 556.727063 
L 1487.27514 543.058061 
L 1487.916243 552.688494 
L 1488.557346 548.183937 
L 1489.198449 533.893617 
L 1489.839552 354.798634 
L 1491.121758 546.9413 
L 1491.762861 525.505821 
L 1492.403964 555.018437 
L 1493.045067 552.222505 
L 1493.68617 554.08646 
L 1494.327273 555.329097 
L 1494.327273 555.329097 
" style="fill:none;stroke:#1f77b4;stroke-linecap:square;stroke-width:1.5;"/>
   </g>
   <g id="line2d_15">
    <path clip-path="url(#pbb099216f7)" d="M 276.872727 738.72 
L 1494.327273 540.020801 
L 1494.327273 540.020801 
" style="fill:none;stroke:#ff7f0e;stroke-linecap:square;stroke-width:1.5;"/>
   </g>
   <g id="patch_3">
    <path d="M 216 768.96 
L 216 103.68 
" style="fill:none;stroke:#000000;stroke-linecap:square;stroke-linejoin:miter;stroke-width:0.8;"/>
   </g>
   <g id="patch_4">
    <path d="M 1555.2 768.96 
L 1555.2 103.68 
" style="fill:none;stroke:#000000;stroke-linecap:square;stroke-linejoin:miter;stroke-width:0.8;"/>
   </g>
   <g id="patch_5">
    <path d="M 216 768.96 
L 1555.2 768.96 
" style="fill:none;stroke:#000000;stroke-linecap:square;stroke-linejoin:miter;stroke-width:0.8;"/>
   </g>
   <g id="patch_6">
    <path d="M 216 103.68 
L 1555.2 103.68 
" style="fill:none;stroke:#000000;stroke-linecap:square;stroke-linejoin:miter;stroke-width:0.8;"/>
   </g>
   <g id="legend_1">
    <g id="patch_7">
     <path d="M 1421.748437 141.03625 
L 1548.2 141.03625 
Q 1550.2 141.03625 1550.2 139.03625 
L 1550.2 110.68 
Q 1550.2 108.68 1548.2 108.68 
L 1421.748437 108.68 
Q 1419.748437 108.68 1419.748437 110.68 
L 1419.748437 139.03625 
Q 1419.748437 141.03625 1421.748437 141.03625 
z
" style="fill:#ffffff;opacity:0.8;stroke:#cccccc;stroke-linejoin:miter;"/>
    </g>
    <g id="line2d_16">
     <path d="M 1423.748437 116.778437 
L 1443.748437 116.778437 
" style="fill:none;stroke:#1f77b4;stroke-linecap:square;stroke-width:1.5;"/>
    </g>
    <g id="line2d_17"/>
    <g id="text_16">
     <!-- Experiment results -->
     <g transform="translate(1451.748437 120.278437)scale(0.1 -0.1)">
      <defs>
       <path d="M 9.8125 72.90625 
L 55.90625 72.90625 
L 55.90625 64.59375 
L 19.671875 64.59375 
L 19.671875 43.015625 
L 54.390625 43.015625 
L 54.390625 34.71875 
L 19.671875 34.71875 
L 19.671875 8.296875 
L 56.78125 8.296875 
L 56.78125 0 
L 9.8125 0 
z
" id="DejaVuSans-69"/>
       <path d="M 54.890625 54.6875 
L 35.109375 28.078125 
L 55.90625 0 
L 45.3125 0 
L 29.390625 21.484375 
L 13.484375 0 
L 2.875 0 
L 24.125 28.609375 
L 4.6875 54.6875 
L 15.28125 54.6875 
L 29.78125 35.203125 
L 44.28125 54.6875 
z
" id="DejaVuSans-120"/>
       <path d="M 18.109375 8.203125 
L 18.109375 -20.796875 
L 9.078125 -20.796875 
L 9.078125 54.6875 
L 18.109375 54.6875 
L 18.109375 46.390625 
Q 20.953125 51.265625 25.265625 53.625 
Q 29.59375 56 35.59375 56 
Q 45.5625 56 51.78125 48.09375 
Q 58.015625 40.1875 58.015625 27.296875 
Q 58.015625 14.40625 51.78125 6.484375 
Q 45.5625 -1.421875 35.59375 -1.421875 
Q 29.59375 -1.421875 25.265625 0.953125 
Q 20.953125 3.328125 18.109375 8.203125 
z
M 48.6875 27.296875 
Q 48.6875 37.203125 44.609375 42.84375 
Q 40.53125 48.484375 33.40625 48.484375 
Q 26.265625 48.484375 22.1875 42.84375 
Q 18.109375 37.203125 18.109375 27.296875 
Q 18.109375 17.390625 22.1875 11.75 
Q 26.265625 6.109375 33.40625 6.109375 
Q 40.53125 6.109375 44.609375 11.75 
Q 48.6875 17.390625 48.6875 27.296875 
z
" id="DejaVuSans-112"/>
       <path d="M 8.5 21.578125 
L 8.5 54.6875 
L 17.484375 54.6875 
L 17.484375 21.921875 
Q 17.484375 14.15625 20.5 10.265625 
Q 23.53125 6.390625 29.59375 6.390625 
Q 36.859375 6.390625 41.078125 11.03125 
Q 45.3125 15.671875 45.3125 23.6875 
L 45.3125 54.6875 
L 54.296875 54.6875 
L 54.296875 0 
L 45.3125 0 
L 45.3125 8.40625 
Q 42.046875 3.421875 37.71875 1 
Q 33.40625 -1.421875 27.6875 -1.421875 
Q 18.265625 -1.421875 13.375 4.4375 
Q 8.5 10.296875 8.5 21.578125 
z
M 31.109375 56 
z
" id="DejaVuSans-117"/>
      </defs>
      <use xlink:href="#DejaVuSans-69"/>
      <use x="63.183594" xlink:href="#DejaVuSans-120"/>
      <use x="122.363281" xlink:href="#DejaVuSans-112"/>
      <use x="185.839844" xlink:href="#DejaVuSans-101"/>
      <use x="247.363281" xlink:href="#DejaVuSans-114"/>
      <use x="288.476562" xlink:href="#DejaVuSans-105"/>
      <use x="316.259766" xlink:href="#DejaVuSans-109"/>
      <use x="413.671875" xlink:href="#DejaVuSans-101"/>
      <use x="475.195312" xlink:href="#DejaVuSans-110"/>
      <use x="538.574219" xlink:href="#DejaVuSans-116"/>
      <use x="577.783203" xlink:href="#DejaVuSans-32"/>
      <use x="609.570312" xlink:href="#DejaVuSans-114"/>
      <use x="648.433594" xlink:href="#DejaVuSans-101"/>
      <use x="709.957031" xlink:href="#DejaVuSans-115"/>
      <use x="762.056641" xlink:href="#DejaVuSans-117"/>
      <use x="825.435547" xlink:href="#DejaVuSans-108"/>
      <use x="853.21875" xlink:href="#DejaVuSans-116"/>
      <use x="892.427734" xlink:href="#DejaVuSans-115"/>
     </g>
    </g>
    <g id="line2d_18">
     <path d="M 1423.748437 131.456563 
L 1443.748437 131.456563 
" style="fill:none;stroke:#ff7f0e;stroke-linecap:square;stroke-width:1.5;"/>
    </g>
    <g id="line2d_19"/>
    <g id="text_17">
     <!-- Approximation -->
     <g transform="translate(1451.748437 134.956563)scale(0.1 -0.1)">
      <defs>
       <path d="M 34.1875 63.1875 
L 20.796875 26.90625 
L 47.609375 26.90625 
z
M 28.609375 72.90625 
L 39.796875 72.90625 
L 67.578125 0 
L 57.328125 0 
L 50.6875 18.703125 
L 17.828125 18.703125 
L 11.1875 0 
L 0.78125 0 
z
" id="DejaVuSans-65"/>
       <path d="M 34.28125 27.484375 
Q 23.390625 27.484375 19.1875 25 
Q 14.984375 22.515625 14.984375 16.5 
Q 14.984375 11.71875 18.140625 8.90625 
Q 21.296875 6.109375 26.703125 6.109375 
Q 34.1875 6.109375 38.703125 11.40625 
Q 43.21875 16.703125 43.21875 25.484375 
L 43.21875 27.484375 
z
M 52.203125 31.203125 
L 52.203125 0 
L 43.21875 0 
L 43.21875 8.296875 
Q 40.140625 3.328125 35.546875 0.953125 
Q 30.953125 -1.421875 24.3125 -1.421875 
Q 15.921875 -1.421875 10.953125 3.296875 
Q 6 8.015625 6 15.921875 
Q 6 25.140625 12.171875 29.828125 
Q 18.359375 34.515625 30.609375 34.515625 
L 43.21875 34.515625 
L 43.21875 35.40625 
Q 43.21875 41.609375 39.140625 45 
Q 35.0625 48.390625 27.6875 48.390625 
Q 23 48.390625 18.546875 47.265625 
Q 14.109375 46.140625 10.015625 43.890625 
L 10.015625 52.203125 
Q 14.9375 54.109375 19.578125 55.046875 
Q 24.21875 56 28.609375 56 
Q 40.484375 56 46.34375 49.84375 
Q 52.203125 43.703125 52.203125 31.203125 
z
" id="DejaVuSans-97"/>
      </defs>
      <use xlink:href="#DejaVuSans-65"/>
      <use x="68.408203" xlink:href="#DejaVuSans-112"/>
      <use x="131.884766" xlink:href="#DejaVuSans-112"/>
      <use x="195.361328" xlink:href="#DejaVuSans-114"/>
      <use x="234.224609" xlink:href="#DejaVuSans-111"/>
      <use x="292.28125" xlink:href="#DejaVuSans-120"/>
      <use x="351.460938" xlink:href="#DejaVuSans-105"/>
      <use x="379.244141" xlink:href="#DejaVuSans-109"/>
      <use x="476.65625" xlink:href="#DejaVuSans-97"/>
      <use x="537.935547" xlink:href="#DejaVuSans-116"/>
      <use x="577.144531" xlink:href="#DejaVuSans-105"/>
      <use x="604.927734" xlink:href="#DejaVuSans-111"/>
      <use x="666.109375" xlink:href="#DejaVuSans-110"/>
     </g>
    </g>
   </g>
  </g>
 </g>
 <defs>
  <clipPath id="pbb099216f7">
   <rect height="665.28" width="1339.2" x="216" y="103.68"/>
  </clipPath>
 </defs>
</svg>
