<?xml version="1.0" encoding="utf-8" standalone="no"?>
<!DOCTYPE svg PUBLIC "-//W3C//DTD SVG 1.1//EN"
  "http://www.w3.org/Graphics/SVG/1.1/DTD/svg11.dtd">
<!-- Created with matplotlib (https://matplotlib.org/) -->
<svg height="864pt" version="1.1" viewBox="0 0 1728 864" width="1728pt" xmlns="http://www.w3.org/2000/svg" xmlns:xlink="http://www.w3.org/1999/xlink">
 <metadata>
  <rdf:RDF xmlns:cc="http://creativecommons.org/ns#" xmlns:dc="http://purl.org/dc/elements/1.1/" xmlns:rdf="http://www.w3.org/1999/02/22-rdf-syntax-ns#">
   <cc:Work>
    <dc:type rdf:resource="http://purl.org/dc/dcmitype/StillImage"/>
    <dc:date>2020-09-14T17:05:13.406321</dc:date>
    <dc:format>image/svg+xml</dc:format>
    <dc:creator>
     <cc:Agent>
      <dc:title>Matplotlib v3.3.1, https://matplotlib.org/</dc:title>
     </cc:Agent>
    </dc:creator>
   </cc:Work>
  </rdf:RDF>
 </metadata>
 <defs>
  <style type="text/css">*{stroke-linecap:butt;stroke-linejoin:round;}</style>
 </defs>
 <g id="figure_1">
  <g id="patch_1">
   <path d="M 0 864 
L 1728 864 
L 1728 0 
L 0 0 
z
" style="fill:#ffffff;"/>
  </g>
  <g id="axes_1">
   <g id="patch_2">
    <path d="M 216 768.96 
L 1555.2 768.96 
L 1555.2 103.68 
L 216 103.68 
z
" style="fill:#ffffff;"/>
   </g>
   <g id="matplotlib.axis_1">
    <g id="xtick_1">
     <g id="line2d_1">
      <defs>
       <path d="M 0 0 
L 0 3.5 
" id="m5f94059eb4" style="stroke:#000000;stroke-width:0.8;"/>
      </defs>
      <g>
       <use style="stroke:#000000;stroke-width:0.8;" x="276.872727" xlink:href="#m5f94059eb4" y="768.96"/>
      </g>
     </g>
     <g id="text_1">
      <!-- 0 -->
      <g transform="translate(273.691477 783.558437)scale(0.1 -0.1)">
       <defs>
        <path d="M 31.78125 66.40625 
Q 24.171875 66.40625 20.328125 58.90625 
Q 16.5 51.421875 16.5 36.375 
Q 16.5 21.390625 20.328125 13.890625 
Q 24.171875 6.390625 31.78125 6.390625 
Q 39.453125 6.390625 43.28125 13.890625 
Q 47.125 21.390625 47.125 36.375 
Q 47.125 51.421875 43.28125 58.90625 
Q 39.453125 66.40625 31.78125 66.40625 
z
M 31.78125 74.21875 
Q 44.046875 74.21875 50.515625 64.515625 
Q 56.984375 54.828125 56.984375 36.375 
Q 56.984375 17.96875 50.515625 8.265625 
Q 44.046875 -1.421875 31.78125 -1.421875 
Q 19.53125 -1.421875 13.0625 8.265625 
Q 6.59375 17.96875 6.59375 36.375 
Q 6.59375 54.828125 13.0625 64.515625 
Q 19.53125 74.21875 31.78125 74.21875 
z
" id="DejaVuSans-48"/>
       </defs>
       <use xlink:href="#DejaVuSans-48"/>
      </g>
     </g>
    </g>
    <g id="xtick_2">
     <g id="line2d_2">
      <g>
       <use style="stroke:#000000;stroke-width:0.8;" x="429.130674" xlink:href="#m5f94059eb4" y="768.96"/>
      </g>
     </g>
     <g id="text_2">
      <!-- 250 -->
      <g transform="translate(419.586924 783.558437)scale(0.1 -0.1)">
       <defs>
        <path d="M 19.1875 8.296875 
L 53.609375 8.296875 
L 53.609375 0 
L 7.328125 0 
L 7.328125 8.296875 
Q 12.9375 14.109375 22.625 23.890625 
Q 32.328125 33.6875 34.8125 36.53125 
Q 39.546875 41.84375 41.421875 45.53125 
Q 43.3125 49.21875 43.3125 52.78125 
Q 43.3125 58.59375 39.234375 62.25 
Q 35.15625 65.921875 28.609375 65.921875 
Q 23.96875 65.921875 18.8125 64.3125 
Q 13.671875 62.703125 7.8125 59.421875 
L 7.8125 69.390625 
Q 13.765625 71.78125 18.9375 73 
Q 24.125 74.21875 28.421875 74.21875 
Q 39.75 74.21875 46.484375 68.546875 
Q 53.21875 62.890625 53.21875 53.421875 
Q 53.21875 48.921875 51.53125 44.890625 
Q 49.859375 40.875 45.40625 35.40625 
Q 44.1875 33.984375 37.640625 27.21875 
Q 31.109375 20.453125 19.1875 8.296875 
z
" id="DejaVuSans-50"/>
        <path d="M 10.796875 72.90625 
L 49.515625 72.90625 
L 49.515625 64.59375 
L 19.828125 64.59375 
L 19.828125 46.734375 
Q 21.96875 47.46875 24.109375 47.828125 
Q 26.265625 48.1875 28.421875 48.1875 
Q 40.625 48.1875 47.75 41.5 
Q 54.890625 34.8125 54.890625 23.390625 
Q 54.890625 11.625 47.5625 5.09375 
Q 40.234375 -1.421875 26.90625 -1.421875 
Q 22.3125 -1.421875 17.546875 -0.640625 
Q 12.796875 0.140625 7.71875 1.703125 
L 7.71875 11.625 
Q 12.109375 9.234375 16.796875 8.0625 
Q 21.484375 6.890625 26.703125 6.890625 
Q 35.15625 6.890625 40.078125 11.328125 
Q 45.015625 15.765625 45.015625 23.390625 
Q 45.015625 31 40.078125 35.4375 
Q 35.15625 39.890625 26.703125 39.890625 
Q 22.75 39.890625 18.8125 39.015625 
Q 14.890625 38.140625 10.796875 36.28125 
z
" id="DejaVuSans-53"/>
       </defs>
       <use xlink:href="#DejaVuSans-50"/>
       <use x="63.623047" xlink:href="#DejaVuSans-53"/>
       <use x="127.246094" xlink:href="#DejaVuSans-48"/>
      </g>
     </g>
    </g>
    <g id="xtick_3">
     <g id="line2d_3">
      <g>
       <use style="stroke:#000000;stroke-width:0.8;" x="581.388622" xlink:href="#m5f94059eb4" y="768.96"/>
      </g>
     </g>
     <g id="text_3">
      <!-- 500 -->
      <g transform="translate(571.844872 783.558437)scale(0.1 -0.1)">
       <use xlink:href="#DejaVuSans-53"/>
       <use x="63.623047" xlink:href="#DejaVuSans-48"/>
       <use x="127.246094" xlink:href="#DejaVuSans-48"/>
      </g>
     </g>
    </g>
    <g id="xtick_4">
     <g id="line2d_4">
      <g>
       <use style="stroke:#000000;stroke-width:0.8;" x="733.646569" xlink:href="#m5f94059eb4" y="768.96"/>
      </g>
     </g>
     <g id="text_4">
      <!-- 750 -->
      <g transform="translate(724.102819 783.558437)scale(0.1 -0.1)">
       <defs>
        <path d="M 8.203125 72.90625 
L 55.078125 72.90625 
L 55.078125 68.703125 
L 28.609375 0 
L 18.3125 0 
L 43.21875 64.59375 
L 8.203125 64.59375 
z
" id="DejaVuSans-55"/>
       </defs>
       <use xlink:href="#DejaVuSans-55"/>
       <use x="63.623047" xlink:href="#DejaVuSans-53"/>
       <use x="127.246094" xlink:href="#DejaVuSans-48"/>
      </g>
     </g>
    </g>
    <g id="xtick_5">
     <g id="line2d_5">
      <g>
       <use style="stroke:#000000;stroke-width:0.8;" x="885.904516" xlink:href="#m5f94059eb4" y="768.96"/>
      </g>
     </g>
     <g id="text_5">
      <!-- 1000 -->
      <g transform="translate(873.179516 783.558437)scale(0.1 -0.1)">
       <defs>
        <path d="M 12.40625 8.296875 
L 28.515625 8.296875 
L 28.515625 63.921875 
L 10.984375 60.40625 
L 10.984375 69.390625 
L 28.421875 72.90625 
L 38.28125 72.90625 
L 38.28125 8.296875 
L 54.390625 8.296875 
L 54.390625 0 
L 12.40625 0 
z
" id="DejaVuSans-49"/>
       </defs>
       <use xlink:href="#DejaVuSans-49"/>
       <use x="63.623047" xlink:href="#DejaVuSans-48"/>
       <use x="127.246094" xlink:href="#DejaVuSans-48"/>
       <use x="190.869141" xlink:href="#DejaVuSans-48"/>
      </g>
     </g>
    </g>
    <g id="xtick_6">
     <g id="line2d_6">
      <g>
       <use style="stroke:#000000;stroke-width:0.8;" x="1038.162463" xlink:href="#m5f94059eb4" y="768.96"/>
      </g>
     </g>
     <g id="text_6">
      <!-- 1250 -->
      <g transform="translate(1025.437463 783.558437)scale(0.1 -0.1)">
       <use xlink:href="#DejaVuSans-49"/>
       <use x="63.623047" xlink:href="#DejaVuSans-50"/>
       <use x="127.246094" xlink:href="#DejaVuSans-53"/>
       <use x="190.869141" xlink:href="#DejaVuSans-48"/>
      </g>
     </g>
    </g>
    <g id="xtick_7">
     <g id="line2d_7">
      <g>
       <use style="stroke:#000000;stroke-width:0.8;" x="1190.42041" xlink:href="#m5f94059eb4" y="768.96"/>
      </g>
     </g>
     <g id="text_7">
      <!-- 1500 -->
      <g transform="translate(1177.69541 783.558437)scale(0.1 -0.1)">
       <use xlink:href="#DejaVuSans-49"/>
       <use x="63.623047" xlink:href="#DejaVuSans-53"/>
       <use x="127.246094" xlink:href="#DejaVuSans-48"/>
       <use x="190.869141" xlink:href="#DejaVuSans-48"/>
      </g>
     </g>
    </g>
    <g id="xtick_8">
     <g id="line2d_8">
      <g>
       <use style="stroke:#000000;stroke-width:0.8;" x="1342.678357" xlink:href="#m5f94059eb4" y="768.96"/>
      </g>
     </g>
     <g id="text_8">
      <!-- 1750 -->
      <g transform="translate(1329.953357 783.558437)scale(0.1 -0.1)">
       <use xlink:href="#DejaVuSans-49"/>
       <use x="63.623047" xlink:href="#DejaVuSans-55"/>
       <use x="127.246094" xlink:href="#DejaVuSans-53"/>
       <use x="190.869141" xlink:href="#DejaVuSans-48"/>
      </g>
     </g>
    </g>
    <g id="xtick_9">
     <g id="line2d_9">
      <g>
       <use style="stroke:#000000;stroke-width:0.8;" x="1494.936305" xlink:href="#m5f94059eb4" y="768.96"/>
      </g>
     </g>
     <g id="text_9">
      <!-- 2000 -->
      <g transform="translate(1482.211305 783.558437)scale(0.1 -0.1)">
       <use xlink:href="#DejaVuSans-50"/>
       <use x="63.623047" xlink:href="#DejaVuSans-48"/>
       <use x="127.246094" xlink:href="#DejaVuSans-48"/>
       <use x="190.869141" xlink:href="#DejaVuSans-48"/>
      </g>
     </g>
    </g>
    <g id="text_10">
     <!-- Vector length -->
     <g transform="translate(852.139844 797.236562)scale(0.1 -0.1)">
      <defs>
       <path d="M 28.609375 0 
L 0.78125 72.90625 
L 11.078125 72.90625 
L 34.1875 11.53125 
L 57.328125 72.90625 
L 67.578125 72.90625 
L 39.796875 0 
z
" id="DejaVuSans-86"/>
       <path d="M 56.203125 29.59375 
L 56.203125 25.203125 
L 14.890625 25.203125 
Q 15.484375 15.921875 20.484375 11.0625 
Q 25.484375 6.203125 34.421875 6.203125 
Q 39.59375 6.203125 44.453125 7.46875 
Q 49.3125 8.734375 54.109375 11.28125 
L 54.109375 2.78125 
Q 49.265625 0.734375 44.1875 -0.34375 
Q 39.109375 -1.421875 33.890625 -1.421875 
Q 20.796875 -1.421875 13.15625 6.1875 
Q 5.515625 13.8125 5.515625 26.8125 
Q 5.515625 40.234375 12.765625 48.109375 
Q 20.015625 56 32.328125 56 
Q 43.359375 56 49.78125 48.890625 
Q 56.203125 41.796875 56.203125 29.59375 
z
M 47.21875 32.234375 
Q 47.125 39.59375 43.09375 43.984375 
Q 39.0625 48.390625 32.421875 48.390625 
Q 24.90625 48.390625 20.390625 44.140625 
Q 15.875 39.890625 15.1875 32.171875 
z
" id="DejaVuSans-101"/>
       <path d="M 48.78125 52.59375 
L 48.78125 44.1875 
Q 44.96875 46.296875 41.140625 47.34375 
Q 37.3125 48.390625 33.40625 48.390625 
Q 24.65625 48.390625 19.8125 42.84375 
Q 14.984375 37.3125 14.984375 27.296875 
Q 14.984375 17.28125 19.8125 11.734375 
Q 24.65625 6.203125 33.40625 6.203125 
Q 37.3125 6.203125 41.140625 7.25 
Q 44.96875 8.296875 48.78125 10.40625 
L 48.78125 2.09375 
Q 45.015625 0.34375 40.984375 -0.53125 
Q 36.96875 -1.421875 32.421875 -1.421875 
Q 20.0625 -1.421875 12.78125 6.34375 
Q 5.515625 14.109375 5.515625 27.296875 
Q 5.515625 40.671875 12.859375 48.328125 
Q 20.21875 56 33.015625 56 
Q 37.15625 56 41.109375 55.140625 
Q 45.0625 54.296875 48.78125 52.59375 
z
" id="DejaVuSans-99"/>
       <path d="M 18.3125 70.21875 
L 18.3125 54.6875 
L 36.8125 54.6875 
L 36.8125 47.703125 
L 18.3125 47.703125 
L 18.3125 18.015625 
Q 18.3125 11.328125 20.140625 9.421875 
Q 21.96875 7.515625 27.59375 7.515625 
L 36.8125 7.515625 
L 36.8125 0 
L 27.59375 0 
Q 17.1875 0 13.234375 3.875 
Q 9.28125 7.765625 9.28125 18.015625 
L 9.28125 47.703125 
L 2.6875 47.703125 
L 2.6875 54.6875 
L 9.28125 54.6875 
L 9.28125 70.21875 
z
" id="DejaVuSans-116"/>
       <path d="M 30.609375 48.390625 
Q 23.390625 48.390625 19.1875 42.75 
Q 14.984375 37.109375 14.984375 27.296875 
Q 14.984375 17.484375 19.15625 11.84375 
Q 23.34375 6.203125 30.609375 6.203125 
Q 37.796875 6.203125 41.984375 11.859375 
Q 46.1875 17.53125 46.1875 27.296875 
Q 46.1875 37.015625 41.984375 42.703125 
Q 37.796875 48.390625 30.609375 48.390625 
z
M 30.609375 56 
Q 42.328125 56 49.015625 48.375 
Q 55.71875 40.765625 55.71875 27.296875 
Q 55.71875 13.875 49.015625 6.21875 
Q 42.328125 -1.421875 30.609375 -1.421875 
Q 18.84375 -1.421875 12.171875 6.21875 
Q 5.515625 13.875 5.515625 27.296875 
Q 5.515625 40.765625 12.171875 48.375 
Q 18.84375 56 30.609375 56 
z
" id="DejaVuSans-111"/>
       <path d="M 41.109375 46.296875 
Q 39.59375 47.171875 37.8125 47.578125 
Q 36.03125 48 33.890625 48 
Q 26.265625 48 22.1875 43.046875 
Q 18.109375 38.09375 18.109375 28.8125 
L 18.109375 0 
L 9.078125 0 
L 9.078125 54.6875 
L 18.109375 54.6875 
L 18.109375 46.1875 
Q 20.953125 51.171875 25.484375 53.578125 
Q 30.03125 56 36.53125 56 
Q 37.453125 56 38.578125 55.875 
Q 39.703125 55.765625 41.0625 55.515625 
z
" id="DejaVuSans-114"/>
       <path id="DejaVuSans-32"/>
       <path d="M 9.421875 75.984375 
L 18.40625 75.984375 
L 18.40625 0 
L 9.421875 0 
z
" id="DejaVuSans-108"/>
       <path d="M 54.890625 33.015625 
L 54.890625 0 
L 45.90625 0 
L 45.90625 32.71875 
Q 45.90625 40.484375 42.875 44.328125 
Q 39.84375 48.1875 33.796875 48.1875 
Q 26.515625 48.1875 22.3125 43.546875 
Q 18.109375 38.921875 18.109375 30.90625 
L 18.109375 0 
L 9.078125 0 
L 9.078125 54.6875 
L 18.109375 54.6875 
L 18.109375 46.1875 
Q 21.34375 51.125 25.703125 53.5625 
Q 30.078125 56 35.796875 56 
Q 45.21875 56 50.046875 50.171875 
Q 54.890625 44.34375 54.890625 33.015625 
z
" id="DejaVuSans-110"/>
       <path d="M 45.40625 27.984375 
Q 45.40625 37.75 41.375 43.109375 
Q 37.359375 48.484375 30.078125 48.484375 
Q 22.859375 48.484375 18.828125 43.109375 
Q 14.796875 37.75 14.796875 27.984375 
Q 14.796875 18.265625 18.828125 12.890625 
Q 22.859375 7.515625 30.078125 7.515625 
Q 37.359375 7.515625 41.375 12.890625 
Q 45.40625 18.265625 45.40625 27.984375 
z
M 54.390625 6.78125 
Q 54.390625 -7.171875 48.1875 -13.984375 
Q 42 -20.796875 29.203125 -20.796875 
Q 24.46875 -20.796875 20.265625 -20.09375 
Q 16.0625 -19.390625 12.109375 -17.921875 
L 12.109375 -9.1875 
Q 16.0625 -11.328125 19.921875 -12.34375 
Q 23.78125 -13.375 27.78125 -13.375 
Q 36.625 -13.375 41.015625 -8.765625 
Q 45.40625 -4.15625 45.40625 5.171875 
L 45.40625 9.625 
Q 42.625 4.78125 38.28125 2.390625 
Q 33.9375 0 27.875 0 
Q 17.828125 0 11.671875 7.65625 
Q 5.515625 15.328125 5.515625 27.984375 
Q 5.515625 40.671875 11.671875 48.328125 
Q 17.828125 56 27.875 56 
Q 33.9375 56 38.28125 53.609375 
Q 42.625 51.21875 45.40625 46.390625 
L 45.40625 54.6875 
L 54.390625 54.6875 
z
" id="DejaVuSans-103"/>
       <path d="M 54.890625 33.015625 
L 54.890625 0 
L 45.90625 0 
L 45.90625 32.71875 
Q 45.90625 40.484375 42.875 44.328125 
Q 39.84375 48.1875 33.796875 48.1875 
Q 26.515625 48.1875 22.3125 43.546875 
Q 18.109375 38.921875 18.109375 30.90625 
L 18.109375 0 
L 9.078125 0 
L 9.078125 75.984375 
L 18.109375 75.984375 
L 18.109375 46.1875 
Q 21.34375 51.125 25.703125 53.5625 
Q 30.078125 56 35.796875 56 
Q 45.21875 56 50.046875 50.171875 
Q 54.890625 44.34375 54.890625 33.015625 
z
" id="DejaVuSans-104"/>
      </defs>
      <use xlink:href="#DejaVuSans-86"/>
      <use x="60.658203" xlink:href="#DejaVuSans-101"/>
      <use x="122.181641" xlink:href="#DejaVuSans-99"/>
      <use x="177.162109" xlink:href="#DejaVuSans-116"/>
      <use x="216.371094" xlink:href="#DejaVuSans-111"/>
      <use x="277.552734" xlink:href="#DejaVuSans-114"/>
      <use x="318.666016" xlink:href="#DejaVuSans-32"/>
      <use x="350.453125" xlink:href="#DejaVuSans-108"/>
      <use x="378.236328" xlink:href="#DejaVuSans-101"/>
      <use x="439.759766" xlink:href="#DejaVuSans-110"/>
      <use x="503.138672" xlink:href="#DejaVuSans-103"/>
      <use x="566.615234" xlink:href="#DejaVuSans-116"/>
      <use x="605.824219" xlink:href="#DejaVuSans-104"/>
     </g>
    </g>
   </g>
   <g id="matplotlib.axis_2">
    <g id="ytick_1">
     <g id="line2d_10">
      <defs>
       <path d="M 0 0 
L -3.5 0 
" id="m0e089b4991" style="stroke:#000000;stroke-width:0.8;"/>
      </defs>
      <g>
       <use style="stroke:#000000;stroke-width:0.8;" x="216" xlink:href="#m0e089b4991" y="738.72"/>
      </g>
     </g>
     <g id="text_11">
      <!-- 0.0000 -->
      <g transform="translate(174.009375 742.519219)scale(0.1 -0.1)">
       <defs>
        <path d="M 10.6875 12.40625 
L 21 12.40625 
L 21 0 
L 10.6875 0 
z
" id="DejaVuSans-46"/>
       </defs>
       <use xlink:href="#DejaVuSans-48"/>
       <use x="63.623047" xlink:href="#DejaVuSans-46"/>
       <use x="95.410156" xlink:href="#DejaVuSans-48"/>
       <use x="159.033203" xlink:href="#DejaVuSans-48"/>
       <use x="222.65625" xlink:href="#DejaVuSans-48"/>
       <use x="286.279297" xlink:href="#DejaVuSans-48"/>
      </g>
     </g>
    </g>
    <g id="ytick_2">
     <g id="line2d_11">
      <g>
       <use style="stroke:#000000;stroke-width:0.8;" x="216" xlink:href="#m0e089b4991" y="658.444207"/>
      </g>
     </g>
     <g id="text_12">
      <!-- 0.0025 -->
      <g transform="translate(174.009375 662.243426)scale(0.1 -0.1)">
       <use xlink:href="#DejaVuSans-48"/>
       <use x="63.623047" xlink:href="#DejaVuSans-46"/>
       <use x="95.410156" xlink:href="#DejaVuSans-48"/>
       <use x="159.033203" xlink:href="#DejaVuSans-48"/>
       <use x="222.65625" xlink:href="#DejaVuSans-50"/>
       <use x="286.279297" xlink:href="#DejaVuSans-53"/>
      </g>
     </g>
    </g>
    <g id="ytick_3">
     <g id="line2d_12">
      <g>
       <use style="stroke:#000000;stroke-width:0.8;" x="216" xlink:href="#m0e089b4991" y="578.168414"/>
      </g>
     </g>
     <g id="text_13">
      <!-- 0.0050 -->
      <g transform="translate(174.009375 581.967633)scale(0.1 -0.1)">
       <use xlink:href="#DejaVuSans-48"/>
       <use x="63.623047" xlink:href="#DejaVuSans-46"/>
       <use x="95.410156" xlink:href="#DejaVuSans-48"/>
       <use x="159.033203" xlink:href="#DejaVuSans-48"/>
       <use x="222.65625" xlink:href="#DejaVuSans-53"/>
       <use x="286.279297" xlink:href="#DejaVuSans-48"/>
      </g>
     </g>
    </g>
    <g id="ytick_4">
     <g id="line2d_13">
      <g>
       <use style="stroke:#000000;stroke-width:0.8;" x="216" xlink:href="#m0e089b4991" y="497.892621"/>
      </g>
     </g>
     <g id="text_14">
      <!-- 0.0075 -->
      <g transform="translate(174.009375 501.69184)scale(0.1 -0.1)">
       <use xlink:href="#DejaVuSans-48"/>
       <use x="63.623047" xlink:href="#DejaVuSans-46"/>
       <use x="95.410156" xlink:href="#DejaVuSans-48"/>
       <use x="159.033203" xlink:href="#DejaVuSans-48"/>
       <use x="222.65625" xlink:href="#DejaVuSans-55"/>
       <use x="286.279297" xlink:href="#DejaVuSans-53"/>
      </g>
     </g>
    </g>
    <g id="ytick_5">
     <g id="line2d_14">
      <g>
       <use style="stroke:#000000;stroke-width:0.8;" x="216" xlink:href="#m0e089b4991" y="417.616828"/>
      </g>
     </g>
     <g id="text_15">
      <!-- 0.0100 -->
      <g transform="translate(174.009375 421.416047)scale(0.1 -0.1)">
       <use xlink:href="#DejaVuSans-48"/>
       <use x="63.623047" xlink:href="#DejaVuSans-46"/>
       <use x="95.410156" xlink:href="#DejaVuSans-48"/>
       <use x="159.033203" xlink:href="#DejaVuSans-49"/>
       <use x="222.65625" xlink:href="#DejaVuSans-48"/>
       <use x="286.279297" xlink:href="#DejaVuSans-48"/>
      </g>
     </g>
    </g>
    <g id="ytick_6">
     <g id="line2d_15">
      <g>
       <use style="stroke:#000000;stroke-width:0.8;" x="216" xlink:href="#m0e089b4991" y="337.341035"/>
      </g>
     </g>
     <g id="text_16">
      <!-- 0.0125 -->
      <g transform="translate(174.009375 341.140254)scale(0.1 -0.1)">
       <use xlink:href="#DejaVuSans-48"/>
       <use x="63.623047" xlink:href="#DejaVuSans-46"/>
       <use x="95.410156" xlink:href="#DejaVuSans-48"/>
       <use x="159.033203" xlink:href="#DejaVuSans-49"/>
       <use x="222.65625" xlink:href="#DejaVuSans-50"/>
       <use x="286.279297" xlink:href="#DejaVuSans-53"/>
      </g>
     </g>
    </g>
    <g id="ytick_7">
     <g id="line2d_16">
      <g>
       <use style="stroke:#000000;stroke-width:0.8;" x="216" xlink:href="#m0e089b4991" y="257.065242"/>
      </g>
     </g>
     <g id="text_17">
      <!-- 0.0150 -->
      <g transform="translate(174.009375 260.864461)scale(0.1 -0.1)">
       <use xlink:href="#DejaVuSans-48"/>
       <use x="63.623047" xlink:href="#DejaVuSans-46"/>
       <use x="95.410156" xlink:href="#DejaVuSans-48"/>
       <use x="159.033203" xlink:href="#DejaVuSans-49"/>
       <use x="222.65625" xlink:href="#DejaVuSans-53"/>
       <use x="286.279297" xlink:href="#DejaVuSans-48"/>
      </g>
     </g>
    </g>
    <g id="ytick_8">
     <g id="line2d_17">
      <g>
       <use style="stroke:#000000;stroke-width:0.8;" x="216" xlink:href="#m0e089b4991" y="176.789449"/>
      </g>
     </g>
     <g id="text_18">
      <!-- 0.0175 -->
      <g transform="translate(174.009375 180.588668)scale(0.1 -0.1)">
       <use xlink:href="#DejaVuSans-48"/>
       <use x="63.623047" xlink:href="#DejaVuSans-46"/>
       <use x="95.410156" xlink:href="#DejaVuSans-48"/>
       <use x="159.033203" xlink:href="#DejaVuSans-49"/>
       <use x="222.65625" xlink:href="#DejaVuSans-55"/>
       <use x="286.279297" xlink:href="#DejaVuSans-53"/>
      </g>
     </g>
    </g>
    <g id="text_19">
     <!-- Time, ms -->
     <g transform="translate(167.929688 459.206719)rotate(-90)scale(0.1 -0.1)">
      <defs>
       <path d="M -0.296875 72.90625 
L 61.375 72.90625 
L 61.375 64.59375 
L 35.5 64.59375 
L 35.5 0 
L 25.59375 0 
L 25.59375 64.59375 
L -0.296875 64.59375 
z
" id="DejaVuSans-84"/>
       <path d="M 9.421875 54.6875 
L 18.40625 54.6875 
L 18.40625 0 
L 9.421875 0 
z
M 9.421875 75.984375 
L 18.40625 75.984375 
L 18.40625 64.59375 
L 9.421875 64.59375 
z
" id="DejaVuSans-105"/>
       <path d="M 52 44.1875 
Q 55.375 50.25 60.0625 53.125 
Q 64.75 56 71.09375 56 
Q 79.640625 56 84.28125 50.015625 
Q 88.921875 44.046875 88.921875 33.015625 
L 88.921875 0 
L 79.890625 0 
L 79.890625 32.71875 
Q 79.890625 40.578125 77.09375 44.375 
Q 74.3125 48.1875 68.609375 48.1875 
Q 61.625 48.1875 57.5625 43.546875 
Q 53.515625 38.921875 53.515625 30.90625 
L 53.515625 0 
L 44.484375 0 
L 44.484375 32.71875 
Q 44.484375 40.625 41.703125 44.40625 
Q 38.921875 48.1875 33.109375 48.1875 
Q 26.21875 48.1875 22.15625 43.53125 
Q 18.109375 38.875 18.109375 30.90625 
L 18.109375 0 
L 9.078125 0 
L 9.078125 54.6875 
L 18.109375 54.6875 
L 18.109375 46.1875 
Q 21.1875 51.21875 25.484375 53.609375 
Q 29.78125 56 35.6875 56 
Q 41.65625 56 45.828125 52.96875 
Q 50 49.953125 52 44.1875 
z
" id="DejaVuSans-109"/>
       <path d="M 11.71875 12.40625 
L 22.015625 12.40625 
L 22.015625 4 
L 14.015625 -11.625 
L 7.71875 -11.625 
L 11.71875 4 
z
" id="DejaVuSans-44"/>
       <path d="M 44.28125 53.078125 
L 44.28125 44.578125 
Q 40.484375 46.53125 36.375 47.5 
Q 32.28125 48.484375 27.875 48.484375 
Q 21.1875 48.484375 17.84375 46.4375 
Q 14.5 44.390625 14.5 40.28125 
Q 14.5 37.15625 16.890625 35.375 
Q 19.28125 33.59375 26.515625 31.984375 
L 29.59375 31.296875 
Q 39.15625 29.25 43.1875 25.515625 
Q 47.21875 21.78125 47.21875 15.09375 
Q 47.21875 7.46875 41.1875 3.015625 
Q 35.15625 -1.421875 24.609375 -1.421875 
Q 20.21875 -1.421875 15.453125 -0.5625 
Q 10.6875 0.296875 5.421875 2 
L 5.421875 11.28125 
Q 10.40625 8.6875 15.234375 7.390625 
Q 20.0625 6.109375 24.8125 6.109375 
Q 31.15625 6.109375 34.5625 8.28125 
Q 37.984375 10.453125 37.984375 14.40625 
Q 37.984375 18.0625 35.515625 20.015625 
Q 33.0625 21.96875 24.703125 23.78125 
L 21.578125 24.515625 
Q 13.234375 26.265625 9.515625 29.90625 
Q 5.8125 33.546875 5.8125 39.890625 
Q 5.8125 47.609375 11.28125 51.796875 
Q 16.75 56 26.8125 56 
Q 31.78125 56 36.171875 55.265625 
Q 40.578125 54.546875 44.28125 53.078125 
z
" id="DejaVuSans-115"/>
      </defs>
      <use xlink:href="#DejaVuSans-84"/>
      <use x="57.958984" xlink:href="#DejaVuSans-105"/>
      <use x="85.742188" xlink:href="#DejaVuSans-109"/>
      <use x="183.154297" xlink:href="#DejaVuSans-101"/>
      <use x="244.677734" xlink:href="#DejaVuSans-44"/>
      <use x="276.464844" xlink:href="#DejaVuSans-32"/>
      <use x="308.251953" xlink:href="#DejaVuSans-109"/>
      <use x="405.664062" xlink:href="#DejaVuSans-115"/>
     </g>
    </g>
   </g>
   <g id="line2d_18">
    <path clip-path="url(#pd7edbce6ea)" d="M 276.872727 700.441519 
L 277.481759 700.441519 
L 278.090791 738.72 
L 282.963045 738.72 
L 283.572077 708.097215 
L 284.181109 738.72 
L 292.098522 738.72 
L 292.707554 700.441519 
L 293.316586 738.72 
L 293.925617 708.097215 
L 294.534649 708.097215 
L 295.143681 738.72 
L 301.233999 738.72 
L 301.843031 708.097215 
L 302.452062 700.441519 
L 303.061094 738.72 
L 303.670126 700.441519 
L 304.279158 738.72 
L 304.88819 738.72 
L 305.497221 708.097215 
L 306.106253 738.72 
L 307.324317 738.72 
L 307.933348 715.752911 
L 308.54238 738.72 
L 312.196571 738.72 
L 312.805603 708.097215 
L 313.414635 738.72 
L 314.023666 738.72 
L 314.632698 700.441519 
L 315.24173 738.72 
L 317.677857 738.72 
L 318.286889 700.441519 
L 318.895921 738.72 
L 321.332048 738.72 
L 321.94108 708.097215 
L 322.550111 738.72 
L 327.422366 738.72 
L 328.031398 708.097215 
L 328.640429 738.72 
L 329.249461 700.441519 
L 329.858493 738.72 
L 331.685588 738.72 
L 332.29462 708.097215 
L 332.903652 738.72 
L 335.948811 738.72 
L 336.557843 708.097215 
L 337.166874 738.72 
L 337.775906 708.097215 
L 338.384938 738.72 
L 338.99397 738.72 
L 339.603002 700.441519 
L 340.212033 738.72 
L 340.821065 700.441519 
L 341.430097 738.72 
L 344.475256 738.72 
L 345.084288 700.441519 
L 345.693319 738.72 
L 346.911383 738.72 
L 347.520415 700.441519 
L 348.129447 738.72 
L 348.738478 708.097215 
L 349.34751 738.72 
L 349.956542 708.097215 
L 350.565574 738.72 
L 352.392669 738.72 
L 353.001701 708.097215 
L 353.610733 708.097215 
L 354.219764 738.72 
L 362.746209 738.72 
L 363.355241 708.097215 
L 363.964273 738.72 
L 364.573305 738.72 
L 365.182337 708.097215 
L 365.791368 738.72 
L 366.4004 708.097215 
L 367.009432 738.72 
L 371.881686 738.72 
L 372.490718 708.097215 
L 373.09975 738.72 
L 379.190068 738.72 
L 379.7991 715.752911 
L 380.408131 738.72 
L 382.844258 738.72 
L 383.45329 708.097215 
L 384.062322 738.72 
L 384.671354 738.72 
L 385.280386 708.097215 
L 385.889417 738.72 
L 390.15264 738.72 
L 390.761672 708.097215 
L 391.370704 738.72 
L 396.85199 738.72 
L 397.461021 708.097215 
L 398.070053 708.097215 
L 398.679085 738.72 
L 399.288117 708.097215 
L 399.897149 738.72 
L 400.50618 715.752911 
L 401.115212 738.72 
L 402.942308 738.72 
L 403.551339 700.441519 
L 404.160371 738.72 
L 405.378435 738.72 
L 405.987466 708.097215 
L 406.596498 738.72 
L 408.423594 738.72 
L 409.032625 700.441519 
L 409.641657 738.72 
L 410.250689 738.72 
L 410.859721 715.752911 
L 411.468753 738.72 
L 417.55907 738.72 
L 418.168102 708.097215 
L 418.777134 708.097215 
L 419.386166 738.72 
L 422.431325 738.72 
L 423.040357 708.097215 
L 423.649388 700.441519 
L 424.25842 738.72 
L 427.303579 738.72 
L 427.912611 708.097215 
L 428.521643 738.72 
L 429.739706 738.72 
L 430.348738 708.097215 
L 430.95777 738.72 
L 435.830024 738.72 
L 436.439056 708.097215 
L 437.048088 738.72 
L 437.657119 738.72 
L 438.266151 708.097215 
L 438.875183 738.72 
L 443.138406 738.72 
L 443.747437 700.441519 
L 444.356469 708.097215 
L 444.965501 708.097215 
L 445.574533 738.72 
L 446.183565 738.72 
L 446.792596 715.752911 
L 447.401628 738.72 
L 448.619692 738.72 
L 449.228723 700.441519 
L 449.837755 738.72 
L 450.446787 708.097215 
L 451.055819 738.72 
L 454.100978 738.72 
L 454.71001 708.097215 
L 455.319041 738.72 
L 458.3642 738.72 
L 458.973232 708.097215 
L 459.582264 738.72 
L 462.018391 738.72 
L 462.627423 708.097215 
L 463.236455 738.72 
L 463.845486 708.097215 
L 465.06355 708.097215 
L 465.672582 738.72 
L 466.890645 738.72 
L 467.499677 708.097215 
L 468.108709 738.72 
L 469.935804 738.72 
L 470.544836 708.097215 
L 471.153868 700.441519 
L 471.7629 708.097215 
L 472.371931 738.72 
L 479.071281 738.72 
L 479.680313 708.097215 
L 480.289345 738.72 
L 480.898376 738.72 
L 481.507408 708.097215 
L 482.11644 738.72 
L 482.725472 738.72 
L 483.334504 700.441519 
L 483.943535 738.72 
L 484.552567 738.72 
L 485.161599 708.097215 
L 485.770631 738.72 
L 488.206758 738.72 
L 488.81579 708.097215 
L 489.424822 708.097215 
L 490.033853 700.441519 
L 490.642885 738.72 
L 491.251917 738.72 
L 491.860949 700.441519 
L 492.46998 738.72 
L 493.079012 708.097215 
L 493.688044 738.72 
L 496.733203 738.72 
L 497.342235 700.441519 
L 497.951267 708.097215 
L 498.560298 738.72 
L 503.432553 738.72 
L 504.041584 700.441519 
L 504.650616 738.72 
L 505.259648 738.72 
L 505.86868 708.097215 
L 506.477712 738.72 
L 509.522871 738.72 
L 510.131902 700.441519 
L 510.740934 738.72 
L 511.958998 738.72 
L 512.568029 700.441519 
L 513.177061 738.72 
L 513.786093 708.097215 
L 514.395125 708.097215 
L 515.004157 738.72 
L 522.312538 738.72 
L 522.92157 700.441519 
L 523.530602 738.72 
L 524.139633 708.097215 
L 524.748665 738.72 
L 535.102206 738.72 
L 535.711237 700.441519 
L 536.320269 738.72 
L 538.756396 738.72 
L 539.365428 715.752911 
L 539.97446 738.72 
L 540.583492 738.72 
L 541.192524 700.441519 
L 541.801555 738.72 
L 547.891873 738.72 
L 548.500905 700.441519 
L 549.109937 738.72 
L 549.718969 738.72 
L 550.328 708.097215 
L 550.937032 738.72 
L 554.591223 738.72 
L 555.200255 708.097215 
L 555.809286 738.72 
L 556.418318 708.097215 
L 557.02735 738.72 
L 557.636382 738.72 
L 558.245414 715.752911 
L 558.854445 738.72 
L 562.508636 738.72 
L 563.117668 708.097215 
L 563.7267 738.72 
L 573.471208 738.72 
L 574.08024 700.441519 
L 574.689272 738.72 
L 578.343463 738.72 
L 578.952494 708.097215 
L 579.561526 700.441519 
L 580.170558 738.72 
L 581.388622 738.72 
L 581.997653 708.097215 
L 582.606685 738.72 
L 583.215717 738.72 
L 583.824749 700.441519 
L 584.433781 738.72 
L 585.042812 700.441519 
L 585.651844 738.72 
L 586.260876 708.097215 
L 586.869908 738.72 
L 587.478939 700.441519 
L 588.087971 738.72 
L 588.697003 708.097215 
L 589.306035 738.72 
L 589.915067 738.72 
L 590.524098 708.097215 
L 591.13313 708.097215 
L 591.742162 738.72 
L 596.005385 738.72 
L 596.614416 708.097215 
L 597.223448 738.72 
L 597.83248 708.097215 
L 598.441512 738.72 
L 602.095702 738.72 
L 602.704734 708.097215 
L 603.313766 738.72 
L 608.795052 738.72 
L 609.404084 708.097215 
L 610.013116 738.72 
L 610.622147 708.097215 
L 611.231179 708.097215 
L 611.840211 738.72 
L 613.058275 738.72 
L 613.667306 708.097215 
L 614.276338 708.097215 
L 614.88537 700.441519 
L 615.494402 738.72 
L 617.930529 738.72 
L 618.539561 708.097215 
L 619.148592 738.72 
L 626.456974 738.72 
L 627.066006 708.097215 
L 627.675038 738.72 
L 630.720196 738.72 
L 631.329228 708.097215 
L 631.93826 738.72 
L 633.765355 738.72 
L 634.374387 715.752911 
L 634.983419 738.72 
L 635.592451 708.097215 
L 636.201483 738.72 
L 637.419546 738.72 
L 638.028578 700.441519 
L 638.63761 700.441519 
L 639.246642 738.72 
L 642.900832 738.72 
L 643.509864 700.441519 
L 644.118896 738.72 
L 645.945991 738.72 
L 646.555023 700.441519 
L 647.164055 738.72 
L 660.562754 738.72 
L 661.171786 700.441519 
L 661.780818 738.72 
L 662.389849 738.72 
L 662.998881 700.441519 
L 663.607913 738.72 
L 664.216945 738.72 
L 664.825977 708.097215 
L 665.435008 738.72 
L 670.916295 738.72 
L 671.525326 715.752911 
L 672.134358 738.72 
L 673.352422 738.72 
L 673.961453 708.097215 
L 674.570485 738.72 
L 675.179517 738.72 
L 675.788549 708.097215 
L 676.397581 738.72 
L 677.006612 708.097215 
L 677.615644 738.72 
L 678.833708 738.72 
L 679.44274 708.097215 
L 680.051771 738.72 
L 680.660803 738.72 
L 681.269835 708.097215 
L 681.878867 738.72 
L 684.924026 738.72 
L 685.533057 708.097215 
L 686.142089 738.72 
L 692.232407 738.72 
L 692.841439 700.441519 
L 693.450471 738.72 
L 695.277566 738.72 
L 695.886598 715.752911 
L 696.49563 738.72 
L 701.367884 738.72 
L 701.976916 708.097215 
L 702.585948 738.72 
L 706.84917 738.72 
L 707.458202 700.441519 
L 708.067234 738.72 
L 709.285297 738.72 
L 709.894329 708.097215 
L 710.503361 708.097215 
L 711.112393 738.72 
L 712.330456 738.72 
L 712.939488 708.097215 
L 713.54852 738.72 
L 715.984647 738.72 
L 716.593679 708.097215 
L 717.20271 738.72 
L 717.811742 708.097215 
L 718.420774 738.72 
L 726.338187 738.72 
L 726.947219 708.097215 
L 727.556251 738.72 
L 728.774314 738.72 
L 729.383346 708.097215 
L 729.992378 738.72 
L 730.60141 708.097215 
L 731.210442 738.72 
L 732.428505 738.72 
L 733.037537 715.752911 
L 733.646569 738.72 
L 734.864632 738.72 
L 735.473664 708.097215 
L 736.082696 715.752911 
L 736.691728 738.72 
L 737.300759 738.72 
L 737.909791 700.441519 
L 738.518823 738.72 
L 740.345918 738.72 
L 740.95495 708.097215 
L 741.563982 738.72 
L 743.391077 738.72 
L 744.000109 708.097215 
L 744.609141 738.72 
L 745.218173 700.441519 
L 745.827205 738.72 
L 746.436236 708.097215 
L 747.045268 738.72 
L 748.263332 738.72 
L 748.872363 708.097215 
L 749.481395 738.72 
L 751.308491 738.72 
L 751.917522 708.097215 
L 752.526554 738.72 
L 754.35365 738.72 
L 754.962681 708.097215 
L 755.571713 738.72 
L 757.398808 738.72 
L 758.00784 700.441519 
L 758.616872 738.72 
L 759.225904 738.72 
L 759.834936 700.441519 
L 760.443967 738.72 
L 765.316222 738.72 
L 765.925254 708.097215 
L 766.534285 700.441519 
L 767.143317 738.72 
L 769.579444 738.72 
L 770.188476 708.097215 
L 770.797508 133.92 
L 771.40654 708.097215 
L 772.015571 738.72 
L 779.932985 738.72 
L 780.542016 708.097215 
L 781.76008 455.459241 
L 782.369112 639.195949 
L 782.978144 708.097215 
L 783.587175 738.72 
L 784.196207 708.097215 
L 784.805239 738.72 
L 786.023303 738.72 
L 786.632334 700.441519 
L 787.241366 738.72 
L 788.45943 738.72 
L 789.068462 708.097215 
L 789.677493 738.72 
L 792.722652 738.72 
L 793.331684 708.097215 
L 793.940716 738.72 
L 795.158779 738.72 
L 795.767811 700.441519 
L 796.376843 738.72 
L 796.985875 700.441519 
L 797.594907 738.72 
L 799.422002 738.72 
L 800.031034 700.441519 
L 800.640065 738.72 
L 801.249097 738.72 
L 801.858129 708.097215 
L 802.467161 738.72 
L 803.076193 708.097215 
L 803.685224 700.441519 
L 804.294256 738.72 
L 806.730383 738.72 
L 807.339415 708.097215 
L 807.948447 708.097215 
L 808.557479 738.72 
L 809.166511 738.72 
L 809.775542 708.097215 
L 810.384574 738.72 
L 817.083924 738.72 
L 817.692956 700.441519 
L 818.301987 738.72 
L 818.911019 708.097215 
L 819.520051 738.72 
L 821.347146 738.72 
L 821.956178 708.097215 
L 822.56521 738.72 
L 826.219401 738.72 
L 826.828432 708.097215 
L 828.046496 708.097215 
L 828.655528 738.72 
L 829.26456 738.72 
L 829.873591 708.097215 
L 830.482623 738.72 
L 832.91875 738.72 
L 833.527782 700.441519 
L 834.136814 738.72 
L 834.745846 738.72 
L 835.354877 708.097215 
L 835.963909 738.72 
L 840.836164 738.72 
L 841.445195 700.441519 
L 842.054227 738.72 
L 843.272291 738.72 
L 843.881322 708.097215 
L 844.490354 738.72 
L 845.099386 708.097215 
L 845.708418 738.72 
L 848.753577 738.72 
L 849.362609 708.097215 
L 849.97164 738.72 
L 851.189704 738.72 
L 851.798736 708.097215 
L 852.407768 738.72 
L 855.452926 738.72 
L 856.061958 708.097215 
L 856.67099 708.097215 
L 857.280022 738.72 
L 857.889054 738.72 
L 858.498085 708.097215 
L 859.107117 708.097215 
L 859.716149 738.72 
L 861.543244 738.72 
L 862.152276 700.441519 
L 862.761308 738.72 
L 865.197435 738.72 
L 865.806467 715.752911 
L 866.415499 738.72 
L 868.242594 738.72 
L 868.851626 700.441519 
L 869.460658 738.72 
L 873.114848 738.72 
L 873.72388 715.752911 
L 874.332912 738.72 
L 879.205166 738.72 
L 879.814198 700.441519 
L 880.42323 738.72 
L 881.032262 738.72 
L 881.641293 708.097215 
L 882.250325 738.72 
L 885.904516 738.72 
L 886.513548 708.097215 
L 887.122579 708.097215 
L 887.731611 700.441519 
L 888.340643 738.72 
L 888.949675 738.72 
L 889.558707 708.097215 
L 890.167738 738.72 
L 893.821929 738.72 
L 894.430961 708.097215 
L 895.039993 317.656709 
L 895.649025 646.851646 
L 896.258056 486.082025 
L 896.867088 616.228861 
L 897.47612 478.426329 
L 898.085152 677.47443 
L 898.694183 708.097215 
L 899.303215 708.097215 
L 899.912247 547.327595 
L 900.521279 516.70481 
L 901.130311 708.097215 
L 901.739342 616.228861 
L 902.957406 738.72 
L 903.566438 700.441519 
L 904.17547 700.441519 
L 904.784501 669.818734 
L 905.393533 708.097215 
L 906.002565 700.441519 
L 906.611597 708.097215 
L 907.220628 738.72 
L 907.82966 708.097215 
L 908.438692 738.72 
L 909.047724 708.097215 
L 912.701915 708.097215 
L 913.310946 738.72 
L 913.919978 738.72 
L 914.52901 700.441519 
L 915.138042 669.818734 
L 915.747074 708.097215 
L 916.356105 738.72 
L 917.574169 738.72 
L 918.183201 700.441519 
L 918.792232 738.72 
L 919.401264 738.72 
L 920.010296 685.130127 
L 920.619328 708.097215 
L 921.837391 708.097215 
L 922.446423 700.441519 
L 923.055455 708.097215 
L 923.664487 708.097215 
L 924.273519 738.72 
L 924.88255 708.097215 
L 925.491582 738.72 
L 926.100614 708.097215 
L 926.709646 708.097215 
L 927.318678 669.818734 
L 927.927709 700.441519 
L 928.536741 700.441519 
L 929.145773 708.097215 
L 929.754805 738.72 
L 930.363836 700.441519 
L 930.972868 738.72 
L 931.5819 708.097215 
L 932.190932 738.72 
L 932.799964 738.72 
L 933.408995 700.441519 
L 934.018027 685.130127 
L 934.627059 700.441519 
L 935.236091 708.097215 
L 935.845123 700.441519 
L 936.454154 738.72 
L 937.063186 738.72 
L 937.672218 708.097215 
L 938.28125 738.72 
L 940.108345 738.72 
L 940.717377 708.097215 
L 941.93544 708.097215 
L 942.544472 738.72 
L 944.980599 738.72 
L 945.589631 715.752911 
L 946.198663 738.72 
L 946.807695 708.097215 
L 947.416727 738.72 
L 951.070917 738.72 
L 951.679949 708.097215 
L 952.288981 738.72 
L 954.116076 738.72 
L 954.725108 708.097215 
L 955.33414 738.72 
L 955.943172 708.097215 
L 956.552203 738.72 
L 957.161235 700.441519 
L 957.770267 738.72 
L 964.469617 738.72 
L 965.078648 700.441519 
L 965.68768 708.097215 
L 966.296712 738.72 
L 969.950903 738.72 
L 970.559935 700.441519 
L 971.168966 738.72 
L 971.777998 738.72 
L 972.38703 708.097215 
L 972.996062 738.72 
L 973.605093 738.72 
L 974.214125 708.097215 
L 974.823157 738.72 
L 976.650252 738.72 
L 977.259284 708.097215 
L 977.868316 738.72 
L 978.477348 700.441519 
L 979.08638 700.441519 
L 979.695411 738.72 
L 980.913475 738.72 
L 981.522507 700.441519 
L 982.131538 738.72 
L 982.74057 738.72 
L 983.349602 708.097215 
L 983.958634 738.72 
L 987.003793 738.72 
L 987.612825 700.441519 
L 988.221856 738.72 
L 988.830888 738.72 
L 989.43992 708.097215 
L 990.048952 738.72 
L 995.530238 738.72 
L 996.13927 715.752911 
L 996.748301 738.72 
L 997.357333 708.097215 
L 997.966365 738.72 
L 1002.229588 738.72 
L 1002.838619 708.097215 
L 1003.447651 738.72 
L 1007.710874 738.72 
L 1008.319905 715.752911 
L 1008.928937 738.72 
L 1010.147001 738.72 
L 1010.756033 708.097215 
L 1011.365064 738.72 
L 1011.974096 738.72 
L 1012.583128 708.097215 
L 1013.19216 738.72 
L 1013.801192 708.097215 
L 1014.410223 738.72 
L 1016.84635 738.72 
L 1017.455382 700.441519 
L 1018.064414 738.72 
L 1018.673446 700.441519 
L 1019.282478 715.752911 
L 1019.891509 738.72 
L 1020.500541 708.097215 
L 1021.109573 738.72 
L 1021.718605 738.72 
L 1022.327637 708.097215 
L 1022.936668 738.72 
L 1023.5457 738.72 
L 1024.154732 700.441519 
L 1024.763764 738.72 
L 1025.372795 738.72 
L 1025.981827 700.441519 
L 1026.590859 738.72 
L 1031.463113 738.72 
L 1032.072145 708.097215 
L 1032.681177 738.72 
L 1033.290209 708.097215 
L 1033.899241 738.72 
L 1036.335368 738.72 
L 1036.944399 708.097215 
L 1037.553431 738.72 
L 1038.771495 738.72 
L 1039.380527 715.752911 
L 1039.989558 708.097215 
L 1040.59859 738.72 
L 1041.207622 738.72 
L 1041.816654 708.097215 
L 1042.425686 738.72 
L 1049.125035 738.72 
L 1049.734067 700.441519 
L 1050.343099 708.097215 
L 1050.952131 738.72 
L 1052.779226 738.72 
L 1053.388258 708.097215 
L 1053.99729 738.72 
L 1057.042448 738.72 
L 1057.65148 708.097215 
L 1058.260512 738.72 
L 1064.959862 738.72 
L 1065.568894 708.097215 
L 1066.177925 738.72 
L 1073.486307 738.72 
L 1074.095339 708.097215 
L 1074.70437 708.097215 
L 1075.313402 738.72 
L 1078.967593 738.72 
L 1079.576625 708.097215 
L 1080.185656 738.72 
L 1082.012752 738.72 
L 1082.621784 708.097215 
L 1083.230815 738.72 
L 1085.057911 738.72 
L 1085.666943 708.097215 
L 1086.275974 738.72 
L 1091.148229 738.72 
L 1091.75726 700.441519 
L 1092.366292 708.097215 
L 1092.975324 738.72 
L 1093.584356 700.441519 
L 1094.193388 738.72 
L 1096.020483 738.72 
L 1096.629515 708.097215 
L 1097.238547 715.752911 
L 1097.847578 708.097215 
L 1098.45661 708.097215 
L 1099.065642 738.72 
L 1103.328864 738.72 
L 1103.937896 708.097215 
L 1105.15596 708.097215 
L 1105.764992 700.441519 
L 1106.374023 738.72 
L 1106.983055 715.752911 
L 1107.592087 700.441519 
L 1108.201119 738.72 
L 1115.5095 738.72 
L 1116.118532 708.097215 
L 1116.727564 708.097215 
L 1117.336596 738.72 
L 1117.945627 715.752911 
L 1118.554659 738.72 
L 1124.035945 738.72 
L 1124.644977 708.097215 
L 1125.254009 738.72 
L 1128.299168 738.72 
L 1128.9082 700.441519 
L 1129.517231 738.72 
L 1130.126263 738.72 
L 1130.735295 708.097215 
L 1131.344327 738.72 
L 1131.953358 700.441519 
L 1132.56239 738.72 
L 1134.998517 738.72 
L 1135.607549 700.441519 
L 1136.216581 738.72 
L 1136.825613 738.72 
L 1137.434645 708.097215 
L 1138.043676 708.097215 
L 1138.652708 738.72 
L 1139.870772 738.72 
L 1140.479804 708.097215 
L 1141.088835 738.72 
L 1150.224312 738.72 
L 1150.833344 708.097215 
L 1151.442376 738.72 
L 1154.487535 738.72 
L 1155.096566 708.097215 
L 1155.705598 700.441519 
L 1156.31463 738.72 
L 1156.923662 708.097215 
L 1157.532694 738.72 
L 1158.141725 708.097215 
L 1158.750757 738.72 
L 1159.359789 225.788354 
L 1159.968821 738.72 
L 1160.577853 738.72 
L 1161.186884 708.097215 
L 1161.795916 708.097215 
L 1162.404948 738.72 
L 1164.841075 738.72 
L 1165.450107 708.097215 
L 1166.059139 738.72 
L 1166.66817 738.72 
L 1167.277202 700.441519 
L 1167.886234 715.752911 
L 1168.495266 738.72 
L 1173.976552 738.72 
L 1174.585584 708.097215 
L 1175.194615 738.72 
L 1175.803647 738.72 
L 1176.412679 708.097215 
L 1177.021711 738.72 
L 1178.239774 738.72 
L 1178.848806 708.097215 
L 1179.457838 708.097215 
L 1180.06687 700.441519 
L 1180.675902 708.097215 
L 1181.284933 738.72 
L 1182.502997 738.72 
L 1183.112029 708.097215 
L 1183.721061 738.72 
L 1184.330092 708.097215 
L 1184.939124 738.72 
L 1187.984283 738.72 
L 1188.593315 700.441519 
L 1189.202347 738.72 
L 1191.029442 738.72 
L 1191.638474 708.097215 
L 1192.247506 738.72 
L 1195.292665 738.72 
L 1195.901696 708.097215 
L 1196.510728 738.72 
L 1199.555887 738.72 
L 1200.164919 708.097215 
L 1200.773951 738.72 
L 1206.255237 738.72 
L 1206.864268 708.097215 
L 1207.4733 738.72 
L 1209.300396 738.72 
L 1209.909427 708.097215 
L 1210.518459 708.097215 
L 1211.127491 738.72 
L 1211.736523 700.441519 
L 1212.345555 738.72 
L 1212.954586 738.72 
L 1213.563618 700.441519 
L 1214.781682 715.752911 
L 1215.390714 738.72 
L 1220.262968 738.72 
L 1220.872 708.097215 
L 1221.481031 738.72 
L 1222.699095 738.72 
L 1223.308127 708.097215 
L 1225.135222 708.097215 
L 1225.744254 700.441519 
L 1226.353286 738.72 
L 1226.962318 738.72 
L 1227.571349 700.441519 
L 1228.180381 708.097215 
L 1228.789413 738.72 
L 1231.834572 738.72 
L 1232.443604 715.752911 
L 1233.052635 738.72 
L 1233.661667 708.097215 
L 1234.270699 738.72 
L 1237.92489 738.72 
L 1238.533922 708.097215 
L 1239.142953 738.72 
L 1239.751985 715.752911 
L 1240.361017 738.72 
L 1241.57908 738.72 
L 1242.188112 708.097215 
L 1242.797144 738.72 
L 1244.015208 738.72 
L 1244.624239 708.097215 
L 1245.233271 708.097215 
L 1245.842303 738.72 
L 1246.451335 738.72 
L 1247.060367 700.441519 
L 1247.669398 738.72 
L 1255.586812 738.72 
L 1256.195843 708.097215 
L 1256.804875 738.72 
L 1261.068098 738.72 
L 1261.677129 700.441519 
L 1262.286161 738.72 
L 1268.376479 738.72 
L 1268.985511 700.441519 
L 1269.594543 738.72 
L 1271.421638 738.72 
L 1272.03067 700.441519 
L 1272.639702 738.72 
L 1273.248733 708.097215 
L 1273.857765 738.72 
L 1274.466797 708.097215 
L 1275.075829 708.097215 
L 1275.684861 738.72 
L 1276.293892 708.097215 
L 1276.902924 738.72 
L 1281.166147 738.72 
L 1281.775178 708.097215 
L 1282.38421 738.72 
L 1284.211306 738.72 
L 1284.820337 708.097215 
L 1285.429369 738.72 
L 1286.038401 738.72 
L 1286.647433 700.441519 
L 1287.256465 738.72 
L 1292.737751 738.72 
L 1293.346782 708.097215 
L 1293.955814 738.72 
L 1296.391941 738.72 
L 1297.000973 708.097215 
L 1297.610005 738.72 
L 1300.046132 738.72 
L 1300.655164 715.752911 
L 1301.264196 738.72 
L 1303.700323 738.72 
L 1304.309355 708.097215 
L 1304.918386 738.72 
L 1305.527418 708.097215 
L 1306.13645 738.72 
L 1306.745482 715.752911 
L 1307.354514 738.72 
L 1308.572577 738.72 
L 1309.181609 708.097215 
L 1309.790641 700.441519 
L 1310.399673 708.097215 
L 1311.008704 738.72 
L 1311.617736 708.097215 
L 1312.226768 715.752911 
L 1312.8358 738.72 
L 1313.444832 700.441519 
L 1314.053863 738.72 
L 1315.880959 738.72 
L 1316.48999 708.097215 
L 1317.099022 738.72 
L 1318.926118 738.72 
L 1319.535149 708.097215 
L 1320.144181 738.72 
L 1320.753213 700.441519 
L 1321.362245 738.72 
L 1321.971277 715.752911 
L 1322.580308 700.441519 
L 1323.18934 738.72 
L 1324.407404 738.72 
L 1325.016435 708.097215 
L 1325.625467 708.097215 
L 1326.234499 738.72 
L 1326.843531 738.72 
L 1327.452563 708.097215 
L 1328.061594 738.72 
L 1329.88869 738.72 
L 1330.497722 708.097215 
L 1331.106753 708.097215 
L 1331.715785 738.72 
L 1332.324817 715.752911 
L 1332.933849 738.72 
L 1335.369976 738.72 
L 1335.979008 700.441519 
L 1336.588039 738.72 
L 1337.806103 738.72 
L 1338.415135 708.097215 
L 1339.024167 700.441519 
L 1339.633198 738.72 
L 1340.851262 738.72 
L 1341.460294 708.097215 
L 1342.069326 738.72 
L 1342.678357 715.752911 
L 1343.287389 738.72 
L 1348.159643 738.72 
L 1348.768675 700.441519 
L 1349.377707 738.72 
L 1351.204802 738.72 
L 1351.813834 708.097215 
L 1352.422866 700.441519 
L 1353.031898 708.097215 
L 1353.64093 700.441519 
L 1354.249961 738.72 
L 1354.858993 738.72 
L 1355.468025 700.441519 
L 1356.077057 708.097215 
L 1357.29512 708.097215 
L 1357.904152 700.441519 
L 1358.513184 738.72 
L 1359.122216 708.097215 
L 1359.731247 738.72 
L 1360.949311 738.72 
L 1361.558343 708.097215 
L 1362.167375 708.097215 
L 1362.776406 738.72 
L 1363.385438 700.441519 
L 1363.99447 708.097215 
L 1365.212534 708.097215 
L 1365.821565 738.72 
L 1370.69382 738.72 
L 1371.302851 708.097215 
L 1371.911883 738.72 
L 1372.520915 738.72 
L 1373.129947 708.097215 
L 1373.738979 738.72 
L 1374.34801 708.097215 
L 1374.957042 708.097215 
L 1375.566074 738.72 
L 1378.002201 738.72 
L 1378.611233 715.752911 
L 1379.220265 738.72 
L 1379.829296 700.441519 
L 1380.438328 738.72 
L 1381.04736 708.097215 
L 1381.656392 738.72 
L 1382.265424 708.097215 
L 1382.874455 700.441519 
L 1383.483487 738.72 
L 1384.092519 708.097215 
L 1384.701551 738.72 
L 1387.74671 738.72 
L 1388.355742 708.097215 
L 1388.964773 738.72 
L 1390.791869 738.72 
L 1391.4009 708.097215 
L 1392.009932 738.72 
L 1395.664123 738.72 
L 1396.273155 708.097215 
L 1396.882187 700.441519 
L 1397.491218 738.72 
L 1399.927345 738.72 
L 1400.536377 715.752911 
L 1401.145409 715.752911 
L 1401.754441 738.72 
L 1402.363473 738.72 
L 1402.972504 708.097215 
L 1403.581536 738.72 
L 1404.7996 738.72 
L 1405.408632 708.097215 
L 1406.017663 738.72 
L 1410.280886 738.72 
L 1410.889918 708.097215 
L 1412.107981 708.097215 
L 1412.717013 738.72 
L 1413.326045 708.097215 
L 1413.935077 708.097215 
L 1414.544108 738.72 
L 1416.980236 738.72 
L 1417.589267 700.441519 
L 1418.198299 738.72 
L 1420.634426 738.72 
L 1421.243458 708.097215 
L 1421.85249 738.72 
L 1422.461522 738.72 
L 1423.070553 708.097215 
L 1423.679585 738.72 
L 1424.288617 738.72 
L 1424.897649 700.441519 
L 1425.506681 700.441519 
L 1426.115712 738.72 
L 1429.769903 738.72 
L 1430.378935 708.097215 
L 1430.987967 738.72 
L 1435.860221 738.72 
L 1436.469253 708.097215 
L 1437.078285 738.72 
L 1437.687316 708.097215 
L 1438.296348 700.441519 
L 1438.90538 738.72 
L 1439.514412 708.097215 
L 1440.123444 738.72 
L 1440.732475 700.441519 
L 1441.341507 715.752911 
L 1441.950539 700.441519 
L 1442.559571 738.72 
L 1443.168602 700.441519 
L 1443.777634 738.72 
L 1445.60473 738.72 
L 1446.213761 700.441519 
L 1446.822793 738.72 
L 1449.25892 738.72 
L 1449.867952 700.441519 
L 1450.476984 738.72 
L 1451.086016 708.097215 
L 1451.695048 738.72 
L 1460.830524 738.72 
L 1461.439556 700.441519 
L 1462.048588 738.72 
L 1462.65762 738.72 
L 1463.266652 700.441519 
L 1463.875683 708.097215 
L 1464.484715 738.72 
L 1465.093747 708.097215 
L 1465.702779 738.72 
L 1466.920842 738.72 
L 1467.529874 708.097215 
L 1468.138906 738.72 
L 1469.356969 738.72 
L 1469.966001 708.097215 
L 1470.575033 738.72 
L 1471.793097 738.72 
L 1472.402128 715.752911 
L 1473.01116 708.097215 
L 1473.620192 738.72 
L 1483.364701 738.72 
L 1483.973732 700.441519 
L 1484.582764 738.72 
L 1485.191796 708.097215 
L 1485.800828 738.72 
L 1490.06405 738.72 
L 1490.673082 700.441519 
L 1491.282114 738.72 
L 1491.891146 738.72 
L 1492.500177 708.097215 
L 1493.109209 738.72 
L 1493.718241 738.72 
L 1494.327273 700.441519 
L 1494.327273 700.441519 
" style="fill:none;stroke:#1f77b4;stroke-linecap:square;stroke-width:1.5;"/>
   </g>
   <g id="line2d_19">
    <path clip-path="url(#pd7edbce6ea)" d="M 276.872727 730.729404 
L 1494.327273 727.655568 
L 1494.327273 727.655568 
" style="fill:none;stroke:#ff7f0e;stroke-linecap:square;stroke-width:1.5;"/>
   </g>
   <g id="patch_3">
    <path d="M 216 768.96 
L 216 103.68 
" style="fill:none;stroke:#000000;stroke-linecap:square;stroke-linejoin:miter;stroke-width:0.8;"/>
   </g>
   <g id="patch_4">
    <path d="M 1555.2 768.96 
L 1555.2 103.68 
" style="fill:none;stroke:#000000;stroke-linecap:square;stroke-linejoin:miter;stroke-width:0.8;"/>
   </g>
   <g id="patch_5">
    <path d="M 216 768.96 
L 1555.2 768.96 
" style="fill:none;stroke:#000000;stroke-linecap:square;stroke-linejoin:miter;stroke-width:0.8;"/>
   </g>
   <g id="patch_6">
    <path d="M 216 103.68 
L 1555.2 103.68 
" style="fill:none;stroke:#000000;stroke-linecap:square;stroke-linejoin:miter;stroke-width:0.8;"/>
   </g>
   <g id="legend_1">
    <g id="patch_7">
     <path d="M 1421.748437 141.03625 
L 1548.2 141.03625 
Q 1550.2 141.03625 1550.2 139.03625 
L 1550.2 110.68 
Q 1550.2 108.68 1548.2 108.68 
L 1421.748437 108.68 
Q 1419.748437 108.68 1419.748437 110.68 
L 1419.748437 139.03625 
Q 1419.748437 141.03625 1421.748437 141.03625 
z
" style="fill:#ffffff;opacity:0.8;stroke:#cccccc;stroke-linejoin:miter;"/>
    </g>
    <g id="line2d_20">
     <path d="M 1423.748437 116.778437 
L 1443.748437 116.778437 
" style="fill:none;stroke:#1f77b4;stroke-linecap:square;stroke-width:1.5;"/>
    </g>
    <g id="line2d_21"/>
    <g id="text_20">
     <!-- Experiment results -->
     <g transform="translate(1451.748437 120.278437)scale(0.1 -0.1)">
      <defs>
       <path d="M 9.8125 72.90625 
L 55.90625 72.90625 
L 55.90625 64.59375 
L 19.671875 64.59375 
L 19.671875 43.015625 
L 54.390625 43.015625 
L 54.390625 34.71875 
L 19.671875 34.71875 
L 19.671875 8.296875 
L 56.78125 8.296875 
L 56.78125 0 
L 9.8125 0 
z
" id="DejaVuSans-69"/>
       <path d="M 54.890625 54.6875 
L 35.109375 28.078125 
L 55.90625 0 
L 45.3125 0 
L 29.390625 21.484375 
L 13.484375 0 
L 2.875 0 
L 24.125 28.609375 
L 4.6875 54.6875 
L 15.28125 54.6875 
L 29.78125 35.203125 
L 44.28125 54.6875 
z
" id="DejaVuSans-120"/>
       <path d="M 18.109375 8.203125 
L 18.109375 -20.796875 
L 9.078125 -20.796875 
L 9.078125 54.6875 
L 18.109375 54.6875 
L 18.109375 46.390625 
Q 20.953125 51.265625 25.265625 53.625 
Q 29.59375 56 35.59375 56 
Q 45.5625 56 51.78125 48.09375 
Q 58.015625 40.1875 58.015625 27.296875 
Q 58.015625 14.40625 51.78125 6.484375 
Q 45.5625 -1.421875 35.59375 -1.421875 
Q 29.59375 -1.421875 25.265625 0.953125 
Q 20.953125 3.328125 18.109375 8.203125 
z
M 48.6875 27.296875 
Q 48.6875 37.203125 44.609375 42.84375 
Q 40.53125 48.484375 33.40625 48.484375 
Q 26.265625 48.484375 22.1875 42.84375 
Q 18.109375 37.203125 18.109375 27.296875 
Q 18.109375 17.390625 22.1875 11.75 
Q 26.265625 6.109375 33.40625 6.109375 
Q 40.53125 6.109375 44.609375 11.75 
Q 48.6875 17.390625 48.6875 27.296875 
z
" id="DejaVuSans-112"/>
       <path d="M 8.5 21.578125 
L 8.5 54.6875 
L 17.484375 54.6875 
L 17.484375 21.921875 
Q 17.484375 14.15625 20.5 10.265625 
Q 23.53125 6.390625 29.59375 6.390625 
Q 36.859375 6.390625 41.078125 11.03125 
Q 45.3125 15.671875 45.3125 23.6875 
L 45.3125 54.6875 
L 54.296875 54.6875 
L 54.296875 0 
L 45.3125 0 
L 45.3125 8.40625 
Q 42.046875 3.421875 37.71875 1 
Q 33.40625 -1.421875 27.6875 -1.421875 
Q 18.265625 -1.421875 13.375 4.4375 
Q 8.5 10.296875 8.5 21.578125 
z
M 31.109375 56 
z
" id="DejaVuSans-117"/>
      </defs>
      <use xlink:href="#DejaVuSans-69"/>
      <use x="63.183594" xlink:href="#DejaVuSans-120"/>
      <use x="122.363281" xlink:href="#DejaVuSans-112"/>
      <use x="185.839844" xlink:href="#DejaVuSans-101"/>
      <use x="247.363281" xlink:href="#DejaVuSans-114"/>
      <use x="288.476562" xlink:href="#DejaVuSans-105"/>
      <use x="316.259766" xlink:href="#DejaVuSans-109"/>
      <use x="413.671875" xlink:href="#DejaVuSans-101"/>
      <use x="475.195312" xlink:href="#DejaVuSans-110"/>
      <use x="538.574219" xlink:href="#DejaVuSans-116"/>
      <use x="577.783203" xlink:href="#DejaVuSans-32"/>
      <use x="609.570312" xlink:href="#DejaVuSans-114"/>
      <use x="648.433594" xlink:href="#DejaVuSans-101"/>
      <use x="709.957031" xlink:href="#DejaVuSans-115"/>
      <use x="762.056641" xlink:href="#DejaVuSans-117"/>
      <use x="825.435547" xlink:href="#DejaVuSans-108"/>
      <use x="853.21875" xlink:href="#DejaVuSans-116"/>
      <use x="892.427734" xlink:href="#DejaVuSans-115"/>
     </g>
    </g>
    <g id="line2d_22">
     <path d="M 1423.748437 131.456563 
L 1443.748437 131.456563 
" style="fill:none;stroke:#ff7f0e;stroke-linecap:square;stroke-width:1.5;"/>
    </g>
    <g id="line2d_23"/>
    <g id="text_21">
     <!-- Approximation -->
     <g transform="translate(1451.748437 134.956563)scale(0.1 -0.1)">
      <defs>
       <path d="M 34.1875 63.1875 
L 20.796875 26.90625 
L 47.609375 26.90625 
z
M 28.609375 72.90625 
L 39.796875 72.90625 
L 67.578125 0 
L 57.328125 0 
L 50.6875 18.703125 
L 17.828125 18.703125 
L 11.1875 0 
L 0.78125 0 
z
" id="DejaVuSans-65"/>
       <path d="M 34.28125 27.484375 
Q 23.390625 27.484375 19.1875 25 
Q 14.984375 22.515625 14.984375 16.5 
Q 14.984375 11.71875 18.140625 8.90625 
Q 21.296875 6.109375 26.703125 6.109375 
Q 34.1875 6.109375 38.703125 11.40625 
Q 43.21875 16.703125 43.21875 25.484375 
L 43.21875 27.484375 
z
M 52.203125 31.203125 
L 52.203125 0 
L 43.21875 0 
L 43.21875 8.296875 
Q 40.140625 3.328125 35.546875 0.953125 
Q 30.953125 -1.421875 24.3125 -1.421875 
Q 15.921875 -1.421875 10.953125 3.296875 
Q 6 8.015625 6 15.921875 
Q 6 25.140625 12.171875 29.828125 
Q 18.359375 34.515625 30.609375 34.515625 
L 43.21875 34.515625 
L 43.21875 35.40625 
Q 43.21875 41.609375 39.140625 45 
Q 35.0625 48.390625 27.6875 48.390625 
Q 23 48.390625 18.546875 47.265625 
Q 14.109375 46.140625 10.015625 43.890625 
L 10.015625 52.203125 
Q 14.9375 54.109375 19.578125 55.046875 
Q 24.21875 56 28.609375 56 
Q 40.484375 56 46.34375 49.84375 
Q 52.203125 43.703125 52.203125 31.203125 
z
" id="DejaVuSans-97"/>
      </defs>
      <use xlink:href="#DejaVuSans-65"/>
      <use x="68.408203" xlink:href="#DejaVuSans-112"/>
      <use x="131.884766" xlink:href="#DejaVuSans-112"/>
      <use x="195.361328" xlink:href="#DejaVuSans-114"/>
      <use x="234.224609" xlink:href="#DejaVuSans-111"/>
      <use x="292.28125" xlink:href="#DejaVuSans-120"/>
      <use x="351.460938" xlink:href="#DejaVuSans-105"/>
      <use x="379.244141" xlink:href="#DejaVuSans-109"/>
      <use x="476.65625" xlink:href="#DejaVuSans-97"/>
      <use x="537.935547" xlink:href="#DejaVuSans-116"/>
      <use x="577.144531" xlink:href="#DejaVuSans-105"/>
      <use x="604.927734" xlink:href="#DejaVuSans-111"/>
      <use x="666.109375" xlink:href="#DejaVuSans-110"/>
     </g>
    </g>
   </g>
  </g>
 </g>
 <defs>
  <clipPath id="pd7edbce6ea">
   <rect height="665.28" width="1339.2" x="216" y="103.68"/>
  </clipPath>
 </defs>
</svg>
