<?xml version="1.0" encoding="utf-8" standalone="no"?>
<!DOCTYPE svg PUBLIC "-//W3C//DTD SVG 1.1//EN"
  "http://www.w3.org/Graphics/SVG/1.1/DTD/svg11.dtd">
<!-- Created with matplotlib (https://matplotlib.org/) -->
<svg height="864pt" version="1.1" viewBox="0 0 1728 864" width="1728pt" xmlns="http://www.w3.org/2000/svg" xmlns:xlink="http://www.w3.org/1999/xlink">
 <metadata>
  <rdf:RDF xmlns:cc="http://creativecommons.org/ns#" xmlns:dc="http://purl.org/dc/elements/1.1/" xmlns:rdf="http://www.w3.org/1999/02/22-rdf-syntax-ns#">
   <cc:Work>
    <dc:type rdf:resource="http://purl.org/dc/dcmitype/StillImage"/>
    <dc:date>2020-09-12T14:23:03.051797</dc:date>
    <dc:format>image/svg+xml</dc:format>
    <dc:creator>
     <cc:Agent>
      <dc:title>Matplotlib v3.3.1, https://matplotlib.org/</dc:title>
     </cc:Agent>
    </dc:creator>
   </cc:Work>
  </rdf:RDF>
 </metadata>
 <defs>
  <style type="text/css">*{stroke-linecap:butt;stroke-linejoin:round;}</style>
 </defs>
 <g id="figure_1">
  <g id="patch_1">
   <path d="M 0 864 
L 1728 864 
L 1728 0 
L 0 0 
z
" style="fill:#ffffff;"/>
  </g>
  <g id="axes_1">
   <g id="patch_2">
    <path d="M 216 768.96 
L 1555.2 768.96 
L 1555.2 103.68 
L 216 103.68 
z
" style="fill:#ffffff;"/>
   </g>
   <g id="matplotlib.axis_1">
    <g id="xtick_1">
     <g id="line2d_1">
      <defs>
       <path d="M 0 0 
L 0 3.5 
" id="m6ca672a607" style="stroke:#000000;stroke-width:0.8;"/>
      </defs>
      <g>
       <use style="stroke:#000000;stroke-width:0.8;" x="276.872727" xlink:href="#m6ca672a607" y="768.96"/>
      </g>
     </g>
     <g id="text_1">
      <!-- 0 -->
      <g transform="translate(273.691477 783.558437)scale(0.1 -0.1)">
       <defs>
        <path d="M 31.78125 66.40625 
Q 24.171875 66.40625 20.328125 58.90625 
Q 16.5 51.421875 16.5 36.375 
Q 16.5 21.390625 20.328125 13.890625 
Q 24.171875 6.390625 31.78125 6.390625 
Q 39.453125 6.390625 43.28125 13.890625 
Q 47.125 21.390625 47.125 36.375 
Q 47.125 51.421875 43.28125 58.90625 
Q 39.453125 66.40625 31.78125 66.40625 
z
M 31.78125 74.21875 
Q 44.046875 74.21875 50.515625 64.515625 
Q 56.984375 54.828125 56.984375 36.375 
Q 56.984375 17.96875 50.515625 8.265625 
Q 44.046875 -1.421875 31.78125 -1.421875 
Q 19.53125 -1.421875 13.0625 8.265625 
Q 6.59375 17.96875 6.59375 36.375 
Q 6.59375 54.828125 13.0625 64.515625 
Q 19.53125 74.21875 31.78125 74.21875 
z
" id="DejaVuSans-48"/>
       </defs>
       <use xlink:href="#DejaVuSans-48"/>
      </g>
     </g>
    </g>
    <g id="xtick_2">
     <g id="line2d_2">
      <g>
       <use style="stroke:#000000;stroke-width:0.8;" x="437.14847" xlink:href="#m6ca672a607" y="768.96"/>
      </g>
     </g>
     <g id="text_2">
      <!-- 250 -->
      <g transform="translate(427.60472 783.558437)scale(0.1 -0.1)">
       <defs>
        <path d="M 19.1875 8.296875 
L 53.609375 8.296875 
L 53.609375 0 
L 7.328125 0 
L 7.328125 8.296875 
Q 12.9375 14.109375 22.625 23.890625 
Q 32.328125 33.6875 34.8125 36.53125 
Q 39.546875 41.84375 41.421875 45.53125 
Q 43.3125 49.21875 43.3125 52.78125 
Q 43.3125 58.59375 39.234375 62.25 
Q 35.15625 65.921875 28.609375 65.921875 
Q 23.96875 65.921875 18.8125 64.3125 
Q 13.671875 62.703125 7.8125 59.421875 
L 7.8125 69.390625 
Q 13.765625 71.78125 18.9375 73 
Q 24.125 74.21875 28.421875 74.21875 
Q 39.75 74.21875 46.484375 68.546875 
Q 53.21875 62.890625 53.21875 53.421875 
Q 53.21875 48.921875 51.53125 44.890625 
Q 49.859375 40.875 45.40625 35.40625 
Q 44.1875 33.984375 37.640625 27.21875 
Q 31.109375 20.453125 19.1875 8.296875 
z
" id="DejaVuSans-50"/>
        <path d="M 10.796875 72.90625 
L 49.515625 72.90625 
L 49.515625 64.59375 
L 19.828125 64.59375 
L 19.828125 46.734375 
Q 21.96875 47.46875 24.109375 47.828125 
Q 26.265625 48.1875 28.421875 48.1875 
Q 40.625 48.1875 47.75 41.5 
Q 54.890625 34.8125 54.890625 23.390625 
Q 54.890625 11.625 47.5625 5.09375 
Q 40.234375 -1.421875 26.90625 -1.421875 
Q 22.3125 -1.421875 17.546875 -0.640625 
Q 12.796875 0.140625 7.71875 1.703125 
L 7.71875 11.625 
Q 12.109375 9.234375 16.796875 8.0625 
Q 21.484375 6.890625 26.703125 6.890625 
Q 35.15625 6.890625 40.078125 11.328125 
Q 45.015625 15.765625 45.015625 23.390625 
Q 45.015625 31 40.078125 35.4375 
Q 35.15625 39.890625 26.703125 39.890625 
Q 22.75 39.890625 18.8125 39.015625 
Q 14.890625 38.140625 10.796875 36.28125 
z
" id="DejaVuSans-53"/>
       </defs>
       <use xlink:href="#DejaVuSans-50"/>
       <use x="63.623047" xlink:href="#DejaVuSans-53"/>
       <use x="127.246094" xlink:href="#DejaVuSans-48"/>
      </g>
     </g>
    </g>
    <g id="xtick_3">
     <g id="line2d_3">
      <g>
       <use style="stroke:#000000;stroke-width:0.8;" x="597.424214" xlink:href="#m6ca672a607" y="768.96"/>
      </g>
     </g>
     <g id="text_3">
      <!-- 500 -->
      <g transform="translate(587.880464 783.558437)scale(0.1 -0.1)">
       <use xlink:href="#DejaVuSans-53"/>
       <use x="63.623047" xlink:href="#DejaVuSans-48"/>
       <use x="127.246094" xlink:href="#DejaVuSans-48"/>
      </g>
     </g>
    </g>
    <g id="xtick_4">
     <g id="line2d_4">
      <g>
       <use style="stroke:#000000;stroke-width:0.8;" x="757.699957" xlink:href="#m6ca672a607" y="768.96"/>
      </g>
     </g>
     <g id="text_4">
      <!-- 750 -->
      <g transform="translate(748.156207 783.558437)scale(0.1 -0.1)">
       <defs>
        <path d="M 8.203125 72.90625 
L 55.078125 72.90625 
L 55.078125 68.703125 
L 28.609375 0 
L 18.3125 0 
L 43.21875 64.59375 
L 8.203125 64.59375 
z
" id="DejaVuSans-55"/>
       </defs>
       <use xlink:href="#DejaVuSans-55"/>
       <use x="63.623047" xlink:href="#DejaVuSans-53"/>
       <use x="127.246094" xlink:href="#DejaVuSans-48"/>
      </g>
     </g>
    </g>
    <g id="xtick_5">
     <g id="line2d_5">
      <g>
       <use style="stroke:#000000;stroke-width:0.8;" x="917.9757" xlink:href="#m6ca672a607" y="768.96"/>
      </g>
     </g>
     <g id="text_5">
      <!-- 1000 -->
      <g transform="translate(905.2507 783.558437)scale(0.1 -0.1)">
       <defs>
        <path d="M 12.40625 8.296875 
L 28.515625 8.296875 
L 28.515625 63.921875 
L 10.984375 60.40625 
L 10.984375 69.390625 
L 28.421875 72.90625 
L 38.28125 72.90625 
L 38.28125 8.296875 
L 54.390625 8.296875 
L 54.390625 0 
L 12.40625 0 
z
" id="DejaVuSans-49"/>
       </defs>
       <use xlink:href="#DejaVuSans-49"/>
       <use x="63.623047" xlink:href="#DejaVuSans-48"/>
       <use x="127.246094" xlink:href="#DejaVuSans-48"/>
       <use x="190.869141" xlink:href="#DejaVuSans-48"/>
      </g>
     </g>
    </g>
    <g id="xtick_6">
     <g id="line2d_6">
      <g>
       <use style="stroke:#000000;stroke-width:0.8;" x="1078.251443" xlink:href="#m6ca672a607" y="768.96"/>
      </g>
     </g>
     <g id="text_6">
      <!-- 1250 -->
      <g transform="translate(1065.526443 783.558437)scale(0.1 -0.1)">
       <use xlink:href="#DejaVuSans-49"/>
       <use x="63.623047" xlink:href="#DejaVuSans-50"/>
       <use x="127.246094" xlink:href="#DejaVuSans-53"/>
       <use x="190.869141" xlink:href="#DejaVuSans-48"/>
      </g>
     </g>
    </g>
    <g id="xtick_7">
     <g id="line2d_7">
      <g>
       <use style="stroke:#000000;stroke-width:0.8;" x="1238.527187" xlink:href="#m6ca672a607" y="768.96"/>
      </g>
     </g>
     <g id="text_7">
      <!-- 1500 -->
      <g transform="translate(1225.802187 783.558437)scale(0.1 -0.1)">
       <use xlink:href="#DejaVuSans-49"/>
       <use x="63.623047" xlink:href="#DejaVuSans-53"/>
       <use x="127.246094" xlink:href="#DejaVuSans-48"/>
       <use x="190.869141" xlink:href="#DejaVuSans-48"/>
      </g>
     </g>
    </g>
    <g id="xtick_8">
     <g id="line2d_8">
      <g>
       <use style="stroke:#000000;stroke-width:0.8;" x="1398.80293" xlink:href="#m6ca672a607" y="768.96"/>
      </g>
     </g>
     <g id="text_8">
      <!-- 1750 -->
      <g transform="translate(1386.07793 783.558437)scale(0.1 -0.1)">
       <use xlink:href="#DejaVuSans-49"/>
       <use x="63.623047" xlink:href="#DejaVuSans-55"/>
       <use x="127.246094" xlink:href="#DejaVuSans-53"/>
       <use x="190.869141" xlink:href="#DejaVuSans-48"/>
      </g>
     </g>
    </g>
    <g id="text_9">
     <!-- Vector length -->
     <g transform="translate(852.139844 797.236562)scale(0.1 -0.1)">
      <defs>
       <path d="M 28.609375 0 
L 0.78125 72.90625 
L 11.078125 72.90625 
L 34.1875 11.53125 
L 57.328125 72.90625 
L 67.578125 72.90625 
L 39.796875 0 
z
" id="DejaVuSans-86"/>
       <path d="M 56.203125 29.59375 
L 56.203125 25.203125 
L 14.890625 25.203125 
Q 15.484375 15.921875 20.484375 11.0625 
Q 25.484375 6.203125 34.421875 6.203125 
Q 39.59375 6.203125 44.453125 7.46875 
Q 49.3125 8.734375 54.109375 11.28125 
L 54.109375 2.78125 
Q 49.265625 0.734375 44.1875 -0.34375 
Q 39.109375 -1.421875 33.890625 -1.421875 
Q 20.796875 -1.421875 13.15625 6.1875 
Q 5.515625 13.8125 5.515625 26.8125 
Q 5.515625 40.234375 12.765625 48.109375 
Q 20.015625 56 32.328125 56 
Q 43.359375 56 49.78125 48.890625 
Q 56.203125 41.796875 56.203125 29.59375 
z
M 47.21875 32.234375 
Q 47.125 39.59375 43.09375 43.984375 
Q 39.0625 48.390625 32.421875 48.390625 
Q 24.90625 48.390625 20.390625 44.140625 
Q 15.875 39.890625 15.1875 32.171875 
z
" id="DejaVuSans-101"/>
       <path d="M 48.78125 52.59375 
L 48.78125 44.1875 
Q 44.96875 46.296875 41.140625 47.34375 
Q 37.3125 48.390625 33.40625 48.390625 
Q 24.65625 48.390625 19.8125 42.84375 
Q 14.984375 37.3125 14.984375 27.296875 
Q 14.984375 17.28125 19.8125 11.734375 
Q 24.65625 6.203125 33.40625 6.203125 
Q 37.3125 6.203125 41.140625 7.25 
Q 44.96875 8.296875 48.78125 10.40625 
L 48.78125 2.09375 
Q 45.015625 0.34375 40.984375 -0.53125 
Q 36.96875 -1.421875 32.421875 -1.421875 
Q 20.0625 -1.421875 12.78125 6.34375 
Q 5.515625 14.109375 5.515625 27.296875 
Q 5.515625 40.671875 12.859375 48.328125 
Q 20.21875 56 33.015625 56 
Q 37.15625 56 41.109375 55.140625 
Q 45.0625 54.296875 48.78125 52.59375 
z
" id="DejaVuSans-99"/>
       <path d="M 18.3125 70.21875 
L 18.3125 54.6875 
L 36.8125 54.6875 
L 36.8125 47.703125 
L 18.3125 47.703125 
L 18.3125 18.015625 
Q 18.3125 11.328125 20.140625 9.421875 
Q 21.96875 7.515625 27.59375 7.515625 
L 36.8125 7.515625 
L 36.8125 0 
L 27.59375 0 
Q 17.1875 0 13.234375 3.875 
Q 9.28125 7.765625 9.28125 18.015625 
L 9.28125 47.703125 
L 2.6875 47.703125 
L 2.6875 54.6875 
L 9.28125 54.6875 
L 9.28125 70.21875 
z
" id="DejaVuSans-116"/>
       <path d="M 30.609375 48.390625 
Q 23.390625 48.390625 19.1875 42.75 
Q 14.984375 37.109375 14.984375 27.296875 
Q 14.984375 17.484375 19.15625 11.84375 
Q 23.34375 6.203125 30.609375 6.203125 
Q 37.796875 6.203125 41.984375 11.859375 
Q 46.1875 17.53125 46.1875 27.296875 
Q 46.1875 37.015625 41.984375 42.703125 
Q 37.796875 48.390625 30.609375 48.390625 
z
M 30.609375 56 
Q 42.328125 56 49.015625 48.375 
Q 55.71875 40.765625 55.71875 27.296875 
Q 55.71875 13.875 49.015625 6.21875 
Q 42.328125 -1.421875 30.609375 -1.421875 
Q 18.84375 -1.421875 12.171875 6.21875 
Q 5.515625 13.875 5.515625 27.296875 
Q 5.515625 40.765625 12.171875 48.375 
Q 18.84375 56 30.609375 56 
z
" id="DejaVuSans-111"/>
       <path d="M 41.109375 46.296875 
Q 39.59375 47.171875 37.8125 47.578125 
Q 36.03125 48 33.890625 48 
Q 26.265625 48 22.1875 43.046875 
Q 18.109375 38.09375 18.109375 28.8125 
L 18.109375 0 
L 9.078125 0 
L 9.078125 54.6875 
L 18.109375 54.6875 
L 18.109375 46.1875 
Q 20.953125 51.171875 25.484375 53.578125 
Q 30.03125 56 36.53125 56 
Q 37.453125 56 38.578125 55.875 
Q 39.703125 55.765625 41.0625 55.515625 
z
" id="DejaVuSans-114"/>
       <path id="DejaVuSans-32"/>
       <path d="M 9.421875 75.984375 
L 18.40625 75.984375 
L 18.40625 0 
L 9.421875 0 
z
" id="DejaVuSans-108"/>
       <path d="M 54.890625 33.015625 
L 54.890625 0 
L 45.90625 0 
L 45.90625 32.71875 
Q 45.90625 40.484375 42.875 44.328125 
Q 39.84375 48.1875 33.796875 48.1875 
Q 26.515625 48.1875 22.3125 43.546875 
Q 18.109375 38.921875 18.109375 30.90625 
L 18.109375 0 
L 9.078125 0 
L 9.078125 54.6875 
L 18.109375 54.6875 
L 18.109375 46.1875 
Q 21.34375 51.125 25.703125 53.5625 
Q 30.078125 56 35.796875 56 
Q 45.21875 56 50.046875 50.171875 
Q 54.890625 44.34375 54.890625 33.015625 
z
" id="DejaVuSans-110"/>
       <path d="M 45.40625 27.984375 
Q 45.40625 37.75 41.375 43.109375 
Q 37.359375 48.484375 30.078125 48.484375 
Q 22.859375 48.484375 18.828125 43.109375 
Q 14.796875 37.75 14.796875 27.984375 
Q 14.796875 18.265625 18.828125 12.890625 
Q 22.859375 7.515625 30.078125 7.515625 
Q 37.359375 7.515625 41.375 12.890625 
Q 45.40625 18.265625 45.40625 27.984375 
z
M 54.390625 6.78125 
Q 54.390625 -7.171875 48.1875 -13.984375 
Q 42 -20.796875 29.203125 -20.796875 
Q 24.46875 -20.796875 20.265625 -20.09375 
Q 16.0625 -19.390625 12.109375 -17.921875 
L 12.109375 -9.1875 
Q 16.0625 -11.328125 19.921875 -12.34375 
Q 23.78125 -13.375 27.78125 -13.375 
Q 36.625 -13.375 41.015625 -8.765625 
Q 45.40625 -4.15625 45.40625 5.171875 
L 45.40625 9.625 
Q 42.625 4.78125 38.28125 2.390625 
Q 33.9375 0 27.875 0 
Q 17.828125 0 11.671875 7.65625 
Q 5.515625 15.328125 5.515625 27.984375 
Q 5.515625 40.671875 11.671875 48.328125 
Q 17.828125 56 27.875 56 
Q 33.9375 56 38.28125 53.609375 
Q 42.625 51.21875 45.40625 46.390625 
L 45.40625 54.6875 
L 54.390625 54.6875 
z
" id="DejaVuSans-103"/>
       <path d="M 54.890625 33.015625 
L 54.890625 0 
L 45.90625 0 
L 45.90625 32.71875 
Q 45.90625 40.484375 42.875 44.328125 
Q 39.84375 48.1875 33.796875 48.1875 
Q 26.515625 48.1875 22.3125 43.546875 
Q 18.109375 38.921875 18.109375 30.90625 
L 18.109375 0 
L 9.078125 0 
L 9.078125 75.984375 
L 18.109375 75.984375 
L 18.109375 46.1875 
Q 21.34375 51.125 25.703125 53.5625 
Q 30.078125 56 35.796875 56 
Q 45.21875 56 50.046875 50.171875 
Q 54.890625 44.34375 54.890625 33.015625 
z
" id="DejaVuSans-104"/>
      </defs>
      <use xlink:href="#DejaVuSans-86"/>
      <use x="60.658203" xlink:href="#DejaVuSans-101"/>
      <use x="122.181641" xlink:href="#DejaVuSans-99"/>
      <use x="177.162109" xlink:href="#DejaVuSans-116"/>
      <use x="216.371094" xlink:href="#DejaVuSans-111"/>
      <use x="277.552734" xlink:href="#DejaVuSans-114"/>
      <use x="318.666016" xlink:href="#DejaVuSans-32"/>
      <use x="350.453125" xlink:href="#DejaVuSans-108"/>
      <use x="378.236328" xlink:href="#DejaVuSans-101"/>
      <use x="439.759766" xlink:href="#DejaVuSans-110"/>
      <use x="503.138672" xlink:href="#DejaVuSans-103"/>
      <use x="566.615234" xlink:href="#DejaVuSans-116"/>
      <use x="605.824219" xlink:href="#DejaVuSans-104"/>
     </g>
    </g>
   </g>
   <g id="matplotlib.axis_2">
    <g id="ytick_1">
     <g id="line2d_9">
      <defs>
       <path d="M 0 0 
L -3.5 0 
" id="m533d9cfce1" style="stroke:#000000;stroke-width:0.8;"/>
      </defs>
      <g>
       <use style="stroke:#000000;stroke-width:0.8;" x="216" xlink:href="#m533d9cfce1" y="738.72"/>
      </g>
     </g>
     <g id="text_10">
      <!-- 0.000 -->
      <g transform="translate(180.371875 742.519219)scale(0.1 -0.1)">
       <defs>
        <path d="M 10.6875 12.40625 
L 21 12.40625 
L 21 0 
L 10.6875 0 
z
" id="DejaVuSans-46"/>
       </defs>
       <use xlink:href="#DejaVuSans-48"/>
       <use x="63.623047" xlink:href="#DejaVuSans-46"/>
       <use x="95.410156" xlink:href="#DejaVuSans-48"/>
       <use x="159.033203" xlink:href="#DejaVuSans-48"/>
       <use x="222.65625" xlink:href="#DejaVuSans-48"/>
      </g>
     </g>
    </g>
    <g id="ytick_2">
     <g id="line2d_10">
      <g>
       <use style="stroke:#000000;stroke-width:0.8;" x="216" xlink:href="#m533d9cfce1" y="600.855051"/>
      </g>
     </g>
     <g id="text_11">
      <!-- 0.005 -->
      <g transform="translate(180.371875 604.65427)scale(0.1 -0.1)">
       <use xlink:href="#DejaVuSans-48"/>
       <use x="63.623047" xlink:href="#DejaVuSans-46"/>
       <use x="95.410156" xlink:href="#DejaVuSans-48"/>
       <use x="159.033203" xlink:href="#DejaVuSans-48"/>
       <use x="222.65625" xlink:href="#DejaVuSans-53"/>
      </g>
     </g>
    </g>
    <g id="ytick_3">
     <g id="line2d_11">
      <g>
       <use style="stroke:#000000;stroke-width:0.8;" x="216" xlink:href="#m533d9cfce1" y="462.990102"/>
      </g>
     </g>
     <g id="text_12">
      <!-- 0.010 -->
      <g transform="translate(180.371875 466.789321)scale(0.1 -0.1)">
       <use xlink:href="#DejaVuSans-48"/>
       <use x="63.623047" xlink:href="#DejaVuSans-46"/>
       <use x="95.410156" xlink:href="#DejaVuSans-48"/>
       <use x="159.033203" xlink:href="#DejaVuSans-49"/>
       <use x="222.65625" xlink:href="#DejaVuSans-48"/>
      </g>
     </g>
    </g>
    <g id="ytick_4">
     <g id="line2d_12">
      <g>
       <use style="stroke:#000000;stroke-width:0.8;" x="216" xlink:href="#m533d9cfce1" y="325.125153"/>
      </g>
     </g>
     <g id="text_13">
      <!-- 0.015 -->
      <g transform="translate(180.371875 328.924372)scale(0.1 -0.1)">
       <use xlink:href="#DejaVuSans-48"/>
       <use x="63.623047" xlink:href="#DejaVuSans-46"/>
       <use x="95.410156" xlink:href="#DejaVuSans-48"/>
       <use x="159.033203" xlink:href="#DejaVuSans-49"/>
       <use x="222.65625" xlink:href="#DejaVuSans-53"/>
      </g>
     </g>
    </g>
    <g id="ytick_5">
     <g id="line2d_13">
      <g>
       <use style="stroke:#000000;stroke-width:0.8;" x="216" xlink:href="#m533d9cfce1" y="187.260205"/>
      </g>
     </g>
     <g id="text_14">
      <!-- 0.020 -->
      <g transform="translate(180.371875 191.059423)scale(0.1 -0.1)">
       <use xlink:href="#DejaVuSans-48"/>
       <use x="63.623047" xlink:href="#DejaVuSans-46"/>
       <use x="95.410156" xlink:href="#DejaVuSans-48"/>
       <use x="159.033203" xlink:href="#DejaVuSans-50"/>
       <use x="222.65625" xlink:href="#DejaVuSans-48"/>
      </g>
     </g>
    </g>
    <g id="text_15">
     <!-- Time, ms -->
     <g transform="translate(174.292187 459.206719)rotate(-90)scale(0.1 -0.1)">
      <defs>
       <path d="M -0.296875 72.90625 
L 61.375 72.90625 
L 61.375 64.59375 
L 35.5 64.59375 
L 35.5 0 
L 25.59375 0 
L 25.59375 64.59375 
L -0.296875 64.59375 
z
" id="DejaVuSans-84"/>
       <path d="M 9.421875 54.6875 
L 18.40625 54.6875 
L 18.40625 0 
L 9.421875 0 
z
M 9.421875 75.984375 
L 18.40625 75.984375 
L 18.40625 64.59375 
L 9.421875 64.59375 
z
" id="DejaVuSans-105"/>
       <path d="M 52 44.1875 
Q 55.375 50.25 60.0625 53.125 
Q 64.75 56 71.09375 56 
Q 79.640625 56 84.28125 50.015625 
Q 88.921875 44.046875 88.921875 33.015625 
L 88.921875 0 
L 79.890625 0 
L 79.890625 32.71875 
Q 79.890625 40.578125 77.09375 44.375 
Q 74.3125 48.1875 68.609375 48.1875 
Q 61.625 48.1875 57.5625 43.546875 
Q 53.515625 38.921875 53.515625 30.90625 
L 53.515625 0 
L 44.484375 0 
L 44.484375 32.71875 
Q 44.484375 40.625 41.703125 44.40625 
Q 38.921875 48.1875 33.109375 48.1875 
Q 26.21875 48.1875 22.15625 43.53125 
Q 18.109375 38.875 18.109375 30.90625 
L 18.109375 0 
L 9.078125 0 
L 9.078125 54.6875 
L 18.109375 54.6875 
L 18.109375 46.1875 
Q 21.1875 51.21875 25.484375 53.609375 
Q 29.78125 56 35.6875 56 
Q 41.65625 56 45.828125 52.96875 
Q 50 49.953125 52 44.1875 
z
" id="DejaVuSans-109"/>
       <path d="M 11.71875 12.40625 
L 22.015625 12.40625 
L 22.015625 4 
L 14.015625 -11.625 
L 7.71875 -11.625 
L 11.71875 4 
z
" id="DejaVuSans-44"/>
       <path d="M 44.28125 53.078125 
L 44.28125 44.578125 
Q 40.484375 46.53125 36.375 47.5 
Q 32.28125 48.484375 27.875 48.484375 
Q 21.1875 48.484375 17.84375 46.4375 
Q 14.5 44.390625 14.5 40.28125 
Q 14.5 37.15625 16.890625 35.375 
Q 19.28125 33.59375 26.515625 31.984375 
L 29.59375 31.296875 
Q 39.15625 29.25 43.1875 25.515625 
Q 47.21875 21.78125 47.21875 15.09375 
Q 47.21875 7.46875 41.1875 3.015625 
Q 35.15625 -1.421875 24.609375 -1.421875 
Q 20.21875 -1.421875 15.453125 -0.5625 
Q 10.6875 0.296875 5.421875 2 
L 5.421875 11.28125 
Q 10.40625 8.6875 15.234375 7.390625 
Q 20.0625 6.109375 24.8125 6.109375 
Q 31.15625 6.109375 34.5625 8.28125 
Q 37.984375 10.453125 37.984375 14.40625 
Q 37.984375 18.0625 35.515625 20.015625 
Q 33.0625 21.96875 24.703125 23.78125 
L 21.578125 24.515625 
Q 13.234375 26.265625 9.515625 29.90625 
Q 5.8125 33.546875 5.8125 39.890625 
Q 5.8125 47.609375 11.28125 51.796875 
Q 16.75 56 26.8125 56 
Q 31.78125 56 36.171875 55.265625 
Q 40.578125 54.546875 44.28125 53.078125 
z
" id="DejaVuSans-115"/>
      </defs>
      <use xlink:href="#DejaVuSans-84"/>
      <use x="57.958984" xlink:href="#DejaVuSans-105"/>
      <use x="85.742188" xlink:href="#DejaVuSans-109"/>
      <use x="183.154297" xlink:href="#DejaVuSans-101"/>
      <use x="244.677734" xlink:href="#DejaVuSans-44"/>
      <use x="276.464844" xlink:href="#DejaVuSans-32"/>
      <use x="308.251953" xlink:href="#DejaVuSans-109"/>
      <use x="405.664062" xlink:href="#DejaVuSans-115"/>
     </g>
    </g>
   </g>
   <g id="line2d_14">
    <path clip-path="url(#p63fa0ff577)" d="M 276.872727 712.424348 
L 277.51383 738.72 
L 278.154933 738.72 
L 278.796036 712.424348 
L 279.437139 738.72 
L 280.078242 705.850435 
L 280.719345 738.72 
L 281.360448 738.72 
L 282.001551 712.424348 
L 282.642654 712.424348 
L 283.283757 738.72 
L 285.848169 738.72 
L 286.489272 705.850435 
L 287.130375 712.424348 
L 287.771478 738.72 
L 291.618096 738.72 
L 292.259199 712.424348 
L 292.900302 738.72 
L 296.746919 738.72 
L 297.388022 712.424348 
L 298.029125 738.72 
L 298.670228 738.72 
L 299.311331 712.424348 
L 299.952434 712.424348 
L 300.593537 738.72 
L 301.23464 712.424348 
L 301.875743 738.72 
L 302.516846 712.424348 
L 303.157949 738.72 
L 305.081258 738.72 
L 305.722361 705.850435 
L 306.363464 738.72 
L 308.927876 738.72 
L 309.568979 712.424348 
L 310.210082 738.72 
L 311.492288 738.72 
L 312.133391 712.424348 
L 312.774494 738.72 
L 317.262215 738.72 
L 317.903318 705.850435 
L 318.544421 679.554783 
L 319.185523 679.554783 
L 319.826626 653.25913 
L 320.467729 692.702609 
L 321.108832 679.554783 
L 321.749935 718.998261 
L 322.391038 600.667826 
L 323.032141 738.72 
L 323.673244 718.998261 
L 324.314347 679.554783 
L 324.95545 712.424348 
L 325.596553 712.424348 
L 326.237656 659.833043 
L 326.878759 653.25913 
L 327.519862 686.128696 
L 328.160965 653.25913 
L 328.802068 738.72 
L 332.007583 738.72 
L 332.648686 712.424348 
L 333.289789 738.72 
L 333.930892 705.850435 
L 334.571995 738.72 
L 335.213098 738.72 
L 335.854201 712.424348 
L 336.495304 738.72 
L 339.059716 738.72 
L 339.700819 712.424348 
L 340.983025 712.424348 
L 341.624128 738.72 
L 342.906333 738.72 
L 343.547436 712.424348 
L 344.188539 738.72 
L 348.035157 738.72 
L 348.67626 705.850435 
L 349.317363 712.424348 
L 349.958466 738.72 
L 350.599569 705.850435 
L 351.240672 738.72 
L 351.881775 738.72 
L 352.522878 705.850435 
L 353.163981 738.72 
L 353.805084 738.72 
L 354.446187 718.998261 
L 355.08729 712.424348 
L 355.728393 738.72 
L 361.49832 738.72 
L 362.139423 705.850435 
L 362.780526 738.72 
L 363.421629 712.424348 
L 364.062732 712.424348 
L 364.703835 738.72 
L 365.344938 712.424348 
L 365.98604 738.72 
L 366.627143 712.424348 
L 367.268246 712.424348 
L 367.909349 738.72 
L 368.550452 705.850435 
L 369.191555 712.424348 
L 369.832658 738.72 
L 373.038173 738.72 
L 373.679276 712.424348 
L 374.320379 738.72 
L 380.090306 738.72 
L 380.731409 712.424348 
L 381.372512 738.72 
L 382.013615 712.424348 
L 382.654718 705.850435 
L 383.295821 738.72 
L 383.936924 712.424348 
L 384.578027 738.72 
L 385.21913 738.72 
L 385.860233 705.850435 
L 386.501336 738.72 
L 387.142439 705.850435 
L 387.783542 712.424348 
L 388.424645 738.72 
L 389.065748 738.72 
L 389.70685 712.424348 
L 390.347953 738.72 
L 396.758983 738.72 
L 397.400086 712.424348 
L 398.041189 738.72 
L 401.887807 738.72 
L 402.52891 718.998261 
L 403.170013 738.72 
L 403.811116 712.424348 
L 404.452219 738.72 
L 405.093322 712.424348 
L 405.734425 738.72 
L 406.375528 738.72 
L 407.016631 718.998261 
L 407.657734 738.72 
L 415.350969 738.72 
L 415.992072 705.850435 
L 416.633175 738.72 
L 421.120896 738.72 
L 421.761999 718.998261 
L 422.403102 738.72 
L 424.967514 738.72 
L 425.608617 712.424348 
L 426.24972 712.424348 
L 426.890823 738.72 
L 429.455235 738.72 
L 430.096338 712.424348 
L 430.737441 738.72 
L 432.66075 738.72 
L 433.301853 712.424348 
L 433.942956 712.424348 
L 434.584059 738.72 
L 435.866265 738.72 
L 436.507368 712.424348 
L 437.14847 738.72 
L 440.995088 738.72 
L 441.636191 705.850435 
L 442.277294 738.72 
L 442.918397 738.72 
L 443.5595 712.424348 
L 444.200603 705.850435 
L 444.841706 738.72 
L 446.123912 738.72 
L 446.765015 705.850435 
L 447.406118 738.72 
L 448.047221 718.998261 
L 448.688324 705.850435 
L 449.329427 738.72 
L 451.893839 738.72 
L 452.534942 712.424348 
L 453.176045 738.72 
L 454.458251 738.72 
L 455.099354 718.998261 
L 455.740457 738.72 
L 460.228178 738.72 
L 460.86928 712.424348 
L 461.510383 738.72 
L 462.151486 718.998261 
L 462.792589 738.72 
L 464.074795 738.72 
L 464.715898 705.850435 
L 465.357001 712.424348 
L 465.998104 738.72 
L 468.562516 738.72 
L 469.203619 712.424348 
L 469.844722 738.72 
L 471.126928 738.72 
L 471.768031 705.850435 
L 472.409134 738.72 
L 473.050237 712.424348 
L 473.69134 738.72 
L 478.820164 738.72 
L 479.461267 705.850435 
L 480.10237 738.72 
L 480.743473 705.850435 
L 481.384576 738.72 
L 484.59009 738.72 
L 485.231193 712.424348 
L 485.872296 705.850435 
L 486.513399 738.72 
L 490.360017 738.72 
L 491.00112 705.850435 
L 491.642223 738.72 
L 492.283326 712.424348 
L 492.924429 738.72 
L 494.206635 738.72 
L 494.847738 718.998261 
L 495.488841 712.424348 
L 496.129944 738.72 
L 497.41215 738.72 
L 498.053253 712.424348 
L 498.694356 738.72 
L 499.335459 738.72 
L 499.976562 712.424348 
L 500.617665 738.72 
L 507.669798 738.72 
L 508.3109 712.424348 
L 508.952003 712.424348 
L 509.593106 738.72 
L 514.080827 738.72 
L 514.72193 705.850435 
L 515.363033 738.72 
L 516.004136 705.850435 
L 516.645239 705.850435 
L 517.286342 738.72 
L 517.927445 705.850435 
L 518.568548 712.424348 
L 519.209651 738.72 
L 519.850754 738.72 
L 520.491857 712.424348 
L 521.13296 718.998261 
L 521.774063 738.72 
L 523.056269 738.72 
L 523.697372 718.998261 
L 524.338475 738.72 
L 524.979578 712.424348 
L 525.620681 712.424348 
L 526.261784 738.72 
L 529.467299 738.72 
L 530.108402 712.424348 
L 530.749505 364.006957 
L 531.390607 705.850435 
L 532.03171 718.998261 
L 532.672813 712.424348 
L 533.313916 718.998261 
L 533.955019 738.72 
L 535.878328 738.72 
L 536.519431 712.424348 
L 537.160534 738.72 
L 537.801637 738.72 
L 538.44274 712.424348 
L 539.083843 738.72 
L 540.366049 738.72 
L 541.007152 712.424348 
L 541.648255 712.424348 
L 542.289358 738.72 
L 543.571564 738.72 
L 544.212667 712.424348 
L 544.85377 738.72 
L 545.494873 712.424348 
L 546.135976 738.72 
L 547.418182 738.72 
L 548.059285 712.424348 
L 549.341491 712.424348 
L 549.982594 738.72 
L 550.623697 686.128696 
L 551.2648 738.72 
L 551.905903 686.128696 
L 552.547006 679.554783 
L 553.188109 712.424348 
L 554.470315 712.424348 
L 555.111417 705.850435 
L 555.75252 705.850435 
L 556.393623 738.72 
L 557.034726 738.72 
L 557.675829 705.850435 
L 558.316932 738.72 
L 558.958035 712.424348 
L 559.599138 705.850435 
L 560.240241 738.72 
L 561.522447 738.72 
L 562.16355 705.850435 
L 562.804653 738.72 
L 564.086859 738.72 
L 564.727962 712.424348 
L 565.369065 738.72 
L 566.010168 705.850435 
L 566.651271 738.72 
L 567.292374 738.72 
L 567.933477 712.424348 
L 568.57458 712.424348 
L 569.215683 738.72 
L 569.856786 712.424348 
L 570.497889 705.850435 
L 571.138992 738.72 
L 572.421198 738.72 
L 573.062301 705.850435 
L 573.703404 738.72 
L 574.344507 738.72 
L 574.98561 705.850435 
L 575.626713 712.424348 
L 576.267816 712.424348 
L 576.908919 738.72 
L 577.550022 705.850435 
L 578.191125 738.72 
L 578.832227 738.72 
L 579.47333 712.424348 
L 580.114433 705.850435 
L 580.755536 738.72 
L 581.396639 718.998261 
L 582.037742 738.72 
L 582.678845 705.850435 
L 583.319948 712.424348 
L 583.961051 738.72 
L 586.525463 738.72 
L 587.166566 712.424348 
L 587.807669 738.72 
L 589.089875 738.72 
L 589.730978 712.424348 
L 590.372081 738.72 
L 591.013184 738.72 
L 591.654287 705.850435 
L 592.29539 712.424348 
L 592.936493 738.72 
L 596.783111 738.72 
L 597.424214 705.850435 
L 598.065317 738.72 
L 598.70642 712.424348 
L 599.347523 738.72 
L 599.988626 712.424348 
L 600.629729 738.72 
L 605.117449 738.72 
L 605.758552 712.424348 
L 606.399655 718.998261 
L 607.040758 738.72 
L 607.681861 712.424348 
L 608.322964 738.72 
L 608.964067 738.72 
L 609.60517 712.424348 
L 610.246273 738.72 
L 610.887376 712.424348 
L 611.528479 738.72 
L 612.810685 738.72 
L 613.451788 712.424348 
L 614.092891 738.72 
L 614.733994 738.72 
L 615.375097 712.424348 
L 616.0162 712.424348 
L 616.657303 718.998261 
L 617.298406 705.850435 
L 617.939509 705.850435 
L 618.580612 659.833043 
L 619.221715 548.076522 
L 619.862818 541.502609 
L 620.503921 679.554783 
L 621.145024 705.850435 
L 621.786127 686.128696 
L 622.42723 686.128696 
L 623.068333 488.911304 
L 623.709436 686.128696 
L 624.350539 607.241739 
L 624.991642 679.554783 
L 625.632745 705.850435 
L 626.273847 712.424348 
L 626.91495 712.424348 
L 627.556053 738.72 
L 628.197156 738.72 
L 628.838259 712.424348 
L 630.120465 712.424348 
L 630.761568 738.72 
L 631.402671 738.72 
L 632.043774 712.424348 
L 632.684877 738.72 
L 633.32598 738.72 
L 633.967083 712.424348 
L 634.608186 705.850435 
L 635.249289 705.850435 
L 635.890392 712.424348 
L 636.531495 705.850435 
L 637.172598 712.424348 
L 637.813701 738.72 
L 638.454804 712.424348 
L 639.095907 738.72 
L 640.378113 738.72 
L 641.660319 686.128696 
L 642.942525 738.72 
L 643.583628 718.998261 
L 644.224731 705.850435 
L 644.865834 705.850435 
L 645.506937 738.72 
L 646.789143 738.72 
L 647.430246 705.850435 
L 648.071349 738.72 
L 648.712452 712.424348 
L 650.63576 712.424348 
L 651.276863 705.850435 
L 651.917966 712.424348 
L 652.559069 686.128696 
L 653.200172 679.554783 
L 653.841275 686.128696 
L 654.482378 705.850435 
L 655.123481 712.424348 
L 655.764584 738.72 
L 656.405687 712.424348 
L 657.04679 738.72 
L 657.687893 738.72 
L 658.328996 712.424348 
L 658.970099 705.850435 
L 659.611202 705.850435 
L 660.252305 679.554783 
L 660.893408 712.424348 
L 661.534511 712.424348 
L 662.175614 738.72 
L 663.45782 738.72 
L 664.098923 712.424348 
L 664.740026 738.72 
L 665.381129 738.72 
L 666.022232 712.424348 
L 666.663335 738.72 
L 671.151056 738.72 
L 671.792159 718.998261 
L 672.433262 712.424348 
L 673.074364 692.702609 
L 673.715467 705.850435 
L 674.35657 705.850435 
L 674.997673 738.72 
L 676.279879 738.72 
L 676.920982 718.998261 
L 677.562085 705.850435 
L 678.203188 712.424348 
L 678.844291 738.72 
L 680.126497 738.72 
L 680.7676 679.554783 
L 681.408703 705.850435 
L 682.049806 738.72 
L 682.690909 718.998261 
L 683.332012 738.72 
L 683.973115 705.850435 
L 684.614218 738.72 
L 685.896424 738.72 
L 686.537527 712.424348 
L 687.17863 712.424348 
L 687.819733 738.72 
L 688.460836 705.850435 
L 689.101939 738.72 
L 689.743042 718.998261 
L 690.384145 738.72 
L 691.025248 738.72 
L 691.666351 712.424348 
L 692.307454 712.424348 
L 692.948557 738.72 
L 694.871866 738.72 
L 695.512969 705.850435 
L 696.154072 738.72 
L 696.795174 712.424348 
L 697.436277 738.72 
L 698.07738 712.424348 
L 700.000689 712.424348 
L 700.641792 718.998261 
L 701.282895 712.424348 
L 701.923998 686.128696 
L 703.206204 738.72 
L 703.847307 738.72 
L 704.48841 712.424348 
L 705.129513 738.72 
L 705.770616 712.424348 
L 706.411719 738.72 
L 707.052822 705.850435 
L 707.693925 712.424348 
L 708.335028 705.850435 
L 708.976131 712.424348 
L 710.258337 712.424348 
L 710.89944 738.72 
L 711.540543 712.424348 
L 712.181646 705.850435 
L 713.463852 718.998261 
L 714.104955 738.72 
L 714.746058 705.850435 
L 715.387161 738.72 
L 716.028264 712.424348 
L 716.669367 738.72 
L 717.951573 738.72 
L 718.592676 712.424348 
L 719.233779 738.72 
L 719.874882 718.998261 
L 720.515984 738.72 
L 721.79819 738.72 
L 722.439293 712.424348 
L 723.080396 712.424348 
L 723.721499 705.850435 
L 724.362602 712.424348 
L 725.003705 712.424348 
L 725.644808 738.72 
L 726.927014 738.72 
L 727.568117 712.424348 
L 728.20922 712.424348 
L 728.850323 738.72 
L 729.491426 705.850435 
L 730.132529 712.424348 
L 730.773632 738.72 
L 731.414735 738.72 
L 732.055838 712.424348 
L 734.62025 712.424348 
L 735.261353 738.72 
L 737.184662 738.72 
L 737.825765 705.850435 
L 738.466868 738.72 
L 739.107971 738.72 
L 739.749074 712.424348 
L 740.390177 738.72 
L 741.03128 705.850435 
L 741.672383 738.72 
L 742.954589 738.72 
L 743.595692 718.998261 
L 744.236794 705.850435 
L 744.877897 718.998261 
L 745.519 712.424348 
L 746.160103 738.72 
L 746.801206 712.424348 
L 747.442309 712.424348 
L 748.083412 738.72 
L 749.365618 738.72 
L 750.006721 712.424348 
L 750.647824 738.72 
L 751.288927 712.424348 
L 751.93003 738.72 
L 752.571133 738.72 
L 753.212236 705.850435 
L 753.853339 712.424348 
L 754.494442 738.72 
L 755.776648 738.72 
L 756.417751 712.424348 
L 757.058854 738.72 
L 757.699957 712.424348 
L 759.623266 712.424348 
L 760.264369 738.72 
L 761.546575 738.72 
L 762.187678 712.424348 
L 762.828781 712.424348 
L 763.469884 705.850435 
L 764.110987 738.72 
L 764.75209 686.128696 
L 765.393193 712.424348 
L 766.034296 712.424348 
L 766.675399 705.850435 
L 767.316502 712.424348 
L 767.957604 705.850435 
L 769.23981 705.850435 
L 769.880913 712.424348 
L 770.522016 712.424348 
L 771.163119 738.72 
L 772.445325 738.72 
L 773.086428 712.424348 
L 773.727531 738.72 
L 774.368634 712.424348 
L 775.009737 738.72 
L 775.65084 738.72 
L 776.291943 712.424348 
L 776.933046 738.72 
L 778.215252 738.72 
L 778.856355 705.850435 
L 779.497458 738.72 
L 780.138561 712.424348 
L 780.779664 738.72 
L 782.702973 738.72 
L 783.344076 705.850435 
L 783.985179 738.72 
L 784.626282 712.424348 
L 785.267385 718.998261 
L 785.908488 712.424348 
L 786.549591 738.72 
L 787.190694 738.72 
L 787.831797 712.424348 
L 788.4729 738.72 
L 793.601723 738.72 
L 794.242826 705.850435 
L 794.883929 738.72 
L 796.166135 738.72 
L 796.807238 705.850435 
L 797.448341 738.72 
L 799.37165 738.72 
L 800.012753 718.998261 
L 800.653856 738.72 
L 801.936062 738.72 
L 802.577165 718.998261 
L 803.218268 738.72 
L 804.500474 738.72 
L 805.141577 712.424348 
L 805.78268 738.72 
L 807.064886 738.72 
L 807.705989 718.998261 
L 808.347092 705.850435 
L 808.988195 712.424348 
L 809.629298 738.72 
L 812.834813 738.72 
L 813.475916 718.998261 
L 814.117019 738.72 
L 814.758121 712.424348 
L 815.399224 712.424348 
L 816.040327 738.72 
L 816.68143 738.72 
L 817.322533 712.424348 
L 817.963636 738.72 
L 818.604739 712.424348 
L 819.245842 692.702609 
L 819.886945 712.424348 
L 820.528048 738.72 
L 821.169151 705.850435 
L 821.810254 738.72 
L 822.451357 712.424348 
L 823.09246 738.72 
L 823.733563 712.424348 
L 824.374666 738.72 
L 833.991211 738.72 
L 834.632314 712.424348 
L 835.273417 738.72 
L 835.91452 738.72 
L 836.555623 705.850435 
L 837.196726 738.72 
L 837.837829 712.424348 
L 838.478931 738.72 
L 839.120034 712.424348 
L 839.761137 738.72 
L 842.966652 738.72 
L 843.607755 712.424348 
L 844.248858 712.424348 
L 844.889961 738.72 
L 845.531064 705.850435 
L 846.172167 718.998261 
L 846.81327 738.72 
L 850.659888 738.72 
L 851.300991 712.424348 
L 851.942094 738.72 
L 856.429815 738.72 
L 857.070918 712.424348 
L 857.712021 738.72 
L 858.353124 712.424348 
L 858.994227 738.72 
L 859.63533 738.72 
L 860.276433 705.850435 
L 860.917536 738.72 
L 865.405256 738.72 
L 866.046359 712.424348 
L 866.687462 712.424348 
L 867.328565 738.72 
L 873.098492 738.72 
L 873.739595 712.424348 
L 874.380698 738.72 
L 875.021801 712.424348 
L 875.662904 738.72 
L 876.304007 738.72 
L 876.94511 705.850435 
L 877.586213 712.424348 
L 878.227316 738.72 
L 879.509522 738.72 
L 880.150625 712.424348 
L 880.791728 738.72 
L 885.920551 738.72 
L 886.561654 712.424348 
L 887.202757 718.998261 
L 887.84386 738.72 
L 888.484963 738.72 
L 889.126066 718.998261 
L 889.767169 718.998261 
L 890.408272 738.72 
L 891.049375 712.424348 
L 891.690478 738.72 
L 892.331581 705.850435 
L 892.972684 738.72 
L 893.613787 712.424348 
L 894.25489 738.72 
L 898.101508 738.72 
L 898.742611 712.424348 
L 899.383714 738.72 
L 900.024817 738.72 
L 900.66592 712.424348 
L 902.589229 712.424348 
L 903.230332 738.72 
L 903.871435 738.72 
L 905.153641 686.128696 
L 905.794744 705.850435 
L 906.435847 653.25913 
L 907.07695 712.424348 
L 907.718053 738.72 
L 908.359156 712.424348 
L 909.000259 712.424348 
L 909.641361 705.850435 
L 910.282464 738.72 
L 910.923567 712.424348 
L 911.56467 738.72 
L 912.205773 712.424348 
L 912.846876 738.72 
L 914.770185 738.72 
L 915.411288 712.424348 
L 916.052391 705.850435 
L 916.693494 712.424348 
L 918.616803 712.424348 
L 919.257906 738.72 
L 924.38673 738.72 
L 925.027833 712.424348 
L 925.668936 738.72 
L 926.310039 712.424348 
L 926.951142 738.72 
L 936.567686 738.72 
L 937.208789 712.424348 
L 937.849892 738.72 
L 938.490995 712.424348 
L 939.132098 738.72 
L 942.978716 738.72 
L 943.619819 712.424348 
L 944.260922 712.424348 
L 944.902025 738.72 
L 945.543128 712.424348 
L 946.184231 738.72 
L 946.825334 738.72 
L 947.466437 712.424348 
L 948.10754 738.72 
L 948.748643 738.72 
L 949.389746 712.424348 
L 950.030849 712.424348 
L 950.671952 738.72 
L 951.313055 712.424348 
L 951.954158 738.72 
L 952.595261 712.424348 
L 953.236364 738.72 
L 954.51857 738.72 
L 955.159673 718.998261 
L 955.800776 738.72 
L 957.724084 738.72 
L 958.365187 712.424348 
L 959.00629 738.72 
L 960.288496 738.72 
L 960.929599 712.424348 
L 961.570702 738.72 
L 962.211805 738.72 
L 962.852908 712.424348 
L 963.494011 712.424348 
L 964.135114 738.72 
L 964.776217 712.424348 
L 965.41732 738.72 
L 966.058423 712.424348 
L 966.699526 738.72 
L 967.981732 738.72 
L 968.622835 712.424348 
L 969.263938 738.72 
L 970.546144 738.72 
L 971.187247 712.424348 
L 971.82835 705.850435 
L 972.469453 738.72 
L 974.392762 738.72 
L 975.033865 712.424348 
L 976.316071 712.424348 
L 976.957174 738.72 
L 980.803791 738.72 
L 981.444894 712.424348 
L 982.085997 738.72 
L 984.650409 738.72 
L 985.291512 712.424348 
L 985.932615 738.72 
L 986.573718 712.424348 
L 987.214821 712.424348 
L 987.855924 738.72 
L 988.497027 712.424348 
L 989.13813 738.72 
L 989.779233 705.850435 
L 990.420336 738.72 
L 991.061439 712.424348 
L 991.702542 738.72 
L 992.343645 738.72 
L 992.984748 712.424348 
L 993.625851 738.72 
L 994.908057 738.72 
L 995.54916 712.424348 
L 996.190263 239.102609 
L 996.831366 705.850435 
L 997.472469 738.72 
L 998.113572 718.998261 
L 999.395778 705.850435 
L 1000.036881 738.72 
L 1000.677984 705.850435 
L 1001.319087 738.72 
L 1001.96019 712.424348 
L 1002.601293 738.72 
L 1003.242396 738.72 
L 1003.883498 712.424348 
L 1004.524601 738.72 
L 1007.089013 738.72 
L 1007.730116 705.850435 
L 1008.371219 718.998261 
L 1009.012322 712.424348 
L 1009.653425 738.72 
L 1012.85894 738.72 
L 1013.500043 712.424348 
L 1014.141146 705.850435 
L 1014.782249 738.72 
L 1016.705558 738.72 
L 1017.346661 718.998261 
L 1017.987764 738.72 
L 1021.193279 738.72 
L 1021.834382 712.424348 
L 1022.475485 738.72 
L 1023.116588 712.424348 
L 1023.757691 738.72 
L 1025.681 738.72 
L 1026.322103 712.424348 
L 1026.963206 738.72 
L 1027.604308 712.424348 
L 1028.245411 738.72 
L 1031.450926 738.72 
L 1032.092029 718.998261 
L 1032.733132 738.72 
L 1035.938647 738.72 
L 1036.57975 718.998261 
L 1037.220853 705.850435 
L 1037.861956 712.424348 
L 1038.503059 738.72 
L 1041.067471 738.72 
L 1041.708574 712.424348 
L 1042.349677 738.72 
L 1044.272986 738.72 
L 1044.914089 712.424348 
L 1045.555192 738.72 
L 1046.196295 738.72 
L 1046.837398 718.998261 
L 1047.478501 738.72 
L 1048.119604 738.72 
L 1048.760707 712.424348 
L 1049.40181 738.72 
L 1050.042913 712.424348 
L 1050.684016 738.72 
L 1051.325118 718.998261 
L 1051.966221 712.424348 
L 1053.248427 712.424348 
L 1053.88953 738.72 
L 1055.171736 738.72 
L 1055.812839 712.424348 
L 1056.453942 738.72 
L 1057.095045 738.72 
L 1057.736148 712.424348 
L 1058.377251 705.850435 
L 1059.018354 738.72 
L 1060.941663 738.72 
L 1061.582766 712.424348 
L 1062.223869 738.72 
L 1064.147178 738.72 
L 1064.788281 712.424348 
L 1065.429384 738.72 
L 1066.070487 712.424348 
L 1066.71159 738.72 
L 1069.276002 738.72 
L 1069.917105 712.424348 
L 1070.558208 712.424348 
L 1071.199311 738.72 
L 1071.840414 738.72 
L 1072.481517 712.424348 
L 1073.12262 738.72 
L 1074.404826 738.72 
L 1075.045928 712.424348 
L 1075.687031 738.72 
L 1076.328134 712.424348 
L 1076.969237 738.72 
L 1077.61034 705.850435 
L 1078.251443 705.850435 
L 1078.892546 712.424348 
L 1079.533649 738.72 
L 1080.174752 738.72 
L 1080.815855 712.424348 
L 1081.456958 738.72 
L 1082.098061 705.850435 
L 1082.739164 738.72 
L 1083.380267 738.72 
L 1084.02137 712.424348 
L 1084.662473 738.72 
L 1085.944679 738.72 
L 1086.585782 712.424348 
L 1087.226885 738.72 
L 1096.84343 738.72 
L 1097.484533 705.850435 
L 1098.125636 686.128696 
L 1098.766738 686.128696 
L 1099.407841 738.72 
L 1100.048944 718.998261 
L 1100.690047 705.850435 
L 1101.33115 718.998261 
L 1101.972253 738.72 
L 1103.254459 738.72 
L 1103.895562 712.424348 
L 1104.536665 738.72 
L 1105.177768 712.424348 
L 1105.818871 705.850435 
L 1106.459974 738.72 
L 1107.74218 738.72 
L 1108.383283 712.424348 
L 1109.024386 738.72 
L 1109.665489 712.424348 
L 1110.306592 738.72 
L 1111.588798 738.72 
L 1112.229901 712.424348 
L 1112.871004 738.72 
L 1113.512107 712.424348 
L 1114.15321 738.72 
L 1114.794313 738.72 
L 1115.435416 705.850435 
L 1116.076519 738.72 
L 1116.717622 712.424348 
L 1117.358725 738.72 
L 1120.56424 738.72 
L 1121.205343 705.850435 
L 1121.846445 738.72 
L 1125.05196 738.72 
L 1125.693063 718.998261 
L 1126.334166 738.72 
L 1126.975269 738.72 
L 1127.616372 712.424348 
L 1128.257475 738.72 
L 1128.898578 712.424348 
L 1129.539681 738.72 
L 1130.180784 738.72 
L 1130.821887 712.424348 
L 1131.46299 738.72 
L 1132.104093 705.850435 
L 1132.745196 738.72 
L 1134.027402 738.72 
L 1134.668505 718.998261 
L 1135.309608 738.72 
L 1135.950711 705.850435 
L 1136.591814 738.72 
L 1144.926153 738.72 
L 1145.567255 705.850435 
L 1146.208358 738.72 
L 1149.413873 738.72 
L 1150.054976 712.424348 
L 1150.696079 738.72 
L 1151.337182 712.424348 
L 1151.978285 738.72 
L 1154.542697 738.72 
L 1155.1838 712.424348 
L 1155.824903 712.424348 
L 1156.466006 738.72 
L 1162.877036 738.72 
L 1163.518139 712.424348 
L 1164.159242 738.72 
L 1164.800345 705.850435 
L 1165.441448 738.72 
L 1166.723654 738.72 
L 1167.364757 712.424348 
L 1168.00586 738.72 
L 1168.646963 738.72 
L 1169.288065 712.424348 
L 1169.929168 712.424348 
L 1170.570271 738.72 
L 1173.775786 738.72 
L 1174.416889 705.850435 
L 1175.057992 738.72 
L 1176.340198 738.72 
L 1176.981301 712.424348 
L 1177.622404 712.424348 
L 1178.263507 738.72 
L 1178.90461 712.424348 
L 1179.545713 738.72 
L 1186.597846 738.72 
L 1187.238949 712.424348 
L 1187.880052 738.72 
L 1188.521155 712.424348 
L 1189.162258 738.72 
L 1189.803361 718.998261 
L 1190.444464 738.72 
L 1192.367773 738.72 
L 1193.008875 712.424348 
L 1193.649978 705.850435 
L 1194.291081 712.424348 
L 1194.932184 738.72 
L 1195.573287 705.850435 
L 1196.21439 738.72 
L 1196.855493 705.850435 
L 1197.496596 738.72 
L 1199.419905 738.72 
L 1200.061008 712.424348 
L 1201.343214 712.424348 
L 1201.984317 738.72 
L 1203.907626 738.72 
L 1204.548729 712.424348 
L 1205.189832 712.424348 
L 1205.830935 659.833043 
L 1206.472038 679.554783 
L 1207.113141 712.424348 
L 1207.754244 521.78087 
L 1208.395347 692.702609 
L 1209.03645 705.850435 
L 1209.677553 738.72 
L 1210.318656 541.502609 
L 1210.959759 686.128696 
L 1212.241965 738.72 
L 1212.883068 712.424348 
L 1213.524171 679.554783 
L 1214.165274 712.424348 
L 1214.806377 712.424348 
L 1215.44748 705.850435 
L 1216.088583 738.72 
L 1223.781818 738.72 
L 1224.422921 712.424348 
L 1225.064024 738.72 
L 1228.269539 738.72 
L 1228.910642 718.998261 
L 1229.551745 738.72 
L 1230.192848 712.424348 
L 1231.475054 712.424348 
L 1232.116157 738.72 
L 1234.680569 738.72 
L 1235.321672 712.424348 
L 1235.962775 738.72 
L 1237.886084 738.72 
L 1238.527187 712.424348 
L 1239.16829 738.72 
L 1239.809393 705.850435 
L 1240.450495 738.72 
L 1241.091598 712.424348 
L 1241.732701 738.72 
L 1242.373804 712.424348 
L 1244.938216 712.424348 
L 1245.579319 738.72 
L 1246.220422 738.72 
L 1246.861525 712.424348 
L 1247.502628 718.998261 
L 1248.143731 705.850435 
L 1248.784834 738.72 
L 1249.425937 712.424348 
L 1250.06704 738.72 
L 1251.349246 738.72 
L 1251.990349 705.850435 
L 1252.631452 738.72 
L 1254.554761 738.72 
L 1255.195864 712.424348 
L 1256.47807 712.424348 
L 1257.119173 738.72 
L 1257.760276 712.424348 
L 1258.401379 738.72 
L 1259.042482 712.424348 
L 1259.683585 738.72 
L 1262.247997 738.72 
L 1262.8891 712.424348 
L 1263.530202 738.72 
L 1264.171305 738.72 
L 1264.812408 712.424348 
L 1265.453511 738.72 
L 1266.735717 738.72 
L 1267.37682 705.850435 
L 1268.017923 738.72 
L 1268.659026 705.850435 
L 1269.300129 712.424348 
L 1269.941232 712.424348 
L 1270.582335 738.72 
L 1277.634468 738.72 
L 1278.275571 718.998261 
L 1278.916674 738.72 
L 1279.557777 712.424348 
L 1280.19888 738.72 
L 1280.839983 712.424348 
L 1281.481086 738.72 
L 1282.763292 738.72 
L 1283.404395 712.424348 
L 1284.045498 738.72 
L 1284.686601 738.72 
L 1285.327704 712.424348 
L 1285.968807 738.72 
L 1286.60991 738.72 
L 1287.251012 705.850435 
L 1287.892115 738.72 
L 1289.815424 738.72 
L 1290.456527 705.850435 
L 1291.09763 738.72 
L 1291.738733 738.72 
L 1292.379836 712.424348 
L 1293.662042 712.424348 
L 1294.303145 738.72 
L 1294.944248 712.424348 
L 1295.585351 705.850435 
L 1296.226454 705.850435 
L 1296.867557 738.72 
L 1297.50866 738.72 
L 1298.149763 712.424348 
L 1298.790866 738.72 
L 1302.637484 738.72 
L 1303.278587 705.850435 
L 1303.91969 239.102609 
L 1304.560793 738.72 
L 1305.201896 712.424348 
L 1306.484102 712.424348 
L 1307.125205 738.72 
L 1307.766308 738.72 
L 1308.407411 705.850435 
L 1309.048514 738.72 
L 1309.689617 705.850435 
L 1310.33072 718.998261 
L 1310.971822 738.72 
L 1313.536234 738.72 
L 1314.177337 712.424348 
L 1315.459543 712.424348 
L 1316.100646 738.72 
L 1321.870573 738.72 
L 1322.511676 705.850435 
L 1323.152779 133.92 
L 1323.793882 738.72 
L 1330.204912 738.72 
L 1330.846015 712.424348 
L 1331.487118 738.72 
L 1332.769324 738.72 
L 1333.410427 705.850435 
L 1334.05153 738.72 
L 1335.333735 738.72 
L 1335.974838 705.850435 
L 1336.615941 738.72 
L 1337.257044 712.424348 
L 1337.898147 738.72 
L 1338.53925 738.72 
L 1339.180353 705.850435 
L 1339.821456 738.72 
L 1341.103662 738.72 
L 1341.744765 705.850435 
L 1342.385868 738.72 
L 1346.873589 738.72 
L 1347.514692 705.850435 
L 1348.155795 712.424348 
L 1348.796898 738.72 
L 1350.720207 738.72 
L 1351.36131 705.850435 
L 1352.002413 738.72 
L 1352.643516 712.424348 
L 1353.284619 738.72 
L 1355.207928 738.72 
L 1355.849031 712.424348 
L 1356.490134 738.72 
L 1357.77234 738.72 
L 1358.413442 718.998261 
L 1359.054545 738.72 
L 1360.336751 738.72 
L 1360.977854 712.424348 
L 1361.618957 712.424348 
L 1362.26006 705.850435 
L 1362.901163 738.72 
L 1364.183369 738.72 
L 1364.824472 705.850435 
L 1365.465575 738.72 
L 1366.106678 738.72 
L 1366.747781 712.424348 
L 1367.388884 738.72 
L 1368.67109 738.72 
L 1369.312193 718.998261 
L 1369.953296 738.72 
L 1371.876605 738.72 
L 1372.517708 712.424348 
L 1373.158811 712.424348 
L 1373.799914 738.72 
L 1374.441017 738.72 
L 1375.08212 718.998261 
L 1375.723223 705.850435 
L 1376.364326 738.72 
L 1377.005429 712.424348 
L 1377.646532 718.998261 
L 1378.287635 738.72 
L 1378.928738 718.998261 
L 1379.569841 705.850435 
L 1380.210944 686.128696 
L 1380.852047 679.554783 
L 1381.49315 738.72 
L 1382.134252 712.424348 
L 1382.775355 712.424348 
L 1383.416458 705.850435 
L 1384.057561 712.424348 
L 1384.698664 712.424348 
L 1385.339767 738.72 
L 1385.98087 712.424348 
L 1386.621973 712.424348 
L 1387.263076 738.72 
L 1387.904179 712.424348 
L 1388.545282 659.833043 
L 1389.186385 712.424348 
L 1389.827488 738.72 
L 1391.750797 738.72 
L 1392.3919 712.424348 
L 1393.033003 712.424348 
L 1393.674106 705.850435 
L 1394.315209 712.424348 
L 1394.956312 738.72 
L 1395.597415 738.72 
L 1396.238518 462.615652 
L 1396.879621 705.850435 
L 1397.520724 653.25913 
L 1398.161827 712.424348 
L 1399.444033 712.424348 
L 1400.085136 705.850435 
L 1400.726239 738.72 
L 1403.290651 738.72 
L 1403.931754 718.998261 
L 1404.572857 738.72 
L 1405.21396 705.850435 
L 1405.855062 705.850435 
L 1406.496165 738.72 
L 1407.137268 712.424348 
L 1407.778371 738.72 
L 1408.419474 738.72 
L 1409.060577 705.850435 
L 1409.70168 738.72 
L 1410.342783 705.850435 
L 1410.983886 738.72 
L 1412.266092 738.72 
L 1412.907195 705.850435 
L 1413.548298 712.424348 
L 1414.189401 738.72 
L 1414.830504 738.72 
L 1415.471607 712.424348 
L 1417.394916 712.424348 
L 1418.036019 705.850435 
L 1418.677122 738.72 
L 1419.318225 738.72 
L 1419.959328 712.424348 
L 1420.600431 712.424348 
L 1421.241534 738.72 
L 1422.52374 738.72 
L 1423.164843 712.424348 
L 1423.805946 705.850435 
L 1424.447049 705.850435 
L 1425.088152 738.72 
L 1425.729255 738.72 
L 1426.370358 705.850435 
L 1427.011461 712.424348 
L 1427.652564 738.72 
L 1428.293667 712.424348 
L 1428.934769 738.72 
L 1429.575872 705.850435 
L 1430.216975 738.72 
L 1431.499181 738.72 
L 1432.140284 712.424348 
L 1432.781387 712.424348 
L 1433.42249 659.833043 
L 1434.063593 679.554783 
L 1434.704696 679.554783 
L 1435.345799 712.424348 
L 1435.986902 738.72 
L 1436.628005 712.424348 
L 1437.269108 738.72 
L 1437.910211 738.72 
L 1438.551314 712.424348 
L 1439.192417 712.424348 
L 1439.83352 738.72 
L 1441.756829 738.72 
L 1442.397932 679.554783 
L 1443.039035 738.72 
L 1443.680138 705.850435 
L 1444.321241 738.72 
L 1444.962344 712.424348 
L 1445.603447 738.72 
L 1448.167859 738.72 
L 1448.808962 712.424348 
L 1449.450065 738.72 
L 1450.091168 712.424348 
L 1450.732271 738.72 
L 1453.937785 738.72 
L 1454.578888 712.424348 
L 1455.219991 738.72 
L 1455.861094 738.72 
L 1456.502197 712.424348 
L 1457.1433 738.72 
L 1458.425506 738.72 
L 1459.066609 712.424348 
L 1459.707712 738.72 
L 1468.683154 738.72 
L 1469.324257 712.424348 
L 1469.96536 738.72 
L 1470.606463 738.72 
L 1471.247566 705.850435 
L 1473.170875 705.850435 
L 1473.811978 712.424348 
L 1474.453081 738.72 
L 1475.094184 738.72 
L 1475.735287 686.128696 
L 1476.376389 705.850435 
L 1477.017492 738.72 
L 1477.658595 679.554783 
L 1478.299698 692.702609 
L 1478.940801 712.424348 
L 1479.581904 738.72 
L 1480.223007 712.424348 
L 1482.146316 712.424348 
L 1482.787419 738.72 
L 1484.710728 738.72 
L 1485.351831 705.850435 
L 1485.992934 738.72 
L 1487.27514 738.72 
L 1487.916243 705.850435 
L 1488.557346 738.72 
L 1489.198449 738.72 
L 1489.839552 712.424348 
L 1490.480655 738.72 
L 1494.327273 738.72 
L 1494.327273 738.72 
" style="fill:none;stroke:#1f77b4;stroke-linecap:square;stroke-width:1.5;"/>
   </g>
   <g id="line2d_15">
    <path clip-path="url(#p63fa0ff577)" d="M 276.872727 727.087652 
L 1494.327273 725.087762 
L 1494.327273 725.087762 
" style="fill:none;stroke:#ff7f0e;stroke-linecap:square;stroke-width:1.5;"/>
   </g>
   <g id="patch_3">
    <path d="M 216 768.96 
L 216 103.68 
" style="fill:none;stroke:#000000;stroke-linecap:square;stroke-linejoin:miter;stroke-width:0.8;"/>
   </g>
   <g id="patch_4">
    <path d="M 1555.2 768.96 
L 1555.2 103.68 
" style="fill:none;stroke:#000000;stroke-linecap:square;stroke-linejoin:miter;stroke-width:0.8;"/>
   </g>
   <g id="patch_5">
    <path d="M 216 768.96 
L 1555.2 768.96 
" style="fill:none;stroke:#000000;stroke-linecap:square;stroke-linejoin:miter;stroke-width:0.8;"/>
   </g>
   <g id="patch_6">
    <path d="M 216 103.68 
L 1555.2 103.68 
" style="fill:none;stroke:#000000;stroke-linecap:square;stroke-linejoin:miter;stroke-width:0.8;"/>
   </g>
   <g id="legend_1">
    <g id="patch_7">
     <path d="M 1421.748437 141.03625 
L 1548.2 141.03625 
Q 1550.2 141.03625 1550.2 139.03625 
L 1550.2 110.68 
Q 1550.2 108.68 1548.2 108.68 
L 1421.748437 108.68 
Q 1419.748437 108.68 1419.748437 110.68 
L 1419.748437 139.03625 
Q 1419.748437 141.03625 1421.748437 141.03625 
z
" style="fill:#ffffff;opacity:0.8;stroke:#cccccc;stroke-linejoin:miter;"/>
    </g>
    <g id="line2d_16">
     <path d="M 1423.748437 116.778437 
L 1443.748437 116.778437 
" style="fill:none;stroke:#1f77b4;stroke-linecap:square;stroke-width:1.5;"/>
    </g>
    <g id="line2d_17"/>
    <g id="text_16">
     <!-- Experiment results -->
     <g transform="translate(1451.748437 120.278437)scale(0.1 -0.1)">
      <defs>
       <path d="M 9.8125 72.90625 
L 55.90625 72.90625 
L 55.90625 64.59375 
L 19.671875 64.59375 
L 19.671875 43.015625 
L 54.390625 43.015625 
L 54.390625 34.71875 
L 19.671875 34.71875 
L 19.671875 8.296875 
L 56.78125 8.296875 
L 56.78125 0 
L 9.8125 0 
z
" id="DejaVuSans-69"/>
       <path d="M 54.890625 54.6875 
L 35.109375 28.078125 
L 55.90625 0 
L 45.3125 0 
L 29.390625 21.484375 
L 13.484375 0 
L 2.875 0 
L 24.125 28.609375 
L 4.6875 54.6875 
L 15.28125 54.6875 
L 29.78125 35.203125 
L 44.28125 54.6875 
z
" id="DejaVuSans-120"/>
       <path d="M 18.109375 8.203125 
L 18.109375 -20.796875 
L 9.078125 -20.796875 
L 9.078125 54.6875 
L 18.109375 54.6875 
L 18.109375 46.390625 
Q 20.953125 51.265625 25.265625 53.625 
Q 29.59375 56 35.59375 56 
Q 45.5625 56 51.78125 48.09375 
Q 58.015625 40.1875 58.015625 27.296875 
Q 58.015625 14.40625 51.78125 6.484375 
Q 45.5625 -1.421875 35.59375 -1.421875 
Q 29.59375 -1.421875 25.265625 0.953125 
Q 20.953125 3.328125 18.109375 8.203125 
z
M 48.6875 27.296875 
Q 48.6875 37.203125 44.609375 42.84375 
Q 40.53125 48.484375 33.40625 48.484375 
Q 26.265625 48.484375 22.1875 42.84375 
Q 18.109375 37.203125 18.109375 27.296875 
Q 18.109375 17.390625 22.1875 11.75 
Q 26.265625 6.109375 33.40625 6.109375 
Q 40.53125 6.109375 44.609375 11.75 
Q 48.6875 17.390625 48.6875 27.296875 
z
" id="DejaVuSans-112"/>
       <path d="M 8.5 21.578125 
L 8.5 54.6875 
L 17.484375 54.6875 
L 17.484375 21.921875 
Q 17.484375 14.15625 20.5 10.265625 
Q 23.53125 6.390625 29.59375 6.390625 
Q 36.859375 6.390625 41.078125 11.03125 
Q 45.3125 15.671875 45.3125 23.6875 
L 45.3125 54.6875 
L 54.296875 54.6875 
L 54.296875 0 
L 45.3125 0 
L 45.3125 8.40625 
Q 42.046875 3.421875 37.71875 1 
Q 33.40625 -1.421875 27.6875 -1.421875 
Q 18.265625 -1.421875 13.375 4.4375 
Q 8.5 10.296875 8.5 21.578125 
z
M 31.109375 56 
z
" id="DejaVuSans-117"/>
      </defs>
      <use xlink:href="#DejaVuSans-69"/>
      <use x="63.183594" xlink:href="#DejaVuSans-120"/>
      <use x="122.363281" xlink:href="#DejaVuSans-112"/>
      <use x="185.839844" xlink:href="#DejaVuSans-101"/>
      <use x="247.363281" xlink:href="#DejaVuSans-114"/>
      <use x="288.476562" xlink:href="#DejaVuSans-105"/>
      <use x="316.259766" xlink:href="#DejaVuSans-109"/>
      <use x="413.671875" xlink:href="#DejaVuSans-101"/>
      <use x="475.195312" xlink:href="#DejaVuSans-110"/>
      <use x="538.574219" xlink:href="#DejaVuSans-116"/>
      <use x="577.783203" xlink:href="#DejaVuSans-32"/>
      <use x="609.570312" xlink:href="#DejaVuSans-114"/>
      <use x="648.433594" xlink:href="#DejaVuSans-101"/>
      <use x="709.957031" xlink:href="#DejaVuSans-115"/>
      <use x="762.056641" xlink:href="#DejaVuSans-117"/>
      <use x="825.435547" xlink:href="#DejaVuSans-108"/>
      <use x="853.21875" xlink:href="#DejaVuSans-116"/>
      <use x="892.427734" xlink:href="#DejaVuSans-115"/>
     </g>
    </g>
    <g id="line2d_18">
     <path d="M 1423.748437 131.456563 
L 1443.748437 131.456563 
" style="fill:none;stroke:#ff7f0e;stroke-linecap:square;stroke-width:1.5;"/>
    </g>
    <g id="line2d_19"/>
    <g id="text_17">
     <!-- Approximation -->
     <g transform="translate(1451.748437 134.956563)scale(0.1 -0.1)">
      <defs>
       <path d="M 34.1875 63.1875 
L 20.796875 26.90625 
L 47.609375 26.90625 
z
M 28.609375 72.90625 
L 39.796875 72.90625 
L 67.578125 0 
L 57.328125 0 
L 50.6875 18.703125 
L 17.828125 18.703125 
L 11.1875 0 
L 0.78125 0 
z
" id="DejaVuSans-65"/>
       <path d="M 34.28125 27.484375 
Q 23.390625 27.484375 19.1875 25 
Q 14.984375 22.515625 14.984375 16.5 
Q 14.984375 11.71875 18.140625 8.90625 
Q 21.296875 6.109375 26.703125 6.109375 
Q 34.1875 6.109375 38.703125 11.40625 
Q 43.21875 16.703125 43.21875 25.484375 
L 43.21875 27.484375 
z
M 52.203125 31.203125 
L 52.203125 0 
L 43.21875 0 
L 43.21875 8.296875 
Q 40.140625 3.328125 35.546875 0.953125 
Q 30.953125 -1.421875 24.3125 -1.421875 
Q 15.921875 -1.421875 10.953125 3.296875 
Q 6 8.015625 6 15.921875 
Q 6 25.140625 12.171875 29.828125 
Q 18.359375 34.515625 30.609375 34.515625 
L 43.21875 34.515625 
L 43.21875 35.40625 
Q 43.21875 41.609375 39.140625 45 
Q 35.0625 48.390625 27.6875 48.390625 
Q 23 48.390625 18.546875 47.265625 
Q 14.109375 46.140625 10.015625 43.890625 
L 10.015625 52.203125 
Q 14.9375 54.109375 19.578125 55.046875 
Q 24.21875 56 28.609375 56 
Q 40.484375 56 46.34375 49.84375 
Q 52.203125 43.703125 52.203125 31.203125 
z
" id="DejaVuSans-97"/>
      </defs>
      <use xlink:href="#DejaVuSans-65"/>
      <use x="68.408203" xlink:href="#DejaVuSans-112"/>
      <use x="131.884766" xlink:href="#DejaVuSans-112"/>
      <use x="195.361328" xlink:href="#DejaVuSans-114"/>
      <use x="234.224609" xlink:href="#DejaVuSans-111"/>
      <use x="292.28125" xlink:href="#DejaVuSans-120"/>
      <use x="351.460938" xlink:href="#DejaVuSans-105"/>
      <use x="379.244141" xlink:href="#DejaVuSans-109"/>
      <use x="476.65625" xlink:href="#DejaVuSans-97"/>
      <use x="537.935547" xlink:href="#DejaVuSans-116"/>
      <use x="577.144531" xlink:href="#DejaVuSans-105"/>
      <use x="604.927734" xlink:href="#DejaVuSans-111"/>
      <use x="666.109375" xlink:href="#DejaVuSans-110"/>
     </g>
    </g>
   </g>
  </g>
 </g>
 <defs>
  <clipPath id="p63fa0ff577">
   <rect height="665.28" width="1339.2" x="216" y="103.68"/>
  </clipPath>
 </defs>
</svg>
