<?xml version="1.0" encoding="utf-8" standalone="no"?>
<!DOCTYPE svg PUBLIC "-//W3C//DTD SVG 1.1//EN"
  "http://www.w3.org/Graphics/SVG/1.1/DTD/svg11.dtd">
<!-- Created with matplotlib (https://matplotlib.org/) -->
<svg height="864pt" version="1.1" viewBox="0 0 1728 864" width="1728pt" xmlns="http://www.w3.org/2000/svg" xmlns:xlink="http://www.w3.org/1999/xlink">
 <metadata>
  <rdf:RDF xmlns:cc="http://creativecommons.org/ns#" xmlns:dc="http://purl.org/dc/elements/1.1/" xmlns:rdf="http://www.w3.org/1999/02/22-rdf-syntax-ns#">
   <cc:Work>
    <dc:type rdf:resource="http://purl.org/dc/dcmitype/StillImage"/>
    <dc:date>2020-09-13T10:35:31.140522</dc:date>
    <dc:format>image/svg+xml</dc:format>
    <dc:creator>
     <cc:Agent>
      <dc:title>Matplotlib v3.3.1, https://matplotlib.org/</dc:title>
     </cc:Agent>
    </dc:creator>
   </cc:Work>
  </rdf:RDF>
 </metadata>
 <defs>
  <style type="text/css">*{stroke-linecap:butt;stroke-linejoin:round;}</style>
 </defs>
 <g id="figure_1">
  <g id="patch_1">
   <path d="M 0 864 
L 1728 864 
L 1728 0 
L 0 0 
z
" style="fill:#ffffff;"/>
  </g>
  <g id="axes_1">
   <g id="patch_2">
    <path d="M 216 768.96 
L 1555.2 768.96 
L 1555.2 103.68 
L 216 103.68 
z
" style="fill:#ffffff;"/>
   </g>
   <g id="matplotlib.axis_1">
    <g id="xtick_1">
     <g id="line2d_1">
      <defs>
       <path d="M 0 0 
L 0 3.5 
" id="m0f2a483731" style="stroke:#000000;stroke-width:0.8;"/>
      </defs>
      <g>
       <use style="stroke:#000000;stroke-width:0.8;" x="276.872727" xlink:href="#m0f2a483731" y="768.96"/>
      </g>
     </g>
     <g id="text_1">
      <!-- 0 -->
      <g transform="translate(273.691477 783.558437)scale(0.1 -0.1)">
       <defs>
        <path d="M 31.78125 66.40625 
Q 24.171875 66.40625 20.328125 58.90625 
Q 16.5 51.421875 16.5 36.375 
Q 16.5 21.390625 20.328125 13.890625 
Q 24.171875 6.390625 31.78125 6.390625 
Q 39.453125 6.390625 43.28125 13.890625 
Q 47.125 21.390625 47.125 36.375 
Q 47.125 51.421875 43.28125 58.90625 
Q 39.453125 66.40625 31.78125 66.40625 
z
M 31.78125 74.21875 
Q 44.046875 74.21875 50.515625 64.515625 
Q 56.984375 54.828125 56.984375 36.375 
Q 56.984375 17.96875 50.515625 8.265625 
Q 44.046875 -1.421875 31.78125 -1.421875 
Q 19.53125 -1.421875 13.0625 8.265625 
Q 6.59375 17.96875 6.59375 36.375 
Q 6.59375 54.828125 13.0625 64.515625 
Q 19.53125 74.21875 31.78125 74.21875 
z
" id="DejaVuSans-48"/>
       </defs>
       <use xlink:href="#DejaVuSans-48"/>
      </g>
     </g>
    </g>
    <g id="xtick_2">
     <g id="line2d_2">
      <g>
       <use style="stroke:#000000;stroke-width:0.8;" x="437.14847" xlink:href="#m0f2a483731" y="768.96"/>
      </g>
     </g>
     <g id="text_2">
      <!-- 250 -->
      <g transform="translate(427.60472 783.558437)scale(0.1 -0.1)">
       <defs>
        <path d="M 19.1875 8.296875 
L 53.609375 8.296875 
L 53.609375 0 
L 7.328125 0 
L 7.328125 8.296875 
Q 12.9375 14.109375 22.625 23.890625 
Q 32.328125 33.6875 34.8125 36.53125 
Q 39.546875 41.84375 41.421875 45.53125 
Q 43.3125 49.21875 43.3125 52.78125 
Q 43.3125 58.59375 39.234375 62.25 
Q 35.15625 65.921875 28.609375 65.921875 
Q 23.96875 65.921875 18.8125 64.3125 
Q 13.671875 62.703125 7.8125 59.421875 
L 7.8125 69.390625 
Q 13.765625 71.78125 18.9375 73 
Q 24.125 74.21875 28.421875 74.21875 
Q 39.75 74.21875 46.484375 68.546875 
Q 53.21875 62.890625 53.21875 53.421875 
Q 53.21875 48.921875 51.53125 44.890625 
Q 49.859375 40.875 45.40625 35.40625 
Q 44.1875 33.984375 37.640625 27.21875 
Q 31.109375 20.453125 19.1875 8.296875 
z
" id="DejaVuSans-50"/>
        <path d="M 10.796875 72.90625 
L 49.515625 72.90625 
L 49.515625 64.59375 
L 19.828125 64.59375 
L 19.828125 46.734375 
Q 21.96875 47.46875 24.109375 47.828125 
Q 26.265625 48.1875 28.421875 48.1875 
Q 40.625 48.1875 47.75 41.5 
Q 54.890625 34.8125 54.890625 23.390625 
Q 54.890625 11.625 47.5625 5.09375 
Q 40.234375 -1.421875 26.90625 -1.421875 
Q 22.3125 -1.421875 17.546875 -0.640625 
Q 12.796875 0.140625 7.71875 1.703125 
L 7.71875 11.625 
Q 12.109375 9.234375 16.796875 8.0625 
Q 21.484375 6.890625 26.703125 6.890625 
Q 35.15625 6.890625 40.078125 11.328125 
Q 45.015625 15.765625 45.015625 23.390625 
Q 45.015625 31 40.078125 35.4375 
Q 35.15625 39.890625 26.703125 39.890625 
Q 22.75 39.890625 18.8125 39.015625 
Q 14.890625 38.140625 10.796875 36.28125 
z
" id="DejaVuSans-53"/>
       </defs>
       <use xlink:href="#DejaVuSans-50"/>
       <use x="63.623047" xlink:href="#DejaVuSans-53"/>
       <use x="127.246094" xlink:href="#DejaVuSans-48"/>
      </g>
     </g>
    </g>
    <g id="xtick_3">
     <g id="line2d_3">
      <g>
       <use style="stroke:#000000;stroke-width:0.8;" x="597.424214" xlink:href="#m0f2a483731" y="768.96"/>
      </g>
     </g>
     <g id="text_3">
      <!-- 500 -->
      <g transform="translate(587.880464 783.558437)scale(0.1 -0.1)">
       <use xlink:href="#DejaVuSans-53"/>
       <use x="63.623047" xlink:href="#DejaVuSans-48"/>
       <use x="127.246094" xlink:href="#DejaVuSans-48"/>
      </g>
     </g>
    </g>
    <g id="xtick_4">
     <g id="line2d_4">
      <g>
       <use style="stroke:#000000;stroke-width:0.8;" x="757.699957" xlink:href="#m0f2a483731" y="768.96"/>
      </g>
     </g>
     <g id="text_4">
      <!-- 750 -->
      <g transform="translate(748.156207 783.558437)scale(0.1 -0.1)">
       <defs>
        <path d="M 8.203125 72.90625 
L 55.078125 72.90625 
L 55.078125 68.703125 
L 28.609375 0 
L 18.3125 0 
L 43.21875 64.59375 
L 8.203125 64.59375 
z
" id="DejaVuSans-55"/>
       </defs>
       <use xlink:href="#DejaVuSans-55"/>
       <use x="63.623047" xlink:href="#DejaVuSans-53"/>
       <use x="127.246094" xlink:href="#DejaVuSans-48"/>
      </g>
     </g>
    </g>
    <g id="xtick_5">
     <g id="line2d_5">
      <g>
       <use style="stroke:#000000;stroke-width:0.8;" x="917.9757" xlink:href="#m0f2a483731" y="768.96"/>
      </g>
     </g>
     <g id="text_5">
      <!-- 1000 -->
      <g transform="translate(905.2507 783.558437)scale(0.1 -0.1)">
       <defs>
        <path d="M 12.40625 8.296875 
L 28.515625 8.296875 
L 28.515625 63.921875 
L 10.984375 60.40625 
L 10.984375 69.390625 
L 28.421875 72.90625 
L 38.28125 72.90625 
L 38.28125 8.296875 
L 54.390625 8.296875 
L 54.390625 0 
L 12.40625 0 
z
" id="DejaVuSans-49"/>
       </defs>
       <use xlink:href="#DejaVuSans-49"/>
       <use x="63.623047" xlink:href="#DejaVuSans-48"/>
       <use x="127.246094" xlink:href="#DejaVuSans-48"/>
       <use x="190.869141" xlink:href="#DejaVuSans-48"/>
      </g>
     </g>
    </g>
    <g id="xtick_6">
     <g id="line2d_6">
      <g>
       <use style="stroke:#000000;stroke-width:0.8;" x="1078.251443" xlink:href="#m0f2a483731" y="768.96"/>
      </g>
     </g>
     <g id="text_6">
      <!-- 1250 -->
      <g transform="translate(1065.526443 783.558437)scale(0.1 -0.1)">
       <use xlink:href="#DejaVuSans-49"/>
       <use x="63.623047" xlink:href="#DejaVuSans-50"/>
       <use x="127.246094" xlink:href="#DejaVuSans-53"/>
       <use x="190.869141" xlink:href="#DejaVuSans-48"/>
      </g>
     </g>
    </g>
    <g id="xtick_7">
     <g id="line2d_7">
      <g>
       <use style="stroke:#000000;stroke-width:0.8;" x="1238.527187" xlink:href="#m0f2a483731" y="768.96"/>
      </g>
     </g>
     <g id="text_7">
      <!-- 1500 -->
      <g transform="translate(1225.802187 783.558437)scale(0.1 -0.1)">
       <use xlink:href="#DejaVuSans-49"/>
       <use x="63.623047" xlink:href="#DejaVuSans-53"/>
       <use x="127.246094" xlink:href="#DejaVuSans-48"/>
       <use x="190.869141" xlink:href="#DejaVuSans-48"/>
      </g>
     </g>
    </g>
    <g id="xtick_8">
     <g id="line2d_8">
      <g>
       <use style="stroke:#000000;stroke-width:0.8;" x="1398.80293" xlink:href="#m0f2a483731" y="768.96"/>
      </g>
     </g>
     <g id="text_8">
      <!-- 1750 -->
      <g transform="translate(1386.07793 783.558437)scale(0.1 -0.1)">
       <use xlink:href="#DejaVuSans-49"/>
       <use x="63.623047" xlink:href="#DejaVuSans-55"/>
       <use x="127.246094" xlink:href="#DejaVuSans-53"/>
       <use x="190.869141" xlink:href="#DejaVuSans-48"/>
      </g>
     </g>
    </g>
    <g id="text_9">
     <!-- Vector length -->
     <g transform="translate(852.139844 797.236562)scale(0.1 -0.1)">
      <defs>
       <path d="M 28.609375 0 
L 0.78125 72.90625 
L 11.078125 72.90625 
L 34.1875 11.53125 
L 57.328125 72.90625 
L 67.578125 72.90625 
L 39.796875 0 
z
" id="DejaVuSans-86"/>
       <path d="M 56.203125 29.59375 
L 56.203125 25.203125 
L 14.890625 25.203125 
Q 15.484375 15.921875 20.484375 11.0625 
Q 25.484375 6.203125 34.421875 6.203125 
Q 39.59375 6.203125 44.453125 7.46875 
Q 49.3125 8.734375 54.109375 11.28125 
L 54.109375 2.78125 
Q 49.265625 0.734375 44.1875 -0.34375 
Q 39.109375 -1.421875 33.890625 -1.421875 
Q 20.796875 -1.421875 13.15625 6.1875 
Q 5.515625 13.8125 5.515625 26.8125 
Q 5.515625 40.234375 12.765625 48.109375 
Q 20.015625 56 32.328125 56 
Q 43.359375 56 49.78125 48.890625 
Q 56.203125 41.796875 56.203125 29.59375 
z
M 47.21875 32.234375 
Q 47.125 39.59375 43.09375 43.984375 
Q 39.0625 48.390625 32.421875 48.390625 
Q 24.90625 48.390625 20.390625 44.140625 
Q 15.875 39.890625 15.1875 32.171875 
z
" id="DejaVuSans-101"/>
       <path d="M 48.78125 52.59375 
L 48.78125 44.1875 
Q 44.96875 46.296875 41.140625 47.34375 
Q 37.3125 48.390625 33.40625 48.390625 
Q 24.65625 48.390625 19.8125 42.84375 
Q 14.984375 37.3125 14.984375 27.296875 
Q 14.984375 17.28125 19.8125 11.734375 
Q 24.65625 6.203125 33.40625 6.203125 
Q 37.3125 6.203125 41.140625 7.25 
Q 44.96875 8.296875 48.78125 10.40625 
L 48.78125 2.09375 
Q 45.015625 0.34375 40.984375 -0.53125 
Q 36.96875 -1.421875 32.421875 -1.421875 
Q 20.0625 -1.421875 12.78125 6.34375 
Q 5.515625 14.109375 5.515625 27.296875 
Q 5.515625 40.671875 12.859375 48.328125 
Q 20.21875 56 33.015625 56 
Q 37.15625 56 41.109375 55.140625 
Q 45.0625 54.296875 48.78125 52.59375 
z
" id="DejaVuSans-99"/>
       <path d="M 18.3125 70.21875 
L 18.3125 54.6875 
L 36.8125 54.6875 
L 36.8125 47.703125 
L 18.3125 47.703125 
L 18.3125 18.015625 
Q 18.3125 11.328125 20.140625 9.421875 
Q 21.96875 7.515625 27.59375 7.515625 
L 36.8125 7.515625 
L 36.8125 0 
L 27.59375 0 
Q 17.1875 0 13.234375 3.875 
Q 9.28125 7.765625 9.28125 18.015625 
L 9.28125 47.703125 
L 2.6875 47.703125 
L 2.6875 54.6875 
L 9.28125 54.6875 
L 9.28125 70.21875 
z
" id="DejaVuSans-116"/>
       <path d="M 30.609375 48.390625 
Q 23.390625 48.390625 19.1875 42.75 
Q 14.984375 37.109375 14.984375 27.296875 
Q 14.984375 17.484375 19.15625 11.84375 
Q 23.34375 6.203125 30.609375 6.203125 
Q 37.796875 6.203125 41.984375 11.859375 
Q 46.1875 17.53125 46.1875 27.296875 
Q 46.1875 37.015625 41.984375 42.703125 
Q 37.796875 48.390625 30.609375 48.390625 
z
M 30.609375 56 
Q 42.328125 56 49.015625 48.375 
Q 55.71875 40.765625 55.71875 27.296875 
Q 55.71875 13.875 49.015625 6.21875 
Q 42.328125 -1.421875 30.609375 -1.421875 
Q 18.84375 -1.421875 12.171875 6.21875 
Q 5.515625 13.875 5.515625 27.296875 
Q 5.515625 40.765625 12.171875 48.375 
Q 18.84375 56 30.609375 56 
z
" id="DejaVuSans-111"/>
       <path d="M 41.109375 46.296875 
Q 39.59375 47.171875 37.8125 47.578125 
Q 36.03125 48 33.890625 48 
Q 26.265625 48 22.1875 43.046875 
Q 18.109375 38.09375 18.109375 28.8125 
L 18.109375 0 
L 9.078125 0 
L 9.078125 54.6875 
L 18.109375 54.6875 
L 18.109375 46.1875 
Q 20.953125 51.171875 25.484375 53.578125 
Q 30.03125 56 36.53125 56 
Q 37.453125 56 38.578125 55.875 
Q 39.703125 55.765625 41.0625 55.515625 
z
" id="DejaVuSans-114"/>
       <path id="DejaVuSans-32"/>
       <path d="M 9.421875 75.984375 
L 18.40625 75.984375 
L 18.40625 0 
L 9.421875 0 
z
" id="DejaVuSans-108"/>
       <path d="M 54.890625 33.015625 
L 54.890625 0 
L 45.90625 0 
L 45.90625 32.71875 
Q 45.90625 40.484375 42.875 44.328125 
Q 39.84375 48.1875 33.796875 48.1875 
Q 26.515625 48.1875 22.3125 43.546875 
Q 18.109375 38.921875 18.109375 30.90625 
L 18.109375 0 
L 9.078125 0 
L 9.078125 54.6875 
L 18.109375 54.6875 
L 18.109375 46.1875 
Q 21.34375 51.125 25.703125 53.5625 
Q 30.078125 56 35.796875 56 
Q 45.21875 56 50.046875 50.171875 
Q 54.890625 44.34375 54.890625 33.015625 
z
" id="DejaVuSans-110"/>
       <path d="M 45.40625 27.984375 
Q 45.40625 37.75 41.375 43.109375 
Q 37.359375 48.484375 30.078125 48.484375 
Q 22.859375 48.484375 18.828125 43.109375 
Q 14.796875 37.75 14.796875 27.984375 
Q 14.796875 18.265625 18.828125 12.890625 
Q 22.859375 7.515625 30.078125 7.515625 
Q 37.359375 7.515625 41.375 12.890625 
Q 45.40625 18.265625 45.40625 27.984375 
z
M 54.390625 6.78125 
Q 54.390625 -7.171875 48.1875 -13.984375 
Q 42 -20.796875 29.203125 -20.796875 
Q 24.46875 -20.796875 20.265625 -20.09375 
Q 16.0625 -19.390625 12.109375 -17.921875 
L 12.109375 -9.1875 
Q 16.0625 -11.328125 19.921875 -12.34375 
Q 23.78125 -13.375 27.78125 -13.375 
Q 36.625 -13.375 41.015625 -8.765625 
Q 45.40625 -4.15625 45.40625 5.171875 
L 45.40625 9.625 
Q 42.625 4.78125 38.28125 2.390625 
Q 33.9375 0 27.875 0 
Q 17.828125 0 11.671875 7.65625 
Q 5.515625 15.328125 5.515625 27.984375 
Q 5.515625 40.671875 11.671875 48.328125 
Q 17.828125 56 27.875 56 
Q 33.9375 56 38.28125 53.609375 
Q 42.625 51.21875 45.40625 46.390625 
L 45.40625 54.6875 
L 54.390625 54.6875 
z
" id="DejaVuSans-103"/>
       <path d="M 54.890625 33.015625 
L 54.890625 0 
L 45.90625 0 
L 45.90625 32.71875 
Q 45.90625 40.484375 42.875 44.328125 
Q 39.84375 48.1875 33.796875 48.1875 
Q 26.515625 48.1875 22.3125 43.546875 
Q 18.109375 38.921875 18.109375 30.90625 
L 18.109375 0 
L 9.078125 0 
L 9.078125 75.984375 
L 18.109375 75.984375 
L 18.109375 46.1875 
Q 21.34375 51.125 25.703125 53.5625 
Q 30.078125 56 35.796875 56 
Q 45.21875 56 50.046875 50.171875 
Q 54.890625 44.34375 54.890625 33.015625 
z
" id="DejaVuSans-104"/>
      </defs>
      <use xlink:href="#DejaVuSans-86"/>
      <use x="60.658203" xlink:href="#DejaVuSans-101"/>
      <use x="122.181641" xlink:href="#DejaVuSans-99"/>
      <use x="177.162109" xlink:href="#DejaVuSans-116"/>
      <use x="216.371094" xlink:href="#DejaVuSans-111"/>
      <use x="277.552734" xlink:href="#DejaVuSans-114"/>
      <use x="318.666016" xlink:href="#DejaVuSans-32"/>
      <use x="350.453125" xlink:href="#DejaVuSans-108"/>
      <use x="378.236328" xlink:href="#DejaVuSans-101"/>
      <use x="439.759766" xlink:href="#DejaVuSans-110"/>
      <use x="503.138672" xlink:href="#DejaVuSans-103"/>
      <use x="566.615234" xlink:href="#DejaVuSans-116"/>
      <use x="605.824219" xlink:href="#DejaVuSans-104"/>
     </g>
    </g>
   </g>
   <g id="matplotlib.axis_2">
    <g id="ytick_1">
     <g id="line2d_9">
      <defs>
       <path d="M 0 0 
L -3.5 0 
" id="mdb74f017e9" style="stroke:#000000;stroke-width:0.8;"/>
      </defs>
      <g>
       <use style="stroke:#000000;stroke-width:0.8;" x="216" xlink:href="#mdb74f017e9" y="738.197584"/>
      </g>
     </g>
     <g id="text_10">
      <!-- 0.0 -->
      <g transform="translate(193.096875 741.996803)scale(0.1 -0.1)">
       <defs>
        <path d="M 10.6875 12.40625 
L 21 12.40625 
L 21 0 
L 10.6875 0 
z
" id="DejaVuSans-46"/>
       </defs>
       <use xlink:href="#DejaVuSans-48"/>
       <use x="63.623047" xlink:href="#DejaVuSans-46"/>
       <use x="95.410156" xlink:href="#DejaVuSans-48"/>
      </g>
     </g>
    </g>
    <g id="ytick_2">
     <g id="line2d_10">
      <g>
       <use style="stroke:#000000;stroke-width:0.8;" x="216" xlink:href="#mdb74f017e9" y="662.619117"/>
      </g>
     </g>
     <g id="text_11">
      <!-- 0.2 -->
      <g transform="translate(193.096875 666.418336)scale(0.1 -0.1)">
       <use xlink:href="#DejaVuSans-48"/>
       <use x="63.623047" xlink:href="#DejaVuSans-46"/>
       <use x="95.410156" xlink:href="#DejaVuSans-50"/>
      </g>
     </g>
    </g>
    <g id="ytick_3">
     <g id="line2d_11">
      <g>
       <use style="stroke:#000000;stroke-width:0.8;" x="216" xlink:href="#mdb74f017e9" y="587.04065"/>
      </g>
     </g>
     <g id="text_12">
      <!-- 0.4 -->
      <g transform="translate(193.096875 590.839869)scale(0.1 -0.1)">
       <defs>
        <path d="M 37.796875 64.3125 
L 12.890625 25.390625 
L 37.796875 25.390625 
z
M 35.203125 72.90625 
L 47.609375 72.90625 
L 47.609375 25.390625 
L 58.015625 25.390625 
L 58.015625 17.1875 
L 47.609375 17.1875 
L 47.609375 0 
L 37.796875 0 
L 37.796875 17.1875 
L 4.890625 17.1875 
L 4.890625 26.703125 
z
" id="DejaVuSans-52"/>
       </defs>
       <use xlink:href="#DejaVuSans-48"/>
       <use x="63.623047" xlink:href="#DejaVuSans-46"/>
       <use x="95.410156" xlink:href="#DejaVuSans-52"/>
      </g>
     </g>
    </g>
    <g id="ytick_4">
     <g id="line2d_12">
      <g>
       <use style="stroke:#000000;stroke-width:0.8;" x="216" xlink:href="#mdb74f017e9" y="511.462183"/>
      </g>
     </g>
     <g id="text_13">
      <!-- 0.6 -->
      <g transform="translate(193.096875 515.261402)scale(0.1 -0.1)">
       <defs>
        <path d="M 33.015625 40.375 
Q 26.375 40.375 22.484375 35.828125 
Q 18.609375 31.296875 18.609375 23.390625 
Q 18.609375 15.53125 22.484375 10.953125 
Q 26.375 6.390625 33.015625 6.390625 
Q 39.65625 6.390625 43.53125 10.953125 
Q 47.40625 15.53125 47.40625 23.390625 
Q 47.40625 31.296875 43.53125 35.828125 
Q 39.65625 40.375 33.015625 40.375 
z
M 52.59375 71.296875 
L 52.59375 62.3125 
Q 48.875 64.0625 45.09375 64.984375 
Q 41.3125 65.921875 37.59375 65.921875 
Q 27.828125 65.921875 22.671875 59.328125 
Q 17.53125 52.734375 16.796875 39.40625 
Q 19.671875 43.65625 24.015625 45.921875 
Q 28.375 48.1875 33.59375 48.1875 
Q 44.578125 48.1875 50.953125 41.515625 
Q 57.328125 34.859375 57.328125 23.390625 
Q 57.328125 12.15625 50.6875 5.359375 
Q 44.046875 -1.421875 33.015625 -1.421875 
Q 20.359375 -1.421875 13.671875 8.265625 
Q 6.984375 17.96875 6.984375 36.375 
Q 6.984375 53.65625 15.1875 63.9375 
Q 23.390625 74.21875 37.203125 74.21875 
Q 40.921875 74.21875 44.703125 73.484375 
Q 48.484375 72.75 52.59375 71.296875 
z
" id="DejaVuSans-54"/>
       </defs>
       <use xlink:href="#DejaVuSans-48"/>
       <use x="63.623047" xlink:href="#DejaVuSans-46"/>
       <use x="95.410156" xlink:href="#DejaVuSans-54"/>
      </g>
     </g>
    </g>
    <g id="ytick_5">
     <g id="line2d_13">
      <g>
       <use style="stroke:#000000;stroke-width:0.8;" x="216" xlink:href="#mdb74f017e9" y="435.883716"/>
      </g>
     </g>
     <g id="text_14">
      <!-- 0.8 -->
      <g transform="translate(193.096875 439.682935)scale(0.1 -0.1)">
       <defs>
        <path d="M 31.78125 34.625 
Q 24.75 34.625 20.71875 30.859375 
Q 16.703125 27.09375 16.703125 20.515625 
Q 16.703125 13.921875 20.71875 10.15625 
Q 24.75 6.390625 31.78125 6.390625 
Q 38.8125 6.390625 42.859375 10.171875 
Q 46.921875 13.96875 46.921875 20.515625 
Q 46.921875 27.09375 42.890625 30.859375 
Q 38.875 34.625 31.78125 34.625 
z
M 21.921875 38.8125 
Q 15.578125 40.375 12.03125 44.71875 
Q 8.5 49.078125 8.5 55.328125 
Q 8.5 64.0625 14.71875 69.140625 
Q 20.953125 74.21875 31.78125 74.21875 
Q 42.671875 74.21875 48.875 69.140625 
Q 55.078125 64.0625 55.078125 55.328125 
Q 55.078125 49.078125 51.53125 44.71875 
Q 48 40.375 41.703125 38.8125 
Q 48.828125 37.15625 52.796875 32.3125 
Q 56.78125 27.484375 56.78125 20.515625 
Q 56.78125 9.90625 50.3125 4.234375 
Q 43.84375 -1.421875 31.78125 -1.421875 
Q 19.734375 -1.421875 13.25 4.234375 
Q 6.78125 9.90625 6.78125 20.515625 
Q 6.78125 27.484375 10.78125 32.3125 
Q 14.796875 37.15625 21.921875 38.8125 
z
M 18.3125 54.390625 
Q 18.3125 48.734375 21.84375 45.5625 
Q 25.390625 42.390625 31.78125 42.390625 
Q 38.140625 42.390625 41.71875 45.5625 
Q 45.3125 48.734375 45.3125 54.390625 
Q 45.3125 60.0625 41.71875 63.234375 
Q 38.140625 66.40625 31.78125 66.40625 
Q 25.390625 66.40625 21.84375 63.234375 
Q 18.3125 60.0625 18.3125 54.390625 
z
" id="DejaVuSans-56"/>
       </defs>
       <use xlink:href="#DejaVuSans-48"/>
       <use x="63.623047" xlink:href="#DejaVuSans-46"/>
       <use x="95.410156" xlink:href="#DejaVuSans-56"/>
      </g>
     </g>
    </g>
    <g id="ytick_6">
     <g id="line2d_14">
      <g>
       <use style="stroke:#000000;stroke-width:0.8;" x="216" xlink:href="#mdb74f017e9" y="360.305249"/>
      </g>
     </g>
     <g id="text_15">
      <!-- 1.0 -->
      <g transform="translate(193.096875 364.104468)scale(0.1 -0.1)">
       <use xlink:href="#DejaVuSans-49"/>
       <use x="63.623047" xlink:href="#DejaVuSans-46"/>
       <use x="95.410156" xlink:href="#DejaVuSans-48"/>
      </g>
     </g>
    </g>
    <g id="ytick_7">
     <g id="line2d_15">
      <g>
       <use style="stroke:#000000;stroke-width:0.8;" x="216" xlink:href="#mdb74f017e9" y="284.726783"/>
      </g>
     </g>
     <g id="text_16">
      <!-- 1.2 -->
      <g transform="translate(193.096875 288.526001)scale(0.1 -0.1)">
       <use xlink:href="#DejaVuSans-49"/>
       <use x="63.623047" xlink:href="#DejaVuSans-46"/>
       <use x="95.410156" xlink:href="#DejaVuSans-50"/>
      </g>
     </g>
    </g>
    <g id="ytick_8">
     <g id="line2d_16">
      <g>
       <use style="stroke:#000000;stroke-width:0.8;" x="216" xlink:href="#mdb74f017e9" y="209.148316"/>
      </g>
     </g>
     <g id="text_17">
      <!-- 1.4 -->
      <g transform="translate(193.096875 212.947534)scale(0.1 -0.1)">
       <use xlink:href="#DejaVuSans-49"/>
       <use x="63.623047" xlink:href="#DejaVuSans-46"/>
       <use x="95.410156" xlink:href="#DejaVuSans-52"/>
      </g>
     </g>
    </g>
    <g id="ytick_9">
     <g id="line2d_17">
      <g>
       <use style="stroke:#000000;stroke-width:0.8;" x="216" xlink:href="#mdb74f017e9" y="133.569849"/>
      </g>
     </g>
     <g id="text_18">
      <!-- 1.6 -->
      <g transform="translate(193.096875 137.369068)scale(0.1 -0.1)">
       <use xlink:href="#DejaVuSans-49"/>
       <use x="63.623047" xlink:href="#DejaVuSans-46"/>
       <use x="95.410156" xlink:href="#DejaVuSans-54"/>
      </g>
     </g>
    </g>
    <g id="text_19">
     <!-- Time, ms -->
     <g transform="translate(187.017188 459.206719)rotate(-90)scale(0.1 -0.1)">
      <defs>
       <path d="M -0.296875 72.90625 
L 61.375 72.90625 
L 61.375 64.59375 
L 35.5 64.59375 
L 35.5 0 
L 25.59375 0 
L 25.59375 64.59375 
L -0.296875 64.59375 
z
" id="DejaVuSans-84"/>
       <path d="M 9.421875 54.6875 
L 18.40625 54.6875 
L 18.40625 0 
L 9.421875 0 
z
M 9.421875 75.984375 
L 18.40625 75.984375 
L 18.40625 64.59375 
L 9.421875 64.59375 
z
" id="DejaVuSans-105"/>
       <path d="M 52 44.1875 
Q 55.375 50.25 60.0625 53.125 
Q 64.75 56 71.09375 56 
Q 79.640625 56 84.28125 50.015625 
Q 88.921875 44.046875 88.921875 33.015625 
L 88.921875 0 
L 79.890625 0 
L 79.890625 32.71875 
Q 79.890625 40.578125 77.09375 44.375 
Q 74.3125 48.1875 68.609375 48.1875 
Q 61.625 48.1875 57.5625 43.546875 
Q 53.515625 38.921875 53.515625 30.90625 
L 53.515625 0 
L 44.484375 0 
L 44.484375 32.71875 
Q 44.484375 40.625 41.703125 44.40625 
Q 38.921875 48.1875 33.109375 48.1875 
Q 26.21875 48.1875 22.15625 43.53125 
Q 18.109375 38.875 18.109375 30.90625 
L 18.109375 0 
L 9.078125 0 
L 9.078125 54.6875 
L 18.109375 54.6875 
L 18.109375 46.1875 
Q 21.1875 51.21875 25.484375 53.609375 
Q 29.78125 56 35.6875 56 
Q 41.65625 56 45.828125 52.96875 
Q 50 49.953125 52 44.1875 
z
" id="DejaVuSans-109"/>
       <path d="M 11.71875 12.40625 
L 22.015625 12.40625 
L 22.015625 4 
L 14.015625 -11.625 
L 7.71875 -11.625 
L 11.71875 4 
z
" id="DejaVuSans-44"/>
       <path d="M 44.28125 53.078125 
L 44.28125 44.578125 
Q 40.484375 46.53125 36.375 47.5 
Q 32.28125 48.484375 27.875 48.484375 
Q 21.1875 48.484375 17.84375 46.4375 
Q 14.5 44.390625 14.5 40.28125 
Q 14.5 37.15625 16.890625 35.375 
Q 19.28125 33.59375 26.515625 31.984375 
L 29.59375 31.296875 
Q 39.15625 29.25 43.1875 25.515625 
Q 47.21875 21.78125 47.21875 15.09375 
Q 47.21875 7.46875 41.1875 3.015625 
Q 35.15625 -1.421875 24.609375 -1.421875 
Q 20.21875 -1.421875 15.453125 -0.5625 
Q 10.6875 0.296875 5.421875 2 
L 5.421875 11.28125 
Q 10.40625 8.6875 15.234375 7.390625 
Q 20.0625 6.109375 24.8125 6.109375 
Q 31.15625 6.109375 34.5625 8.28125 
Q 37.984375 10.453125 37.984375 14.40625 
Q 37.984375 18.0625 35.515625 20.015625 
Q 33.0625 21.96875 24.703125 23.78125 
L 21.578125 24.515625 
Q 13.234375 26.265625 9.515625 29.90625 
Q 5.8125 33.546875 5.8125 39.890625 
Q 5.8125 47.609375 11.28125 51.796875 
Q 16.75 56 26.8125 56 
Q 31.78125 56 36.171875 55.265625 
Q 40.578125 54.546875 44.28125 53.078125 
z
" id="DejaVuSans-115"/>
      </defs>
      <use xlink:href="#DejaVuSans-84"/>
      <use x="57.958984" xlink:href="#DejaVuSans-105"/>
      <use x="85.742188" xlink:href="#DejaVuSans-109"/>
      <use x="183.154297" xlink:href="#DejaVuSans-101"/>
      <use x="244.677734" xlink:href="#DejaVuSans-44"/>
      <use x="276.464844" xlink:href="#DejaVuSans-32"/>
      <use x="308.251953" xlink:href="#DejaVuSans-109"/>
      <use x="405.664062" xlink:href="#DejaVuSans-115"/>
     </g>
    </g>
   </g>
   <g id="line2d_18">
    <path clip-path="url(#p1704f8b470)" d="M 276.872727 737.386715 
L 277.51383 737.747101 
L 278.796036 737.837198 
L 280.078242 737.837198 
L 280.719345 737.476812 
L 281.360448 737.837198 
L 282.001551 737.476812 
L 282.642654 737.837198 
L 283.283757 737.386715 
L 284.565963 737.476812 
L 288.412581 737.386715 
L 289.053684 737.116425 
L 290.33589 737.026329 
L 290.976993 737.206522 
L 291.618096 737.026329 
L 294.182508 737.026329 
L 294.823611 736.665943 
L 295.464713 736.575846 
L 297.388022 736.756039 
L 298.029125 736.756039 
L 298.670228 736.395653 
L 299.311331 736.665943 
L 301.23464 736.665943 
L 301.875743 736.395653 
L 302.516846 736.395653 
L 303.157949 736.21546 
L 303.799052 736.395653 
L 304.440155 736.395653 
L 305.081258 736.035267 
L 305.722361 736.395653 
L 306.363464 735.94517 
L 307.004567 735.94517 
L 307.64567 736.21546 
L 308.286773 735.855074 
L 308.927876 735.94517 
L 309.568979 735.855074 
L 310.210082 736.035267 
L 311.492288 735.855074 
L 312.774494 735.94517 
L 313.415597 735.94517 
L 314.697803 735.224398 
L 315.338906 735.494687 
L 315.980009 735.494687 
L 317.262215 735.044205 
L 318.544421 735.134301 
L 320.467729 735.134301 
L 321.108832 734.683818 
L 321.749935 735.224398 
L 322.391038 734.773915 
L 323.032141 734.864012 
L 323.673244 735.134301 
L 324.314347 734.864012 
L 324.95545 734.773915 
L 325.596553 734.413529 
L 326.237656 734.773915 
L 326.878759 734.864012 
L 327.519862 734.413529 
L 328.160965 734.683818 
L 328.802068 734.413529 
L 330.725377 734.413529 
L 331.36648 734.053143 
L 332.007583 734.053143 
L 332.648686 734.413529 
L 333.289789 733.963046 
L 333.930892 733.692756 
L 335.213098 733.692756 
L 335.854201 734.053143 
L 336.495304 733.60266 
L 337.77751 733.692756 
L 338.418613 733.692756 
L 339.059716 733.242274 
L 339.700819 733.33237 
L 340.983025 733.242274 
L 342.265231 733.242274 
L 342.906333 733.692756 
L 343.547436 732.881887 
L 344.188539 732.971984 
L 344.829642 733.33237 
L 345.470745 732.881887 
L 348.67626 732.881887 
L 349.317363 727.656287 
L 349.958466 732.161115 
L 350.599569 732.431405 
L 351.240672 732.881887 
L 351.881775 732.431405 
L 352.522878 732.521501 
L 353.163981 732.161115 
L 353.805084 732.611598 
L 354.446187 732.251211 
L 355.08729 732.521501 
L 355.728393 732.071018 
L 357.651702 732.251211 
L 358.292805 731.710632 
L 358.933908 732.071018 
L 359.575011 732.161115 
L 360.216114 731.800729 
L 360.857217 731.710632 
L 361.49832 731.800729 
L 362.139423 731.440342 
L 362.780526 731.260149 
L 363.421629 731.800729 
L 364.062732 731.440342 
L 366.627143 731.440342 
L 367.268246 727.566191 
L 367.909349 729.818605 
L 368.550452 731.079956 
L 369.191555 725.76426 
L 369.832658 731.440342 
L 370.473761 731.350246 
L 371.114864 731.079956 
L 371.755967 731.079956 
L 372.39707 730.539377 
L 373.038173 730.629473 
L 373.679276 731.079956 
L 374.320379 730.98986 
L 374.961482 730.629473 
L 378.166997 730.629473 
L 378.8081 730.269087 
L 379.449203 730.269087 
L 380.090306 730.629473 
L 380.731409 730.269087 
L 381.372512 730.269087 
L 382.013615 729.818605 
L 383.936924 729.818605 
L 384.578027 717.835763 
L 385.21913 729.187929 
L 385.860233 723.872232 
L 386.501336 729.908701 
L 387.142439 729.097832 
L 387.783542 729.908701 
L 388.424645 729.458218 
L 389.065748 718.556535 
L 389.70685 729.187929 
L 390.347953 729.187929 
L 390.989056 722.700977 
L 391.630159 727.926577 
L 392.271262 728.827542 
L 392.912365 728.286963 
L 393.553468 728.286963 
L 394.194571 728.827542 
L 394.835674 728.647349 
L 395.476777 728.286963 
L 396.11788 728.37706 
L 396.758983 728.286963 
L 398.041189 728.37706 
L 398.682292 727.926577 
L 399.323395 728.016673 
L 399.964498 727.656287 
L 400.605601 727.566191 
L 401.887807 727.656287 
L 403.170013 727.566191 
L 403.811116 727.205804 
L 404.452219 727.295901 
L 405.093322 727.205804 
L 405.734425 727.656287 
L 406.375528 727.115708 
L 407.016631 726.845418 
L 407.657734 727.295901 
L 408.298837 726.845418 
L 409.581043 726.935515 
L 410.222146 723.15146 
L 410.863249 726.485032 
L 411.504352 726.845418 
L 412.145455 726.485032 
L 413.42766 726.394935 
L 414.068763 726.034549 
L 415.350969 726.124646 
L 415.992072 726.485032 
L 416.633175 725.403873 
L 417.274278 726.485032 
L 417.915381 726.124646 
L 419.197587 726.034549 
L 419.83869 725.674163 
L 420.479793 725.76426 
L 421.120896 725.674163 
L 421.761999 725.313777 
L 422.403102 725.76426 
L 423.044205 725.403873 
L 424.326411 725.403873 
L 424.967514 724.953391 
L 425.608617 725.313777 
L 426.24972 725.313777 
L 426.890823 725.043487 
L 427.531926 724.953391 
L 428.173029 724.593004 
L 428.814132 724.953391 
L 429.455235 724.593004 
L 430.096338 723.782135 
L 430.737441 722.700977 
L 431.378544 723.511846 
L 432.019647 724.953391 
L 432.66075 724.953391 
L 433.301853 724.593004 
L 435.225162 724.593004 
L 435.866265 724.142522 
L 436.507368 724.322715 
L 437.789573 724.142522 
L 438.430676 724.502908 
L 439.071779 724.232618 
L 439.712882 723.782135 
L 440.353985 708.285528 
L 440.995088 713.240839 
L 441.636191 724.142522 
L 442.277294 702.249059 
L 442.918397 721.890108 
L 443.5595 714.051708 
L 444.200603 722.340591 
L 444.841706 722.340591 
L 445.482809 722.61088 
L 446.123912 715.583349 
L 446.765015 722.340591 
L 449.329427 722.340591 
L 449.97053 721.890108 
L 451.252736 721.980204 
L 453.817148 721.890108 
L 454.458251 721.529722 
L 455.099354 721.529722 
L 455.740457 721.169335 
L 456.38156 721.169335 
L 457.022663 720.718853 
L 457.663766 721.169335 
L 458.304869 720.899046 
L 458.945972 720.808949 
L 459.587075 721.259432 
L 460.228178 720.808949 
L 460.86928 720.808949 
L 461.510383 720.448563 
L 462.151486 720.53866 
L 462.792589 720.899046 
L 463.433692 720.53866 
L 464.074795 719.99808 
L 465.357001 720.088177 
L 465.998104 719.367404 
L 466.639207 719.547597 
L 467.28031 719.99808 
L 467.921413 719.727791 
L 468.562516 719.277308 
L 469.203619 719.367404 
L 469.844722 717.38528 
L 470.485825 719.187211 
L 471.126928 718.916922 
L 471.768031 717.11499 
L 472.409134 695.581914 
L 473.050237 698.915487 
L 473.69134 698.194714 
L 474.332443 698.915487 
L 474.973546 698.194714 
L 475.614649 697.834328 
L 476.255752 697.744231 
L 476.896855 695.581914 
L 477.537958 697.744231 
L 478.820164 694.771045 
L 479.461267 695.041335 
L 480.10237 697.023459 
L 480.743473 703.510411 
L 481.384576 700.447128 
L 482.025679 696.302687 
L 482.666782 700.357032 
L 483.307885 710.628039 
L 483.948988 715.493253 
L 484.59009 717.024894 
L 485.231193 716.394218 
L 485.872296 716.214025 
L 486.513399 700.357032 
L 487.154502 715.583349 
L 487.795605 692.788921 
L 488.436708 715.583349 
L 489.077811 715.493253 
L 489.718914 705.672728 
L 490.360017 682.698107 
L 491.00112 712.42997 
L 491.642223 704.861859 
L 492.283326 706.843983 
L 492.924429 718.196149 
L 493.565532 710.628039 
L 494.206635 710.988425 
L 494.847738 715.943735 
L 495.488841 715.943735 
L 496.129944 716.664508 
L 496.771047 716.664508 
L 497.41215 703.420314 
L 498.053253 702.609445 
L 498.694356 716.214025 
L 499.335459 710.537942 
L 499.976562 715.583349 
L 500.617665 715.04277 
L 501.258768 715.132866 
L 502.540974 715.04277 
L 503.182077 715.04277 
L 503.82318 714.682384 
L 504.464283 714.051708 
L 505.105386 714.682384 
L 505.746489 714.412094 
L 506.387592 714.412094 
L 507.028695 692.879018 
L 507.669798 712.880452 
L 508.3109 709.096397 
L 508.952003 712.42997 
L 509.593106 684.590135 
L 510.234209 712.42997 
L 510.875312 713.961611 
L 511.516415 698.915487 
L 512.157518 713.240839 
L 512.798621 712.970549 
L 513.439724 693.689887 
L 514.080827 711.438908 
L 515.363033 712.970549 
L 516.004136 712.790356 
L 516.645239 712.970549 
L 517.286342 712.880452 
L 517.927445 706.033114 
L 518.568548 712.42997 
L 519.209651 712.069583 
L 519.850754 712.069583 
L 520.491857 711.709197 
L 521.13296 712.520066 
L 521.774063 712.15968 
L 522.415166 712.069583 
L 523.056269 711.799294 
L 523.697372 712.15968 
L 524.338475 712.249777 
L 524.979578 710.267652 
L 525.620681 706.123211 
L 526.261784 710.628039 
L 526.902887 709.81717 
L 527.54399 709.81717 
L 528.185093 709.456783 
L 528.826196 706.123211 
L 529.467299 709.456783 
L 530.108402 709.096397 
L 530.749505 709.456783 
L 531.390607 710.267652 
L 532.03171 710.177556 
L 532.672813 686.03168 
L 533.313916 708.375625 
L 533.955019 709.907266 
L 534.596122 708.015239 
L 535.237225 709.907266 
L 535.878328 709.456783 
L 536.519431 699.996645 
L 537.160534 707.925142 
L 537.801637 708.285528 
L 538.44274 707.654852 
L 539.083843 708.465721 
L 539.724946 709.096397 
L 540.366049 705.672728 
L 541.007152 707.654852 
L 541.648255 708.465721 
L 542.289358 707.564756 
L 542.930461 707.654852 
L 543.571564 705.312342 
L 544.85377 708.375625 
L 545.494873 706.483597 
L 546.135976 691.437473 
L 546.777079 706.483597 
L 547.418182 702.158963 
L 548.059285 706.033114 
L 548.700388 700.807514 
L 549.341491 706.483597 
L 551.2648 705.312342 
L 551.905903 696.572976 
L 552.547006 705.312342 
L 553.188109 705.312342 
L 553.829212 706.843983 
L 554.470315 704.141087 
L 555.111417 700.086742 
L 555.75252 692.788921 
L 556.393623 697.113556 
L 557.034726 702.699542 
L 557.675829 705.672728 
L 558.958035 705.672728 
L 559.599138 704.861859 
L 560.240241 703.420314 
L 560.881344 704.861859 
L 562.804653 703.780701 
L 563.445756 704.141087 
L 564.086859 697.744231 
L 564.727962 703.059928 
L 565.369065 702.339156 
L 566.010168 704.681666 
L 566.651271 692.428535 
L 567.292374 703.059928 
L 567.933477 703.870797 
L 568.57458 704.141087 
L 569.215683 704.231183 
L 569.856786 704.141087 
L 570.497889 703.870797 
L 571.138992 703.059928 
L 571.780095 703.420314 
L 572.421198 703.059928 
L 573.062301 703.870797 
L 573.703404 703.330218 
L 574.344507 703.059928 
L 574.98561 697.113556 
L 575.626713 698.104618 
L 576.267816 702.339156 
L 576.908919 704.59157 
L 577.550022 702.699542 
L 578.832227 688.284093 
L 579.47333 686.392066 
L 580.114433 701.257997 
L 580.755536 701.167901 
L 581.396639 702.339156 
L 582.037742 696.572976 
L 582.678845 699.996645 
L 583.319948 701.528287 
L 583.961051 701.888673 
L 584.602154 701.528287 
L 585.243257 701.528287 
L 585.88436 701.167901 
L 587.166566 701.077804 
L 587.807669 690.086024 
L 588.448772 701.528287 
L 589.089875 701.978769 
L 589.730978 701.888673 
L 590.372081 702.339156 
L 591.654287 702.339156 
L 592.29539 701.888673 
L 592.936493 695.9423 
L 593.577596 701.888673 
L 594.218699 693.960176 
L 594.859802 699.996645 
L 595.500905 689.455349 
L 596.142008 697.744231 
L 596.783111 680.715983 
L 597.424214 693.239404 
L 598.065317 698.5551 
L 598.70642 354.206073 
L 599.347523 695.401721 
L 599.988626 696.21259 
L 600.629729 697.383845 
L 601.270832 698.104618 
L 601.911935 696.753169 
L 602.553037 697.744231 
L 603.19414 696.572976 
L 603.835243 697.383845 
L 604.476346 696.572976 
L 605.117449 697.744231 
L 605.758552 697.834328 
L 606.399655 697.744231 
L 607.040758 697.383845 
L 607.681861 697.383845 
L 608.322964 697.023459 
L 608.964067 697.383845 
L 609.60517 697.023459 
L 610.246273 695.9423 
L 610.887376 696.753169 
L 611.528479 696.302687 
L 612.810685 696.21259 
L 613.451788 695.041335 
L 614.733994 695.9423 
L 615.375097 695.131431 
L 616.0162 695.762107 
L 616.657303 695.9423 
L 617.939509 695.852204 
L 618.580612 685.671293 
L 619.221715 697.113556 
L 619.862818 694.771045 
L 620.503921 694.771045 
L 621.145024 693.3295 
L 621.786127 692.518631 
L 622.42723 693.960176 
L 623.068333 692.158245 
L 623.709436 694.410659 
L 624.350539 693.960176 
L 624.991642 689.455349 
L 625.632745 692.158245 
L 626.273847 693.239404 
L 626.91495 693.239404 
L 627.556053 686.752452 
L 628.197156 694.320562 
L 628.838259 695.131431 
L 629.479362 695.131431 
L 630.120465 693.960176 
L 630.761568 693.960176 
L 631.402671 684.590135 
L 632.043774 693.239404 
L 632.684877 693.59979 
L 633.32598 693.59979 
L 633.967083 690.176121 
L 634.608186 689.185059 
L 635.249289 651.975182 
L 635.890392 689.004866 
L 636.531495 689.815735 
L 637.172598 686.482162 
L 637.813701 689.815735 
L 638.454804 688.284093 
L 639.095907 689.004866 
L 639.73701 689.094962 
L 640.378113 689.365252 
L 641.019216 689.004866 
L 641.660319 672.066714 
L 642.301422 690.626604 
L 642.942525 687.833611 
L 643.583628 688.284093 
L 644.224731 686.392066 
L 644.865834 686.03168 
L 645.506937 687.112838 
L 646.14804 687.202935 
L 647.430246 686.392066 
L 648.071349 686.752452 
L 648.712452 686.392066 
L 649.353555 684.139652 
L 649.994657 685.671293 
L 650.63576 653.506824 
L 651.276863 670.535072 
L 651.917966 684.590135 
L 652.559069 685.310907 
L 653.841275 684.590135 
L 654.482378 683.689169 
L 655.123481 684.590135 
L 655.764584 686.842549 
L 656.405687 669.363817 
L 657.04679 666.390631 
L 657.687893 679.905114 
L 658.328996 685.310907 
L 659.611202 681.526852 
L 660.252305 669.634107 
L 660.893408 679.634824 
L 661.534511 679.905114 
L 662.175614 668.282659 
L 662.816717 681.436755 
L 663.45782 681.166466 
L 664.098923 681.166466 
L 665.381129 680.355597 
L 666.663335 681.166466 
L 667.304438 680.085307 
L 667.945541 659.273003 
L 668.586644 671.345941 
L 669.227747 679.99521 
L 669.86885 679.364535 
L 670.509953 679.274438 
L 671.151056 678.914052 
L 671.792159 679.274438 
L 673.715467 678.103183 
L 674.35657 678.553666 
L 674.997673 677.742797 
L 675.638776 677.742797 
L 676.279879 666.480727 
L 677.562085 679.634824 
L 678.203188 674.319128 
L 678.844291 676.571541 
L 679.485394 676.571541 
L 680.7676 676.121059 
L 681.408703 676.301252 
L 682.049806 675.490383 
L 682.690909 675.490383 
L 683.332012 672.4271 
L 683.973115 672.066714 
L 684.614218 670.174686 
L 685.255321 669.8143 
L 685.896424 668.192562 
L 686.537527 662.876865 
L 687.17863 670.08459 
L 687.819733 670.08459 
L 688.460836 663.777831 
L 689.101939 661.885803 
L 689.743042 668.372755 
L 690.384145 655.488948 
L 691.025248 661.525417 
L 691.666351 664.498603 
L 692.307454 675.129997 
L 694.871866 675.129997 
L 695.512969 674.76961 
L 696.154072 597.196478 
L 696.795174 649.722768 
L 697.436277 665.219376 
L 698.07738 668.012369 
L 698.718483 638.460699 
L 699.359586 672.877583 
L 700.000689 653.59692 
L 700.641792 653.59692 
L 701.282895 640.352727 
L 701.923998 661.074934 
L 702.565101 666.751017 
L 703.206204 657.651265 
L 703.847307 669.363817 
L 704.48841 670.985555 
L 705.129513 670.985555 
L 705.770616 659.903679 
L 706.411719 670.174686 
L 707.052822 659.273003 
L 707.693925 627.559016 
L 708.335028 664.858989 
L 708.976131 666.390631 
L 709.617234 665.309472 
L 710.258337 667.922272 
L 710.89944 669.453914 
L 711.540543 669.453914 
L 712.181646 658.101748 
L 712.822749 668.282659 
L 713.463852 669.003431 
L 714.104955 668.643045 
L 714.746058 626.387761 
L 715.387161 654.768175 
L 716.028264 644.136782 
L 716.669367 649.001996 
L 717.31047 640.26263 
L 717.951573 638.460699 
L 718.592676 662.606576 
L 719.233779 662.246189 
L 719.874882 661.43532 
L 720.515984 660.444258 
L 721.157087 660.714548 
L 721.79819 659.903679 
L 722.439293 649.001996 
L 723.080396 649.722768 
L 723.721499 661.525417 
L 724.362602 660.804645 
L 725.003705 661.615514 
L 725.644808 656.570107 
L 726.285911 659.273003 
L 726.927014 646.839679 
L 727.568117 655.488948 
L 728.20922 660.444258 
L 728.850323 657.290879 
L 729.491426 648.731706 
L 730.132529 658.011651 
L 730.773632 658.82252 
L 731.414735 658.101748 
L 732.055838 656.930493 
L 732.696941 643.776396 
L 733.338044 661.074934 
L 734.62025 661.074934 
L 735.902456 639.181472 
L 736.543559 649.722768 
L 737.184662 638.010217 
L 737.825765 651.975182 
L 738.466868 655.759238 
L 739.107971 638.280506 
L 739.749074 659.543293 
L 740.390177 640.713113 
L 741.672383 654.317693 
L 742.313486 654.317693 
L 742.954589 648.731706 
L 743.595692 653.146438 
L 744.877897 653.86721 
L 745.519 653.506824 
L 746.160103 647.560451 
L 746.801206 652.425665 
L 747.442309 651.344506 
L 748.083412 651.614796 
L 748.724515 644.857555 
L 749.365618 619.900809 
L 750.006721 633.505389 
L 750.647824 651.25441 
L 751.93003 651.25441 
L 752.571133 650.803927 
L 753.212236 650.894024 
L 754.494442 650.173251 
L 755.776648 650.173251 
L 756.417751 649.362382 
L 757.058854 647.920837 
L 757.699957 649.362382 
L 758.34106 647.830741 
L 758.982163 635.847899 
L 759.623266 647.109968 
L 760.264369 647.560451 
L 760.905472 647.830741 
L 761.546575 648.281224 
L 762.187678 647.830741 
L 762.828781 647.560451 
L 763.469884 647.470355 
L 764.110987 647.109968 
L 764.75209 646.389196 
L 765.393193 646.749582 
L 766.034296 646.389196 
L 766.675399 642.87543 
L 767.316502 621.70274 
L 767.957604 584.763153 
L 768.598707 643.41601 
L 769.23981 645.217941 
L 769.880913 644.497168 
L 770.522016 644.857555 
L 771.163119 644.497168 
L 771.804222 644.497168 
L 772.445325 644.046686 
L 773.086428 636.118189 
L 773.727531 642.965527 
L 774.368634 643.41601 
L 775.009737 640.713113 
L 775.65084 640.80321 
L 776.291943 637.559734 
L 776.933046 639.271568 
L 777.574149 639.902244 
L 778.215252 630.802492 
L 778.856355 645.217941 
L 779.497458 627.46892 
L 780.138561 641.884368 
L 780.779664 641.433886 
L 781.420767 645.217941 
L 782.06187 645.668424 
L 782.702973 642.965527 
L 783.344076 644.136782 
L 783.985179 643.235817 
L 784.626282 643.776396 
L 785.267385 639.181472 
L 785.908488 638.100313 
L 786.549591 613.86434 
L 787.190694 619.540423 
L 787.831797 609.719899 
L 788.4729 637.289444 
L 789.114003 638.370603 
L 789.755106 637.289444 
L 790.396209 635.847899 
L 791.037312 636.929058 
L 791.678414 636.568672 
L 792.319517 619.180037 
L 792.96062 635.487513 
L 793.601723 635.487513 
L 794.242826 624.135347 
L 794.883929 626.027375 
L 795.525032 620.261196 
L 796.166135 638.730989 
L 796.807238 639.271568 
L 797.448341 638.911182 
L 798.089444 639.091375 
L 799.37165 637.92012 
L 800.012753 639.181472 
L 800.653856 629.721334 
L 801.294959 633.505389 
L 801.936062 630.171816 
L 802.577165 614.314823 
L 803.859371 632.334134 
L 804.500474 596.475705 
L 805.141577 635.757803 
L 805.78268 636.929058 
L 806.423783 636.568672 
L 807.064886 633.865775 
L 807.705989 629.360947 
L 808.347092 630.532203 
L 808.988195 622.24332 
L 810.270401 633.145003 
L 810.911504 628.550078 
L 811.552607 630.171816 
L 812.834813 628.640175 
L 813.475916 597.286574 
L 814.117019 632.69452 
L 814.758121 633.145003 
L 815.399224 583.231512 
L 816.040327 607.557581 
L 816.68143 585.12354 
L 817.322533 622.873996 
L 818.604739 582.961222 
L 819.245842 585.934409 
L 819.886945 617.648395 
L 821.169151 625.216506 
L 821.810254 604.854685 
L 822.451357 623.774961 
L 823.09246 622.603706 
L 823.733563 624.766023 
L 824.374666 617.648395 
L 825.015769 624.405637 
L 825.656872 609.359513 
L 826.939078 615.395982 
L 827.580181 598.818216 
L 828.221284 612.332699 
L 828.862387 628.550078 
L 829.50349 621.342354 
L 830.144593 622.964092 
L 830.785696 622.513609 
L 831.426799 583.952284 
L 832.067902 619.08994 
L 832.709005 597.016285 
L 833.350108 618.729554 
L 833.991211 625.216506 
L 834.632314 551.968008 
L 835.273417 626.838244 
L 835.91452 609.990188 
L 836.555623 611.702023 
L 837.196726 619.990906 
L 837.837829 603.232947 
L 838.478931 615.756368 
L 839.120034 619.900809 
L 839.761137 603.68343 
L 840.40224 618.819651 
L 841.043343 619.900809 
L 841.684446 604.764588 
L 842.325549 614.945499 
L 842.966652 597.646961 
L 843.607755 606.29623 
L 844.248858 610.440671 
L 844.889961 617.288009 
L 845.531064 618.729554 
L 846.172167 617.648395 
L 846.81327 618.279071 
L 847.454373 595.034161 
L 848.095476 616.206851 
L 848.736579 617.197913 
L 849.377682 616.927623 
L 850.018785 608.188257 
L 850.659888 607.557581 
L 851.300991 588.547209 
L 851.942094 612.062409 
L 852.583197 602.422078 
L 853.2243 594.673774 
L 853.865403 593.862905 
L 854.506506 599.538988 
L 855.147609 596.565802 
L 855.788712 600.259761 
L 856.429815 599.629085 
L 857.070918 593.052036 
L 857.712021 568.816064 
L 858.353124 593.862905 
L 858.994227 609.269416 
L 859.63533 598.638023 
L 860.276433 613.053471 
L 860.917536 615.756368 
L 861.558639 616.47714 
L 862.199741 588.276919 
L 862.840844 605.485361 
L 863.481947 591.520395 
L 864.12305 603.593333 
L 864.764153 608.188257 
L 865.405256 594.583678 
L 866.046359 606.746713 
L 866.687462 598.638023 
L 867.328565 607.377388 
L 867.969668 572.690215 
L 868.610771 550.796753 
L 869.251874 576.023788 
L 869.892977 595.84503 
L 870.53408 610.891154 
L 871.175183 591.700588 
L 871.816286 605.215071 
L 872.457389 600.259761 
L 873.098492 600.980533 
L 873.739595 582.51074 
L 874.380698 596.475705 
L 875.021801 599.448892 
L 875.662904 603.953719 
L 876.304007 604.764588 
L 876.94511 604.404202 
L 877.586213 599.989471 
L 878.227316 601.791402 
L 878.868419 600.620147 
L 879.509522 585.934409 
L 880.150625 595.664836 
L 880.791728 603.232947 
L 881.432831 603.68343 
L 882.073934 600.259761 
L 882.715037 601.701306 
L 883.35614 601.431016 
L 883.997243 602.962657 
L 884.638346 589.358078 
L 885.279449 562.509305 
L 885.920551 607.017002 
L 886.561654 532.236863 
L 887.202757 552.598684 
L 887.84386 599.448892 
L 888.484963 599.899374 
L 889.126066 599.448892 
L 889.767169 598.007347 
L 890.408272 599.809278 
L 891.049375 601.07063 
L 891.690478 600.259761 
L 892.331581 589.628367 
L 892.972684 596.205416 
L 894.25489 599.538988 
L 894.895993 592.69165 
L 895.537096 595.034161 
L 896.178199 596.475705 
L 896.819302 593.412423 
L 897.460405 603.593333 
L 898.101508 604.494299 
L 898.742611 586.655181 
L 899.383714 603.68343 
L 900.024817 523.857883 
L 900.66592 550.34627 
L 901.307023 593.052036 
L 901.948126 585.483926 
L 902.589229 593.052036 
L 903.230332 593.772809 
L 904.512538 593.052036 
L 905.153641 590.799623 
L 905.794744 598.367733 
L 907.07695 567.104229 
L 907.718053 599.899374 
L 908.359156 600.259761 
L 909.000259 560.617277 
L 909.641361 557.193608 
L 910.282464 590.889719 
L 910.923567 578.366298 
L 911.56467 590.07885 
L 912.205773 589.988754 
L 912.846876 590.168947 
L 913.487979 589.988754 
L 914.129082 596.475705 
L 914.770185 586.655181 
L 915.411288 589.267981 
L 916.052391 564.311236 
L 916.693494 544.309801 
L 917.334597 582.781029 
L 917.9757 593.412423 
L 918.616803 593.862905 
L 919.257906 575.753498 
L 919.899009 571.068477 
L 920.540112 585.12354 
L 921.181215 591.880781 
L 921.822318 567.284422 
L 922.463421 567.825001 
L 923.104524 584.402767 
L 923.745627 586.384891 
L 924.38673 587.015567 
L 925.027833 586.655181 
L 925.668936 581.699871 
L 926.310039 524.668752 
L 926.951142 512.325524 
L 927.592245 583.231512 
L 928.233348 578.005912 
L 928.874451 565.122105 
L 930.156657 584.763153 
L 930.79776 584.763153 
L 931.438863 574.942629 
L 932.079966 584.763153 
L 932.721069 580.258326 
L 933.362171 573.050602 
L 934.003274 557.103512 
L 934.644377 579.89794 
L 935.28548 550.07598 
L 935.926583 575.663402 
L 936.567686 579.447457 
L 937.208789 579.177167 
L 937.849892 582.060257 
L 938.490995 575.753498 
L 939.132098 579.537553 
L 939.773201 577.195043 
L 940.414304 533.408118 
L 941.055407 579.087071 
L 941.69651 576.834657 
L 942.337613 577.195043 
L 942.978716 577.28514 
L 943.619819 537.192173 
L 944.260922 576.203981 
L 944.902025 570.077415 
L 945.543128 530.074546 
L 946.184231 568.275484 
L 946.825334 575.303015 
L 947.466437 527.732035 
L 948.10754 575.663402 
L 948.748643 575.663402 
L 949.389746 575.303015 
L 950.030849 560.527181 
L 950.671952 583.231512 
L 951.313055 583.321609 
L 951.954158 517.551125 
L 952.595261 571.51896 
L 953.236364 529.624063 
L 953.877467 570.437801 
L 954.51857 572.690215 
L 955.159673 572.419926 
L 955.800776 565.842877 
L 956.441879 568.545774 
L 957.082981 571.879346 
L 957.724084 571.969443 
L 958.365187 571.609057 
L 959.00629 555.752063 
L 959.647393 570.708091 
L 960.288496 556.022353 
L 960.929599 579.807843 
L 961.570702 521.605469 
L 962.852908 574.942629 
L 963.494011 559.806408 
L 964.135114 576.384174 
L 964.776217 574.942629 
L 965.41732 510.793883 
L 966.058423 528.452808 
L 966.699526 567.014132 
L 967.340629 567.915098 
L 967.981732 568.185388 
L 968.622835 566.924036 
L 969.263938 567.374519 
L 969.905041 566.924036 
L 970.546144 566.29336 
L 971.187247 566.29336 
L 971.82835 510.974076 
L 972.469453 485.476752 
L 973.110556 559.085636 
L 973.751659 571.51896 
L 974.392762 511.424559 
L 975.033865 560.617277 
L 975.674968 570.708091 
L 976.316071 570.798188 
L 976.957174 541.697001 
L 977.598277 559.446022 
L 978.23938 495.117083 
L 978.880483 547.46318 
L 979.521586 543.589029 
L 980.162688 560.977663 
L 980.803791 561.698436 
L 981.444894 561.428146 
L 982.085997 559.806408 
L 982.7271 560.977663 
L 983.368203 559.806408 
L 984.009306 560.617277 
L 984.650409 559.446022 
L 985.291512 554.941194 
L 985.932615 559.536118 
L 986.573718 559.806408 
L 987.214821 559.896505 
L 987.855924 550.436367 
L 988.497027 557.193608 
L 989.13813 553.860036 
L 989.779233 549.265111 
L 990.420336 549.265111 
L 991.061439 553.409553 
L 991.702542 540.886132 
L 992.343645 546.922601 
L 992.984748 548.093856 
L 993.625851 543.138546 
L 994.266954 547.282987 
L 994.908057 547.373084 
L 995.54916 542.057387 
L 996.190263 546.562215 
L 996.831366 541.336615 
L 997.472469 546.922601 
L 998.113572 542.77816 
L 998.754675 545.841442 
L 999.395778 535.300146 
L 1000.036881 537.552559 
L 1000.677984 537.912946 
L 1001.319087 543.679125 
L 1002.601293 536.74169 
L 1003.242396 543.679125 
L 1003.883498 537.912946 
L 1004.524601 538.003042 
L 1005.165704 535.750628 
L 1005.806807 537.462463 
L 1007.089013 536.831787 
L 1007.730116 546.652311 
L 1009.012322 535.930821 
L 1010.294528 535.300146 
L 1010.935631 537.552559 
L 1011.576734 558.995539 
L 1012.217837 457.907206 
L 1012.85894 511.875042 
L 1013.500043 490.341965 
L 1014.141146 503.946545 
L 1014.782249 554.851098 
L 1015.423352 517.190738 
L 1016.064455 492.954765 
L 1016.705558 535.660532 
L 1017.346661 533.768504 
L 1017.987764 482.053083 
L 1019.26997 540.886132 
L 1020.552176 544.670187 
L 1021.193279 547.373084 
L 1021.834382 547.46318 
L 1022.475485 546.562215 
L 1023.116588 513.406683 
L 1023.757691 490.612255 
L 1024.398794 538.994104 
L 1025.039897 523.137111 
L 1025.681 540.16536 
L 1026.322103 541.606904 
L 1026.963206 541.336615 
L 1027.604308 541.697001 
L 1028.245411 538.994104 
L 1028.886514 538.003042 
L 1029.527617 532.957635 
L 1030.16872 510.703787 
L 1030.809823 541.697001 
L 1031.450926 542.057387 
L 1032.092029 530.344835 
L 1032.733132 539.444587 
L 1033.374235 535.660532 
L 1034.015338 537.912946 
L 1034.656441 538.723815 
L 1035.297544 537.552559 
L 1035.938647 537.102077 
L 1036.57975 538.273332 
L 1037.220853 532.236863 
L 1037.861956 516.740256 
L 1038.503059 537.192173 
L 1039.785265 537.192173 
L 1040.426368 536.471401 
L 1041.067471 535.570435 
L 1042.349677 528.092421 
L 1042.99078 543.949415 
L 1044.272986 523.94798 
L 1044.914089 533.408118 
L 1045.555192 531.78638 
L 1046.196295 505.38809 
L 1046.837398 518.632283 
L 1047.478501 505.027704 
L 1048.119604 521.245083 
L 1048.760707 544.309801 
L 1049.40181 544.309801 
L 1050.042913 533.858601 
L 1051.325118 451.330158 
L 1051.966221 528.002325 
L 1052.607324 530.344835 
L 1053.248427 529.624063 
L 1053.88953 530.615125 
L 1054.530633 530.344835 
L 1055.171736 530.344835 
L 1055.812839 529.17358 
L 1056.453942 528.813194 
L 1057.095045 507.280117 
L 1057.736148 499.081331 
L 1058.377251 528.452808 
L 1059.018354 528.092421 
L 1059.659457 528.813194 
L 1060.30056 526.921166 
L 1060.941663 534.489277 
L 1061.582766 481.6026 
L 1062.223869 463.853579 
L 1062.864972 528.092421 
L 1063.506075 529.533966 
L 1064.147178 538.994104 
L 1064.788281 515.659097 
L 1065.429384 536.020918 
L 1066.070487 525.479621 
L 1066.71159 536.381304 
L 1067.352693 494.486407 
L 1067.993796 501.694131 
L 1068.634899 474.935455 
L 1069.276002 533.678408 
L 1069.917105 533.047732 
L 1070.558208 532.957635 
L 1071.199311 533.047732 
L 1071.840414 520.884697 
L 1072.481517 514.127456 
L 1073.12262 517.100642 
L 1073.763723 511.514656 
L 1074.404826 511.514656 
L 1075.045928 510.253304 
L 1075.687031 503.225773 
L 1076.328134 502.77529 
L 1076.969237 504.667317 
L 1077.61034 531.51609 
L 1078.251443 532.597249 
L 1078.892546 532.957635 
L 1079.533649 531.876477 
L 1080.174752 532.236863 
L 1080.815855 531.876477 
L 1082.098061 530.705221 
L 1082.739164 531.876477 
L 1084.02137 499.802104 
L 1084.662473 494.035924 
L 1085.303576 515.659097 
L 1085.944679 516.379869 
L 1087.867988 525.840008 
L 1088.509091 525.479621 
L 1089.150194 524.939042 
L 1089.791297 515.298711 
L 1090.4324 508.451373 
L 1091.073503 487.999455 
L 1091.714606 511.784945 
L 1092.355709 513.767069 
L 1092.996812 514.217552 
L 1093.637915 513.767069 
L 1094.279018 486.107427 
L 1094.920121 503.946545 
L 1095.561224 486.467814 
L 1096.202327 444.933303 
L 1096.84343 509.172145 
L 1097.484533 509.622628 
L 1098.125636 518.632283 
L 1098.766738 396.461357 
L 1099.407841 517.911511 
L 1100.048944 519.713442 
L 1100.690047 519.353056 
L 1101.33115 514.397745 
L 1101.972253 499.351621 
L 1103.254459 483.134241 
L 1103.895562 498.540752 
L 1104.536665 497.54969 
L 1105.177768 518.361994 
L 1105.818871 520.884697 
L 1106.459974 520.974794 
L 1107.101077 515.569 
L 1107.74218 517.190738 
L 1108.383283 467.547537 
L 1109.024386 495.207179 
L 1109.665489 488.089552 
L 1110.306592 499.802104 
L 1110.947695 487.639069 
L 1111.588798 493.585441 
L 1112.229901 486.55791 
L 1112.871004 474.484972 
L 1113.512107 488.810324 
L 1114.15321 449.888613 
L 1114.794313 497.910076 
L 1115.435416 500.883262 
L 1116.076519 500.432779 
L 1116.717622 501.243648 
L 1117.358725 501.694131 
L 1117.999828 499.441717 
L 1118.640931 500.432779 
L 1119.282034 498.180366 
L 1119.923137 500.522876 
L 1120.56424 499.351621 
L 1121.205343 499.441717 
L 1121.846445 497.819979 
L 1122.487548 505.38809 
L 1123.128651 444.933303 
L 1123.769754 494.846793 
L 1124.410857 494.486407 
L 1125.05196 452.411316 
L 1125.693063 465.475317 
L 1126.334166 484.665883 
L 1126.975269 469.169275 
L 1127.616372 497.459593 
L 1128.257475 460.069523 
L 1128.898578 505.748476 
L 1129.539681 487.278683 
L 1130.180784 507.280117 
L 1130.821887 496.738821 
L 1131.46299 482.683758 
L 1132.104093 498.270462 
L 1132.745196 498.270462 
L 1133.386299 497.459593 
L 1134.027402 441.59973 
L 1134.668505 494.126021 
L 1135.309608 493.675538 
L 1135.950711 423.760612 
L 1136.591814 473.313717 
L 1137.232917 488.359841 
L 1137.87402 474.484972 
L 1138.515123 487.999455 
L 1139.156226 497.099207 
L 1139.797329 501.964421 
L 1140.438432 491.062738 
L 1141.079535 500.072393 
L 1141.720638 499.712007 
L 1142.361741 446.915427 
L 1143.002844 408.354102 
L 1143.643947 493.315152 
L 1144.28505 499.712007 
L 1144.926153 487.999455 
L 1145.567255 487.278683 
L 1146.208358 488.810324 
L 1146.849461 487.639069 
L 1147.490564 459.619041 
L 1148.131667 475.656227 
L 1148.77277 466.826765 
L 1149.413873 487.639069 
L 1150.054976 458.537882 
L 1150.696079 487.278683 
L 1151.337182 486.107427 
L 1151.978285 485.656945 
L 1152.619388 486.467814 
L 1153.260491 485.747041 
L 1153.901594 485.386655 
L 1154.542697 497.189304 
L 1155.1838 498.991235 
L 1155.824903 498.991235 
L 1156.466006 449.077744 
L 1157.107109 490.341965 
L 1157.748212 474.484972 
L 1158.389315 477.368062 
L 1159.030418 477.097772 
L 1159.671521 416.192502 
L 1160.312624 493.315152 
L 1160.953727 421.057716 
L 1161.59483 445.744171 
L 1162.235933 492.954765 
L 1162.877036 492.143897 
L 1163.518139 492.504283 
L 1164.159242 454.483537 
L 1164.800345 479.620476 
L 1165.441448 471.331593 
L 1166.082551 478.629413 
L 1166.723654 471.782075 
L 1167.364757 471.421689 
L 1168.00586 464.934737 
L 1168.646963 455.114213 
L 1169.288065 457.81711 
L 1169.929168 424.571481 
L 1170.570271 461.511068 
L 1171.211374 441.239344 
L 1171.852477 466.826765 
L 1172.49358 486.8282 
L 1173.134683 472.953331 
L 1174.416889 475.205744 
L 1175.057992 475.205744 
L 1175.699095 349.07057 
L 1176.340198 463.853579 
L 1177.622404 473.674103 
L 1178.263507 471.1514 
L 1178.90461 462.862517 
L 1179.545713 488.089552 
L 1180.186816 362.224666 
L 1180.827919 365.918625 
L 1181.469022 481.692696 
L 1182.110125 471.872172 
L 1182.751228 375.46886 
L 1183.392331 486.197524 
L 1184.033434 446.55504 
L 1184.674537 421.598295 
L 1185.31564 469.169275 
L 1185.956743 469.619758 
L 1186.597846 452.951896 
L 1187.238949 469.529662 
L 1187.880052 469.890048 
L 1188.521155 473.7642 
L 1189.162258 400.425605 
L 1189.803361 467.99802 
L 1190.444464 468.358406 
L 1191.085567 458.177496 
L 1191.72667 462.412034 
L 1192.367773 463.403096 
L 1193.008875 458.177496 
L 1193.649978 439.25722 
L 1194.291081 462.321937 
L 1194.932184 465.38522 
L 1195.573287 464.664448 
L 1196.21439 464.934737 
L 1196.855493 447.185716 
L 1197.496596 449.888613 
L 1198.137699 447.185716 
L 1198.778802 448.717358 
L 1199.419905 445.203592 
L 1200.061008 477.728448 
L 1200.702111 478.539317 
L 1201.343214 404.47995 
L 1201.984317 447.185716 
L 1202.62542 426.103123 
L 1203.266523 439.977992 
L 1203.907626 458.627979 
L 1204.548729 444.933303 
L 1205.189832 445.654075 
L 1205.830935 444.572916 
L 1206.472038 446.82533 
L 1207.113141 444.21253 
L 1207.754244 428.715923 
L 1208.395347 442.680889 
L 1209.03645 444.48282 
L 1210.318656 444.572916 
L 1210.959759 444.933303 
L 1211.600862 367.179977 
L 1212.241965 452.141027 
L 1212.883068 455.114213 
L 1213.524171 450.609385 
L 1214.806377 437.815675 
L 1215.44748 426.733799 
L 1216.088583 392.857495 
L 1216.729685 449.43813 
L 1217.370788 450.699482 
L 1218.011891 454.123151 
L 1218.652994 429.887178 
L 1219.294097 426.103123 
L 1219.9352 424.120999 
L 1220.576303 437.725578 
L 1221.217406 433.220751 
L 1221.858509 414.660861 
L 1222.499612 408.264005 
L 1223.140715 416.642985 
L 1223.781818 426.733799 
L 1224.422921 438.896833 
L 1225.064024 446.374847 
L 1225.705127 452.141027 
L 1226.34623 447.996585 
L 1226.987333 434.842489 
L 1227.628436 448.356972 
L 1228.269539 448.356972 
L 1228.910642 449.077744 
L 1229.551745 447.996585 
L 1230.192848 440.878958 
L 1230.833951 432.499978 
L 1231.475054 276.092361 
L 1232.116157 276.362651 
L 1232.75726 295.643313 
L 1233.398363 302.851038 
L 1234.039466 449.528227 
L 1234.680569 448.356972 
L 1235.321672 427.544668 
L 1235.962775 447.636199 
L 1236.603878 422.319068 
L 1237.244981 383.30726 
L 1237.886084 439.25722 
L 1238.527187 443.491758 
L 1239.809393 443.401661 
L 1240.450495 310.779534 
L 1241.091598 432.860364 
L 1241.732701 414.390571 
L 1242.373804 432.860364 
L 1243.014907 362.585053 
L 1243.65601 434.301909 
L 1244.297113 443.852144 
L 1244.938216 443.762047 
L 1245.579319 457.81711 
L 1246.220422 458.267592 
L 1246.861525 457.366627 
L 1247.502628 456.916144 
L 1248.143731 382.676584 
L 1248.784834 388.26257 
L 1249.425937 363.305825 
L 1250.708143 430.517854 
L 1251.349246 435.112778 
L 1251.990349 435.202875 
L 1252.631452 429.076309 
L 1253.272555 438.806737 
L 1253.913658 439.707702 
L 1254.554761 436.284033 
L 1255.195864 427.905054 
L 1255.836967 429.526792 
L 1256.47807 427.99515 
L 1257.119173 415.832116 
L 1257.760276 432.049495 
L 1258.401379 426.463509 
L 1259.042482 444.933303 
L 1259.683585 355.737715 
L 1260.324688 430.698047 
L 1260.965791 413.579702 
L 1262.247997 361.413797 
L 1262.8891 342.944004 
L 1263.530202 415.47173 
L 1264.171305 365.197853 
L 1264.812408 426.013026 
L 1265.453511 402.227536 
L 1266.094614 429.076309 
L 1266.735717 430.607951 
L 1267.37682 427.274378 
L 1268.017923 427.99515 
L 1268.659026 427.184281 
L 1269.300129 424.571481 
L 1269.941232 427.184281 
L 1270.582335 426.013026 
L 1271.223438 423.400226 
L 1271.864541 419.255785 
L 1272.505644 407.903619 
L 1274.428953 443.852144 
L 1275.070056 443.762047 
L 1275.711159 437.815675 
L 1276.352262 363.305825 
L 1276.993365 385.92006 
L 1277.634468 418.535012 
L 1278.275571 410.516419 
L 1278.916674 413.940088 
L 1279.557777 418.535012 
L 1280.19888 385.64977 
L 1280.839983 418.895399 
L 1281.481086 421.057716 
L 1282.122189 420.69733 
L 1282.763292 421.508199 
L 1283.404395 421.868585 
L 1284.045498 418.805302 
L 1284.686601 386.010157 
L 1285.327704 429.166406 
L 1285.968807 375.829246 
L 1286.60991 417.453854 
L 1287.251012 418.535012 
L 1287.892115 418.805302 
L 1288.533218 417.724143 
L 1289.174321 400.335509 
L 1289.815424 396.191067 
L 1290.456527 433.941523 
L 1291.09763 415.111343 
L 1291.738733 414.030185 
L 1292.379836 414.750957 
L 1293.020939 414.750957 
L 1293.662042 404.930433 
L 1294.303145 392.046626 
L 1294.944248 398.443481 
L 1295.585351 368.621522 
L 1296.226454 402.227536 
L 1296.867557 419.255785 
L 1297.50866 381.054846 
L 1298.149763 414.390571 
L 1298.790866 427.905054 
L 1299.431969 327.447397 
L 1300.073072 417.003371 
L 1300.714175 317.17639 
L 1301.355278 415.922212 
L 1301.996381 407.903619 
L 1302.637484 406.011591 
L 1303.278587 410.156033 
L 1303.91969 410.516419 
L 1304.560793 399.614736 
L 1305.201896 428.26544 
L 1305.842999 427.544668 
L 1306.484102 426.103123 
L 1307.766308 428.26544 
L 1308.407411 425.65264 
L 1309.048514 427.905054 
L 1309.689617 426.913992 
L 1310.33072 403.759178 
L 1310.971822 362.585053 
L 1311.612925 409.795647 
L 1312.254028 411.237192 
L 1312.895131 367.08988 
L 1313.536234 423.850709 
L 1314.177337 387.902184 
L 1314.81844 417.634047 
L 1315.459543 391.596143 
L 1316.100646 402.227536 
L 1316.741749 398.443481 
L 1317.382852 401.506764 
L 1318.023955 401.146378 
L 1318.665058 399.975122 
L 1319.306161 400.785991 
L 1319.947264 398.893964 
L 1320.588367 399.164253 
L 1321.22947 404.570047 
L 1321.870573 329.429521 
L 1322.511676 419.976557 
L 1323.152779 407.903619 
L 1323.793882 419.255785 
L 1324.434985 419.976557 
L 1325.076088 418.985495 
L 1325.717191 418.985495 
L 1326.358294 418.08453 
L 1326.999397 417.724143 
L 1327.6405 405.380916 
L 1328.281603 319.5189 
L 1328.922706 410.876805 
L 1329.563809 413.669798 
L 1330.204912 412.858929 
L 1330.846015 397.632612 
L 1331.487118 243.927892 
L 1332.128221 383.30726 
L 1332.769324 341.412363 
L 1333.410427 410.606516 
L 1334.05153 368.171039 
L 1334.692632 391.686239 
L 1335.333735 379.613301 
L 1335.974838 391.686239 
L 1336.615941 392.046626 
L 1337.257044 406.371978 
L 1337.898147 407.182847 
L 1338.53925 389.704115 
L 1339.821456 346.277576 
L 1340.462559 326.726624 
L 1341.103662 379.973687 
L 1341.744765 392.497108 
L 1342.385868 372.405577 
L 1343.026971 385.199288 
L 1343.668074 315.734845 
L 1344.309177 386.730929 
L 1344.95028 386.821026 
L 1345.591383 387.902184 
L 1346.232486 367.450267 
L 1347.514692 390.244695 
L 1348.155795 406.732364 
L 1348.796898 362.945439 
L 1349.438001 292.309741 
L 1350.079104 383.397357 
L 1350.720207 381.054846 
L 1351.36131 383.757743 
L 1352.002413 384.568612 
L 1352.643516 384.118129 
L 1353.284619 381.505329 
L 1353.925722 380.784556 
L 1354.566825 382.946874 
L 1355.207928 372.045191 
L 1355.849031 364.386984 
L 1356.490134 363.756308 
L 1357.131237 345.196418 
L 1357.77234 359.972253 
L 1358.413442 353.215011 
L 1359.054545 362.494956 
L 1359.695648 351.68337 
L 1360.336751 352.404142 
L 1360.977854 360.332639 
L 1361.618957 345.106321 
L 1362.901163 395.019812 
L 1363.542266 379.973687 
L 1364.183369 370.153163 
L 1364.824472 385.559674 
L 1365.465575 351.68337 
L 1366.106678 376.189632 
L 1366.747781 376.550018 
L 1367.388884 375.829246 
L 1368.67109 375.018377 
L 1369.312193 366.008722 
L 1370.594399 350.782404 
L 1371.235502 342.493521 
L 1371.876605 349.701246 
L 1372.517708 392.767398 
L 1373.158811 370.873936 
L 1373.799914 394.208943 
L 1374.441017 394.299039 
L 1375.08212 382.946874 
L 1375.723223 392.857495 
L 1377.005429 392.767398 
L 1377.646532 386.730929 
L 1378.287635 392.407012 
L 1378.928738 362.945439 
L 1379.569841 378.442046 
L 1380.210944 305.193548 
L 1380.852047 387.902184 
L 1381.49315 386.010157 
L 1382.134252 304.022293 
L 1382.775355 366.819591 
L 1383.416458 366.729494 
L 1384.057561 366.369108 
L 1384.698664 366.729494 
L 1385.339767 366.639398 
L 1385.98087 365.918625 
L 1386.621973 354.566459 
L 1387.263076 351.232887 
L 1387.904179 382.676584 
L 1388.545282 380.243977 
L 1389.186385 263.83923 
L 1389.827488 379.523205 
L 1390.468591 335.015507 
L 1391.109694 368.261136 
L 1391.750797 248.432719 
L 1392.3919 382.586488 
L 1393.033003 372.405577 
L 1393.674106 383.757743 
L 1394.315209 340.241107 
L 1394.956312 364.837466 
L 1395.597415 375.829246 
L 1396.238518 375.018377 
L 1396.879621 362.855342 
L 1397.520724 307.355865 
L 1398.161827 356.458487 
L 1398.80293 353.845687 
L 1399.444033 356.458487 
L 1400.085136 356.458487 
L 1400.726239 357.719839 
L 1401.367342 357.269356 
L 1402.008445 356.188197 
L 1402.649548 335.73628 
L 1403.290651 347.088445 
L 1404.572857 327.807783 
L 1405.21396 321.410928 
L 1405.855062 333.483866 
L 1406.496165 290.147424 
L 1407.137268 226.539257 
L 1407.778371 268.794541 
L 1408.419474 319.78919 
L 1409.060577 348.890377 
L 1409.70168 351.593273 
L 1410.342783 345.646901 
L 1410.983886 336.186762 
L 1411.624989 329.9701 
L 1412.266092 331.231452 
L 1412.907195 320.870348 
L 1413.548298 323.663342 
L 1414.189401 367.08988 
L 1414.830504 246.991175 
L 1415.471607 357.269356 
L 1416.11271 360.602928 
L 1416.753813 238.972581 
L 1417.394916 343.754873 
L 1418.036019 347.448832 
L 1418.677122 347.899314 
L 1419.318225 347.088445 
L 1419.959328 325.915755 
L 1420.600431 338.34908 
L 1421.241534 361.143508 
L 1421.882637 344.475645 
L 1422.52374 345.91719 
L 1423.164843 345.196418 
L 1423.805946 166.895339 
L 1424.447049 332.312611 
L 1425.088152 341.772749 
L 1425.729255 342.944004 
L 1427.011461 303.211424 
L 1427.652564 339.520335 
L 1428.293667 315.734845 
L 1428.934769 332.402707 
L 1429.575872 344.025163 
L 1430.216975 321.681217 
L 1430.858078 341.142073 
L 1431.499181 340.331204 
L 1432.140284 350.061632 
L 1432.781387 362.585053 
L 1433.42249 297.895727 
L 1434.063593 275.731975 
L 1434.704696 339.520335 
L 1435.345799 339.610432 
L 1435.986902 332.402707 
L 1436.628005 332.5829 
L 1437.269108 287.444527 
L 1437.910211 336.006569 
L 1438.551314 133.92 
L 1439.192417 285.552499 
L 1439.83352 304.292583 
L 1440.474623 297.895727 
L 1441.115726 334.565025 
L 1441.756829 322.852473 
L 1442.397932 303.57181 
L 1443.039035 316.005135 
L 1443.680138 278.705161 
L 1444.321241 330.780969 
L 1444.962344 334.925411 
L 1445.603447 296.814569 
L 1446.24455 331.591838 
L 1446.885653 285.462403 
L 1447.526756 336.096666 
L 1448.167859 333.483866 
L 1448.808962 323.663342 
L 1449.450065 323.302955 
L 1450.091168 333.12348 
L 1450.732271 334.294735 
L 1451.373374 335.015507 
L 1452.014477 298.706596 
L 1452.655579 294.922541 
L 1454.578888 314.56359 
L 1455.219991 328.078073 
L 1455.861094 327.447397 
L 1456.502197 308.617217 
L 1457.1433 296.814569 
L 1457.784403 287.804913 
L 1458.425506 266.542127 
L 1459.066609 320.960445 
L 1459.707712 323.573245 
L 1460.348815 323.302955 
L 1460.989918 324.023728 
L 1461.631021 337.267921 
L 1462.272124 339.880721 
L 1462.913227 340.69159 
L 1463.55433 330.420583 
L 1464.195433 343.664776 
L 1464.836536 262.397685 
L 1465.477639 321.320831 
L 1466.118742 321.320831 
L 1466.759845 321.501024 
L 1467.400948 319.879286 
L 1468.042051 333.844252 
L 1468.683154 315.644748 
L 1469.324257 217.079119 
L 1469.96536 297.265051 
L 1470.606463 299.427369 
L 1471.247566 310.869631 
L 1471.888669 315.734845 
L 1472.529772 294.472058 
L 1473.170875 294.201769 
L 1473.811978 284.291148 
L 1474.453081 330.420583 
L 1475.094184 327.087011 
L 1475.735287 271.587534 
L 1476.376389 314.923976 
L 1477.017492 283.480279 
L 1477.658595 311.95079 
L 1478.299698 313.122045 
L 1478.940801 313.122045 
L 1479.581904 312.401272 
L 1480.223007 312.761659 
L 1480.86411 302.130265 
L 1481.505213 294.562155 
L 1482.146316 282.849603 
L 1482.787419 279.425934 
L 1483.428522 277.894292 
L 1484.069625 288.615782 
L 1484.710728 256.00083 
L 1485.351831 277.17352 
L 1485.992934 288.435589 
L 1486.634037 276.002265 
L 1487.27514 275.191396 
L 1487.916243 275.641879 
L 1488.557346 274.921106 
L 1489.198449 274.921106 
L 1489.839552 274.29043 
L 1490.480655 253.38803 
L 1491.121758 315.734845 
L 1491.762861 328.979038 
L 1492.403964 317.266486 
L 1493.045067 295.282927 
L 1494.327273 321.410928 
L 1494.327273 321.410928 
" style="fill:none;stroke:#1f77b4;stroke-linecap:square;stroke-width:1.5;"/>
   </g>
   <g id="line2d_19">
    <path clip-path="url(#p1704f8b470)" d="M 276.872727 738.72 
L 310.210082 735.555672 
L 366.627143 730.208003 
L 392.912365 727.476998 
L 415.992072 724.857713 
L 437.14847 722.231831 
L 457.022663 719.540019 
L 476.255752 716.705949 
L 494.847738 713.735961 
L 512.798621 710.64139 
L 530.108402 707.437331 
L 547.418182 704.010662 
L 564.727962 700.356547 
L 582.037742 696.47173 
L 599.347523 692.354444 
L 616.657303 688.004326 
L 633.967083 683.422321 
L 651.276863 678.610601 
L 668.586644 673.572468 
L 686.537527 668.113251 
L 704.48841 662.421156 
L 723.080396 656.28767 
L 741.672383 649.920518 
L 760.905472 643.098147 
L 780.779664 635.808681 
L 801.294959 628.042717 
L 822.451357 619.793596 
L 844.248858 611.057617 
L 867.328565 601.567429 
L 891.690478 591.307398 
L 917.9757 579.988937 
L 946.184231 567.592584 
L 976.957174 553.819187 
L 1010.935631 538.361486 
L 1049.40181 520.610045 
L 1092.355709 500.538122 
L 1138.515123 478.721462 
L 1182.110125 457.876969 
L 1219.9352 439.553393 
L 1252.631452 423.470751 
L 1280.839983 409.350955 
L 1305.842999 396.590452 
L 1328.281603 384.894331 
L 1348.796898 373.956416 
L 1368.029987 363.452128 
L 1385.98087 353.395395 
L 1402.649548 343.807869 
L 1418.677122 334.33433 
L 1434.063593 324.977764 
L 1448.808962 315.744695 
L 1462.913227 306.645197 
L 1476.376389 297.692818 
L 1489.198449 288.904439 
L 1494.327273 285.312924 
L 1494.327273 285.312924 
" style="fill:none;stroke:#ff7f0e;stroke-linecap:square;stroke-width:1.5;"/>
   </g>
   <g id="patch_3">
    <path d="M 216 768.96 
L 216 103.68 
" style="fill:none;stroke:#000000;stroke-linecap:square;stroke-linejoin:miter;stroke-width:0.8;"/>
   </g>
   <g id="patch_4">
    <path d="M 1555.2 768.96 
L 1555.2 103.68 
" style="fill:none;stroke:#000000;stroke-linecap:square;stroke-linejoin:miter;stroke-width:0.8;"/>
   </g>
   <g id="patch_5">
    <path d="M 216 768.96 
L 1555.2 768.96 
" style="fill:none;stroke:#000000;stroke-linecap:square;stroke-linejoin:miter;stroke-width:0.8;"/>
   </g>
   <g id="patch_6">
    <path d="M 216 103.68 
L 1555.2 103.68 
" style="fill:none;stroke:#000000;stroke-linecap:square;stroke-linejoin:miter;stroke-width:0.8;"/>
   </g>
   <g id="legend_1">
    <g id="patch_7">
     <path d="M 223 141.03625 
L 349.451563 141.03625 
Q 351.451563 141.03625 351.451563 139.03625 
L 351.451563 110.68 
Q 351.451563 108.68 349.451563 108.68 
L 223 108.68 
Q 221 108.68 221 110.68 
L 221 139.03625 
Q 221 141.03625 223 141.03625 
z
" style="fill:#ffffff;opacity:0.8;stroke:#cccccc;stroke-linejoin:miter;"/>
    </g>
    <g id="line2d_20">
     <path d="M 225 116.778437 
L 245 116.778437 
" style="fill:none;stroke:#1f77b4;stroke-linecap:square;stroke-width:1.5;"/>
    </g>
    <g id="line2d_21"/>
    <g id="text_20">
     <!-- Experiment results -->
     <g transform="translate(253 120.278437)scale(0.1 -0.1)">
      <defs>
       <path d="M 9.8125 72.90625 
L 55.90625 72.90625 
L 55.90625 64.59375 
L 19.671875 64.59375 
L 19.671875 43.015625 
L 54.390625 43.015625 
L 54.390625 34.71875 
L 19.671875 34.71875 
L 19.671875 8.296875 
L 56.78125 8.296875 
L 56.78125 0 
L 9.8125 0 
z
" id="DejaVuSans-69"/>
       <path d="M 54.890625 54.6875 
L 35.109375 28.078125 
L 55.90625 0 
L 45.3125 0 
L 29.390625 21.484375 
L 13.484375 0 
L 2.875 0 
L 24.125 28.609375 
L 4.6875 54.6875 
L 15.28125 54.6875 
L 29.78125 35.203125 
L 44.28125 54.6875 
z
" id="DejaVuSans-120"/>
       <path d="M 18.109375 8.203125 
L 18.109375 -20.796875 
L 9.078125 -20.796875 
L 9.078125 54.6875 
L 18.109375 54.6875 
L 18.109375 46.390625 
Q 20.953125 51.265625 25.265625 53.625 
Q 29.59375 56 35.59375 56 
Q 45.5625 56 51.78125 48.09375 
Q 58.015625 40.1875 58.015625 27.296875 
Q 58.015625 14.40625 51.78125 6.484375 
Q 45.5625 -1.421875 35.59375 -1.421875 
Q 29.59375 -1.421875 25.265625 0.953125 
Q 20.953125 3.328125 18.109375 8.203125 
z
M 48.6875 27.296875 
Q 48.6875 37.203125 44.609375 42.84375 
Q 40.53125 48.484375 33.40625 48.484375 
Q 26.265625 48.484375 22.1875 42.84375 
Q 18.109375 37.203125 18.109375 27.296875 
Q 18.109375 17.390625 22.1875 11.75 
Q 26.265625 6.109375 33.40625 6.109375 
Q 40.53125 6.109375 44.609375 11.75 
Q 48.6875 17.390625 48.6875 27.296875 
z
" id="DejaVuSans-112"/>
       <path d="M 8.5 21.578125 
L 8.5 54.6875 
L 17.484375 54.6875 
L 17.484375 21.921875 
Q 17.484375 14.15625 20.5 10.265625 
Q 23.53125 6.390625 29.59375 6.390625 
Q 36.859375 6.390625 41.078125 11.03125 
Q 45.3125 15.671875 45.3125 23.6875 
L 45.3125 54.6875 
L 54.296875 54.6875 
L 54.296875 0 
L 45.3125 0 
L 45.3125 8.40625 
Q 42.046875 3.421875 37.71875 1 
Q 33.40625 -1.421875 27.6875 -1.421875 
Q 18.265625 -1.421875 13.375 4.4375 
Q 8.5 10.296875 8.5 21.578125 
z
M 31.109375 56 
z
" id="DejaVuSans-117"/>
      </defs>
      <use xlink:href="#DejaVuSans-69"/>
      <use x="63.183594" xlink:href="#DejaVuSans-120"/>
      <use x="122.363281" xlink:href="#DejaVuSans-112"/>
      <use x="185.839844" xlink:href="#DejaVuSans-101"/>
      <use x="247.363281" xlink:href="#DejaVuSans-114"/>
      <use x="288.476562" xlink:href="#DejaVuSans-105"/>
      <use x="316.259766" xlink:href="#DejaVuSans-109"/>
      <use x="413.671875" xlink:href="#DejaVuSans-101"/>
      <use x="475.195312" xlink:href="#DejaVuSans-110"/>
      <use x="538.574219" xlink:href="#DejaVuSans-116"/>
      <use x="577.783203" xlink:href="#DejaVuSans-32"/>
      <use x="609.570312" xlink:href="#DejaVuSans-114"/>
      <use x="648.433594" xlink:href="#DejaVuSans-101"/>
      <use x="709.957031" xlink:href="#DejaVuSans-115"/>
      <use x="762.056641" xlink:href="#DejaVuSans-117"/>
      <use x="825.435547" xlink:href="#DejaVuSans-108"/>
      <use x="853.21875" xlink:href="#DejaVuSans-116"/>
      <use x="892.427734" xlink:href="#DejaVuSans-115"/>
     </g>
    </g>
    <g id="line2d_22">
     <path d="M 225 131.456563 
L 245 131.456563 
" style="fill:none;stroke:#ff7f0e;stroke-linecap:square;stroke-width:1.5;"/>
    </g>
    <g id="line2d_23"/>
    <g id="text_21">
     <!-- Approximation -->
     <g transform="translate(253 134.956563)scale(0.1 -0.1)">
      <defs>
       <path d="M 34.1875 63.1875 
L 20.796875 26.90625 
L 47.609375 26.90625 
z
M 28.609375 72.90625 
L 39.796875 72.90625 
L 67.578125 0 
L 57.328125 0 
L 50.6875 18.703125 
L 17.828125 18.703125 
L 11.1875 0 
L 0.78125 0 
z
" id="DejaVuSans-65"/>
       <path d="M 34.28125 27.484375 
Q 23.390625 27.484375 19.1875 25 
Q 14.984375 22.515625 14.984375 16.5 
Q 14.984375 11.71875 18.140625 8.90625 
Q 21.296875 6.109375 26.703125 6.109375 
Q 34.1875 6.109375 38.703125 11.40625 
Q 43.21875 16.703125 43.21875 25.484375 
L 43.21875 27.484375 
z
M 52.203125 31.203125 
L 52.203125 0 
L 43.21875 0 
L 43.21875 8.296875 
Q 40.140625 3.328125 35.546875 0.953125 
Q 30.953125 -1.421875 24.3125 -1.421875 
Q 15.921875 -1.421875 10.953125 3.296875 
Q 6 8.015625 6 15.921875 
Q 6 25.140625 12.171875 29.828125 
Q 18.359375 34.515625 30.609375 34.515625 
L 43.21875 34.515625 
L 43.21875 35.40625 
Q 43.21875 41.609375 39.140625 45 
Q 35.0625 48.390625 27.6875 48.390625 
Q 23 48.390625 18.546875 47.265625 
Q 14.109375 46.140625 10.015625 43.890625 
L 10.015625 52.203125 
Q 14.9375 54.109375 19.578125 55.046875 
Q 24.21875 56 28.609375 56 
Q 40.484375 56 46.34375 49.84375 
Q 52.203125 43.703125 52.203125 31.203125 
z
" id="DejaVuSans-97"/>
      </defs>
      <use xlink:href="#DejaVuSans-65"/>
      <use x="68.408203" xlink:href="#DejaVuSans-112"/>
      <use x="131.884766" xlink:href="#DejaVuSans-112"/>
      <use x="195.361328" xlink:href="#DejaVuSans-114"/>
      <use x="234.224609" xlink:href="#DejaVuSans-111"/>
      <use x="292.28125" xlink:href="#DejaVuSans-120"/>
      <use x="351.460938" xlink:href="#DejaVuSans-105"/>
      <use x="379.244141" xlink:href="#DejaVuSans-109"/>
      <use x="476.65625" xlink:href="#DejaVuSans-97"/>
      <use x="537.935547" xlink:href="#DejaVuSans-116"/>
      <use x="577.144531" xlink:href="#DejaVuSans-105"/>
      <use x="604.927734" xlink:href="#DejaVuSans-111"/>
      <use x="666.109375" xlink:href="#DejaVuSans-110"/>
     </g>
    </g>
   </g>
  </g>
 </g>
 <defs>
  <clipPath id="p1704f8b470">
   <rect height="665.28" width="1339.2" x="216" y="103.68"/>
  </clipPath>
 </defs>
</svg>
