<?xml version="1.0" encoding="utf-8" standalone="no"?>
<!DOCTYPE svg PUBLIC "-//W3C//DTD SVG 1.1//EN"
  "http://www.w3.org/Graphics/SVG/1.1/DTD/svg11.dtd">
<!-- Created with matplotlib (https://matplotlib.org/) -->
<svg height="864pt" version="1.1" viewBox="0 0 1728 864" width="1728pt" xmlns="http://www.w3.org/2000/svg" xmlns:xlink="http://www.w3.org/1999/xlink">
 <metadata>
  <rdf:RDF xmlns:cc="http://creativecommons.org/ns#" xmlns:dc="http://purl.org/dc/elements/1.1/" xmlns:rdf="http://www.w3.org/1999/02/22-rdf-syntax-ns#">
   <cc:Work>
    <dc:type rdf:resource="http://purl.org/dc/dcmitype/StillImage"/>
    <dc:date>2020-09-14T17:38:21.359128</dc:date>
    <dc:format>image/svg+xml</dc:format>
    <dc:creator>
     <cc:Agent>
      <dc:title>Matplotlib v3.3.1, https://matplotlib.org/</dc:title>
     </cc:Agent>
    </dc:creator>
   </cc:Work>
  </rdf:RDF>
 </metadata>
 <defs>
  <style type="text/css">*{stroke-linecap:butt;stroke-linejoin:round;}</style>
 </defs>
 <g id="figure_1">
  <g id="patch_1">
   <path d="M 0 864 
L 1728 864 
L 1728 0 
L 0 0 
z
" style="fill:#ffffff;"/>
  </g>
  <g id="axes_1">
   <g id="patch_2">
    <path d="M 216 768.96 
L 1555.2 768.96 
L 1555.2 103.68 
L 216 103.68 
z
" style="fill:#ffffff;"/>
   </g>
   <g id="matplotlib.axis_1">
    <g id="xtick_1">
     <g id="line2d_1">
      <defs>
       <path d="M 0 0 
L 0 3.5 
" id="mb1eff46b8c" style="stroke:#000000;stroke-width:0.8;"/>
      </defs>
      <g>
       <use style="stroke:#000000;stroke-width:0.8;" x="276.872727" xlink:href="#mb1eff46b8c" y="768.96"/>
      </g>
     </g>
     <g id="text_1">
      <!-- 0 -->
      <g transform="translate(273.691477 783.558437)scale(0.1 -0.1)">
       <defs>
        <path d="M 31.78125 66.40625 
Q 24.171875 66.40625 20.328125 58.90625 
Q 16.5 51.421875 16.5 36.375 
Q 16.5 21.390625 20.328125 13.890625 
Q 24.171875 6.390625 31.78125 6.390625 
Q 39.453125 6.390625 43.28125 13.890625 
Q 47.125 21.390625 47.125 36.375 
Q 47.125 51.421875 43.28125 58.90625 
Q 39.453125 66.40625 31.78125 66.40625 
z
M 31.78125 74.21875 
Q 44.046875 74.21875 50.515625 64.515625 
Q 56.984375 54.828125 56.984375 36.375 
Q 56.984375 17.96875 50.515625 8.265625 
Q 44.046875 -1.421875 31.78125 -1.421875 
Q 19.53125 -1.421875 13.0625 8.265625 
Q 6.59375 17.96875 6.59375 36.375 
Q 6.59375 54.828125 13.0625 64.515625 
Q 19.53125 74.21875 31.78125 74.21875 
z
" id="DejaVuSans-48"/>
       </defs>
       <use xlink:href="#DejaVuSans-48"/>
      </g>
     </g>
    </g>
    <g id="xtick_2">
     <g id="line2d_2">
      <g>
       <use style="stroke:#000000;stroke-width:0.8;" x="429.130674" xlink:href="#mb1eff46b8c" y="768.96"/>
      </g>
     </g>
     <g id="text_2">
      <!-- 250 -->
      <g transform="translate(419.586924 783.558437)scale(0.1 -0.1)">
       <defs>
        <path d="M 19.1875 8.296875 
L 53.609375 8.296875 
L 53.609375 0 
L 7.328125 0 
L 7.328125 8.296875 
Q 12.9375 14.109375 22.625 23.890625 
Q 32.328125 33.6875 34.8125 36.53125 
Q 39.546875 41.84375 41.421875 45.53125 
Q 43.3125 49.21875 43.3125 52.78125 
Q 43.3125 58.59375 39.234375 62.25 
Q 35.15625 65.921875 28.609375 65.921875 
Q 23.96875 65.921875 18.8125 64.3125 
Q 13.671875 62.703125 7.8125 59.421875 
L 7.8125 69.390625 
Q 13.765625 71.78125 18.9375 73 
Q 24.125 74.21875 28.421875 74.21875 
Q 39.75 74.21875 46.484375 68.546875 
Q 53.21875 62.890625 53.21875 53.421875 
Q 53.21875 48.921875 51.53125 44.890625 
Q 49.859375 40.875 45.40625 35.40625 
Q 44.1875 33.984375 37.640625 27.21875 
Q 31.109375 20.453125 19.1875 8.296875 
z
" id="DejaVuSans-50"/>
        <path d="M 10.796875 72.90625 
L 49.515625 72.90625 
L 49.515625 64.59375 
L 19.828125 64.59375 
L 19.828125 46.734375 
Q 21.96875 47.46875 24.109375 47.828125 
Q 26.265625 48.1875 28.421875 48.1875 
Q 40.625 48.1875 47.75 41.5 
Q 54.890625 34.8125 54.890625 23.390625 
Q 54.890625 11.625 47.5625 5.09375 
Q 40.234375 -1.421875 26.90625 -1.421875 
Q 22.3125 -1.421875 17.546875 -0.640625 
Q 12.796875 0.140625 7.71875 1.703125 
L 7.71875 11.625 
Q 12.109375 9.234375 16.796875 8.0625 
Q 21.484375 6.890625 26.703125 6.890625 
Q 35.15625 6.890625 40.078125 11.328125 
Q 45.015625 15.765625 45.015625 23.390625 
Q 45.015625 31 40.078125 35.4375 
Q 35.15625 39.890625 26.703125 39.890625 
Q 22.75 39.890625 18.8125 39.015625 
Q 14.890625 38.140625 10.796875 36.28125 
z
" id="DejaVuSans-53"/>
       </defs>
       <use xlink:href="#DejaVuSans-50"/>
       <use x="63.623047" xlink:href="#DejaVuSans-53"/>
       <use x="127.246094" xlink:href="#DejaVuSans-48"/>
      </g>
     </g>
    </g>
    <g id="xtick_3">
     <g id="line2d_3">
      <g>
       <use style="stroke:#000000;stroke-width:0.8;" x="581.388622" xlink:href="#mb1eff46b8c" y="768.96"/>
      </g>
     </g>
     <g id="text_3">
      <!-- 500 -->
      <g transform="translate(571.844872 783.558437)scale(0.1 -0.1)">
       <use xlink:href="#DejaVuSans-53"/>
       <use x="63.623047" xlink:href="#DejaVuSans-48"/>
       <use x="127.246094" xlink:href="#DejaVuSans-48"/>
      </g>
     </g>
    </g>
    <g id="xtick_4">
     <g id="line2d_4">
      <g>
       <use style="stroke:#000000;stroke-width:0.8;" x="733.646569" xlink:href="#mb1eff46b8c" y="768.96"/>
      </g>
     </g>
     <g id="text_4">
      <!-- 750 -->
      <g transform="translate(724.102819 783.558437)scale(0.1 -0.1)">
       <defs>
        <path d="M 8.203125 72.90625 
L 55.078125 72.90625 
L 55.078125 68.703125 
L 28.609375 0 
L 18.3125 0 
L 43.21875 64.59375 
L 8.203125 64.59375 
z
" id="DejaVuSans-55"/>
       </defs>
       <use xlink:href="#DejaVuSans-55"/>
       <use x="63.623047" xlink:href="#DejaVuSans-53"/>
       <use x="127.246094" xlink:href="#DejaVuSans-48"/>
      </g>
     </g>
    </g>
    <g id="xtick_5">
     <g id="line2d_5">
      <g>
       <use style="stroke:#000000;stroke-width:0.8;" x="885.904516" xlink:href="#mb1eff46b8c" y="768.96"/>
      </g>
     </g>
     <g id="text_5">
      <!-- 1000 -->
      <g transform="translate(873.179516 783.558437)scale(0.1 -0.1)">
       <defs>
        <path d="M 12.40625 8.296875 
L 28.515625 8.296875 
L 28.515625 63.921875 
L 10.984375 60.40625 
L 10.984375 69.390625 
L 28.421875 72.90625 
L 38.28125 72.90625 
L 38.28125 8.296875 
L 54.390625 8.296875 
L 54.390625 0 
L 12.40625 0 
z
" id="DejaVuSans-49"/>
       </defs>
       <use xlink:href="#DejaVuSans-49"/>
       <use x="63.623047" xlink:href="#DejaVuSans-48"/>
       <use x="127.246094" xlink:href="#DejaVuSans-48"/>
       <use x="190.869141" xlink:href="#DejaVuSans-48"/>
      </g>
     </g>
    </g>
    <g id="xtick_6">
     <g id="line2d_6">
      <g>
       <use style="stroke:#000000;stroke-width:0.8;" x="1038.162463" xlink:href="#mb1eff46b8c" y="768.96"/>
      </g>
     </g>
     <g id="text_6">
      <!-- 1250 -->
      <g transform="translate(1025.437463 783.558437)scale(0.1 -0.1)">
       <use xlink:href="#DejaVuSans-49"/>
       <use x="63.623047" xlink:href="#DejaVuSans-50"/>
       <use x="127.246094" xlink:href="#DejaVuSans-53"/>
       <use x="190.869141" xlink:href="#DejaVuSans-48"/>
      </g>
     </g>
    </g>
    <g id="xtick_7">
     <g id="line2d_7">
      <g>
       <use style="stroke:#000000;stroke-width:0.8;" x="1190.42041" xlink:href="#mb1eff46b8c" y="768.96"/>
      </g>
     </g>
     <g id="text_7">
      <!-- 1500 -->
      <g transform="translate(1177.69541 783.558437)scale(0.1 -0.1)">
       <use xlink:href="#DejaVuSans-49"/>
       <use x="63.623047" xlink:href="#DejaVuSans-53"/>
       <use x="127.246094" xlink:href="#DejaVuSans-48"/>
       <use x="190.869141" xlink:href="#DejaVuSans-48"/>
      </g>
     </g>
    </g>
    <g id="xtick_8">
     <g id="line2d_8">
      <g>
       <use style="stroke:#000000;stroke-width:0.8;" x="1342.678357" xlink:href="#mb1eff46b8c" y="768.96"/>
      </g>
     </g>
     <g id="text_8">
      <!-- 1750 -->
      <g transform="translate(1329.953357 783.558437)scale(0.1 -0.1)">
       <use xlink:href="#DejaVuSans-49"/>
       <use x="63.623047" xlink:href="#DejaVuSans-55"/>
       <use x="127.246094" xlink:href="#DejaVuSans-53"/>
       <use x="190.869141" xlink:href="#DejaVuSans-48"/>
      </g>
     </g>
    </g>
    <g id="xtick_9">
     <g id="line2d_9">
      <g>
       <use style="stroke:#000000;stroke-width:0.8;" x="1494.936305" xlink:href="#mb1eff46b8c" y="768.96"/>
      </g>
     </g>
     <g id="text_9">
      <!-- 2000 -->
      <g transform="translate(1482.211305 783.558437)scale(0.1 -0.1)">
       <use xlink:href="#DejaVuSans-50"/>
       <use x="63.623047" xlink:href="#DejaVuSans-48"/>
       <use x="127.246094" xlink:href="#DejaVuSans-48"/>
       <use x="190.869141" xlink:href="#DejaVuSans-48"/>
      </g>
     </g>
    </g>
    <g id="text_10">
     <!-- Vector length -->
     <g transform="translate(852.139844 797.236562)scale(0.1 -0.1)">
      <defs>
       <path d="M 28.609375 0 
L 0.78125 72.90625 
L 11.078125 72.90625 
L 34.1875 11.53125 
L 57.328125 72.90625 
L 67.578125 72.90625 
L 39.796875 0 
z
" id="DejaVuSans-86"/>
       <path d="M 56.203125 29.59375 
L 56.203125 25.203125 
L 14.890625 25.203125 
Q 15.484375 15.921875 20.484375 11.0625 
Q 25.484375 6.203125 34.421875 6.203125 
Q 39.59375 6.203125 44.453125 7.46875 
Q 49.3125 8.734375 54.109375 11.28125 
L 54.109375 2.78125 
Q 49.265625 0.734375 44.1875 -0.34375 
Q 39.109375 -1.421875 33.890625 -1.421875 
Q 20.796875 -1.421875 13.15625 6.1875 
Q 5.515625 13.8125 5.515625 26.8125 
Q 5.515625 40.234375 12.765625 48.109375 
Q 20.015625 56 32.328125 56 
Q 43.359375 56 49.78125 48.890625 
Q 56.203125 41.796875 56.203125 29.59375 
z
M 47.21875 32.234375 
Q 47.125 39.59375 43.09375 43.984375 
Q 39.0625 48.390625 32.421875 48.390625 
Q 24.90625 48.390625 20.390625 44.140625 
Q 15.875 39.890625 15.1875 32.171875 
z
" id="DejaVuSans-101"/>
       <path d="M 48.78125 52.59375 
L 48.78125 44.1875 
Q 44.96875 46.296875 41.140625 47.34375 
Q 37.3125 48.390625 33.40625 48.390625 
Q 24.65625 48.390625 19.8125 42.84375 
Q 14.984375 37.3125 14.984375 27.296875 
Q 14.984375 17.28125 19.8125 11.734375 
Q 24.65625 6.203125 33.40625 6.203125 
Q 37.3125 6.203125 41.140625 7.25 
Q 44.96875 8.296875 48.78125 10.40625 
L 48.78125 2.09375 
Q 45.015625 0.34375 40.984375 -0.53125 
Q 36.96875 -1.421875 32.421875 -1.421875 
Q 20.0625 -1.421875 12.78125 6.34375 
Q 5.515625 14.109375 5.515625 27.296875 
Q 5.515625 40.671875 12.859375 48.328125 
Q 20.21875 56 33.015625 56 
Q 37.15625 56 41.109375 55.140625 
Q 45.0625 54.296875 48.78125 52.59375 
z
" id="DejaVuSans-99"/>
       <path d="M 18.3125 70.21875 
L 18.3125 54.6875 
L 36.8125 54.6875 
L 36.8125 47.703125 
L 18.3125 47.703125 
L 18.3125 18.015625 
Q 18.3125 11.328125 20.140625 9.421875 
Q 21.96875 7.515625 27.59375 7.515625 
L 36.8125 7.515625 
L 36.8125 0 
L 27.59375 0 
Q 17.1875 0 13.234375 3.875 
Q 9.28125 7.765625 9.28125 18.015625 
L 9.28125 47.703125 
L 2.6875 47.703125 
L 2.6875 54.6875 
L 9.28125 54.6875 
L 9.28125 70.21875 
z
" id="DejaVuSans-116"/>
       <path d="M 30.609375 48.390625 
Q 23.390625 48.390625 19.1875 42.75 
Q 14.984375 37.109375 14.984375 27.296875 
Q 14.984375 17.484375 19.15625 11.84375 
Q 23.34375 6.203125 30.609375 6.203125 
Q 37.796875 6.203125 41.984375 11.859375 
Q 46.1875 17.53125 46.1875 27.296875 
Q 46.1875 37.015625 41.984375 42.703125 
Q 37.796875 48.390625 30.609375 48.390625 
z
M 30.609375 56 
Q 42.328125 56 49.015625 48.375 
Q 55.71875 40.765625 55.71875 27.296875 
Q 55.71875 13.875 49.015625 6.21875 
Q 42.328125 -1.421875 30.609375 -1.421875 
Q 18.84375 -1.421875 12.171875 6.21875 
Q 5.515625 13.875 5.515625 27.296875 
Q 5.515625 40.765625 12.171875 48.375 
Q 18.84375 56 30.609375 56 
z
" id="DejaVuSans-111"/>
       <path d="M 41.109375 46.296875 
Q 39.59375 47.171875 37.8125 47.578125 
Q 36.03125 48 33.890625 48 
Q 26.265625 48 22.1875 43.046875 
Q 18.109375 38.09375 18.109375 28.8125 
L 18.109375 0 
L 9.078125 0 
L 9.078125 54.6875 
L 18.109375 54.6875 
L 18.109375 46.1875 
Q 20.953125 51.171875 25.484375 53.578125 
Q 30.03125 56 36.53125 56 
Q 37.453125 56 38.578125 55.875 
Q 39.703125 55.765625 41.0625 55.515625 
z
" id="DejaVuSans-114"/>
       <path id="DejaVuSans-32"/>
       <path d="M 9.421875 75.984375 
L 18.40625 75.984375 
L 18.40625 0 
L 9.421875 0 
z
" id="DejaVuSans-108"/>
       <path d="M 54.890625 33.015625 
L 54.890625 0 
L 45.90625 0 
L 45.90625 32.71875 
Q 45.90625 40.484375 42.875 44.328125 
Q 39.84375 48.1875 33.796875 48.1875 
Q 26.515625 48.1875 22.3125 43.546875 
Q 18.109375 38.921875 18.109375 30.90625 
L 18.109375 0 
L 9.078125 0 
L 9.078125 54.6875 
L 18.109375 54.6875 
L 18.109375 46.1875 
Q 21.34375 51.125 25.703125 53.5625 
Q 30.078125 56 35.796875 56 
Q 45.21875 56 50.046875 50.171875 
Q 54.890625 44.34375 54.890625 33.015625 
z
" id="DejaVuSans-110"/>
       <path d="M 45.40625 27.984375 
Q 45.40625 37.75 41.375 43.109375 
Q 37.359375 48.484375 30.078125 48.484375 
Q 22.859375 48.484375 18.828125 43.109375 
Q 14.796875 37.75 14.796875 27.984375 
Q 14.796875 18.265625 18.828125 12.890625 
Q 22.859375 7.515625 30.078125 7.515625 
Q 37.359375 7.515625 41.375 12.890625 
Q 45.40625 18.265625 45.40625 27.984375 
z
M 54.390625 6.78125 
Q 54.390625 -7.171875 48.1875 -13.984375 
Q 42 -20.796875 29.203125 -20.796875 
Q 24.46875 -20.796875 20.265625 -20.09375 
Q 16.0625 -19.390625 12.109375 -17.921875 
L 12.109375 -9.1875 
Q 16.0625 -11.328125 19.921875 -12.34375 
Q 23.78125 -13.375 27.78125 -13.375 
Q 36.625 -13.375 41.015625 -8.765625 
Q 45.40625 -4.15625 45.40625 5.171875 
L 45.40625 9.625 
Q 42.625 4.78125 38.28125 2.390625 
Q 33.9375 0 27.875 0 
Q 17.828125 0 11.671875 7.65625 
Q 5.515625 15.328125 5.515625 27.984375 
Q 5.515625 40.671875 11.671875 48.328125 
Q 17.828125 56 27.875 56 
Q 33.9375 56 38.28125 53.609375 
Q 42.625 51.21875 45.40625 46.390625 
L 45.40625 54.6875 
L 54.390625 54.6875 
z
" id="DejaVuSans-103"/>
       <path d="M 54.890625 33.015625 
L 54.890625 0 
L 45.90625 0 
L 45.90625 32.71875 
Q 45.90625 40.484375 42.875 44.328125 
Q 39.84375 48.1875 33.796875 48.1875 
Q 26.515625 48.1875 22.3125 43.546875 
Q 18.109375 38.921875 18.109375 30.90625 
L 18.109375 0 
L 9.078125 0 
L 9.078125 75.984375 
L 18.109375 75.984375 
L 18.109375 46.1875 
Q 21.34375 51.125 25.703125 53.5625 
Q 30.078125 56 35.796875 56 
Q 45.21875 56 50.046875 50.171875 
Q 54.890625 44.34375 54.890625 33.015625 
z
" id="DejaVuSans-104"/>
      </defs>
      <use xlink:href="#DejaVuSans-86"/>
      <use x="60.658203" xlink:href="#DejaVuSans-101"/>
      <use x="122.181641" xlink:href="#DejaVuSans-99"/>
      <use x="177.162109" xlink:href="#DejaVuSans-116"/>
      <use x="216.371094" xlink:href="#DejaVuSans-111"/>
      <use x="277.552734" xlink:href="#DejaVuSans-114"/>
      <use x="318.666016" xlink:href="#DejaVuSans-32"/>
      <use x="350.453125" xlink:href="#DejaVuSans-108"/>
      <use x="378.236328" xlink:href="#DejaVuSans-101"/>
      <use x="439.759766" xlink:href="#DejaVuSans-110"/>
      <use x="503.138672" xlink:href="#DejaVuSans-103"/>
      <use x="566.615234" xlink:href="#DejaVuSans-116"/>
      <use x="605.824219" xlink:href="#DejaVuSans-104"/>
     </g>
    </g>
   </g>
   <g id="matplotlib.axis_2">
    <g id="ytick_1">
     <g id="line2d_10">
      <defs>
       <path d="M 0 0 
L -3.5 0 
" id="m116d4b79f3" style="stroke:#000000;stroke-width:0.8;"/>
      </defs>
      <g>
       <use style="stroke:#000000;stroke-width:0.8;" x="216" xlink:href="#m116d4b79f3" y="740.168623"/>
      </g>
     </g>
     <g id="text_11">
      <!-- 0.00 -->
      <g transform="translate(186.734375 743.967842)scale(0.1 -0.1)">
       <defs>
        <path d="M 10.6875 12.40625 
L 21 12.40625 
L 21 0 
L 10.6875 0 
z
" id="DejaVuSans-46"/>
       </defs>
       <use xlink:href="#DejaVuSans-48"/>
       <use x="63.623047" xlink:href="#DejaVuSans-46"/>
       <use x="95.410156" xlink:href="#DejaVuSans-48"/>
       <use x="159.033203" xlink:href="#DejaVuSans-48"/>
      </g>
     </g>
    </g>
    <g id="ytick_2">
     <g id="line2d_11">
      <g>
       <use style="stroke:#000000;stroke-width:0.8;" x="216" xlink:href="#m116d4b79f3" y="664.21907"/>
      </g>
     </g>
     <g id="text_12">
      <!-- 0.05 -->
      <g transform="translate(186.734375 668.018289)scale(0.1 -0.1)">
       <use xlink:href="#DejaVuSans-48"/>
       <use x="63.623047" xlink:href="#DejaVuSans-46"/>
       <use x="95.410156" xlink:href="#DejaVuSans-48"/>
       <use x="159.033203" xlink:href="#DejaVuSans-53"/>
      </g>
     </g>
    </g>
    <g id="ytick_3">
     <g id="line2d_12">
      <g>
       <use style="stroke:#000000;stroke-width:0.8;" x="216" xlink:href="#m116d4b79f3" y="588.269517"/>
      </g>
     </g>
     <g id="text_13">
      <!-- 0.10 -->
      <g transform="translate(186.734375 592.068736)scale(0.1 -0.1)">
       <use xlink:href="#DejaVuSans-48"/>
       <use x="63.623047" xlink:href="#DejaVuSans-46"/>
       <use x="95.410156" xlink:href="#DejaVuSans-49"/>
       <use x="159.033203" xlink:href="#DejaVuSans-48"/>
      </g>
     </g>
    </g>
    <g id="ytick_4">
     <g id="line2d_13">
      <g>
       <use style="stroke:#000000;stroke-width:0.8;" x="216" xlink:href="#m116d4b79f3" y="512.319965"/>
      </g>
     </g>
     <g id="text_14">
      <!-- 0.15 -->
      <g transform="translate(186.734375 516.119183)scale(0.1 -0.1)">
       <use xlink:href="#DejaVuSans-48"/>
       <use x="63.623047" xlink:href="#DejaVuSans-46"/>
       <use x="95.410156" xlink:href="#DejaVuSans-49"/>
       <use x="159.033203" xlink:href="#DejaVuSans-53"/>
      </g>
     </g>
    </g>
    <g id="ytick_5">
     <g id="line2d_14">
      <g>
       <use style="stroke:#000000;stroke-width:0.8;" x="216" xlink:href="#m116d4b79f3" y="436.370412"/>
      </g>
     </g>
     <g id="text_15">
      <!-- 0.20 -->
      <g transform="translate(186.734375 440.169631)scale(0.1 -0.1)">
       <use xlink:href="#DejaVuSans-48"/>
       <use x="63.623047" xlink:href="#DejaVuSans-46"/>
       <use x="95.410156" xlink:href="#DejaVuSans-50"/>
       <use x="159.033203" xlink:href="#DejaVuSans-48"/>
      </g>
     </g>
    </g>
    <g id="ytick_6">
     <g id="line2d_15">
      <g>
       <use style="stroke:#000000;stroke-width:0.8;" x="216" xlink:href="#m116d4b79f3" y="360.420859"/>
      </g>
     </g>
     <g id="text_16">
      <!-- 0.25 -->
      <g transform="translate(186.734375 364.220078)scale(0.1 -0.1)">
       <use xlink:href="#DejaVuSans-48"/>
       <use x="63.623047" xlink:href="#DejaVuSans-46"/>
       <use x="95.410156" xlink:href="#DejaVuSans-50"/>
       <use x="159.033203" xlink:href="#DejaVuSans-53"/>
      </g>
     </g>
    </g>
    <g id="ytick_7">
     <g id="line2d_16">
      <g>
       <use style="stroke:#000000;stroke-width:0.8;" x="216" xlink:href="#m116d4b79f3" y="284.471307"/>
      </g>
     </g>
     <g id="text_17">
      <!-- 0.30 -->
      <g transform="translate(186.734375 288.270525)scale(0.1 -0.1)">
       <defs>
        <path d="M 40.578125 39.3125 
Q 47.65625 37.796875 51.625 33 
Q 55.609375 28.21875 55.609375 21.1875 
Q 55.609375 10.40625 48.1875 4.484375 
Q 40.765625 -1.421875 27.09375 -1.421875 
Q 22.515625 -1.421875 17.65625 -0.515625 
Q 12.796875 0.390625 7.625 2.203125 
L 7.625 11.71875 
Q 11.71875 9.328125 16.59375 8.109375 
Q 21.484375 6.890625 26.8125 6.890625 
Q 36.078125 6.890625 40.9375 10.546875 
Q 45.796875 14.203125 45.796875 21.1875 
Q 45.796875 27.640625 41.28125 31.265625 
Q 36.765625 34.90625 28.71875 34.90625 
L 20.21875 34.90625 
L 20.21875 43.015625 
L 29.109375 43.015625 
Q 36.375 43.015625 40.234375 45.921875 
Q 44.09375 48.828125 44.09375 54.296875 
Q 44.09375 59.90625 40.109375 62.90625 
Q 36.140625 65.921875 28.71875 65.921875 
Q 24.65625 65.921875 20.015625 65.03125 
Q 15.375 64.15625 9.8125 62.3125 
L 9.8125 71.09375 
Q 15.4375 72.65625 20.34375 73.4375 
Q 25.25 74.21875 29.59375 74.21875 
Q 40.828125 74.21875 47.359375 69.109375 
Q 53.90625 64.015625 53.90625 55.328125 
Q 53.90625 49.265625 50.4375 45.09375 
Q 46.96875 40.921875 40.578125 39.3125 
z
" id="DejaVuSans-51"/>
       </defs>
       <use xlink:href="#DejaVuSans-48"/>
       <use x="63.623047" xlink:href="#DejaVuSans-46"/>
       <use x="95.410156" xlink:href="#DejaVuSans-51"/>
       <use x="159.033203" xlink:href="#DejaVuSans-48"/>
      </g>
     </g>
    </g>
    <g id="ytick_8">
     <g id="line2d_17">
      <g>
       <use style="stroke:#000000;stroke-width:0.8;" x="216" xlink:href="#m116d4b79f3" y="208.521754"/>
      </g>
     </g>
     <g id="text_18">
      <!-- 0.35 -->
      <g transform="translate(186.734375 212.320973)scale(0.1 -0.1)">
       <use xlink:href="#DejaVuSans-48"/>
       <use x="63.623047" xlink:href="#DejaVuSans-46"/>
       <use x="95.410156" xlink:href="#DejaVuSans-51"/>
       <use x="159.033203" xlink:href="#DejaVuSans-53"/>
      </g>
     </g>
    </g>
    <g id="ytick_9">
     <g id="line2d_18">
      <g>
       <use style="stroke:#000000;stroke-width:0.8;" x="216" xlink:href="#m116d4b79f3" y="132.572201"/>
      </g>
     </g>
     <g id="text_19">
      <!-- 0.40 -->
      <g transform="translate(186.734375 136.37142)scale(0.1 -0.1)">
       <defs>
        <path d="M 37.796875 64.3125 
L 12.890625 25.390625 
L 37.796875 25.390625 
z
M 35.203125 72.90625 
L 47.609375 72.90625 
L 47.609375 25.390625 
L 58.015625 25.390625 
L 58.015625 17.1875 
L 47.609375 17.1875 
L 47.609375 0 
L 37.796875 0 
L 37.796875 17.1875 
L 4.890625 17.1875 
L 4.890625 26.703125 
z
" id="DejaVuSans-52"/>
       </defs>
       <use xlink:href="#DejaVuSans-48"/>
       <use x="63.623047" xlink:href="#DejaVuSans-46"/>
       <use x="95.410156" xlink:href="#DejaVuSans-52"/>
       <use x="159.033203" xlink:href="#DejaVuSans-48"/>
      </g>
     </g>
    </g>
    <g id="text_20">
     <!-- Time, ms -->
     <g transform="translate(180.654687 459.206719)rotate(-90)scale(0.1 -0.1)">
      <defs>
       <path d="M -0.296875 72.90625 
L 61.375 72.90625 
L 61.375 64.59375 
L 35.5 64.59375 
L 35.5 0 
L 25.59375 0 
L 25.59375 64.59375 
L -0.296875 64.59375 
z
" id="DejaVuSans-84"/>
       <path d="M 9.421875 54.6875 
L 18.40625 54.6875 
L 18.40625 0 
L 9.421875 0 
z
M 9.421875 75.984375 
L 18.40625 75.984375 
L 18.40625 64.59375 
L 9.421875 64.59375 
z
" id="DejaVuSans-105"/>
       <path d="M 52 44.1875 
Q 55.375 50.25 60.0625 53.125 
Q 64.75 56 71.09375 56 
Q 79.640625 56 84.28125 50.015625 
Q 88.921875 44.046875 88.921875 33.015625 
L 88.921875 0 
L 79.890625 0 
L 79.890625 32.71875 
Q 79.890625 40.578125 77.09375 44.375 
Q 74.3125 48.1875 68.609375 48.1875 
Q 61.625 48.1875 57.5625 43.546875 
Q 53.515625 38.921875 53.515625 30.90625 
L 53.515625 0 
L 44.484375 0 
L 44.484375 32.71875 
Q 44.484375 40.625 41.703125 44.40625 
Q 38.921875 48.1875 33.109375 48.1875 
Q 26.21875 48.1875 22.15625 43.53125 
Q 18.109375 38.875 18.109375 30.90625 
L 18.109375 0 
L 9.078125 0 
L 9.078125 54.6875 
L 18.109375 54.6875 
L 18.109375 46.1875 
Q 21.1875 51.21875 25.484375 53.609375 
Q 29.78125 56 35.6875 56 
Q 41.65625 56 45.828125 52.96875 
Q 50 49.953125 52 44.1875 
z
" id="DejaVuSans-109"/>
       <path d="M 11.71875 12.40625 
L 22.015625 12.40625 
L 22.015625 4 
L 14.015625 -11.625 
L 7.71875 -11.625 
L 11.71875 4 
z
" id="DejaVuSans-44"/>
       <path d="M 44.28125 53.078125 
L 44.28125 44.578125 
Q 40.484375 46.53125 36.375 47.5 
Q 32.28125 48.484375 27.875 48.484375 
Q 21.1875 48.484375 17.84375 46.4375 
Q 14.5 44.390625 14.5 40.28125 
Q 14.5 37.15625 16.890625 35.375 
Q 19.28125 33.59375 26.515625 31.984375 
L 29.59375 31.296875 
Q 39.15625 29.25 43.1875 25.515625 
Q 47.21875 21.78125 47.21875 15.09375 
Q 47.21875 7.46875 41.1875 3.015625 
Q 35.15625 -1.421875 24.609375 -1.421875 
Q 20.21875 -1.421875 15.453125 -0.5625 
Q 10.6875 0.296875 5.421875 2 
L 5.421875 11.28125 
Q 10.40625 8.6875 15.234375 7.390625 
Q 20.0625 6.109375 24.8125 6.109375 
Q 31.15625 6.109375 34.5625 8.28125 
Q 37.984375 10.453125 37.984375 14.40625 
Q 37.984375 18.0625 35.515625 20.015625 
Q 33.0625 21.96875 24.703125 23.78125 
L 21.578125 24.515625 
Q 13.234375 26.265625 9.515625 29.90625 
Q 5.8125 33.546875 5.8125 39.890625 
Q 5.8125 47.609375 11.28125 51.796875 
Q 16.75 56 26.8125 56 
Q 31.78125 56 36.171875 55.265625 
Q 40.578125 54.546875 44.28125 53.078125 
z
" id="DejaVuSans-115"/>
      </defs>
      <use xlink:href="#DejaVuSans-84"/>
      <use x="57.958984" xlink:href="#DejaVuSans-105"/>
      <use x="85.742188" xlink:href="#DejaVuSans-109"/>
      <use x="183.154297" xlink:href="#DejaVuSans-101"/>
      <use x="244.677734" xlink:href="#DejaVuSans-44"/>
      <use x="276.464844" xlink:href="#DejaVuSans-32"/>
      <use x="308.251953" xlink:href="#DejaVuSans-109"/>
      <use x="405.664062" xlink:href="#DejaVuSans-115"/>
     </g>
    </g>
   </g>
   <g id="line2d_19">
    <path clip-path="url(#p76da61bebd)" d="M 276.872727 736.909222 
L 277.481759 738.72 
L 281.13595 738.72 
L 281.744982 738.357844 
L 282.354013 738.357844 
L 282.963045 738.72 
L 283.572077 737.271377 
L 284.181109 738.72 
L 284.790141 736.909222 
L 285.399172 738.72 
L 286.008204 737.271377 
L 286.617236 737.633533 
L 287.226268 736.909222 
L 289.053363 736.909222 
L 289.662395 735.822754 
L 290.271427 735.460599 
L 290.880458 736.909222 
L 291.48949 735.460599 
L 292.098522 723.509461 
L 292.707554 736.909222 
L 293.316586 735.460599 
L 294.534649 735.460599 
L 295.143681 737.271377 
L 295.752713 735.460599 
L 296.361745 735.460599 
L 296.970776 735.822754 
L 297.579808 735.822754 
L 298.18884 735.460599 
L 299.406903 735.460599 
L 300.015935 734.374132 
L 300.624967 735.460599 
L 301.233999 733.64982 
L 301.843031 734.374132 
L 302.452062 735.822754 
L 303.061094 735.460599 
L 303.670126 735.460599 
L 304.279158 734.011976 
L 304.88819 734.374132 
L 305.497221 732.201198 
L 306.106253 734.374132 
L 306.715285 734.011976 
L 307.324317 734.374132 
L 307.933348 732.925509 
L 308.54238 699.24503 
L 309.151412 731.476886 
L 309.760444 732.563353 
L 310.369476 732.563353 
L 310.978507 732.201198 
L 311.587539 732.925509 
L 312.196571 732.201198 
L 312.805603 732.563353 
L 313.414635 730.752575 
L 314.023666 732.201198 
L 314.632698 730.752575 
L 315.24173 732.563353 
L 315.850762 731.114731 
L 316.459794 730.752575 
L 317.068825 731.114731 
L 317.677857 731.114731 
L 318.286889 730.752575 
L 318.895921 731.114731 
L 319.504952 731.114731 
L 320.113984 731.476886 
L 320.723016 731.476886 
L 321.332048 730.752575 
L 321.94108 729.666108 
L 325.59527 729.666108 
L 326.204302 729.303952 
L 326.813334 727.855329 
L 327.422366 729.666108 
L 328.031398 728.941796 
L 329.249461 729.666108 
L 330.467525 729.666108 
L 331.076556 727.855329 
L 331.685588 727.855329 
L 332.29462 728.217485 
L 332.903652 729.666108 
L 333.512684 728.217485 
L 334.121715 729.666108 
L 334.730747 727.855329 
L 335.339779 727.855329 
L 335.948811 728.217485 
L 336.557843 726.768862 
L 337.166874 727.855329 
L 337.775906 723.509461 
L 338.384938 723.509461 
L 338.99397 697.796407 
L 339.603002 726.406707 
L 340.212033 715.904192 
L 340.821065 724.958084 
L 341.430097 726.406707 
L 342.039129 726.406707 
L 342.64816 726.768862 
L 343.257192 726.406707 
L 343.866224 726.768862 
L 344.475256 726.768862 
L 345.084288 718.801437 
L 345.693319 726.768862 
L 346.302351 724.958084 
L 346.911383 724.958084 
L 347.520415 718.439281 
L 348.129447 724.958084 
L 348.738478 713.006946 
L 349.34751 724.958084 
L 349.956542 703.590898 
L 350.565574 726.768862 
L 351.174605 724.958084 
L 351.783637 723.509461 
L 352.392669 726.406707 
L 353.001701 724.958084 
L 353.610733 720.612216 
L 354.219764 703.590898 
L 354.828796 723.509461 
L 355.437828 724.958084 
L 356.04686 723.509461 
L 356.655892 724.595928 
L 357.264923 724.958084 
L 357.873955 696.347784 
L 358.482987 725.32024 
L 359.092019 716.266347 
L 359.701051 723.147305 
L 360.310082 723.509461 
L 360.919114 722.422994 
L 361.528146 722.060838 
L 362.137178 723.509461 
L 367.009432 723.509461 
L 367.618464 722.060838 
L 368.227496 722.422994 
L 368.836527 722.060838 
L 369.445559 723.509461 
L 370.054591 721.698683 
L 371.881686 721.698683 
L 372.490718 722.060838 
L 373.09975 722.060838 
L 373.708782 721.698683 
L 374.317813 721.698683 
L 374.926845 722.060838 
L 375.535877 721.698683 
L 376.144909 720.612216 
L 376.753941 722.060838 
L 377.362972 720.612216 
L 377.972004 720.25006 
L 378.581036 722.060838 
L 379.190068 721.698683 
L 379.7991 721.698683 
L 380.408131 720.25006 
L 381.626195 720.25006 
L 382.235227 720.612216 
L 382.844258 702.142275 
L 383.45329 718.801437 
L 384.671354 718.801437 
L 385.280386 720.25006 
L 385.889417 720.612216 
L 386.498449 720.612216 
L 387.107481 718.801437 
L 387.716513 720.612216 
L 388.325545 718.801437 
L 388.934576 718.801437 
L 389.543608 720.612216 
L 390.15264 718.801437 
L 391.979735 718.801437 
L 392.588767 719.163593 
L 393.197799 718.801437 
L 393.806831 719.163593 
L 394.415862 717.352814 
L 395.024894 716.990659 
L 395.633926 717.352814 
L 396.242958 718.801437 
L 396.85199 718.801437 
L 397.461021 716.990659 
L 398.070053 717.352814 
L 398.679085 717.352814 
L 399.288117 717.71497 
L 399.897149 717.352814 
L 400.50618 717.352814 
L 401.115212 716.990659 
L 402.333276 716.990659 
L 402.942308 717.352814 
L 403.551339 715.542036 
L 404.160371 717.71497 
L 404.769403 711.196168 
L 405.378435 714.455569 
L 405.987466 715.904192 
L 406.596498 715.904192 
L 407.20553 715.542036 
L 407.814562 715.542036 
L 408.423594 716.266347 
L 409.032625 715.904192 
L 409.641657 713.006946 
L 410.250689 714.455569 
L 410.859721 716.266347 
L 411.468753 714.455569 
L 412.077784 715.542036 
L 412.686816 668.823952 
L 413.295848 712.64479 
L 413.90488 714.093413 
L 414.513912 714.455569 
L 415.122943 714.455569 
L 415.731975 715.904192 
L 416.341007 714.455569 
L 416.950039 714.093413 
L 417.55907 712.64479 
L 418.168102 714.455569 
L 418.777134 714.093413 
L 419.386166 714.093413 
L 419.995198 712.282635 
L 420.604229 712.64479 
L 421.213261 712.64479 
L 421.822293 714.455569 
L 422.431325 712.64479 
L 423.040357 688.742515 
L 423.649388 711.558323 
L 424.25842 712.64479 
L 424.867452 688.380359 
L 425.476484 711.196168 
L 426.085515 691.63976 
L 426.694547 708.298922 
L 427.303579 711.558323 
L 427.912611 709.747545 
L 428.521643 682.585868 
L 429.130674 708.298922 
L 429.739706 711.558323 
L 430.348738 711.558323 
L 430.95777 711.196168 
L 431.566802 711.196168 
L 432.175833 711.558323 
L 432.784865 711.196168 
L 433.393897 711.196168 
L 434.002929 711.558323 
L 434.611961 711.558323 
L 435.220992 709.747545 
L 435.830024 711.196168 
L 436.439056 688.742515 
L 437.048088 709.747545 
L 437.657119 710.109701 
L 438.266151 711.196168 
L 438.875183 671.721198 
L 439.484215 682.223713 
L 440.093247 677.877844 
L 440.702278 661.218683 
L 441.31131 674.980599 
L 441.920342 703.590898 
L 442.529374 703.590898 
L 443.138406 708.298922 
L 443.747437 707.936766 
L 444.356469 708.298922 
L 444.965501 708.298922 
L 445.574533 653.975569 
L 446.183565 708.298922 
L 448.01066 708.298922 
L 448.619692 707.936766 
L 449.228723 708.298922 
L 449.837755 709.385389 
L 450.446787 708.298922 
L 453.491946 708.298922 
L 454.100978 706.850299 
L 454.71001 708.298922 
L 455.319041 706.850299 
L 455.928073 706.850299 
L 456.537105 705.039521 
L 457.146137 706.488144 
L 458.3642 707.212455 
L 458.973232 705.039521 
L 459.582264 700.693653 
L 460.191296 706.850299 
L 460.800327 703.590898 
L 461.409359 705.401677 
L 462.018391 705.401677 
L 462.627423 706.850299 
L 463.236455 705.401677 
L 463.845486 706.850299 
L 464.454518 705.039521 
L 465.672582 705.039521 
L 466.281614 705.401677 
L 466.890645 705.039521 
L 467.499677 705.039521 
L 468.108709 705.763832 
L 468.717741 701.78012 
L 469.326772 705.039521 
L 469.935804 703.590898 
L 470.544836 705.039521 
L 471.153868 705.039521 
L 471.7629 703.590898 
L 476.635154 703.590898 
L 477.244186 702.504431 
L 477.853218 703.590898 
L 478.462249 702.142275 
L 479.071281 703.953054 
L 479.680313 702.142275 
L 480.289345 697.434251 
L 480.898376 703.590898 
L 481.507408 703.590898 
L 482.11644 705.401677 
L 482.725472 702.142275 
L 483.334504 703.590898 
L 483.943535 703.953054 
L 484.552567 667.375329 
L 485.161599 679.688623 
L 485.770631 700.331497 
L 486.379663 676.429222 
L 486.988694 699.24503 
L 487.597726 660.856527 
L 488.206758 697.796407 
L 488.81579 624.640958 
L 489.424822 695.985629 
L 490.642885 689.828982 
L 491.251917 689.828982 
L 491.860949 697.796407 
L 492.46998 702.504431 
L 493.079012 700.693653 
L 493.688044 702.504431 
L 494.297076 700.693653 
L 494.906108 688.742515 
L 495.515139 609.430419 
L 496.124171 673.16982 
L 496.733203 697.796407 
L 497.342235 700.693653 
L 497.951267 697.434251 
L 498.560298 699.24503 
L 499.16933 699.24503 
L 499.778362 698.882874 
L 500.387394 697.796407 
L 500.996425 697.796407 
L 501.605457 673.16982 
L 502.214489 697.434251 
L 502.823521 699.24503 
L 503.432553 699.24503 
L 504.041584 692.726228 
L 504.650616 697.796407 
L 505.259648 691.63976 
L 505.86868 691.63976 
L 506.477712 695.985629 
L 507.086743 696.347784 
L 507.695775 669.910419 
L 508.304807 691.63976 
L 508.913839 694.537006 
L 509.522871 694.537006 
L 510.131902 696.347784 
L 510.740934 696.347784 
L 511.349966 694.17485 
L 511.958998 695.985629 
L 512.568029 696.347784 
L 513.177061 694.537006 
L 513.786093 694.899162 
L 514.395125 694.537006 
L 515.004157 694.899162 
L 515.613188 694.899162 
L 516.22222 693.088383 
L 516.831252 694.537006 
L 517.440284 694.537006 
L 518.049316 694.17485 
L 518.658347 693.088383 
L 519.267379 673.16982 
L 519.876411 696.347784 
L 520.485443 695.985629 
L 521.094475 691.277605 
L 521.703506 694.537006 
L 522.312538 694.17485 
L 522.92157 695.985629 
L 523.530602 694.537006 
L 524.139633 695.985629 
L 524.748665 694.537006 
L 525.357697 694.17485 
L 525.966729 626.089581 
L 526.575761 689.828982 
L 527.184792 693.088383 
L 527.793824 664.478084 
L 528.402856 690.191138 
L 529.011888 661.218683 
L 529.62092 691.63976 
L 530.229951 684.034491 
L 530.838983 682.223713 
L 531.448015 683.672335 
L 532.057047 691.63976 
L 532.666078 694.537006 
L 533.27511 693.088383 
L 536.929301 693.088383 
L 537.538333 694.537006 
L 538.147365 691.63976 
L 538.756396 659.77006 
L 539.365428 691.63976 
L 539.97446 693.088383 
L 540.583492 691.63976 
L 541.801555 691.63976 
L 542.410587 689.104671 
L 543.019619 691.63976 
L 543.628651 690.191138 
L 544.237682 686.931737 
L 544.846714 655.062036 
L 545.455746 682.223713 
L 546.064778 684.034491 
L 546.67381 681.137246 
L 547.282841 672.083353 
L 547.891873 689.104671 
L 548.500905 662.667305 
L 549.109937 664.478084 
L 549.718969 686.931737 
L 550.328 689.828982 
L 550.937032 687.293892 
L 551.546064 689.828982 
L 552.764128 690.553293 
L 553.373159 689.828982 
L 553.982191 689.828982 
L 554.591223 640.213653 
L 555.200255 685.483114 
L 555.809286 690.191138 
L 556.418318 686.931737 
L 557.636382 677.515689 
L 558.245414 679.688623 
L 558.854445 679.326467 
L 559.463477 686.931737 
L 560.072509 681.137246 
L 560.681541 686.931737 
L 561.290573 688.380359 
L 561.899604 686.569581 
L 562.508636 688.742515 
L 563.117668 688.380359 
L 563.7267 684.034491 
L 564.335732 684.396647 
L 564.944763 688.380359 
L 565.553795 686.931737 
L 566.162827 688.380359 
L 566.771859 686.931737 
L 567.38089 688.380359 
L 568.598954 685.483114 
L 569.207986 658.683593 
L 569.817018 685.120958 
L 570.426049 684.034491 
L 571.035081 684.034491 
L 571.644113 676.429222 
L 572.253145 672.083353 
L 572.862177 677.877844 
L 573.471208 670.272575 
L 574.08024 635.505629 
L 574.689272 673.16982 
L 575.298304 683.672335 
L 575.907335 685.845269 
L 576.516367 684.396647 
L 577.125399 685.483114 
L 577.734431 683.672335 
L 578.343463 617.035689 
L 578.952494 685.483114 
L 579.561526 685.483114 
L 580.170558 682.223713 
L 580.77959 680.77509 
L 581.388622 653.251257 
L 581.997653 673.16982 
L 582.606685 669.910419 
L 583.215717 669.910419 
L 583.824749 677.877844 
L 584.433781 670.634731 
L 585.042812 667.375329 
L 586.260876 681.137246 
L 587.478939 681.137246 
L 588.087971 680.77509 
L 588.697003 681.137246 
L 589.306035 680.77509 
L 589.915067 676.067066 
L 590.524098 679.688623 
L 591.13313 675.342754 
L 591.742162 658.321437 
L 592.351194 663.753772 
L 592.960226 674.980599 
L 593.569257 568.868982 
L 594.178289 673.531976 
L 594.787321 676.429222 
L 595.396353 675.70491 
L 596.005385 649.267545 
L 596.614416 630.797605 
L 597.223448 655.424192 
L 597.83248 671.721198 
L 598.441512 662.667305 
L 599.050543 664.115928 
L 599.659575 673.531976 
L 600.268607 673.16982 
L 600.877639 674.980599 
L 601.486671 621.743713 
L 602.095702 603.635928 
L 602.704734 591.322635 
L 603.313766 595.668503 
L 603.922798 612.68982 
L 604.53183 624.640958 
L 605.140861 657.959281 
L 605.749893 670.634731 
L 606.358925 676.429222 
L 606.967957 621.743713 
L 607.576988 674.980599 
L 608.18602 674.980599 
L 608.795052 677.877844 
L 609.404084 677.515689 
L 610.013116 676.429222 
L 610.622147 674.980599 
L 611.231179 670.272575 
L 611.840211 673.16982 
L 612.449243 673.16982 
L 613.058275 664.115928 
L 613.667306 664.115928 
L 614.276338 670.272575 
L 614.88537 658.321437 
L 615.494402 661.218683 
L 616.103434 670.272575 
L 616.712465 673.531976 
L 617.321497 674.618443 
L 617.930529 674.618443 
L 618.539561 674.980599 
L 619.148592 668.823952 
L 620.366656 674.618443 
L 620.975688 674.980599 
L 621.58472 673.531976 
L 622.193751 670.634731 
L 622.802783 673.16982 
L 623.411815 653.975569 
L 624.020847 653.975569 
L 624.629879 668.461796 
L 625.23891 659.77006 
L 625.847942 661.218683 
L 626.456974 668.461796 
L 627.066006 673.894132 
L 627.675038 674.980599 
L 628.284069 674.980599 
L 628.893101 671.721198 
L 630.111165 671.721198 
L 630.720196 673.531976 
L 631.329228 668.823952 
L 631.93826 668.823952 
L 632.547292 600.376527 
L 633.156324 668.823952 
L 633.765355 668.823952 
L 634.374387 658.321437 
L 634.983419 656.510659 
L 635.592451 661.218683 
L 636.201483 657.959281 
L 636.810514 659.77006 
L 637.419546 662.30515 
L 638.028578 671.721198 
L 639.246642 671.721198 
L 639.855673 665.926707 
L 640.464705 671.721198 
L 641.073737 620.29509 
L 641.682769 647.818922 
L 642.2918 647.456766 
L 642.900832 655.424192 
L 643.509864 653.613413 
L 644.118896 633.69485 
L 644.727928 665.926707 
L 645.336959 668.461796 
L 645.945991 664.478084 
L 646.555023 668.823952 
L 647.164055 669.186108 
L 647.773087 668.461796 
L 648.382118 670.272575 
L 648.99115 668.461796 
L 649.600182 665.926707 
L 650.209214 667.375329 
L 650.818245 600.014371 
L 651.427277 650.354012 
L 652.036309 632.246228 
L 652.645341 665.202395 
L 653.254373 662.30515 
L 653.863404 668.461796 
L 654.472436 667.013174 
L 655.081468 668.823952 
L 655.6905 667.375329 
L 656.299532 668.461796 
L 657.517595 669.186108 
L 658.126627 661.218683 
L 658.735659 664.478084 
L 659.953722 667.375329 
L 660.562754 565.247425 
L 661.171786 668.461796 
L 661.780818 672.083353 
L 662.389849 671.721198 
L 662.998881 670.272575 
L 663.607913 670.634731 
L 664.216945 670.272575 
L 664.825977 668.823952 
L 665.435008 670.272575 
L 666.04404 606.533174 
L 666.653072 638.402874 
L 667.262104 590.960479 
L 667.871136 648.905389 
L 668.480167 647.456766 
L 669.089199 667.375329 
L 669.698231 615.949222 
L 670.916295 664.478084 
L 671.525326 661.218683 
L 672.134358 664.115928 
L 672.74339 662.667305 
L 673.352422 665.202395 
L 673.961453 662.667305 
L 674.570485 574.663473 
L 675.179517 661.218683 
L 675.788549 584.803832 
L 676.397581 659.77006 
L 677.006612 665.564551 
L 677.615644 662.667305 
L 678.224676 664.478084 
L 678.833708 667.013174 
L 679.44274 667.013174 
L 680.051771 665.564551 
L 680.660803 667.013174 
L 681.269835 661.218683 
L 681.878867 667.013174 
L 682.487898 665.564551 
L 683.09693 667.013174 
L 683.705962 665.926707 
L 684.314994 667.375329 
L 684.924026 655.062036 
L 685.533057 667.013174 
L 686.142089 585.528144 
L 686.751121 661.218683 
L 687.969185 664.115928 
L 688.578216 667.013174 
L 689.187248 663.753772 
L 689.79628 667.375329 
L 690.405312 665.926707 
L 691.014344 665.926707 
L 691.623375 621.381557 
L 692.232407 664.478084 
L 692.841439 664.115928 
L 693.450471 664.478084 
L 694.059502 664.478084 
L 694.668534 665.926707 
L 695.277566 664.115928 
L 695.886598 665.926707 
L 696.49563 665.202395 
L 697.104661 615.949222 
L 697.713693 662.667305 
L 698.322725 664.115928 
L 698.931757 667.375329 
L 699.540789 643.110898 
L 700.14982 665.926707 
L 700.758852 663.029461 
L 701.367884 636.592096 
L 701.976916 664.115928 
L 702.585948 662.30515 
L 703.194979 663.029461 
L 703.804011 664.115928 
L 704.413043 639.851497 
L 705.022075 663.029461 
L 705.631106 660.856527 
L 706.240138 661.218683 
L 706.84917 662.667305 
L 707.458202 661.218683 
L 708.067234 663.029461 
L 708.676265 659.77006 
L 709.285297 655.062036 
L 709.894329 655.424192 
L 710.503361 659.77006 
L 711.112393 659.77006 
L 711.721424 638.76503 
L 712.330456 659.77006 
L 712.939488 653.613413 
L 713.54852 661.218683 
L 714.157552 656.510659 
L 714.766583 659.407904 
L 715.375615 656.510659 
L 715.984647 659.77006 
L 716.593679 656.510659 
L 717.20271 639.851497 
L 717.811742 659.77006 
L 718.420774 659.407904 
L 719.029806 661.218683 
L 719.638838 659.77006 
L 720.247869 659.407904 
L 720.856901 657.959281 
L 721.465933 658.321437 
L 722.074965 658.321437 
L 722.683997 656.872814 
L 723.293028 657.959281 
L 723.90206 657.959281 
L 724.511092 656.510659 
L 725.120124 658.321437 
L 726.338187 658.321437 
L 726.947219 656.872814 
L 727.556251 572.852695 
L 728.165283 655.062036 
L 728.774314 656.510659 
L 729.383346 655.424192 
L 729.992378 656.510659 
L 730.60141 656.510659 
L 731.210442 656.872814 
L 731.819473 654.69988 
L 732.428505 655.062036 
L 733.037537 595.668503 
L 733.646569 655.062036 
L 734.255601 655.062036 
L 734.864632 657.23497 
L 735.473664 655.062036 
L 736.082696 654.69988 
L 737.300759 655.424192 
L 737.909791 651.802635 
L 738.518823 632.608383 
L 739.127855 654.69988 
L 739.736887 655.062036 
L 740.345918 653.251257 
L 740.95495 655.062036 
L 741.563982 655.062036 
L 742.173014 656.510659 
L 742.782046 650.716168 
L 743.391077 653.975569 
L 744.000109 650.354012 
L 744.609141 648.905389 
L 745.218173 629.348982 
L 745.827205 649.267545 
L 746.436236 647.456766 
L 747.045268 652.16479 
L 747.6543 650.716168 
L 748.263332 647.818922 
L 748.872363 624.640958 
L 749.481395 652.16479 
L 750.090427 598.927904 
L 750.699459 577.922874 
L 751.308491 641.30012 
L 751.917522 647.456766 
L 752.526554 647.456766 
L 753.135586 583.35521 
L 753.744618 638.402874 
L 754.35365 639.851497 
L 754.962681 627.538204 
L 755.571713 646.008144 
L 756.180745 653.251257 
L 756.789777 653.975569 
L 757.398808 648.543234 
L 758.00784 646.008144 
L 758.616872 649.267545 
L 759.225904 643.110898 
L 759.834936 650.716168 
L 760.443967 647.456766 
L 761.052999 647.094611 
L 761.662031 650.354012 
L 762.271063 647.818922 
L 762.880095 627.900359 
L 763.489126 648.905389 
L 764.098158 650.354012 
L 764.70719 652.16479 
L 765.316222 650.716168 
L 765.925254 653.613413 
L 766.534285 651.802635 
L 767.143317 652.16479 
L 767.752349 650.354012 
L 768.361381 648.905389 
L 768.970412 650.354012 
L 770.188476 644.559521 
L 770.797508 650.716168 
L 772.015571 545.691018 
L 772.624603 650.354012 
L 773.233635 653.613413 
L 773.842667 655.062036 
L 774.451699 655.424192 
L 775.06073 655.062036 
L 775.669762 603.635928 
L 776.278794 651.802635 
L 776.887826 650.354012 
L 777.496858 650.354012 
L 778.105889 649.267545 
L 778.714921 650.354012 
L 779.323953 644.197365 
L 779.932985 647.094611 
L 780.542016 647.094611 
L 781.76008 647.818922 
L 782.369112 647.818922 
L 782.978144 617.035689 
L 783.587175 652.16479 
L 784.196207 652.16479 
L 784.805239 627.900359 
L 785.414271 650.354012 
L 786.023303 651.802635 
L 786.632334 609.430419 
L 787.241366 635.505629 
L 787.850398 609.430419 
L 788.45943 614.138443 
L 789.068462 585.165988 
L 789.677493 644.559521 
L 790.286525 649.267545 
L 790.895557 647.456766 
L 791.504589 647.456766 
L 792.11362 598.927904 
L 792.722652 644.559521 
L 793.331684 647.818922 
L 793.940716 647.456766 
L 794.549748 626.089581 
L 795.158779 644.197365 
L 795.767811 647.456766 
L 796.376843 646.008144 
L 796.985875 603.273772 
L 797.594907 644.197365 
L 798.203938 623.192335 
L 798.81297 645.645988 
L 799.422002 646.008144 
L 800.031034 647.818922 
L 800.640065 646.008144 
L 801.858129 646.008144 
L 802.467161 645.645988 
L 803.076193 646.370299 
L 803.685224 644.559521 
L 804.294256 643.83521 
L 804.903288 646.008144 
L 805.51232 623.192335 
L 806.121352 646.008144 
L 806.730383 643.83521 
L 807.339415 623.192335 
L 807.948447 622.105868 
L 808.557479 643.110898 
L 809.166511 641.30012 
L 809.775542 641.30012 
L 810.384574 642.748743 
L 810.993606 641.662275 
L 811.602638 594.21988 
L 812.211669 647.818922 
L 812.820701 580.82012 
L 813.429733 619.932934 
L 814.038765 644.559521 
L 814.647797 647.456766 
L 815.256828 647.456766 
L 815.86586 646.370299 
L 816.474892 647.456766 
L 817.083924 644.197365 
L 817.692956 645.645988 
L 818.301987 647.456766 
L 819.520051 644.559521 
L 820.129083 646.008144 
L 820.738115 644.559521 
L 821.347146 644.197365 
L 821.956178 644.559521 
L 822.56521 645.645988 
L 823.174242 647.094611 
L 823.783273 645.645988 
L 824.392305 646.008144 
L 825.001337 641.662275 
L 825.610369 617.035689 
L 826.219401 644.559521 
L 826.828432 639.851497 
L 827.437464 641.30012 
L 828.046496 641.30012 
L 828.655528 620.29509 
L 829.26456 636.592096 
L 829.873591 638.76503 
L 830.482623 634.057006 
L 831.091655 637.316407 
L 831.700687 638.76503 
L 832.309718 638.402874 
L 832.91875 638.402874 
L 833.527782 639.851497 
L 834.136814 638.402874 
L 834.745846 635.505629 
L 835.354877 638.402874 
L 835.963909 636.954251 
L 836.572941 638.402874 
L 837.181973 638.402874 
L 837.791005 636.592096 
L 838.400036 634.057006 
L 839.009068 638.402874 
L 839.6181 636.954251 
L 840.227132 635.143473 
L 840.836164 630.797605 
L 841.445195 633.332695 
L 842.054227 634.057006 
L 842.663259 641.662275 
L 843.272291 638.402874 
L 843.881322 641.30012 
L 844.490354 638.402874 
L 845.099386 621.381557 
L 845.708418 610.879042 
L 846.926481 594.582036 
L 847.535513 523.237365 
L 848.144545 627.176048 
L 848.753577 636.592096 
L 849.362609 632.246228 
L 849.97164 614.500599 
L 850.580672 576.112096 
L 851.189704 612.327665 
L 851.798736 632.246228 
L 852.407768 632.608383 
L 853.016799 631.884072 
L 853.625831 634.057006 
L 854.234863 605.084551 
L 854.843895 610.879042 
L 855.452926 609.430419 
L 856.061958 630.797605 
L 856.67099 635.505629 
L 857.280022 623.192335 
L 857.889054 583.717365 
L 858.498085 635.505629 
L 859.107117 562.35018 
L 859.716149 507.664671 
L 860.325181 618.846467 
L 861.543244 636.954251 
L 862.152276 633.69485 
L 862.761308 632.246228 
L 863.37034 634.057006 
L 863.979372 635.505629 
L 864.588403 633.69485 
L 865.197435 544.242395 
L 865.806467 631.884072 
L 866.415499 630.797605 
L 867.02453 633.332695 
L 868.242594 631.884072 
L 868.851626 632.608383 
L 869.460658 631.15976 
L 870.069689 632.246228 
L 870.678721 632.608383 
L 871.287753 631.884072 
L 871.896785 632.608383 
L 873.114848 632.608383 
L 873.72388 577.560719 
L 874.332912 581.906587 
L 874.941944 603.635928 
L 875.550975 629.348982 
L 876.160007 632.246228 
L 876.769039 626.089581 
L 877.378071 630.797605 
L 877.987103 630.435449 
L 878.596134 627.900359 
L 879.205166 631.884072 
L 879.814198 630.435449 
L 880.42323 632.246228 
L 881.032262 632.608383 
L 881.641293 632.608383 
L 882.250325 633.69485 
L 882.859357 630.797605 
L 883.468389 630.435449 
L 884.077421 607.981796 
L 884.686452 614.138443 
L 885.295484 582.630898 
L 885.904516 597.117126 
L 886.513548 629.348982 
L 887.122579 628.986826 
L 887.731611 627.538204 
L 888.340643 630.797605 
L 888.949675 630.797605 
L 889.558707 606.533174 
L 890.167738 565.247425 
L 890.77677 624.640958 
L 891.385802 594.21988 
L 891.994834 417.85006 
L 892.603866 619.932934 
L 893.212897 509.475449 
L 893.821929 501.87018 
L 894.430961 441.39018 
L 895.039993 495.713533 
L 895.649025 607.981796 
L 896.258056 626.089581 
L 896.867088 576.112096 
L 897.47612 623.192335 
L 898.085152 617.035689 
L 898.694183 554.74491 
L 899.303215 608.343952 
L 899.912247 620.29509 
L 900.521279 618.484311 
L 901.130311 621.743713 
L 901.739342 623.192335 
L 902.348374 623.192335 
L 902.957406 620.29509 
L 903.566438 626.089581 
L 904.784501 595.668503 
L 905.393533 624.640958 
L 906.002565 626.451737 
L 906.611597 629.348982 
L 907.220628 626.451737 
L 907.82966 624.640958 
L 908.438692 576.112096 
L 909.047724 626.089581 
L 909.656756 627.538204 
L 910.265787 627.900359 
L 910.874819 627.538204 
L 911.483851 626.089581 
L 912.092883 619.932934 
L 912.701915 623.192335 
L 913.310946 623.192335 
L 913.919978 625.003114 
L 914.52901 626.451737 
L 915.138042 625.003114 
L 915.747074 624.640958 
L 916.356105 623.192335 
L 916.965137 623.192335 
L 917.574169 626.451737 
L 918.183201 631.884072 
L 918.792232 628.986826 
L 919.401264 627.900359 
L 920.010296 627.538204 
L 920.619328 623.192335 
L 921.22836 624.640958 
L 921.837391 627.900359 
L 922.446423 624.640958 
L 923.055455 627.900359 
L 923.664487 624.640958 
L 924.273519 527.945389 
L 924.88255 626.089581 
L 925.491582 624.640958 
L 926.100614 626.089581 
L 927.318678 619.932934 
L 927.927709 623.192335 
L 928.536741 621.743713 
L 929.145773 623.192335 
L 929.754805 623.192335 
L 930.363836 625.003114 
L 930.972868 618.484311 
L 931.5819 621.381557 
L 932.190932 621.743713 
L 932.799964 600.738683 
L 933.408995 623.192335 
L 934.018027 617.397844 
L 934.627059 620.29509 
L 935.236091 621.743713 
L 935.845123 621.743713 
L 936.454154 618.846467 
L 937.063186 621.381557 
L 937.672218 569.955449 
L 938.28125 620.29509 
L 938.890282 617.035689 
L 939.499313 594.582036 
L 940.108345 619.932934 
L 940.717377 580.82012 
L 941.326409 615.587066 
L 941.93544 614.138443 
L 942.544472 618.846467 
L 943.153504 617.035689 
L 943.762536 617.035689 
L 944.980599 610.879042 
L 945.589631 610.879042 
L 946.198663 612.327665 
L 946.807695 615.587066 
L 947.416727 612.327665 
L 948.63479 615.949222 
L 949.243822 615.587066 
L 949.852854 615.587066 
L 950.461885 554.382754 
L 951.070917 615.22491 
L 951.679949 613.776287 
L 952.288981 615.587066 
L 952.898013 615.22491 
L 953.507044 615.587066 
L 954.116076 616.673533 
L 954.725108 615.587066 
L 955.33414 617.035689 
L 955.943172 515.26994 
L 956.552203 615.587066 
L 957.161235 614.138443 
L 957.770267 614.138443 
L 958.379299 612.68982 
L 958.988331 615.949222 
L 959.597362 615.587066 
L 960.206394 615.587066 
L 960.815426 614.138443 
L 961.424458 617.035689 
L 962.033489 592.771257 
L 962.642521 609.430419 
L 963.251553 608.343952 
L 963.860585 609.430419 
L 964.469617 597.479281 
L 965.078648 607.981796 
L 965.68768 610.879042 
L 966.905744 607.981796 
L 967.514776 615.587066 
L 968.123807 621.743713 
L 968.732839 613.776287 
L 969.341871 616.673533 
L 969.950903 615.22491 
L 970.559935 618.846467 
L 971.168966 615.587066 
L 971.777998 617.035689 
L 972.38703 615.587066 
L 972.996062 612.68982 
L 973.605093 615.587066 
L 974.214125 622.105868 
L 974.823157 618.846467 
L 975.432189 618.484311 
L 976.041221 620.29509 
L 976.650252 615.587066 
L 977.259284 617.397844 
L 977.868316 585.165988 
L 978.477348 619.932934 
L 979.08638 618.846467 
L 979.695411 617.397844 
L 980.304443 570.317605 
L 980.913475 615.949222 
L 981.522507 617.035689 
L 982.131538 612.327665 
L 982.74057 617.397844 
L 983.349602 618.846467 
L 983.958634 613.776287 
L 984.567666 617.397844 
L 985.176697 617.397844 
L 985.785729 612.327665 
L 986.394761 612.68982 
L 987.003793 612.68982 
L 987.612825 608.343952 
L 988.221856 586.976766 
L 988.830888 612.68982 
L 989.43992 611.241198 
L 990.048952 607.981796 
L 990.657984 607.981796 
L 991.267015 612.327665 
L 992.485079 609.430419 
L 993.094111 610.879042 
L 993.703142 606.533174 
L 994.312174 603.998084 
L 994.921206 604.722395 
L 995.530238 609.430419 
L 996.13927 606.533174 
L 996.748301 609.792575 
L 997.966365 603.635928 
L 998.575397 606.533174 
L 999.184429 610.154731 
L 999.79346 607.981796 
L 1000.402492 604.722395 
L 1001.011524 603.273772 
L 1001.620556 606.895329 
L 1002.229588 609.430419 
L 1002.838619 606.533174 
L 1003.447651 605.446707 
L 1004.056683 607.981796 
L 1004.665715 604.722395 
L 1005.274746 602.187305 
L 1005.883778 617.035689 
L 1006.49281 615.949222 
L 1007.101842 614.138443 
L 1007.710874 586.976766 
L 1008.319905 614.138443 
L 1008.928937 609.792575 
L 1009.537969 609.430419 
L 1010.756033 606.533174 
L 1011.365064 607.981796 
L 1011.974096 609.792575 
L 1012.583128 606.895329 
L 1013.19216 609.430419 
L 1013.801192 605.084551 
L 1014.410223 591.322635 
L 1015.019255 605.084551 
L 1015.628287 598.927904 
L 1016.237319 610.879042 
L 1016.84635 612.327665 
L 1017.455382 611.241198 
L 1018.064414 611.241198 
L 1018.673446 612.68982 
L 1019.282478 574.301317 
L 1019.891509 603.635928 
L 1020.500541 609.430419 
L 1021.109573 611.241198 
L 1021.718605 612.68982 
L 1022.327637 609.430419 
L 1022.936668 536.999281 
L 1023.5457 606.171018 
L 1024.154732 607.981796 
L 1025.372795 605.084551 
L 1025.981827 606.171018 
L 1026.590859 604.722395 
L 1027.199891 609.430419 
L 1027.808923 603.635928 
L 1028.417954 610.879042 
L 1029.026986 605.446707 
L 1029.636018 607.981796 
L 1030.24505 607.981796 
L 1030.854082 606.171018 
L 1031.463113 607.619641 
L 1032.072145 607.981796 
L 1032.681177 606.533174 
L 1033.290209 609.430419 
L 1033.899241 607.981796 
L 1034.508272 605.084551 
L 1035.117304 608.343952 
L 1035.726336 582.268743 
L 1036.335368 609.430419 
L 1036.944399 539.534371 
L 1037.553431 606.533174 
L 1038.162463 606.533174 
L 1038.771495 609.430419 
L 1039.380527 601.82515 
L 1039.989558 606.533174 
L 1041.207622 600.376527 
L 1041.816654 606.895329 
L 1042.425686 608.343952 
L 1043.034717 601.82515 
L 1043.643749 603.273772 
L 1044.252781 574.663473 
L 1044.861813 605.084551 
L 1045.470845 597.479281 
L 1046.079876 577.922874 
L 1046.688908 597.479281 
L 1047.29794 603.273772 
L 1047.906972 597.117126 
L 1048.516003 597.479281 
L 1049.125035 588.425389 
L 1049.734067 574.663473 
L 1050.343099 595.668503 
L 1050.952131 594.21988 
L 1051.561162 594.582036 
L 1052.170194 597.479281 
L 1052.779226 594.21988 
L 1053.388258 605.084551 
L 1053.99729 601.82515 
L 1054.606321 594.21988 
L 1055.215353 603.635928 
L 1055.824385 603.273772 
L 1056.433417 603.635928 
L 1057.042448 606.171018 
L 1057.65148 606.533174 
L 1058.260512 601.82515 
L 1058.869544 600.738683 
L 1059.478576 597.479281 
L 1060.087607 571.766228 
L 1060.696639 598.927904 
L 1061.305671 598.565749 
L 1061.914703 603.635928 
L 1062.523735 576.112096 
L 1063.132766 603.273772 
L 1063.741798 597.479281 
L 1064.35083 595.668503 
L 1064.959862 602.187305 
L 1065.568894 481.589461 
L 1066.177925 603.273772 
L 1066.786957 603.273772 
L 1067.395989 606.533174 
L 1068.005021 606.171018 
L 1068.614052 605.084551 
L 1069.223084 607.981796 
L 1069.832116 607.619641 
L 1070.441148 607.619641 
L 1071.05018 553.296287 
L 1071.659211 606.533174 
L 1072.268243 393.947784 
L 1072.877275 523.237365 
L 1073.486307 604.722395 
L 1074.095339 603.998084 
L 1074.70437 590.960479 
L 1075.313402 603.273772 
L 1075.922434 601.82515 
L 1076.531466 604.722395 
L 1077.140498 597.479281 
L 1077.749529 529.031856 
L 1078.358561 539.896527 
L 1078.967593 589.511856 
L 1079.576625 594.21988 
L 1080.185656 582.268743 
L 1080.794688 476.157126 
L 1081.40372 562.712335 
L 1082.012752 586.614611 
L 1082.621784 492.454132 
L 1083.230815 547.139641 
L 1083.839847 488.108263 
L 1084.448879 581.906587 
L 1085.057911 588.425389 
L 1085.666943 588.063234 
L 1086.275974 585.165988 
L 1086.885006 589.874012 
L 1087.494038 591.322635 
L 1088.10307 594.21988 
L 1088.712102 591.322635 
L 1089.321133 532.291257 
L 1089.930165 594.21988 
L 1090.539197 591.322635 
L 1091.148229 601.462994 
L 1091.75726 603.273772 
L 1092.366292 598.927904 
L 1092.975324 602.187305 
L 1093.584356 597.479281 
L 1094.193388 594.582036 
L 1094.802419 592.771257 
L 1095.411451 530.480479 
L 1096.020483 585.165988 
L 1096.629515 591.322635 
L 1097.238547 591.322635 
L 1097.847578 596.030659 
L 1098.45661 594.21988 
L 1099.065642 586.976766 
L 1099.674674 588.063234 
L 1100.283705 590.960479 
L 1100.892737 592.771257 
L 1101.501769 586.614611 
L 1102.110801 571.404072 
L 1102.719833 589.874012 
L 1103.328864 589.874012 
L 1103.937896 594.582036 
L 1104.546928 585.165988 
L 1105.15596 597.479281 
L 1105.764992 597.479281 
L 1106.374023 598.565749 
L 1106.983055 600.376527 
L 1107.592087 600.376527 
L 1108.201119 521.788743 
L 1108.810151 497.162156 
L 1109.419182 513.821317 
L 1110.028214 597.479281 
L 1110.637246 597.479281 
L 1111.246278 595.668503 
L 1111.855309 599.29006 
L 1113.073373 595.668503 
L 1113.682405 597.117126 
L 1114.291437 594.21988 
L 1114.900468 595.668503 
L 1115.5095 598.565749 
L 1116.118532 597.117126 
L 1116.727564 596.030659 
L 1117.336596 595.668503 
L 1117.945627 495.713533 
L 1118.554659 598.927904 
L 1119.163691 594.21988 
L 1119.772723 591.322635 
L 1120.381755 590.236168 
L 1120.990786 595.668503 
L 1121.599818 595.668503 
L 1122.20885 588.063234 
L 1122.817882 589.874012 
L 1123.426913 588.063234 
L 1124.035945 585.165988 
L 1124.644977 584.803832 
L 1125.254009 588.063234 
L 1125.863041 594.21988 
L 1126.472072 595.668503 
L 1127.081104 592.771257 
L 1127.690136 593.133413 
L 1128.299168 594.582036 
L 1128.9082 593.133413 
L 1129.517231 592.771257 
L 1130.126263 584.803832 
L 1130.735295 597.479281 
L 1131.344327 596.030659 
L 1131.953358 597.479281 
L 1132.56239 597.479281 
L 1133.171422 597.117126 
L 1133.780454 598.927904 
L 1134.389486 589.874012 
L 1134.998517 596.030659 
L 1135.607549 569.593293 
L 1136.216581 596.030659 
L 1136.825613 595.668503 
L 1137.434645 571.766228 
L 1138.043676 596.030659 
L 1138.652708 589.511856 
L 1139.26174 586.976766 
L 1139.870772 585.165988 
L 1140.479804 589.511856 
L 1141.088835 560.901557 
L 1141.697867 583.35521 
L 1142.306899 586.976766 
L 1142.915931 594.21988 
L 1143.524962 597.479281 
L 1144.133994 595.668503 
L 1144.743026 596.030659 
L 1145.352058 596.030659 
L 1145.96109 594.582036 
L 1146.570121 596.030659 
L 1147.179153 595.668503 
L 1147.788185 559.81509 
L 1148.397217 536.999281 
L 1149.006249 591.322635 
L 1149.61528 590.960479 
L 1150.224312 592.771257 
L 1150.833344 591.322635 
L 1151.442376 488.108263 
L 1152.051408 588.425389 
L 1152.660439 591.322635 
L 1153.269471 590.960479 
L 1153.878503 592.771257 
L 1154.487535 588.063234 
L 1155.096566 586.614611 
L 1155.705598 588.425389 
L 1156.31463 590.960479 
L 1157.532694 591.68479 
L 1158.141725 593.133413 
L 1158.750757 585.165988 
L 1159.359789 589.511856 
L 1159.968821 563.436647 
L 1160.577853 446.822515 
L 1161.186884 524.323832 
L 1161.795916 524.685988 
L 1162.404948 574.663473 
L 1163.01398 552.934132 
L 1163.623012 540.982994 
L 1164.232043 492.454132 
L 1164.841075 562.35018 
L 1165.450107 571.404072 
L 1166.059139 552.20982 
L 1166.66817 567.420359 
L 1167.277202 574.663473 
L 1167.886234 580.457964 
L 1168.495266 568.144671 
L 1169.104298 573.21485 
L 1169.713329 569.955449 
L 1170.322361 572.852695 
L 1170.931393 572.852695 
L 1171.540425 571.766228 
L 1172.149457 573.577006 
L 1172.758488 586.614611 
L 1173.36752 588.425389 
L 1173.976552 585.165988 
L 1174.585584 585.165988 
L 1175.194615 583.717365 
L 1175.803647 560.901557 
L 1176.412679 576.112096 
L 1177.021711 582.268743 
L 1177.630743 576.112096 
L 1178.239774 577.560719 
L 1178.848806 581.906587 
L 1179.457838 579.371497 
L 1180.06687 580.82012 
L 1180.675902 579.371497 
L 1181.284933 579.371497 
L 1181.893965 570.317605 
L 1182.502997 578.647186 
L 1183.112029 571.404072 
L 1183.721061 579.371497 
L 1184.330092 576.474251 
L 1184.939124 577.560719 
L 1185.548156 579.371497 
L 1186.157188 574.663473 
L 1186.766219 562.35018 
L 1187.375251 576.112096 
L 1187.984283 571.404072 
L 1188.593315 576.474251 
L 1189.202347 554.74491 
L 1189.811378 574.663473 
L 1190.42041 573.21485 
L 1191.029442 573.21485 
L 1191.638474 572.852695 
L 1192.247506 569.955449 
L 1192.856537 577.922874 
L 1193.465569 577.922874 
L 1194.074601 579.009341 
L 1194.683633 567.058204 
L 1195.292665 569.593293 
L 1195.901696 580.82012 
L 1197.11976 568.868982 
L 1197.728792 532.291257 
L 1198.337823 569.955449 
L 1198.946855 571.404072 
L 1199.555887 573.21485 
L 1200.164919 579.371497 
L 1200.773951 577.560719 
L 1201.382982 571.766228 
L 1201.992014 568.506826 
L 1202.601046 568.506826 
L 1203.210078 576.474251 
L 1203.81911 576.112096 
L 1204.428141 577.560719 
L 1205.646205 568.868982 
L 1206.255237 572.852695 
L 1206.864268 572.852695 
L 1207.4733 580.82012 
L 1208.082332 578.647186 
L 1208.691364 582.268743 
L 1209.300396 580.82012 
L 1209.909427 416.763593 
L 1210.518459 576.112096 
L 1211.127491 569.955449 
L 1211.736523 560.901557 
L 1212.345555 571.404072 
L 1212.954586 569.955449 
L 1213.563618 574.663473 
L 1214.17265 580.82012 
L 1214.781682 579.371497 
L 1215.390714 580.82012 
L 1215.999745 576.112096 
L 1216.608777 568.144671 
L 1217.217809 572.852695 
L 1217.826841 572.852695 
L 1218.435872 570.317605 
L 1219.044904 571.766228 
L 1219.653936 571.766228 
L 1220.262968 548.950419 
L 1220.872 571.404072 
L 1221.481031 562.35018 
L 1222.090063 568.506826 
L 1222.699095 569.955449 
L 1223.308127 568.868982 
L 1223.917159 571.041916 
L 1224.52619 564.160958 
L 1225.135222 569.593293 
L 1225.744254 568.506826 
L 1226.353286 568.144671 
L 1226.962318 570.317605 
L 1227.571349 568.868982 
L 1228.180381 567.058204 
L 1228.789413 568.506826 
L 1229.398445 564.885269 
L 1230.007476 568.868982 
L 1230.616508 565.247425 
L 1231.22554 564.160958 
L 1231.834572 571.766228 
L 1232.443604 568.506826 
L 1233.052635 566.696048 
L 1233.661667 576.112096 
L 1234.270699 575.025629 
L 1234.879731 574.663473 
L 1235.488763 575.74994 
L 1236.097794 576.474251 
L 1236.706826 459.135808 
L 1237.315858 579.371497 
L 1237.92489 579.371497 
L 1238.533922 575.74994 
L 1239.142953 577.560719 
L 1239.751985 576.112096 
L 1240.361017 576.112096 
L 1241.57908 569.955449 
L 1242.188112 568.868982 
L 1242.797144 574.301317 
L 1243.406176 568.506826 
L 1244.015208 565.609581 
L 1244.624239 568.506826 
L 1245.842303 568.506826 
L 1246.451335 567.058204 
L 1247.060367 566.696048 
L 1247.669398 563.798802 
L 1248.27843 568.868982 
L 1248.887462 565.247425 
L 1249.496494 560.901557 
L 1250.105525 562.712335 
L 1250.714557 562.35018 
L 1251.323589 568.144671 
L 1251.932621 399.742275 
L 1253.150684 558.004311 
L 1253.759716 563.798802 
L 1254.368748 560.901557 
L 1254.97778 559.452934 
L 1255.586812 562.712335 
L 1256.195843 560.901557 
L 1256.804875 563.798802 
L 1257.413907 570.317605 
L 1258.022939 573.577006 
L 1259.241002 572.852695 
L 1259.850034 573.21485 
L 1260.459066 503.318802 
L 1261.068098 363.526707 
L 1261.677129 548.950419 
L 1262.286161 477.605749 
L 1262.895193 543.88024 
L 1263.504225 547.139641 
L 1264.113257 556.555689 
L 1264.722288 558.004311 
L 1265.33132 553.296287 
L 1265.940352 553.296287 
L 1266.549384 556.193533 
L 1267.158416 495.713533 
L 1267.767447 560.901557 
L 1268.376479 559.81509 
L 1268.985511 542.431617 
L 1269.594543 554.74491 
L 1270.203575 560.901557 
L 1270.812606 569.593293 
L 1271.421638 571.766228 
L 1272.03067 568.868982 
L 1272.639702 515.26994 
L 1273.248733 571.404072 
L 1273.857765 568.868982 
L 1274.466797 569.955449 
L 1275.075829 573.21485 
L 1275.684861 572.852695 
L 1276.293892 574.663473 
L 1276.902924 571.766228 
L 1277.511956 574.301317 
L 1278.120988 572.852695 
L 1278.73002 574.301317 
L 1279.339051 574.663473 
L 1279.948083 570.317605 
L 1280.557115 572.852695 
L 1281.166147 567.058204 
L 1281.775178 481.951617 
L 1282.38421 439.217246 
L 1283.602274 570.317605 
L 1284.211306 565.609581 
L 1284.820337 558.366467 
L 1285.429369 559.452934 
L 1286.038401 559.452934 
L 1286.647433 556.917844 
L 1287.256465 560.901557 
L 1287.865496 560.901557 
L 1288.474528 568.868982 
L 1289.08356 565.609581 
L 1289.692592 567.058204 
L 1290.301624 567.058204 
L 1290.910655 544.242395 
L 1291.519687 556.193533 
L 1292.128719 559.452934 
L 1292.737751 557.642156 
L 1293.346782 559.452934 
L 1293.955814 557.642156 
L 1294.564846 558.004311 
L 1295.173878 554.74491 
L 1295.78291 557.642156 
L 1296.391941 557.642156 
L 1298.219037 567.058204 
L 1298.828069 563.798802 
L 1299.4371 565.609581 
L 1300.046132 564.885269 
L 1300.655164 545.691018 
L 1301.264196 570.317605 
L 1301.873228 572.128383 
L 1302.482259 566.696048 
L 1303.091291 568.506826 
L 1303.700323 569.955449 
L 1304.309355 565.609581 
L 1304.918386 566.696048 
L 1305.527418 564.160958 
L 1306.13645 567.058204 
L 1306.745482 509.113293 
L 1307.354514 560.901557 
L 1307.963545 559.452934 
L 1308.572577 562.35018 
L 1309.181609 554.74491 
L 1309.790641 556.193533 
L 1310.399673 559.452934 
L 1311.008704 554.74491 
L 1311.617736 559.452934 
L 1312.226768 536.637126 
L 1312.8358 559.452934 
L 1313.444832 419.298683 
L 1314.053863 557.642156 
L 1314.662895 563.798802 
L 1315.271927 560.901557 
L 1315.880959 563.798802 
L 1316.48999 564.160958 
L 1317.099022 559.452934 
L 1317.708054 564.160958 
L 1318.317086 562.35018 
L 1318.926118 564.160958 
L 1319.535149 560.901557 
L 1320.144181 560.901557 
L 1320.753213 564.160958 
L 1321.362245 559.090778 
L 1321.971277 561.263713 
L 1322.580308 562.712335 
L 1323.18934 560.901557 
L 1323.798372 565.247425 
L 1324.407404 559.81509 
L 1325.016435 562.35018 
L 1325.625467 561.263713 
L 1326.234499 564.160958 
L 1326.843531 563.798802 
L 1328.061594 560.901557 
L 1328.670626 486.659641 
L 1329.279658 557.642156 
L 1329.88869 562.35018 
L 1330.497722 496.8 
L 1331.106753 560.901557 
L 1331.715785 563.798802 
L 1332.324817 558.004311 
L 1332.933849 558.004311 
L 1333.542881 560.901557 
L 1334.151912 562.35018 
L 1334.760944 560.901557 
L 1335.369976 560.901557 
L 1335.979008 558.004311 
L 1336.588039 559.452934 
L 1337.197071 558.004311 
L 1337.806103 559.452934 
L 1338.415135 559.452934 
L 1339.024167 563.798802 
L 1339.633198 564.160958 
L 1340.24223 562.35018 
L 1340.851262 560.901557 
L 1341.460294 562.712335 
L 1342.069326 559.81509 
L 1342.678357 559.090778 
L 1343.287389 560.901557 
L 1343.896421 563.798802 
L 1344.505453 472.897725 
L 1345.114485 563.798802 
L 1345.723516 560.901557 
L 1346.332548 560.901557 
L 1346.94158 502.956647 
L 1347.550612 563.798802 
L 1348.159643 557.642156 
L 1348.768675 560.901557 
L 1349.377707 562.712335 
L 1349.986739 562.35018 
L 1350.595771 560.901557 
L 1351.204802 556.555689 
L 1351.813834 555.107066 
L 1352.422866 495.713533 
L 1353.031898 556.193533 
L 1353.64093 556.193533 
L 1354.249961 539.534371 
L 1354.858993 562.35018 
L 1355.468025 418.212216 
L 1356.077057 560.901557 
L 1356.686088 559.452934 
L 1357.29512 562.712335 
L 1357.904152 556.555689 
L 1358.513184 555.107066 
L 1359.122216 558.004311 
L 1359.731247 556.193533 
L 1360.340279 556.555689 
L 1360.949311 560.901557 
L 1361.558343 558.004311 
L 1362.167375 559.81509 
L 1362.776406 557.642156 
L 1363.385438 544.242395 
L 1363.99447 558.004311 
L 1364.603502 289.28479 
L 1365.212534 557.642156 
L 1365.821565 556.193533 
L 1366.430597 556.193533 
L 1367.039629 557.642156 
L 1367.648661 558.004311 
L 1368.257692 558.004311 
L 1368.866724 556.193533 
L 1369.475756 493.902754 
L 1370.084788 323.689581 
L 1370.69382 553.296287 
L 1371.302851 554.74491 
L 1371.911883 554.74491 
L 1372.520915 555.107066 
L 1373.129947 550.399042 
L 1373.738979 554.74491 
L 1374.34801 554.74491 
L 1374.957042 450.081916 
L 1375.566074 552.934132 
L 1376.175106 547.139641 
L 1376.784138 551.847665 
L 1377.393169 551.485509 
L 1378.002201 553.296287 
L 1378.611233 554.382754 
L 1379.829296 555.107066 
L 1380.438328 552.20982 
L 1381.656392 556.555689 
L 1382.265424 550.399042 
L 1382.874455 551.847665 
L 1383.483487 555.107066 
L 1384.092519 548.950419 
L 1384.701551 550.036886 
L 1385.310583 553.658443 
L 1385.919614 556.555689 
L 1386.528646 555.107066 
L 1387.137678 554.74491 
L 1387.74671 552.20982 
L 1388.355742 550.399042 
L 1388.964773 547.501796 
L 1389.573805 548.588263 
L 1390.182837 547.501796 
L 1390.791869 550.399042 
L 1391.4009 462.033054 
L 1392.009932 556.193533 
L 1392.618964 416.763593 
L 1393.227996 408.796168 
L 1393.837028 546.777485 
L 1395.055091 547.501796 
L 1395.664123 526.134611 
L 1396.273155 420.747305 
L 1396.882187 548.950419 
L 1397.491218 548.588263 
L 1398.10025 545.691018 
L 1398.709282 550.399042 
L 1399.318314 547.139641 
L 1399.927345 548.950419 
L 1400.536377 547.139641 
L 1401.754441 547.139641 
L 1402.363473 548.226108 
L 1402.972504 552.934132 
L 1403.581536 527.583234 
L 1404.190568 548.588263 
L 1404.7996 547.501796 
L 1405.408632 539.534371 
L 1406.017663 545.691018 
L 1406.626695 533.015569 
L 1407.235727 133.92 
L 1407.844759 545.691018 
L 1408.453791 546.053174 
L 1409.062822 547.139641 
L 1409.671854 547.139641 
L 1410.280886 544.242395 
L 1410.889918 548.588263 
L 1411.498949 547.501796 
L 1412.107981 542.793772 
L 1412.717013 547.501796 
L 1413.326045 548.950419 
L 1413.935077 547.139641 
L 1414.544108 550.399042 
L 1415.15314 159.99521 
L 1415.762172 454.78994 
L 1416.371204 533.73988 
L 1416.980236 546.053174 
L 1417.589267 544.242395 
L 1418.198299 547.501796 
L 1418.807331 545.691018 
L 1419.416363 544.242395 
L 1420.025395 547.139641 
L 1420.634426 544.242395 
L 1421.243458 539.534371 
L 1421.85249 536.637126 
L 1422.461522 538.085749 
L 1423.070553 532.291257 
L 1423.679585 538.085749 
L 1424.288617 535.188503 
L 1424.897649 534.826347 
L 1425.506681 534.826347 
L 1426.115712 530.842635 
L 1426.724744 538.447904 
L 1427.333776 475.79497 
L 1427.942808 534.826347 
L 1428.55184 533.73988 
L 1429.160871 530.480479 
L 1429.769903 530.480479 
L 1430.378935 529.031856 
L 1430.987967 529.394012 
L 1431.596998 529.394012 
L 1432.20603 510.561916 
L 1432.815062 538.085749 
L 1433.424094 536.999281 
L 1434.033126 530.480479 
L 1434.642157 529.031856 
L 1435.251189 510.561916 
L 1435.860221 542.793772 
L 1436.469253 540.982994 
L 1437.078285 527.221078 
L 1437.687316 544.242395 
L 1438.296348 545.691018 
L 1438.90538 544.242395 
L 1439.514412 547.501796 
L 1440.123444 544.242395 
L 1440.732475 519.977964 
L 1441.341507 535.188503 
L 1441.950539 521.426587 
L 1442.559571 546.053174 
L 1443.168602 539.534371 
L 1443.777634 278.057964 
L 1444.386666 538.085749 
L 1444.995698 535.188503 
L 1445.60473 535.188503 
L 1446.213761 530.118323 
L 1446.822793 530.480479 
L 1447.431825 533.73988 
L 1448.040857 530.842635 
L 1448.649889 530.118323 
L 1449.867952 534.826347 
L 1450.476984 529.031856 
L 1451.086016 540.982994 
L 1451.695048 500.059401 
L 1452.304079 544.242395 
L 1452.913111 544.242395 
L 1454.131175 541.34515 
L 1454.740206 542.793772 
L 1455.349238 544.604551 
L 1455.95827 304.495329 
L 1456.567302 538.085749 
L 1457.176334 527.221078 
L 1457.785365 545.691018 
L 1458.394397 425.455329 
L 1459.003429 541.34515 
L 1459.612461 542.793772 
L 1460.221493 545.691018 
L 1460.830524 539.896527 
L 1461.439556 539.534371 
L 1462.048588 495.713533 
L 1462.65762 544.242395 
L 1463.266652 544.242395 
L 1463.875683 518.529341 
L 1464.484715 512.372695 
L 1465.093747 535.188503 
L 1465.702779 486.659641 
L 1466.31181 536.27497 
L 1466.920842 539.896527 
L 1467.529874 537.723593 
L 1468.138906 538.085749 
L 1468.747938 536.27497 
L 1469.356969 538.447904 
L 1469.966001 536.27497 
L 1470.575033 540.982994 
L 1471.184065 542.793772 
L 1471.793097 538.085749 
L 1472.402128 538.085749 
L 1473.01116 483.40024 
L 1473.620192 538.085749 
L 1474.229224 408.796168 
L 1474.838255 531.929102 
L 1475.447287 524.323832 
L 1476.056319 525.772455 
L 1476.665351 530.480479 
L 1477.274383 494.627066 
L 1477.883414 529.031856 
L 1478.492446 524.323832 
L 1479.101478 522.87521 
L 1479.71051 526.134611 
L 1480.319542 519.615808 
L 1481.537605 524.323832 
L 1482.146637 521.064431 
L 1482.755669 525.772455 
L 1483.364701 521.426587 
L 1483.973732 497.162156 
L 1484.582764 521.064431 
L 1485.191796 523.237365 
L 1485.800828 514.907784 
L 1486.409859 518.529341 
L 1487.018891 531.929102 
L 1487.627923 519.977964 
L 1488.236955 536.27497 
L 1488.845987 431.611976 
L 1489.455018 533.73988 
L 1490.06405 534.826347 
L 1490.673082 536.27497 
L 1491.282114 533.73988 
L 1491.891146 539.896527 
L 1493.109209 539.896527 
L 1493.718241 539.534371 
L 1494.327273 537.723593 
L 1494.327273 537.723593 
" style="fill:none;stroke:#1f77b4;stroke-linecap:square;stroke-width:1.5;"/>
   </g>
   <g id="line2d_20">
    <path clip-path="url(#p76da61bebd)" d="M 276.872727 737.205348 
L 348.129447 722.73302 
L 419.386166 708.486271 
L 490.642885 694.465099 
L 561.899604 680.669506 
L 633.156324 667.09949 
L 704.413043 653.755053 
L 775.669762 640.636194 
L 846.926481 627.742913 
L 918.183201 615.07521 
L 989.43992 602.633086 
L 1060.696639 590.416539 
L 1131.953358 578.425571 
L 1203.210078 566.66018 
L 1274.466797 555.120368 
L 1345.723516 543.806134 
L 1416.980236 532.717478 
L 1488.236955 521.854401 
L 1494.327273 520.936397 
L 1494.327273 520.936397 
" style="fill:none;stroke:#ff7f0e;stroke-linecap:square;stroke-width:1.5;"/>
   </g>
   <g id="patch_3">
    <path d="M 216 768.96 
L 216 103.68 
" style="fill:none;stroke:#000000;stroke-linecap:square;stroke-linejoin:miter;stroke-width:0.8;"/>
   </g>
   <g id="patch_4">
    <path d="M 1555.2 768.96 
L 1555.2 103.68 
" style="fill:none;stroke:#000000;stroke-linecap:square;stroke-linejoin:miter;stroke-width:0.8;"/>
   </g>
   <g id="patch_5">
    <path d="M 216 768.96 
L 1555.2 768.96 
" style="fill:none;stroke:#000000;stroke-linecap:square;stroke-linejoin:miter;stroke-width:0.8;"/>
   </g>
   <g id="patch_6">
    <path d="M 216 103.68 
L 1555.2 103.68 
" style="fill:none;stroke:#000000;stroke-linecap:square;stroke-linejoin:miter;stroke-width:0.8;"/>
   </g>
   <g id="legend_1">
    <g id="patch_7">
     <path d="M 1421.748437 141.03625 
L 1548.2 141.03625 
Q 1550.2 141.03625 1550.2 139.03625 
L 1550.2 110.68 
Q 1550.2 108.68 1548.2 108.68 
L 1421.748437 108.68 
Q 1419.748437 108.68 1419.748437 110.68 
L 1419.748437 139.03625 
Q 1419.748437 141.03625 1421.748437 141.03625 
z
" style="fill:#ffffff;opacity:0.8;stroke:#cccccc;stroke-linejoin:miter;"/>
    </g>
    <g id="line2d_21">
     <path d="M 1423.748437 116.778437 
L 1443.748437 116.778437 
" style="fill:none;stroke:#1f77b4;stroke-linecap:square;stroke-width:1.5;"/>
    </g>
    <g id="line2d_22"/>
    <g id="text_21">
     <!-- Experiment results -->
     <g transform="translate(1451.748437 120.278437)scale(0.1 -0.1)">
      <defs>
       <path d="M 9.8125 72.90625 
L 55.90625 72.90625 
L 55.90625 64.59375 
L 19.671875 64.59375 
L 19.671875 43.015625 
L 54.390625 43.015625 
L 54.390625 34.71875 
L 19.671875 34.71875 
L 19.671875 8.296875 
L 56.78125 8.296875 
L 56.78125 0 
L 9.8125 0 
z
" id="DejaVuSans-69"/>
       <path d="M 54.890625 54.6875 
L 35.109375 28.078125 
L 55.90625 0 
L 45.3125 0 
L 29.390625 21.484375 
L 13.484375 0 
L 2.875 0 
L 24.125 28.609375 
L 4.6875 54.6875 
L 15.28125 54.6875 
L 29.78125 35.203125 
L 44.28125 54.6875 
z
" id="DejaVuSans-120"/>
       <path d="M 18.109375 8.203125 
L 18.109375 -20.796875 
L 9.078125 -20.796875 
L 9.078125 54.6875 
L 18.109375 54.6875 
L 18.109375 46.390625 
Q 20.953125 51.265625 25.265625 53.625 
Q 29.59375 56 35.59375 56 
Q 45.5625 56 51.78125 48.09375 
Q 58.015625 40.1875 58.015625 27.296875 
Q 58.015625 14.40625 51.78125 6.484375 
Q 45.5625 -1.421875 35.59375 -1.421875 
Q 29.59375 -1.421875 25.265625 0.953125 
Q 20.953125 3.328125 18.109375 8.203125 
z
M 48.6875 27.296875 
Q 48.6875 37.203125 44.609375 42.84375 
Q 40.53125 48.484375 33.40625 48.484375 
Q 26.265625 48.484375 22.1875 42.84375 
Q 18.109375 37.203125 18.109375 27.296875 
Q 18.109375 17.390625 22.1875 11.75 
Q 26.265625 6.109375 33.40625 6.109375 
Q 40.53125 6.109375 44.609375 11.75 
Q 48.6875 17.390625 48.6875 27.296875 
z
" id="DejaVuSans-112"/>
       <path d="M 8.5 21.578125 
L 8.5 54.6875 
L 17.484375 54.6875 
L 17.484375 21.921875 
Q 17.484375 14.15625 20.5 10.265625 
Q 23.53125 6.390625 29.59375 6.390625 
Q 36.859375 6.390625 41.078125 11.03125 
Q 45.3125 15.671875 45.3125 23.6875 
L 45.3125 54.6875 
L 54.296875 54.6875 
L 54.296875 0 
L 45.3125 0 
L 45.3125 8.40625 
Q 42.046875 3.421875 37.71875 1 
Q 33.40625 -1.421875 27.6875 -1.421875 
Q 18.265625 -1.421875 13.375 4.4375 
Q 8.5 10.296875 8.5 21.578125 
z
M 31.109375 56 
z
" id="DejaVuSans-117"/>
      </defs>
      <use xlink:href="#DejaVuSans-69"/>
      <use x="63.183594" xlink:href="#DejaVuSans-120"/>
      <use x="122.363281" xlink:href="#DejaVuSans-112"/>
      <use x="185.839844" xlink:href="#DejaVuSans-101"/>
      <use x="247.363281" xlink:href="#DejaVuSans-114"/>
      <use x="288.476562" xlink:href="#DejaVuSans-105"/>
      <use x="316.259766" xlink:href="#DejaVuSans-109"/>
      <use x="413.671875" xlink:href="#DejaVuSans-101"/>
      <use x="475.195312" xlink:href="#DejaVuSans-110"/>
      <use x="538.574219" xlink:href="#DejaVuSans-116"/>
      <use x="577.783203" xlink:href="#DejaVuSans-32"/>
      <use x="609.570312" xlink:href="#DejaVuSans-114"/>
      <use x="648.433594" xlink:href="#DejaVuSans-101"/>
      <use x="709.957031" xlink:href="#DejaVuSans-115"/>
      <use x="762.056641" xlink:href="#DejaVuSans-117"/>
      <use x="825.435547" xlink:href="#DejaVuSans-108"/>
      <use x="853.21875" xlink:href="#DejaVuSans-116"/>
      <use x="892.427734" xlink:href="#DejaVuSans-115"/>
     </g>
    </g>
    <g id="line2d_23">
     <path d="M 1423.748437 131.456563 
L 1443.748437 131.456563 
" style="fill:none;stroke:#ff7f0e;stroke-linecap:square;stroke-width:1.5;"/>
    </g>
    <g id="line2d_24"/>
    <g id="text_22">
     <!-- Approximation -->
     <g transform="translate(1451.748437 134.956563)scale(0.1 -0.1)">
      <defs>
       <path d="M 34.1875 63.1875 
L 20.796875 26.90625 
L 47.609375 26.90625 
z
M 28.609375 72.90625 
L 39.796875 72.90625 
L 67.578125 0 
L 57.328125 0 
L 50.6875 18.703125 
L 17.828125 18.703125 
L 11.1875 0 
L 0.78125 0 
z
" id="DejaVuSans-65"/>
       <path d="M 34.28125 27.484375 
Q 23.390625 27.484375 19.1875 25 
Q 14.984375 22.515625 14.984375 16.5 
Q 14.984375 11.71875 18.140625 8.90625 
Q 21.296875 6.109375 26.703125 6.109375 
Q 34.1875 6.109375 38.703125 11.40625 
Q 43.21875 16.703125 43.21875 25.484375 
L 43.21875 27.484375 
z
M 52.203125 31.203125 
L 52.203125 0 
L 43.21875 0 
L 43.21875 8.296875 
Q 40.140625 3.328125 35.546875 0.953125 
Q 30.953125 -1.421875 24.3125 -1.421875 
Q 15.921875 -1.421875 10.953125 3.296875 
Q 6 8.015625 6 15.921875 
Q 6 25.140625 12.171875 29.828125 
Q 18.359375 34.515625 30.609375 34.515625 
L 43.21875 34.515625 
L 43.21875 35.40625 
Q 43.21875 41.609375 39.140625 45 
Q 35.0625 48.390625 27.6875 48.390625 
Q 23 48.390625 18.546875 47.265625 
Q 14.109375 46.140625 10.015625 43.890625 
L 10.015625 52.203125 
Q 14.9375 54.109375 19.578125 55.046875 
Q 24.21875 56 28.609375 56 
Q 40.484375 56 46.34375 49.84375 
Q 52.203125 43.703125 52.203125 31.203125 
z
" id="DejaVuSans-97"/>
      </defs>
      <use xlink:href="#DejaVuSans-65"/>
      <use x="68.408203" xlink:href="#DejaVuSans-112"/>
      <use x="131.884766" xlink:href="#DejaVuSans-112"/>
      <use x="195.361328" xlink:href="#DejaVuSans-114"/>
      <use x="234.224609" xlink:href="#DejaVuSans-111"/>
      <use x="292.28125" xlink:href="#DejaVuSans-120"/>
      <use x="351.460938" xlink:href="#DejaVuSans-105"/>
      <use x="379.244141" xlink:href="#DejaVuSans-109"/>
      <use x="476.65625" xlink:href="#DejaVuSans-97"/>
      <use x="537.935547" xlink:href="#DejaVuSans-116"/>
      <use x="577.144531" xlink:href="#DejaVuSans-105"/>
      <use x="604.927734" xlink:href="#DejaVuSans-111"/>
      <use x="666.109375" xlink:href="#DejaVuSans-110"/>
     </g>
    </g>
   </g>
  </g>
 </g>
 <defs>
  <clipPath id="p76da61bebd">
   <rect height="665.28" width="1339.2" x="216" y="103.68"/>
  </clipPath>
 </defs>
</svg>
