<?xml version="1.0" encoding="utf-8" standalone="no"?>
<!DOCTYPE svg PUBLIC "-//W3C//DTD SVG 1.1//EN"
  "http://www.w3.org/Graphics/SVG/1.1/DTD/svg11.dtd">
<!-- Created with matplotlib (https://matplotlib.org/) -->
<svg height="864pt" version="1.1" viewBox="0 0 1728 864" width="1728pt" xmlns="http://www.w3.org/2000/svg" xmlns:xlink="http://www.w3.org/1999/xlink">
 <metadata>
  <rdf:RDF xmlns:cc="http://creativecommons.org/ns#" xmlns:dc="http://purl.org/dc/elements/1.1/" xmlns:rdf="http://www.w3.org/1999/02/22-rdf-syntax-ns#">
   <cc:Work>
    <dc:type rdf:resource="http://purl.org/dc/dcmitype/StillImage"/>
    <dc:date>2020-09-14T19:05:57.586175</dc:date>
    <dc:format>image/svg+xml</dc:format>
    <dc:creator>
     <cc:Agent>
      <dc:title>Matplotlib v3.3.1, https://matplotlib.org/</dc:title>
     </cc:Agent>
    </dc:creator>
   </cc:Work>
  </rdf:RDF>
 </metadata>
 <defs>
  <style type="text/css">*{stroke-linecap:butt;stroke-linejoin:round;}</style>
 </defs>
 <g id="figure_1">
  <g id="patch_1">
   <path d="M 0 864 
L 1728 864 
L 1728 0 
L 0 0 
z
" style="fill:#ffffff;"/>
  </g>
  <g id="axes_1">
   <g id="patch_2">
    <path d="M 216 768.96 
L 1555.2 768.96 
L 1555.2 103.68 
L 216 103.68 
z
" style="fill:#ffffff;"/>
   </g>
   <g id="matplotlib.axis_1">
    <g id="xtick_1">
     <g id="line2d_1">
      <defs>
       <path d="M 0 0 
L 0 3.5 
" id="m676e400119" style="stroke:#000000;stroke-width:0.8;"/>
      </defs>
      <g>
       <use style="stroke:#000000;stroke-width:0.8;" x="276.263695" xlink:href="#m676e400119" y="768.96"/>
      </g>
     </g>
     <g id="text_1">
      <!-- 0 -->
      <g transform="translate(273.082445 783.558437)scale(0.1 -0.1)">
       <defs>
        <path d="M 31.78125 66.40625 
Q 24.171875 66.40625 20.328125 58.90625 
Q 16.5 51.421875 16.5 36.375 
Q 16.5 21.390625 20.328125 13.890625 
Q 24.171875 6.390625 31.78125 6.390625 
Q 39.453125 6.390625 43.28125 13.890625 
Q 47.125 21.390625 47.125 36.375 
Q 47.125 51.421875 43.28125 58.90625 
Q 39.453125 66.40625 31.78125 66.40625 
z
M 31.78125 74.21875 
Q 44.046875 74.21875 50.515625 64.515625 
Q 56.984375 54.828125 56.984375 36.375 
Q 56.984375 17.96875 50.515625 8.265625 
Q 44.046875 -1.421875 31.78125 -1.421875 
Q 19.53125 -1.421875 13.0625 8.265625 
Q 6.59375 17.96875 6.59375 36.375 
Q 6.59375 54.828125 13.0625 64.515625 
Q 19.53125 74.21875 31.78125 74.21875 
z
" id="DejaVuSans-48"/>
       </defs>
       <use xlink:href="#DejaVuSans-48"/>
      </g>
     </g>
    </g>
    <g id="xtick_2">
     <g id="line2d_2">
      <g>
       <use style="stroke:#000000;stroke-width:0.8;" x="428.521643" xlink:href="#m676e400119" y="768.96"/>
      </g>
     </g>
     <g id="text_2">
      <!-- 250 -->
      <g transform="translate(418.977893 783.558437)scale(0.1 -0.1)">
       <defs>
        <path d="M 19.1875 8.296875 
L 53.609375 8.296875 
L 53.609375 0 
L 7.328125 0 
L 7.328125 8.296875 
Q 12.9375 14.109375 22.625 23.890625 
Q 32.328125 33.6875 34.8125 36.53125 
Q 39.546875 41.84375 41.421875 45.53125 
Q 43.3125 49.21875 43.3125 52.78125 
Q 43.3125 58.59375 39.234375 62.25 
Q 35.15625 65.921875 28.609375 65.921875 
Q 23.96875 65.921875 18.8125 64.3125 
Q 13.671875 62.703125 7.8125 59.421875 
L 7.8125 69.390625 
Q 13.765625 71.78125 18.9375 73 
Q 24.125 74.21875 28.421875 74.21875 
Q 39.75 74.21875 46.484375 68.546875 
Q 53.21875 62.890625 53.21875 53.421875 
Q 53.21875 48.921875 51.53125 44.890625 
Q 49.859375 40.875 45.40625 35.40625 
Q 44.1875 33.984375 37.640625 27.21875 
Q 31.109375 20.453125 19.1875 8.296875 
z
" id="DejaVuSans-50"/>
        <path d="M 10.796875 72.90625 
L 49.515625 72.90625 
L 49.515625 64.59375 
L 19.828125 64.59375 
L 19.828125 46.734375 
Q 21.96875 47.46875 24.109375 47.828125 
Q 26.265625 48.1875 28.421875 48.1875 
Q 40.625 48.1875 47.75 41.5 
Q 54.890625 34.8125 54.890625 23.390625 
Q 54.890625 11.625 47.5625 5.09375 
Q 40.234375 -1.421875 26.90625 -1.421875 
Q 22.3125 -1.421875 17.546875 -0.640625 
Q 12.796875 0.140625 7.71875 1.703125 
L 7.71875 11.625 
Q 12.109375 9.234375 16.796875 8.0625 
Q 21.484375 6.890625 26.703125 6.890625 
Q 35.15625 6.890625 40.078125 11.328125 
Q 45.015625 15.765625 45.015625 23.390625 
Q 45.015625 31 40.078125 35.4375 
Q 35.15625 39.890625 26.703125 39.890625 
Q 22.75 39.890625 18.8125 39.015625 
Q 14.890625 38.140625 10.796875 36.28125 
z
" id="DejaVuSans-53"/>
       </defs>
       <use xlink:href="#DejaVuSans-50"/>
       <use x="63.623047" xlink:href="#DejaVuSans-53"/>
       <use x="127.246094" xlink:href="#DejaVuSans-48"/>
      </g>
     </g>
    </g>
    <g id="xtick_3">
     <g id="line2d_3">
      <g>
       <use style="stroke:#000000;stroke-width:0.8;" x="580.77959" xlink:href="#m676e400119" y="768.96"/>
      </g>
     </g>
     <g id="text_3">
      <!-- 500 -->
      <g transform="translate(571.23584 783.558437)scale(0.1 -0.1)">
       <use xlink:href="#DejaVuSans-53"/>
       <use x="63.623047" xlink:href="#DejaVuSans-48"/>
       <use x="127.246094" xlink:href="#DejaVuSans-48"/>
      </g>
     </g>
    </g>
    <g id="xtick_4">
     <g id="line2d_4">
      <g>
       <use style="stroke:#000000;stroke-width:0.8;" x="733.037537" xlink:href="#m676e400119" y="768.96"/>
      </g>
     </g>
     <g id="text_4">
      <!-- 750 -->
      <g transform="translate(723.493787 783.558437)scale(0.1 -0.1)">
       <defs>
        <path d="M 8.203125 72.90625 
L 55.078125 72.90625 
L 55.078125 68.703125 
L 28.609375 0 
L 18.3125 0 
L 43.21875 64.59375 
L 8.203125 64.59375 
z
" id="DejaVuSans-55"/>
       </defs>
       <use xlink:href="#DejaVuSans-55"/>
       <use x="63.623047" xlink:href="#DejaVuSans-53"/>
       <use x="127.246094" xlink:href="#DejaVuSans-48"/>
      </g>
     </g>
    </g>
    <g id="xtick_5">
     <g id="line2d_5">
      <g>
       <use style="stroke:#000000;stroke-width:0.8;" x="885.295484" xlink:href="#m676e400119" y="768.96"/>
      </g>
     </g>
     <g id="text_5">
      <!-- 1000 -->
      <g transform="translate(872.570484 783.558437)scale(0.1 -0.1)">
       <defs>
        <path d="M 12.40625 8.296875 
L 28.515625 8.296875 
L 28.515625 63.921875 
L 10.984375 60.40625 
L 10.984375 69.390625 
L 28.421875 72.90625 
L 38.28125 72.90625 
L 38.28125 8.296875 
L 54.390625 8.296875 
L 54.390625 0 
L 12.40625 0 
z
" id="DejaVuSans-49"/>
       </defs>
       <use xlink:href="#DejaVuSans-49"/>
       <use x="63.623047" xlink:href="#DejaVuSans-48"/>
       <use x="127.246094" xlink:href="#DejaVuSans-48"/>
       <use x="190.869141" xlink:href="#DejaVuSans-48"/>
      </g>
     </g>
    </g>
    <g id="xtick_6">
     <g id="line2d_6">
      <g>
       <use style="stroke:#000000;stroke-width:0.8;" x="1037.553431" xlink:href="#m676e400119" y="768.96"/>
      </g>
     </g>
     <g id="text_6">
      <!-- 1250 -->
      <g transform="translate(1024.828431 783.558437)scale(0.1 -0.1)">
       <use xlink:href="#DejaVuSans-49"/>
       <use x="63.623047" xlink:href="#DejaVuSans-50"/>
       <use x="127.246094" xlink:href="#DejaVuSans-53"/>
       <use x="190.869141" xlink:href="#DejaVuSans-48"/>
      </g>
     </g>
    </g>
    <g id="xtick_7">
     <g id="line2d_7">
      <g>
       <use style="stroke:#000000;stroke-width:0.8;" x="1189.811378" xlink:href="#m676e400119" y="768.96"/>
      </g>
     </g>
     <g id="text_7">
      <!-- 1500 -->
      <g transform="translate(1177.086378 783.558437)scale(0.1 -0.1)">
       <use xlink:href="#DejaVuSans-49"/>
       <use x="63.623047" xlink:href="#DejaVuSans-53"/>
       <use x="127.246094" xlink:href="#DejaVuSans-48"/>
       <use x="190.869141" xlink:href="#DejaVuSans-48"/>
      </g>
     </g>
    </g>
    <g id="xtick_8">
     <g id="line2d_8">
      <g>
       <use style="stroke:#000000;stroke-width:0.8;" x="1342.069326" xlink:href="#m676e400119" y="768.96"/>
      </g>
     </g>
     <g id="text_8">
      <!-- 1750 -->
      <g transform="translate(1329.344326 783.558437)scale(0.1 -0.1)">
       <use xlink:href="#DejaVuSans-49"/>
       <use x="63.623047" xlink:href="#DejaVuSans-55"/>
       <use x="127.246094" xlink:href="#DejaVuSans-53"/>
       <use x="190.869141" xlink:href="#DejaVuSans-48"/>
      </g>
     </g>
    </g>
    <g id="xtick_9">
     <g id="line2d_9">
      <g>
       <use style="stroke:#000000;stroke-width:0.8;" x="1494.327273" xlink:href="#m676e400119" y="768.96"/>
      </g>
     </g>
     <g id="text_9">
      <!-- 2000 -->
      <g transform="translate(1481.602273 783.558437)scale(0.1 -0.1)">
       <use xlink:href="#DejaVuSans-50"/>
       <use x="63.623047" xlink:href="#DejaVuSans-48"/>
       <use x="127.246094" xlink:href="#DejaVuSans-48"/>
       <use x="190.869141" xlink:href="#DejaVuSans-48"/>
      </g>
     </g>
    </g>
    <g id="text_10">
     <!-- Vector length -->
     <g transform="translate(852.139844 797.236562)scale(0.1 -0.1)">
      <defs>
       <path d="M 28.609375 0 
L 0.78125 72.90625 
L 11.078125 72.90625 
L 34.1875 11.53125 
L 57.328125 72.90625 
L 67.578125 72.90625 
L 39.796875 0 
z
" id="DejaVuSans-86"/>
       <path d="M 56.203125 29.59375 
L 56.203125 25.203125 
L 14.890625 25.203125 
Q 15.484375 15.921875 20.484375 11.0625 
Q 25.484375 6.203125 34.421875 6.203125 
Q 39.59375 6.203125 44.453125 7.46875 
Q 49.3125 8.734375 54.109375 11.28125 
L 54.109375 2.78125 
Q 49.265625 0.734375 44.1875 -0.34375 
Q 39.109375 -1.421875 33.890625 -1.421875 
Q 20.796875 -1.421875 13.15625 6.1875 
Q 5.515625 13.8125 5.515625 26.8125 
Q 5.515625 40.234375 12.765625 48.109375 
Q 20.015625 56 32.328125 56 
Q 43.359375 56 49.78125 48.890625 
Q 56.203125 41.796875 56.203125 29.59375 
z
M 47.21875 32.234375 
Q 47.125 39.59375 43.09375 43.984375 
Q 39.0625 48.390625 32.421875 48.390625 
Q 24.90625 48.390625 20.390625 44.140625 
Q 15.875 39.890625 15.1875 32.171875 
z
" id="DejaVuSans-101"/>
       <path d="M 48.78125 52.59375 
L 48.78125 44.1875 
Q 44.96875 46.296875 41.140625 47.34375 
Q 37.3125 48.390625 33.40625 48.390625 
Q 24.65625 48.390625 19.8125 42.84375 
Q 14.984375 37.3125 14.984375 27.296875 
Q 14.984375 17.28125 19.8125 11.734375 
Q 24.65625 6.203125 33.40625 6.203125 
Q 37.3125 6.203125 41.140625 7.25 
Q 44.96875 8.296875 48.78125 10.40625 
L 48.78125 2.09375 
Q 45.015625 0.34375 40.984375 -0.53125 
Q 36.96875 -1.421875 32.421875 -1.421875 
Q 20.0625 -1.421875 12.78125 6.34375 
Q 5.515625 14.109375 5.515625 27.296875 
Q 5.515625 40.671875 12.859375 48.328125 
Q 20.21875 56 33.015625 56 
Q 37.15625 56 41.109375 55.140625 
Q 45.0625 54.296875 48.78125 52.59375 
z
" id="DejaVuSans-99"/>
       <path d="M 18.3125 70.21875 
L 18.3125 54.6875 
L 36.8125 54.6875 
L 36.8125 47.703125 
L 18.3125 47.703125 
L 18.3125 18.015625 
Q 18.3125 11.328125 20.140625 9.421875 
Q 21.96875 7.515625 27.59375 7.515625 
L 36.8125 7.515625 
L 36.8125 0 
L 27.59375 0 
Q 17.1875 0 13.234375 3.875 
Q 9.28125 7.765625 9.28125 18.015625 
L 9.28125 47.703125 
L 2.6875 47.703125 
L 2.6875 54.6875 
L 9.28125 54.6875 
L 9.28125 70.21875 
z
" id="DejaVuSans-116"/>
       <path d="M 30.609375 48.390625 
Q 23.390625 48.390625 19.1875 42.75 
Q 14.984375 37.109375 14.984375 27.296875 
Q 14.984375 17.484375 19.15625 11.84375 
Q 23.34375 6.203125 30.609375 6.203125 
Q 37.796875 6.203125 41.984375 11.859375 
Q 46.1875 17.53125 46.1875 27.296875 
Q 46.1875 37.015625 41.984375 42.703125 
Q 37.796875 48.390625 30.609375 48.390625 
z
M 30.609375 56 
Q 42.328125 56 49.015625 48.375 
Q 55.71875 40.765625 55.71875 27.296875 
Q 55.71875 13.875 49.015625 6.21875 
Q 42.328125 -1.421875 30.609375 -1.421875 
Q 18.84375 -1.421875 12.171875 6.21875 
Q 5.515625 13.875 5.515625 27.296875 
Q 5.515625 40.765625 12.171875 48.375 
Q 18.84375 56 30.609375 56 
z
" id="DejaVuSans-111"/>
       <path d="M 41.109375 46.296875 
Q 39.59375 47.171875 37.8125 47.578125 
Q 36.03125 48 33.890625 48 
Q 26.265625 48 22.1875 43.046875 
Q 18.109375 38.09375 18.109375 28.8125 
L 18.109375 0 
L 9.078125 0 
L 9.078125 54.6875 
L 18.109375 54.6875 
L 18.109375 46.1875 
Q 20.953125 51.171875 25.484375 53.578125 
Q 30.03125 56 36.53125 56 
Q 37.453125 56 38.578125 55.875 
Q 39.703125 55.765625 41.0625 55.515625 
z
" id="DejaVuSans-114"/>
       <path id="DejaVuSans-32"/>
       <path d="M 9.421875 75.984375 
L 18.40625 75.984375 
L 18.40625 0 
L 9.421875 0 
z
" id="DejaVuSans-108"/>
       <path d="M 54.890625 33.015625 
L 54.890625 0 
L 45.90625 0 
L 45.90625 32.71875 
Q 45.90625 40.484375 42.875 44.328125 
Q 39.84375 48.1875 33.796875 48.1875 
Q 26.515625 48.1875 22.3125 43.546875 
Q 18.109375 38.921875 18.109375 30.90625 
L 18.109375 0 
L 9.078125 0 
L 9.078125 54.6875 
L 18.109375 54.6875 
L 18.109375 46.1875 
Q 21.34375 51.125 25.703125 53.5625 
Q 30.078125 56 35.796875 56 
Q 45.21875 56 50.046875 50.171875 
Q 54.890625 44.34375 54.890625 33.015625 
z
" id="DejaVuSans-110"/>
       <path d="M 45.40625 27.984375 
Q 45.40625 37.75 41.375 43.109375 
Q 37.359375 48.484375 30.078125 48.484375 
Q 22.859375 48.484375 18.828125 43.109375 
Q 14.796875 37.75 14.796875 27.984375 
Q 14.796875 18.265625 18.828125 12.890625 
Q 22.859375 7.515625 30.078125 7.515625 
Q 37.359375 7.515625 41.375 12.890625 
Q 45.40625 18.265625 45.40625 27.984375 
z
M 54.390625 6.78125 
Q 54.390625 -7.171875 48.1875 -13.984375 
Q 42 -20.796875 29.203125 -20.796875 
Q 24.46875 -20.796875 20.265625 -20.09375 
Q 16.0625 -19.390625 12.109375 -17.921875 
L 12.109375 -9.1875 
Q 16.0625 -11.328125 19.921875 -12.34375 
Q 23.78125 -13.375 27.78125 -13.375 
Q 36.625 -13.375 41.015625 -8.765625 
Q 45.40625 -4.15625 45.40625 5.171875 
L 45.40625 9.625 
Q 42.625 4.78125 38.28125 2.390625 
Q 33.9375 0 27.875 0 
Q 17.828125 0 11.671875 7.65625 
Q 5.515625 15.328125 5.515625 27.984375 
Q 5.515625 40.671875 11.671875 48.328125 
Q 17.828125 56 27.875 56 
Q 33.9375 56 38.28125 53.609375 
Q 42.625 51.21875 45.40625 46.390625 
L 45.40625 54.6875 
L 54.390625 54.6875 
z
" id="DejaVuSans-103"/>
       <path d="M 54.890625 33.015625 
L 54.890625 0 
L 45.90625 0 
L 45.90625 32.71875 
Q 45.90625 40.484375 42.875 44.328125 
Q 39.84375 48.1875 33.796875 48.1875 
Q 26.515625 48.1875 22.3125 43.546875 
Q 18.109375 38.921875 18.109375 30.90625 
L 18.109375 0 
L 9.078125 0 
L 9.078125 75.984375 
L 18.109375 75.984375 
L 18.109375 46.1875 
Q 21.34375 51.125 25.703125 53.5625 
Q 30.078125 56 35.796875 56 
Q 45.21875 56 50.046875 50.171875 
Q 54.890625 44.34375 54.890625 33.015625 
z
" id="DejaVuSans-104"/>
      </defs>
      <use xlink:href="#DejaVuSans-86"/>
      <use x="60.658203" xlink:href="#DejaVuSans-101"/>
      <use x="122.181641" xlink:href="#DejaVuSans-99"/>
      <use x="177.162109" xlink:href="#DejaVuSans-116"/>
      <use x="216.371094" xlink:href="#DejaVuSans-111"/>
      <use x="277.552734" xlink:href="#DejaVuSans-114"/>
      <use x="318.666016" xlink:href="#DejaVuSans-32"/>
      <use x="350.453125" xlink:href="#DejaVuSans-108"/>
      <use x="378.236328" xlink:href="#DejaVuSans-101"/>
      <use x="439.759766" xlink:href="#DejaVuSans-110"/>
      <use x="503.138672" xlink:href="#DejaVuSans-103"/>
      <use x="566.615234" xlink:href="#DejaVuSans-116"/>
      <use x="605.824219" xlink:href="#DejaVuSans-104"/>
     </g>
    </g>
   </g>
   <g id="matplotlib.axis_2">
    <g id="ytick_1">
     <g id="line2d_10">
      <defs>
       <path d="M 0 0 
L -3.5 0 
" id="m50ceb6e9e1" style="stroke:#000000;stroke-width:0.8;"/>
      </defs>
      <g>
       <use style="stroke:#000000;stroke-width:0.8;" x="216" xlink:href="#m50ceb6e9e1" y="738.938113"/>
      </g>
     </g>
     <g id="text_11">
      <!-- 0 -->
      <g transform="translate(202.6375 742.737332)scale(0.1 -0.1)">
       <use xlink:href="#DejaVuSans-48"/>
      </g>
     </g>
    </g>
    <g id="ytick_2">
     <g id="line2d_11">
      <g>
       <use style="stroke:#000000;stroke-width:0.8;" x="216" xlink:href="#m50ceb6e9e1" y="624.5841"/>
      </g>
     </g>
     <g id="text_12">
      <!-- 1 -->
      <g transform="translate(202.6375 628.383319)scale(0.1 -0.1)">
       <use xlink:href="#DejaVuSans-49"/>
      </g>
     </g>
    </g>
    <g id="ytick_3">
     <g id="line2d_12">
      <g>
       <use style="stroke:#000000;stroke-width:0.8;" x="216" xlink:href="#m50ceb6e9e1" y="510.230088"/>
      </g>
     </g>
     <g id="text_13">
      <!-- 2 -->
      <g transform="translate(202.6375 514.029307)scale(0.1 -0.1)">
       <use xlink:href="#DejaVuSans-50"/>
      </g>
     </g>
    </g>
    <g id="ytick_4">
     <g id="line2d_13">
      <g>
       <use style="stroke:#000000;stroke-width:0.8;" x="216" xlink:href="#m50ceb6e9e1" y="395.876075"/>
      </g>
     </g>
     <g id="text_14">
      <!-- 3 -->
      <g transform="translate(202.6375 399.675294)scale(0.1 -0.1)">
       <defs>
        <path d="M 40.578125 39.3125 
Q 47.65625 37.796875 51.625 33 
Q 55.609375 28.21875 55.609375 21.1875 
Q 55.609375 10.40625 48.1875 4.484375 
Q 40.765625 -1.421875 27.09375 -1.421875 
Q 22.515625 -1.421875 17.65625 -0.515625 
Q 12.796875 0.390625 7.625 2.203125 
L 7.625 11.71875 
Q 11.71875 9.328125 16.59375 8.109375 
Q 21.484375 6.890625 26.8125 6.890625 
Q 36.078125 6.890625 40.9375 10.546875 
Q 45.796875 14.203125 45.796875 21.1875 
Q 45.796875 27.640625 41.28125 31.265625 
Q 36.765625 34.90625 28.71875 34.90625 
L 20.21875 34.90625 
L 20.21875 43.015625 
L 29.109375 43.015625 
Q 36.375 43.015625 40.234375 45.921875 
Q 44.09375 48.828125 44.09375 54.296875 
Q 44.09375 59.90625 40.109375 62.90625 
Q 36.140625 65.921875 28.71875 65.921875 
Q 24.65625 65.921875 20.015625 65.03125 
Q 15.375 64.15625 9.8125 62.3125 
L 9.8125 71.09375 
Q 15.4375 72.65625 20.34375 73.4375 
Q 25.25 74.21875 29.59375 74.21875 
Q 40.828125 74.21875 47.359375 69.109375 
Q 53.90625 64.015625 53.90625 55.328125 
Q 53.90625 49.265625 50.4375 45.09375 
Q 46.96875 40.921875 40.578125 39.3125 
z
" id="DejaVuSans-51"/>
       </defs>
       <use xlink:href="#DejaVuSans-51"/>
      </g>
     </g>
    </g>
    <g id="ytick_5">
     <g id="line2d_14">
      <g>
       <use style="stroke:#000000;stroke-width:0.8;" x="216" xlink:href="#m50ceb6e9e1" y="281.522063"/>
      </g>
     </g>
     <g id="text_15">
      <!-- 4 -->
      <g transform="translate(202.6375 285.321282)scale(0.1 -0.1)">
       <defs>
        <path d="M 37.796875 64.3125 
L 12.890625 25.390625 
L 37.796875 25.390625 
z
M 35.203125 72.90625 
L 47.609375 72.90625 
L 47.609375 25.390625 
L 58.015625 25.390625 
L 58.015625 17.1875 
L 47.609375 17.1875 
L 47.609375 0 
L 37.796875 0 
L 37.796875 17.1875 
L 4.890625 17.1875 
L 4.890625 26.703125 
z
" id="DejaVuSans-52"/>
       </defs>
       <use xlink:href="#DejaVuSans-52"/>
      </g>
     </g>
    </g>
    <g id="ytick_6">
     <g id="line2d_15">
      <g>
       <use style="stroke:#000000;stroke-width:0.8;" x="216" xlink:href="#m50ceb6e9e1" y="167.16805"/>
      </g>
     </g>
     <g id="text_16">
      <!-- 5 -->
      <g transform="translate(202.6375 170.967269)scale(0.1 -0.1)">
       <use xlink:href="#DejaVuSans-53"/>
      </g>
     </g>
    </g>
    <g id="text_17">
     <!-- Time, ms -->
     <g transform="translate(196.557812 459.206719)rotate(-90)scale(0.1 -0.1)">
      <defs>
       <path d="M -0.296875 72.90625 
L 61.375 72.90625 
L 61.375 64.59375 
L 35.5 64.59375 
L 35.5 0 
L 25.59375 0 
L 25.59375 64.59375 
L -0.296875 64.59375 
z
" id="DejaVuSans-84"/>
       <path d="M 9.421875 54.6875 
L 18.40625 54.6875 
L 18.40625 0 
L 9.421875 0 
z
M 9.421875 75.984375 
L 18.40625 75.984375 
L 18.40625 64.59375 
L 9.421875 64.59375 
z
" id="DejaVuSans-105"/>
       <path d="M 52 44.1875 
Q 55.375 50.25 60.0625 53.125 
Q 64.75 56 71.09375 56 
Q 79.640625 56 84.28125 50.015625 
Q 88.921875 44.046875 88.921875 33.015625 
L 88.921875 0 
L 79.890625 0 
L 79.890625 32.71875 
Q 79.890625 40.578125 77.09375 44.375 
Q 74.3125 48.1875 68.609375 48.1875 
Q 61.625 48.1875 57.5625 43.546875 
Q 53.515625 38.921875 53.515625 30.90625 
L 53.515625 0 
L 44.484375 0 
L 44.484375 32.71875 
Q 44.484375 40.625 41.703125 44.40625 
Q 38.921875 48.1875 33.109375 48.1875 
Q 26.21875 48.1875 22.15625 43.53125 
Q 18.109375 38.875 18.109375 30.90625 
L 18.109375 0 
L 9.078125 0 
L 9.078125 54.6875 
L 18.109375 54.6875 
L 18.109375 46.1875 
Q 21.1875 51.21875 25.484375 53.609375 
Q 29.78125 56 35.6875 56 
Q 41.65625 56 45.828125 52.96875 
Q 50 49.953125 52 44.1875 
z
" id="DejaVuSans-109"/>
       <path d="M 11.71875 12.40625 
L 22.015625 12.40625 
L 22.015625 4 
L 14.015625 -11.625 
L 7.71875 -11.625 
L 11.71875 4 
z
" id="DejaVuSans-44"/>
       <path d="M 44.28125 53.078125 
L 44.28125 44.578125 
Q 40.484375 46.53125 36.375 47.5 
Q 32.28125 48.484375 27.875 48.484375 
Q 21.1875 48.484375 17.84375 46.4375 
Q 14.5 44.390625 14.5 40.28125 
Q 14.5 37.15625 16.890625 35.375 
Q 19.28125 33.59375 26.515625 31.984375 
L 29.59375 31.296875 
Q 39.15625 29.25 43.1875 25.515625 
Q 47.21875 21.78125 47.21875 15.09375 
Q 47.21875 7.46875 41.1875 3.015625 
Q 35.15625 -1.421875 24.609375 -1.421875 
Q 20.21875 -1.421875 15.453125 -0.5625 
Q 10.6875 0.296875 5.421875 2 
L 5.421875 11.28125 
Q 10.40625 8.6875 15.234375 7.390625 
Q 20.0625 6.109375 24.8125 6.109375 
Q 31.15625 6.109375 34.5625 8.28125 
Q 37.984375 10.453125 37.984375 14.40625 
Q 37.984375 18.0625 35.515625 20.015625 
Q 33.0625 21.96875 24.703125 23.78125 
L 21.578125 24.515625 
Q 13.234375 26.265625 9.515625 29.90625 
Q 5.8125 33.546875 5.8125 39.890625 
Q 5.8125 47.609375 11.28125 51.796875 
Q 16.75 56 26.8125 56 
Q 31.78125 56 36.171875 55.265625 
Q 40.578125 54.546875 44.28125 53.078125 
z
" id="DejaVuSans-115"/>
      </defs>
      <use xlink:href="#DejaVuSans-84"/>
      <use x="57.958984" xlink:href="#DejaVuSans-105"/>
      <use x="85.742188" xlink:href="#DejaVuSans-109"/>
      <use x="183.154297" xlink:href="#DejaVuSans-101"/>
      <use x="244.677734" xlink:href="#DejaVuSans-44"/>
      <use x="276.464844" xlink:href="#DejaVuSans-32"/>
      <use x="308.251953" xlink:href="#DejaVuSans-109"/>
      <use x="405.664062" xlink:href="#DejaVuSans-115"/>
     </g>
    </g>
   </g>
   <g id="line2d_16">
    <path clip-path="url(#pc56cabb92b)" d="M 276.872727 738.72 
L 278.090791 738.692736 
L 279.917886 738.474623 
L 294.534649 736.429814 
L 295.143681 735.830003 
L 295.752713 736.07538 
L 296.361745 736.07538 
L 297.579808 735.884531 
L 298.18884 735.857267 
L 299.406903 735.639154 
L 300.015935 735.61189 
L 300.624967 735.421041 
L 301.843031 735.284721 
L 309.151412 733.921515 
L 309.760444 734.030571 
L 310.978507 733.676138 
L 311.587539 733.676138 
L 315.24173 732.885478 
L 315.850762 732.203875 
L 316.459794 731.140574 
L 317.068825 732.312932 
L 318.286889 732.312932 
L 318.895921 732.176611 
L 319.504952 732.176611 
L 320.113984 731.631328 
L 320.723016 730.704348 
L 321.332048 730.131802 
L 321.94108 727.050956 
L 322.550111 726.696523 
L 323.159143 726.805579 
L 323.768175 730.131802 
L 324.377207 731.167838 
L 324.986239 731.140574 
L 325.59527 730.922461 
L 326.204302 729.913689 
L 326.813334 728.059729 
L 327.422366 729.913689 
L 328.640429 730.486235 
L 329.249461 730.240858 
L 329.858493 730.268122 
L 330.467525 730.131802 
L 331.076556 730.159066 
L 331.685588 729.913689 
L 332.29462 729.940953 
L 338.384938 728.632275 
L 338.99397 728.659539 
L 339.603002 728.441426 
L 340.212033 728.414162 
L 341.430097 728.059729 
L 347.520415 726.9419 
L 348.129447 726.696523 
L 349.34751 726.587466 
L 350.565574 726.260297 
L 351.174605 726.233033 
L 351.783637 726.01492 
L 352.392669 724.842562 
L 353.001701 725.905863 
L 353.610733 725.442373 
L 354.828796 725.333317 
L 359.092019 724.651713 
L 362.137178 723.942846 
L 362.746209 723.642941 
L 363.355241 723.50662 
L 363.964273 723.615677 
L 364.573305 723.397564 
L 365.182337 723.3703 
L 365.791368 723.152187 
L 366.4004 723.233979 
L 367.009432 723.179451 
L 367.618464 722.688697 
L 368.227496 722.797753 
L 368.836527 722.470584 
L 371.272655 722.143414 
L 371.881686 721.898037 
L 372.490718 721.898037 
L 373.09975 721.461811 
L 375.535877 721.243698 
L 376.144909 720.971057 
L 378.581036 720.643888 
L 379.190068 720.098605 
L 379.7991 720.207662 
L 380.408131 713.882386 
L 381.017163 720.071341 
L 382.844258 719.498795 
L 383.45329 719.498795 
L 384.062322 719.00804 
L 384.671354 719.144361 
L 385.280386 718.599079 
L 385.889417 719.062569 
L 386.498449 718.953512 
L 387.107481 718.680871 
L 387.716513 718.571814 
L 388.325545 718.898984 
L 389.543608 718.789927 
L 390.15264 718.026532 
L 390.761672 718.217381 
L 391.370704 718.244645 
L 391.979735 717.890211 
L 392.588767 715.709082 
L 393.197799 717.099552 
L 393.806831 717.344929 
L 395.024894 717.099552 
L 395.633926 715.30012 
L 396.242958 716.745118 
L 396.85199 716.417949 
L 398.070053 716.417949 
L 398.679085 716.745118 
L 399.288117 716.063515 
L 399.897149 716.527005 
L 400.50618 716.281628 
L 401.115212 716.308892 
L 402.333276 715.845402 
L 402.942308 715.818138 
L 403.551339 715.163799 
L 404.160371 714.264083 
L 404.769403 715.845402 
L 405.378435 713.90965 
L 405.987466 715.927195 
L 406.596498 714.236819 
L 407.20553 716.390685 
L 407.814562 715.818138 
L 409.032625 709.0839 
L 409.641657 715.954459 
L 411.468753 715.518233 
L 412.077784 715.381912 
L 412.686816 705.212395 
L 413.295848 715.163799 
L 413.90488 715.054743 
L 415.122943 708.974844 
L 415.731975 703.140322 
L 416.341007 713.091726 
L 416.950039 713.11899 
L 417.55907 712.873613 
L 418.168102 712.98267 
L 418.777134 712.955405 
L 419.386166 711.810312 
L 419.995198 708.184184 
L 420.604229 711.26503 
L 421.213261 711.046917 
L 421.822293 710.665219 
L 422.431325 710.47437 
L 423.040357 710.092673 
L 423.649388 710.583427 
L 425.476484 710.119937 
L 426.085515 709.192957 
L 426.694547 704.067302 
L 427.303579 709.329277 
L 427.912611 709.41107 
L 429.130674 709.192957 
L 429.739706 707.393525 
L 430.348738 708.402297 
L 430.95777 708.293241 
L 431.566802 708.647674 
L 432.175833 701.449946 
L 432.784865 707.720694 
L 433.393897 707.747958 
L 434.002929 707.611638 
L 434.611961 707.257204 
L 435.220992 699.268817 
L 435.830024 693.297974 
L 436.439056 697.878346 
L 437.048088 697.3058 
L 437.657119 706.793714 
L 438.266151 706.248432 
L 438.875183 706.602865 
L 439.484215 705.430508 
L 440.093247 706.084847 
L 440.702278 706.330224 
L 441.31131 705.430508 
L 441.920342 694.906557 
L 442.529374 690.789675 
L 443.747437 705.757678 
L 444.965501 705.5123 
L 445.574533 705.294187 
L 446.183565 705.321452 
L 446.792596 704.857962 
L 447.401628 705.212395 
L 448.01066 704.285415 
L 448.619692 704.394471 
L 449.228723 702.022493 
L 449.837755 703.712868 
L 450.446787 703.712868 
L 451.055819 703.958246 
L 451.664851 703.821925 
L 452.273882 702.458719 
L 452.882914 703.494755 
L 453.491946 703.358435 
L 454.71001 703.467491 
L 455.319041 702.567775 
L 455.928073 702.540511 
L 456.537105 702.813152 
L 457.146137 702.458719 
L 457.755168 702.595039 
L 458.3642 699.02344 
L 458.973232 701.995229 
L 459.582264 701.559003 
L 460.800327 701.34089 
L 462.627423 701.449946 
L 463.845486 700.986456 
L 464.454518 700.304853 
L 465.06355 698.805327 
L 465.672582 700.168533 
L 466.281614 699.48693 
L 466.890645 698.096459 
L 467.499677 699.48693 
L 468.108709 699.923156 
L 468.717741 699.132496 
L 469.326772 699.48693 
L 469.935804 699.377873 
L 471.153868 698.887119 
L 471.7629 698.205516 
L 472.371931 699.814099 
L 472.980963 699.814099 
L 473.589995 699.377873 
L 474.199027 698.69627 
L 474.808059 699.241553 
L 475.41709 691.716655 
L 476.026122 698.914383 
L 476.635154 697.087687 
L 477.244186 699.595986 
L 477.853218 682.310533 
L 478.462249 694.66118 
L 479.071281 678.902518 
L 480.289345 685.66402 
L 480.898376 673.42243 
L 481.507408 666.660928 
L 482.11644 683.510155 
L 482.725472 670.559697 
L 483.334504 689.262884 
L 483.943535 695.042878 
L 484.552567 684.355342 
L 485.161599 694.797501 
L 485.770631 693.297974 
L 486.379663 694.470331 
L 486.988694 691.116844 
L 487.597726 694.797501 
L 488.206758 694.579388 
L 488.81579 694.579388 
L 491.251917 694.115898 
L 491.860949 693.652408 
L 492.46998 693.679672 
L 493.688044 693.434295 
L 494.297076 693.216182 
L 494.906108 696.187971 
L 495.515139 683.510155 
L 496.124171 696.84231 
L 496.733203 693.079861 
L 497.342235 696.406084 
L 498.560298 696.37882 
L 499.778362 695.806273 
L 500.387394 695.942594 
L 500.996425 695.833537 
L 501.605457 695.506368 
L 504.041584 694.906557 
L 504.650616 694.66118 
L 505.259648 694.688444 
L 505.86868 693.979577 
L 506.477712 694.088634 
L 507.086743 694.006841 
L 507.695775 694.088634 
L 508.304807 693.761464 
L 508.913839 693.216182 
L 509.522871 693.761464 
L 510.131902 693.297974 
L 510.740934 694.334011 
L 511.349966 693.679672 
L 512.568029 693.761464 
L 513.177061 688.962979 
L 513.786093 675.930729 
L 514.395125 693.325238 
L 515.004157 689.208356 
L 515.613188 693.107125 
L 516.22222 685.745813 
L 516.831252 692.261938 
L 517.440284 692.507315 
L 518.049316 690.925996 
L 518.658347 691.362222 
L 519.267379 691.362222 
L 519.876411 690.680618 
L 520.485443 686.809113 
L 521.094475 686.563736 
L 521.703506 690.462506 
L 522.312538 689.889959 
L 522.92157 678.875254 
L 523.530602 678.439028 
L 524.139633 689.317412 
L 524.748665 689.917223 
L 526.575761 689.535525 
L 527.184792 689.181092 
L 527.793824 689.072035 
L 528.402856 688.744866 
L 529.011888 688.853922 
L 530.229951 688.499489 
L 530.838983 688.499489 
L 531.448015 688.063263 
L 532.057047 688.063263 
L 532.666078 687.708829 
L 533.27511 687.572509 
L 533.884142 687.599773 
L 535.102206 686.781849 
L 535.711237 682.774023 
L 536.320269 686.890906 
L 536.929301 676.176106 
L 537.538333 671.70479 
L 538.147365 651.938302 
L 538.756396 675.27639 
L 539.365428 676.612332 
L 539.97446 658.972446 
L 540.583492 674.322146 
L 541.192524 666.442815 
L 541.801555 677.648369 
L 542.410587 677.975538 
L 543.019619 682.446854 
L 543.628651 682.801287 
L 544.237682 673.177053 
L 544.846714 678.111859 
L 545.455746 681.874307 
L 546.064778 676.612332 
L 546.67381 681.16544 
L 547.282841 681.656194 
L 547.891873 681.62893 
L 548.500905 680.838271 
L 549.718969 680.838271 
L 550.328 680.265724 
L 550.937032 680.374781 
L 551.546064 680.265724 
L 552.155096 669.414604 
L 552.764128 680.074875 
L 553.373159 675.221862 
L 553.982191 654.555658 
L 554.591223 669.52366 
L 555.200255 679.256952 
L 555.809286 658.863389 
L 556.418318 664.616119 
L 557.02735 674.431202 
L 557.636382 665.543099 
L 558.245414 668.051398 
L 558.854445 664.179893 
L 559.463477 664.016308 
L 560.072509 653.846791 
L 560.681541 656.02792 
L 561.290573 670.477905 
L 561.899604 671.950167 
L 562.508636 673.776863 
L 563.117668 673.531486 
L 563.7267 667.6697 
L 564.335732 673.504222 
L 564.944763 673.55875 
L 565.553795 673.42243 
L 566.162827 669.85083 
L 566.771859 661.398952 
L 567.38089 659.4632 
L 567.989922 672.95894 
L 568.598954 672.822619 
L 569.207986 672.49545 
L 569.817018 669.878094 
L 570.426049 665.161401 
L 571.035081 669.169227 
L 571.644113 667.915077 
L 572.253145 667.015361 
L 572.862177 665.297722 
L 573.471208 666.333758 
L 574.08024 671.214036 
L 574.689272 670.668754 
L 575.298304 671.132244 
L 575.907335 670.77781 
L 576.516367 670.559697 
L 577.125399 669.987151 
L 577.734431 669.06017 
L 578.952494 668.378567 
L 579.561526 667.724228 
L 580.170558 642.06869 
L 580.77959 666.769984 
L 581.388622 611.560139 
L 581.997653 663.907251 
L 582.606685 646.43095 
L 583.215717 664.806967 
L 583.824749 669.06017 
L 584.433781 653.519621 
L 585.042812 651.938302 
L 585.651844 663.934516 
L 586.260876 668.869322 
L 586.869908 668.869322 
L 587.478939 635.225396 
L 588.087971 634.761906 
L 588.697003 663.798195 
L 589.306035 663.116592 
L 589.915067 660.172067 
L 590.524098 665.761212 
L 591.13313 665.297722 
L 591.742162 664.616119 
L 592.351194 661.071783 
L 592.960226 664.616119 
L 593.569257 665.052345 
L 594.178289 664.288949 
L 594.787321 664.479798 
L 595.396353 663.334705 
L 596.005385 663.471026 
L 596.614416 663.252913 
L 597.223448 663.716403 
L 597.83248 661.998763 
L 598.441512 663.907251 
L 599.050543 659.435936 
L 599.659575 661.971499 
L 600.268607 662.216876 
L 600.877639 663.334705 
L 601.486671 660.962726 
L 602.095702 662.762158 
L 602.704734 661.071783 
L 603.313766 661.862442 
L 603.922798 662.434989 
L 604.53183 662.216876 
L 605.140861 661.78065 
L 605.749893 662.10782 
L 606.358925 661.862442 
L 606.967957 660.826406 
L 607.576988 661.044519 
L 608.18602 663.252913 
L 608.795052 667.696964 
L 609.404084 667.806021 
L 610.013116 667.478851 
L 610.622147 654.855563 
L 611.231179 631.790117 
L 611.840211 655.019148 
L 613.058275 663.334705 
L 613.667306 650.875002 
L 614.276338 662.762158 
L 614.88537 649.757173 
L 615.494402 639.342278 
L 616.103434 661.753386 
L 616.712465 662.325932 
L 617.321497 662.325932 
L 617.930529 661.971499 
L 618.539561 661.862442 
L 619.148592 650.193399 
L 619.757624 608.015803 
L 620.366656 625.982859 
L 620.975688 604.362411 
L 621.58472 649.07557 
L 622.193751 660.035746 
L 622.802783 633.834926 
L 623.411815 638.960581 
L 624.020847 616.385888 
L 624.629879 651.801982 
L 625.23891 647.875948 
L 625.847942 650.193399 
L 626.456974 655.128204 
L 627.066006 654.63745 
L 627.675038 655.319053 
L 628.284069 652.674434 
L 628.893101 654.773771 
L 629.502133 654.119432 
L 630.111165 648.257646 
L 630.720196 653.628678 
L 631.329228 654.228488 
L 631.93826 653.955847 
L 632.547292 653.274244 
L 633.156324 644.140764 
L 633.765355 648.121325 
L 634.374387 631.326627 
L 634.983419 652.020095 
L 635.592451 642.286803 
L 636.201483 635.007283 
L 636.810514 637.979072 
L 637.419546 651.338492 
L 638.028578 652.020095 
L 638.63761 652.020095 
L 639.246642 651.447548 
L 639.855673 651.911038 
L 640.464705 647.466986 
L 641.073737 649.975286 
L 641.682769 629.636251 
L 642.2918 631.108514 
L 642.900832 647.685099 
L 643.509864 637.733695 
L 644.118896 649.757173 
L 644.727928 649.53906 
L 645.336959 650.193399 
L 645.945991 649.620852 
L 646.555023 649.266418 
L 647.164055 648.121325 
L 647.773087 648.911985 
L 648.382118 648.366702 
L 648.99115 647.221609 
L 649.600182 652.619905 
L 650.209214 652.374528 
L 650.818245 647.330666 
L 651.427277 652.265472 
L 652.036309 651.911038 
L 652.645341 631.572004 
L 653.254373 637.270205 
L 653.863404 650.684153 
L 654.472436 651.202171 
L 655.081468 650.438776 
L 655.6905 650.684153 
L 656.299532 626.991631 
L 656.908563 622.193146 
L 657.517595 649.975286 
L 658.126627 640.487371 
L 658.735659 650.411512 
L 659.344691 647.330666 
L 659.953722 648.503023 
L 660.562754 649.07557 
L 661.171786 648.61208 
L 661.780818 648.721136 
L 662.389849 640.023881 
L 662.998881 639.233222 
L 663.607913 648.366702 
L 664.216945 648.148589 
L 664.825977 643.32284 
L 665.435008 647.930476 
L 666.04404 625.628425 
L 666.653072 646.89444 
L 667.262104 646.43095 
L 667.871136 646.185573 
L 668.480167 619.1123 
L 669.089199 558.17699 
L 669.698231 634.189359 
L 670.307263 617.694566 
L 670.916295 635.934263 
L 671.525326 641.14171 
L 672.134358 629.854364 
L 672.74339 626.446349 
L 673.352422 579.906494 
L 673.961453 615.431644 
L 674.570485 619.875696 
L 675.179517 639.887561 
L 675.788549 639.451335 
L 676.397581 588.794598 
L 677.006612 629.390874 
L 677.615644 636.697659 
L 678.224676 591.221104 
L 678.833708 637.624639 
L 679.44274 632.253607 
L 680.051771 630.972193 
L 680.660803 582.387529 
L 681.269835 626.773518 
L 681.878867 594.411007 
L 682.487898 628.463894 
L 683.09693 628.709271 
L 683.705962 636.915772 
L 684.314994 593.702139 
L 684.924026 629.036441 
L 685.533057 588.194787 
L 686.142089 635.661622 
L 686.751121 634.434737 
L 687.360153 627.809555 
L 687.969185 634.516529 
L 688.578216 575.735084 
L 689.187248 631.244834 
L 689.79628 563.548021 
L 690.405312 634.189359 
L 691.014344 634.78917 
L 691.623375 594.956289 
L 692.232407 600.327321 
L 692.841439 633.834926 
L 693.450471 632.826153 
L 694.059502 567.855753 
L 694.668534 614.286551 
L 695.277566 587.649505 
L 695.886598 618.97598 
L 696.49563 590.157804 
L 697.104661 627.673234 
L 697.713693 625.928331 
L 698.322725 605.262127 
L 698.931757 608.12486 
L 699.540789 571.263768 
L 700.14982 626.282764 
L 700.758852 628.245781 
L 701.367884 550.70662 
L 701.976916 578.95225 
L 702.585948 618.18532 
L 703.194979 576.907441 
L 703.804011 604.580524 
L 704.413043 602.290338 
L 705.022075 591.05752 
L 705.631106 495.496775 
L 706.240138 582.414793 
L 706.84917 567.31047 
L 707.458202 538.246917 
L 708.067234 592.420726 
L 708.676265 596.237703 
L 709.285297 594.738176 
L 709.894329 608.097595 
L 710.503361 599.509397 
L 711.112393 614.995418 
L 711.721424 615.649757 
L 712.330456 617.939943 
L 712.939488 623.338239 
L 713.54852 627.455121 
L 714.157552 626.528141 
L 714.766583 626.855311 
L 715.375615 626.037387 
L 715.984647 626.746254 
L 716.593679 626.200972 
L 717.20271 625.383048 
L 717.811742 625.383048 
L 718.420774 624.237955 
L 719.029806 625.028615 
L 719.638838 625.055879 
L 720.856901 624.456068 
L 721.465933 623.992578 
L 722.074965 624.237955 
L 723.293028 624.128899 
L 723.90206 626.200972 
L 724.511092 625.737482 
L 725.120124 625.982859 
L 725.729155 625.737482 
L 726.338187 626.528141 
L 726.947219 634.980019 
L 727.556251 633.725869 
L 728.165283 634.434737 
L 728.774314 633.616813 
L 729.383346 626.282764 
L 729.992378 631.326627 
L 730.60141 631.572004 
L 731.210442 625.164935 
L 731.819473 631.190306 
L 732.428505 630.972193 
L 733.037537 630.426911 
L 733.646569 625.492105 
L 734.255601 631.653796 
L 734.864632 632.47172 
L 735.473664 618.51249 
L 736.082696 631.899173 
L 736.691728 631.899173 
L 737.300759 631.653796 
L 737.909791 622.738429 
L 738.518823 630.835873 
L 739.127855 622.08409 
L 739.736887 629.990685 
L 740.345918 630.372382 
L 740.95495 627.918612 
L 742.173014 613.141458 
L 742.782046 624.265219 
L 743.391077 620.230129 
L 744.000109 621.511543 
L 744.609141 620.693619 
L 745.218173 629.036441 
L 745.827205 604.444203 
L 746.436236 587.513184 
L 747.045268 625.492105 
L 747.6543 611.996365 
L 748.263332 625.710218 
L 748.872363 620.693619 
L 749.481395 625.737482 
L 750.699459 624.592389 
L 751.308491 624.728709 
L 751.917522 623.774465 
L 752.526554 624.374276 
L 753.135586 624.237955 
L 753.744618 624.237955 
L 754.35365 608.58835 
L 754.962681 614.395607 
L 755.571713 623.556352 
L 756.180745 623.201919 
L 756.789777 618.785131 
L 757.398808 625.273992 
L 758.00784 615.86787 
L 758.616872 624.919558 
L 759.225904 624.783238 
L 759.834936 624.237955 
L 760.443967 611.423818 
L 761.052999 623.201919 
L 761.662031 597.464588 
L 762.271063 603.435431 
L 762.880095 618.730603 
L 763.489126 596.346759 
L 764.098158 619.221357 
L 764.70719 613.68674 
L 765.316222 603.653544 
L 765.925254 619.43947 
L 766.534285 619.521262 
L 767.752349 610.742215 
L 768.361381 617.967207 
L 768.970412 609.951556 
L 769.579444 617.149284 
L 770.188476 609.406273 
L 770.797508 618.18532 
L 771.40654 617.149284 
L 772.015571 617.72183 
L 772.624603 602.263074 
L 773.233635 612.596175 
L 773.842667 603.871657 
L 774.451699 616.440417 
L 775.06073 602.044961 
L 775.669762 616.576737 
L 776.278794 615.540701 
L 776.887826 612.923345 
L 777.496858 611.532875 
L 778.105889 593.020536 
L 778.714921 614.968154 
L 779.323953 615.431644 
L 779.932985 609.51533 
L 780.542016 614.831833 
L 781.151048 614.286551 
L 781.76008 614.177494 
L 782.369112 616.549473 
L 782.978144 596.782985 
L 783.587175 616.140511 
L 784.196207 616.33136 
L 784.805239 604.68958 
L 785.414271 576.089517 
L 786.023303 611.996365 
L 786.632334 611.887308 
L 787.241366 612.568911 
L 787.850398 612.350798 
L 788.45943 611.778252 
L 789.068462 604.335147 
L 789.677493 611.887308 
L 790.286525 611.205705 
L 790.895557 605.15307 
L 791.504589 611.178441 
L 792.11362 610.060612 
L 792.722652 600.000151 
L 793.331684 610.196933 
L 794.549748 603.789864 
L 795.158779 612.350798 
L 795.767811 611.641931 
L 796.376843 597.737229 
L 796.985875 602.181281 
L 797.594907 610.851272 
L 798.203938 600.899867 
L 798.81297 610.305989 
L 799.422002 610.878536 
L 800.031034 602.181281 
L 800.640065 609.842499 
L 801.249097 609.597122 
L 801.858129 584.541395 
L 802.467161 608.561086 
L 803.076193 595.856005 
L 803.685224 609.706179 
L 804.903288 608.697406 
L 805.51232 600.790811 
L 806.730383 533.884658 
L 807.339415 565.92 
L 807.948447 574.699047 
L 808.557479 586.259034 
L 809.166511 561.203307 
L 809.775542 540.891537 
L 810.384574 537.21088 
L 810.993606 560.903402 
L 811.602638 568.428299 
L 812.211669 549.452471 
L 812.820701 588.194787 
L 813.429733 581.160644 
L 814.038765 587.540448 
L 814.647797 589.230824 
L 815.256828 585.386583 
L 815.86586 585.604695 
L 816.474892 586.831581 
L 817.083924 587.649505 
L 817.692956 588.249315 
L 818.301987 588.194787 
L 818.911019 576.198574 
L 819.520051 577.261874 
L 820.129083 588.903654 
L 820.738115 593.83846 
L 821.347146 593.702139 
L 821.956178 594.056573 
L 822.56521 589.121767 
L 823.174242 599.563926 
L 823.783273 599.209492 
L 824.392305 595.774213 
L 825.001337 598.746002 
L 825.610369 598.991379 
L 826.219401 598.718738 
L 826.828432 598.255248 
L 827.437464 598.282512 
L 828.046496 597.900814 
L 828.655528 598.746002 
L 829.26456 592.747895 
L 829.873591 600.572698 
L 831.091655 592.093556 
L 831.700687 599.863831 
L 832.309718 599.318548 
L 832.91875 597.355532 
L 833.527782 599.318548 
L 834.136814 599.182228 
L 834.745846 598.200719 
L 835.354877 594.30195 
L 835.963909 598.173455 
L 836.572941 598.064399 
L 837.181973 597.791758 
L 837.791005 582.66017 
L 838.400036 597.273739 
L 839.009068 597.246475 
L 839.6181 581.351493 
L 840.227132 582.169416 
L 840.836164 576.798384 
L 841.445195 588.331108 
L 842.054227 583.996112 
L 842.663259 592.584311 
L 843.272291 592.44799 
L 843.881322 587.540448 
L 844.490354 591.766387 
L 845.099386 592.011764 
L 845.708418 549.370678 
L 846.31745 591.548274 
L 846.926481 570.963862 
L 847.535513 540.78248 
L 848.144545 578.815929 
L 848.753577 590.157804 
L 849.362609 589.721578 
L 849.97164 575.871404 
L 850.580672 576.553007 
L 851.189704 564.556794 
L 851.798736 568.891789 
L 852.407768 566.956037 
L 853.016799 551.524544 
L 853.625831 572.545181 
L 854.234863 573.826595 
L 854.843895 573.008672 
L 855.452926 580.097343 
L 856.061958 578.62508 
L 856.67099 579.552061 
L 857.280022 579.633853 
L 857.889054 579.906494 
L 859.107117 579.41574 
L 859.716149 576.198574 
L 860.325181 560.330855 
L 860.934213 585.359318 
L 861.543244 576.116781 
L 862.152276 585.222998 
L 862.761308 573.826595 
L 863.37034 580.34272 
L 863.979372 580.560833 
L 864.588403 583.532622 
L 865.197435 583.069132 
L 865.806467 577.56178 
L 866.415499 578.270647 
L 867.02453 582.496586 
L 867.633562 585.904601 
L 868.242594 566.956037 
L 868.851626 542.936346 
L 869.460658 576.907441 
L 870.069689 581.787719 
L 870.678721 581.59687 
L 871.896785 581.024323 
L 872.505817 572.790559 
L 873.114848 541.327763 
L 873.72388 564.66585 
L 874.332912 575.762348 
L 874.941944 571.536409 
L 875.550975 577.6981 
L 876.160007 566.165377 
L 876.769039 559.840101 
L 877.378071 571.754522 
L 877.987103 571.67273 
L 878.596134 571.318296 
L 879.205166 570.173203 
L 879.814198 570.145939 
L 880.42323 573.608482 
L 881.032262 548.879924 
L 881.641293 566.165377 
L 882.250325 577.261874 
L 882.859357 576.553007 
L 883.468389 537.892483 
L 884.077421 560.194535 
L 884.686452 575.898668 
L 885.295484 567.283206 
L 885.904516 574.699047 
L 886.513548 575.271594 
L 887.122579 574.971688 
L 887.731611 570.609429 
L 888.340643 548.580019 
L 888.949675 510.819211 
L 889.558707 494.651587 
L 890.167738 514.336283 
L 890.77677 515.263263 
L 891.385802 555.859539 
L 891.994834 565.701887 
L 892.603866 565.347453 
L 893.821929 564.911228 
L 894.430961 557.331802 
L 895.039993 564.20236 
L 895.649025 563.60255 
L 896.258056 563.520757 
L 896.867088 556.786519 
L 897.47612 556.868312 
L 898.085152 564.911228 
L 898.694183 569.791505 
L 899.912247 569.791505 
L 900.521279 536.120316 
L 901.130311 569.355279 
L 901.739342 564.774907 
L 902.348374 564.311417 
L 902.957406 551.388223 
L 903.566438 568.319243 
L 904.17547 568.291979 
L 904.784501 571.536409 
L 905.393533 555.614162 
L 906.002565 567.146885 
L 906.611597 562.239344 
L 907.220628 558.804064 
L 907.82966 566.247169 
L 908.438692 566.029056 
L 909.047724 564.774907 
L 909.656756 569.464336 
L 910.265787 565.45651 
L 910.874819 546.67153 
L 911.483851 555.859539 
L 912.092883 518.235052 
L 912.701915 568.210186 
L 913.310946 563.657078 
L 913.919978 560.412648 
L 914.52901 564.093304 
L 915.138042 563.847927 
L 915.747074 551.17011 
L 916.356105 563.193588 
L 916.965137 563.27538 
L 918.183201 545.908135 
L 918.792232 544.763042 
L 919.401264 565.92 
L 920.010296 552.996807 
L 920.619328 549.098037 
L 921.22836 556.568406 
L 921.837391 561.230571 
L 922.446423 560.876138 
L 923.055455 560.876138 
L 923.664487 555.396049 
L 924.273519 559.621988 
L 924.88255 560.221799 
L 925.491582 546.126248 
L 926.100614 559.076706 
L 926.709646 556.650199 
L 927.318678 556.622935 
L 927.927709 533.666545 
L 928.536741 553.896523 
L 929.145773 556.432086 
L 929.754805 553.105863 
L 930.363836 557.577179 
L 930.972868 553.923787 
L 931.5819 560.112742 
L 932.190932 477.093493 
L 932.799964 548.988981 
L 933.408995 476.493683 
L 934.018027 555.641426 
L 934.627059 548.879924 
L 935.236091 546.262569 
L 935.845123 535.929467 
L 936.454154 546.807851 
L 937.063186 554.387277 
L 937.672218 443.558624 
L 938.28125 529.795039 
L 938.890282 488.380839 
L 939.499313 477.747832 
L 940.108345 505.557236 
L 940.717377 510.328457 
L 941.326409 524.751177 
L 941.93544 534.020978 
L 942.544472 534.457204 
L 943.153504 538.165125 
L 943.762536 543.372572 
L 944.371568 542.472856 
L 944.980599 542.363799 
L 945.589631 551.061054 
L 946.198663 547.162285 
L 946.807695 546.262569 
L 947.416727 549.997753 
L 948.025758 546.153512 
L 948.63479 550.025017 
L 949.243822 540.537103 
L 949.852854 549.207094 
L 950.461885 520.743351 
L 951.070917 550.025017 
L 952.288981 538.92852 
L 952.898013 520.279861 
L 953.507044 551.388223 
L 954.116076 518.480429 
L 954.725108 546.589738 
L 955.33414 507.711101 
L 955.943172 546.480682 
L 956.552203 540.973329 
L 957.161235 545.826343 
L 957.770267 541.763989 
L 958.379299 530.449378 
L 958.988331 522.679104 
L 959.597362 545.226532 
L 960.206394 523.497027 
L 960.815426 538.92852 
L 961.424458 539.828236 
L 962.033489 543.972382 
L 962.642521 535.929467 
L 963.251553 543.645213 
L 963.860585 535.166071 
L 964.469617 542.472856 
L 965.078648 475.157741 
L 965.68768 544.326816 
L 966.296712 539.964557 
L 966.905744 541.545876 
L 967.514776 527.832023 
L 968.123807 532.875885 
L 968.732839 532.085226 
L 969.341871 532.194282 
L 969.950903 532.167018 
L 970.559935 540.400783 
L 971.168966 540.073613 
L 971.777998 540.18267 
L 972.38703 538.274181 
L 972.996062 522.024765 
L 973.605093 535.847674 
L 974.214125 538.274181 
L 974.823157 534.702581 
L 975.432189 534.130035 
L 976.041221 528.159192 
L 976.650252 541.545876 
L 977.259284 529.086172 
L 977.868316 539.964557 
L 978.477348 525.43278 
L 979.08638 525.105611 
L 979.695411 529.440606 
L 980.304443 510.437513 
L 981.522507 533.884658 
L 982.74057 515.04515 
L 983.349602 515.481376 
L 983.958634 514.908829 
L 985.176697 514.363547 
L 985.785729 509.537797 
L 986.394761 510.573834 
L 987.003793 513.627416 
L 987.612825 512.7277 
L 988.221856 508.474497 
L 988.830888 512.40053 
L 989.43992 502.340069 
L 990.048952 501.440353 
L 990.657984 506.784121 
L 991.267015 505.748085 
L 991.876047 508.529025 
L 993.094111 499.341016 
L 993.703142 496.042057 
L 994.312174 488.926122 
L 994.921206 491.488949 
L 995.530238 484.400278 
L 996.13927 481.455753 
L 996.748301 473.849063 
L 997.357333 327.467996 
L 997.966365 479.329151 
L 998.575397 501.54941 
L 999.184429 504.412143 
L 999.79346 502.340069 
L 1000.402492 507.029498 
L 1001.011524 505.775349 
L 1001.620556 506.566008 
L 1002.229588 506.238839 
L 1002.838619 506.347895 
L 1003.447651 504.166766 
L 1004.056683 507.274875 
L 1004.665715 491.598006 
L 1005.274746 510.819211 
L 1005.883778 505.420915 
L 1006.49281 524.424008 
L 1007.101842 523.851461 
L 1007.710874 504.957425 
L 1008.319905 523.633348 
L 1008.928937 523.142594 
L 1009.537969 514.772509 
L 1010.147001 522.679104 
L 1010.756033 498.550357 
L 1011.365064 507.274875 
L 1011.974096 483.146128 
L 1012.583128 511.582607 
L 1013.19216 511.500814 
L 1013.801192 491.488949 
L 1014.410223 520.416182 
L 1015.019255 507.847422 
L 1015.628287 519.598258 
L 1016.237319 519.243825 
L 1016.84635 505.093746 
L 1017.455382 518.671278 
L 1018.064414 511.391758 
L 1018.673446 497.623376 
L 1019.282478 514.908829 
L 1019.891509 482.655374 
L 1020.500541 517.335336 
L 1021.109573 510.001287 
L 1021.718605 505.393651 
L 1022.327637 507.056762 
L 1022.936668 491.134516 
L 1023.5457 511.364494 
L 1024.154732 484.509334 
L 1024.763764 511.146381 
L 1025.372795 511.255437 
L 1025.981827 515.04515 
L 1027.199891 484.94556 
L 1027.808923 500.540637 
L 1028.417954 418.884595 
L 1029.636018 481.646601 
L 1030.24505 501.767523 
L 1030.854082 482.655374 
L 1031.463113 500.976863 
L 1032.072145 487.699236 
L 1032.681177 499.041111 
L 1033.290209 500.867807 
L 1033.899241 419.784311 
L 1034.508272 500.976863 
L 1035.117304 483.446033 
L 1035.726336 499.83177 
L 1036.335368 499.722714 
L 1036.944399 484.700183 
L 1037.553431 499.041111 
L 1038.162463 456.727195 
L 1038.771495 497.896018 
L 1039.380527 449.065977 
L 1039.989558 498.005074 
L 1040.59859 497.350735 
L 1041.207622 496.042057 
L 1041.816654 496.941773 
L 1042.425686 445.412584 
L 1043.034717 491.352629 
L 1043.643749 440.804948 
L 1044.252781 493.642815 
L 1044.861813 448.8206 
L 1045.470845 489.062442 
L 1046.079876 482.001035 
L 1046.688908 492.961212 
L 1047.29794 493.315645 
L 1047.906972 491.843383 
L 1048.516003 382.977747 
L 1049.125035 470.05935 
L 1049.734067 465.751619 
L 1050.343099 468.968785 
L 1050.952131 479.901698 
L 1051.561162 479.111038 
L 1052.170194 479.111038 
L 1052.779226 476.493683 
L 1053.388258 490.425648 
L 1053.99729 407.406399 
L 1054.606321 486.308766 
L 1055.215353 427.663642 
L 1055.824385 488.489896 
L 1056.433417 428.018075 
L 1057.042448 488.05367 
L 1057.65148 438.869195 
L 1058.260512 487.481123 
L 1058.869544 472.349536 
L 1059.478576 472.949347 
L 1060.087607 474.339817 
L 1060.696639 473.30378 
L 1061.305671 486.33603 
L 1061.914703 464.715582 
L 1062.523735 484.727447 
L 1063.132766 429.626658 
L 1063.741798 485.299994 
L 1064.35083 428.481565 
L 1064.959862 475.157741 
L 1065.568894 432.68024 
L 1066.177925 471.804254 
L 1066.786957 464.388413 
L 1067.395989 478.211322 
L 1068.005021 472.513121 
L 1068.614052 482.30094 
L 1069.223084 478.538492 
L 1069.832116 493.642815 
L 1070.441148 480.501508 
L 1071.05018 473.658214 
L 1071.659211 480.256131 
L 1072.268243 473.849063 
L 1072.877275 491.816119 
L 1073.486307 468.259918 
L 1074.095339 486.990369 
L 1074.70437 437.751366 
L 1075.313402 477.20255 
L 1075.922434 470.550104 
L 1076.531466 477.884153 
L 1077.140498 479.383679 
L 1077.749529 466.051524 
L 1078.358561 473.958119 
L 1078.967593 464.388413 
L 1079.576625 488.380839 
L 1080.185656 472.949347 
L 1080.794688 472.458593 
L 1081.40372 457.845024 
L 1082.012752 461.034926 
L 1082.621784 452.228615 
L 1083.230815 474.776043 
L 1083.839847 485.545371 
L 1084.448879 479.001982 
L 1085.057911 478.211322 
L 1085.666943 477.856889 
L 1086.275974 476.929908 
L 1086.885006 451.110786 
L 1087.494038 473.658214 
L 1088.10307 440.914004 
L 1088.712102 471.3135 
L 1089.321133 461.307567 
L 1089.930165 459.589927 
L 1090.539197 450.074749 
L 1091.148229 458.772004 
L 1091.75726 459.562663 
L 1092.366292 466.569542 
L 1092.975324 443.204191 
L 1093.584356 468.723408 
L 1094.193388 442.986078 
L 1094.802419 431.42609 
L 1095.411451 453.182859 
L 1096.020483 468.041805 
L 1096.629515 446.421357 
L 1097.238547 467.660107 
L 1097.847578 466.869448 
L 1098.45661 474.776043 
L 1099.065642 471.695197 
L 1099.674674 466.760391 
L 1100.892737 464.851903 
L 1101.501769 457.845024 
L 1102.110801 428.018075 
L 1102.719833 455.473045 
L 1103.328864 426.872982 
L 1103.937896 463.597753 
L 1104.546928 412.586583 
L 1105.15596 462.098227 
L 1105.764992 462.534453 
L 1106.374023 453.946254 
L 1106.983055 473.658214 
L 1107.592087 474.448873 
L 1108.201119 320.406589 
L 1108.810151 464.742846 
L 1109.419182 460.625964 
L 1110.028214 451.328899 
L 1110.637246 454.300688 
L 1111.246278 460.489643 
L 1111.855309 445.521641 
L 1112.464341 458.908324 
L 1113.073373 438.651082 
L 1113.682405 459.589927 
L 1114.291437 440.341458 
L 1114.900468 458.226721 
L 1115.5095 426.763926 
L 1116.118532 456.699931 
L 1116.727564 450.67456 
L 1117.336596 468.505295 
L 1117.945627 460.925869 
L 1118.554659 460.244266 
L 1119.163691 455.582102 
L 1119.772723 464.143036 
L 1120.381755 396.119053 
L 1120.990786 466.187845 
L 1121.599818 445.821546 
L 1122.20885 457.81776 
L 1122.817882 443.095134 
L 1123.426913 449.011448 
L 1124.035945 440.368722 
L 1124.644977 464.933695 
L 1125.254009 453.046538 
L 1125.863041 448.847864 
L 1126.472072 318.416308 
L 1127.081104 441.268438 
L 1127.690136 439.332685 
L 1128.299168 441.759192 
L 1128.9082 445.167207 
L 1129.517231 438.978252 
L 1130.126263 449.175033 
L 1130.735295 448.138997 
L 1131.344327 448.49343 
L 1131.953358 371.390495 
L 1132.56239 448.138997 
L 1133.171422 438.542026 
L 1133.780454 443.449568 
L 1134.389486 439.332685 
L 1134.998517 447.457393 
L 1135.607549 439.441742 
L 1136.216581 457.981344 
L 1136.825613 439.087308 
L 1137.434645 444.022114 
L 1138.043676 436.142783 
L 1138.652708 456.154648 
L 1139.26174 444.812774 
L 1139.870772 456.727195 
L 1140.479804 450.647296 
L 1141.088835 426.627605 
L 1141.697867 442.549852 
L 1142.306899 434.86137 
L 1142.915931 435.897406 
L 1144.133994 444.92183 
L 1144.743026 441.868249 
L 1145.352058 446.530413 
L 1145.96109 449.175033 
L 1146.570121 453.291915 
L 1147.179153 452.719369 
L 1147.788185 448.02994 
L 1148.397217 452.364935 
L 1149.006249 446.966639 
L 1149.61528 447.784563 
L 1150.224312 446.748526 
L 1150.833344 384.177368 
L 1151.442376 430.417318 
L 1152.051408 443.013342 
L 1152.660439 410.432717 
L 1153.269471 449.529467 
L 1153.878503 423.410439 
L 1154.487535 436.006463 
L 1155.096566 426.436756 
L 1155.705598 436.579009 
L 1156.31463 353.587024 
L 1156.923662 447.784563 
L 1157.532694 447.920884 
L 1158.141725 438.760139 
L 1158.750757 393.801603 
L 1159.359789 445.630697 
L 1159.968821 439.905232 
L 1160.577853 441.622872 
L 1161.186884 414.631392 
L 1161.795916 415.994598 
L 1162.404948 430.771751 
L 1163.01398 423.873929 
L 1163.623012 420.684027 
L 1164.232043 428.808735 
L 1164.841075 420.465914 
L 1165.450107 407.978946 
L 1166.059139 434.397879 
L 1166.66817 417.385068 
L 1167.277202 427.663642 
L 1167.886234 408.79687 
L 1168.495266 328.613089 
L 1169.104298 435.870142 
L 1169.713329 426.191379 
L 1170.322361 426.627605 
L 1170.931393 437.724102 
L 1171.540425 438.869195 
L 1172.149457 414.167902 
L 1172.758488 437.724102 
L 1173.36752 420.138744 
L 1173.976552 414.876769 
L 1174.585584 420.656762 
L 1175.194615 433.28005 
L 1175.803647 420.711291 
L 1176.412679 437.17882 
L 1177.021711 414.495071 
L 1177.630743 436.115519 
L 1178.239774 426.409492 
L 1178.848806 430.744487 
L 1179.457838 420.684027 
L 1180.06687 407.324607 
L 1180.675902 380.905674 
L 1181.284933 368.664083 
L 1181.893965 429.708451 
L 1182.502997 383.632086 
L 1183.112029 415.912805 
L 1184.330092 394.864904 
L 1184.939124 416.812521 
L 1185.548156 378.288318 
L 1186.157188 416.921578 
L 1186.766219 417.821294 
L 1187.375251 421.36563 
L 1188.593315 430.090148 
L 1189.202347 424.61006 
L 1189.811378 428.454301 
L 1190.42041 427.663642 
L 1191.029442 427.336472 
L 1191.638474 422.974213 
L 1192.247506 305.874812 
L 1192.856537 315.362726 
L 1193.465569 391.756794 
L 1194.074601 399.527068 
L 1194.683633 399.990559 
L 1195.292665 411.550546 
L 1195.901696 350.806084 
L 1196.510728 257.044771 
L 1197.11976 398.491032 
L 1197.728792 375.425585 
L 1198.946855 405.82508 
L 1199.555887 407.54272 
L 1200.164919 400.890275 
L 1200.773951 408.224323 
L 1201.382982 410.950735 
L 1201.992014 364.547201 
L 1202.601046 409.478473 
L 1203.210078 402.198952 
L 1203.81911 409.72385 
L 1204.428141 399.090843 
L 1205.037173 409.124039 
L 1205.646205 343.499299 
L 1206.864268 395.519243 
L 1207.4733 386.821988 
L 1208.082332 394.728583 
L 1208.691364 394.37415 
L 1209.300396 417.712237 
L 1209.909427 397.264146 
L 1210.518459 397.482259 
L 1211.127491 397.236882 
L 1211.736523 396.446223 
L 1212.345555 411.196112 
L 1212.954586 416.103654 
L 1213.563618 401.135652 
L 1214.17265 420.684027 
L 1214.781682 397.018769 
L 1215.999745 417.00337 
L 1216.608777 399.854238 
L 1217.217809 403.425838 
L 1217.826841 414.985825 
L 1218.435872 353.805137 
L 1219.044904 408.33338 
L 1219.653936 398.627352 
L 1220.262968 406.424891 
L 1220.872 404.189233 
L 1221.481031 406.043193 
L 1222.090063 401.217444 
L 1222.699095 395.43745 
L 1223.308127 408.79687 
L 1223.917159 398.381975 
L 1224.52619 399.172635 
L 1225.135222 386.385762 
L 1225.744254 414.331486 
L 1226.353286 406.288571 
L 1226.962318 390.529908 
L 1228.180381 414.304222 
L 1228.789413 412.232149 
L 1229.398445 402.498858 
L 1230.007476 378.042941 
L 1230.616508 400.672162 
L 1231.22554 404.543667 
L 1231.834572 379.651524 
L 1232.443604 403.753007 
L 1233.052635 410.514509 
L 1233.661667 396.555279 
L 1234.270699 403.180461 
L 1234.879731 398.954522 
L 1235.488763 367.300877 
L 1236.097794 386.849252 
L 1236.706826 399.881502 
L 1237.315858 401.026595 
L 1237.92489 394.646791 
L 1238.533922 376.570678 
L 1239.142953 398.027542 
L 1239.751985 394.864904 
L 1240.361017 371.990306 
L 1240.970049 394.864904 
L 1241.57908 374.062379 
L 1242.188112 395.546507 
L 1242.797144 359.039849 
L 1243.406176 397.018769 
L 1244.015208 396.936977 
L 1244.624239 396.446223 
L 1245.233271 391.86585 
L 1245.842303 391.756794 
L 1246.451335 370.599836 
L 1247.060367 365.147012 
L 1247.669398 356.531549 
L 1248.27843 369.563799 
L 1248.887462 390.857078 
L 1249.496494 328.967523 
L 1250.105525 368.200593 
L 1250.714557 385.676895 
L 1251.323589 338.346381 
L 1251.932621 375.262001 
L 1252.541653 376.107188 
L 1253.150684 375.861811 
L 1253.759716 382.841426 
L 1254.368748 383.19586 
L 1254.97778 397.727636 
L 1255.586812 304.293493 
L 1256.195843 389.330287 
L 1256.804875 389.466608 
L 1257.413907 388.539628 
L 1258.022939 380.196807 
L 1258.631971 358.958056 
L 1259.241002 371.963042 
L 1259.850034 367.164557 
L 1260.459066 382.377936 
L 1261.068098 368.882196 
L 1261.677129 384.995292 
L 1262.286161 385.131612 
L 1262.895193 381.450956 
L 1263.504225 356.640606 
L 1264.113257 379.297091 
L 1264.722288 383.059539 
L 1265.33132 367.0555 
L 1265.940352 369.345686 
L 1266.549384 351.269574 
L 1267.158416 373.353512 
L 1267.767447 382.596049 
L 1268.376479 382.187087 
L 1268.985511 376.079924 
L 1269.594543 368.30965 
L 1270.203575 375.534642 
L 1270.812606 384.204632 
L 1271.421638 383.304916 
L 1272.03067 372.426532 
L 1272.639702 378.288318 
L 1273.248733 373.898795 
L 1273.857765 377.688507 
L 1274.466797 363.265787 
L 1275.075829 372.644645 
L 1275.684861 378.751808 
L 1276.293892 363.865598 
L 1276.902924 384.095576 
L 1277.511956 378.342846 
L 1278.120988 371.499552 
L 1278.73002 370.954269 
L 1279.339051 358.930792 
L 1279.948083 362.611448 
L 1280.557115 349.797311 
L 1281.166147 372.780966 
L 1281.775178 363.293051 
L 1282.38421 284.472477 
L 1282.993242 376.188981 
L 1283.602274 372.317476 
L 1284.211306 372.426532 
L 1284.820337 370.708892 
L 1285.429369 366.264841 
L 1286.038401 317.216687 
L 1286.647433 360.457583 
L 1287.256465 364.547201 
L 1287.865496 369.781912 
L 1288.474528 352.95995 
L 1289.08356 363.647485 
L 1289.692592 356.313436 
L 1290.301624 360.293998 
L 1290.910655 374.607662 
L 1291.519687 363.402108 
L 1292.128719 356.20438 
L 1292.737751 358.003812 
L 1293.955814 373.353512 
L 1294.564846 369.018517 
L 1295.173878 363.293051 
L 1295.78291 352.305611 
L 1296.391941 350.833348 
L 1297.000973 355.959003 
L 1297.610005 283.927195 
L 1298.219037 359.394282 
L 1298.828069 362.475128 
L 1299.4371 360.866545 
L 1300.046132 356.20438 
L 1300.655164 340.39119 
L 1301.264196 350.587971 
L 1301.873228 345.925806 
L 1302.482259 351.269574 
L 1303.091291 343.717412 
L 1303.700323 350.260802 
L 1304.309355 353.450704 
L 1304.918386 353.88693 
L 1305.527418 353.805137 
L 1306.13645 323.242057 
L 1306.745482 365.501445 
L 1307.354514 355.495513 
L 1307.963545 287.47153 
L 1308.572577 319.915835 
L 1309.181609 344.399015 
L 1309.790641 350.697027 
L 1310.399673 342.70864 
L 1311.008704 342.108829 
L 1311.617736 349.115708 
L 1312.226768 308.410376 
L 1312.8358 345.462316 
L 1313.444832 351.733064 
L 1314.053863 343.96279 
L 1314.662895 351.37863 
L 1315.271927 348.515898 
L 1315.880959 341.536283 
L 1316.48999 346.143919 
L 1317.099022 331.939312 
L 1317.708054 349.906368 
L 1318.317086 334.147706 
L 1318.926118 351.187782 
L 1319.535149 337.555721 
L 1320.144181 333.575159 
L 1320.753213 348.161464 
L 1321.971277 355.959003 
L 1322.580308 354.81391 
L 1323.18934 340.06402 
L 1324.407404 326.704601 
L 1325.016435 336.628741 
L 1325.625467 341.536283 
L 1326.234499 344.617128 
L 1326.843531 273.757678 
L 1327.452563 343.17213 
L 1328.061594 338.619022 
L 1328.670626 236.351303 
L 1329.279658 334.365819 
L 1329.88869 331.612143 
L 1330.497722 331.503086 
L 1331.106753 260.80722 
L 1331.715785 299.931234 
L 1332.324817 321.306305 
L 1332.933849 321.769795 
L 1333.542881 339.164304 
L 1334.151912 323.732812 
L 1334.760944 338.482701 
L 1335.369976 340.309397 
L 1335.979008 316.398763 
L 1336.588039 336.983175 
L 1337.197071 337.555721 
L 1337.806103 338.67355 
L 1338.415135 323.051209 
L 1339.024167 324.986961 
L 1339.633198 335.156478 
L 1340.24223 323.732812 
L 1340.851262 287.444266 
L 1341.460294 321.660738 
L 1342.069326 321.769795 
L 1342.678357 328.967523 
L 1343.287389 290.334263 
L 1343.896421 336.410628 
L 1344.505453 339.764115 
L 1345.114485 321.987908 
L 1345.723516 326.56828 
L 1346.332548 323.378378 
L 1346.94158 324.169038 
L 1347.550612 324.741584 
L 1348.159643 311.054995 
L 1348.768675 337.310344 
L 1349.377707 337.310344 
L 1349.986739 328.74941 
L 1350.595771 323.841868 
L 1351.204802 328.504033 
L 1351.813834 323.623755 
L 1352.422866 308.383111 
L 1353.031898 310.455185 
L 1353.64093 332.293746 
L 1354.249961 321.415361 
L 1354.858993 284.036251 
L 1355.468025 309.528204 
L 1356.077057 232.234421 
L 1356.686088 298.786141 
L 1357.29512 280.382859 
L 1357.904152 322.015172 
L 1358.513184 305.574907 
L 1359.122216 315.035557 
L 1359.731247 311.164052 
L 1360.340279 300.940006 
L 1360.949311 316.725932 
L 1361.558343 315.962537 
L 1362.167375 316.616876 
L 1362.776406 305.765756 
L 1363.385438 313.53603 
L 1363.99447 239.677526 
L 1364.603502 285.726627 
L 1365.212534 311.273108 
L 1365.821565 309.882638 
L 1366.430597 296.632275 
L 1367.039629 319.943099 
L 1367.648661 302.903023 
L 1368.257692 265.060423 
L 1368.866724 310.809618 
L 1369.475756 309.173771 
L 1370.084788 297.068501 
L 1370.69382 299.931234 
L 1371.302851 284.826911 
L 1371.911883 297.177558 
L 1372.520915 284.990495 
L 1373.129947 299.249631 
L 1373.738979 284.608798 
L 1374.34801 194.146444 
L 1374.957042 281.882386 
L 1375.566074 283.109271 
L 1376.784138 297.531991 
L 1377.393169 302.575854 
L 1378.002201 276.48409 
L 1378.611233 300.50378 
L 1379.829296 298.213594 
L 1380.438328 286.462758 
L 1381.04736 246.166387 
L 1381.656392 294.205768 
L 1382.265424 285.862947 
L 1382.874455 281.173518 
L 1383.483487 286.653607 
L 1384.092519 289.080114 
L 1384.701551 267.459666 
L 1385.310583 299.276895 
L 1385.919614 311.736598 
L 1386.528646 305.302266 
L 1387.137678 235.20621 
L 1387.74671 291.942846 
L 1388.355742 300.858214 
L 1388.964773 288.044077 
L 1389.573805 299.5768 
L 1390.182837 297.968217 
L 1390.791869 286.326437 
L 1391.4009 289.080114 
L 1392.009932 304.048116 
L 1392.618964 281.064462 
L 1393.227996 280.273802 
L 1393.837028 288.616624 
L 1394.446059 249.247233 
L 1395.055091 289.97983 
L 1395.664123 273.076074 
L 1396.273155 273.539565 
L 1396.882187 272.503528 
L 1397.491218 283.899931 
L 1398.10025 282.891158 
L 1398.709282 273.83947 
L 1399.318314 282.782102 
L 1399.927345 288.834737 
L 1401.145409 248.23846 
L 1401.754441 281.637009 
L 1402.363473 280.273802 
L 1402.972504 287.935021 
L 1403.581536 283.327384 
L 1404.190568 265.278536 
L 1404.7996 278.092673 
L 1405.408632 276.265977 
L 1406.017663 275.69343 
L 1406.626695 269.286362 
L 1407.235727 241.858656 
L 1407.844759 267.814099 
L 1408.453791 266.641742 
L 1409.062822 271.685604 
L 1409.671854 274.984563 
L 1410.280886 274.003055 
L 1410.889918 257.753638 
L 1411.498949 275.584374 
L 1412.107981 274.902771 
L 1412.717013 292.924355 
L 1413.326045 283.354648 
L 1413.935077 265.742026 
L 1414.544108 270.785888 
L 1415.15314 248.729214 
L 1415.762172 272.857962 
L 1416.371204 263.560896 
L 1416.980236 279.237766 
L 1417.589267 286.08106 
L 1418.198299 281.991442 
L 1418.807331 276.593146 
L 1419.416363 199.626532 
L 1420.025395 266.341837 
L 1420.634426 267.786835 
L 1421.243458 203.198132 
L 1421.85249 275.448053 
L 1422.461522 269.395418 
L 1423.070553 268.141269 
L 1423.679585 255.572509 
L 1424.288617 273.621357 
L 1424.897649 268.495702 
L 1425.506681 269.831644 
L 1426.115712 258.326185 
L 1426.724744 270.077021 
L 1427.333776 273.539565 
L 1427.942808 252.900625 
L 1428.55184 257.889959 
L 1429.160871 249.737987 
L 1429.769903 269.177305 
L 1430.378935 267.323345 
L 1430.987967 270.213342 
L 1431.596998 251.319306 
L 1432.20603 219.420284 
L 1432.815062 260.834484 
L 1433.424094 260.01656 
L 1434.033126 252.464399 
L 1434.642157 264.269763 
L 1435.251189 263.91533 
L 1435.860221 237.605453 
L 1436.469253 253.963926 
L 1437.078285 221.137924 
L 1437.687316 242.976485 
L 1438.296348 254.072982 
L 1438.90538 256.690338 
L 1439.514412 256.717602 
L 1440.123444 258.080808 
L 1440.732475 251.81006 
L 1441.341507 238.995923 
L 1441.950539 244.803181 
L 1442.559571 242.867428 
L 1443.168602 244.721388 
L 1443.777634 241.722335 
L 1444.386666 208.460107 
L 1444.995698 253.500435 
L 1445.60473 253.173266 
L 1446.213761 249.49261 
L 1446.822793 243.194598 
L 1447.431825 257.044771 
L 1448.040857 250.310533 
L 1448.649889 245.375727 
L 1449.25892 242.431202 
L 1449.867952 236.214983 
L 1450.476984 243.412711 
L 1451.086016 242.894692 
L 1451.695048 231.770931 
L 1452.304079 238.31432 
L 1452.913111 237.932622 
L 1453.522143 217.021041 
L 1454.131175 217.838965 
L 1454.740206 230.762158 
L 1455.349238 231.770931 
L 1455.95827 190.138618 
L 1456.567302 235.860549 
L 1457.176334 241.040732 
L 1457.785365 238.750546 
L 1458.394397 249.274497 
L 1459.003429 249.737987 
L 1459.612461 257.480997 
L 1460.221493 233.624891 
L 1460.830524 246.629877 
L 1461.439556 218.166134 
L 1462.048588 239.786583 
L 1462.65762 235.53338 
L 1463.266652 217.811701 
L 1463.875683 133.92 
L 1464.484715 175.170615 
L 1465.093747 241.040732 
L 1465.702779 240.904411 
L 1466.31181 216.911985 
L 1466.920842 229.698858 
L 1467.529874 229.862442 
L 1468.747938 212.358877 
L 1469.356969 230.407725 
L 1469.966001 234.524607 
L 1470.575033 233.379514 
L 1471.184065 221.928583 
L 1471.793097 240.359129 
L 1472.402128 230.625838 
L 1473.01116 215.875948 
L 1473.620192 232.016308 
L 1474.229224 234.851777 
L 1474.838255 225.581975 
L 1475.447287 222.064904 
L 1476.056319 219.229435 
L 1476.665351 206.987845 
L 1477.274383 222.746507 
L 1477.883414 223.537166 
L 1478.492446 223.537166 
L 1479.101478 201.235115 
L 1479.71051 164.892042 
L 1480.319542 223.400846 
L 1480.928573 221.492357 
L 1481.537605 217.702644 
L 1482.146637 224.109713 
L 1483.364701 203.770678 
L 1483.973732 204.206904 
L 1484.582764 143.053481 
L 1485.191796 200.444456 
L 1485.800828 215.085289 
L 1486.409859 209.93237 
L 1487.018891 213.122272 
L 1487.627923 207.178694 
L 1488.236955 214.185573 
L 1488.845987 224.35509 
L 1489.455018 220.674434 
L 1490.06405 213.831139 
L 1490.673082 215.685099 
L 1491.282114 200.444456 
L 1491.891146 220.238208 
L 1492.500177 209.00539 
L 1493.109209 189.675128 
L 1493.718241 199.408419 
L 1494.327273 197.036441 
L 1494.327273 197.036441 
" style="fill:none;stroke:#1f77b4;stroke-linecap:square;stroke-width:1.5;"/>
   </g>
   <g id="line2d_17">
    <path clip-path="url(#pc56cabb92b)" d="M 276.872727 735.094624 
L 298.797872 731.744821 
L 320.723016 728.173468 
L 342.64816 724.380564 
L 364.573305 720.366109 
L 386.498449 716.130104 
L 408.423594 711.672548 
L 430.348738 706.993442 
L 452.273882 702.092784 
L 474.808059 696.82513 
L 497.342235 691.323446 
L 519.876411 685.587733 
L 542.410587 679.617989 
L 564.944763 673.414215 
L 587.478939 666.976411 
L 610.013116 660.304577 
L 632.547292 653.398713 
L 655.081468 646.25882 
L 677.615644 638.884896 
L 700.14982 631.276942 
L 722.683997 623.434958 
L 745.218173 615.358945 
L 767.752349 607.048901 
L 790.286525 598.504828 
L 812.820701 589.726724 
L 835.354877 580.714591 
L 857.889054 571.468427 
L 881.032262 561.728764 
L 904.17547 551.74225 
L 927.318678 541.508885 
L 950.461885 531.028668 
L 973.605093 520.301601 
L 996.748301 509.327682 
L 1019.891509 498.106912 
L 1043.034717 486.639291 
L 1066.177925 474.924818 
L 1089.321133 462.963494 
L 1112.464341 450.75532 
L 1135.607549 438.300294 
L 1158.750757 425.598417 
L 1182.502997 412.305599 
L 1206.255237 398.752766 
L 1230.007476 384.93992 
L 1253.759716 370.867059 
L 1277.511956 356.534184 
L 1301.264196 341.941295 
L 1325.016435 327.088391 
L 1348.768675 311.975473 
L 1372.520915 296.602541 
L 1396.273155 280.969594 
L 1420.634426 264.665702 
L 1444.995698 248.088291 
L 1469.356969 231.237361 
L 1493.718241 214.112911 
L 1494.327273 213.681295 
L 1494.327273 213.681295 
" style="fill:none;stroke:#ff7f0e;stroke-linecap:square;stroke-width:1.5;"/>
   </g>
   <g id="patch_3">
    <path d="M 216 768.96 
L 216 103.68 
" style="fill:none;stroke:#000000;stroke-linecap:square;stroke-linejoin:miter;stroke-width:0.8;"/>
   </g>
   <g id="patch_4">
    <path d="M 1555.2 768.96 
L 1555.2 103.68 
" style="fill:none;stroke:#000000;stroke-linecap:square;stroke-linejoin:miter;stroke-width:0.8;"/>
   </g>
   <g id="patch_5">
    <path d="M 216 768.96 
L 1555.2 768.96 
" style="fill:none;stroke:#000000;stroke-linecap:square;stroke-linejoin:miter;stroke-width:0.8;"/>
   </g>
   <g id="patch_6">
    <path d="M 216 103.68 
L 1555.2 103.68 
" style="fill:none;stroke:#000000;stroke-linecap:square;stroke-linejoin:miter;stroke-width:0.8;"/>
   </g>
   <g id="legend_1">
    <g id="patch_7">
     <path d="M 223 141.03625 
L 349.451563 141.03625 
Q 351.451563 141.03625 351.451563 139.03625 
L 351.451563 110.68 
Q 351.451563 108.68 349.451563 108.68 
L 223 108.68 
Q 221 108.68 221 110.68 
L 221 139.03625 
Q 221 141.03625 223 141.03625 
z
" style="fill:#ffffff;opacity:0.8;stroke:#cccccc;stroke-linejoin:miter;"/>
    </g>
    <g id="line2d_18">
     <path d="M 225 116.778437 
L 245 116.778437 
" style="fill:none;stroke:#1f77b4;stroke-linecap:square;stroke-width:1.5;"/>
    </g>
    <g id="line2d_19"/>
    <g id="text_18">
     <!-- Experiment results -->
     <g transform="translate(253 120.278437)scale(0.1 -0.1)">
      <defs>
       <path d="M 9.8125 72.90625 
L 55.90625 72.90625 
L 55.90625 64.59375 
L 19.671875 64.59375 
L 19.671875 43.015625 
L 54.390625 43.015625 
L 54.390625 34.71875 
L 19.671875 34.71875 
L 19.671875 8.296875 
L 56.78125 8.296875 
L 56.78125 0 
L 9.8125 0 
z
" id="DejaVuSans-69"/>
       <path d="M 54.890625 54.6875 
L 35.109375 28.078125 
L 55.90625 0 
L 45.3125 0 
L 29.390625 21.484375 
L 13.484375 0 
L 2.875 0 
L 24.125 28.609375 
L 4.6875 54.6875 
L 15.28125 54.6875 
L 29.78125 35.203125 
L 44.28125 54.6875 
z
" id="DejaVuSans-120"/>
       <path d="M 18.109375 8.203125 
L 18.109375 -20.796875 
L 9.078125 -20.796875 
L 9.078125 54.6875 
L 18.109375 54.6875 
L 18.109375 46.390625 
Q 20.953125 51.265625 25.265625 53.625 
Q 29.59375 56 35.59375 56 
Q 45.5625 56 51.78125 48.09375 
Q 58.015625 40.1875 58.015625 27.296875 
Q 58.015625 14.40625 51.78125 6.484375 
Q 45.5625 -1.421875 35.59375 -1.421875 
Q 29.59375 -1.421875 25.265625 0.953125 
Q 20.953125 3.328125 18.109375 8.203125 
z
M 48.6875 27.296875 
Q 48.6875 37.203125 44.609375 42.84375 
Q 40.53125 48.484375 33.40625 48.484375 
Q 26.265625 48.484375 22.1875 42.84375 
Q 18.109375 37.203125 18.109375 27.296875 
Q 18.109375 17.390625 22.1875 11.75 
Q 26.265625 6.109375 33.40625 6.109375 
Q 40.53125 6.109375 44.609375 11.75 
Q 48.6875 17.390625 48.6875 27.296875 
z
" id="DejaVuSans-112"/>
       <path d="M 8.5 21.578125 
L 8.5 54.6875 
L 17.484375 54.6875 
L 17.484375 21.921875 
Q 17.484375 14.15625 20.5 10.265625 
Q 23.53125 6.390625 29.59375 6.390625 
Q 36.859375 6.390625 41.078125 11.03125 
Q 45.3125 15.671875 45.3125 23.6875 
L 45.3125 54.6875 
L 54.296875 54.6875 
L 54.296875 0 
L 45.3125 0 
L 45.3125 8.40625 
Q 42.046875 3.421875 37.71875 1 
Q 33.40625 -1.421875 27.6875 -1.421875 
Q 18.265625 -1.421875 13.375 4.4375 
Q 8.5 10.296875 8.5 21.578125 
z
M 31.109375 56 
z
" id="DejaVuSans-117"/>
      </defs>
      <use xlink:href="#DejaVuSans-69"/>
      <use x="63.183594" xlink:href="#DejaVuSans-120"/>
      <use x="122.363281" xlink:href="#DejaVuSans-112"/>
      <use x="185.839844" xlink:href="#DejaVuSans-101"/>
      <use x="247.363281" xlink:href="#DejaVuSans-114"/>
      <use x="288.476562" xlink:href="#DejaVuSans-105"/>
      <use x="316.259766" xlink:href="#DejaVuSans-109"/>
      <use x="413.671875" xlink:href="#DejaVuSans-101"/>
      <use x="475.195312" xlink:href="#DejaVuSans-110"/>
      <use x="538.574219" xlink:href="#DejaVuSans-116"/>
      <use x="577.783203" xlink:href="#DejaVuSans-32"/>
      <use x="609.570312" xlink:href="#DejaVuSans-114"/>
      <use x="648.433594" xlink:href="#DejaVuSans-101"/>
      <use x="709.957031" xlink:href="#DejaVuSans-115"/>
      <use x="762.056641" xlink:href="#DejaVuSans-117"/>
      <use x="825.435547" xlink:href="#DejaVuSans-108"/>
      <use x="853.21875" xlink:href="#DejaVuSans-116"/>
      <use x="892.427734" xlink:href="#DejaVuSans-115"/>
     </g>
    </g>
    <g id="line2d_20">
     <path d="M 225 131.456563 
L 245 131.456563 
" style="fill:none;stroke:#ff7f0e;stroke-linecap:square;stroke-width:1.5;"/>
    </g>
    <g id="line2d_21"/>
    <g id="text_19">
     <!-- Approximation -->
     <g transform="translate(253 134.956563)scale(0.1 -0.1)">
      <defs>
       <path d="M 34.1875 63.1875 
L 20.796875 26.90625 
L 47.609375 26.90625 
z
M 28.609375 72.90625 
L 39.796875 72.90625 
L 67.578125 0 
L 57.328125 0 
L 50.6875 18.703125 
L 17.828125 18.703125 
L 11.1875 0 
L 0.78125 0 
z
" id="DejaVuSans-65"/>
       <path d="M 34.28125 27.484375 
Q 23.390625 27.484375 19.1875 25 
Q 14.984375 22.515625 14.984375 16.5 
Q 14.984375 11.71875 18.140625 8.90625 
Q 21.296875 6.109375 26.703125 6.109375 
Q 34.1875 6.109375 38.703125 11.40625 
Q 43.21875 16.703125 43.21875 25.484375 
L 43.21875 27.484375 
z
M 52.203125 31.203125 
L 52.203125 0 
L 43.21875 0 
L 43.21875 8.296875 
Q 40.140625 3.328125 35.546875 0.953125 
Q 30.953125 -1.421875 24.3125 -1.421875 
Q 15.921875 -1.421875 10.953125 3.296875 
Q 6 8.015625 6 15.921875 
Q 6 25.140625 12.171875 29.828125 
Q 18.359375 34.515625 30.609375 34.515625 
L 43.21875 34.515625 
L 43.21875 35.40625 
Q 43.21875 41.609375 39.140625 45 
Q 35.0625 48.390625 27.6875 48.390625 
Q 23 48.390625 18.546875 47.265625 
Q 14.109375 46.140625 10.015625 43.890625 
L 10.015625 52.203125 
Q 14.9375 54.109375 19.578125 55.046875 
Q 24.21875 56 28.609375 56 
Q 40.484375 56 46.34375 49.84375 
Q 52.203125 43.703125 52.203125 31.203125 
z
" id="DejaVuSans-97"/>
      </defs>
      <use xlink:href="#DejaVuSans-65"/>
      <use x="68.408203" xlink:href="#DejaVuSans-112"/>
      <use x="131.884766" xlink:href="#DejaVuSans-112"/>
      <use x="195.361328" xlink:href="#DejaVuSans-114"/>
      <use x="234.224609" xlink:href="#DejaVuSans-111"/>
      <use x="292.28125" xlink:href="#DejaVuSans-120"/>
      <use x="351.460938" xlink:href="#DejaVuSans-105"/>
      <use x="379.244141" xlink:href="#DejaVuSans-109"/>
      <use x="476.65625" xlink:href="#DejaVuSans-97"/>
      <use x="537.935547" xlink:href="#DejaVuSans-116"/>
      <use x="577.144531" xlink:href="#DejaVuSans-105"/>
      <use x="604.927734" xlink:href="#DejaVuSans-111"/>
      <use x="666.109375" xlink:href="#DejaVuSans-110"/>
     </g>
    </g>
   </g>
  </g>
 </g>
 <defs>
  <clipPath id="pc56cabb92b">
   <rect height="665.28" width="1339.2" x="216" y="103.68"/>
  </clipPath>
 </defs>
</svg>
