<?xml version="1.0" encoding="utf-8" standalone="no"?>
<!DOCTYPE svg PUBLIC "-//W3C//DTD SVG 1.1//EN"
  "http://www.w3.org/Graphics/SVG/1.1/DTD/svg11.dtd">
<!-- Created with matplotlib (https://matplotlib.org/) -->
<svg height="864pt" version="1.1" viewBox="0 0 1728 864" width="1728pt" xmlns="http://www.w3.org/2000/svg" xmlns:xlink="http://www.w3.org/1999/xlink">
 <metadata>
  <rdf:RDF xmlns:cc="http://creativecommons.org/ns#" xmlns:dc="http://purl.org/dc/elements/1.1/" xmlns:rdf="http://www.w3.org/1999/02/22-rdf-syntax-ns#">
   <cc:Work>
    <dc:type rdf:resource="http://purl.org/dc/dcmitype/StillImage"/>
    <dc:date>2020-09-12T20:12:29.849755</dc:date>
    <dc:format>image/svg+xml</dc:format>
    <dc:creator>
     <cc:Agent>
      <dc:title>Matplotlib v3.3.1, https://matplotlib.org/</dc:title>
     </cc:Agent>
    </dc:creator>
   </cc:Work>
  </rdf:RDF>
 </metadata>
 <defs>
  <style type="text/css">*{stroke-linecap:butt;stroke-linejoin:round;}</style>
 </defs>
 <g id="figure_1">
  <g id="patch_1">
   <path d="M 0 864 
L 1728 864 
L 1728 0 
L 0 0 
z
" style="fill:#ffffff;"/>
  </g>
  <g id="axes_1">
   <g id="patch_2">
    <path d="M 216 768.96 
L 1555.2 768.96 
L 1555.2 103.68 
L 216 103.68 
z
" style="fill:#ffffff;"/>
   </g>
   <g id="matplotlib.axis_1">
    <g id="xtick_1">
     <g id="line2d_1">
      <defs>
       <path d="M 0 0 
L 0 3.5 
" id="m7c80b74293" style="stroke:#000000;stroke-width:0.8;"/>
      </defs>
      <g>
       <use style="stroke:#000000;stroke-width:0.8;" x="276.872727" xlink:href="#m7c80b74293" y="768.96"/>
      </g>
     </g>
     <g id="text_1">
      <!-- 0 -->
      <g transform="translate(273.691477 783.558437)scale(0.1 -0.1)">
       <defs>
        <path d="M 31.78125 66.40625 
Q 24.171875 66.40625 20.328125 58.90625 
Q 16.5 51.421875 16.5 36.375 
Q 16.5 21.390625 20.328125 13.890625 
Q 24.171875 6.390625 31.78125 6.390625 
Q 39.453125 6.390625 43.28125 13.890625 
Q 47.125 21.390625 47.125 36.375 
Q 47.125 51.421875 43.28125 58.90625 
Q 39.453125 66.40625 31.78125 66.40625 
z
M 31.78125 74.21875 
Q 44.046875 74.21875 50.515625 64.515625 
Q 56.984375 54.828125 56.984375 36.375 
Q 56.984375 17.96875 50.515625 8.265625 
Q 44.046875 -1.421875 31.78125 -1.421875 
Q 19.53125 -1.421875 13.0625 8.265625 
Q 6.59375 17.96875 6.59375 36.375 
Q 6.59375 54.828125 13.0625 64.515625 
Q 19.53125 74.21875 31.78125 74.21875 
z
" id="DejaVuSans-48"/>
       </defs>
       <use xlink:href="#DejaVuSans-48"/>
      </g>
     </g>
    </g>
    <g id="xtick_2">
     <g id="line2d_2">
      <g>
       <use style="stroke:#000000;stroke-width:0.8;" x="437.14847" xlink:href="#m7c80b74293" y="768.96"/>
      </g>
     </g>
     <g id="text_2">
      <!-- 250 -->
      <g transform="translate(427.60472 783.558437)scale(0.1 -0.1)">
       <defs>
        <path d="M 19.1875 8.296875 
L 53.609375 8.296875 
L 53.609375 0 
L 7.328125 0 
L 7.328125 8.296875 
Q 12.9375 14.109375 22.625 23.890625 
Q 32.328125 33.6875 34.8125 36.53125 
Q 39.546875 41.84375 41.421875 45.53125 
Q 43.3125 49.21875 43.3125 52.78125 
Q 43.3125 58.59375 39.234375 62.25 
Q 35.15625 65.921875 28.609375 65.921875 
Q 23.96875 65.921875 18.8125 64.3125 
Q 13.671875 62.703125 7.8125 59.421875 
L 7.8125 69.390625 
Q 13.765625 71.78125 18.9375 73 
Q 24.125 74.21875 28.421875 74.21875 
Q 39.75 74.21875 46.484375 68.546875 
Q 53.21875 62.890625 53.21875 53.421875 
Q 53.21875 48.921875 51.53125 44.890625 
Q 49.859375 40.875 45.40625 35.40625 
Q 44.1875 33.984375 37.640625 27.21875 
Q 31.109375 20.453125 19.1875 8.296875 
z
" id="DejaVuSans-50"/>
        <path d="M 10.796875 72.90625 
L 49.515625 72.90625 
L 49.515625 64.59375 
L 19.828125 64.59375 
L 19.828125 46.734375 
Q 21.96875 47.46875 24.109375 47.828125 
Q 26.265625 48.1875 28.421875 48.1875 
Q 40.625 48.1875 47.75 41.5 
Q 54.890625 34.8125 54.890625 23.390625 
Q 54.890625 11.625 47.5625 5.09375 
Q 40.234375 -1.421875 26.90625 -1.421875 
Q 22.3125 -1.421875 17.546875 -0.640625 
Q 12.796875 0.140625 7.71875 1.703125 
L 7.71875 11.625 
Q 12.109375 9.234375 16.796875 8.0625 
Q 21.484375 6.890625 26.703125 6.890625 
Q 35.15625 6.890625 40.078125 11.328125 
Q 45.015625 15.765625 45.015625 23.390625 
Q 45.015625 31 40.078125 35.4375 
Q 35.15625 39.890625 26.703125 39.890625 
Q 22.75 39.890625 18.8125 39.015625 
Q 14.890625 38.140625 10.796875 36.28125 
z
" id="DejaVuSans-53"/>
       </defs>
       <use xlink:href="#DejaVuSans-50"/>
       <use x="63.623047" xlink:href="#DejaVuSans-53"/>
       <use x="127.246094" xlink:href="#DejaVuSans-48"/>
      </g>
     </g>
    </g>
    <g id="xtick_3">
     <g id="line2d_3">
      <g>
       <use style="stroke:#000000;stroke-width:0.8;" x="597.424214" xlink:href="#m7c80b74293" y="768.96"/>
      </g>
     </g>
     <g id="text_3">
      <!-- 500 -->
      <g transform="translate(587.880464 783.558437)scale(0.1 -0.1)">
       <use xlink:href="#DejaVuSans-53"/>
       <use x="63.623047" xlink:href="#DejaVuSans-48"/>
       <use x="127.246094" xlink:href="#DejaVuSans-48"/>
      </g>
     </g>
    </g>
    <g id="xtick_4">
     <g id="line2d_4">
      <g>
       <use style="stroke:#000000;stroke-width:0.8;" x="757.699957" xlink:href="#m7c80b74293" y="768.96"/>
      </g>
     </g>
     <g id="text_4">
      <!-- 750 -->
      <g transform="translate(748.156207 783.558437)scale(0.1 -0.1)">
       <defs>
        <path d="M 8.203125 72.90625 
L 55.078125 72.90625 
L 55.078125 68.703125 
L 28.609375 0 
L 18.3125 0 
L 43.21875 64.59375 
L 8.203125 64.59375 
z
" id="DejaVuSans-55"/>
       </defs>
       <use xlink:href="#DejaVuSans-55"/>
       <use x="63.623047" xlink:href="#DejaVuSans-53"/>
       <use x="127.246094" xlink:href="#DejaVuSans-48"/>
      </g>
     </g>
    </g>
    <g id="xtick_5">
     <g id="line2d_5">
      <g>
       <use style="stroke:#000000;stroke-width:0.8;" x="917.9757" xlink:href="#m7c80b74293" y="768.96"/>
      </g>
     </g>
     <g id="text_5">
      <!-- 1000 -->
      <g transform="translate(905.2507 783.558437)scale(0.1 -0.1)">
       <defs>
        <path d="M 12.40625 8.296875 
L 28.515625 8.296875 
L 28.515625 63.921875 
L 10.984375 60.40625 
L 10.984375 69.390625 
L 28.421875 72.90625 
L 38.28125 72.90625 
L 38.28125 8.296875 
L 54.390625 8.296875 
L 54.390625 0 
L 12.40625 0 
z
" id="DejaVuSans-49"/>
       </defs>
       <use xlink:href="#DejaVuSans-49"/>
       <use x="63.623047" xlink:href="#DejaVuSans-48"/>
       <use x="127.246094" xlink:href="#DejaVuSans-48"/>
       <use x="190.869141" xlink:href="#DejaVuSans-48"/>
      </g>
     </g>
    </g>
    <g id="xtick_6">
     <g id="line2d_6">
      <g>
       <use style="stroke:#000000;stroke-width:0.8;" x="1078.251443" xlink:href="#m7c80b74293" y="768.96"/>
      </g>
     </g>
     <g id="text_6">
      <!-- 1250 -->
      <g transform="translate(1065.526443 783.558437)scale(0.1 -0.1)">
       <use xlink:href="#DejaVuSans-49"/>
       <use x="63.623047" xlink:href="#DejaVuSans-50"/>
       <use x="127.246094" xlink:href="#DejaVuSans-53"/>
       <use x="190.869141" xlink:href="#DejaVuSans-48"/>
      </g>
     </g>
    </g>
    <g id="xtick_7">
     <g id="line2d_7">
      <g>
       <use style="stroke:#000000;stroke-width:0.8;" x="1238.527187" xlink:href="#m7c80b74293" y="768.96"/>
      </g>
     </g>
     <g id="text_7">
      <!-- 1500 -->
      <g transform="translate(1225.802187 783.558437)scale(0.1 -0.1)">
       <use xlink:href="#DejaVuSans-49"/>
       <use x="63.623047" xlink:href="#DejaVuSans-53"/>
       <use x="127.246094" xlink:href="#DejaVuSans-48"/>
       <use x="190.869141" xlink:href="#DejaVuSans-48"/>
      </g>
     </g>
    </g>
    <g id="xtick_8">
     <g id="line2d_8">
      <g>
       <use style="stroke:#000000;stroke-width:0.8;" x="1398.80293" xlink:href="#m7c80b74293" y="768.96"/>
      </g>
     </g>
     <g id="text_8">
      <!-- 1750 -->
      <g transform="translate(1386.07793 783.558437)scale(0.1 -0.1)">
       <use xlink:href="#DejaVuSans-49"/>
       <use x="63.623047" xlink:href="#DejaVuSans-55"/>
       <use x="127.246094" xlink:href="#DejaVuSans-53"/>
       <use x="190.869141" xlink:href="#DejaVuSans-48"/>
      </g>
     </g>
    </g>
    <g id="text_9">
     <!-- Vector length -->
     <g transform="translate(852.139844 797.236562)scale(0.1 -0.1)">
      <defs>
       <path d="M 28.609375 0 
L 0.78125 72.90625 
L 11.078125 72.90625 
L 34.1875 11.53125 
L 57.328125 72.90625 
L 67.578125 72.90625 
L 39.796875 0 
z
" id="DejaVuSans-86"/>
       <path d="M 56.203125 29.59375 
L 56.203125 25.203125 
L 14.890625 25.203125 
Q 15.484375 15.921875 20.484375 11.0625 
Q 25.484375 6.203125 34.421875 6.203125 
Q 39.59375 6.203125 44.453125 7.46875 
Q 49.3125 8.734375 54.109375 11.28125 
L 54.109375 2.78125 
Q 49.265625 0.734375 44.1875 -0.34375 
Q 39.109375 -1.421875 33.890625 -1.421875 
Q 20.796875 -1.421875 13.15625 6.1875 
Q 5.515625 13.8125 5.515625 26.8125 
Q 5.515625 40.234375 12.765625 48.109375 
Q 20.015625 56 32.328125 56 
Q 43.359375 56 49.78125 48.890625 
Q 56.203125 41.796875 56.203125 29.59375 
z
M 47.21875 32.234375 
Q 47.125 39.59375 43.09375 43.984375 
Q 39.0625 48.390625 32.421875 48.390625 
Q 24.90625 48.390625 20.390625 44.140625 
Q 15.875 39.890625 15.1875 32.171875 
z
" id="DejaVuSans-101"/>
       <path d="M 48.78125 52.59375 
L 48.78125 44.1875 
Q 44.96875 46.296875 41.140625 47.34375 
Q 37.3125 48.390625 33.40625 48.390625 
Q 24.65625 48.390625 19.8125 42.84375 
Q 14.984375 37.3125 14.984375 27.296875 
Q 14.984375 17.28125 19.8125 11.734375 
Q 24.65625 6.203125 33.40625 6.203125 
Q 37.3125 6.203125 41.140625 7.25 
Q 44.96875 8.296875 48.78125 10.40625 
L 48.78125 2.09375 
Q 45.015625 0.34375 40.984375 -0.53125 
Q 36.96875 -1.421875 32.421875 -1.421875 
Q 20.0625 -1.421875 12.78125 6.34375 
Q 5.515625 14.109375 5.515625 27.296875 
Q 5.515625 40.671875 12.859375 48.328125 
Q 20.21875 56 33.015625 56 
Q 37.15625 56 41.109375 55.140625 
Q 45.0625 54.296875 48.78125 52.59375 
z
" id="DejaVuSans-99"/>
       <path d="M 18.3125 70.21875 
L 18.3125 54.6875 
L 36.8125 54.6875 
L 36.8125 47.703125 
L 18.3125 47.703125 
L 18.3125 18.015625 
Q 18.3125 11.328125 20.140625 9.421875 
Q 21.96875 7.515625 27.59375 7.515625 
L 36.8125 7.515625 
L 36.8125 0 
L 27.59375 0 
Q 17.1875 0 13.234375 3.875 
Q 9.28125 7.765625 9.28125 18.015625 
L 9.28125 47.703125 
L 2.6875 47.703125 
L 2.6875 54.6875 
L 9.28125 54.6875 
L 9.28125 70.21875 
z
" id="DejaVuSans-116"/>
       <path d="M 30.609375 48.390625 
Q 23.390625 48.390625 19.1875 42.75 
Q 14.984375 37.109375 14.984375 27.296875 
Q 14.984375 17.484375 19.15625 11.84375 
Q 23.34375 6.203125 30.609375 6.203125 
Q 37.796875 6.203125 41.984375 11.859375 
Q 46.1875 17.53125 46.1875 27.296875 
Q 46.1875 37.015625 41.984375 42.703125 
Q 37.796875 48.390625 30.609375 48.390625 
z
M 30.609375 56 
Q 42.328125 56 49.015625 48.375 
Q 55.71875 40.765625 55.71875 27.296875 
Q 55.71875 13.875 49.015625 6.21875 
Q 42.328125 -1.421875 30.609375 -1.421875 
Q 18.84375 -1.421875 12.171875 6.21875 
Q 5.515625 13.875 5.515625 27.296875 
Q 5.515625 40.765625 12.171875 48.375 
Q 18.84375 56 30.609375 56 
z
" id="DejaVuSans-111"/>
       <path d="M 41.109375 46.296875 
Q 39.59375 47.171875 37.8125 47.578125 
Q 36.03125 48 33.890625 48 
Q 26.265625 48 22.1875 43.046875 
Q 18.109375 38.09375 18.109375 28.8125 
L 18.109375 0 
L 9.078125 0 
L 9.078125 54.6875 
L 18.109375 54.6875 
L 18.109375 46.1875 
Q 20.953125 51.171875 25.484375 53.578125 
Q 30.03125 56 36.53125 56 
Q 37.453125 56 38.578125 55.875 
Q 39.703125 55.765625 41.0625 55.515625 
z
" id="DejaVuSans-114"/>
       <path id="DejaVuSans-32"/>
       <path d="M 9.421875 75.984375 
L 18.40625 75.984375 
L 18.40625 0 
L 9.421875 0 
z
" id="DejaVuSans-108"/>
       <path d="M 54.890625 33.015625 
L 54.890625 0 
L 45.90625 0 
L 45.90625 32.71875 
Q 45.90625 40.484375 42.875 44.328125 
Q 39.84375 48.1875 33.796875 48.1875 
Q 26.515625 48.1875 22.3125 43.546875 
Q 18.109375 38.921875 18.109375 30.90625 
L 18.109375 0 
L 9.078125 0 
L 9.078125 54.6875 
L 18.109375 54.6875 
L 18.109375 46.1875 
Q 21.34375 51.125 25.703125 53.5625 
Q 30.078125 56 35.796875 56 
Q 45.21875 56 50.046875 50.171875 
Q 54.890625 44.34375 54.890625 33.015625 
z
" id="DejaVuSans-110"/>
       <path d="M 45.40625 27.984375 
Q 45.40625 37.75 41.375 43.109375 
Q 37.359375 48.484375 30.078125 48.484375 
Q 22.859375 48.484375 18.828125 43.109375 
Q 14.796875 37.75 14.796875 27.984375 
Q 14.796875 18.265625 18.828125 12.890625 
Q 22.859375 7.515625 30.078125 7.515625 
Q 37.359375 7.515625 41.375 12.890625 
Q 45.40625 18.265625 45.40625 27.984375 
z
M 54.390625 6.78125 
Q 54.390625 -7.171875 48.1875 -13.984375 
Q 42 -20.796875 29.203125 -20.796875 
Q 24.46875 -20.796875 20.265625 -20.09375 
Q 16.0625 -19.390625 12.109375 -17.921875 
L 12.109375 -9.1875 
Q 16.0625 -11.328125 19.921875 -12.34375 
Q 23.78125 -13.375 27.78125 -13.375 
Q 36.625 -13.375 41.015625 -8.765625 
Q 45.40625 -4.15625 45.40625 5.171875 
L 45.40625 9.625 
Q 42.625 4.78125 38.28125 2.390625 
Q 33.9375 0 27.875 0 
Q 17.828125 0 11.671875 7.65625 
Q 5.515625 15.328125 5.515625 27.984375 
Q 5.515625 40.671875 11.671875 48.328125 
Q 17.828125 56 27.875 56 
Q 33.9375 56 38.28125 53.609375 
Q 42.625 51.21875 45.40625 46.390625 
L 45.40625 54.6875 
L 54.390625 54.6875 
z
" id="DejaVuSans-103"/>
       <path d="M 54.890625 33.015625 
L 54.890625 0 
L 45.90625 0 
L 45.90625 32.71875 
Q 45.90625 40.484375 42.875 44.328125 
Q 39.84375 48.1875 33.796875 48.1875 
Q 26.515625 48.1875 22.3125 43.546875 
Q 18.109375 38.921875 18.109375 30.90625 
L 18.109375 0 
L 9.078125 0 
L 9.078125 75.984375 
L 18.109375 75.984375 
L 18.109375 46.1875 
Q 21.34375 51.125 25.703125 53.5625 
Q 30.078125 56 35.796875 56 
Q 45.21875 56 50.046875 50.171875 
Q 54.890625 44.34375 54.890625 33.015625 
z
" id="DejaVuSans-104"/>
      </defs>
      <use xlink:href="#DejaVuSans-86"/>
      <use x="60.658203" xlink:href="#DejaVuSans-101"/>
      <use x="122.181641" xlink:href="#DejaVuSans-99"/>
      <use x="177.162109" xlink:href="#DejaVuSans-116"/>
      <use x="216.371094" xlink:href="#DejaVuSans-111"/>
      <use x="277.552734" xlink:href="#DejaVuSans-114"/>
      <use x="318.666016" xlink:href="#DejaVuSans-32"/>
      <use x="350.453125" xlink:href="#DejaVuSans-108"/>
      <use x="378.236328" xlink:href="#DejaVuSans-101"/>
      <use x="439.759766" xlink:href="#DejaVuSans-110"/>
      <use x="503.138672" xlink:href="#DejaVuSans-103"/>
      <use x="566.615234" xlink:href="#DejaVuSans-116"/>
      <use x="605.824219" xlink:href="#DejaVuSans-104"/>
     </g>
    </g>
   </g>
   <g id="matplotlib.axis_2">
    <g id="ytick_1">
     <g id="line2d_9">
      <defs>
       <path d="M 0 0 
L -3.5 0 
" id="mc01144001c" style="stroke:#000000;stroke-width:0.8;"/>
      </defs>
      <g>
       <use style="stroke:#000000;stroke-width:0.8;" x="216" xlink:href="#mc01144001c" y="738.801157"/>
      </g>
     </g>
     <g id="text_10">
      <!-- 0 -->
      <g transform="translate(202.6375 742.600375)scale(0.1 -0.1)">
       <use xlink:href="#DejaVuSans-48"/>
      </g>
     </g>
    </g>
    <g id="ytick_2">
     <g id="line2d_10">
      <g>
       <use style="stroke:#000000;stroke-width:0.8;" x="216" xlink:href="#mc01144001c" y="653.702191"/>
      </g>
     </g>
     <g id="text_11">
      <!-- 1 -->
      <g transform="translate(202.6375 657.50141)scale(0.1 -0.1)">
       <use xlink:href="#DejaVuSans-49"/>
      </g>
     </g>
    </g>
    <g id="ytick_3">
     <g id="line2d_11">
      <g>
       <use style="stroke:#000000;stroke-width:0.8;" x="216" xlink:href="#mc01144001c" y="568.603226"/>
      </g>
     </g>
     <g id="text_12">
      <!-- 2 -->
      <g transform="translate(202.6375 572.402445)scale(0.1 -0.1)">
       <use xlink:href="#DejaVuSans-50"/>
      </g>
     </g>
    </g>
    <g id="ytick_4">
     <g id="line2d_12">
      <g>
       <use style="stroke:#000000;stroke-width:0.8;" x="216" xlink:href="#mc01144001c" y="483.504261"/>
      </g>
     </g>
     <g id="text_13">
      <!-- 3 -->
      <g transform="translate(202.6375 487.303479)scale(0.1 -0.1)">
       <defs>
        <path d="M 40.578125 39.3125 
Q 47.65625 37.796875 51.625 33 
Q 55.609375 28.21875 55.609375 21.1875 
Q 55.609375 10.40625 48.1875 4.484375 
Q 40.765625 -1.421875 27.09375 -1.421875 
Q 22.515625 -1.421875 17.65625 -0.515625 
Q 12.796875 0.390625 7.625 2.203125 
L 7.625 11.71875 
Q 11.71875 9.328125 16.59375 8.109375 
Q 21.484375 6.890625 26.8125 6.890625 
Q 36.078125 6.890625 40.9375 10.546875 
Q 45.796875 14.203125 45.796875 21.1875 
Q 45.796875 27.640625 41.28125 31.265625 
Q 36.765625 34.90625 28.71875 34.90625 
L 20.21875 34.90625 
L 20.21875 43.015625 
L 29.109375 43.015625 
Q 36.375 43.015625 40.234375 45.921875 
Q 44.09375 48.828125 44.09375 54.296875 
Q 44.09375 59.90625 40.109375 62.90625 
Q 36.140625 65.921875 28.71875 65.921875 
Q 24.65625 65.921875 20.015625 65.03125 
Q 15.375 64.15625 9.8125 62.3125 
L 9.8125 71.09375 
Q 15.4375 72.65625 20.34375 73.4375 
Q 25.25 74.21875 29.59375 74.21875 
Q 40.828125 74.21875 47.359375 69.109375 
Q 53.90625 64.015625 53.90625 55.328125 
Q 53.90625 49.265625 50.4375 45.09375 
Q 46.96875 40.921875 40.578125 39.3125 
z
" id="DejaVuSans-51"/>
       </defs>
       <use xlink:href="#DejaVuSans-51"/>
      </g>
     </g>
    </g>
    <g id="ytick_5">
     <g id="line2d_13">
      <g>
       <use style="stroke:#000000;stroke-width:0.8;" x="216" xlink:href="#mc01144001c" y="398.405295"/>
      </g>
     </g>
     <g id="text_14">
      <!-- 4 -->
      <g transform="translate(202.6375 402.204514)scale(0.1 -0.1)">
       <defs>
        <path d="M 37.796875 64.3125 
L 12.890625 25.390625 
L 37.796875 25.390625 
z
M 35.203125 72.90625 
L 47.609375 72.90625 
L 47.609375 25.390625 
L 58.015625 25.390625 
L 58.015625 17.1875 
L 47.609375 17.1875 
L 47.609375 0 
L 37.796875 0 
L 37.796875 17.1875 
L 4.890625 17.1875 
L 4.890625 26.703125 
z
" id="DejaVuSans-52"/>
       </defs>
       <use xlink:href="#DejaVuSans-52"/>
      </g>
     </g>
    </g>
    <g id="ytick_6">
     <g id="line2d_14">
      <g>
       <use style="stroke:#000000;stroke-width:0.8;" x="216" xlink:href="#mc01144001c" y="313.30633"/>
      </g>
     </g>
     <g id="text_15">
      <!-- 5 -->
      <g transform="translate(202.6375 317.105549)scale(0.1 -0.1)">
       <use xlink:href="#DejaVuSans-53"/>
      </g>
     </g>
    </g>
    <g id="ytick_7">
     <g id="line2d_15">
      <g>
       <use style="stroke:#000000;stroke-width:0.8;" x="216" xlink:href="#mc01144001c" y="228.207364"/>
      </g>
     </g>
     <g id="text_16">
      <!-- 6 -->
      <g transform="translate(202.6375 232.006583)scale(0.1 -0.1)">
       <defs>
        <path d="M 33.015625 40.375 
Q 26.375 40.375 22.484375 35.828125 
Q 18.609375 31.296875 18.609375 23.390625 
Q 18.609375 15.53125 22.484375 10.953125 
Q 26.375 6.390625 33.015625 6.390625 
Q 39.65625 6.390625 43.53125 10.953125 
Q 47.40625 15.53125 47.40625 23.390625 
Q 47.40625 31.296875 43.53125 35.828125 
Q 39.65625 40.375 33.015625 40.375 
z
M 52.59375 71.296875 
L 52.59375 62.3125 
Q 48.875 64.0625 45.09375 64.984375 
Q 41.3125 65.921875 37.59375 65.921875 
Q 27.828125 65.921875 22.671875 59.328125 
Q 17.53125 52.734375 16.796875 39.40625 
Q 19.671875 43.65625 24.015625 45.921875 
Q 28.375 48.1875 33.59375 48.1875 
Q 44.578125 48.1875 50.953125 41.515625 
Q 57.328125 34.859375 57.328125 23.390625 
Q 57.328125 12.15625 50.6875 5.359375 
Q 44.046875 -1.421875 33.015625 -1.421875 
Q 20.359375 -1.421875 13.671875 8.265625 
Q 6.984375 17.96875 6.984375 36.375 
Q 6.984375 53.65625 15.1875 63.9375 
Q 23.390625 74.21875 37.203125 74.21875 
Q 40.921875 74.21875 44.703125 73.484375 
Q 48.484375 72.75 52.59375 71.296875 
z
" id="DejaVuSans-54"/>
       </defs>
       <use xlink:href="#DejaVuSans-54"/>
      </g>
     </g>
    </g>
    <g id="ytick_8">
     <g id="line2d_16">
      <g>
       <use style="stroke:#000000;stroke-width:0.8;" x="216" xlink:href="#mc01144001c" y="143.108399"/>
      </g>
     </g>
     <g id="text_17">
      <!-- 7 -->
      <g transform="translate(202.6375 146.907618)scale(0.1 -0.1)">
       <use xlink:href="#DejaVuSans-55"/>
      </g>
     </g>
    </g>
    <g id="text_18">
     <!-- Time, ms -->
     <g transform="translate(196.557812 459.206719)rotate(-90)scale(0.1 -0.1)">
      <defs>
       <path d="M -0.296875 72.90625 
L 61.375 72.90625 
L 61.375 64.59375 
L 35.5 64.59375 
L 35.5 0 
L 25.59375 0 
L 25.59375 64.59375 
L -0.296875 64.59375 
z
" id="DejaVuSans-84"/>
       <path d="M 9.421875 54.6875 
L 18.40625 54.6875 
L 18.40625 0 
L 9.421875 0 
z
M 9.421875 75.984375 
L 18.40625 75.984375 
L 18.40625 64.59375 
L 9.421875 64.59375 
z
" id="DejaVuSans-105"/>
       <path d="M 52 44.1875 
Q 55.375 50.25 60.0625 53.125 
Q 64.75 56 71.09375 56 
Q 79.640625 56 84.28125 50.015625 
Q 88.921875 44.046875 88.921875 33.015625 
L 88.921875 0 
L 79.890625 0 
L 79.890625 32.71875 
Q 79.890625 40.578125 77.09375 44.375 
Q 74.3125 48.1875 68.609375 48.1875 
Q 61.625 48.1875 57.5625 43.546875 
Q 53.515625 38.921875 53.515625 30.90625 
L 53.515625 0 
L 44.484375 0 
L 44.484375 32.71875 
Q 44.484375 40.625 41.703125 44.40625 
Q 38.921875 48.1875 33.109375 48.1875 
Q 26.21875 48.1875 22.15625 43.53125 
Q 18.109375 38.875 18.109375 30.90625 
L 18.109375 0 
L 9.078125 0 
L 9.078125 54.6875 
L 18.109375 54.6875 
L 18.109375 46.1875 
Q 21.1875 51.21875 25.484375 53.609375 
Q 29.78125 56 35.6875 56 
Q 41.65625 56 45.828125 52.96875 
Q 50 49.953125 52 44.1875 
z
" id="DejaVuSans-109"/>
       <path d="M 11.71875 12.40625 
L 22.015625 12.40625 
L 22.015625 4 
L 14.015625 -11.625 
L 7.71875 -11.625 
L 11.71875 4 
z
" id="DejaVuSans-44"/>
       <path d="M 44.28125 53.078125 
L 44.28125 44.578125 
Q 40.484375 46.53125 36.375 47.5 
Q 32.28125 48.484375 27.875 48.484375 
Q 21.1875 48.484375 17.84375 46.4375 
Q 14.5 44.390625 14.5 40.28125 
Q 14.5 37.15625 16.890625 35.375 
Q 19.28125 33.59375 26.515625 31.984375 
L 29.59375 31.296875 
Q 39.15625 29.25 43.1875 25.515625 
Q 47.21875 21.78125 47.21875 15.09375 
Q 47.21875 7.46875 41.1875 3.015625 
Q 35.15625 -1.421875 24.609375 -1.421875 
Q 20.21875 -1.421875 15.453125 -0.5625 
Q 10.6875 0.296875 5.421875 2 
L 5.421875 11.28125 
Q 10.40625 8.6875 15.234375 7.390625 
Q 20.0625 6.109375 24.8125 6.109375 
Q 31.15625 6.109375 34.5625 8.28125 
Q 37.984375 10.453125 37.984375 14.40625 
Q 37.984375 18.0625 35.515625 20.015625 
Q 33.0625 21.96875 24.703125 23.78125 
L 21.578125 24.515625 
Q 13.234375 26.265625 9.515625 29.90625 
Q 5.8125 33.546875 5.8125 39.890625 
Q 5.8125 47.609375 11.28125 51.796875 
Q 16.75 56 26.8125 56 
Q 31.78125 56 36.171875 55.265625 
Q 40.578125 54.546875 44.28125 53.078125 
z
" id="DejaVuSans-115"/>
      </defs>
      <use xlink:href="#DejaVuSans-84"/>
      <use x="57.958984" xlink:href="#DejaVuSans-105"/>
      <use x="85.742188" xlink:href="#DejaVuSans-109"/>
      <use x="183.154297" xlink:href="#DejaVuSans-101"/>
      <use x="244.677734" xlink:href="#DejaVuSans-44"/>
      <use x="276.464844" xlink:href="#DejaVuSans-32"/>
      <use x="308.251953" xlink:href="#DejaVuSans-109"/>
      <use x="405.664062" xlink:href="#DejaVuSans-115"/>
     </g>
    </g>
   </g>
   <g id="line2d_17">
    <path clip-path="url(#pd5fabf7f39)" d="M 276.872727 738.72 
L 277.51383 738.618554 
L 278.154933 738.699711 
L 279.437139 738.618554 
L 280.719345 738.618554 
L 283.283757 738.47653 
L 284.565963 738.456241 
L 285.207066 738.273638 
L 289.053684 738.212771 
L 289.694787 738.050457 
L 293.541405 737.867855 
L 295.464713 737.72583 
L 309.568979 736.833107 
L 310.210082 736.670793 
L 312.133391 736.609926 
L 312.774494 736.488191 
L 314.0567 736.488191 
L 315.980009 736.346167 
L 319.185523 736.163564 
L 319.826626 736.001251 
L 323.673244 735.818648 
L 325.596553 735.554889 
L 326.237656 735.656335 
L 328.802068 735.331708 
L 332.648686 735.149105 
L 334.571995 734.905635 
L 337.77751 734.702743 
L 339.059716 734.54043 
L 341.624128 734.479563 
L 342.265231 734.378117 
L 342.906333 734.398406 
L 343.547436 734.276671 
L 344.829642 734.215803 
L 346.752951 734.012912 
L 351.240672 733.627417 
L 352.522878 733.607128 
L 353.805084 733.424525 
L 354.446187 733.444815 
L 355.728393 733.282501 
L 357.010599 733.262212 
L 358.292805 733.018742 
L 359.575011 732.957874 
L 362.780526 732.937585 
L 363.421629 732.673826 
L 365.98604 732.592669 
L 366.627143 732.491223 
L 367.909349 732.430356 
L 368.550452 732.32891 
L 369.191555 716.929427 
L 369.832658 731.639078 
L 370.473761 731.923127 
L 372.39707 731.923127 
L 373.038173 725.410302 
L 373.679276 731.639078 
L 374.320379 731.294162 
L 374.961482 731.659367 
L 379.449203 731.557921 
L 380.731409 731.497054 
L 382.013615 731.557921 
L 382.654718 731.578211 
L 383.295821 731.476765 
L 383.936924 731.578211 
L 384.578027 731.476765 
L 385.21913 731.497054 
L 386.501336 731.314451 
L 387.783542 731.213005 
L 394.835674 730.726065 
L 395.476777 730.543463 
L 396.758983 730.543463 
L 397.400086 730.279703 
L 398.041189 730.381149 
L 399.323395 730.218836 
L 401.246704 730.11739 
L 402.52891 729.955077 
L 403.811116 729.955077 
L 405.093322 729.792763 
L 408.298837 729.610161 
L 408.93994 729.427558 
L 410.863249 729.366691 
L 412.145455 729.102931 
L 413.42766 729.204377 
L 414.068763 729.021775 
L 414.709866 729.123221 
L 416.633175 728.839172 
L 417.274278 728.859461 
L 417.915381 728.676859 
L 418.556484 728.676859 
L 419.197587 728.839172 
L 421.120896 728.676859 
L 422.403102 728.595702 
L 423.685308 728.494256 
L 424.326411 728.494256 
L 424.967514 724.416132 
L 425.608617 728.068183 
L 426.24972 727.90587 
L 428.173029 727.824713 
L 429.455235 727.6624 
L 430.737441 727.6624 
L 431.378544 727.236327 
L 432.019647 727.479797 
L 432.66075 727.317484 
L 433.301853 725.958109 
L 433.942956 720.926394 
L 434.584059 726.891411 
L 435.225162 727.155171 
L 435.866265 727.155171 
L 436.507368 725.613193 
L 437.14847 726.810255 
L 437.789573 725.511747 
L 438.430676 726.810255 
L 439.071779 726.810255 
L 440.353985 726.303025 
L 440.995088 726.384182 
L 441.636191 726.303025 
L 442.277294 717.943885 
L 442.918397 726.018977 
L 443.5595 726.303025 
L 444.200603 726.282736 
L 444.841706 726.120423 
L 445.482809 726.221869 
L 446.123912 726.039266 
L 446.765015 724.395843 
L 447.406118 725.69435 
L 448.047221 725.349434 
L 449.329427 725.633483 
L 449.97053 725.45088 
L 450.611633 725.410302 
L 451.252736 725.613193 
L 451.893839 725.532037 
L 452.534942 724.091505 
L 453.176045 724.923361 
L 453.817148 725.105964 
L 454.458251 724.761048 
L 455.099354 724.923361 
L 456.38156 724.842205 
L 457.022663 724.517578 
L 457.663766 724.334975 
L 458.304869 724.598735 
L 458.945972 721.51478 
L 459.587075 724.416132 
L 461.510383 724.334975 
L 462.151486 722.874155 
L 462.792589 723.746589 
L 463.433692 722.630685 
L 464.074795 723.929192 
L 465.357001 723.665433 
L 466.639207 723.7263 
L 467.28031 716.665667 
L 467.921413 722.975601 
L 468.562516 723.746589 
L 469.203619 723.7263 
L 469.844722 707.657274 
L 471.126928 719.749622 
L 471.768031 714.474437 
L 472.409134 719.161236 
L 473.050237 721.697383 
L 473.69134 719.323549 
L 474.332443 714.961377 
L 474.973546 721.352467 
L 475.614649 713.520845 
L 476.255752 710.294867 
L 476.896855 712.100603 
L 477.537958 718.57285 
L 478.179061 707.413804 
L 478.820164 711.329615 
L 479.461267 720.338008 
L 480.10237 716.158438 
L 480.743473 717.964175 
L 481.384576 716.6048 
L 482.025679 719.911935 
L 482.666782 720.764081 
L 483.307885 720.682924 
L 483.948988 720.338008 
L 484.59009 720.439454 
L 485.872296 720.419165 
L 486.513399 719.911935 
L 487.154502 720.236562 
L 487.795605 720.764081 
L 488.436708 720.764081 
L 489.077811 720.236562 
L 489.718914 714.210677 
L 490.360017 720.398876 
L 491.00112 702.564691 
L 491.642223 719.972803 
L 492.283326 720.155405 
L 493.565532 716.746824 
L 494.206635 719.485863 
L 494.847738 717.193186 
L 495.488841 719.05979 
L 496.129944 718.897477 
L 496.771047 718.309091 
L 497.41215 718.451115 
L 498.053253 718.796031 
L 498.694356 718.471404 
L 499.335459 718.613428 
L 500.617665 718.552561 
L 501.258768 718.126488 
L 501.899871 718.714874 
L 505.746489 718.207645 
L 506.387592 717.294632 
L 507.028695 718.714874 
L 507.669798 718.451115 
L 508.3109 712.42523 
L 508.952003 714.900509 
L 509.593106 718.836609 
L 510.234209 718.613428 
L 510.875312 719.140947 
L 511.516415 718.126488 
L 512.157518 719.30326 
L 513.439724 719.222103 
L 514.080827 718.714874 
L 514.72193 719.05979 
L 515.363033 718.897477 
L 516.004136 718.978633 
L 517.927445 718.796031 
L 518.568548 710.984699 
L 519.209651 718.532271 
L 519.850754 716.84827 
L 520.491857 718.471404 
L 521.13296 718.471404 
L 522.415166 718.207645 
L 523.056269 718.288801 
L 523.697372 718.045331 
L 524.338475 718.106199 
L 524.979578 717.943885 
L 526.261784 717.862729 
L 528.185093 717.619259 
L 528.826196 717.294632 
L 529.467299 717.436656 
L 530.108402 717.436656 
L 530.749505 717.254053 
L 531.390607 717.274343 
L 532.672813 717.112029 
L 533.313916 716.84827 
L 533.955019 716.929427 
L 534.596122 711.410771 
L 535.237225 717.274343 
L 535.878328 715.387449 
L 536.519431 717.193186 
L 537.160534 700.941557 
L 537.801637 714.63675 
L 538.44274 716.6048 
L 539.083843 703.57915 
L 539.724946 716.767113 
L 540.366049 716.665667 
L 541.007152 716.178727 
L 541.648255 716.6048 
L 542.289358 716.422197 
L 542.930461 715.996125 
L 544.212667 715.732365 
L 544.85377 715.63092 
L 545.494873 715.671498 
L 546.135976 712.851303 
L 546.777079 715.407739 
L 547.418182 702.645848 
L 548.059285 715.306293 
L 548.700388 715.306293 
L 549.341491 714.048364 
L 549.982594 709.605035 
L 550.623697 714.88022 
L 551.2648 714.981666 
L 553.188109 714.717907 
L 553.829212 714.697617 
L 554.470315 714.515015 
L 555.111417 714.454147 
L 555.75252 711.633952 
L 556.393623 714.372991 
L 560.240241 713.967207 
L 560.881344 713.602002 
L 561.522447 713.683159 
L 565.369065 713.175929 
L 566.010168 712.729568 
L 566.651271 713.094773 
L 567.933477 712.932459 
L 568.57458 712.262917 
L 569.215683 705.181995 
L 569.856786 713.277375 
L 570.497889 705.202284 
L 571.138992 711.491928 
L 571.780095 713.013616 
L 572.421198 712.91217 
L 573.062301 712.932459 
L 573.703404 706.703683 
L 574.344507 712.770146 
L 574.98561 706.723972 
L 575.626713 712.404941 
L 576.267816 710.781807 
L 576.908919 711.755687 
L 578.191125 711.654241 
L 582.678845 711.045566 
L 583.319948 695.666372 
L 583.961051 710.720939 
L 584.602154 710.883253 
L 585.243257 710.70065 
L 585.88436 710.639783 
L 586.525463 710.45718 
L 587.807669 710.376023 
L 589.089875 710.315156 
L 589.730978 709.868794 
L 590.372081 710.21371 
L 592.29539 709.625324 
L 592.936493 709.523878 
L 593.577596 709.625324 
L 594.218699 709.422432 
L 594.859802 709.442721 
L 595.500905 709.341275 
L 596.142008 709.016649 
L 597.424214 709.178962 
L 598.065317 709.016649 
L 598.70642 709.016649 
L 599.347523 709.605035 
L 600.629729 709.381854 
L 601.270832 709.260119 
L 601.911935 706.216743 
L 602.553037 701.286473 
L 603.19414 708.935492 
L 603.835243 706.257321 
L 604.476346 705.709513 
L 605.117449 708.671733 
L 605.758552 708.610865 
L 606.399655 705.181995 
L 607.040758 697.370663 
L 608.322964 708.428263 
L 610.887376 708.00219 
L 611.528479 695.483769 
L 612.810685 706.967442 
L 613.451788 707.048599 
L 614.092891 696.072155 
L 614.733994 692.927333 
L 616.0162 700.089412 
L 616.657303 703.132788 
L 617.298406 703.051631 
L 617.939509 703.234234 
L 619.221715 703.132788 
L 619.862818 703.051631 
L 620.503921 702.82845 
L 621.145024 704.329849 
L 621.786127 704.431295 
L 622.42723 704.005223 
L 623.068333 702.118329 
L 623.709436 703.741463 
L 624.350539 700.941557 
L 624.991642 703.82262 
L 626.91495 703.57915 
L 627.556053 703.173366 
L 628.197156 695.909842 
L 628.838259 698.283675 
L 629.479362 698.628591 
L 630.120465 686.475376 
L 630.761568 688.504293 
L 631.402671 693.536009 
L 632.043774 702.727005 
L 632.684877 702.625559 
L 633.32598 702.361799 
L 633.967083 702.564691 
L 635.890392 701.956016 
L 636.531495 691.588248 
L 637.172598 698.547435 
L 637.813701 699.237267 
L 638.454804 701.773413 
L 639.095907 701.509654 
L 639.73701 701.36763 
L 640.378113 687.286943 
L 641.019216 701.185027 
L 641.660319 701.347341 
L 642.301422 701.185027 
L 642.942525 701.286473 
L 644.224731 701.002425 
L 645.506937 700.758955 
L 646.14804 688.686896 
L 646.789143 700.251725 
L 647.430246 700.332882 
L 648.071349 684.791374 
L 648.712452 695.402613 
L 649.353555 693.941792 
L 649.994657 691.486802 
L 650.63576 699.967677 
L 651.276863 691.060729 
L 651.917966 699.744496 
L 652.559069 699.480737 
L 653.200172 699.338712 
L 653.841275 699.501026 
L 654.482378 699.501026 
L 655.123481 699.298134 
L 655.764584 699.237267 
L 656.405687 695.646083 
L 657.04679 699.074953 
L 657.687893 697.796735 
L 658.328996 698.709748 
L 658.970099 698.730037 
L 659.611202 700.312593 
L 660.252305 699.034375 
L 660.893408 695.848974 
L 661.534511 699.724207 
L 662.175614 699.88652 
L 663.45782 699.724207 
L 664.098923 699.338712 
L 664.740026 699.663339 
L 665.381129 699.501026 
L 666.022232 699.216977 
L 667.304438 699.39958 
L 669.86885 698.709748 
L 670.509953 692.927333 
L 671.151056 698.709748 
L 674.997673 698.202519 
L 675.638776 694.97654 
L 676.279879 697.532976 
L 676.920982 698.040205 
L 677.562085 691.04044 
L 678.203188 698.486567 
L 678.844291 698.364832 
L 679.485394 697.634422 
L 680.126497 698.040205 
L 680.7676 698.121362 
L 681.408703 697.776446 
L 682.049806 696.072155 
L 682.690909 697.005457 
L 683.332012 696.741698 
L 683.973115 696.761987 
L 687.17863 696.173601 
L 687.819733 687.388389 
L 688.460836 696.924301 
L 689.101939 696.843144 
L 689.743042 685.704387 
L 690.384145 696.417071 
L 691.025248 696.579385 
L 691.666351 696.437361 
L 692.307454 696.133023 
L 692.948557 694.73307 
L 693.58966 695.22001 
L 694.230763 695.138853 
L 695.512969 688.930366 
L 696.154072 694.793937 
L 697.436277 694.388154 
L 698.07738 694.469311 
L 699.359586 694.306997 
L 700.000689 691.324489 
L 700.641792 693.191093 
L 701.282895 686.718846 
L 701.923998 674.038112 
L 702.565101 693.028779 
L 703.847307 692.927333 
L 704.48841 691.507091 
L 705.129513 692.257791 
L 705.770616 692.683863 
L 706.411719 692.501261 
L 707.052822 692.52155 
L 707.693925 691.994031 
L 708.335028 687.834751 
L 708.976131 691.567959 
L 709.617234 691.750561 
L 710.258337 691.060729 
L 710.89944 691.507091 
L 711.540543 691.405645 
L 712.181646 691.04044 
L 712.822749 691.162175 
L 714.104955 690.878127 
L 716.669367 690.452054 
L 717.31047 689.457885 
L 717.951573 690.127427 
L 718.592676 691.162175 
L 719.233779 691.243332 
L 719.874882 689.112969 
L 720.515984 680.855275 
L 721.157087 689.518752 
L 721.79819 689.539041 
L 722.439293 686.637689 
L 723.080396 688.078221 
L 723.721499 687.307232 
L 724.362602 687.915907 
L 725.003705 685.014555 
L 725.644808 687.652148 
L 726.927014 687.469545 
L 727.568117 683.229108 
L 728.20922 687.063762 
L 728.850323 686.982605 
L 729.491426 685.034845 
L 730.132529 686.455087 
L 730.773632 686.800003 
L 731.414735 684.263856 
L 732.055838 686.37393 
L 732.696941 685.623231 
L 733.338044 685.866701 
L 733.979147 684.345013 
L 734.62025 685.684098 
L 735.261353 682.640722 
L 735.902456 684.852242 
L 736.543559 685.542074 
L 737.184662 683.472578 
L 737.825765 683.127662 
L 738.466868 682.965349 
L 739.107971 683.574024 
L 739.749074 672.597581 
L 740.390177 683.391421 
L 741.03128 644.497074 
L 741.672383 626.703468 
L 742.313486 650.908453 
L 742.954589 648.088258 
L 744.236794 662.29068 
L 744.877897 681.788577 
L 745.519 682.113203 
L 746.160103 681.626263 
L 746.801206 672.414978 
L 747.442309 681.70742 
L 748.083412 680.348045 
L 748.724515 665.942731 
L 749.365618 673.267123 
L 750.006721 677.852477 
L 750.647824 681.119034 
L 751.288927 681.098745 
L 751.93003 680.266889 
L 752.571133 680.834985 
L 753.212236 680.916142 
L 753.853339 659.389328 
L 754.494442 680.266889 
L 755.135545 677.122066 
L 755.776648 670.386061 
L 756.417751 678.116236 
L 757.058854 676.006162 
L 757.699957 679.4959 
L 758.34106 679.475611 
L 758.982163 678.400284 
L 759.623266 659.145858 
L 761.546575 678.481441 
L 762.187678 672.577291 
L 762.828781 675.235173 
L 763.469884 678.7452 
L 764.110987 678.400284 
L 764.75209 675.31633 
L 765.393193 677.365537 
L 766.034296 668.235408 
L 766.675399 675.397487 
L 767.316502 669.594783 
L 767.957604 671.745435 
L 768.598707 676.756861 
L 769.23981 677.020621 
L 769.880913 676.838018 
L 770.522016 675.214884 
L 771.163119 674.200425 
L 771.804222 667.281817 
L 772.445325 674.971414 
L 773.086428 669.371602 
L 773.727531 669.432469 
L 774.368634 672.090351 
L 775.009737 676.168475 
L 775.65084 676.168475 
L 776.291943 659.83569 
L 776.933046 666.652852 
L 777.574149 671.928038 
L 778.215252 663.163114 
L 778.856355 673.774353 
L 779.497458 675.154017 
L 780.138561 651.740309 
L 780.779664 654.540215 
L 781.420767 650.725851 
L 782.06187 636.584296 
L 782.702973 670.710687 
L 783.344076 671.13676 
L 783.985179 668.519457 
L 784.626282 674.017823 
L 785.267385 649.183873 
L 785.908488 663.568898 
L 786.549591 670.467217 
L 787.190694 664.5022 
L 787.831797 673.125099 
L 788.4729 672.922207 
L 789.114003 671.400519 
L 789.755106 670.812133 
L 790.396209 661.438535 
L 791.037312 669.087553 
L 791.678414 665.881864 
L 792.319517 669.696229 
L 792.96062 672.171508 
L 793.601723 667.464419 
L 794.242826 665.942731 
L 794.883929 665.029719 
L 795.525032 671.664279 
L 796.166135 671.400519 
L 796.807238 671.319363 
L 797.448341 669.006397 
L 798.089444 664.948562 
L 798.730547 670.020855 
L 799.37165 670.812133 
L 800.012753 667.565865 
L 800.653856 666.652852 
L 801.294959 670.386061 
L 801.936062 670.40635 
L 803.218268 670.041145 
L 803.859371 654.032986 
L 804.500474 668.093384 
L 805.141577 669.188999 
L 805.78268 668.945529 
L 806.423783 669.432469 
L 807.064886 668.92524 
L 807.705989 669.128132 
L 808.347092 667.586155 
L 808.988195 662.04721 
L 809.629298 671.481676 
L 810.270401 668.600613 
L 810.911504 671.258495 
L 812.834813 670.954157 
L 813.475916 670.974447 
L 814.117019 669.107843 
L 814.758121 670.365771 
L 815.399224 670.122301 
L 816.040327 665.273189 
L 816.68143 671.217917 
L 817.963636 670.812133 
L 818.604739 670.629531 
L 819.245842 666.835455 
L 819.886945 665.618105 
L 820.528048 669.026686 
L 821.169151 668.580324 
L 821.810254 668.600613 
L 822.451357 668.255697 
L 823.09246 660.768992 
L 823.733563 669.696229 
L 824.374666 669.716518 
L 825.015769 669.432469 
L 825.656872 669.371602 
L 826.297975 669.107843 
L 826.939078 663.305139 
L 827.580181 667.910781 
L 828.221284 668.499167 
L 828.862387 664.157284 
L 829.50349 666.835455 
L 830.144593 658.577761 
L 830.785696 666.307937 
L 831.426799 659.59222 
L 832.067902 644.59852 
L 832.709005 602.82311 
L 833.350108 614.976325 
L 833.991211 661.519691 
L 834.632314 662.026921 
L 835.273417 661.864607 
L 835.91452 651.922912 
L 836.555623 658.11111 
L 837.196726 660.931305 
L 837.837829 660.505233 
L 838.478931 661.357378 
L 839.120034 660.768992 
L 839.761137 661.093619 
L 840.40224 662.128367 
L 841.043343 658.374869 
L 841.684446 663.832657 
L 842.325549 663.305139 
L 842.966652 663.812368 
L 843.607755 663.406585 
L 844.248858 655.230047 
L 844.889961 640.094323 
L 845.531064 664.684803 
L 846.172167 664.563068 
L 846.81327 652.856214 
L 847.454373 662.473283 
L 848.095476 639.140732 
L 849.377682 662.026921 
L 850.018785 657.279254 
L 851.300991 660.850149 
L 851.942094 661.621137 
L 852.583197 656.751735 
L 853.2243 661.438535 
L 853.865403 661.519691 
L 855.147609 661.276221 
L 855.788712 660.505233 
L 856.429815 660.728414 
L 857.070918 634.961162 
L 857.712021 655.737277 
L 858.353124 659.916847 
L 858.994227 651.496839 
L 859.63533 659.166147 
L 860.276433 659.409617 
L 860.917536 658.212556 
L 861.558639 660.505233 
L 862.199741 660.931305 
L 862.840844 660.870438 
L 863.481947 654.215589 
L 864.12305 639.830564 
L 864.764153 660.261763 
L 865.405256 659.653087 
L 866.046359 660.180606 
L 866.687462 658.963255 
L 867.328565 657.157519 
L 867.969668 658.029953 
L 868.610771 657.948797 
L 869.251874 650.98961 
L 869.892977 645.450665 
L 870.53408 657.015495 
L 871.175183 646.972353 
L 871.816286 658.719785 
L 872.457389 658.456026 
L 873.098492 656.082193 
L 873.739595 658.131399 
L 874.380698 658.192267 
L 875.021801 646.911486 
L 875.662904 658.029953 
L 876.304007 656.914049 
L 876.94511 657.543013 
L 877.586213 657.786483 
L 878.227316 648.595487 
L 878.868419 643.908688 
L 879.509522 656.427109 
L 880.150625 656.528554 
L 880.791728 654.783685 
L 881.432831 650.036019 
L 882.073934 654.479348 
L 882.715037 653.4446 
L 883.35614 650.725851 
L 884.638346 655.392361 
L 885.279449 640.337793 
L 885.920551 654.824264 
L 886.561654 649.02156 
L 887.202757 649.02156 
L 887.84386 654.966288 
L 888.484963 652.247539 
L 889.126066 623.071706 
L 889.767169 633.277161 
L 890.408272 651.983779 
L 891.049375 651.841755 
L 891.690478 649.427343 
L 892.331581 644.334761 
L 892.972684 651.334526 
L 893.613787 649.630235 
L 894.25489 650.908453 
L 894.895993 650.98961 
L 895.537096 646.201365 
L 896.178199 652.592455 
L 896.819302 645.856449 
L 897.460405 646.201365 
L 898.101508 651.23308 
L 898.742611 643.300013 
L 899.383714 651.659153 
L 900.024817 648.494041 
L 900.66592 641.839192 
L 901.307023 651.415683 
L 901.948126 651.253369 
L 902.589229 644.699966 
L 903.230332 649.873705 
L 903.871435 650.725851 
L 904.512538 644.618809 
L 905.153641 650.401224 
L 905.794744 641.616011 
L 906.435847 591.50175 
L 907.07695 627.657059 
L 907.718053 614.976325 
L 908.359156 628.833831 
L 909.000259 636.746609 
L 909.641361 631.410557 
L 910.282464 622.300717 
L 910.923567 632.364148 
L 911.56467 635.082897 
L 912.205773 630.659857 
L 912.846876 615.767603 
L 913.487979 627.758505 
L 914.129082 632.851088 
L 915.411288 636.503139 
L 916.693494 636.929212 
L 917.9757 638.633503 
L 918.616803 637.192971 
L 919.257906 644.760833 
L 919.899009 643.665218 
L 920.540112 629.280193 
L 921.181215 639.323335 
L 921.822318 638.308876 
L 922.463421 639.404491 
L 923.104524 639.242178 
L 923.745627 639.221889 
L 924.38673 624.958599 
L 925.027833 617.208134 
L 925.668936 636.949501 
L 926.310039 638.045117 
L 927.592245 637.72049 
L 928.874451 624.086165 
L 929.515554 636.604585 
L 930.156657 597.629081 
L 930.79776 605.541859 
L 931.438863 629.888868 
L 932.079966 631.735183 
L 932.721069 636.077067 
L 933.362171 636.016199 
L 934.003274 624.573105 
L 934.644377 639.242178 
L 935.28548 639.647961 
L 935.926583 634.291619 
L 936.567686 631.491713 
L 937.208789 639.079864 
L 937.849892 638.369743 
L 938.490995 616.518303 
L 939.132098 627.291854 
L 940.414304 634.149595 
L 941.055407 633.723522 
L 941.69651 625.810744 
L 942.337613 632.587329 
L 942.978716 633.358317 
L 943.619819 633.622077 
L 944.260922 632.607618 
L 944.902025 634.311908 
L 945.543128 631.410557 
L 946.184231 634.372776 
L 946.825334 627.819373 
L 947.466437 630.030893 
L 948.10754 636.746609 
L 948.748643 635.833597 
L 949.389746 636.604585 
L 950.030849 629.097591 
L 950.671952 632.201834 
L 951.313055 633.885836 
L 951.954158 633.358317 
L 952.595261 633.175715 
L 953.236364 629.888868 
L 953.877467 632.688775 
L 954.51857 629.787423 
L 955.159673 631.57287 
L 955.800776 622.381874 
L 956.441879 635.671283 
L 957.082981 631.57287 
L 957.724084 629.442507 
L 958.365187 607.408463 
L 959.00629 632.425015 
L 959.647393 633.277161 
L 960.288496 626.987517 
L 960.929599 632.080099 
L 961.570702 629.462796 
L 962.211805 629.199037 
L 962.852908 628.083132 
L 963.494011 623.497779 
L 964.135114 630.132339 
L 964.776217 631.654027 
L 965.41732 631.410557 
L 966.058423 630.294652 
L 966.699526 625.952769 
L 967.340629 630.233784 
L 967.981732 624.268767 
L 968.622835 625.587563 
L 969.263938 630.477255 
L 969.905041 623.578935 
L 970.546144 628.854121 
L 971.187247 629.868579 
L 971.82835 631.836629 
L 972.469453 630.456965 
L 973.110556 623.497779 
L 973.751659 628.935277 
L 974.392762 626.378841 
L 975.033865 626.135371 
L 975.674968 623.94414 
L 976.316071 617.938545 
L 976.957174 625.790455 
L 977.598277 625.364383 
L 978.23938 618.405196 
L 978.880483 625.039756 
L 979.521586 621.184813 
L 980.162688 623.578935 
L 980.803791 621.286259 
L 981.444894 624.086165 
L 982.085997 619.237052 
L 982.7271 608.280898 
L 983.368203 622.645633 
L 984.650409 616.57917 
L 985.291512 619.419654 
L 985.932615 621.448572 
L 986.573718 620.170354 
L 987.214821 613.170589 
L 987.855924 616.680616 
L 988.497027 625.891901 
L 989.13813 609.295356 
L 989.779233 616.09223 
L 990.420336 520.185302 
L 991.061439 566.059126 
L 991.702542 600.773903 
L 992.343645 587.504783 
L 992.984748 606.394004 
L 993.625851 617.187845 
L 994.266954 613.37348 
L 994.908057 607.388174 
L 995.54916 616.883508 
L 996.190263 615.503844 
L 996.831366 616.437146 
L 997.472469 615.422687 
L 998.113572 621.468861 
L 998.754675 618.993582 
L 999.395778 620.941343 
L 1000.036881 621.286259 
L 1000.677984 614.550253 
L 1001.319087 617.025532 
L 1001.96019 605.014341 
L 1002.601293 619.744281 
L 1003.242396 622.909392 
L 1003.883498 610.472129 
L 1004.524601 621.874645 
L 1005.165704 620.596427 
L 1005.806807 621.97609 
L 1006.44791 615.138639 
L 1007.089013 617.431315 
L 1007.730116 621.610885 
L 1008.371219 620.434113 
L 1009.012322 619.744281 
L 1009.653425 619.581968 
L 1010.294528 619.581968 
L 1010.935631 617.269002 
L 1011.576734 619.074739 
L 1012.217837 616.782062 
L 1012.85894 598.562383 
L 1013.500043 618.466063 
L 1014.141146 619.399365 
L 1014.782249 610.127213 
L 1015.423352 615.402398 
L 1016.064455 616.437146 
L 1016.705558 596.533466 
L 1017.346661 609.883742 
L 1017.987764 609.011308 
L 1018.628867 609.863453 
L 1019.26997 580.018078 
L 1019.911073 583.244056 
L 1020.552176 615.138639 
L 1021.193279 614.12418 
L 1021.834382 614.732855 
L 1022.475485 610.67502 
L 1023.116588 603.573809 
L 1023.757691 613.799553 
L 1024.398794 612.703938 
L 1025.039897 613.454637 
L 1025.681 612.15613 
L 1026.322103 607.73309 
L 1026.963206 609.883742 
L 1027.604308 608.341765 
L 1028.245411 609.70114 
L 1028.886514 605.2781 
L 1029.527617 606.150534 
L 1030.16872 608.179452 
L 1030.809823 606.657764 
L 1031.450926 608.341765 
L 1032.092029 604.425955 
L 1032.733132 608.017138 
L 1033.374235 600.36812 
L 1034.015338 605.095497 
L 1034.656441 593.368355 
L 1035.297544 606.292559 
L 1035.938647 594.037897 
L 1036.57975 606.069378 
L 1037.220853 602.133278 
L 1037.861956 602.498483 
L 1038.503059 465.384242 
L 1039.144162 556.786973 
L 1039.785265 602.194145 
L 1040.426368 603.06658 
L 1041.067471 601.605759 
L 1041.708574 584.522274 
L 1042.349677 594.382813 
L 1042.99078 607.814247 
L 1043.631883 606.901234 
L 1044.272986 603.005712 
L 1044.914089 603.939014 
L 1045.555192 587.159867 
L 1046.196295 601.768073 
L 1046.837398 603.086869 
L 1047.478501 576.244291 
L 1048.119604 605.115787 
L 1048.760707 605.460702 
L 1049.40181 603.492653 
L 1050.042913 602.640507 
L 1050.684016 604.344798 
L 1051.325118 600.327541 
L 1051.966221 597.547924 
L 1052.607324 601.524603 
L 1053.248427 600.185517 
L 1053.88953 597.263876 
L 1054.530633 601.199976 
L 1055.171736 598.40007 
L 1055.812839 597.547924 
L 1056.453942 599.069613 
L 1057.095045 596.67549 
L 1057.736148 587.34247 
L 1058.377251 584.928058 
L 1059.018354 598.40007 
L 1059.659457 592.962571 
L 1060.30056 591.035099 
L 1060.941663 590.913364 
L 1061.582766 595.661031 
L 1062.864972 539.764356 
L 1063.506075 545.201854 
L 1064.147178 559.485433 
L 1064.788281 587.565651 
L 1065.429384 589.614857 
L 1066.070487 592.840836 
L 1066.71159 591.156835 
L 1067.352693 592.272739 
L 1067.993796 592.678523 
L 1068.634899 591.400305 
L 1069.276002 598.907299 
L 1069.917105 586.145408 
L 1070.558208 598.055154 
L 1071.199311 597.203008 
L 1071.840414 597.89284 
L 1072.481517 590.588738 
L 1073.12262 597.547924 
L 1073.763723 550.375594 
L 1074.404826 582.65567 
L 1075.045928 596.43202 
L 1075.687031 597.040695 
L 1076.328134 595.823345 
L 1076.969237 595.559585 
L 1077.61034 586.125119 
L 1078.251443 583.40637 
L 1078.892546 587.241024 
L 1079.533649 595.316115 
L 1080.174752 587.667097 
L 1080.815855 594.727729 
L 1081.456958 580.95138 
L 1082.098061 594.301657 
L 1082.739164 589.655436 
L 1083.380267 587.930856 
L 1084.02137 592.516209 
L 1084.662473 593.287198 
L 1085.303576 572.937156 
L 1085.944679 589.980062 
L 1086.585782 576.710942 
L 1087.226885 591.907534 
L 1087.867988 590.669894 
L 1088.509091 581.539766 
L 1089.150194 589.29023 
L 1089.791297 582.554225 
L 1091.073503 590.304689 
L 1091.714606 586.206276 
L 1092.355709 585.699047 
L 1092.996812 586.896108 
L 1093.637915 584.603431 
L 1094.279018 585.455577 
L 1094.920121 578.557257 
L 1095.561224 584.928058 
L 1096.202327 581.377452 
L 1096.84343 584.197648 
L 1097.484533 579.652873 
L 1098.125636 584.420829 
L 1098.766738 559.241963 
L 1099.407841 522.559136 
L 1100.048944 583.933888 
L 1100.690047 534.387725 
L 1101.33115 578.638414 
L 1101.972253 572.024143 
L 1102.613356 574.824049 
L 1103.254459 540.677369 
L 1103.895562 576.000821 
L 1104.536665 574.884917 
L 1105.177768 582.046995 
L 1105.818871 578.313787 
L 1106.459974 580.849934 
L 1107.101077 563.238931 
L 1107.74218 514.301442 
L 1108.383283 513.104381 
L 1109.024386 516.188335 
L 1109.665489 556.097141 
L 1110.306592 564.862064 
L 1110.947695 569.285104 
L 1111.588798 571.902408 
L 1112.229901 572.876288 
L 1112.871004 569.467707 
L 1113.512107 580.768777 
L 1114.15321 569.690888 
L 1114.794313 577.786269 
L 1115.435416 576.77181 
L 1116.076519 577.867425 
L 1116.717622 576.426894 
L 1117.358725 560.520181 
L 1117.999828 572.957445 
L 1118.640931 576.26458 
L 1119.282034 552.952319 
L 1119.923137 573.870458 
L 1120.56424 565.896812 
L 1121.205343 578.050028 
L 1121.846445 574.722603 
L 1122.487548 532.379096 
L 1123.128651 565.876523 
L 1123.769754 567.154741 
L 1124.410857 570.908238 
L 1125.05196 569.183659 
L 1125.693063 573.789301 
L 1126.334166 575.676194 
L 1126.975269 572.916867 
L 1128.257475 558.57242 
L 1128.898578 572.247324 
L 1129.539681 575.006652 
L 1130.180784 572.186456 
L 1130.821887 575.168965 
L 1131.46299 574.05306 
L 1132.104093 577.461642 
L 1132.745196 567.154741 
L 1133.386299 565.267848 
L 1134.027402 561.554929 
L 1134.668505 577.968871 
L 1135.309608 573.626988 
L 1135.950711 567.661971 
L 1136.591814 549.442292 
L 1137.232917 570.035804 
L 1137.87402 425.231966 
L 1138.515123 570.38072 
L 1139.156226 546.906145 
L 1139.797329 571.253154 
L 1140.438432 522.904052 
L 1141.079535 557.618829 
L 1141.720638 553.966778 
L 1142.361741 545.039541 
L 1143.002844 558.917336 
L 1143.643947 558.917336 
L 1144.28505 560.702784 
L 1144.926153 561.879556 
L 1145.567255 509.127702 
L 1146.208358 565.592475 
L 1146.849461 565.734499 
L 1147.490564 561.960713 
L 1148.131667 568.088043 
L 1148.77277 559.830349 
L 1149.413873 566.992428 
L 1150.054976 563.238931 
L 1150.696079 566.140282 
L 1151.337182 553.013187 
L 1151.978285 472.120248 
L 1152.619388 528.36184 
L 1153.260491 549.198822 
L 1153.901594 514.139128 
L 1154.542697 539.764356 
L 1155.1838 517.466553 
L 1155.824903 531.405216 
L 1156.466006 529.031382 
L 1157.107109 545.222144 
L 1157.748212 539.66291 
L 1158.389315 555.488466 
L 1159.030418 554.311694 
L 1160.312624 553.865332 
L 1160.953727 557.862299 
L 1161.59483 555.062393 
L 1162.235933 561.352037 
L 1162.877036 553.885621 
L 1163.518139 548.02205 
L 1164.159242 563.827317 
L 1164.800345 552.262487 
L 1165.441448 560.946254 
L 1166.082551 563.928762 
L 1166.723654 553.358103 
L 1167.364757 513.043513 
L 1168.00586 550.740799 
L 1168.646963 554.129091 
L 1169.288065 555.407309 
L 1169.929168 555.14355 
L 1170.570271 558.126059 
L 1171.211374 552.343644 
L 1172.49358 557.781143 
L 1173.134683 557.781143 
L 1173.775786 558.126059 
L 1174.416889 551.430631 
L 1175.057992 558.389818 
L 1175.699095 556.928997 
L 1176.340198 559.931795 
L 1176.981301 548.103206 
L 1177.622404 543.497564 
L 1178.263507 560.78394 
L 1178.90461 549.72634 
L 1179.545713 549.300268 
L 1180.186816 556.300033 
L 1180.827919 552.68856 
L 1181.469022 555.163839 
L 1182.110125 541.712116 
L 1182.751228 552.68856 
L 1183.392331 553.378392 
L 1184.033434 549.462581 
L 1184.674537 552.830584 
L 1185.31564 549.219111 
L 1185.956743 553.094343 
L 1186.597846 453.312184 
L 1187.238949 547.575688 
L 1187.880052 552.587114 
L 1188.521155 537.106474 
L 1189.162258 515.234744 
L 1189.803361 544.512023 
L 1190.444464 545.709084 
L 1191.085567 535.23987 
L 1191.72667 551.085715 
L 1192.367773 544.451155 
L 1193.008875 549.279979 
L 1193.649978 544.430866 
L 1194.291081 545.871397 
L 1194.932184 545.465614 
L 1195.573287 539.825223 
L 1196.21439 546.114867 
L 1196.855493 548.164074 
L 1197.496596 545.627927 
L 1198.137699 544.349709 
L 1198.778802 540.14985 
L 1199.419905 537.735438 
L 1200.061008 520.185302 
L 1201.343214 546.398916 
L 1201.984317 516.939035 
L 1202.62542 543.680166 
L 1203.266523 545.54677 
L 1203.907626 548.610436 
L 1204.548729 543.761323 
L 1205.189832 547.819158 
L 1205.830935 512.171079 
L 1206.472038 535.057267 
L 1207.113141 544.369998 
L 1207.754244 540.271585 
L 1208.395347 529.538612 
L 1209.03645 543.152648 
L 1209.677553 483.766234 
L 1210.318656 538.749897 
L 1210.959759 542.239635 
L 1211.600862 530.147287 
L 1212.241965 529.031382 
L 1212.883068 537.613703 
L 1213.524171 538.384692 
L 1214.165274 540.271585 
L 1214.806377 532.358807 
L 1215.44748 533.799338 
L 1216.088583 539.338283 
L 1216.729685 540.109272 
L 1217.370788 533.637025 
L 1218.011891 543.416407 
L 1218.652994 533.454422 
L 1219.294097 530.553071 
L 1219.9352 541.367201 
L 1220.576303 540.717947 
L 1221.217406 508.762497 
L 1221.858509 512.962356 
L 1222.499612 291.20168 
L 1223.140715 494.377473 
L 1223.781818 489.893565 
L 1224.422921 515.315901 
L 1225.064024 510.223318 
L 1225.705127 493.444171 
L 1226.34623 487.012502 
L 1227.628436 511.846452 
L 1228.269539 499.429477 
L 1228.910642 516.492673 
L 1229.551745 518.663614 
L 1230.192848 515.153587 
L 1230.833951 516.939035 
L 1231.475054 516.350648 
L 1232.116157 516.695564 
L 1232.75726 519.333157 
L 1233.398363 475.163624 
L 1234.039466 521.564966 
L 1234.680569 526.211187 
L 1235.321672 494.580364 
L 1235.962775 494.235448 
L 1236.603878 520.266459 
L 1237.244981 508.43787 
L 1237.886084 508.275557 
L 1238.527187 516.249203 
L 1239.16829 526.657549 
L 1239.809393 532.78488 
L 1240.450495 531.222613 
L 1241.091598 528.341551 
L 1241.732701 528.016924 
L 1242.373804 525.967717 
L 1243.014907 530.81683 
L 1243.65601 527.164778 
L 1244.297113 522.417112 
L 1244.938216 528.929937 
L 1245.579319 532.338518 
L 1246.861525 521.260629 
L 1247.502628 479.95187 
L 1248.143731 528.767623 
L 1248.784834 529.213985 
L 1249.425937 527.915478 
L 1250.06704 532.095048 
L 1250.708143 528.199526 
L 1251.349246 508.620473 
L 1251.990349 530.735673 
L 1252.631452 519.820097 
L 1253.272555 522.051906 
L 1253.913658 526.211187 
L 1254.554761 522.396822 
L 1255.195864 522.660582 
L 1255.836967 516.269492 
L 1256.47807 517.141926 
L 1257.119173 526.576392 
L 1257.760276 518.907084 
L 1258.401379 526.048874 
L 1259.042482 529.396588 
L 1259.683585 523.228679 
L 1260.324688 525.135861 
L 1260.965791 520.367905 
L 1261.606894 521.280918 
L 1262.247997 531.486373 
L 1262.8891 516.857878 
L 1263.530202 526.211187 
L 1264.171305 526.901019 
L 1264.812408 525.034415 
L 1265.453511 513.713056 
L 1266.094614 528.60531 
L 1266.735717 465.120483 
L 1267.37682 527.083622 
L 1268.017923 522.396822 
L 1268.659026 512.515994 
L 1269.300129 509.959559 
L 1269.941232 521.22005 
L 1270.582335 514.220285 
L 1271.223438 503.852517 
L 1271.864541 520.0027 
L 1272.505644 510.629101 
L 1273.146747 513.449297 
L 1273.78785 468.792824 
L 1274.428953 508.174111 
L 1275.070056 521.808436 
L 1275.711159 516.107178 
L 1276.352262 521.362075 
L 1276.993365 517.28395 
L 1277.634468 520.854845 
L 1278.275571 514.078261 
L 1278.916674 520.185302 
L 1279.557777 516.289781 
L 1280.19888 519.657784 
L 1280.839983 518.399855 
L 1281.481086 505.353916 
L 1282.122189 499.916417 
L 1282.763292 517.28395 
L 1283.404395 517.973782 
L 1284.045498 509.695799 
L 1284.686601 521.382364 
L 1285.327704 450.471699 
L 1285.968807 515.762262 
L 1286.60991 515.315901 
L 1287.251012 505.374205 
L 1287.892115 514.82896 
L 1288.533218 514.463755 
L 1289.174321 509.026256 
L 1289.815424 512.069633 
L 1290.456527 518.988241 
L 1291.09763 477.537458 
L 1291.738733 509.979848 
L 1292.379836 492.105085 
L 1293.020939 508.843654 
L 1293.662042 509.878402 
L 1294.303145 517.28395 
L 1294.944248 516.269492 
L 1295.585351 462.137974 
L 1296.226454 501.194635 
L 1296.867557 492.105085 
L 1297.50866 456.294692 
L 1298.790866 499.774393 
L 1299.431969 503.406155 
L 1300.073072 504.785819 
L 1300.714175 500.870008 
L 1301.355278 417.907574 
L 1301.996381 451.080374 
L 1302.637484 404.699322 
L 1303.278587 471.166657 
L 1303.91969 483.259005 
L 1304.560793 480.012737 
L 1305.201896 481.047485 
L 1305.842999 481.108353 
L 1306.484102 482.731486 
L 1307.125205 381.224747 
L 1307.766308 469.11745 
L 1308.407411 456.943946 
L 1309.048514 460.51484 
L 1309.689617 456.781632 
L 1310.33072 458.993152 
L 1310.971822 486.484984 
L 1311.612925 493.870243 
L 1312.254028 484.192307 
L 1312.895131 492.632604 
L 1313.536234 502.898926 
L 1314.177337 501.965624 
L 1314.81844 461.894504 
L 1315.459543 499.916417 
L 1316.100646 480.114183 
L 1316.741749 494.134002 
L 1317.382852 499.693236 
L 1318.023955 494.92528 
L 1318.665058 499.246874 
L 1319.306161 449.112324 
L 1319.947264 494.052846 
L 1320.588367 476.117216 
L 1321.870573 498.049813 
L 1322.511676 468.691378 
L 1323.152779 486.484984 
L 1323.793882 477.273699 
L 1324.434985 487.418286 
L 1325.076088 490.157324 
L 1325.717191 487.235683 
L 1326.358294 495.757136 
L 1326.999397 474.981022 
L 1327.6405 484.61838 
L 1328.281603 480.540256 
L 1328.922706 496.000607 
L 1329.563809 493.890532 
L 1330.204912 483.340162 
L 1330.846015 494.418051 
L 1331.487118 471.34926 
L 1332.128221 497.299114 
L 1332.769324 479.93158 
L 1333.410427 489.28489 
L 1334.05153 490.238481 
L 1334.692632 476.279529 
L 1335.333735 472.952104 
L 1335.974838 432.962142 
L 1336.615941 489.52836 
L 1337.257044 489.366046 
L 1337.898147 469.969596 
L 1338.53925 476.096926 
L 1339.180353 474.027431 
L 1339.821456 489.710962 
L 1340.462559 488.595058 
L 1341.744765 461.651034 
L 1342.385868 413.890318 
L 1343.026971 488.453034 
L 1343.668074 478.815676 
L 1344.309177 422.310325 
L 1344.95028 284.384517 
L 1345.591383 363.086225 
L 1346.232486 415.330849 
L 1346.873589 453.352762 
L 1347.514692 453.129581 
L 1348.155795 453.048424 
L 1348.796898 457.227994 
L 1349.438001 453.454208 
L 1350.079104 453.454208 
L 1350.720207 438.237327 
L 1352.002413 456.781632 
L 1352.643516 455.909198 
L 1353.284619 434.646143 
L 1353.925722 470.375379 
L 1354.566825 468.102992 
L 1355.207928 430.507152 
L 1355.849031 467.068244 
L 1356.490134 449.822446 
L 1357.131237 449.96447 
L 1357.77234 393.459119 
L 1358.413442 440.712606 
L 1359.054545 415.168536 
L 1359.695648 443.431356 
L 1360.336751 442.903837 
L 1360.977854 429.999922 
L 1361.618957 443.005283 
L 1362.26006 451.42529 
L 1362.901163 447.854396 
L 1363.542266 403.076188 
L 1364.183369 401.128427 
L 1364.824472 444.79073 
L 1365.465575 406.565926 
L 1366.106678 444.953044 
L 1366.747781 444.608128 
L 1367.388884 404.963081 
L 1368.029987 439.840172 
L 1368.67109 435.680891 
L 1369.312193 393.905481 
L 1369.953296 431.014381 
L 1370.594399 405.815226 
L 1371.235502 441.483595 
L 1371.876605 433.286768 
L 1372.517708 436.106964 
L 1373.158811 453.129581 
L 1373.799914 416.52791 
L 1374.441017 457.370018 
L 1375.08212 456.964235 
L 1375.723223 443.350199 
L 1376.364326 457.694645 
L 1377.005429 453.799124 
L 1377.646532 450.816615 
L 1378.287635 463.071276 
L 1378.928738 456.943946 
L 1380.210944 433.205612 
L 1380.852047 454.488956 
L 1381.49315 450.654302 
L 1382.134252 432.434623 
L 1382.775355 459.926454 
L 1383.416458 454.651269 
L 1384.057561 466.845063 
L 1384.698664 466.053785 
L 1385.339767 455.503414 
L 1385.98087 462.401734 
L 1386.621973 440.36769 
L 1387.263076 446.819648 
L 1387.904179 403.583417 
L 1388.545282 450.309386 
L 1389.186385 462.462601 
L 1389.827488 454.996185 
L 1390.468591 444.526971 
L 1391.109694 460.190214 
L 1391.750797 457.552621 
L 1392.3919 461.630745 
L 1393.033003 464.349494 
L 1393.674106 461.468432 
L 1394.315209 457.613489 
L 1394.956312 442.903837 
L 1395.597415 403.76602 
L 1396.238518 458.141007 
L 1396.879621 376.679972 
L 1397.520724 424.846472 
L 1398.161827 430.06079 
L 1398.80293 444.608128 
L 1399.444033 445.379116 
L 1400.085136 390.760659 
L 1400.726239 429.026042 
L 1401.367342 440.164799 
L 1402.008445 456.59903 
L 1402.649548 393.377962 
L 1403.290651 451.506447 
L 1403.931754 360.428343 
L 1404.572857 418.73943 
L 1405.21396 405.551467 
L 1405.855062 426.652208 
L 1406.496165 414.82362 
L 1407.137268 424.440688 
L 1407.778371 436.025807 
L 1408.419474 440.793763 
L 1409.060577 443.674826 
L 1409.70168 385.728944 
L 1410.342783 447.408034 
L 1410.983886 450.999218 
L 1411.624989 440.956076 
L 1412.266092 447.184853 
L 1412.907195 447.50948 
L 1413.548298 447.50948 
L 1414.189401 442.741524 
L 1414.830504 449.781867 
L 1415.471607 437.628652 
L 1416.11271 440.530004 
L 1416.753813 341.457965 
L 1417.394916 393.986638 
L 1418.036019 430.994092 
L 1418.677122 424.217507 
L 1419.318225 391.754828 
L 1419.959328 430.568019 
L 1420.600431 430.243392 
L 1421.241534 418.313358 
L 1421.882637 441.11839 
L 1422.52374 437.872122 
L 1423.164843 430.324549 
L 1423.805946 430.243392 
L 1424.447049 396.522784 
L 1425.088152 440.712606 
L 1425.729255 442.984994 
L 1426.370358 443.08644 
L 1427.652564 429.31009 
L 1428.293667 442.051692 
L 1428.934769 432.880985 
L 1429.575872 418.49596 
L 1430.216975 434.078046 
L 1430.858078 416.629356 
L 1431.499181 438.39964 
L 1432.140284 425.982666 
L 1432.781387 420.869794 
L 1433.42249 433.144744 
L 1434.063593 441.808222 
L 1434.704696 443.532802 
L 1435.345799 441.037233 
L 1436.628005 433.814287 
L 1437.269108 416.852537 
L 1437.910211 414.843909 
L 1438.551314 428.437656 
L 1439.192417 424.075483 
L 1439.83352 426.571052 
L 1440.474623 434.48383 
L 1441.115726 432.962142 
L 1441.756829 430.162236 
L 1442.397932 414.235234 
L 1443.039035 438.237327 
L 1443.680138 423.101603 
L 1444.321241 433.185323 
L 1444.962344 429.228934 
L 1445.603447 422.736398 
L 1446.24455 420.788637 
L 1446.885653 424.968207 
L 1447.526756 420.524878 
L 1448.808962 423.345073 
L 1449.450065 418.73943 
L 1450.091168 425.049364 
L 1450.732271 421.032107 
L 1451.373374 419.530708 
L 1452.014477 421.965409 
L 1452.655579 419.510419 
L 1453.296682 341.397098 
L 1453.937785 403.664574 
L 1454.578888 415.939524 
L 1455.219991 416.629356 
L 1455.861094 416.609067 
L 1456.502197 416.264151 
L 1457.1433 416.690224 
L 1457.784403 133.92 
L 1458.425506 403.096477 
L 1459.707712 416.28444 
L 1460.348815 413.626558 
L 1460.989918 414.55986 
L 1461.631021 419.266949 
L 1462.272124 416.79167 
L 1462.913227 399.931366 
L 1463.55433 421.620493 
L 1464.195433 420.098805 
L 1464.836536 407.68183 
L 1465.477639 404.029779 
L 1466.118742 415.696054 
L 1466.759845 364.526756 
L 1467.400948 417.907574 
L 1468.042051 409.203518 
L 1468.683154 409.974507 
L 1469.324257 407.68183 
L 1469.96536 412.470075 
L 1470.606463 414.925066 
L 1471.247566 411.841111 
L 1471.888669 410.40058 
L 1472.529772 406.748528 
L 1473.170875 375.077127 
L 1473.811978 399.606739 
L 1474.453081 406.22101 
L 1475.094184 414.925066 
L 1475.735287 212.723153 
L 1476.376389 358.906655 
L 1477.017492 357.222654 
L 1477.658595 359.109547 
L 1478.299698 377.20749 
L 1479.581904 385.282582 
L 1480.223007 378.546576 
L 1480.86411 404.435562 
L 1481.505213 386.31733 
L 1482.146316 392.44466 
L 1482.787419 386.07386 
L 1483.428522 397.476376 
L 1484.069625 401.128427 
L 1484.710728 399.160377 
L 1485.351831 407.844144 
L 1485.992934 404.273249 
L 1486.634037 399.667606 
L 1487.916243 408.006457 
L 1488.557346 406.484769 
L 1489.198449 407.073155 
L 1489.839552 394.838783 
L 1490.480655 398.490834 
L 1491.121758 397.476376 
L 1491.762861 343.020231 
L 1492.403964 402.568958 
L 1493.045067 365.967288 
L 1493.68617 391.328756 
L 1494.327273 396.8677 
L 1494.327273 396.8677 
" style="fill:none;stroke:#1f77b4;stroke-linecap:square;stroke-width:1.5;"/>
   </g>
   <g id="line2d_18">
    <path clip-path="url(#pd5fabf7f39)" d="M 276.872727 738.338785 
L 301.875743 736.99899 
L 327.519862 735.400937 
L 353.805084 733.540264 
L 380.731409 731.41101 
L 408.298837 729.00519 
L 435.866265 726.376126 
L 463.433692 723.526218 
L 491.00112 720.455157 
L 518.568548 717.160159 
L 545.494873 713.720799 
L 572.421198 710.05647 
L 598.70642 706.254593 
L 624.350539 702.322863 
L 649.353555 698.268859 
L 674.35657 693.987651 
L 698.718483 689.58818 
L 722.439293 685.078956 
L 745.519 680.469219 
L 768.598707 675.631477 
L 791.037312 670.701324 
L 813.475916 665.539612 
L 835.273417 660.296293 
L 857.070918 654.820223 
L 878.227316 649.27633 
L 899.383714 643.501128 
L 919.899009 637.674902 
L 940.414304 631.621507 
L 960.929599 625.336804 
L 981.444894 618.817135 
L 1001.96019 612.059373 
L 1022.475485 605.060977 
L 1042.349677 598.050012 
L 1062.223869 590.810322 
L 1082.739164 583.096709 
L 1103.254459 575.139185 
L 1123.769754 566.938886 
L 1144.28505 558.49785 
L 1164.800345 549.819071 
L 1185.956743 540.624321 
L 1207.113141 531.186577 
L 1228.910642 521.215923 
L 1250.708143 511.003542 
L 1273.146747 500.24941 
L 1296.867557 488.629114 
L 1321.22947 476.444202 
L 1346.873589 463.368059 
L 1374.441017 449.058638 
L 1405.21396 432.826291 
L 1441.756829 413.28365 
L 1494.327273 384.907182 
L 1494.327273 384.907182 
" style="fill:none;stroke:#ff7f0e;stroke-linecap:square;stroke-width:1.5;"/>
   </g>
   <g id="patch_3">
    <path d="M 216 768.96 
L 216 103.68 
" style="fill:none;stroke:#000000;stroke-linecap:square;stroke-linejoin:miter;stroke-width:0.8;"/>
   </g>
   <g id="patch_4">
    <path d="M 1555.2 768.96 
L 1555.2 103.68 
" style="fill:none;stroke:#000000;stroke-linecap:square;stroke-linejoin:miter;stroke-width:0.8;"/>
   </g>
   <g id="patch_5">
    <path d="M 216 768.96 
L 1555.2 768.96 
" style="fill:none;stroke:#000000;stroke-linecap:square;stroke-linejoin:miter;stroke-width:0.8;"/>
   </g>
   <g id="patch_6">
    <path d="M 216 103.68 
L 1555.2 103.68 
" style="fill:none;stroke:#000000;stroke-linecap:square;stroke-linejoin:miter;stroke-width:0.8;"/>
   </g>
   <g id="legend_1">
    <g id="patch_7">
     <path d="M 223 141.03625 
L 349.451563 141.03625 
Q 351.451563 141.03625 351.451563 139.03625 
L 351.451563 110.68 
Q 351.451563 108.68 349.451563 108.68 
L 223 108.68 
Q 221 108.68 221 110.68 
L 221 139.03625 
Q 221 141.03625 223 141.03625 
z
" style="fill:#ffffff;opacity:0.8;stroke:#cccccc;stroke-linejoin:miter;"/>
    </g>
    <g id="line2d_19">
     <path d="M 225 116.778437 
L 245 116.778437 
" style="fill:none;stroke:#1f77b4;stroke-linecap:square;stroke-width:1.5;"/>
    </g>
    <g id="line2d_20"/>
    <g id="text_19">
     <!-- Experiment results -->
     <g transform="translate(253 120.278437)scale(0.1 -0.1)">
      <defs>
       <path d="M 9.8125 72.90625 
L 55.90625 72.90625 
L 55.90625 64.59375 
L 19.671875 64.59375 
L 19.671875 43.015625 
L 54.390625 43.015625 
L 54.390625 34.71875 
L 19.671875 34.71875 
L 19.671875 8.296875 
L 56.78125 8.296875 
L 56.78125 0 
L 9.8125 0 
z
" id="DejaVuSans-69"/>
       <path d="M 54.890625 54.6875 
L 35.109375 28.078125 
L 55.90625 0 
L 45.3125 0 
L 29.390625 21.484375 
L 13.484375 0 
L 2.875 0 
L 24.125 28.609375 
L 4.6875 54.6875 
L 15.28125 54.6875 
L 29.78125 35.203125 
L 44.28125 54.6875 
z
" id="DejaVuSans-120"/>
       <path d="M 18.109375 8.203125 
L 18.109375 -20.796875 
L 9.078125 -20.796875 
L 9.078125 54.6875 
L 18.109375 54.6875 
L 18.109375 46.390625 
Q 20.953125 51.265625 25.265625 53.625 
Q 29.59375 56 35.59375 56 
Q 45.5625 56 51.78125 48.09375 
Q 58.015625 40.1875 58.015625 27.296875 
Q 58.015625 14.40625 51.78125 6.484375 
Q 45.5625 -1.421875 35.59375 -1.421875 
Q 29.59375 -1.421875 25.265625 0.953125 
Q 20.953125 3.328125 18.109375 8.203125 
z
M 48.6875 27.296875 
Q 48.6875 37.203125 44.609375 42.84375 
Q 40.53125 48.484375 33.40625 48.484375 
Q 26.265625 48.484375 22.1875 42.84375 
Q 18.109375 37.203125 18.109375 27.296875 
Q 18.109375 17.390625 22.1875 11.75 
Q 26.265625 6.109375 33.40625 6.109375 
Q 40.53125 6.109375 44.609375 11.75 
Q 48.6875 17.390625 48.6875 27.296875 
z
" id="DejaVuSans-112"/>
       <path d="M 8.5 21.578125 
L 8.5 54.6875 
L 17.484375 54.6875 
L 17.484375 21.921875 
Q 17.484375 14.15625 20.5 10.265625 
Q 23.53125 6.390625 29.59375 6.390625 
Q 36.859375 6.390625 41.078125 11.03125 
Q 45.3125 15.671875 45.3125 23.6875 
L 45.3125 54.6875 
L 54.296875 54.6875 
L 54.296875 0 
L 45.3125 0 
L 45.3125 8.40625 
Q 42.046875 3.421875 37.71875 1 
Q 33.40625 -1.421875 27.6875 -1.421875 
Q 18.265625 -1.421875 13.375 4.4375 
Q 8.5 10.296875 8.5 21.578125 
z
M 31.109375 56 
z
" id="DejaVuSans-117"/>
      </defs>
      <use xlink:href="#DejaVuSans-69"/>
      <use x="63.183594" xlink:href="#DejaVuSans-120"/>
      <use x="122.363281" xlink:href="#DejaVuSans-112"/>
      <use x="185.839844" xlink:href="#DejaVuSans-101"/>
      <use x="247.363281" xlink:href="#DejaVuSans-114"/>
      <use x="288.476562" xlink:href="#DejaVuSans-105"/>
      <use x="316.259766" xlink:href="#DejaVuSans-109"/>
      <use x="413.671875" xlink:href="#DejaVuSans-101"/>
      <use x="475.195312" xlink:href="#DejaVuSans-110"/>
      <use x="538.574219" xlink:href="#DejaVuSans-116"/>
      <use x="577.783203" xlink:href="#DejaVuSans-32"/>
      <use x="609.570312" xlink:href="#DejaVuSans-114"/>
      <use x="648.433594" xlink:href="#DejaVuSans-101"/>
      <use x="709.957031" xlink:href="#DejaVuSans-115"/>
      <use x="762.056641" xlink:href="#DejaVuSans-117"/>
      <use x="825.435547" xlink:href="#DejaVuSans-108"/>
      <use x="853.21875" xlink:href="#DejaVuSans-116"/>
      <use x="892.427734" xlink:href="#DejaVuSans-115"/>
     </g>
    </g>
    <g id="line2d_21">
     <path d="M 225 131.456563 
L 245 131.456563 
" style="fill:none;stroke:#ff7f0e;stroke-linecap:square;stroke-width:1.5;"/>
    </g>
    <g id="line2d_22"/>
    <g id="text_20">
     <!-- Approximation -->
     <g transform="translate(253 134.956563)scale(0.1 -0.1)">
      <defs>
       <path d="M 34.1875 63.1875 
L 20.796875 26.90625 
L 47.609375 26.90625 
z
M 28.609375 72.90625 
L 39.796875 72.90625 
L 67.578125 0 
L 57.328125 0 
L 50.6875 18.703125 
L 17.828125 18.703125 
L 11.1875 0 
L 0.78125 0 
z
" id="DejaVuSans-65"/>
       <path d="M 34.28125 27.484375 
Q 23.390625 27.484375 19.1875 25 
Q 14.984375 22.515625 14.984375 16.5 
Q 14.984375 11.71875 18.140625 8.90625 
Q 21.296875 6.109375 26.703125 6.109375 
Q 34.1875 6.109375 38.703125 11.40625 
Q 43.21875 16.703125 43.21875 25.484375 
L 43.21875 27.484375 
z
M 52.203125 31.203125 
L 52.203125 0 
L 43.21875 0 
L 43.21875 8.296875 
Q 40.140625 3.328125 35.546875 0.953125 
Q 30.953125 -1.421875 24.3125 -1.421875 
Q 15.921875 -1.421875 10.953125 3.296875 
Q 6 8.015625 6 15.921875 
Q 6 25.140625 12.171875 29.828125 
Q 18.359375 34.515625 30.609375 34.515625 
L 43.21875 34.515625 
L 43.21875 35.40625 
Q 43.21875 41.609375 39.140625 45 
Q 35.0625 48.390625 27.6875 48.390625 
Q 23 48.390625 18.546875 47.265625 
Q 14.109375 46.140625 10.015625 43.890625 
L 10.015625 52.203125 
Q 14.9375 54.109375 19.578125 55.046875 
Q 24.21875 56 28.609375 56 
Q 40.484375 56 46.34375 49.84375 
Q 52.203125 43.703125 52.203125 31.203125 
z
" id="DejaVuSans-97"/>
      </defs>
      <use xlink:href="#DejaVuSans-65"/>
      <use x="68.408203" xlink:href="#DejaVuSans-112"/>
      <use x="131.884766" xlink:href="#DejaVuSans-112"/>
      <use x="195.361328" xlink:href="#DejaVuSans-114"/>
      <use x="234.224609" xlink:href="#DejaVuSans-111"/>
      <use x="292.28125" xlink:href="#DejaVuSans-120"/>
      <use x="351.460938" xlink:href="#DejaVuSans-105"/>
      <use x="379.244141" xlink:href="#DejaVuSans-109"/>
      <use x="476.65625" xlink:href="#DejaVuSans-97"/>
      <use x="537.935547" xlink:href="#DejaVuSans-116"/>
      <use x="577.144531" xlink:href="#DejaVuSans-105"/>
      <use x="604.927734" xlink:href="#DejaVuSans-111"/>
      <use x="666.109375" xlink:href="#DejaVuSans-110"/>
     </g>
    </g>
   </g>
  </g>
 </g>
 <defs>
  <clipPath id="pd5fabf7f39">
   <rect height="665.28" width="1339.2" x="216" y="103.68"/>
  </clipPath>
 </defs>
</svg>
