<?xml version="1.0" encoding="utf-8" standalone="no"?>
<!DOCTYPE svg PUBLIC "-//W3C//DTD SVG 1.1//EN"
  "http://www.w3.org/Graphics/SVG/1.1/DTD/svg11.dtd">
<!-- Created with matplotlib (https://matplotlib.org/) -->
<svg height="864pt" version="1.1" viewBox="0 0 1728 864" width="1728pt" xmlns="http://www.w3.org/2000/svg" xmlns:xlink="http://www.w3.org/1999/xlink">
 <metadata>
  <rdf:RDF xmlns:cc="http://creativecommons.org/ns#" xmlns:dc="http://purl.org/dc/elements/1.1/" xmlns:rdf="http://www.w3.org/1999/02/22-rdf-syntax-ns#">
   <cc:Work>
    <dc:type rdf:resource="http://purl.org/dc/dcmitype/StillImage"/>
    <dc:date>2020-09-13T22:31:05.947310</dc:date>
    <dc:format>image/svg+xml</dc:format>
    <dc:creator>
     <cc:Agent>
      <dc:title>Matplotlib v3.3.1, https://matplotlib.org/</dc:title>
     </cc:Agent>
    </dc:creator>
   </cc:Work>
  </rdf:RDF>
 </metadata>
 <defs>
  <style type="text/css">*{stroke-linecap:butt;stroke-linejoin:round;}</style>
 </defs>
 <g id="figure_1">
  <g id="patch_1">
   <path d="M 0 864 
L 1728 864 
L 1728 0 
L 0 0 
z
" style="fill:#ffffff;"/>
  </g>
  <g id="axes_1">
   <g id="patch_2">
    <path d="M 216 768.96 
L 1555.2 768.96 
L 1555.2 103.68 
L 216 103.68 
z
" style="fill:#ffffff;"/>
   </g>
   <g id="matplotlib.axis_1">
    <g id="xtick_1">
     <g id="line2d_1">
      <defs>
       <path d="M 0 0 
L 0 3.5 
" id="m1e79ef1391" style="stroke:#000000;stroke-width:0.8;"/>
      </defs>
      <g>
       <use style="stroke:#000000;stroke-width:0.8;" x="276.263391" xlink:href="#m1e79ef1391" y="768.96"/>
      </g>
     </g>
     <g id="text_1">
      <!-- 0 -->
      <g transform="translate(273.082141 783.558437)scale(0.1 -0.1)">
       <defs>
        <path d="M 31.78125 66.40625 
Q 24.171875 66.40625 20.328125 58.90625 
Q 16.5 51.421875 16.5 36.375 
Q 16.5 21.390625 20.328125 13.890625 
Q 24.171875 6.390625 31.78125 6.390625 
Q 39.453125 6.390625 43.28125 13.890625 
Q 47.125 21.390625 47.125 36.375 
Q 47.125 51.421875 43.28125 58.90625 
Q 39.453125 66.40625 31.78125 66.40625 
z
M 31.78125 74.21875 
Q 44.046875 74.21875 50.515625 64.515625 
Q 56.984375 54.828125 56.984375 36.375 
Q 56.984375 17.96875 50.515625 8.265625 
Q 44.046875 -1.421875 31.78125 -1.421875 
Q 19.53125 -1.421875 13.0625 8.265625 
Q 6.59375 17.96875 6.59375 36.375 
Q 6.59375 54.828125 13.0625 64.515625 
Q 19.53125 74.21875 31.78125 74.21875 
z
" id="DejaVuSans-48"/>
       </defs>
       <use xlink:href="#DejaVuSans-48"/>
      </g>
     </g>
    </g>
    <g id="xtick_2">
     <g id="line2d_2">
      <g>
       <use style="stroke:#000000;stroke-width:0.8;" x="428.597543" xlink:href="#m1e79ef1391" y="768.96"/>
      </g>
     </g>
     <g id="text_2">
      <!-- 250 -->
      <g transform="translate(419.053793 783.558437)scale(0.1 -0.1)">
       <defs>
        <path d="M 19.1875 8.296875 
L 53.609375 8.296875 
L 53.609375 0 
L 7.328125 0 
L 7.328125 8.296875 
Q 12.9375 14.109375 22.625 23.890625 
Q 32.328125 33.6875 34.8125 36.53125 
Q 39.546875 41.84375 41.421875 45.53125 
Q 43.3125 49.21875 43.3125 52.78125 
Q 43.3125 58.59375 39.234375 62.25 
Q 35.15625 65.921875 28.609375 65.921875 
Q 23.96875 65.921875 18.8125 64.3125 
Q 13.671875 62.703125 7.8125 59.421875 
L 7.8125 69.390625 
Q 13.765625 71.78125 18.9375 73 
Q 24.125 74.21875 28.421875 74.21875 
Q 39.75 74.21875 46.484375 68.546875 
Q 53.21875 62.890625 53.21875 53.421875 
Q 53.21875 48.921875 51.53125 44.890625 
Q 49.859375 40.875 45.40625 35.40625 
Q 44.1875 33.984375 37.640625 27.21875 
Q 31.109375 20.453125 19.1875 8.296875 
z
" id="DejaVuSans-50"/>
        <path d="M 10.796875 72.90625 
L 49.515625 72.90625 
L 49.515625 64.59375 
L 19.828125 64.59375 
L 19.828125 46.734375 
Q 21.96875 47.46875 24.109375 47.828125 
Q 26.265625 48.1875 28.421875 48.1875 
Q 40.625 48.1875 47.75 41.5 
Q 54.890625 34.8125 54.890625 23.390625 
Q 54.890625 11.625 47.5625 5.09375 
Q 40.234375 -1.421875 26.90625 -1.421875 
Q 22.3125 -1.421875 17.546875 -0.640625 
Q 12.796875 0.140625 7.71875 1.703125 
L 7.71875 11.625 
Q 12.109375 9.234375 16.796875 8.0625 
Q 21.484375 6.890625 26.703125 6.890625 
Q 35.15625 6.890625 40.078125 11.328125 
Q 45.015625 15.765625 45.015625 23.390625 
Q 45.015625 31 40.078125 35.4375 
Q 35.15625 39.890625 26.703125 39.890625 
Q 22.75 39.890625 18.8125 39.015625 
Q 14.890625 38.140625 10.796875 36.28125 
z
" id="DejaVuSans-53"/>
       </defs>
       <use xlink:href="#DejaVuSans-50"/>
       <use x="63.623047" xlink:href="#DejaVuSans-53"/>
       <use x="127.246094" xlink:href="#DejaVuSans-48"/>
      </g>
     </g>
    </g>
    <g id="xtick_3">
     <g id="line2d_3">
      <g>
       <use style="stroke:#000000;stroke-width:0.8;" x="580.931695" xlink:href="#m1e79ef1391" y="768.96"/>
      </g>
     </g>
     <g id="text_3">
      <!-- 500 -->
      <g transform="translate(571.387945 783.558437)scale(0.1 -0.1)">
       <use xlink:href="#DejaVuSans-53"/>
       <use x="63.623047" xlink:href="#DejaVuSans-48"/>
       <use x="127.246094" xlink:href="#DejaVuSans-48"/>
      </g>
     </g>
    </g>
    <g id="xtick_4">
     <g id="line2d_4">
      <g>
       <use style="stroke:#000000;stroke-width:0.8;" x="733.265848" xlink:href="#m1e79ef1391" y="768.96"/>
      </g>
     </g>
     <g id="text_4">
      <!-- 750 -->
      <g transform="translate(723.722098 783.558437)scale(0.1 -0.1)">
       <defs>
        <path d="M 8.203125 72.90625 
L 55.078125 72.90625 
L 55.078125 68.703125 
L 28.609375 0 
L 18.3125 0 
L 43.21875 64.59375 
L 8.203125 64.59375 
z
" id="DejaVuSans-55"/>
       </defs>
       <use xlink:href="#DejaVuSans-55"/>
       <use x="63.623047" xlink:href="#DejaVuSans-53"/>
       <use x="127.246094" xlink:href="#DejaVuSans-48"/>
      </g>
     </g>
    </g>
    <g id="xtick_5">
     <g id="line2d_5">
      <g>
       <use style="stroke:#000000;stroke-width:0.8;" x="885.6" xlink:href="#m1e79ef1391" y="768.96"/>
      </g>
     </g>
     <g id="text_5">
      <!-- 1000 -->
      <g transform="translate(872.875 783.558437)scale(0.1 -0.1)">
       <defs>
        <path d="M 12.40625 8.296875 
L 28.515625 8.296875 
L 28.515625 63.921875 
L 10.984375 60.40625 
L 10.984375 69.390625 
L 28.421875 72.90625 
L 38.28125 72.90625 
L 38.28125 8.296875 
L 54.390625 8.296875 
L 54.390625 0 
L 12.40625 0 
z
" id="DejaVuSans-49"/>
       </defs>
       <use xlink:href="#DejaVuSans-49"/>
       <use x="63.623047" xlink:href="#DejaVuSans-48"/>
       <use x="127.246094" xlink:href="#DejaVuSans-48"/>
       <use x="190.869141" xlink:href="#DejaVuSans-48"/>
      </g>
     </g>
    </g>
    <g id="xtick_6">
     <g id="line2d_6">
      <g>
       <use style="stroke:#000000;stroke-width:0.8;" x="1037.934152" xlink:href="#m1e79ef1391" y="768.96"/>
      </g>
     </g>
     <g id="text_6">
      <!-- 1250 -->
      <g transform="translate(1025.209152 783.558437)scale(0.1 -0.1)">
       <use xlink:href="#DejaVuSans-49"/>
       <use x="63.623047" xlink:href="#DejaVuSans-50"/>
       <use x="127.246094" xlink:href="#DejaVuSans-53"/>
       <use x="190.869141" xlink:href="#DejaVuSans-48"/>
      </g>
     </g>
    </g>
    <g id="xtick_7">
     <g id="line2d_7">
      <g>
       <use style="stroke:#000000;stroke-width:0.8;" x="1190.268305" xlink:href="#m1e79ef1391" y="768.96"/>
      </g>
     </g>
     <g id="text_7">
      <!-- 1500 -->
      <g transform="translate(1177.543305 783.558437)scale(0.1 -0.1)">
       <use xlink:href="#DejaVuSans-49"/>
       <use x="63.623047" xlink:href="#DejaVuSans-53"/>
       <use x="127.246094" xlink:href="#DejaVuSans-48"/>
       <use x="190.869141" xlink:href="#DejaVuSans-48"/>
      </g>
     </g>
    </g>
    <g id="xtick_8">
     <g id="line2d_8">
      <g>
       <use style="stroke:#000000;stroke-width:0.8;" x="1342.602457" xlink:href="#m1e79ef1391" y="768.96"/>
      </g>
     </g>
     <g id="text_8">
      <!-- 1750 -->
      <g transform="translate(1329.877457 783.558437)scale(0.1 -0.1)">
       <use xlink:href="#DejaVuSans-49"/>
       <use x="63.623047" xlink:href="#DejaVuSans-55"/>
       <use x="127.246094" xlink:href="#DejaVuSans-53"/>
       <use x="190.869141" xlink:href="#DejaVuSans-48"/>
      </g>
     </g>
    </g>
    <g id="xtick_9">
     <g id="line2d_9">
      <g>
       <use style="stroke:#000000;stroke-width:0.8;" x="1494.936609" xlink:href="#m1e79ef1391" y="768.96"/>
      </g>
     </g>
     <g id="text_9">
      <!-- 2000 -->
      <g transform="translate(1482.211609 783.558437)scale(0.1 -0.1)">
       <use xlink:href="#DejaVuSans-50"/>
       <use x="63.623047" xlink:href="#DejaVuSans-48"/>
       <use x="127.246094" xlink:href="#DejaVuSans-48"/>
       <use x="190.869141" xlink:href="#DejaVuSans-48"/>
      </g>
     </g>
    </g>
    <g id="text_10">
     <!-- Vector length -->
     <g transform="translate(852.139844 797.236562)scale(0.1 -0.1)">
      <defs>
       <path d="M 28.609375 0 
L 0.78125 72.90625 
L 11.078125 72.90625 
L 34.1875 11.53125 
L 57.328125 72.90625 
L 67.578125 72.90625 
L 39.796875 0 
z
" id="DejaVuSans-86"/>
       <path d="M 56.203125 29.59375 
L 56.203125 25.203125 
L 14.890625 25.203125 
Q 15.484375 15.921875 20.484375 11.0625 
Q 25.484375 6.203125 34.421875 6.203125 
Q 39.59375 6.203125 44.453125 7.46875 
Q 49.3125 8.734375 54.109375 11.28125 
L 54.109375 2.78125 
Q 49.265625 0.734375 44.1875 -0.34375 
Q 39.109375 -1.421875 33.890625 -1.421875 
Q 20.796875 -1.421875 13.15625 6.1875 
Q 5.515625 13.8125 5.515625 26.8125 
Q 5.515625 40.234375 12.765625 48.109375 
Q 20.015625 56 32.328125 56 
Q 43.359375 56 49.78125 48.890625 
Q 56.203125 41.796875 56.203125 29.59375 
z
M 47.21875 32.234375 
Q 47.125 39.59375 43.09375 43.984375 
Q 39.0625 48.390625 32.421875 48.390625 
Q 24.90625 48.390625 20.390625 44.140625 
Q 15.875 39.890625 15.1875 32.171875 
z
" id="DejaVuSans-101"/>
       <path d="M 48.78125 52.59375 
L 48.78125 44.1875 
Q 44.96875 46.296875 41.140625 47.34375 
Q 37.3125 48.390625 33.40625 48.390625 
Q 24.65625 48.390625 19.8125 42.84375 
Q 14.984375 37.3125 14.984375 27.296875 
Q 14.984375 17.28125 19.8125 11.734375 
Q 24.65625 6.203125 33.40625 6.203125 
Q 37.3125 6.203125 41.140625 7.25 
Q 44.96875 8.296875 48.78125 10.40625 
L 48.78125 2.09375 
Q 45.015625 0.34375 40.984375 -0.53125 
Q 36.96875 -1.421875 32.421875 -1.421875 
Q 20.0625 -1.421875 12.78125 6.34375 
Q 5.515625 14.109375 5.515625 27.296875 
Q 5.515625 40.671875 12.859375 48.328125 
Q 20.21875 56 33.015625 56 
Q 37.15625 56 41.109375 55.140625 
Q 45.0625 54.296875 48.78125 52.59375 
z
" id="DejaVuSans-99"/>
       <path d="M 18.3125 70.21875 
L 18.3125 54.6875 
L 36.8125 54.6875 
L 36.8125 47.703125 
L 18.3125 47.703125 
L 18.3125 18.015625 
Q 18.3125 11.328125 20.140625 9.421875 
Q 21.96875 7.515625 27.59375 7.515625 
L 36.8125 7.515625 
L 36.8125 0 
L 27.59375 0 
Q 17.1875 0 13.234375 3.875 
Q 9.28125 7.765625 9.28125 18.015625 
L 9.28125 47.703125 
L 2.6875 47.703125 
L 2.6875 54.6875 
L 9.28125 54.6875 
L 9.28125 70.21875 
z
" id="DejaVuSans-116"/>
       <path d="M 30.609375 48.390625 
Q 23.390625 48.390625 19.1875 42.75 
Q 14.984375 37.109375 14.984375 27.296875 
Q 14.984375 17.484375 19.15625 11.84375 
Q 23.34375 6.203125 30.609375 6.203125 
Q 37.796875 6.203125 41.984375 11.859375 
Q 46.1875 17.53125 46.1875 27.296875 
Q 46.1875 37.015625 41.984375 42.703125 
Q 37.796875 48.390625 30.609375 48.390625 
z
M 30.609375 56 
Q 42.328125 56 49.015625 48.375 
Q 55.71875 40.765625 55.71875 27.296875 
Q 55.71875 13.875 49.015625 6.21875 
Q 42.328125 -1.421875 30.609375 -1.421875 
Q 18.84375 -1.421875 12.171875 6.21875 
Q 5.515625 13.875 5.515625 27.296875 
Q 5.515625 40.765625 12.171875 48.375 
Q 18.84375 56 30.609375 56 
z
" id="DejaVuSans-111"/>
       <path d="M 41.109375 46.296875 
Q 39.59375 47.171875 37.8125 47.578125 
Q 36.03125 48 33.890625 48 
Q 26.265625 48 22.1875 43.046875 
Q 18.109375 38.09375 18.109375 28.8125 
L 18.109375 0 
L 9.078125 0 
L 9.078125 54.6875 
L 18.109375 54.6875 
L 18.109375 46.1875 
Q 20.953125 51.171875 25.484375 53.578125 
Q 30.03125 56 36.53125 56 
Q 37.453125 56 38.578125 55.875 
Q 39.703125 55.765625 41.0625 55.515625 
z
" id="DejaVuSans-114"/>
       <path id="DejaVuSans-32"/>
       <path d="M 9.421875 75.984375 
L 18.40625 75.984375 
L 18.40625 0 
L 9.421875 0 
z
" id="DejaVuSans-108"/>
       <path d="M 54.890625 33.015625 
L 54.890625 0 
L 45.90625 0 
L 45.90625 32.71875 
Q 45.90625 40.484375 42.875 44.328125 
Q 39.84375 48.1875 33.796875 48.1875 
Q 26.515625 48.1875 22.3125 43.546875 
Q 18.109375 38.921875 18.109375 30.90625 
L 18.109375 0 
L 9.078125 0 
L 9.078125 54.6875 
L 18.109375 54.6875 
L 18.109375 46.1875 
Q 21.34375 51.125 25.703125 53.5625 
Q 30.078125 56 35.796875 56 
Q 45.21875 56 50.046875 50.171875 
Q 54.890625 44.34375 54.890625 33.015625 
z
" id="DejaVuSans-110"/>
       <path d="M 45.40625 27.984375 
Q 45.40625 37.75 41.375 43.109375 
Q 37.359375 48.484375 30.078125 48.484375 
Q 22.859375 48.484375 18.828125 43.109375 
Q 14.796875 37.75 14.796875 27.984375 
Q 14.796875 18.265625 18.828125 12.890625 
Q 22.859375 7.515625 30.078125 7.515625 
Q 37.359375 7.515625 41.375 12.890625 
Q 45.40625 18.265625 45.40625 27.984375 
z
M 54.390625 6.78125 
Q 54.390625 -7.171875 48.1875 -13.984375 
Q 42 -20.796875 29.203125 -20.796875 
Q 24.46875 -20.796875 20.265625 -20.09375 
Q 16.0625 -19.390625 12.109375 -17.921875 
L 12.109375 -9.1875 
Q 16.0625 -11.328125 19.921875 -12.34375 
Q 23.78125 -13.375 27.78125 -13.375 
Q 36.625 -13.375 41.015625 -8.765625 
Q 45.40625 -4.15625 45.40625 5.171875 
L 45.40625 9.625 
Q 42.625 4.78125 38.28125 2.390625 
Q 33.9375 0 27.875 0 
Q 17.828125 0 11.671875 7.65625 
Q 5.515625 15.328125 5.515625 27.984375 
Q 5.515625 40.671875 11.671875 48.328125 
Q 17.828125 56 27.875 56 
Q 33.9375 56 38.28125 53.609375 
Q 42.625 51.21875 45.40625 46.390625 
L 45.40625 54.6875 
L 54.390625 54.6875 
z
" id="DejaVuSans-103"/>
       <path d="M 54.890625 33.015625 
L 54.890625 0 
L 45.90625 0 
L 45.90625 32.71875 
Q 45.90625 40.484375 42.875 44.328125 
Q 39.84375 48.1875 33.796875 48.1875 
Q 26.515625 48.1875 22.3125 43.546875 
Q 18.109375 38.921875 18.109375 30.90625 
L 18.109375 0 
L 9.078125 0 
L 9.078125 75.984375 
L 18.109375 75.984375 
L 18.109375 46.1875 
Q 21.34375 51.125 25.703125 53.5625 
Q 30.078125 56 35.796875 56 
Q 45.21875 56 50.046875 50.171875 
Q 54.890625 44.34375 54.890625 33.015625 
z
" id="DejaVuSans-104"/>
      </defs>
      <use xlink:href="#DejaVuSans-86"/>
      <use x="60.658203" xlink:href="#DejaVuSans-101"/>
      <use x="122.181641" xlink:href="#DejaVuSans-99"/>
      <use x="177.162109" xlink:href="#DejaVuSans-116"/>
      <use x="216.371094" xlink:href="#DejaVuSans-111"/>
      <use x="277.552734" xlink:href="#DejaVuSans-114"/>
      <use x="318.666016" xlink:href="#DejaVuSans-32"/>
      <use x="350.453125" xlink:href="#DejaVuSans-108"/>
      <use x="378.236328" xlink:href="#DejaVuSans-101"/>
      <use x="439.759766" xlink:href="#DejaVuSans-110"/>
      <use x="503.138672" xlink:href="#DejaVuSans-103"/>
      <use x="566.615234" xlink:href="#DejaVuSans-116"/>
      <use x="605.824219" xlink:href="#DejaVuSans-104"/>
     </g>
    </g>
   </g>
   <g id="matplotlib.axis_2">
    <g id="ytick_1">
     <g id="line2d_10">
      <defs>
       <path d="M 0 0 
L -3.5 0 
" id="ma4cabf5fc6" style="stroke:#000000;stroke-width:0.8;"/>
      </defs>
      <g>
       <use style="stroke:#000000;stroke-width:0.8;" x="216" xlink:href="#ma4cabf5fc6" y="733.946911"/>
      </g>
     </g>
     <g id="text_11">
      <!-- 0 -->
      <g transform="translate(202.6375 737.74613)scale(0.1 -0.1)">
       <use xlink:href="#DejaVuSans-48"/>
      </g>
     </g>
    </g>
    <g id="ytick_2">
     <g id="line2d_11">
      <g>
       <use style="stroke:#000000;stroke-width:0.8;" x="216" xlink:href="#ma4cabf5fc6" y="630.477138"/>
      </g>
     </g>
     <g id="text_12">
      <!-- 1 -->
      <g transform="translate(202.6375 634.276357)scale(0.1 -0.1)">
       <use xlink:href="#DejaVuSans-49"/>
      </g>
     </g>
    </g>
    <g id="ytick_3">
     <g id="line2d_12">
      <g>
       <use style="stroke:#000000;stroke-width:0.8;" x="216" xlink:href="#ma4cabf5fc6" y="527.007366"/>
      </g>
     </g>
     <g id="text_13">
      <!-- 2 -->
      <g transform="translate(202.6375 530.806585)scale(0.1 -0.1)">
       <use xlink:href="#DejaVuSans-50"/>
      </g>
     </g>
    </g>
    <g id="ytick_4">
     <g id="line2d_13">
      <g>
       <use style="stroke:#000000;stroke-width:0.8;" x="216" xlink:href="#ma4cabf5fc6" y="423.537594"/>
      </g>
     </g>
     <g id="text_14">
      <!-- 3 -->
      <g transform="translate(202.6375 427.336813)scale(0.1 -0.1)">
       <defs>
        <path d="M 40.578125 39.3125 
Q 47.65625 37.796875 51.625 33 
Q 55.609375 28.21875 55.609375 21.1875 
Q 55.609375 10.40625 48.1875 4.484375 
Q 40.765625 -1.421875 27.09375 -1.421875 
Q 22.515625 -1.421875 17.65625 -0.515625 
Q 12.796875 0.390625 7.625 2.203125 
L 7.625 11.71875 
Q 11.71875 9.328125 16.59375 8.109375 
Q 21.484375 6.890625 26.8125 6.890625 
Q 36.078125 6.890625 40.9375 10.546875 
Q 45.796875 14.203125 45.796875 21.1875 
Q 45.796875 27.640625 41.28125 31.265625 
Q 36.765625 34.90625 28.71875 34.90625 
L 20.21875 34.90625 
L 20.21875 43.015625 
L 29.109375 43.015625 
Q 36.375 43.015625 40.234375 45.921875 
Q 44.09375 48.828125 44.09375 54.296875 
Q 44.09375 59.90625 40.109375 62.90625 
Q 36.140625 65.921875 28.71875 65.921875 
Q 24.65625 65.921875 20.015625 65.03125 
Q 15.375 64.15625 9.8125 62.3125 
L 9.8125 71.09375 
Q 15.4375 72.65625 20.34375 73.4375 
Q 25.25 74.21875 29.59375 74.21875 
Q 40.828125 74.21875 47.359375 69.109375 
Q 53.90625 64.015625 53.90625 55.328125 
Q 53.90625 49.265625 50.4375 45.09375 
Q 46.96875 40.921875 40.578125 39.3125 
z
" id="DejaVuSans-51"/>
       </defs>
       <use xlink:href="#DejaVuSans-51"/>
      </g>
     </g>
    </g>
    <g id="ytick_5">
     <g id="line2d_14">
      <g>
       <use style="stroke:#000000;stroke-width:0.8;" x="216" xlink:href="#ma4cabf5fc6" y="320.067822"/>
      </g>
     </g>
     <g id="text_15">
      <!-- 4 -->
      <g transform="translate(202.6375 323.86704)scale(0.1 -0.1)">
       <defs>
        <path d="M 37.796875 64.3125 
L 12.890625 25.390625 
L 37.796875 25.390625 
z
M 35.203125 72.90625 
L 47.609375 72.90625 
L 47.609375 25.390625 
L 58.015625 25.390625 
L 58.015625 17.1875 
L 47.609375 17.1875 
L 47.609375 0 
L 37.796875 0 
L 37.796875 17.1875 
L 4.890625 17.1875 
L 4.890625 26.703125 
z
" id="DejaVuSans-52"/>
       </defs>
       <use xlink:href="#DejaVuSans-52"/>
      </g>
     </g>
    </g>
    <g id="ytick_6">
     <g id="line2d_15">
      <g>
       <use style="stroke:#000000;stroke-width:0.8;" x="216" xlink:href="#ma4cabf5fc6" y="216.598049"/>
      </g>
     </g>
     <g id="text_16">
      <!-- 5 -->
      <g transform="translate(202.6375 220.397268)scale(0.1 -0.1)">
       <use xlink:href="#DejaVuSans-53"/>
      </g>
     </g>
    </g>
    <g id="ytick_7">
     <g id="line2d_16">
      <g>
       <use style="stroke:#000000;stroke-width:0.8;" x="216" xlink:href="#ma4cabf5fc6" y="113.128277"/>
      </g>
     </g>
     <g id="text_17">
      <!-- 6 -->
      <g transform="translate(202.6375 116.927496)scale(0.1 -0.1)">
       <defs>
        <path d="M 33.015625 40.375 
Q 26.375 40.375 22.484375 35.828125 
Q 18.609375 31.296875 18.609375 23.390625 
Q 18.609375 15.53125 22.484375 10.953125 
Q 26.375 6.390625 33.015625 6.390625 
Q 39.65625 6.390625 43.53125 10.953125 
Q 47.40625 15.53125 47.40625 23.390625 
Q 47.40625 31.296875 43.53125 35.828125 
Q 39.65625 40.375 33.015625 40.375 
z
M 52.59375 71.296875 
L 52.59375 62.3125 
Q 48.875 64.0625 45.09375 64.984375 
Q 41.3125 65.921875 37.59375 65.921875 
Q 27.828125 65.921875 22.671875 59.328125 
Q 17.53125 52.734375 16.796875 39.40625 
Q 19.671875 43.65625 24.015625 45.921875 
Q 28.375 48.1875 33.59375 48.1875 
Q 44.578125 48.1875 50.953125 41.515625 
Q 57.328125 34.859375 57.328125 23.390625 
Q 57.328125 12.15625 50.6875 5.359375 
Q 44.046875 -1.421875 33.015625 -1.421875 
Q 20.359375 -1.421875 13.671875 8.265625 
Q 6.984375 17.96875 6.984375 36.375 
Q 6.984375 53.65625 15.1875 63.9375 
Q 23.390625 74.21875 37.203125 74.21875 
Q 40.921875 74.21875 44.703125 73.484375 
Q 48.484375 72.75 52.59375 71.296875 
z
" id="DejaVuSans-54"/>
       </defs>
       <use xlink:href="#DejaVuSans-54"/>
      </g>
     </g>
    </g>
    <g id="text_18">
     <!-- Time, ms -->
     <g transform="translate(196.557812 459.206719)rotate(-90)scale(0.1 -0.1)">
      <defs>
       <path d="M -0.296875 72.90625 
L 61.375 72.90625 
L 61.375 64.59375 
L 35.5 64.59375 
L 35.5 0 
L 25.59375 0 
L 25.59375 64.59375 
L -0.296875 64.59375 
z
" id="DejaVuSans-84"/>
       <path d="M 9.421875 54.6875 
L 18.40625 54.6875 
L 18.40625 0 
L 9.421875 0 
z
M 9.421875 75.984375 
L 18.40625 75.984375 
L 18.40625 64.59375 
L 9.421875 64.59375 
z
" id="DejaVuSans-105"/>
       <path d="M 52 44.1875 
Q 55.375 50.25 60.0625 53.125 
Q 64.75 56 71.09375 56 
Q 79.640625 56 84.28125 50.015625 
Q 88.921875 44.046875 88.921875 33.015625 
L 88.921875 0 
L 79.890625 0 
L 79.890625 32.71875 
Q 79.890625 40.578125 77.09375 44.375 
Q 74.3125 48.1875 68.609375 48.1875 
Q 61.625 48.1875 57.5625 43.546875 
Q 53.515625 38.921875 53.515625 30.90625 
L 53.515625 0 
L 44.484375 0 
L 44.484375 32.71875 
Q 44.484375 40.625 41.703125 44.40625 
Q 38.921875 48.1875 33.109375 48.1875 
Q 26.21875 48.1875 22.15625 43.53125 
Q 18.109375 38.875 18.109375 30.90625 
L 18.109375 0 
L 9.078125 0 
L 9.078125 54.6875 
L 18.109375 54.6875 
L 18.109375 46.1875 
Q 21.1875 51.21875 25.484375 53.609375 
Q 29.78125 56 35.6875 56 
Q 41.65625 56 45.828125 52.96875 
Q 50 49.953125 52 44.1875 
z
" id="DejaVuSans-109"/>
       <path d="M 11.71875 12.40625 
L 22.015625 12.40625 
L 22.015625 4 
L 14.015625 -11.625 
L 7.71875 -11.625 
L 11.71875 4 
z
" id="DejaVuSans-44"/>
       <path d="M 44.28125 53.078125 
L 44.28125 44.578125 
Q 40.484375 46.53125 36.375 47.5 
Q 32.28125 48.484375 27.875 48.484375 
Q 21.1875 48.484375 17.84375 46.4375 
Q 14.5 44.390625 14.5 40.28125 
Q 14.5 37.15625 16.890625 35.375 
Q 19.28125 33.59375 26.515625 31.984375 
L 29.59375 31.296875 
Q 39.15625 29.25 43.1875 25.515625 
Q 47.21875 21.78125 47.21875 15.09375 
Q 47.21875 7.46875 41.1875 3.015625 
Q 35.15625 -1.421875 24.609375 -1.421875 
Q 20.21875 -1.421875 15.453125 -0.5625 
Q 10.6875 0.296875 5.421875 2 
L 5.421875 11.28125 
Q 10.40625 8.6875 15.234375 7.390625 
Q 20.0625 6.109375 24.8125 6.109375 
Q 31.15625 6.109375 34.5625 8.28125 
Q 37.984375 10.453125 37.984375 14.40625 
Q 37.984375 18.0625 35.515625 20.015625 
Q 33.0625 21.96875 24.703125 23.78125 
L 21.578125 24.515625 
Q 13.234375 26.265625 9.515625 29.90625 
Q 5.8125 33.546875 5.8125 39.890625 
Q 5.8125 47.609375 11.28125 51.796875 
Q 16.75 56 26.8125 56 
Q 31.78125 56 36.171875 55.265625 
Q 40.578125 54.546875 44.28125 53.078125 
z
" id="DejaVuSans-115"/>
      </defs>
      <use xlink:href="#DejaVuSans-84"/>
      <use x="57.958984" xlink:href="#DejaVuSans-105"/>
      <use x="85.742188" xlink:href="#DejaVuSans-109"/>
      <use x="183.154297" xlink:href="#DejaVuSans-101"/>
      <use x="244.677734" xlink:href="#DejaVuSans-44"/>
      <use x="276.464844" xlink:href="#DejaVuSans-32"/>
      <use x="308.251953" xlink:href="#DejaVuSans-109"/>
      <use x="405.664062" xlink:href="#DejaVuSans-115"/>
     </g>
    </g>
   </g>
   <g id="line2d_17">
    <path clip-path="url(#p3530584c61)" d="M 276.872727 733.650881 
L 277.482064 733.527536 
L 278.0914 733.626212 
L 281.138084 733.108161 
L 282.356757 732.590109 
L 283.57543 732.713455 
L 284.184767 732.195404 
L 284.794103 732.318749 
L 285.40344 732.072058 
L 286.012776 731.973382 
L 286.622113 730.123198 
L 287.23145 731.356654 
L 288.450123 731.45533 
L 289.668796 730.739926 
L 290.278133 731.159301 
L 290.887469 725.88011 
L 291.496806 730.961948 
L 292.106143 730.641249 
L 292.715479 730.937279 
L 293.934152 730.838602 
L 295.152826 730.320551 
L 295.762162 730.443896 
L 296.371499 730.221874 
L 296.980835 729.703823 
L 297.590172 729.605146 
L 298.199509 729.901176 
L 298.808845 729.185771 
L 299.418182 729.901176 
L 300.027518 724.029926 
L 301.246192 728.050992 
L 301.855528 726.792867 
L 302.464865 727.853639 
L 303.074201 723.684559 
L 303.683538 727.162904 
L 304.292875 726.274816 
L 304.902211 726.496838 
L 305.511548 725.460735 
L 306.120885 728.273014 
L 306.730221 727.434264 
L 307.339558 727.310919 
L 307.948894 726.003455 
L 308.558231 727.730294 
L 309.776904 727.310919 
L 310.386241 727.730294 
L 310.995577 725.88011 
L 311.604914 727.039558 
L 312.214251 727.014889 
L 313.432924 726.669522 
L 314.04226 724.720661 
L 314.651597 724.424632 
L 315.260934 724.325956 
L 315.87027 725.954117 
L 316.479607 725.263382 
L 317.088943 725.855441 
L 317.69828 725.485404 
L 318.307617 725.855441 
L 318.916953 724.819338 
L 319.52629 725.658088 
L 320.135627 725.485404 
L 320.744963 723.807904 
L 321.3543 723.314522 
L 321.963636 725.04136 
L 322.572973 724.720661 
L 323.18231 724.745331 
L 324.400983 721.834375 
L 325.010319 723.289853 
L 325.619656 723.709228 
L 326.228993 723.462536 
L 326.838329 719.762169 
L 328.057002 720.082868 
L 328.666339 720.378897 
L 329.275676 721.661691 
L 329.885012 723.487206 
L 330.494349 720.378897 
L 331.103686 718.208015 
L 331.713022 722.475772 
L 332.322359 724.029926 
L 332.931695 722.969154 
L 333.541032 722.993823 
L 334.150369 723.585882 
L 334.759705 722.648456 
L 335.369042 723.314522 
L 335.978378 722.130404 
L 336.587715 722.771801 
L 337.197052 722.993823 
L 337.806388 722.451103 
L 338.415725 722.475772 
L 339.025061 722.673125 
L 339.634398 723.610551 
L 340.853071 721.538345 
L 341.462408 721.538345 
L 342.071744 722.599117 
L 342.681081 721.316323 
L 343.290418 720.378897 
L 343.899754 722.179742 
L 344.509091 720.477573 
L 345.118428 721.735698 
L 345.727764 721.637022 
L 346.337101 713.693566 
L 346.946437 721.637022 
L 347.555774 722.179742 
L 348.165111 721.513676 
L 348.774447 720.206213 
L 349.383784 721.538345 
L 349.99312 721.217647 
L 350.602457 721.217647 
L 351.211794 720.699595 
L 352.430467 721.415 
L 353.64914 719.762169 
L 354.258477 720.600919 
L 354.867813 720.773603 
L 355.47715 719.145441 
L 356.086486 718.849412 
L 357.30516 720.428235 
L 357.914496 719.244118 
L 358.523833 720.428235 
L 359.13317 719.984191 
L 359.742506 719.984191 
L 360.351843 718.701397 
L 360.961179 719.145441 
L 361.570516 717.911985 
L 362.179853 719.392132 
L 362.789189 719.145441 
L 363.398526 718.726066 
L 364.007862 719.046765 
L 364.617199 719.071434 
L 365.835872 717.813309 
L 366.445209 717.813309 
L 367.054545 715.445074 
L 367.663882 717.985993 
L 368.882555 717.985993 
L 369.491892 716.974559 
L 370.101229 717.517279 
L 370.710565 717.49261 
L 371.319902 717.171912 
L 371.929238 715.519081 
L 372.538575 717.49261 
L 373.147912 717.49261 
L 373.757248 716.456507 
L 374.975921 716.801875 
L 375.585258 716.037133 
L 376.194595 715.54375 
L 376.803931 716.456507 
L 377.413268 715.395736 
L 378.022604 715.519081 
L 379.241278 713.274192 
L 379.850614 715.198383 
L 380.459951 713.372868 
L 381.069287 714.803677 
L 382.897297 714.803677 
L 383.506634 714.680331 
L 384.115971 713.792243 
L 384.725307 713.989596 
L 385.334644 713.471544 
L 385.94398 711.91739 
L 386.553317 713.545552 
L 387.162654 713.964927 
L 387.77199 712.632795 
L 388.381327 713.150846 
L 388.990663 713.052169 
L 389.6 713.767574 
L 390.209337 712.410772 
L 390.818673 712.509449 
L 391.42801 707.772979 
L 392.037346 710.683934 
L 392.646683 712.016067 
L 393.25602 712.830147 
L 393.865356 712.75614 
L 394.474693 707.550957 
L 395.084029 713.471544 
L 395.693366 712.731471 
L 396.302703 710.23989 
L 396.912039 712.312096 
L 397.521376 711.275993 
L 398.130713 710.979964 
L 398.740049 710.979964 
L 399.349386 711.695368 
L 400.568059 711.695368 
L 401.177396 710.881287 
L 401.786732 711.695368 
L 402.396069 709.943861 
L 403.005405 710.979964 
L 403.614742 708.907758 
L 404.224079 709.746508 
L 404.833415 708.266361 
L 405.442752 709.080442 
L 406.052088 708.389707 
L 406.661425 709.450479 
L 407.270762 709.203787 
L 407.880098 710.461912 
L 408.489435 710.437243 
L 409.098771 709.450479 
L 409.708108 707.871655 
L 410.317445 709.006434 
L 410.926781 709.425809 
L 412.145455 706.440846 
L 412.754791 709.302464 
L 413.364128 707.624964 
L 413.973464 708.710405 
L 414.582801 708.611729 
L 415.192138 707.871655 
L 415.801474 710.363236 
L 416.410811 710.757942 
L 417.020147 708.167684 
L 417.629484 702.395111 
L 418.238821 709.746508 
L 418.848157 707.254927 
L 419.457494 709.919192 
L 420.06683 709.006434 
L 420.676167 709.425809 
L 421.285504 708.389707 
L 421.89484 708.488383 
L 422.504177 707.156251 
L 423.113514 706.638199 
L 423.72285 709.12978 
L 424.332187 709.031104 
L 424.941523 708.389707 
L 425.55086 709.746508 
L 426.769533 708.29103 
L 427.37887 708.167684 
L 427.988206 708.809082 
L 428.597543 705.799449 
L 429.20688 705.478751 
L 429.816216 706.317501 
L 430.425553 704.047942 
L 431.034889 706.095479 
L 431.644226 706.416177 
L 432.253563 706.317501 
L 432.862899 706.712207 
L 433.472236 706.416177 
L 434.081572 705.281398 
L 434.690909 703.209192 
L 435.300246 705.084045 
L 435.909582 705.306067 
L 436.518919 704.886692 
L 437.128256 704.960699 
L 437.737592 699.780185 
L 438.346929 705.996802 
L 438.956265 703.82592 
L 439.565602 703.2832 
L 440.174939 705.084045 
L 440.784275 697.461288 
L 441.393612 704.985369 
L 442.002948 702.789817 
L 442.612285 694.550332 
L 443.221622 701.260332 
L 443.830958 701.359008 
L 444.440295 705.898126 
L 445.049631 703.135185 
L 445.658968 701.753714 
L 446.877641 703.727244 
L 447.486978 702.617133 
L 448.096314 703.850589 
L 448.705651 702.789817 
L 449.314988 700.816288 
L 449.924324 704.368641 
L 450.533661 691.022649 
L 451.142998 703.529891 
L 451.752334 702.814486 
L 452.361671 704.047942 
L 452.971007 703.431214 
L 453.580344 700.939633 
L 454.189681 701.87706 
L 454.799017 701.901729 
L 455.408354 699.63217 
L 456.01769 702.913163 
L 456.627027 701.679707 
L 457.236364 701.433016 
L 457.8457 684.658017 
L 458.455037 690.405921 
L 459.064373 701.778383 
L 459.67371 701.852391 
L 460.283047 700.939633 
L 460.892383 702.197758 
L 461.50172 700.544928 
L 462.111057 697.41195 
L 462.720393 701.852391 
L 463.32973 700.125553 
L 463.939066 699.903531 
L 465.15774 701.704376 
L 465.767076 698.349376 
L 466.376413 693.933605 
L 467.595086 699.706178 
L 468.204423 696.079818 
L 468.813759 699.706178 
L 469.423096 699.903531 
L 470.032432 698.127354 
L 470.641769 693.884266 
L 471.251106 697.806656 
L 471.860442 698.028678 
L 472.469779 694.229634 
L 473.079115 696.721215 
L 473.688452 698.226031 
L 474.297789 697.855994 
L 474.907125 699.9282 
L 475.516462 696.696546 
L 476.125799 697.41195 
L 476.735135 698.768751 
L 477.344472 698.546729 
L 477.953808 696.474523 
L 478.563145 695.882465 
L 479.172482 697.313273 
L 479.781818 699.212795 
L 480.391155 696.597869 
L 481.000491 698.448053 
L 482.219165 689.369818 
L 482.828501 697.189928 
L 483.437838 695.635774 
L 484.047174 697.633972 
L 484.656511 696.400516 
L 485.265848 697.313273 
L 485.875184 694.007612 
L 486.484521 692.058752 
L 487.093857 695.857796 
L 487.703194 686.878237 
L 488.312531 696.104487 
L 488.921867 690.99798 
L 489.531204 688.950443 
L 490.140541 671.139341 
L 490.749877 693.908935 
L 491.359214 655.943166 
L 493.187224 690.479928 
L 493.79656 687.889671 
L 495.015233 686.779561 
L 495.62457 675.875812 
L 496.233907 688.703752 
L 496.843243 666.057503 
L 497.45258 688.728421 
L 498.061916 670.547282 
L 498.671253 689.147796 
L 499.28059 689.8632 
L 499.889926 687.692318 
L 500.499263 675.308422 
L 501.1086 678.096032 
L 501.717936 674.445003 
L 502.936609 690.800627 
L 503.545946 689.641178 
L 504.155283 683.153201 
L 504.764619 678.811436 
L 505.373956 682.413127 
L 505.983292 689.172465 
L 506.592629 680.242245 
L 507.201966 673.532245 
L 507.811302 676.714561 
L 508.420639 684.707355 
L 509.029975 685.151399 
L 509.639312 686.360186 
L 510.248649 684.904708 
L 510.857985 685.718789 
L 511.467322 684.460664 
L 512.076658 688.111693 
L 512.685995 681.895076 
L 513.295332 687.593642 
L 513.904668 686.23684 
L 514.514005 684.28798 
L 515.123342 681.673054 
L 515.732678 687.988348 
L 516.342015 682.215774 
L 516.951351 683.868605 
L 517.560688 684.189304 
L 518.170025 682.511804 
L 518.779361 683.646583 
L 519.388698 686.014818 
L 519.998034 679.107466 
L 520.607371 682.215774 
L 521.216708 683.769929 
L 521.826044 687.470296 
L 522.435381 687.322281 
L 523.044717 686.779561 
L 523.654054 687.889671 
L 524.263391 684.880039 
L 524.872727 685.817465 
L 525.482064 678.811436 
L 526.0914 686.039487 
L 526.700737 687.396289 
L 527.310074 681.919745 
L 527.91941 685.620112 
L 528.528747 686.680884 
L 529.138084 683.868605 
L 529.74742 685.028054 
L 530.356757 679.625517 
L 530.966093 680.044892 
L 531.57543 683.769929 
L 532.184767 683.128532 
L 532.794103 683.251877 
L 533.40344 682.117098 
L 534.012776 683.572576 
L 534.622113 682.536473 
L 535.23145 687.396289 
L 535.840786 682.857171 
L 536.450123 683.967282 
L 537.059459 684.58401 
L 537.668796 684.510002 
L 538.278133 684.263311 
L 538.887469 685.817465 
L 539.496806 682.215774 
L 540.106143 672.175444 
L 540.715479 685.299414 
L 541.324816 683.251877 
L 541.934152 683.424561 
L 542.543489 680.982319 
L 543.152826 684.510002 
L 543.762162 677.750664 
L 544.371499 683.547907 
L 544.980835 682.215774 
L 545.590172 683.868605 
L 546.199509 681.50037 
L 546.808845 680.538274 
L 547.418182 682.437796 
L 548.027518 670.818643 
L 548.636855 681.179671 
L 549.246192 683.942612 
L 549.855528 683.251877 
L 550.464865 681.253679 
L 551.074201 680.168238 
L 551.683538 683.029855 
L 552.292875 681.352355 
L 552.902211 680.982319 
L 553.511548 682.709157 
L 554.120885 679.946216 
L 554.730221 679.625517 
L 555.339558 682.832502 
L 555.948894 684.065958 
L 556.558231 678.786767 
L 557.167568 682.215774 
L 557.776904 679.329488 
L 558.386241 682.117098 
L 558.995577 670.843312 
L 559.604914 679.008789 
L 560.214251 680.365591 
L 560.823587 674.445003 
L 561.432924 672.816841 
L 562.04226 666.057503 
L 562.651597 681.056326 
L 563.87027 681.080995 
L 564.479607 680.439598 
L 565.088943 681.895076 
L 565.69828 681.475701 
L 566.307617 674.469672 
L 566.916953 676.640554 
L 567.52629 675.703128 
L 568.135627 678.367392 
L 568.744963 678.293385 
L 569.3543 652.19346 
L 569.963636 670.547282 
L 570.572973 673.112871 
L 571.18231 673.310223 
L 571.791646 673.704929 
L 572.400983 673.729598 
L 573.010319 677.87401 
L 573.619656 664.20732 
L 574.228993 679.107466 
L 574.838329 671.16401 
L 575.447666 674.987723 
L 576.057002 672.372797 
L 576.666339 670.399268 
L 577.275676 677.158606 
L 577.885012 668.327062 
L 578.494349 676.640554 
L 579.103686 667.907687 
L 579.713022 679.526841 
L 580.322359 667.710334 
L 580.931695 677.158606 
L 581.541032 671.953422 
L 582.150369 673.729598 
L 582.759705 669.264488 
L 583.369042 674.568348 
L 583.978378 669.905885 
L 584.587715 674.124304 
L 585.197052 672.989525 
L 585.806388 668.869783 
L 586.415725 673.310223 
L 587.025061 674.667025 
L 587.634398 668.450408 
L 588.243735 673.532245 
L 588.853071 676.517209 
L 590.681081 641.955777 
L 591.290418 655.301769 
L 591.899754 671.139341 
L 592.509091 673.4089 
L 593.118428 672.372797 
L 594.337101 672.816841 
L 594.946437 674.617687 
L 595.555774 669.881216 
L 596.165111 654.759048 
L 596.774447 672.594819 
L 597.383784 673.606253 
L 597.99312 670.62129 
L 598.602457 672.076768 
L 599.211794 672.397466 
L 599.82113 671.756069 
L 600.430467 664.947393 
L 601.039803 666.970261 
L 601.64914 671.953422 
L 602.258477 669.708532 
L 602.867813 671.558716 
L 603.47715 664.947393 
L 604.086486 669.289158 
L 604.695823 667.907687 
L 605.30516 668.573753 
L 605.914496 671.657393 
L 606.523833 667.512981 
L 607.13317 672.372797 
L 607.742506 670.497944 
L 608.351843 672.076768 
L 608.961179 670.645959 
L 609.570516 673.704929 
L 610.179853 665.88482 
L 610.789189 671.238018 
L 611.398526 658.730776 
L 612.007862 671.139341 
L 612.617199 672.594819 
L 613.226536 615.781845 
L 613.835872 659.248827 
L 614.445209 663.886621 
L 615.054545 656.535225 
L 615.663882 670.004562 
L 616.273219 665.440775 
L 616.882555 666.674231 
L 617.491892 663.689268 
L 618.101229 670.004562 
L 618.710565 666.575555 
L 619.319902 665.638128 
L 620.538575 667.735003 
L 621.147912 665.465445 
L 621.757248 666.797577 
L 622.366585 666.772908 
L 622.975921 663.985298 
L 623.585258 651.601401 
L 624.194595 664.404673 
L 624.803931 665.86015 
L 625.413268 665.958827 
L 626.022604 641.240373 
L 627.241278 628.116403 
L 627.850614 648.789122 
L 628.459951 646.840262 
L 629.069287 650.737982 
L 629.678624 592.913574 
L 630.287961 635.023755 
L 630.897297 647.580335 
L 631.506634 632.1128 
L 632.115971 634.110998 
L 632.725307 637.41666 
L 633.334644 655.005739 
L 633.94398 647.358313 
L 634.553317 648.986475 
L 635.162654 653.87096 
L 635.77199 651.478056 
L 636.381327 653.87096 
L 636.990663 639.36552 
L 637.6 633.790299 
L 638.818673 655.721144 
L 639.42801 655.844489 
L 640.037346 645.48346 
L 640.646683 656.140519 
L 641.25602 652.020776 
L 642.474693 653.352909 
L 643.084029 646.840262 
L 643.693366 652.19346 
L 644.302703 647.333644 
L 644.912039 647.876365 
L 646.130713 656.461217 
L 646.740049 649.381181 
L 647.349386 653.451585 
L 647.958722 655.030408 
L 648.568059 654.907063 
L 649.177396 653.87096 
L 649.786732 655.943166 
L 650.396069 649.701879 
L 651.005405 648.394416 
L 651.614742 651.675409 
L 652.224079 653.550261 
L 652.833415 650.441953 
L 653.442752 655.918497 
L 654.052088 653.352909 
L 654.661425 662.159783 
L 655.270762 655.400445 
L 655.880098 656.979269 
L 656.489435 661.197687 
L 657.098771 632.236145 
L 657.708108 661.39504 
L 658.317445 658.089379 
L 658.926781 653.03221 
L 659.536118 650.540629 
L 660.145455 645.582137 
L 660.754791 651.700078 
L 661.364128 650.145923 
L 661.973464 655.030408 
L 662.582801 657.349305 
L 663.192138 647.753019 
L 663.801474 634.308351 
L 664.410811 657.892026 
L 665.020147 650.885997 
L 665.629484 659.150151 
L 666.238821 648.986475 
L 666.848157 649.849894 
L 667.457494 651.058681 
L 668.06683 652.834857 
L 668.676167 655.005739 
L 669.285504 653.007541 
L 669.89484 652.933534 
L 670.504177 634.185005 
L 671.113514 654.389011 
L 671.72285 651.971438 
L 672.332187 648.912468 
L 672.941523 654.907063 
L 673.55086 642.917872 
L 674.160197 650.343276 
L 674.769533 646.519563 
L 675.37887 653.03221 
L 675.988206 648.147725 
L 676.597543 650.145923 
L 677.20688 648.073718 
L 677.816216 649.430519 
L 678.425553 655.721144 
L 679.034889 652.415482 
L 679.644226 637.441329 
L 680.253563 648.887799 
L 680.862899 639.562873 
L 681.472236 627.475006 
L 682.081572 629.744564 
L 682.690909 650.663975 
L 683.300246 644.126659 
L 683.909582 641.339049 
L 684.518919 648.073718 
L 685.128256 648.468424 
L 685.737592 638.255409 
L 686.346929 644.743387 
L 686.956265 646.61824 
L 687.565602 645.680813 
L 688.174939 650.441953 
L 688.784275 650.663975 
L 689.393612 637.589343 
L 690.002948 631.619417 
L 690.612285 647.876365 
L 691.221622 653.550261 
L 691.830958 651.478056 
L 692.440295 630.805336 
L 693.049631 644.348681 
L 693.658968 653.747614 
L 694.268305 648.369747 
L 694.877641 647.530997 
L 695.486978 643.090556 
L 696.096314 654.191658 
L 696.705651 646.198865 
L 697.314988 646.815593 
L 697.924324 650.343276 
L 698.533661 652.094784 
L 699.142998 642.917872 
L 699.752334 643.953975 
L 700.361671 638.329417 
L 700.971007 650.960004 
L 701.580344 636.28188 
L 702.189681 652.415482 
L 702.799017 644.66938 
L 703.408354 648.073718 
L 704.01769 641.561071 
L 704.627027 650.466622 
L 705.236364 627.055631 
L 705.8457 635.221108 
L 706.455037 639.488865 
L 707.064373 647.555666 
L 707.67371 645.77949 
L 708.283047 632.334822 
L 708.892383 647.234968 
L 709.50172 640.006917 
L 710.111057 647.210299 
L 710.720393 645.286108 
L 711.32973 570.045303 
L 711.939066 644.546034 
L 712.548403 644.866733 
L 713.15774 648.764453 
L 713.767076 646.001512 
L 714.376413 606.802286 
L 714.985749 635.418461 
L 715.595086 642.177799 
L 716.204423 639.513534 
L 716.813759 582.675891 
L 717.423096 640.74699 
L 718.032432 639.587542 
L 718.641769 643.189233 
L 719.251106 638.748792 
L 719.860442 622.935888 
L 720.469779 644.644711 
L 721.079115 605.544162 
L 721.688452 616.595926 
L 722.297789 593.03692 
L 722.907125 581.343759 
L 723.516462 608.455117 
L 724.125799 612.994235 
L 724.735135 612.081477 
L 725.344472 630.336623 
L 725.953808 632.458167 
L 726.563145 633.49427 
L 727.172482 627.993057 
L 727.781818 628.708462 
L 728.391155 639.266843 
L 729.609828 619.605558 
L 730.219165 629.547211 
L 730.828501 630.262616 
L 731.437838 626.364896 
L 732.047174 632.828204 
L 732.656511 633.790299 
L 733.265848 636.158535 
L 733.875184 641.240373 
L 734.484521 635.418461 
L 735.093857 577.692729 
L 735.703194 625.723498 
L 736.312531 631.619417 
L 736.921867 631.81677 
L 737.531204 626.216881 
L 738.749877 640.20427 
L 739.96855 635.344454 
L 740.577887 635.344454 
L 741.187224 632.063461 
L 741.79656 634.505704 
L 742.405897 628.831807 
L 743.015233 592.296846 
L 743.62457 625.106771 
L 744.233907 622.911219 
L 744.843243 629.349859 
L 745.45258 542.835268 
L 746.061916 636.28188 
L 746.671253 621.899786 
L 747.28059 628.930484 
L 747.889926 619.112175 
L 748.499263 621.998462 
L 749.1086 628.387763 
L 749.717936 626.537579 
L 750.327273 625.328793 
L 750.936609 621.801109 
L 751.545946 626.463572 
L 752.155283 629.423866 
L 752.764619 626.858278 
L 753.373956 630.361292 
L 753.983292 619.901587 
L 754.592629 623.429271 
L 755.201966 577.470707 
L 755.811302 632.458167 
L 756.420639 636.059858 
L 757.029975 630.459969 
L 757.639312 636.799932 
L 758.248649 622.61519 
L 758.857985 634.826402 
L 759.467322 632.334822 
L 760.076658 632.433498 
L 760.685995 627.499675 
L 761.295332 633.790299 
L 761.904668 631.619417 
L 762.514005 613.41361 
L 763.123342 613.290264 
L 763.732678 623.034565 
L 764.342015 622.195815 
L 764.951351 620.444308 
L 765.560688 623.45394 
L 766.170025 604.286037 
L 766.779361 614.474382 
L 767.388698 630.040594 
L 767.998034 632.1128 
L 768.607371 626.537579 
L 769.216708 628.091734 
L 769.826044 631.002689 
L 770.435381 604.705412 
L 771.044717 626.340226 
L 771.654054 626.044197 
L 772.263391 623.231918 
L 772.872727 625.550815 
L 773.482064 625.008094 
L 774.0914 623.651293 
L 774.700737 623.330594 
L 775.310074 611.242727 
L 775.91941 623.355263 
L 776.528747 611.242727 
L 777.138084 625.945521 
L 777.74742 615.140448 
L 778.356757 624.810741 
L 779.57543 617.829381 
L 780.184767 613.709639 
L 780.794103 629.127837 
L 781.40344 610.403977 
L 782.012776 633.49427 
L 782.622113 608.973169 
L 783.23145 626.142873 
L 783.840786 628.930484 
L 784.450123 626.537579 
L 785.059459 601.621772 
L 785.668796 565.629532 
L 786.278133 598.094088 
L 786.887469 574.362399 
L 787.496806 582.478538 
L 788.106143 608.973169 
L 788.715479 612.870889 
L 789.324816 598.192765 
L 789.934152 615.387139 
L 790.543489 619.53155 
L 791.152826 616.077874 
L 791.762162 617.558021 
L 792.371499 611.242727 
L 792.980835 627.400998 
L 793.590172 626.636256 
L 794.199509 617.656698 
L 794.808845 624.144675 
L 795.418182 615.239124 
L 796.027518 627.450337 
L 796.636855 610.798683 
L 797.246192 589.509236 
L 797.855528 591.778795 
L 798.464865 461.624538 
L 799.074201 618.6928 
L 799.683538 599.845596 
L 800.292875 599.746919 
L 800.902211 612.895558 
L 801.511548 608.677139 
L 802.120885 614.153683 
L 802.730221 602.139824 
L 803.339558 614.745742 
L 803.948894 615.584492 
L 804.558231 616.102543 
L 805.167568 615.06644 
L 805.776904 613.783646 
L 806.386241 578.210781 
L 806.995577 566.22159 
L 807.604914 612.476183 
L 808.214251 612.476183 
L 808.823587 603.471956 
L 809.432924 612.500852 
L 810.04226 608.233095 
L 810.651597 607.81372 
L 811.260934 618.051403 
L 811.87027 607.838389 
L 812.479607 617.015301 
L 813.088943 598.192765 
L 813.69828 614.425043 
L 814.307617 616.102543 
L 814.916953 623.749969 
L 815.52629 602.337176 
L 816.135627 620.616991 
L 816.744963 623.971991 
L 817.3543 606.777617 
L 817.963636 610.848021 
L 818.572973 624.169344 
L 819.18231 623.971991 
L 819.791646 615.36247 
L 820.400983 618.766808 
L 821.010319 609.984602 
L 822.228993 623.256587 
L 822.838329 620.962359 
L 823.447666 616.102543 
L 824.057002 616.719271 
L 824.666339 610.477985 
L 825.275676 612.476183 
L 825.885012 608.65247 
L 826.494349 612.476183 
L 827.103686 609.170522 
L 827.713022 615.36247 
L 828.322359 601.39975 
L 828.931695 614.129014 
L 829.541032 613.610962 
L 830.150369 605.642838 
L 830.759705 609.910595 
L 831.369042 600.881699 
L 831.978378 596.342581 
L 832.587715 613.487617 
L 833.197052 618.569455 
L 833.806388 618.347433 
L 834.415725 611.859455 
L 835.025061 615.140448 
L 835.634398 621.579087 
L 836.243735 614.647065 
L 836.853071 612.180154 
L 837.462408 554.405084 
L 838.071744 577.717399 
L 838.681081 624.786072 
L 839.290418 621.159712 
L 839.899754 610.724676 
L 840.509091 620.246955 
L 841.118428 613.092911 
L 841.727764 612.599529 
L 842.337101 608.874492 
L 842.946437 590.964714 
L 843.555774 609.269198 
L 844.165111 600.980375 
L 844.774447 607.196992 
L 845.383784 580.603685 
L 845.99312 618.446109 
L 846.602457 614.548389 
L 847.211794 611.538757 
L 847.82113 615.263793 
L 848.430467 599.105522 
L 849.039803 598.908169 
L 849.64914 605.223463 
L 850.258477 598.266772 
L 850.867813 611.44008 
L 851.47715 618.668131 
L 852.086486 618.98883 
L 852.695823 617.237323 
L 853.30516 607.073647 
L 853.914496 616.842617 
L 854.523833 557.414716 
L 855.13317 561.460451 
L 855.742506 600.363647 
L 856.351843 593.234273 
L 856.961179 599.327544 
L 857.570516 598.414787 
L 858.179853 589.583243 
L 858.789189 606.876294 
L 859.398526 616.595926 
L 860.007862 617.015301 
L 860.617199 613.068242 
L 861.226536 610.823352 
L 861.835872 618.668131 
L 862.445209 595.725853 
L 863.054545 604.828757 
L 863.663882 580.924384 
L 864.273219 600.857029 
L 864.882555 610.700007 
L 865.491892 616.225889 
L 866.101229 601.498426 
L 866.710565 609.392544 
L 867.319902 610.823352 
L 867.929238 610.798683 
L 868.538575 614.844418 
L 869.147912 606.456919 
L 869.757248 609.565227 
L 870.366585 597.255339 
L 870.975921 609.096514 
L 871.585258 570.563355 
L 872.194595 611.144051 
L 872.803931 608.011073 
L 873.413268 609.145852 
L 874.022604 605.840191 
L 874.631941 606.999639 
L 875.241278 609.269198 
L 875.850614 599.968941 
L 876.459951 610.724676 
L 877.069287 606.777617 
L 877.678624 607.81372 
L 878.287961 607.616367 
L 878.897297 611.933463 
L 879.506634 610.502654 
L 880.115971 612.476183 
L 880.725307 615.559823 
L 881.334644 608.726478 
L 881.94398 609.170522 
L 882.553317 600.363647 
L 883.162654 603.792654 
L 883.77199 596.120559 
L 884.381327 596.638611 
L 884.990663 610.60133 
L 885.6 609.466551 
L 886.209337 607.81372 
L 886.818673 603.891331 
L 887.42801 610.403977 
L 888.037346 604.804088 
L 888.646683 606.481588 
L 889.25602 605.470154 
L 889.865356 598.069419 
L 890.474693 589.188538 
L 891.084029 588.053758 
L 891.693366 608.011073 
L 892.302703 594.245706 
L 892.912039 599.130191 
L 893.521376 601.819125 
L 894.130713 603.570632 
L 894.740049 586.400927 
L 895.349386 596.515265 
L 895.958722 598.686147 
L 896.568059 599.820927 
L 897.177396 595.479162 
L 897.786732 583.909347 
L 898.396069 602.139824 
L 899.005405 601.301074 
L 899.614742 597.181331 
L 900.224079 600.363647 
L 900.833415 594.369052 
L 901.442752 597.057986 
L 902.052088 592.913574 
L 902.661425 594.245706 
L 903.880098 577.914752 
L 904.489435 567.800414 
L 905.098771 602.213831 
L 905.708108 584.526075 
L 906.317445 602.213831 
L 906.926781 593.357618 
L 907.536118 603.792654 
L 908.145455 603.669309 
L 908.754791 592.913574 
L 909.364128 596.737287 
L 909.973464 596.021883 
L 910.582801 596.638611 
L 911.192138 591.680118 
L 911.801474 597.699383 
L 912.410811 604.828757 
L 913.020147 593.03692 
L 913.629484 597.057986 
L 914.238821 595.306478 
L 914.848157 585.882876 
L 915.457494 587.511038 
L 916.06683 596.120559 
L 916.676167 592.222839 
L 917.285504 597.156662 
L 917.89484 597.551368 
L 918.504177 590.940045 
L 919.113514 595.109125 
L 919.72285 586.844972 
L 920.332187 600.486993 
L 920.941523 595.405155 
L 921.55086 602.657875 
L 922.160197 597.156662 
L 922.769533 595.725853 
L 923.37887 591.581442 
L 923.988206 589.607913 
L 924.597543 602.213831 
L 925.20688 590.421993 
L 925.816216 588.892508 
L 926.425553 586.203575 
L 927.034889 599.228868 
L 927.644226 593.628978 
L 928.253563 604.606735 
L 928.862899 592.518868 
L 929.472236 587.43703 
L 930.081572 591.556773 
L 930.690909 598.192765 
L 931.300246 597.699383 
L 931.909582 591.655449 
L 932.518919 600.264971 
L 933.128256 594.270375 
L 933.737592 596.761956 
L 934.346929 587.215008 
L 934.956265 584.353391 
L 935.565602 573.992362 
L 936.174939 590.545339 
L 936.784275 598.488794 
L 937.393612 590.446662 
L 938.002948 569.206554 
L 938.612285 567.159017 
L 939.221622 507.361079 
L 939.830958 507.459756 
L 940.440295 509.630638 
L 941.049631 561.164422 
L 941.658968 503.093322 
L 942.268305 493.472367 
L 942.877641 568.515818 
L 943.486978 575.743869 
L 944.096314 578.013428 
L 944.705651 568.071774 
L 945.314988 566.764311 
L 945.924324 578.457472 
L 946.533661 580.603685 
L 947.142998 577.076002 
L 947.752334 574.510413 
L 948.361671 582.552545 
L 948.971007 595.799861 
L 949.580344 580.825707 
L 950.189681 596.120559 
L 950.799017 588.892508 
L 951.408354 592.716221 
L 952.01769 590.22464 
L 952.627027 570.760708 
L 953.236364 595.5285 
L 953.8457 580.702362 
L 954.455037 594.467728 
L 955.064373 599.45089 
L 955.67371 589.68192 
L 956.283047 574.535083 
L 956.892383 589.607913 
L 957.50172 591.162067 
L 958.111057 573.153612 
L 958.720393 568.885855 
L 959.32973 588.670486 
L 959.939066 595.577839 
L 960.548403 597.551368 
L 961.15774 572.610892 
L 961.767076 587.73306 
L 962.376413 564.050708 
L 962.985749 566.640965 
L 963.595086 581.639788 
L 964.204423 575.768538 
L 964.813759 585.685523 
L 965.423096 581.343759 
L 966.032432 579.394898 
L 966.641769 580.603685 
L 967.251106 567.775745 
L 967.860442 574.411737 
L 968.469779 578.136774 
L 969.079115 573.77034 
L 969.688452 575.423171 
L 970.297789 580.282987 
L 970.907125 572.857583 
L 971.516462 573.49898 
L 972.125799 570.464678 
L 972.735135 568.811848 
L 973.344472 552.875599 
L 973.953808 593.851001 
L 974.563145 579.34556 
L 975.172482 589.311883 
L 975.781818 576.483943 
L 976.391155 592.395523 
L 977.000491 588.152435 
L 977.609828 586.302251 
L 978.219165 570.14398 
L 978.828501 577.3967 
L 979.437838 587.116332 
L 980.047174 592.395523 
L 980.656511 570.366002 
L 981.265848 587.634383 
L 981.875184 574.091039 
L 982.484521 583.366626 
L 983.093857 587.930413 
L 983.703194 583.613317 
L 984.312531 589.311883 
L 984.921867 563.779348 
L 985.531204 585.981552 
L 986.140541 580.011626 
L 986.749877 587.634383 
L 987.359214 578.531479 
L 987.96855 578.605487 
L 988.577887 574.806443 
L 989.187224 574.165046 
L 989.79656 523.889387 
L 990.405897 576.483943 
L 991.015233 540.861739 
L 991.62457 561.559128 
L 992.233907 556.773319 
L 993.45258 579.789604 
L 994.061916 578.827509 
L 994.671253 566.24626 
L 995.28059 571.377436 
L 995.889926 573.375634 
L 996.499263 584.748097 
L 997.1086 576.163244 
L 997.717936 569.329899 
L 998.327273 575.941222 
L 998.936609 559.906297 
L 999.545946 570.267326 
L 1000.764619 579.468906 
L 1001.373956 560.547694 
L 1001.983292 576.335928 
L 1002.592629 573.77034 
L 1003.201966 581.146406 
L 1003.811302 576.261921 
L 1004.420639 578.013428 
L 1005.029975 571.278759 
L 1005.639312 571.303428 
L 1006.248649 576.261921 
L 1007.467322 568.19512 
L 1008.076658 584.94545 
L 1008.685995 582.577214 
L 1009.295332 569.847951 
L 1009.904668 581.195744 
L 1010.514005 580.727031 
L 1011.123342 578.112104 
L 1011.732678 572.635561 
L 1012.342015 573.276958 
L 1012.951351 583.53931 
L 1013.560688 568.614495 
L 1014.170025 578.531479 
L 1014.779361 575.44784 
L 1015.388698 570.6867 
L 1015.998034 567.035671 
L 1016.607371 565.086811 
L 1017.216708 572.956259 
L 1017.826044 569.206554 
L 1018.435381 471.245494 
L 1019.044717 533.806372 
L 1019.654054 552.653577 
L 1020.263391 554.035047 
L 1020.872727 547.300378 
L 1021.482064 547.078356 
L 1022.0914 557.390047 
L 1022.700737 562.915929 
L 1023.310074 359.247706 
L 1023.91941 428.691268 
L 1024.528747 518.338836 
L 1025.138084 357.816898 
L 1025.74742 508.989241 
L 1026.356757 510.642072 
L 1026.966093 540.985085 
L 1027.57543 518.412843 
L 1028.184767 552.234202 
L 1028.794103 499.466962 
L 1030.012776 553.689679 
L 1030.622113 553.492327 
L 1031.23145 536.223945 
L 1031.840786 502.106558 
L 1032.450123 549.76729 
L 1033.059459 546.757658 
L 1033.668796 490.586081 
L 1034.278133 524.333431 
L 1035.496806 553.936371 
L 1036.106143 532.153541 
L 1037.324816 547.275709 
L 1037.934152 549.668614 
L 1038.543489 512.738947 
L 1039.152826 529.291924 
L 1039.762162 538.814202 
L 1040.371499 500.552403 
L 1040.980835 517.796116 
L 1041.590172 559.930966 
L 1042.199509 487.576448 
L 1042.808845 552.036849 
L 1043.418182 524.92549 
L 1044.027518 553.516996 
L 1044.636855 539.628283 
L 1045.246192 547.917106 
L 1045.855528 559.2649 
L 1046.464865 541.305783 
L 1047.074201 563.310635 
L 1047.683538 563.014605 
L 1048.292875 571.722803 
L 1048.902211 561.682473 
L 1049.511548 557.488723 
L 1050.120885 536.322622 
L 1050.730221 565.086811 
L 1051.339558 565.284164 
L 1051.948894 567.35637 
L 1052.558231 549.545268 
L 1053.167568 565.580193 
L 1053.776904 547.892437 
L 1054.386241 569.03387 
L 1054.995577 560.10365 
L 1056.214251 547.991114 
L 1056.823587 571.599458 
L 1058.04226 552.160194 
L 1058.651597 572.758906 
L 1059.260934 542.292548 
L 1059.87027 559.881628 
L 1060.479607 544.907474 
L 1061.088943 555.046481 
L 1061.69828 555.367179 
L 1062.307617 543.328651 
L 1062.916953 555.367179 
L 1063.52629 536.149938 
L 1065.3543 570.464678 
L 1065.963636 535.187842 
L 1066.572973 555.687878 
L 1067.18231 548.410489 
L 1067.791646 554.528429 
L 1068.400983 551.543466 
L 1069.010319 551.617474 
L 1069.619656 546.881003 
L 1070.228993 538.148136 
L 1070.838329 545.622879 
L 1071.447666 531.33946 
L 1072.057002 557.538062 
L 1072.666339 540.787732 
L 1073.275676 546.239606 
L 1073.885012 548.533834 
L 1074.494349 549.347915 
L 1075.103686 549.668614 
L 1075.713022 534.15174 
L 1076.322359 547.201702 
L 1076.931695 546.560305 
L 1077.541032 538.59218 
L 1078.150369 546.362952 
L 1078.759705 547.769092 
L 1079.369042 539.924313 
L 1079.978378 544.46343 
L 1080.587715 546.042254 
L 1081.197052 548.829864 
L 1081.806388 537.260048 
L 1082.415725 545.524202 
L 1083.025061 536.618651 
L 1083.634398 538.074129 
L 1084.853071 546.338283 
L 1085.462408 538.986886 
L 1086.071744 529.908652 
L 1086.681081 548.854533 
L 1087.290418 526.084939 
L 1087.899754 537.950783 
L 1088.509091 559.166223 
L 1089.118428 545.425526 
L 1089.727764 549.397253 
L 1090.337101 556.082584 
L 1090.946437 557.439385 
L 1091.555774 544.068724 
L 1092.165111 561.263098 
L 1092.774447 566.098245 
L 1093.383784 553.196297 
L 1093.99312 521.200454 
L 1094.602457 560.843723 
L 1095.211794 543.970048 
L 1095.82113 550.384018 
L 1096.430467 545.03082 
L 1097.039803 552.974275 
L 1097.64914 548.435158 
L 1098.258477 549.76729 
L 1098.867813 552.332878 
L 1099.47715 557.094018 
L 1100.086486 552.875599 
L 1100.695823 545.647548 
L 1101.30516 524.012733 
L 1101.914496 426.224357 
L 1102.523833 512.9363 
L 1103.13317 507.459756 
L 1104.351843 546.042254 
L 1104.961179 555.539863 
L 1105.570516 538.000122 
L 1106.179853 554.429753 
L 1106.789189 550.704716 
L 1107.398526 539.948982 
L 1108.007862 546.955011 
L 1108.617199 539.110232 
L 1109.226536 542.933945 
L 1109.835872 538.394828 
L 1110.445209 535.187842 
L 1111.054545 515.921263 
L 1111.663882 532.17821 
L 1112.273219 514.811153 
L 1112.882555 547.078356 
L 1113.491892 551.740819 
L 1114.101229 536.001923 
L 1114.710565 547.917106 
L 1115.319902 522.902623 
L 1115.929238 317.778922 
L 1116.538575 444.430164 
L 1117.147912 522.97663 
L 1117.757248 537.7781 
L 1118.366585 518.018138 
L 1118.975921 543.871371 
L 1119.585258 538.296151 
L 1120.194595 547.892437 
L 1120.803931 499.096926 
L 1121.413268 517.056042 
L 1122.022604 489.994022 
L 1122.631941 473.613729 
L 1123.241278 523.494681 
L 1123.850614 514.293101 
L 1124.459951 519.226924 
L 1125.069287 520.707071 
L 1125.678624 518.412843 
L 1126.287961 534.447769 
L 1126.897297 540.146335 
L 1127.506634 471.418177 
L 1128.115971 513.577697 
L 1128.725307 503.734719 
L 1129.334644 510.864094 
L 1129.94398 535.286519 
L 1130.553317 527.515747 
L 1131.162654 509.01391 
L 1131.77199 498.529536 
L 1132.381327 521.718505 
L 1132.990663 512.418248 
L 1133.6 528.354497 
L 1134.209337 537.457401 
L 1134.818673 526.380968 
L 1136.037346 521.29913 
L 1136.646683 516.858689 
L 1137.25602 544.907474 
L 1137.865356 549.249239 
L 1138.474693 534.250416 
L 1139.084029 535.163173 
L 1139.693366 532.276887 
L 1140.302703 530.106005 
L 1141.521376 521.619829 
L 1142.130713 526.282292 
L 1142.740049 534.447769 
L 1143.349386 529.711299 
L 1143.958722 526.282292 
L 1145.177396 513.651704 
L 1145.786732 520.781079 
L 1147.005405 520.361704 
L 1147.614742 507.139057 
L 1148.224079 518.930895 
L 1148.833415 510.14869 
L 1149.442752 544.389423 
L 1150.052088 532.47424 
L 1150.661425 536.001923 
L 1151.270762 529.908652 
L 1151.880098 509.951337 
L 1152.489435 507.459756 
L 1153.098771 534.867144 
L 1153.708108 524.111409 
L 1154.317445 515.625233 
L 1154.926781 523.173983 
L 1155.536118 546.264276 
L 1156.145455 528.55185 
L 1156.754791 527.515747 
L 1157.364128 531.438137 
L 1157.973464 521.003101 
L 1158.582801 534.96582 
L 1159.192138 534.571115 
L 1159.801474 518.24016 
L 1160.410811 529.908652 
L 1161.020147 533.115637 
L 1161.629484 519.35027 
L 1162.238821 528.650527 
L 1162.848157 508.594535 
L 1163.457494 530.402034 
L 1164.06683 537.457401 
L 1164.676167 533.707695 
L 1165.285504 513.331006 
L 1165.89484 524.530784 
L 1166.504177 541.379791 
L 1167.113514 520.361704 
L 1167.72285 531.240784 
L 1168.332187 536.64332 
L 1168.941523 520.065674 
L 1169.55086 529.513946 
L 1170.160197 515.107182 
L 1170.769533 540.763063 
L 1171.37887 450.227407 
L 1171.988206 521.101777 
L 1172.597543 468.852589 
L 1173.20688 496.481999 
L 1173.816216 469.987369 
L 1174.425553 531.265453 
L 1175.034889 474.945861 
L 1175.644226 533.633688 
L 1176.253563 477.462111 
L 1176.862899 508.273837 
L 1177.472236 532.918284 
L 1178.081572 520.263027 
L 1178.690909 526.899019 
L 1179.300246 510.370712 
L 1179.909582 525.344865 
L 1180.518919 478.892919 
L 1181.128256 526.825012 
L 1181.737592 495.34722 
L 1182.346929 514.786483 
L 1182.956265 476.105309 
L 1183.565602 527.639093 
L 1184.174939 452.718987 
L 1184.784275 513.331006 
L 1185.393612 503.636043 
L 1186.002948 516.069277 
L 1186.612285 464.609501 
L 1187.221622 515.230528 
L 1187.830958 479.929022 
L 1188.440295 531.660159 
L 1189.049631 520.805748 
L 1189.658968 515.625233 
L 1190.268305 518.215491 
L 1191.486978 510.14869 
L 1192.096314 516.241961 
L 1192.705651 515.42788 
L 1193.314988 427.161783 
L 1193.924324 514.983836 
L 1194.533661 520.805748 
L 1195.142998 529.464607 
L 1195.752334 498.97358 
L 1196.361671 516.118616 
L 1196.971007 512.220895 
L 1197.580344 522.433909 
L 1198.189681 520.682402 
L 1198.799017 518.314167 
L 1199.408354 483.432037 
L 1200.01769 521.915858 
L 1200.627027 461.525862 
L 1201.236364 510.568065 
L 1201.8457 447.859171 
L 1202.455037 506.078285 
L 1203.064373 446.50237 
L 1203.67371 521.422476 
L 1204.283047 462.438619 
L 1204.892383 519.05424 
L 1205.50172 505.38755 
L 1206.111057 524.407439 
L 1206.720393 452.398289 
L 1207.32973 516.661336 
L 1208.548403 396.424064 
L 1209.15774 512.319572 
L 1209.767076 494.23711 
L 1210.376413 507.139057 
L 1210.985749 498.060823 
L 1211.595086 501.243139 
L 1212.204423 503.71005 
L 1212.813759 504.351447 
L 1213.423096 185.749813 
L 1214.032432 508.397182 
L 1214.641769 512.714278 
L 1215.251106 502.673947 
L 1215.860442 496.679352 
L 1216.469779 517.919461 
L 1217.079115 485.602919 
L 1217.688452 489.031926 
L 1218.297789 483.456706 
L 1218.907125 504.228102 
L 1219.516462 500.305712 
L 1220.125799 455.925972 
L 1220.735135 475.883287 
L 1221.344472 512.196226 
L 1221.953808 494.829168 
L 1222.563145 512.516925 
L 1223.172482 453.927774 
L 1223.781818 507.435087 
L 1224.391155 486.342993 
L 1225.000491 508.051815 
L 1225.609828 478.251522 
L 1226.219165 503.537366 
L 1226.828501 496.383323 
L 1227.437838 493.571044 
L 1228.047174 462.117921 
L 1228.656511 465.966303 
L 1229.265848 399.631049 
L 1229.875184 440.285753 
L 1231.703194 502.994646 
L 1232.312531 472.774979 
L 1232.921867 490.166706 
L 1233.531204 489.352625 
L 1234.140541 491.918213 
L 1234.749877 478.078839 
L 1235.359214 492.83097 
L 1235.96855 496.901374 
L 1236.577887 509.531962 
L 1237.187224 473.58906 
L 1237.79656 516.167954 
L 1238.405897 512.196226 
L 1239.015233 502.180565 
L 1239.62457 479.731669 
L 1240.233907 394.968587 
L 1240.843243 492.016889 
L 1241.45258 431.084172 
L 1242.061916 470.628766 
L 1242.671253 499.565639 
L 1243.28059 494.187771 
L 1243.889926 495.248543 
L 1244.499263 475.784611 
L 1245.717936 505.486227 
L 1246.327273 508.298506 
L 1246.936609 474.649832 
L 1247.545946 494.50847 
L 1248.155283 506.004278 
L 1248.764619 501.021117 
L 1249.373956 472.577626 
L 1249.983292 503.512697 
L 1250.592629 499.146264 
L 1251.201966 509.334609 
L 1251.811302 475.685934 
L 1252.420639 501.76119 
L 1253.029975 465.127553 
L 1253.639312 505.264205 
L 1254.248649 476.944059 
L 1254.857985 508.890565 
L 1255.467322 499.590308 
L 1256.076658 501.119793 
L 1256.685995 519.769645 
L 1257.295332 521.323799 
L 1257.904668 511.382145 
L 1258.514005 493.052992 
L 1259.123342 493.373691 
L 1259.732678 521.619829 
L 1260.342015 516.537991 
L 1260.951351 507.139057 
L 1261.560688 499.516301 
L 1262.170025 500.207036 
L 1262.779361 505.165528 
L 1263.388698 500.330381 
L 1263.998034 501.465161 
L 1264.607371 493.916411 
L 1265.216708 506.423653 
L 1265.826044 501.415822 
L 1266.435381 461.723215 
L 1267.044717 456.962075 
L 1267.654054 507.361079 
L 1268.263391 473.58906 
L 1268.872727 493.497036 
L 1269.482064 473.29303 
L 1270.0914 505.091521 
L 1270.700737 502.994646 
L 1271.310074 483.012662 
L 1271.91941 428.197886 
L 1272.528747 509.087918 
L 1273.138084 446.699723 
L 1273.74742 473.416376 
L 1274.356757 438.97829 
L 1274.966093 512.418248 
L 1275.57543 454.988546 
L 1276.184767 465.053545 
L 1276.794103 460.440421 
L 1277.40344 497.074058 
L 1278.012776 486.762368 
L 1278.622113 418.675607 
L 1279.23145 487.576448 
L 1279.840786 398.570277 
L 1280.450123 255.711426 
L 1281.059459 489.574647 
L 1281.668796 457.258105 
L 1282.278133 483.234684 
L 1282.887469 399.236344 
L 1283.496806 469.074611 
L 1284.106143 475.587258 
L 1284.715479 446.477701 
L 1285.934152 458.072186 
L 1286.543489 477.980162 
L 1287.152826 455.827296 
L 1287.762162 484.295456 
L 1288.371499 492.041558 
L 1288.980835 441.839907 
L 1289.590172 481.779206 
L 1290.199509 431.404871 
L 1290.808845 469.049942 
L 1291.418182 410.830828 
L 1292.027518 491.696191 
L 1292.636855 489.031926 
L 1293.246192 474.649832 
L 1293.855528 477.116743 
L 1294.464865 467.224428 
L 1295.074201 496.679352 
L 1295.683538 417.639504 
L 1296.292875 492.460933 
L 1296.902211 421.611232 
L 1297.511548 487.033728 
L 1298.120885 439.570348 
L 1298.730221 474.255126 
L 1299.339558 458.096855 
L 1299.948894 475.685934 
L 1300.558231 461.402516 
L 1301.167568 442.678657 
L 1301.776904 488.809904 
L 1302.386241 437.00476 
L 1302.995577 499.072256 
L 1303.604914 471.664868 
L 1304.214251 484.369463 
L 1304.823587 499.516301 
L 1305.432924 444.430164 
L 1306.04226 472.799648 
L 1306.651597 456.641377 
L 1307.260934 491.326154 
L 1307.87027 445.145569 
L 1308.479607 462.660641 
L 1309.088943 433.896452 
L 1309.69828 413.593769 
L 1310.307617 490.191375 
L 1310.916953 445.170238 
L 1311.52629 482.198581 
L 1312.135627 482.716632 
L 1313.3543 451.263509 
L 1313.963636 476.722037 
L 1314.572973 490.980786 
L 1315.18231 412.261637 
L 1315.791646 489.673323 
L 1316.400983 464.609501 
L 1317.010319 447.193105 
L 1317.619656 409.770056 
L 1318.228993 491.819536 
L 1318.838329 480.126375 
L 1319.447666 492.115566 
L 1320.057002 451.880237 
L 1320.666339 438.731598 
L 1321.275676 493.275014 
L 1321.885012 458.096855 
L 1322.494349 475.488581 
L 1323.103686 465.744281 
L 1323.713022 490.191375 
L 1324.322359 492.337588 
L 1324.931695 492.016889 
L 1325.541032 482.247919 
L 1326.150369 486.318323 
L 1326.759705 492.510272 
L 1327.369042 487.773801 
L 1327.978378 490.092698 
L 1328.587715 477.141412 
L 1329.197052 492.016889 
L 1329.806388 424.152151 
L 1330.415725 476.500015 
L 1331.025061 436.560716 
L 1331.634398 453.853767 
L 1332.243735 432.638327 
L 1332.853071 487.675125 
L 1333.462408 475.685934 
L 1334.071744 432.860349 
L 1334.681081 488.217845 
L 1335.290418 433.477077 
L 1335.899754 451.978914 
L 1336.509091 478.078839 
L 1337.118428 469.247295 
L 1337.727764 477.856817 
L 1338.337101 404.07149 
L 1338.946437 484.369463 
L 1339.555774 427.655165 
L 1340.165111 464.09145 
L 1340.774447 398.619616 
L 1341.383784 470.209391 
L 1341.99312 472.602295 
L 1342.602457 423.856121 
L 1343.211794 468.729244 
L 1343.82113 477.659464 
L 1344.430467 446.798399 
L 1345.039803 439.052297 
L 1345.64914 448.895274 
L 1346.258477 359.198368 
L 1346.867813 356.879471 
L 1347.47715 456.024649 
L 1348.086486 458.195531 
L 1348.695823 442.259282 
L 1349.30516 455.629943 
L 1349.914496 456.641377 
L 1350.523833 433.255055 
L 1351.13317 457.455458 
L 1351.742506 446.107664 
L 1352.351843 448.993951 
L 1352.961179 467.323104 
L 1353.570516 447.119098 
L 1354.179853 477.116743 
L 1354.789189 455.111892 
L 1355.398526 454.8652 
L 1356.007862 462.265935 
L 1356.617199 448.155201 
L 1357.226536 471.566192 
L 1357.835872 467.816486 
L 1358.445209 483.62939 
L 1359.054545 454.8652 
L 1359.663882 477.462111 
L 1360.273219 478.473545 
L 1360.882555 473.317699 
L 1361.491892 455.70395 
L 1362.101229 479.608324 
L 1362.710565 479.312294 
L 1363.319902 470.209391 
L 1363.929238 473.071008 
L 1364.538575 472.972332 
L 1365.147912 493.990419 
L 1365.757248 385.347631 
L 1366.366585 414.531196 
L 1366.975921 419.070313 
L 1367.585258 455.605274 
L 1368.194595 477.042736 
L 1368.803931 472.799648 
L 1369.413268 451.164833 
L 1370.022604 456.666046 
L 1370.631941 479.534317 
L 1371.241278 472.059574 
L 1371.850614 423.116048 
L 1372.459951 464.510825 
L 1373.069287 466.583031 
L 1373.678624 485.504243 
L 1374.287961 421.241195 
L 1374.897297 463.277369 
L 1375.506634 465.102884 
L 1376.115971 469.370641 
L 1376.725307 474.945861 
L 1377.334644 478.399537 
L 1377.94398 482.913985 
L 1378.553317 481.483177 
L 1379.162654 485.627588 
L 1379.77199 482.691963 
L 1380.381327 485.208213 
L 1380.990663 482.815309 
L 1381.6 470.801449 
L 1382.209337 472.577626 
L 1382.818673 439.052297 
L 1383.42801 471.862221 
L 1384.037346 454.347149 
L 1384.646683 478.473545 
L 1385.25602 459.675678 
L 1385.865356 469.814685 
L 1386.474693 490.487404 
L 1387.084029 428.493915 
L 1387.693366 479.830346 
L 1388.302703 445.046892 
L 1388.912039 479.213618 
L 1389.521376 453.977112 
L 1390.130713 476.302662 
L 1390.740049 475.069206 
L 1391.349386 457.578803 
L 1391.958722 490.388728 
L 1392.568059 435.746635 
L 1393.177396 480.323728 
L 1393.786732 453.039686 
L 1394.396069 471.936229 
L 1395.005405 439.052297 
L 1395.614742 487.995823 
L 1396.224079 477.75814 
L 1396.833415 475.80928 
L 1397.442752 468.137185 
L 1398.052088 433.773106 
L 1398.661425 451.362186 
L 1399.270762 459.873031 
L 1399.880098 428.197886 
L 1400.489435 469.049942 
L 1401.098771 419.292335 
L 1401.708108 443.936782 
L 1402.317445 460.662443 
L 1402.926781 464.609501 
L 1403.536118 453.21237 
L 1405.364128 485.824941 
L 1405.973464 479.336964 
L 1406.582801 460.16906 
L 1407.192138 487.576448 
L 1407.801474 460.588435 
L 1408.410811 464.609501 
L 1409.020147 440.310422 
L 1409.629484 476.722037 
L 1410.238821 478.177515 
L 1410.848157 485.208213 
L 1412.06683 429.875386 
L 1412.676167 167.96338 
L 1413.285504 463.79542 
L 1413.89484 397.065461 
L 1414.504177 443.098032 
L 1415.113514 441.099834 
L 1415.72285 359.889103 
L 1416.332187 461.081818 
L 1416.941523 453.434392 
L 1417.55086 133.92 
L 1418.160197 441.543878 
L 1418.769533 442.259282 
L 1419.37887 440.729797 
L 1419.988206 448.895274 
L 1420.597543 449.610679 
L 1421.20688 443.418731 
L 1421.816216 461.081818 
L 1422.425553 447.094429 
L 1423.034889 424.374173 
L 1424.253563 451.263509 
L 1424.862899 462.561965 
L 1425.472236 444.010789 
L 1426.081572 443.517407 
L 1426.690909 434.389834 
L 1427.300246 448.155201 
L 1427.909582 433.403069 
L 1428.518919 478.276192 
L 1429.128256 475.167883 
L 1429.737592 464.190126 
L 1430.346929 465.152222 
L 1430.956265 464.63417 
L 1431.565602 450.030054 
L 1432.174939 404.811564 
L 1432.784275 441.642554 
L 1433.393612 458.713583 
L 1434.002948 421.487886 
L 1434.612285 450.868804 
L 1435.221622 446.699723 
L 1435.830958 430.072739 
L 1436.440295 445.39226 
L 1437.049631 440.409098 
L 1437.658968 444.25748 
L 1438.268305 448.895274 
L 1438.877641 433.575753 
L 1439.486978 446.798399 
L 1440.096314 426.841085 
L 1440.705651 436.486709 
L 1441.314988 448.155201 
L 1441.924324 445.885642 
L 1442.533661 439.372996 
L 1443.142998 450.770127 
L 1443.752334 450.153399 
L 1444.361671 441.741231 
L 1444.971007 453.015017 
L 1445.580344 425.952996 
L 1446.189681 435.450606 
L 1446.799017 399.976417 
L 1447.408354 468.951266 
L 1448.01769 453.138362 
L 1448.627027 462.635972 
L 1449.236364 476.179317 
L 1449.8457 471.220824 
L 1450.455037 470.406744 
L 1451.064373 459.552332 
L 1451.67371 456.666046 
L 1452.283047 468.457883 
L 1452.892383 447.957848 
L 1453.50172 343.582818 
L 1454.111057 460.662443 
L 1454.720393 430.86215 
L 1455.32973 432.144944 
L 1455.939066 452.521634 
L 1456.548403 449.28998 
L 1457.15774 457.504796 
L 1457.767076 468.235861 
L 1458.376413 448.969282 
L 1458.985749 449.28998 
L 1459.595086 450.745458 
L 1460.204423 441.223179 
L 1460.813759 446.527039 
L 1461.423096 460.16906 
L 1462.032432 452.496965 
L 1462.641769 405.650314 
L 1463.251106 450.548105 
L 1463.860442 467.520457 
L 1464.469779 454.988546 
L 1465.079115 467.002406 
L 1465.688452 455.111892 
L 1466.297789 445.589613 
L 1466.907125 447.61248 
L 1467.516462 452.817664 
L 1468.125799 435.746635 
L 1468.735135 446.798399 
L 1469.344472 448.919943 
L 1469.953808 431.404871 
L 1470.563145 437.720165 
L 1471.172482 428.07454 
L 1471.781818 440.63112 
L 1472.391155 444.331488 
L 1473.000491 440.92715 
L 1473.609828 432.416305 
L 1474.219165 448.253877 
L 1474.828501 444.750863 
L 1475.437838 432.638327 
L 1476.047174 459.552332 
L 1476.656511 457.455458 
L 1477.875184 444.454833 
L 1478.484521 366.525096 
L 1479.093857 468.038508 
L 1479.703194 458.910935 
L 1480.312531 189.376173 
L 1480.921867 449.906708 
L 1481.531204 421.882592 
L 1482.140541 420.846489 
L 1482.749877 457.38145 
L 1483.359214 445.342922 
L 1484.577887 452.07759 
L 1485.187224 435.746635 
L 1485.79656 459.947038 
L 1486.405897 454.963877 
L 1487.015233 448.17987 
L 1487.62457 468.951266 
L 1488.233907 442.974686 
L 1488.843243 453.434392 
L 1489.45258 451.140164 
L 1490.061916 457.504796 
L 1490.671253 444.528841 
L 1491.28059 442.678657 
L 1491.889926 466.163656 
L 1492.499263 461.205163 
L 1493.1086 431.7009 
L 1493.717936 437.054099 
L 1494.327273 414.851894 
L 1494.327273 414.851894 
" style="fill:none;stroke:#1f77b4;stroke-linecap:square;stroke-width:1.5;"/>
   </g>
   <g id="line2d_18">
    <path clip-path="url(#p3530584c61)" d="M 276.872727 738.72 
L 335.978378 725.50188 
L 395.084029 712.056116 
L 454.189681 698.382709 
L 513.295332 684.481659 
L 572.400983 670.352965 
L 631.506634 655.996629 
L 690.612285 641.412649 
L 749.717936 626.601026 
L 808.823587 611.561759 
L 867.929238 596.29485 
L 927.034889 580.800297 
L 986.140541 565.078101 
L 1045.855528 548.962645 
L 1105.570516 532.614827 
L 1165.285504 516.034649 
L 1225.000491 499.22211 
L 1284.715479 482.177209 
L 1344.430467 464.899947 
L 1404.145455 447.390325 
L 1463.860442 429.648341 
L 1494.327273 420.506789 
L 1494.327273 420.506789 
" style="fill:none;stroke:#ff7f0e;stroke-linecap:square;stroke-width:1.5;"/>
   </g>
   <g id="patch_3">
    <path d="M 216 768.96 
L 216 103.68 
" style="fill:none;stroke:#000000;stroke-linecap:square;stroke-linejoin:miter;stroke-width:0.8;"/>
   </g>
   <g id="patch_4">
    <path d="M 1555.2 768.96 
L 1555.2 103.68 
" style="fill:none;stroke:#000000;stroke-linecap:square;stroke-linejoin:miter;stroke-width:0.8;"/>
   </g>
   <g id="patch_5">
    <path d="M 216 768.96 
L 1555.2 768.96 
" style="fill:none;stroke:#000000;stroke-linecap:square;stroke-linejoin:miter;stroke-width:0.8;"/>
   </g>
   <g id="patch_6">
    <path d="M 216 103.68 
L 1555.2 103.68 
" style="fill:none;stroke:#000000;stroke-linecap:square;stroke-linejoin:miter;stroke-width:0.8;"/>
   </g>
   <g id="legend_1">
    <g id="patch_7">
     <path d="M 1421.748437 141.03625 
L 1548.2 141.03625 
Q 1550.2 141.03625 1550.2 139.03625 
L 1550.2 110.68 
Q 1550.2 108.68 1548.2 108.68 
L 1421.748437 108.68 
Q 1419.748437 108.68 1419.748437 110.68 
L 1419.748437 139.03625 
Q 1419.748437 141.03625 1421.748437 141.03625 
z
" style="fill:#ffffff;opacity:0.8;stroke:#cccccc;stroke-linejoin:miter;"/>
    </g>
    <g id="line2d_19">
     <path d="M 1423.748437 116.778437 
L 1443.748437 116.778437 
" style="fill:none;stroke:#1f77b4;stroke-linecap:square;stroke-width:1.5;"/>
    </g>
    <g id="line2d_20"/>
    <g id="text_19">
     <!-- Experiment results -->
     <g transform="translate(1451.748437 120.278437)scale(0.1 -0.1)">
      <defs>
       <path d="M 9.8125 72.90625 
L 55.90625 72.90625 
L 55.90625 64.59375 
L 19.671875 64.59375 
L 19.671875 43.015625 
L 54.390625 43.015625 
L 54.390625 34.71875 
L 19.671875 34.71875 
L 19.671875 8.296875 
L 56.78125 8.296875 
L 56.78125 0 
L 9.8125 0 
z
" id="DejaVuSans-69"/>
       <path d="M 54.890625 54.6875 
L 35.109375 28.078125 
L 55.90625 0 
L 45.3125 0 
L 29.390625 21.484375 
L 13.484375 0 
L 2.875 0 
L 24.125 28.609375 
L 4.6875 54.6875 
L 15.28125 54.6875 
L 29.78125 35.203125 
L 44.28125 54.6875 
z
" id="DejaVuSans-120"/>
       <path d="M 18.109375 8.203125 
L 18.109375 -20.796875 
L 9.078125 -20.796875 
L 9.078125 54.6875 
L 18.109375 54.6875 
L 18.109375 46.390625 
Q 20.953125 51.265625 25.265625 53.625 
Q 29.59375 56 35.59375 56 
Q 45.5625 56 51.78125 48.09375 
Q 58.015625 40.1875 58.015625 27.296875 
Q 58.015625 14.40625 51.78125 6.484375 
Q 45.5625 -1.421875 35.59375 -1.421875 
Q 29.59375 -1.421875 25.265625 0.953125 
Q 20.953125 3.328125 18.109375 8.203125 
z
M 48.6875 27.296875 
Q 48.6875 37.203125 44.609375 42.84375 
Q 40.53125 48.484375 33.40625 48.484375 
Q 26.265625 48.484375 22.1875 42.84375 
Q 18.109375 37.203125 18.109375 27.296875 
Q 18.109375 17.390625 22.1875 11.75 
Q 26.265625 6.109375 33.40625 6.109375 
Q 40.53125 6.109375 44.609375 11.75 
Q 48.6875 17.390625 48.6875 27.296875 
z
" id="DejaVuSans-112"/>
       <path d="M 8.5 21.578125 
L 8.5 54.6875 
L 17.484375 54.6875 
L 17.484375 21.921875 
Q 17.484375 14.15625 20.5 10.265625 
Q 23.53125 6.390625 29.59375 6.390625 
Q 36.859375 6.390625 41.078125 11.03125 
Q 45.3125 15.671875 45.3125 23.6875 
L 45.3125 54.6875 
L 54.296875 54.6875 
L 54.296875 0 
L 45.3125 0 
L 45.3125 8.40625 
Q 42.046875 3.421875 37.71875 1 
Q 33.40625 -1.421875 27.6875 -1.421875 
Q 18.265625 -1.421875 13.375 4.4375 
Q 8.5 10.296875 8.5 21.578125 
z
M 31.109375 56 
z
" id="DejaVuSans-117"/>
      </defs>
      <use xlink:href="#DejaVuSans-69"/>
      <use x="63.183594" xlink:href="#DejaVuSans-120"/>
      <use x="122.363281" xlink:href="#DejaVuSans-112"/>
      <use x="185.839844" xlink:href="#DejaVuSans-101"/>
      <use x="247.363281" xlink:href="#DejaVuSans-114"/>
      <use x="288.476562" xlink:href="#DejaVuSans-105"/>
      <use x="316.259766" xlink:href="#DejaVuSans-109"/>
      <use x="413.671875" xlink:href="#DejaVuSans-101"/>
      <use x="475.195312" xlink:href="#DejaVuSans-110"/>
      <use x="538.574219" xlink:href="#DejaVuSans-116"/>
      <use x="577.783203" xlink:href="#DejaVuSans-32"/>
      <use x="609.570312" xlink:href="#DejaVuSans-114"/>
      <use x="648.433594" xlink:href="#DejaVuSans-101"/>
      <use x="709.957031" xlink:href="#DejaVuSans-115"/>
      <use x="762.056641" xlink:href="#DejaVuSans-117"/>
      <use x="825.435547" xlink:href="#DejaVuSans-108"/>
      <use x="853.21875" xlink:href="#DejaVuSans-116"/>
      <use x="892.427734" xlink:href="#DejaVuSans-115"/>
     </g>
    </g>
    <g id="line2d_21">
     <path d="M 1423.748437 131.456563 
L 1443.748437 131.456563 
" style="fill:none;stroke:#ff7f0e;stroke-linecap:square;stroke-width:1.5;"/>
    </g>
    <g id="line2d_22"/>
    <g id="text_20">
     <!-- Approximation -->
     <g transform="translate(1451.748437 134.956563)scale(0.1 -0.1)">
      <defs>
       <path d="M 34.1875 63.1875 
L 20.796875 26.90625 
L 47.609375 26.90625 
z
M 28.609375 72.90625 
L 39.796875 72.90625 
L 67.578125 0 
L 57.328125 0 
L 50.6875 18.703125 
L 17.828125 18.703125 
L 11.1875 0 
L 0.78125 0 
z
" id="DejaVuSans-65"/>
       <path d="M 34.28125 27.484375 
Q 23.390625 27.484375 19.1875 25 
Q 14.984375 22.515625 14.984375 16.5 
Q 14.984375 11.71875 18.140625 8.90625 
Q 21.296875 6.109375 26.703125 6.109375 
Q 34.1875 6.109375 38.703125 11.40625 
Q 43.21875 16.703125 43.21875 25.484375 
L 43.21875 27.484375 
z
M 52.203125 31.203125 
L 52.203125 0 
L 43.21875 0 
L 43.21875 8.296875 
Q 40.140625 3.328125 35.546875 0.953125 
Q 30.953125 -1.421875 24.3125 -1.421875 
Q 15.921875 -1.421875 10.953125 3.296875 
Q 6 8.015625 6 15.921875 
Q 6 25.140625 12.171875 29.828125 
Q 18.359375 34.515625 30.609375 34.515625 
L 43.21875 34.515625 
L 43.21875 35.40625 
Q 43.21875 41.609375 39.140625 45 
Q 35.0625 48.390625 27.6875 48.390625 
Q 23 48.390625 18.546875 47.265625 
Q 14.109375 46.140625 10.015625 43.890625 
L 10.015625 52.203125 
Q 14.9375 54.109375 19.578125 55.046875 
Q 24.21875 56 28.609375 56 
Q 40.484375 56 46.34375 49.84375 
Q 52.203125 43.703125 52.203125 31.203125 
z
" id="DejaVuSans-97"/>
      </defs>
      <use xlink:href="#DejaVuSans-65"/>
      <use x="68.408203" xlink:href="#DejaVuSans-112"/>
      <use x="131.884766" xlink:href="#DejaVuSans-112"/>
      <use x="195.361328" xlink:href="#DejaVuSans-114"/>
      <use x="234.224609" xlink:href="#DejaVuSans-111"/>
      <use x="292.28125" xlink:href="#DejaVuSans-120"/>
      <use x="351.460938" xlink:href="#DejaVuSans-105"/>
      <use x="379.244141" xlink:href="#DejaVuSans-109"/>
      <use x="476.65625" xlink:href="#DejaVuSans-97"/>
      <use x="537.935547" xlink:href="#DejaVuSans-116"/>
      <use x="577.144531" xlink:href="#DejaVuSans-105"/>
      <use x="604.927734" xlink:href="#DejaVuSans-111"/>
      <use x="666.109375" xlink:href="#DejaVuSans-110"/>
     </g>
    </g>
   </g>
  </g>
 </g>
 <defs>
  <clipPath id="p3530584c61">
   <rect height="665.28" width="1339.2" x="216" y="103.68"/>
  </clipPath>
 </defs>
</svg>
