<?xml version="1.0" encoding="utf-8" standalone="no"?>
<!DOCTYPE svg PUBLIC "-//W3C//DTD SVG 1.1//EN"
  "http://www.w3.org/Graphics/SVG/1.1/DTD/svg11.dtd">
<!-- Created with matplotlib (https://matplotlib.org/) -->
<svg height="864pt" version="1.1" viewBox="0 0 1728 864" width="1728pt" xmlns="http://www.w3.org/2000/svg" xmlns:xlink="http://www.w3.org/1999/xlink">
 <metadata>
  <rdf:RDF xmlns:cc="http://creativecommons.org/ns#" xmlns:dc="http://purl.org/dc/elements/1.1/" xmlns:rdf="http://www.w3.org/1999/02/22-rdf-syntax-ns#">
   <cc:Work>
    <dc:type rdf:resource="http://purl.org/dc/dcmitype/StillImage"/>
    <dc:date>2020-09-13T12:12:51.827665</dc:date>
    <dc:format>image/svg+xml</dc:format>
    <dc:creator>
     <cc:Agent>
      <dc:title>Matplotlib v3.3.1, https://matplotlib.org/</dc:title>
     </cc:Agent>
    </dc:creator>
   </cc:Work>
  </rdf:RDF>
 </metadata>
 <defs>
  <style type="text/css">*{stroke-linecap:butt;stroke-linejoin:round;}</style>
 </defs>
 <g id="figure_1">
  <g id="patch_1">
   <path d="M 0 864 
L 1728 864 
L 1728 0 
L 0 0 
z
" style="fill:#ffffff;"/>
  </g>
  <g id="axes_1">
   <g id="patch_2">
    <path d="M 216 768.96 
L 1555.2 768.96 
L 1555.2 103.68 
L 216 103.68 
z
" style="fill:#ffffff;"/>
   </g>
   <g id="matplotlib.axis_1">
    <g id="xtick_1">
     <g id="line2d_1">
      <defs>
       <path d="M 0 0 
L 0 3.5 
" id="ma7e4c6f5db" style="stroke:#000000;stroke-width:0.8;"/>
      </defs>
      <g>
       <use style="stroke:#000000;stroke-width:0.8;" x="276.231287" xlink:href="#ma7e4c6f5db" y="768.96"/>
      </g>
     </g>
     <g id="text_1">
      <!-- 0 -->
      <g transform="translate(273.050037 783.558437)scale(0.1 -0.1)">
       <defs>
        <path d="M 31.78125 66.40625 
Q 24.171875 66.40625 20.328125 58.90625 
Q 16.5 51.421875 16.5 36.375 
Q 16.5 21.390625 20.328125 13.890625 
Q 24.171875 6.390625 31.78125 6.390625 
Q 39.453125 6.390625 43.28125 13.890625 
Q 47.125 21.390625 47.125 36.375 
Q 47.125 51.421875 43.28125 58.90625 
Q 39.453125 66.40625 31.78125 66.40625 
z
M 31.78125 74.21875 
Q 44.046875 74.21875 50.515625 64.515625 
Q 56.984375 54.828125 56.984375 36.375 
Q 56.984375 17.96875 50.515625 8.265625 
Q 44.046875 -1.421875 31.78125 -1.421875 
Q 19.53125 -1.421875 13.0625 8.265625 
Q 6.59375 17.96875 6.59375 36.375 
Q 6.59375 54.828125 13.0625 64.515625 
Q 19.53125 74.21875 31.78125 74.21875 
z
" id="DejaVuSans-48"/>
       </defs>
       <use xlink:href="#DejaVuSans-48"/>
      </g>
     </g>
    </g>
    <g id="xtick_2">
     <g id="line2d_2">
      <g>
       <use style="stroke:#000000;stroke-width:0.8;" x="436.591474" xlink:href="#ma7e4c6f5db" y="768.96"/>
      </g>
     </g>
     <g id="text_2">
      <!-- 250 -->
      <g transform="translate(427.047724 783.558437)scale(0.1 -0.1)">
       <defs>
        <path d="M 19.1875 8.296875 
L 53.609375 8.296875 
L 53.609375 0 
L 7.328125 0 
L 7.328125 8.296875 
Q 12.9375 14.109375 22.625 23.890625 
Q 32.328125 33.6875 34.8125 36.53125 
Q 39.546875 41.84375 41.421875 45.53125 
Q 43.3125 49.21875 43.3125 52.78125 
Q 43.3125 58.59375 39.234375 62.25 
Q 35.15625 65.921875 28.609375 65.921875 
Q 23.96875 65.921875 18.8125 64.3125 
Q 13.671875 62.703125 7.8125 59.421875 
L 7.8125 69.390625 
Q 13.765625 71.78125 18.9375 73 
Q 24.125 74.21875 28.421875 74.21875 
Q 39.75 74.21875 46.484375 68.546875 
Q 53.21875 62.890625 53.21875 53.421875 
Q 53.21875 48.921875 51.53125 44.890625 
Q 49.859375 40.875 45.40625 35.40625 
Q 44.1875 33.984375 37.640625 27.21875 
Q 31.109375 20.453125 19.1875 8.296875 
z
" id="DejaVuSans-50"/>
        <path d="M 10.796875 72.90625 
L 49.515625 72.90625 
L 49.515625 64.59375 
L 19.828125 64.59375 
L 19.828125 46.734375 
Q 21.96875 47.46875 24.109375 47.828125 
Q 26.265625 48.1875 28.421875 48.1875 
Q 40.625 48.1875 47.75 41.5 
Q 54.890625 34.8125 54.890625 23.390625 
Q 54.890625 11.625 47.5625 5.09375 
Q 40.234375 -1.421875 26.90625 -1.421875 
Q 22.3125 -1.421875 17.546875 -0.640625 
Q 12.796875 0.140625 7.71875 1.703125 
L 7.71875 11.625 
Q 12.109375 9.234375 16.796875 8.0625 
Q 21.484375 6.890625 26.703125 6.890625 
Q 35.15625 6.890625 40.078125 11.328125 
Q 45.015625 15.765625 45.015625 23.390625 
Q 45.015625 31 40.078125 35.4375 
Q 35.15625 39.890625 26.703125 39.890625 
Q 22.75 39.890625 18.8125 39.015625 
Q 14.890625 38.140625 10.796875 36.28125 
z
" id="DejaVuSans-53"/>
       </defs>
       <use xlink:href="#DejaVuSans-50"/>
       <use x="63.623047" xlink:href="#DejaVuSans-53"/>
       <use x="127.246094" xlink:href="#DejaVuSans-48"/>
      </g>
     </g>
    </g>
    <g id="xtick_3">
     <g id="line2d_3">
      <g>
       <use style="stroke:#000000;stroke-width:0.8;" x="596.951662" xlink:href="#ma7e4c6f5db" y="768.96"/>
      </g>
     </g>
     <g id="text_3">
      <!-- 500 -->
      <g transform="translate(587.407912 783.558437)scale(0.1 -0.1)">
       <use xlink:href="#DejaVuSans-53"/>
       <use x="63.623047" xlink:href="#DejaVuSans-48"/>
       <use x="127.246094" xlink:href="#DejaVuSans-48"/>
      </g>
     </g>
    </g>
    <g id="xtick_4">
     <g id="line2d_4">
      <g>
       <use style="stroke:#000000;stroke-width:0.8;" x="757.31185" xlink:href="#ma7e4c6f5db" y="768.96"/>
      </g>
     </g>
     <g id="text_4">
      <!-- 750 -->
      <g transform="translate(747.7681 783.558437)scale(0.1 -0.1)">
       <defs>
        <path d="M 8.203125 72.90625 
L 55.078125 72.90625 
L 55.078125 68.703125 
L 28.609375 0 
L 18.3125 0 
L 43.21875 64.59375 
L 8.203125 64.59375 
z
" id="DejaVuSans-55"/>
       </defs>
       <use xlink:href="#DejaVuSans-55"/>
       <use x="63.623047" xlink:href="#DejaVuSans-53"/>
       <use x="127.246094" xlink:href="#DejaVuSans-48"/>
      </g>
     </g>
    </g>
    <g id="xtick_5">
     <g id="line2d_5">
      <g>
       <use style="stroke:#000000;stroke-width:0.8;" x="917.672038" xlink:href="#ma7e4c6f5db" y="768.96"/>
      </g>
     </g>
     <g id="text_5">
      <!-- 1000 -->
      <g transform="translate(904.947038 783.558437)scale(0.1 -0.1)">
       <defs>
        <path d="M 12.40625 8.296875 
L 28.515625 8.296875 
L 28.515625 63.921875 
L 10.984375 60.40625 
L 10.984375 69.390625 
L 28.421875 72.90625 
L 38.28125 72.90625 
L 38.28125 8.296875 
L 54.390625 8.296875 
L 54.390625 0 
L 12.40625 0 
z
" id="DejaVuSans-49"/>
       </defs>
       <use xlink:href="#DejaVuSans-49"/>
       <use x="63.623047" xlink:href="#DejaVuSans-48"/>
       <use x="127.246094" xlink:href="#DejaVuSans-48"/>
       <use x="190.869141" xlink:href="#DejaVuSans-48"/>
      </g>
     </g>
    </g>
    <g id="xtick_6">
     <g id="line2d_6">
      <g>
       <use style="stroke:#000000;stroke-width:0.8;" x="1078.032225" xlink:href="#ma7e4c6f5db" y="768.96"/>
      </g>
     </g>
     <g id="text_6">
      <!-- 1250 -->
      <g transform="translate(1065.307225 783.558437)scale(0.1 -0.1)">
       <use xlink:href="#DejaVuSans-49"/>
       <use x="63.623047" xlink:href="#DejaVuSans-50"/>
       <use x="127.246094" xlink:href="#DejaVuSans-53"/>
       <use x="190.869141" xlink:href="#DejaVuSans-48"/>
      </g>
     </g>
    </g>
    <g id="xtick_7">
     <g id="line2d_7">
      <g>
       <use style="stroke:#000000;stroke-width:0.8;" x="1238.392413" xlink:href="#ma7e4c6f5db" y="768.96"/>
      </g>
     </g>
     <g id="text_7">
      <!-- 1500 -->
      <g transform="translate(1225.667413 783.558437)scale(0.1 -0.1)">
       <use xlink:href="#DejaVuSans-49"/>
       <use x="63.623047" xlink:href="#DejaVuSans-53"/>
       <use x="127.246094" xlink:href="#DejaVuSans-48"/>
       <use x="190.869141" xlink:href="#DejaVuSans-48"/>
      </g>
     </g>
    </g>
    <g id="xtick_8">
     <g id="line2d_8">
      <g>
       <use style="stroke:#000000;stroke-width:0.8;" x="1398.752601" xlink:href="#ma7e4c6f5db" y="768.96"/>
      </g>
     </g>
     <g id="text_8">
      <!-- 1750 -->
      <g transform="translate(1386.027601 783.558437)scale(0.1 -0.1)">
       <use xlink:href="#DejaVuSans-49"/>
       <use x="63.623047" xlink:href="#DejaVuSans-55"/>
       <use x="127.246094" xlink:href="#DejaVuSans-53"/>
       <use x="190.869141" xlink:href="#DejaVuSans-48"/>
      </g>
     </g>
    </g>
    <g id="text_9">
     <!-- Vector length -->
     <g transform="translate(852.139844 797.236562)scale(0.1 -0.1)">
      <defs>
       <path d="M 28.609375 0 
L 0.78125 72.90625 
L 11.078125 72.90625 
L 34.1875 11.53125 
L 57.328125 72.90625 
L 67.578125 72.90625 
L 39.796875 0 
z
" id="DejaVuSans-86"/>
       <path d="M 56.203125 29.59375 
L 56.203125 25.203125 
L 14.890625 25.203125 
Q 15.484375 15.921875 20.484375 11.0625 
Q 25.484375 6.203125 34.421875 6.203125 
Q 39.59375 6.203125 44.453125 7.46875 
Q 49.3125 8.734375 54.109375 11.28125 
L 54.109375 2.78125 
Q 49.265625 0.734375 44.1875 -0.34375 
Q 39.109375 -1.421875 33.890625 -1.421875 
Q 20.796875 -1.421875 13.15625 6.1875 
Q 5.515625 13.8125 5.515625 26.8125 
Q 5.515625 40.234375 12.765625 48.109375 
Q 20.015625 56 32.328125 56 
Q 43.359375 56 49.78125 48.890625 
Q 56.203125 41.796875 56.203125 29.59375 
z
M 47.21875 32.234375 
Q 47.125 39.59375 43.09375 43.984375 
Q 39.0625 48.390625 32.421875 48.390625 
Q 24.90625 48.390625 20.390625 44.140625 
Q 15.875 39.890625 15.1875 32.171875 
z
" id="DejaVuSans-101"/>
       <path d="M 48.78125 52.59375 
L 48.78125 44.1875 
Q 44.96875 46.296875 41.140625 47.34375 
Q 37.3125 48.390625 33.40625 48.390625 
Q 24.65625 48.390625 19.8125 42.84375 
Q 14.984375 37.3125 14.984375 27.296875 
Q 14.984375 17.28125 19.8125 11.734375 
Q 24.65625 6.203125 33.40625 6.203125 
Q 37.3125 6.203125 41.140625 7.25 
Q 44.96875 8.296875 48.78125 10.40625 
L 48.78125 2.09375 
Q 45.015625 0.34375 40.984375 -0.53125 
Q 36.96875 -1.421875 32.421875 -1.421875 
Q 20.0625 -1.421875 12.78125 6.34375 
Q 5.515625 14.109375 5.515625 27.296875 
Q 5.515625 40.671875 12.859375 48.328125 
Q 20.21875 56 33.015625 56 
Q 37.15625 56 41.109375 55.140625 
Q 45.0625 54.296875 48.78125 52.59375 
z
" id="DejaVuSans-99"/>
       <path d="M 18.3125 70.21875 
L 18.3125 54.6875 
L 36.8125 54.6875 
L 36.8125 47.703125 
L 18.3125 47.703125 
L 18.3125 18.015625 
Q 18.3125 11.328125 20.140625 9.421875 
Q 21.96875 7.515625 27.59375 7.515625 
L 36.8125 7.515625 
L 36.8125 0 
L 27.59375 0 
Q 17.1875 0 13.234375 3.875 
Q 9.28125 7.765625 9.28125 18.015625 
L 9.28125 47.703125 
L 2.6875 47.703125 
L 2.6875 54.6875 
L 9.28125 54.6875 
L 9.28125 70.21875 
z
" id="DejaVuSans-116"/>
       <path d="M 30.609375 48.390625 
Q 23.390625 48.390625 19.1875 42.75 
Q 14.984375 37.109375 14.984375 27.296875 
Q 14.984375 17.484375 19.15625 11.84375 
Q 23.34375 6.203125 30.609375 6.203125 
Q 37.796875 6.203125 41.984375 11.859375 
Q 46.1875 17.53125 46.1875 27.296875 
Q 46.1875 37.015625 41.984375 42.703125 
Q 37.796875 48.390625 30.609375 48.390625 
z
M 30.609375 56 
Q 42.328125 56 49.015625 48.375 
Q 55.71875 40.765625 55.71875 27.296875 
Q 55.71875 13.875 49.015625 6.21875 
Q 42.328125 -1.421875 30.609375 -1.421875 
Q 18.84375 -1.421875 12.171875 6.21875 
Q 5.515625 13.875 5.515625 27.296875 
Q 5.515625 40.765625 12.171875 48.375 
Q 18.84375 56 30.609375 56 
z
" id="DejaVuSans-111"/>
       <path d="M 41.109375 46.296875 
Q 39.59375 47.171875 37.8125 47.578125 
Q 36.03125 48 33.890625 48 
Q 26.265625 48 22.1875 43.046875 
Q 18.109375 38.09375 18.109375 28.8125 
L 18.109375 0 
L 9.078125 0 
L 9.078125 54.6875 
L 18.109375 54.6875 
L 18.109375 46.1875 
Q 20.953125 51.171875 25.484375 53.578125 
Q 30.03125 56 36.53125 56 
Q 37.453125 56 38.578125 55.875 
Q 39.703125 55.765625 41.0625 55.515625 
z
" id="DejaVuSans-114"/>
       <path id="DejaVuSans-32"/>
       <path d="M 9.421875 75.984375 
L 18.40625 75.984375 
L 18.40625 0 
L 9.421875 0 
z
" id="DejaVuSans-108"/>
       <path d="M 54.890625 33.015625 
L 54.890625 0 
L 45.90625 0 
L 45.90625 32.71875 
Q 45.90625 40.484375 42.875 44.328125 
Q 39.84375 48.1875 33.796875 48.1875 
Q 26.515625 48.1875 22.3125 43.546875 
Q 18.109375 38.921875 18.109375 30.90625 
L 18.109375 0 
L 9.078125 0 
L 9.078125 54.6875 
L 18.109375 54.6875 
L 18.109375 46.1875 
Q 21.34375 51.125 25.703125 53.5625 
Q 30.078125 56 35.796875 56 
Q 45.21875 56 50.046875 50.171875 
Q 54.890625 44.34375 54.890625 33.015625 
z
" id="DejaVuSans-110"/>
       <path d="M 45.40625 27.984375 
Q 45.40625 37.75 41.375 43.109375 
Q 37.359375 48.484375 30.078125 48.484375 
Q 22.859375 48.484375 18.828125 43.109375 
Q 14.796875 37.75 14.796875 27.984375 
Q 14.796875 18.265625 18.828125 12.890625 
Q 22.859375 7.515625 30.078125 7.515625 
Q 37.359375 7.515625 41.375 12.890625 
Q 45.40625 18.265625 45.40625 27.984375 
z
M 54.390625 6.78125 
Q 54.390625 -7.171875 48.1875 -13.984375 
Q 42 -20.796875 29.203125 -20.796875 
Q 24.46875 -20.796875 20.265625 -20.09375 
Q 16.0625 -19.390625 12.109375 -17.921875 
L 12.109375 -9.1875 
Q 16.0625 -11.328125 19.921875 -12.34375 
Q 23.78125 -13.375 27.78125 -13.375 
Q 36.625 -13.375 41.015625 -8.765625 
Q 45.40625 -4.15625 45.40625 5.171875 
L 45.40625 9.625 
Q 42.625 4.78125 38.28125 2.390625 
Q 33.9375 0 27.875 0 
Q 17.828125 0 11.671875 7.65625 
Q 5.515625 15.328125 5.515625 27.984375 
Q 5.515625 40.671875 11.671875 48.328125 
Q 17.828125 56 27.875 56 
Q 33.9375 56 38.28125 53.609375 
Q 42.625 51.21875 45.40625 46.390625 
L 45.40625 54.6875 
L 54.390625 54.6875 
z
" id="DejaVuSans-103"/>
       <path d="M 54.890625 33.015625 
L 54.890625 0 
L 45.90625 0 
L 45.90625 32.71875 
Q 45.90625 40.484375 42.875 44.328125 
Q 39.84375 48.1875 33.796875 48.1875 
Q 26.515625 48.1875 22.3125 43.546875 
Q 18.109375 38.921875 18.109375 30.90625 
L 18.109375 0 
L 9.078125 0 
L 9.078125 75.984375 
L 18.109375 75.984375 
L 18.109375 46.1875 
Q 21.34375 51.125 25.703125 53.5625 
Q 30.078125 56 35.796875 56 
Q 45.21875 56 50.046875 50.171875 
Q 54.890625 44.34375 54.890625 33.015625 
z
" id="DejaVuSans-104"/>
      </defs>
      <use xlink:href="#DejaVuSans-86"/>
      <use x="60.658203" xlink:href="#DejaVuSans-101"/>
      <use x="122.181641" xlink:href="#DejaVuSans-99"/>
      <use x="177.162109" xlink:href="#DejaVuSans-116"/>
      <use x="216.371094" xlink:href="#DejaVuSans-111"/>
      <use x="277.552734" xlink:href="#DejaVuSans-114"/>
      <use x="318.666016" xlink:href="#DejaVuSans-32"/>
      <use x="350.453125" xlink:href="#DejaVuSans-108"/>
      <use x="378.236328" xlink:href="#DejaVuSans-101"/>
      <use x="439.759766" xlink:href="#DejaVuSans-110"/>
      <use x="503.138672" xlink:href="#DejaVuSans-103"/>
      <use x="566.615234" xlink:href="#DejaVuSans-116"/>
      <use x="605.824219" xlink:href="#DejaVuSans-104"/>
     </g>
    </g>
   </g>
   <g id="matplotlib.axis_2">
    <g id="ytick_1">
     <g id="line2d_9">
      <defs>
       <path d="M 0 0 
L -3.5 0 
" id="m55be866cfc" style="stroke:#000000;stroke-width:0.8;"/>
      </defs>
      <g>
       <use style="stroke:#000000;stroke-width:0.8;" x="216" xlink:href="#m55be866cfc" y="731.091845"/>
      </g>
     </g>
     <g id="text_10">
      <!-- 0 -->
      <g transform="translate(202.6375 734.891064)scale(0.1 -0.1)">
       <use xlink:href="#DejaVuSans-48"/>
      </g>
     </g>
    </g>
    <g id="ytick_2">
     <g id="line2d_10">
      <g>
       <use style="stroke:#000000;stroke-width:0.8;" x="216" xlink:href="#m55be866cfc" y="583.764026"/>
      </g>
     </g>
     <g id="text_11">
      <!-- 1 -->
      <g transform="translate(202.6375 587.563244)scale(0.1 -0.1)">
       <use xlink:href="#DejaVuSans-49"/>
      </g>
     </g>
    </g>
    <g id="ytick_3">
     <g id="line2d_11">
      <g>
       <use style="stroke:#000000;stroke-width:0.8;" x="216" xlink:href="#m55be866cfc" y="436.436206"/>
      </g>
     </g>
     <g id="text_12">
      <!-- 2 -->
      <g transform="translate(202.6375 440.235425)scale(0.1 -0.1)">
       <use xlink:href="#DejaVuSans-50"/>
      </g>
     </g>
    </g>
    <g id="ytick_4">
     <g id="line2d_12">
      <g>
       <use style="stroke:#000000;stroke-width:0.8;" x="216" xlink:href="#m55be866cfc" y="289.108387"/>
      </g>
     </g>
     <g id="text_13">
      <!-- 3 -->
      <g transform="translate(202.6375 292.907605)scale(0.1 -0.1)">
       <defs>
        <path d="M 40.578125 39.3125 
Q 47.65625 37.796875 51.625 33 
Q 55.609375 28.21875 55.609375 21.1875 
Q 55.609375 10.40625 48.1875 4.484375 
Q 40.765625 -1.421875 27.09375 -1.421875 
Q 22.515625 -1.421875 17.65625 -0.515625 
Q 12.796875 0.390625 7.625 2.203125 
L 7.625 11.71875 
Q 11.71875 9.328125 16.59375 8.109375 
Q 21.484375 6.890625 26.8125 6.890625 
Q 36.078125 6.890625 40.9375 10.546875 
Q 45.796875 14.203125 45.796875 21.1875 
Q 45.796875 27.640625 41.28125 31.265625 
Q 36.765625 34.90625 28.71875 34.90625 
L 20.21875 34.90625 
L 20.21875 43.015625 
L 29.109375 43.015625 
Q 36.375 43.015625 40.234375 45.921875 
Q 44.09375 48.828125 44.09375 54.296875 
Q 44.09375 59.90625 40.109375 62.90625 
Q 36.140625 65.921875 28.71875 65.921875 
Q 24.65625 65.921875 20.015625 65.03125 
Q 15.375 64.15625 9.8125 62.3125 
L 9.8125 71.09375 
Q 15.4375 72.65625 20.34375 73.4375 
Q 25.25 74.21875 29.59375 74.21875 
Q 40.828125 74.21875 47.359375 69.109375 
Q 53.90625 64.015625 53.90625 55.328125 
Q 53.90625 49.265625 50.4375 45.09375 
Q 46.96875 40.921875 40.578125 39.3125 
z
" id="DejaVuSans-51"/>
       </defs>
       <use xlink:href="#DejaVuSans-51"/>
      </g>
     </g>
    </g>
    <g id="ytick_5">
     <g id="line2d_13">
      <g>
       <use style="stroke:#000000;stroke-width:0.8;" x="216" xlink:href="#m55be866cfc" y="141.780567"/>
      </g>
     </g>
     <g id="text_14">
      <!-- 4 -->
      <g transform="translate(202.6375 145.579786)scale(0.1 -0.1)">
       <defs>
        <path d="M 37.796875 64.3125 
L 12.890625 25.390625 
L 37.796875 25.390625 
z
M 35.203125 72.90625 
L 47.609375 72.90625 
L 47.609375 25.390625 
L 58.015625 25.390625 
L 58.015625 17.1875 
L 47.609375 17.1875 
L 47.609375 0 
L 37.796875 0 
L 37.796875 17.1875 
L 4.890625 17.1875 
L 4.890625 26.703125 
z
" id="DejaVuSans-52"/>
       </defs>
       <use xlink:href="#DejaVuSans-52"/>
      </g>
     </g>
    </g>
    <g id="text_15">
     <!-- Time, ms -->
     <g transform="translate(196.557812 459.206719)rotate(-90)scale(0.1 -0.1)">
      <defs>
       <path d="M -0.296875 72.90625 
L 61.375 72.90625 
L 61.375 64.59375 
L 35.5 64.59375 
L 35.5 0 
L 25.59375 0 
L 25.59375 64.59375 
L -0.296875 64.59375 
z
" id="DejaVuSans-84"/>
       <path d="M 9.421875 54.6875 
L 18.40625 54.6875 
L 18.40625 0 
L 9.421875 0 
z
M 9.421875 75.984375 
L 18.40625 75.984375 
L 18.40625 64.59375 
L 9.421875 64.59375 
z
" id="DejaVuSans-105"/>
       <path d="M 52 44.1875 
Q 55.375 50.25 60.0625 53.125 
Q 64.75 56 71.09375 56 
Q 79.640625 56 84.28125 50.015625 
Q 88.921875 44.046875 88.921875 33.015625 
L 88.921875 0 
L 79.890625 0 
L 79.890625 32.71875 
Q 79.890625 40.578125 77.09375 44.375 
Q 74.3125 48.1875 68.609375 48.1875 
Q 61.625 48.1875 57.5625 43.546875 
Q 53.515625 38.921875 53.515625 30.90625 
L 53.515625 0 
L 44.484375 0 
L 44.484375 32.71875 
Q 44.484375 40.625 41.703125 44.40625 
Q 38.921875 48.1875 33.109375 48.1875 
Q 26.21875 48.1875 22.15625 43.53125 
Q 18.109375 38.875 18.109375 30.90625 
L 18.109375 0 
L 9.078125 0 
L 9.078125 54.6875 
L 18.109375 54.6875 
L 18.109375 46.1875 
Q 21.1875 51.21875 25.484375 53.609375 
Q 29.78125 56 35.6875 56 
Q 41.65625 56 45.828125 52.96875 
Q 50 49.953125 52 44.1875 
z
" id="DejaVuSans-109"/>
       <path d="M 11.71875 12.40625 
L 22.015625 12.40625 
L 22.015625 4 
L 14.015625 -11.625 
L 7.71875 -11.625 
L 11.71875 4 
z
" id="DejaVuSans-44"/>
       <path d="M 44.28125 53.078125 
L 44.28125 44.578125 
Q 40.484375 46.53125 36.375 47.5 
Q 32.28125 48.484375 27.875 48.484375 
Q 21.1875 48.484375 17.84375 46.4375 
Q 14.5 44.390625 14.5 40.28125 
Q 14.5 37.15625 16.890625 35.375 
Q 19.28125 33.59375 26.515625 31.984375 
L 29.59375 31.296875 
Q 39.15625 29.25 43.1875 25.515625 
Q 47.21875 21.78125 47.21875 15.09375 
Q 47.21875 7.46875 41.1875 3.015625 
Q 35.15625 -1.421875 24.609375 -1.421875 
Q 20.21875 -1.421875 15.453125 -0.5625 
Q 10.6875 0.296875 5.421875 2 
L 5.421875 11.28125 
Q 10.40625 8.6875 15.234375 7.390625 
Q 20.0625 6.109375 24.8125 6.109375 
Q 31.15625 6.109375 34.5625 8.28125 
Q 37.984375 10.453125 37.984375 14.40625 
Q 37.984375 18.0625 35.515625 20.015625 
Q 33.0625 21.96875 24.703125 23.78125 
L 21.578125 24.515625 
Q 13.234375 26.265625 9.515625 29.90625 
Q 5.8125 33.546875 5.8125 39.890625 
Q 5.8125 47.609375 11.28125 51.796875 
Q 16.75 56 26.8125 56 
Q 31.78125 56 36.171875 55.265625 
Q 40.578125 54.546875 44.28125 53.078125 
z
" id="DejaVuSans-115"/>
      </defs>
      <use xlink:href="#DejaVuSans-84"/>
      <use x="57.958984" xlink:href="#DejaVuSans-105"/>
      <use x="85.742188" xlink:href="#DejaVuSans-109"/>
      <use x="183.154297" xlink:href="#DejaVuSans-101"/>
      <use x="244.677734" xlink:href="#DejaVuSans-44"/>
      <use x="276.464844" xlink:href="#DejaVuSans-32"/>
      <use x="308.251953" xlink:href="#DejaVuSans-109"/>
      <use x="405.664062" xlink:href="#DejaVuSans-115"/>
     </g>
    </g>
   </g>
   <g id="line2d_14">
    <path clip-path="url(#p89da54a8b7)" d="M 276.872727 730.951342 
L 277.514168 730.635211 
L 278.155609 730.775714 
L 280.079931 730.354206 
L 281.362813 730.0732 
L 282.004253 729.757069 
L 283.287135 729.792195 
L 284.570016 728.878927 
L 286.494339 729.054555 
L 287.135779 729.159932 
L 288.418661 728.106162 
L 289.060102 728.914052 
L 289.701542 727.579276 
L 290.342983 727.122642 
L 290.984424 728.28179 
L 291.625865 728.28179 
L 292.267305 727.544151 
L 292.908746 728.000785 
L 293.550187 727.825156 
L 294.191628 727.403648 
L 294.833068 727.825156 
L 295.474509 727.298271 
L 296.11595 727.298271 
L 296.757391 726.385003 
L 297.398831 726.666008 
L 298.040272 726.701134 
L 298.681713 726.49038 
L 299.323154 726.525506 
L 299.964594 726.068872 
L 300.606035 725.963495 
L 301.247476 726.525506 
L 301.888917 725.225855 
L 302.530357 725.506861 
L 303.171798 724.909724 
L 304.45468 725.682489 
L 305.09612 724.628718 
L 305.737561 724.769221 
L 306.379002 724.45309 
L 307.020443 724.45309 
L 307.661883 724.031582 
L 308.303324 723.434445 
L 308.944765 723.118314 
L 309.586206 723.574948 
L 310.227646 722.556303 
L 310.869087 723.71545 
L 311.510528 722.521177 
L 312.151969 722.380674 
L 312.793409 723.399319 
L 313.43485 722.66168 
L 314.076291 722.66168 
L 314.717732 722.977811 
L 315.359172 722.66168 
L 316.000613 721.994292 
L 316.642054 722.275297 
L 317.283495 721.959166 
L 317.924935 721.081024 
L 318.566376 722.240171 
L 319.207817 721.502532 
L 319.849258 721.221526 
L 320.490698 721.783537 
L 321.132139 720.589264 
L 322.415021 720.027253 
L 323.056461 721.186401 
L 323.697902 720.483887 
L 324.339343 719.957002 
L 324.980784 720.202881 
L 325.622224 719.605745 
L 326.263665 720.167756 
L 326.905106 719.64087 
L 328.187987 719.746248 
L 328.829428 719.746248 
L 329.470869 718.270969 
L 330.11231 718.446597 
L 330.75375 719.184236 
L 331.395191 718.09534 
L 332.036632 717.533329 
L 332.678073 718.551974 
L 333.319513 718.727603 
L 333.960954 718.09534 
L 334.602395 717.989963 
L 335.243836 716.409307 
L 335.885276 717.708958 
L 336.526717 718.235843 
L 337.168158 714.617897 
L 337.809599 717.989963 
L 338.451039 717.076695 
L 339.09248 716.79569 
L 339.733921 717.814335 
L 340.375362 717.111821 
L 341.016802 716.05805 
L 341.658243 716.655187 
L 342.299684 716.479558 
L 342.941125 716.022924 
L 343.582565 708.541153 
L 344.224006 716.05805 
L 344.865447 714.934028 
L 345.506888 714.617897 
L 346.148328 715.496039 
L 346.789769 715.636542 
L 347.43121 714.7584 
L 348.072651 714.301766 
L 348.714091 714.442268 
L 349.355532 714.723274 
L 350.638414 714.301766 
L 351.279854 715.179908 
L 351.921295 713.704629 
L 352.562736 713.107492 
L 353.204177 714.442268 
L 353.845617 713.283121 
L 354.487058 713.283121 
L 355.128499 711.772716 
L 355.76994 711.070202 
L 356.41138 713.845132 
L 357.052821 713.002115 
L 357.694262 711.948344 
L 358.335703 705.906726 
L 358.977143 712.72111 
L 359.618584 711.175579 
L 360.260025 708.084519 
L 360.901466 699.408473 
L 361.542906 712.404978 
L 362.184347 710.613568 
L 362.825788 711.667339 
L 363.467229 710.19206 
L 364.108669 708.435776 
L 364.75011 711.035077 
L 365.391551 709.594923 
L 366.032992 698.249326 
L 366.674432 711.210705 
L 367.315873 703.799185 
L 367.957314 710.473066 
L 368.598755 709.559798 
L 369.240195 707.100999 
L 369.881636 710.929699 
L 370.523077 704.57195 
L 371.164518 708.751907 
L 371.805958 710.156934 
L 372.447399 710.332563 
L 373.08884 711.070202 
L 373.730281 710.613568 
L 374.371721 708.962661 
L 375.013162 709.138289 
L 375.654603 708.576278 
L 376.296044 709.559798 
L 376.937484 708.681655 
L 377.578925 708.084519 
L 378.220366 706.36336 
L 378.861807 706.36336 
L 380.144688 709.278792 
L 380.786129 704.115316 
L 381.42757 705.906726 
L 382.06901 705.309589 
L 382.710451 703.377676 
L 383.351892 702.640037 
L 383.993333 703.272299 
L 384.634773 705.906726 
L 385.276214 707.627885 
L 385.917655 700.708124 
L 386.559096 703.869436 
L 387.200536 704.852955 
L 387.841977 705.028584 
L 388.483418 705.731097 
L 389.124859 703.799185 
L 389.766299 703.377676 
L 390.40774 704.150441 
L 391.049181 701.024255 
L 391.690622 703.553305 
L 392.332062 702.710288 
L 392.973503 703.693807 
L 393.614944 702.640037 
L 394.256385 704.185567 
L 394.897825 704.431447 
L 395.539266 703.658682 
L 396.180707 699.408473 
L 396.822148 701.761895 
L 397.463588 700.883752 
L 398.105029 702.499534 
L 399.387911 703.974813 
L 400.029351 692.804844 
L 400.670792 701.516015 
L 401.312233 702.218529 
L 402.595114 702.53466 
L 403.236555 700.918878 
L 403.877996 703.58843 
L 404.519437 700.74325 
L 405.160877 684.971815 
L 405.802318 700.146113 
L 406.443759 701.199884 
L 407.0852 701.024255 
L 407.72664 696.457915 
L 408.368081 697.792692 
L 409.009522 692.629215 
L 409.650963 668.462741 
L 410.292403 693.226352 
L 410.933844 698.70596 
L 411.575285 699.584102 
L 412.216726 687.746744 
L 412.858166 699.408473 
L 413.499607 696.352538 
L 414.141048 698.811337 
L 414.782489 699.724605 
L 415.423929 675.979639 
L 416.06537 698.670834 
L 416.706811 698.354703 
L 417.348252 699.022091 
L 417.989692 682.196886 
L 418.631133 698.530331 
L 419.272574 697.652189 
L 419.914015 700.00561 
L 420.555456 696.633544 
L 421.196896 698.986965 
L 421.838337 696.317413 
L 422.479778 696.036407 
L 423.121219 697.546812 
L 423.762659 696.317413 
L 424.4041 695.755402 
L 425.045541 696.17691 
L 426.328422 693.823489 
L 426.969863 695.158265 
L 427.611304 687.78187 
L 428.252745 693.928866 
L 428.894185 694.455751 
L 429.535626 695.158265 
L 430.818508 693.366855 
L 431.459948 691.470068 
L 432.101389 692.910221 
L 432.74283 693.085849 
L 433.384271 694.3855 
L 434.025711 692.980472 
L 434.667152 693.085849 
L 435.308593 688.941018 
L 435.950034 689.222023 
L 436.591474 690.451423 
L 437.232915 688.51951 
L 437.874356 691.294439 
L 438.515797 679.246328 
L 439.157237 690.451423 
L 439.798678 686.130963 
L 440.440119 690.5568 
L 441.08156 684.550307 
L 441.723 672.326567 
L 442.364441 679.983967 
L 443.005882 678.684317 
L 443.647323 674.820491 
L 444.288763 654.904225 
L 444.930204 686.728099 
L 445.571645 684.796187 
L 446.213086 689.994789 
L 446.854526 681.283618 
L 447.495967 682.16176 
L 448.137408 672.783201 
L 448.778849 682.302263 
L 449.420289 680.581104 
L 450.06173 658.487045 
L 450.703171 682.302263 
L 451.344612 672.045561 
L 451.986052 676.576775 
L 452.627493 672.607572 
L 453.268934 681.037738 
L 453.910375 668.638369 
L 454.551815 676.998284 
L 455.193256 681.599749 
L 455.834697 676.822655 
L 456.476138 681.634875 
L 457.117578 681.459246 
L 457.759019 668.919375 
L 458.40046 670.956665 
L 459.041901 679.070699 
L 459.683341 678.649191 
L 460.324782 682.302263 
L 460.966223 683.039902 
L 461.607664 673.310086 
L 462.249104 684.831312 
L 462.890545 676.998284 
L 463.531986 679.211202 
L 464.173427 677.454917 
L 464.814867 677.454917 
L 465.456308 682.442765 
L 466.097749 669.657014 
L 466.73919 681.599749 
L 467.38063 683.039902 
L 468.022071 677.911551 
L 468.663512 678.052054 
L 469.304953 679.527333 
L 469.946393 680.545978 
L 470.587834 681.002612 
L 471.229275 679.843464 
L 471.870716 680.862109 
L 472.512156 679.843464 
L 473.153597 660.805341 
L 473.795038 666.10932 
L 474.436479 681.283618 
L 475.077919 682.196886 
L 475.71936 678.508688 
L 476.360801 682.021257 
L 477.002242 674.398983 
L 477.643682 662.315745 
L 478.285123 679.843464 
L 478.926564 676.155267 
L 479.568005 678.684317 
L 480.209445 678.473562 
L 480.850886 680.581104 
L 482.133768 676.752404 
L 482.775208 678.789694 
L 483.416649 676.436273 
L 484.05809 680.686481 
L 484.699531 672.431944 
L 485.340971 675.417628 
L 485.982412 665.055549 
L 486.623853 679.983967 
L 487.265294 667.584599 
L 487.906734 673.76672 
L 488.548175 673.029081 
L 489.831057 676.29577 
L 490.472497 677.911551 
L 491.113938 672.186064 
L 491.755379 674.539485 
L 492.39682 672.888578 
L 493.03826 677.771049 
L 493.679701 678.508688 
L 494.321142 675.382502 
L 494.962583 674.082851 
L 495.604023 666.882085 
L 496.245464 676.155267 
L 496.886905 670.816162 
L 497.528346 674.047726 
L 498.169786 674.539485 
L 498.811227 676.752404 
L 499.452668 670.078523 
L 500.094109 654.026083 
L 500.735549 675.206873 
L 501.37699 677.771049 
L 502.018431 651.84829 
L 502.659872 675.663507 
L 503.301312 676.29577 
L 503.942753 669.481386 
L 504.584194 673.907223 
L 505.225635 669.20038 
L 505.867075 673.52084 
L 506.508516 674.398983 
L 507.149957 672.431944 
L 507.791398 673.029081 
L 508.432838 671.272796 
L 509.074279 665.828314 
L 509.71572 667.022588 
L 510.357161 664.31791 
L 510.998601 672.291441 
L 511.640042 675.101496 
L 512.922924 666.249823 
L 513.564364 671.869933 
L 514.205805 660.383832 
L 514.847246 673.029081 
L 515.488687 602.004937 
L 516.130127 668.497867 
L 516.771568 672.150938 
L 517.413009 664.774544 
L 518.05445 664.036904 
L 519.337331 670.219025 
L 519.978772 650.478388 
L 520.620213 665.231178 
L 521.261653 611.769878 
L 521.903094 665.793189 
L 522.544535 670.991791 
L 523.185976 660.840466 
L 523.827416 655.114979 
L 524.468857 665.687812 
L 525.110298 641.942846 
L 525.751739 664.809669 
L 526.393179 635.339216 
L 527.03462 659.330062 
L 527.676061 666.144446 
L 528.317502 657.011766 
L 528.958942 661.823986 
L 529.600383 665.406806 
L 530.241824 657.995286 
L 530.883265 663.896401 
L 531.524705 657.889909 
L 532.166146 660.208204 
L 532.807587 661.999614 
L 533.449028 661.859111 
L 534.090468 666.10932 
L 534.731909 657.152269 
L 535.37335 629.719106 
L 536.014791 658.627548 
L 536.656231 649.881251 
L 537.297672 659.50569 
L 537.939113 654.798848 
L 538.580554 654.166585 
L 539.221994 658.45192 
L 539.863435 650.654016 
L 540.504876 658.135788 
L 541.146317 659.470565 
L 541.787757 657.995286 
L 542.429198 647.703459 
L 543.070639 648.124967 
L 543.71208 658.45192 
L 544.35352 658.592422 
L 544.994961 661.402477 
L 545.636402 658.592422 
L 546.277843 659.611067 
L 546.919283 660.067701 
L 547.560724 632.353532 
L 548.202165 657.292772 
L 548.843606 657.011766 
L 549.485046 659.049056 
L 550.126487 658.592422 
L 550.767928 658.592422 
L 551.409369 655.395985 
L 552.050809 657.573777 
L 552.69225 633.2668 
L 553.333691 648.01959 
L 553.975132 655.360859 
L 554.616572 656.203875 
L 555.258013 649.213863 
L 555.899454 652.445427 
L 556.540895 654.342214 
L 557.182335 655.395985 
L 557.823776 609.381331 
L 558.465217 657.152269 
L 559.106658 651.11065 
L 559.748098 656.871264 
L 560.389539 645.49054 
L 561.03098 645.806671 
L 561.672421 655.18523 
L 562.313861 652.726432 
L 562.955302 609.100326 
L 563.596743 646.052551 
L 564.238184 652.269798 
L 564.879624 648.01959 
L 565.521065 647.562956 
L 566.162506 651.567284 
L 566.803947 648.405972 
L 567.445387 654.904225 
L 568.086828 626.628045 
L 568.728269 651.567284 
L 569.36971 651.251153 
L 570.01115 644.612398 
L 570.652591 652.129295 
L 571.294032 651.953667 
L 571.935473 641.345709 
L 572.576913 612.788523 
L 573.218354 651.532159 
L 573.859795 649.951503 
L 574.501236 646.544311 
L 575.142677 651.075525 
L 575.784117 648.441098 
L 576.425558 648.26547 
L 577.066999 616.933355 
L 577.70844 650.654016 
L 578.34988 651.11065 
L 578.991321 652.269798 
L 579.632762 652.445427 
L 580.274203 648.300595 
L 580.915643 649.740749 
L 581.557084 651.567284 
L 582.198525 600.564783 
L 582.839966 645.033906 
L 583.481406 646.544311 
L 584.122847 646.790191 
L 584.764288 646.087677 
L 585.405729 652.129295 
L 586.047169 646.684814 
L 586.68861 603.023582 
L 587.330051 622.483214 
L 587.971492 633.2668 
L 588.612932 581.245654 
L 589.254373 636.533489 
L 589.895814 641.345709 
L 590.537255 611.313244 
L 591.178695 632.21303 
L 591.820136 631.194385 
L 592.461577 572.569609 
L 593.103018 610.399976 
L 593.744458 635.901227 
L 594.385899 589.18406 
L 595.02734 637.973643 
L 595.668781 632.107653 
L 596.310221 639.484047 
L 596.951662 634.882582 
L 597.593103 638.570779 
L 598.234544 607.308916 
L 598.875984 617.354863 
L 599.517425 629.754231 
L 600.158866 633.161423 
L 600.800307 625.152766 
L 601.441747 632.529161 
L 602.083188 621.605071 
L 602.724629 638.289774 
L 603.36607 633.723434 
L 604.00751 631.510516 
L 604.648951 610.997113 
L 605.290392 548.368009 
L 605.931833 629.016592 
L 606.573273 634.601576 
L 607.214714 635.163587 
L 607.856155 639.273293 
L 608.497596 641.66184 
L 609.780477 620.762055 
L 610.421918 636.779369 
L 611.063359 634.566451 
L 611.704799 624.555629 
L 612.34624 634.285445 
L 612.987681 638.570779 
L 613.629122 625.6094 
L 614.270562 636.814495 
L 614.912003 608.081681 
L 615.553444 635.760724 
L 616.194885 637.973643 
L 616.836325 637.973643 
L 617.477766 639.027413 
L 618.119207 635.198713 
L 618.760648 635.023085 
L 619.402088 638.289774 
L 620.043529 642.364354 
L 620.68497 635.198713 
L 621.326411 640.959326 
L 621.967851 637.973643 
L 622.609292 636.954998 
L 623.250733 642.258977 
L 623.892174 632.810166 
L 624.533614 634.742079 
L 625.175055 634.706954 
L 625.816496 625.6094 
L 626.457937 636.779369 
L 627.099377 631.018756 
L 627.740818 606.992785 
L 628.382259 640.221687 
L 629.0237 638.114145 
L 630.306581 631.194385 
L 630.948022 638.008768 
L 631.589463 630.491871 
L 632.230903 632.529161 
L 632.872344 587.427776 
L 633.513785 576.995446 
L 634.155226 623.08035 
L 634.796666 601.16192 
L 635.438107 575.204036 
L 636.079548 599.86227 
L 636.720989 619.111147 
L 637.362429 612.788523 
L 638.00387 594.523165 
L 638.645311 619.25165 
L 639.286752 622.974973 
L 639.928192 616.722601 
L 640.569633 619.813661 
L 641.211074 621.04306 
L 641.852515 526.168573 
L 642.493955 614.544808 
L 643.135396 624.274624 
L 643.776837 614.263802 
L 645.059718 622.904722 
L 645.701159 624.696132 
L 646.3426 620.902558 
L 646.984041 621.464569 
L 647.625481 617.073857 
L 648.266922 590.659339 
L 648.908363 616.757726 
L 649.549804 627.64669 
L 650.191244 615.598578 
L 650.832685 625.11764 
L 651.474126 626.768548 
L 652.115567 598.492368 
L 652.757007 623.993618 
L 653.398448 617.073857 
L 654.039889 625.925531 
L 654.68133 629.262472 
L 655.32277 618.830142 
L 655.964211 599.651516 
L 656.605652 624.415127 
L 657.247093 632.494035 
L 657.888533 632.072527 
L 658.529974 600.880915 
L 659.171415 616.336218 
L 659.812856 612.191387 
L 660.454296 622.483214 
L 661.095737 626.030908 
L 661.737178 623.677487 
L 662.378619 619.848787 
L 663.020059 611.453747 
L 663.6615 616.020087 
L 664.302941 626.311914 
L 664.944382 618.795016 
L 665.585822 617.952 
L 666.227263 621.183563 
L 666.868704 616.195715 
L 667.510145 625.293269 
L 668.151585 616.336218 
L 668.793026 619.567781 
L 669.434467 620.902558 
L 670.075908 628.840963 
L 670.717348 580.227009 
L 671.358789 623.57211 
L 672.00023 629.754231 
L 672.641671 628.700461 
L 673.283111 620.410798 
L 673.924552 614.088174 
L 674.565993 597.789854 
L 675.207434 607.800675 
L 675.848874 621.745574 
L 676.490315 618.268131 
L 677.131756 617.21436 
L 677.773197 587.63853 
L 678.414637 606.044391 
L 679.056078 614.404305 
L 679.697519 611.453747 
L 680.33896 606.887408 
L 680.9804 607.76555 
L 681.621841 606.325396 
L 682.263282 608.81932 
L 682.904723 476.500849 
L 683.546163 580.824146 
L 684.187604 583.915207 
L 684.829045 614.263802 
L 685.470486 608.503189 
L 686.111926 613.666666 
L 686.753367 611.629376 
L 687.394808 580.683643 
L 688.036249 618.373508 
L 688.677689 608.046555 
L 689.31913 612.331889 
L 689.960571 581.28078 
L 690.602012 571.656341 
L 691.243452 603.93685 
L 691.884893 564.315072 
L 692.526334 542.502019 
L 693.167775 481.523822 
L 693.809215 603.023582 
L 694.450656 601.618554 
L 695.092097 580.929523 
L 695.733538 593.785525 
L 696.374978 529.259634 
L 697.016419 600.002772 
L 697.65786 605.868763 
L 698.299301 594.769045 
L 698.940741 607.800675 
L 699.582182 603.234336 
L 700.223623 593.328891 
L 700.865064 541.342871 
L 701.506504 507.622209 
L 702.147945 604.674489 
L 702.789386 593.364017 
L 703.430827 610.751233 
L 704.072267 603.515341 
L 704.713708 601.864434 
L 705.355149 571.515838 
L 705.99659 604.569112 
L 706.63803 603.339713 
L 707.279471 588.341044 
L 707.920912 598.808499 
L 708.562353 604.850118 
L 709.203793 603.655844 
L 709.845234 565.649848 
L 710.486675 590.518836 
L 711.128116 600.283778 
L 711.769556 601.864434 
L 712.410997 606.009265 
L 713.052438 596.244324 
L 713.693879 575.239161 
L 714.335319 583.037064 
L 714.97676 585.811994 
L 715.618201 597.33322 
L 716.259642 587.006267 
L 716.901082 591.71311 
L 717.542523 585.35536 
L 718.183964 597.895231 
L 718.825405 567.090001 
L 719.466845 565.965979 
L 720.108286 592.450749 
L 720.749727 593.469394 
L 721.391168 588.341044 
L 722.032608 536.179395 
L 722.674049 589.324563 
L 723.31549 596.736083 
L 723.956931 579.524495 
L 724.598371 580.78902 
L 725.239812 580.929523 
L 725.881253 596.84146 
L 726.522694 599.686641 
L 727.164134 603.655844 
L 727.805575 562.558788 
L 728.447016 585.495863 
L 729.088457 596.455078 
L 729.729897 591.572607 
L 730.371338 588.762552 
L 731.012779 587.322399 
L 731.65422 584.055709 
L 732.295661 602.918205 
L 732.937101 541.307745 
L 733.578542 529.54064 
L 734.219983 602.918205 
L 734.861424 593.926028 
L 735.502864 593.926028 
L 736.144305 587.006267 
L 736.785746 584.477218 
L 737.427187 586.584759 
L 738.068627 599.089504 
L 738.710068 591.115973 
L 739.351509 551.950829 
L 739.99295 603.374839 
L 740.63439 582.58043 
L 741.275831 511.134778 
L 741.917272 554.444753 
L 742.558713 583.001939 
L 743.200153 589.254311 
L 743.841594 587.14677 
L 744.483035 559.151596 
L 745.124476 584.512343 
L 745.765916 601.302423 
L 746.407357 602.461571 
L 747.048798 587.322399 
L 747.690239 566.071356 
L 748.331679 594.207034 
L 748.97312 596.595581 
L 749.614561 599.86227 
L 750.256002 555.639027 
L 750.897442 592.626378 
L 751.538883 591.432104 
L 752.180324 591.291601 
L 752.821765 589.078683 
L 753.463205 573.728757 
L 754.104646 585.671491 
L 754.746087 591.853612 
L 755.387528 592.591252 
L 756.028968 526.730584 
L 756.670409 589.67582 
L 757.31185 590.97547 
L 757.953291 593.609897 
L 758.594731 567.546635 
L 759.236172 592.134618 
L 759.877613 589.359689 
L 760.519054 576.117304 
L 761.160494 589.535317 
L 761.801935 584.055709 
L 762.443376 586.409131 
L 763.084817 591.572607 
L 763.726257 590.553962 
L 764.367698 557.395311 
L 765.009139 581.561785 
L 765.65058 586.092999 
L 766.29202 593.680148 
L 766.933461 592.275121 
L 767.574902 591.818487 
L 768.216343 586.268628 
L 768.857783 598.492368 
L 769.499224 568.284275 
L 770.140665 513.804331 
L 770.782106 574.501522 
L 771.423546 582.545305 
L 772.064987 577.908714 
L 772.706428 519.073184 
L 773.347869 584.090835 
L 773.989309 584.196212 
L 774.63075 562.558788 
L 775.272191 559.467727 
L 775.913632 575.379664 
L 776.555072 582.861436 
L 777.196513 569.162417 
L 777.837954 579.208364 
L 778.479395 578.75173 
L 779.120835 570.778199 
L 779.762276 589.956825 
L 780.403717 583.31807 
L 781.045158 582.018419 
L 781.686598 589.816322 
L 782.328039 587.111644 
L 782.96948 586.725262 
L 783.610921 520.864594 
L 784.252361 576.71444 
L 784.893802 565.790351 
L 785.535243 510.502516 
L 786.176684 531.858935 
L 786.818124 578.295096 
L 787.459565 585.530988 
L 788.101006 563.296427 
L 788.742447 569.619051 
L 789.383887 553.988119 
L 790.025328 570.075685 
L 790.666769 555.568775 
L 791.30821 566.387488 
L 791.94965 567.687138 
L 792.591091 560.170241 
L 793.873973 549.562282 
L 795.156854 574.044888 
L 795.798295 541.975134 
L 796.439736 571.269958 
L 797.081176 577.873588 
L 797.722617 572.112975 
L 798.364058 525.711939 
L 799.005499 560.486372 
L 799.646939 584.512343 
L 800.28838 564.631203 
L 800.929821 498.454404 
L 801.571262 569.162417 
L 802.854143 576.538812 
L 803.495584 550.018916 
L 804.137025 560.451246 
L 804.778465 354.509329 
L 805.419906 559.292098 
L 806.061347 557.957322 
L 806.702788 576.679315 
L 807.344228 557.957322 
L 807.985669 556.517169 
L 808.62711 572.288603 
L 809.268551 558.413956 
L 809.909991 567.581761 
L 811.192873 549.597408 
L 811.834314 544.433932 
L 812.475754 555.779529 
L 813.117195 561.083509 
L 813.758636 561.505017 
L 814.400077 573.728757 
L 815.041517 546.64685 
L 815.682958 561.469891 
L 816.324399 568.284275 
L 816.96584 541.167243 
L 817.60728 503.477378 
L 818.248721 561.680645 
L 818.890162 552.969474 
L 819.531603 566.949499 
L 820.173043 547.524992 
L 820.814484 564.631203 
L 821.455925 566.808996 
L 822.097366 559.011093 
L 822.738806 520.583589 
L 823.380247 559.502853 
L 824.021688 578.154594 
L 824.663129 554.444753 
L 825.304569 551.037561 
L 825.94601 573.13162 
L 826.587451 540.745734 
L 827.228892 477.378991 
L 827.870332 553.566611 
L 828.511773 558.730087 
L 829.153214 542.642522 
L 829.794655 544.293429 
L 830.436095 559.748732 
L 831.077536 554.79601 
L 831.718977 564.73658 
L 832.360418 551.037561 
L 833.001858 561.680645 
L 833.643299 564.877083 
L 834.28474 506.989947 
L 834.926181 569.021914 
L 835.567621 544.60956 
L 836.209062 561.505017 
L 836.850503 544.433932 
L 837.491944 558.905716 
L 838.133384 556.798174 
L 838.774825 560.205366 
L 839.416266 546.611725 
L 840.057707 545.628205 
L 840.699147 560.170241 
L 841.340588 521.110474 
L 841.982029 554.304251 
L 842.62347 561.364514 
L 843.26491 557.816819 
L 843.906351 541.202368 
L 844.547792 555.920032 
L 845.189233 548.578763 
L 845.830673 492.974797 
L 846.472114 559.889235 
L 847.113555 564.455575 
L 847.754996 546.049714 
L 848.396436 543.836795 
L 849.037877 551.494195 
L 849.679318 562.69929 
L 850.320759 544.539309 
L 850.962199 553.952994 
L 851.60364 536.565777 
L 852.245081 565.790351 
L 852.886522 511.591412 
L 853.527962 549.456905 
L 854.169403 550.616053 
L 854.810844 550.72143 
L 855.452285 546.787353 
L 856.093725 557.254808 
L 856.735166 540.745734 
L 857.376607 557.114306 
L 858.018048 565.368843 
L 859.300929 558.589585 
L 859.94237 495.819978 
L 860.583811 550.616053 
L 861.225251 564.209695 
L 861.866692 550.299922 
L 862.508133 546.225342 
L 863.149574 549.456905 
L 863.791014 558.449082 
L 864.432455 511.415784 
L 865.073896 542.958653 
L 865.715337 540.429603 
L 866.356777 543.55579 
L 866.998218 527.046716 
L 867.639659 550.47555 
L 868.2811 542.81815 
L 868.92254 515.841621 
L 869.563981 550.018916 
L 870.205422 546.190216 
L 870.846863 552.969474 
L 871.488303 544.433932 
L 872.129744 561.188886 
L 872.771185 555.884907 
L 873.412626 487.389812 
L 874.054066 543.977298 
L 874.695507 548.859769 
L 875.336948 555.639027 
L 875.978389 533.650345 
L 876.619829 549.140774 
L 877.26127 546.927856 
L 877.902711 479.627035 
L 878.544152 540.2891 
L 879.185592 540.324226 
L 879.827033 518.476047 
L 880.468474 542.361516 
L 881.109915 560.486372 
L 881.751355 548.543637 
L 882.392796 472.075012 
L 883.034237 535.547132 
L 883.675678 549.246151 
L 884.317118 531.613055 
L 884.958559 544.293429 
L 885.6 552.688469 
L 886.241441 555.006764 
L 886.882882 514.647347 
L 887.524322 540.2891 
L 888.165763 548.43826 
L 888.807204 521.602234 
L 889.448645 526.590082 
L 890.090085 538.532816 
L 890.731526 552.793846 
L 891.372967 527.152093 
L 892.014408 537.373668 
L 892.655848 532.350695 
L 893.297289 519.389315 
L 893.93873 531.156421 
L 894.580171 524.658169 
L 895.221611 525.676814 
L 895.863052 541.342871 
L 896.504493 531.191547 
L 897.145934 552.828972 
L 897.787374 532.315569 
L 898.428815 552.337212 
L 899.070256 499.789181 
L 899.711697 520.232332 
L 900.353137 533.509842 
L 900.994578 528.978628 
L 901.636019 519.705446 
L 902.27746 367.54096 
L 902.9189 538.076182 
L 903.560341 529.259634 
L 904.201782 534.985121 
L 904.843223 521.496857 
L 905.484663 527.187218 
L 906.126104 540.008095 
L 906.767545 511.310407 
L 907.408986 534.106979 
L 908.050426 520.724091 
L 908.691867 539.270455 
L 909.333308 506.568439 
L 909.974749 526.449579 
L 910.616189 526.625207 
L 911.25763 533.36934 
L 911.899071 513.172068 
L 912.540512 533.404465 
L 913.181952 537.022411 
L 913.823393 525.290431 
L 914.464834 526.133448 
L 915.106275 542.642522 
L 915.747715 545.312074 
L 916.389156 546.471222 
L 917.030597 487.424938 
L 917.672038 470.178224 
L 918.313478 544.258303 
L 918.954919 489.462228 
L 920.237801 532.491197 
L 920.879241 507.727586 
L 921.520682 524.096158 
L 922.162123 518.792179 
L 922.803564 507.868089 
L 923.445004 520.548463 
L 924.086445 491.534644 
L 925.369327 515.103981 
L 926.010767 518.476047 
L 926.652208 491.253638 
L 927.293649 496.065858 
L 927.93509 474.252804 
L 928.57653 430.380818 
L 929.217971 499.929683 
L 929.859412 526.449579 
L 930.500853 511.275281 
L 931.142293 525.887568 
L 931.783734 535.020247 
L 932.425175 523.955655 
L 933.066616 524.833797 
L 933.708056 503.934012 
L 934.349497 448.365171 
L 934.990938 496.557617 
L 935.632379 482.542467 
L 936.273819 527.222344 
L 936.91526 517.457402 
L 937.556701 505.971302 
L 938.198142 522.339873 
L 938.839582 518.089665 
L 939.481023 491.07801 
L 940.122464 530.84029 
L 940.763905 533.544968 
L 941.405345 538.673319 
L 942.046786 532.526323 
L 942.688227 530.243153 
L 943.329668 511.310407 
L 943.971108 520.548463 
L 944.612549 508.043718 
L 945.25399 521.707611 
L 945.895431 499.754055 
L 946.536871 397.538299 
L 947.178312 473.585416 
L 947.819753 524.412289 
L 948.461194 511.591412 
L 949.102634 507.306078 
L 949.744075 486.827801 
L 950.385516 523.042387 
L 951.026957 460.448408 
L 951.668397 496.69812 
L 952.309838 516.473883 
L 952.951279 513.944833 
L 953.59272 491.394141 
L 954.23416 518.195042 
L 954.875601 523.534147 
L 955.517042 484.755386 
L 956.158483 514.822976 
L 956.799923 524.23666 
L 957.441364 480.470051 
L 958.082805 454.090659 
L 958.724246 444.817477 
L 959.365686 404.177054 
L 960.007127 471.337372 
L 960.648568 507.868089 
L 961.290009 492.272283 
L 961.931449 502.423607 
L 963.214331 373.055693 
L 963.855772 496.557617 
L 964.497212 506.568439 
L 965.138653 492.693791 
L 965.780094 494.941835 
L 966.421535 508.324723 
L 967.062975 511.696789 
L 967.704416 513.628702 
L 968.345857 501.26446 
L 968.987298 505.549794 
L 969.628738 478.292259 
L 970.270179 456.022572 
L 970.91162 480.64568 
L 971.553061 513.066691 
L 972.194501 494.063693 
L 972.835942 468.983951 
L 973.477383 505.549794 
L 974.118824 479.135275 
L 974.760264 520.126955 
L 975.401705 510.256636 
L 976.043146 487.389812 
L 976.684587 487.143932 
L 977.326027 498.48953 
L 977.967468 463.679972 
L 978.608909 514.858101 
L 979.25035 514.085336 
L 979.89179 514.54197 
L 980.533231 488.443583 
L 981.816113 519.178561 
L 982.457553 522.058868 
L 983.098994 514.401467 
L 983.740435 488.584086 
L 984.381876 472.812651 
L 985.023316 490.09449 
L 985.664757 461.642682 
L 986.306198 475.341701 
L 986.947639 482.999101 
L 987.589079 513.769205 
L 988.23052 500.667323 
L 988.871961 479.029898 
L 989.513402 464.874245 
L 990.154842 509.940505 
L 990.796283 500.702449 
L 991.437724 477.378991 
L 992.079165 475.02557 
L 992.720605 509.694625 
L 994.003487 490.024239 
L 994.644928 499.648678 
L 995.286368 501.545465 
L 995.927809 496.838623 
L 996.56925 488.584086 
L 997.210691 498.032896 
L 997.852131 462.942332 
L 998.493572 492.412786 
L 999.135013 498.630033 
L 999.776454 471.513001 
L 1000.417894 487.108807 
L 1001.059335 499.016415 
L 1001.700776 494.90671 
L 1002.342217 505.690296 
L 1002.983657 487.424938 
L 1003.625098 486.792676 
L 1004.266539 506.252307 
L 1004.90798 480.15392 
L 1005.54942 500.210689 
L 1006.190861 501.966973 
L 1006.832302 491.394141 
L 1008.115183 505.514668 
L 1008.756624 429.818807 
L 1009.398065 506.744067 
L 1010.680946 498.911038 
L 1011.322387 506.568439 
L 1011.963828 506.954821 
L 1012.605269 508.359849 
L 1013.246709 509.413619 
L 1013.88815 468.702945 
L 1014.529591 485.493025 
L 1015.171032 458.411119 
L 1015.812472 499.192044 
L 1016.453913 499.824306 
L 1017.095354 505.409291 
L 1017.736795 482.718096 
L 1018.378235 507.025073 
L 1019.019676 496.838623 
L 1019.661117 478.713767 
L 1020.302558 493.607059 
L 1020.943998 484.614883 
L 1021.585439 492.693791 
L 1022.22688 461.361676 
L 1022.868321 420.405123 
L 1023.509761 488.127452 
L 1024.151202 514.858101 
L 1024.792643 456.338703 
L 1025.434084 484.931014 
L 1026.075524 507.270952 
L 1026.716965 489.918862 
L 1027.358406 507.587084 
L 1027.999847 427.886894 
L 1028.641287 502.31823 
L 1029.282728 504.215017 
L 1029.924169 437.581585 
L 1030.56561 435.8253 
L 1031.20705 407.127612 
L 1031.848491 446.644013 
L 1032.489932 462.836955 
L 1033.131373 482.823473 
L 1033.772813 485.914533 
L 1034.414254 472.215514 
L 1035.055695 490.199867 
L 1035.697136 461.923687 
L 1036.338576 454.40679 
L 1036.980017 490.83213 
L 1037.621458 439.864755 
L 1038.262899 491.569769 
L 1038.904339 487.705943 
L 1039.54578 482.823473 
L 1040.828662 467.543798 
L 1041.470103 464.698617 
L 1042.111543 472.707274 
L 1042.752984 496.136109 
L 1043.394425 481.94533 
L 1044.035866 479.275778 
L 1044.677306 461.783185 
L 1045.318747 482.68297 
L 1045.960188 484.614883 
L 1046.601629 411.658826 
L 1047.243069 500.561946 
L 1048.525951 479.90804 
L 1049.167392 495.047213 
L 1049.808832 445.414613 
L 1050.450273 475.02557 
L 1051.091714 495.082338 
L 1051.733155 445.274111 
L 1052.374595 487.565441 
L 1053.016036 479.170401 
L 1053.657477 434.982284 
L 1054.298918 478.432761 
L 1054.940358 461.361676 
L 1055.581799 483.596238 
L 1056.22324 496.20636 
L 1056.864681 444.817477 
L 1057.506121 472.672148 
L 1058.147562 428.308403 
L 1058.789003 489.356851 
L 1059.430444 492.272283 
L 1060.071884 459.816146 
L 1060.713325 472.075012 
L 1061.354766 453.388145 
L 1061.996207 460.729414 
L 1062.637647 476.360346 
L 1063.279088 442.323553 
L 1063.920529 456.584583 
L 1064.56197 444.993105 
L 1065.20341 449.102811 
L 1065.844851 481.383319 
L 1066.486292 387.105969 
L 1067.127733 453.528648 
L 1067.769173 440.742897 
L 1068.410614 464.733743 
L 1069.052055 483.420609 
L 1069.693496 449.664822 
L 1070.334936 480.926685 
L 1070.976377 461.923687 
L 1071.617818 469.264957 
L 1072.259259 487.108807 
L 1072.900699 441.164405 
L 1073.54214 478.713767 
L 1074.183581 473.093657 
L 1074.825022 446.152253 
L 1075.466462 495.819978 
L 1076.107903 379.27294 
L 1076.749344 488.54896 
L 1077.390785 452.685631 
L 1078.032225 475.02557 
L 1078.673666 479.90804 
L 1079.315107 446.608887 
L 1079.956548 484.47438 
L 1080.597988 478.11663 
L 1081.88087 483.455735 
L 1082.522311 424.655331 
L 1083.163751 481.348194 
L 1083.805192 464.417611 
L 1084.446633 476.254969 
L 1085.088074 471.513001 
L 1085.729514 410.043044 
L 1086.370955 461.361676 
L 1087.012396 486.371167 
L 1087.653837 470.740235 
L 1088.295277 472.075012 
L 1088.936718 462.626201 
L 1089.578159 479.591909 
L 1090.2196 467.473546 
L 1090.86104 416.997931 
L 1091.502481 448.119292 
L 1092.143922 433.78801 
L 1092.785363 465.471382 
L 1093.426803 475.622706 
L 1094.068244 472.391143 
L 1094.709685 480.329549 
L 1095.351126 451.140101 
L 1095.992566 480.294423 
L 1096.634007 463.996103 
L 1097.275448 484.895888 
L 1097.916889 455.003927 
L 1098.558329 380.326711 
L 1099.19977 482.999101 
L 1099.841211 456.479206 
L 1100.482652 452.966637 
L 1101.124092 464.59324 
L 1101.765533 436.422437 
L 1102.406974 451.596735 
L 1103.048415 478.994772 
L 1103.689855 466.068519 
L 1104.331296 471.794006 
L 1104.972737 450.297084 
L 1105.614178 465.89289 
L 1106.255618 476.535974 
L 1106.897059 475.341701 
L 1107.5385 481.699451 
L 1108.179941 387.351849 
L 1108.821381 455.741566 
L 1109.462822 472.25064 
L 1110.104263 441.129279 
L 1110.745704 460.588911 
L 1111.387144 328.586571 
L 1112.028585 428.65966 
L 1112.670026 393.147588 
L 1113.311467 444.044712 
L 1113.952907 398.416441 
L 1114.594348 453.388145 
L 1115.235789 415.382149 
L 1115.87723 363.642009 
L 1116.51867 468.42194 
L 1117.160111 455.003927 
L 1117.801552 383.83928 
L 1118.442993 430.275441 
L 1119.084433 460.624037 
L 1119.725874 441.304908 
L 1120.367315 457.813982 
L 1121.008756 365.152413 
L 1121.650196 457.392474 
L 1122.291637 417.243811 
L 1122.933078 444.255466 
L 1123.574519 462.520824 
L 1124.215959 410.043044 
L 1124.8574 440.180886 
L 1125.498841 442.499181 
L 1126.140282 475.02557 
L 1126.781722 470.95099 
L 1127.423163 438.213847 
L 1128.064604 453.388145 
L 1128.706045 458.375993 
L 1129.347485 460.0269 
L 1129.988926 465.611885 
L 1130.630367 419.351352 
L 1131.271808 477.87075 
L 1131.913248 438.494853 
L 1132.554689 467.368169 
L 1133.19613 411.553449 
L 1133.837571 397.36267 
L 1134.479011 460.483534 
L 1135.120452 402.385644 
L 1135.761893 446.573761 
L 1136.403334 419.210849 
L 1137.044774 469.264957 
L 1137.686215 478.432761 
L 1138.327656 436.703442 
L 1138.969097 434.069016 
L 1139.610537 422.723418 
L 1140.251978 440.251137 
L 1140.893419 437.476208 
L 1141.53486 448.505674 
L 1142.1763 408.708268 
L 1142.817741 183.798479 
L 1143.459182 388.40562 
L 1144.100623 465.752388 
L 1144.742063 389.424265 
L 1145.383504 428.027397 
L 1146.024945 439.970132 
L 1146.666386 415.522652 
L 1147.307826 362.201855 
L 1147.949267 360.12944 
L 1148.590708 405.055196 
L 1149.232149 400.313228 
L 1149.873589 439.513498 
L 1150.51503 449.980953 
L 1151.156471 390.478035 
L 1151.797912 365.890053 
L 1152.439352 431.539966 
L 1153.080793 431.715595 
L 1153.722234 426.868249 
L 1154.363675 430.977955 
L 1155.005115 463.8556 
L 1155.646556 436.914197 
L 1156.287997 452.791008 
L 1156.929438 359.3918 
L 1157.570878 445.555116 
L 1158.212319 316.362831 
L 1158.85376 429.818807 
L 1159.495201 400.945491 
L 1160.136641 438.459727 
L 1160.778082 429.362173 
L 1161.419523 405.792836 
L 1162.060964 448.821805 
L 1163.343845 444.255466 
L 1163.985286 419.77286 
L 1164.626727 440.742897 
L 1165.268167 439.970132 
L 1165.909608 225.91418 
L 1166.551049 133.92 
L 1167.83393 423.039549 
L 1168.475371 390.723915 
L 1169.116812 399.751217 
L 1169.758253 420.26462 
L 1170.399693 444.957979 
L 1171.041134 325.179379 
L 1171.682575 392.409948 
L 1172.324016 420.088991 
L 1172.965456 420.369997 
L 1173.606897 416.225166 
L 1174.248338 384.295914 
L 1174.889779 425.954982 
L 1175.531219 434.701278 
L 1176.17266 425.568599 
L 1176.814101 413.309733 
L 1177.455542 424.795834 
L 1178.738423 438.951487 
L 1179.379864 433.471879 
L 1180.021305 420.369997 
L 1180.662745 414.187876 
L 1181.304186 409.902541 
L 1181.945627 443.939334 
L 1182.587068 422.863921 
L 1183.228508 411.834454 
L 1183.869949 413.450236 
L 1184.51139 449.454068 
L 1185.152831 409.972793 
L 1185.794271 433.471879 
L 1186.435712 442.920689 
L 1187.077153 430.240316 
L 1187.718594 458.375993 
L 1188.360034 419.913363 
L 1189.001475 440.8834 
L 1189.642916 425.990107 
L 1190.284357 414.609384 
L 1190.925797 447.206024 
L 1191.567238 433.471879 
L 1192.208679 451.561609 
L 1192.85012 377.200525 
L 1193.49156 418.613712 
L 1194.133001 412.291088 
L 1194.774442 428.027397 
L 1195.415883 424.936337 
L 1196.698764 452.791008 
L 1197.340205 365.25779 
L 1197.981646 454.828298 
L 1198.623087 364.098643 
L 1199.264527 424.514828 
L 1199.905968 395.044375 
L 1200.547409 446.925018 
L 1201.18885 444.676974 
L 1201.83029 435.263289 
L 1202.471731 413.731242 
L 1203.113172 432.137103 
L 1203.754613 433.928513 
L 1204.396053 387.984111 
L 1205.037494 433.647507 
L 1205.678935 382.223498 
L 1206.320376 415.066018 
L 1206.961816 332.415271 
L 1207.603257 404.949819 
L 1208.886139 431.118458 
L 1209.527579 334.628189 
L 1210.16902 439.829629 
L 1210.810461 358.338029 
L 1211.451902 434.666152 
L 1212.093342 430.837452 
L 1212.734783 430.134939 
L 1214.017665 416.716925 
L 1214.659105 436.457563 
L 1215.300546 423.496183 
L 1215.941987 434.947158 
L 1216.583428 356.546619 
L 1217.224868 410.780684 
L 1217.866309 352.191034 
L 1218.50775 399.470212 
L 1219.149191 393.112462 
L 1219.790631 421.107636 
L 1220.432072 388.265117 
L 1221.073513 393.814976 
L 1221.714954 410.815809 
L 1222.356394 434.069016 
L 1222.997835 369.543124 
L 1223.639276 433.647507 
L 1224.280717 390.056527 
L 1224.922157 426.271113 
L 1225.563598 428.484031 
L 1226.205039 417.138433 
L 1226.84648 424.3392 
L 1227.48792 306.211506 
L 1228.129361 384.998428 
L 1228.770802 400.453731 
L 1229.412243 371.756043 
L 1230.053683 403.263786 
L 1230.695124 404.45806 
L 1231.336565 378.289421 
L 1231.978006 395.922517 
L 1232.619446 377.657159 
L 1233.260887 406.038716 
L 1233.902328 423.461058 
L 1234.543769 399.470212 
L 1235.185209 410.043044 
L 1235.82665 423.004424 
L 1236.468091 405.933339 
L 1237.109532 414.785012 
L 1237.750972 429.95931 
L 1238.392413 417.138433 
L 1239.033854 421.845276 
L 1239.675295 434.560775 
L 1240.316735 422.161407 
L 1240.958176 415.347023 
L 1241.599617 417.700445 
L 1242.241058 442.780187 
L 1242.882498 427.992272 
L 1243.523939 351.418269 
L 1244.16538 405.055196 
L 1244.806821 409.726913 
L 1245.448261 426.552118 
L 1246.089702 429.924184 
L 1246.731143 392.550451 
L 1247.372584 423.320555 
L 1248.014024 426.587244 
L 1248.655465 338.035381 
L 1249.296906 385.911696 
L 1249.938347 294.69028 
L 1250.579787 432.312731 
L 1251.221228 355.387472 
L 1251.862669 420.651002 
L 1252.50411 364.379648 
L 1253.14555 421.704773 
L 1253.786991 374.425595 
L 1254.428432 432.347857 
L 1255.069873 395.184878 
L 1255.711313 407.689623 
L 1256.352754 430.380818 
L 1256.994195 418.157078 
L 1257.635636 341.723578 
L 1258.277076 414.223001 
L 1258.918517 413.309733 
L 1259.559958 405.055196 
L 1260.201399 409.481033 
L 1260.842839 409.937667 
L 1261.48428 428.203026 
L 1262.125721 404.598562 
L 1262.767162 413.450236 
L 1263.408602 413.309733 
L 1264.050043 377.657159 
L 1264.691484 409.445908 
L 1265.332925 408.883896 
L 1265.974365 421.423768 
L 1266.615806 422.582915 
L 1267.257247 408.602891 
L 1267.898688 420.334871 
L 1268.540128 381.907367 
L 1269.181569 379.553946 
L 1269.82301 410.780684 
L 1270.464451 400.629359 
L 1271.105891 346.254792 
L 1271.747332 404.177054 
L 1272.388773 325.355007 
L 1273.030214 403.158409 
L 1273.671654 389.880899 
L 1274.313095 412.255963 
L 1274.954536 412.431591 
L 1275.595977 425.673976 
L 1276.237417 343.479863 
L 1276.878858 418.016576 
L 1277.520299 341.126442 
L 1278.16174 358.654161 
L 1278.80318 328.902702 
L 1279.444621 410.043044 
L 1280.086062 340.950813 
L 1280.727503 425.182216 
L 1281.368943 342.109961 
L 1282.010384 385.033553 
L 1282.651825 367.0492 
L 1283.293266 421.107636 
L 1283.934706 343.023229 
L 1284.576147 399.926846 
L 1285.217588 394.341861 
L 1285.859029 400.945491 
L 1286.500469 388.15974 
L 1287.14191 411.834454 
L 1287.783351 352.191034 
L 1288.424792 370.280764 
L 1289.066232 326.057521 
L 1289.707673 405.055196 
L 1290.349114 350.223995 
L 1290.990555 404.001426 
L 1291.631995 355.703603 
L 1292.273436 417.73557 
L 1292.914877 388.862254 
L 1293.556318 338.175884 
L 1294.197758 242.879888 
L 1294.839199 366.030555 
L 1295.48064 382.680132 
L 1296.122081 368.559605 
L 1296.763521 402.842278 
L 1297.404962 350.364498 
L 1298.046403 412.150586 
L 1298.687844 358.794663 
L 1299.329284 404.879568 
L 1299.970725 400.945491 
L 1300.612166 396.238648 
L 1301.253607 291.634345 
L 1301.895047 387.492352 
L 1302.536488 378.078667 
L 1303.177929 376.498011 
L 1303.81937 400.488857 
L 1304.46081 393.709599 
L 1305.102251 397.36267 
L 1305.743692 357.038379 
L 1306.385133 376.041377 
L 1307.026573 398.556944 
L 1307.668014 163.460705 
L 1308.309455 383.698777 
L 1308.950896 370.140261 
L 1309.592336 376.041377 
L 1310.233777 352.155908 
L 1310.875218 348.186705 
L 1311.516659 374.425595 
L 1312.158099 360.445571 
L 1312.79954 276.143916 
L 1313.440981 330.975117 
L 1314.082422 341.723578 
L 1314.723862 360.867079 
L 1315.365303 297.184204 
L 1316.006744 220.153567 
L 1316.648185 177.75686 
L 1317.289625 329.32421 
L 1317.931066 296.797822 
L 1318.572507 241.088478 
L 1319.213948 387.808483 
L 1319.855388 326.79516 
L 1320.496829 289.56193 
L 1321.13827 387.948986 
L 1321.779711 360.586074 
L 1322.421151 378.078667 
L 1323.062592 271.261445 
L 1323.704033 381.380482 
L 1324.345474 392.515325 
L 1324.986914 290.018564 
L 1325.628355 330.377981 
L 1326.269796 349.626858 
L 1326.911237 372.774688 
L 1327.552677 373.687956 
L 1328.194118 382.785509 
L 1328.835559 357.178882 
L 1329.477 364.836282 
L 1330.11844 353.490684 
L 1330.759881 382.645007 
L 1331.401322 352.717919 
L 1332.042763 367.927343 
L 1332.684203 355.879231 
L 1333.325644 377.97329 
L 1333.967085 377.095148 
L 1334.608526 379.870077 
L 1335.249966 370.105135 
L 1335.891407 353.209679 
L 1336.532848 358.197527 
L 1337.174289 358.478532 
L 1337.815729 315.449563 
L 1338.45717 346.851929 
L 1339.098611 391.953314 
L 1339.740052 366.135933 
L 1340.381492 390.161904 
L 1341.664374 354.684958 
L 1342.305815 385.033553 
L 1342.947255 395.887391 
L 1343.588696 361.042708 
L 1344.230137 353.947318 
L 1344.871578 376.146754 
L 1345.513018 317.83811 
L 1346.154459 318.751378 
L 1346.7959 293.812138 
L 1347.437341 380.748219 
L 1348.078781 375.900874 
L 1348.720222 390.478035 
L 1349.361663 381.485859 
L 1350.003104 355.246969 
L 1350.644544 392.655828 
L 1351.285985 387.211346 
L 1351.927426 373.65283 
L 1352.568867 382.680132 
L 1353.210308 381.029225 
L 1354.493189 357.038379 
L 1355.13463 395.465883 
L 1355.776071 372.001923 
L 1356.417511 280.710256 
L 1357.058952 364.976785 
L 1357.700393 382.820635 
L 1358.341834 367.78684 
L 1358.983274 372.634185 
L 1359.624715 359.813308 
L 1360.266156 357.003253 
L 1360.907597 321.526307 
L 1361.549037 381.345356 
L 1362.190478 381.345356 
L 1362.831919 397.538299 
L 1363.47336 387.562603 
L 1364.1148 369.82413 
L 1364.756241 380.291585 
L 1365.397682 366.276435 
L 1366.039123 382.820635 
L 1366.680563 343.304234 
L 1367.322004 340.985939 
L 1367.963445 381.907367 
L 1368.604886 393.252965 
L 1369.246326 348.748716 
L 1369.887767 260.407607 
L 1370.529208 385.700941 
L 1371.170649 360.269942 
L 1371.812089 273.790495 
L 1372.45353 311.796491 
L 1373.094971 358.057024 
L 1373.736412 343.198857 
L 1374.377852 303.82296 
L 1375.019293 355.282094 
L 1375.660734 372.247802 
L 1376.302175 352.788171 
L 1376.943615 361.745221 
L 1377.585056 331.502003 
L 1378.226497 366.627692 
L 1378.867938 361.18321 
L 1379.509378 374.109464 
L 1380.150819 282.817797 
L 1380.79226 366.452064 
L 1381.433701 348.924345 
L 1382.075141 352.155908 
L 1382.716582 350.680629 
L 1383.358023 332.90703 
L 1383.999464 382.04787 
L 1384.640904 358.794663 
L 1385.282345 376.884393 
L 1385.923786 331.080494 
L 1386.565227 330.939992 
L 1387.206667 371.158906 
L 1387.848108 360.12944 
L 1388.489549 386.824964 
L 1389.13099 370.105135 
L 1389.77243 364.133768 
L 1390.413871 335.92784 
L 1391.055312 374.39047 
L 1391.696753 276.741053 
L 1392.338193 329.464713 
L 1392.979634 352.612542 
L 1393.621075 355.844106 
L 1394.262516 273.790495 
L 1394.903956 329.640341 
L 1395.545397 311.655988 
L 1396.828279 364.133768 
L 1397.469719 347.132935 
L 1398.11116 315.30906 
L 1398.752601 333.433916 
L 1399.394042 302.488183 
L 1400.035482 324.160734 
L 1401.318364 342.109961 
L 1401.959805 296.762696 
L 1402.601245 339.335032 
L 1403.242686 354.193198 
L 1403.884127 352.612542 
L 1404.525568 376.462885 
L 1405.808449 266.273598 
L 1406.44989 351.137263 
L 1407.091331 356.581745 
L 1407.732771 357.776018 
L 1408.374212 354.368827 
L 1409.015653 300.310391 
L 1409.657094 322.228821 
L 1410.298534 323.45822 
L 1410.939975 344.603885 
L 1411.581416 334.522812 
L 1412.222857 316.362831 
L 1412.864297 334.663315 
L 1413.505738 261.988263 
L 1414.147179 357.003253 
L 1414.78862 302.804315 
L 1415.43006 322.72058 
L 1416.071501 314.044535 
L 1416.712942 303.682457 
L 1417.354383 274.80914 
L 1417.995823 334.312058 
L 1418.637264 347.9057 
L 1419.278705 354.228324 
L 1419.920146 272.174713 
L 1420.561586 361.042708 
L 1421.203027 277.33819 
L 1421.844468 358.197527 
L 1422.485909 352.612542 
L 1423.127349 292.196356 
L 1423.76879 367.611211 
L 1424.410231 349.978115 
L 1425.051672 355.527974 
L 1425.693112 230.796651 
L 1426.334553 357.178882 
L 1426.975994 339.054026 
L 1427.617435 337.578747 
L 1428.258875 359.110795 
L 1428.900316 281.131764 
L 1429.541757 339.335032 
L 1430.183198 314.57142 
L 1430.824638 335.084823 
L 1431.466079 349.94299 
L 1432.10752 313.131267 
L 1432.748961 366.697944 
L 1433.390401 295.252291 
L 1434.031842 296.903199 
L 1434.673283 339.335032 
L 1435.314724 297.500335 
L 1435.956164 355.703603 
L 1436.597605 313.693278 
L 1437.239046 246.076326 
L 1439.163368 342.320715 
L 1439.804809 342.426092 
L 1440.44625 301.469538 
L 1441.08769 350.856258 
L 1441.729131 307.370654 
L 1442.370572 305.86025 
L 1443.012013 250.537289 
L 1443.653453 274.984769 
L 1444.936335 351.137263 
L 1445.577776 300.450893 
L 1446.219216 343.479863 
L 1446.860657 254.787497 
L 1447.502098 244.776676 
L 1448.143539 324.75787 
L 1448.784979 320.788668 
L 1449.42642 297.640838 
L 1450.067861 329.043205 
L 1450.709302 317.240973 
L 1451.350742 315.344186 
L 1451.992183 194.968448 
L 1452.633624 336.841108 
L 1453.275065 273.649992 
L 1453.916505 317.10047 
L 1454.557946 347.624694 
L 1455.199387 277.478693 
L 1455.840828 312.990764 
L 1456.482268 279.515982 
L 1457.123709 302.207178 
L 1457.76515 307.511157 
L 1458.406591 221.207338 
L 1459.048031 326.654658 
L 1459.689472 273.228484 
L 1460.972354 320.332034 
L 1461.613794 291.458717 
L 1462.255235 244.776676 
L 1462.896676 255.665639 
L 1463.538117 298.237975 
L 1464.179557 283.941819 
L 1464.820998 320.332034 
L 1465.462439 299.25662 
L 1466.10388 290.299569 
L 1466.74532 336.876233 
L 1467.386761 296.938324 
L 1468.028202 287.349011 
L 1468.669643 345.095645 
L 1469.311083 283.766191 
L 1469.952524 341.266944 
L 1470.593965 292.793493 
L 1471.235406 337.016736 
L 1471.876846 345.833284 
L 1472.518287 201.010067 
L 1473.159728 353.77169 
L 1473.801169 227.073328 
L 1474.442609 290.721077 
L 1475.08405 294.725406 
L 1476.366932 334.663315 
L 1477.008372 303.296074 
L 1477.649813 249.343015 
L 1478.291254 327.708428 
L 1478.932695 317.521978 
L 1479.574135 335.822463 
L 1480.215576 307.230151 
L 1480.857017 264.060679 
L 1481.498458 321.947815 
L 1482.139898 308.424425 
L 1482.781339 319.770023 
L 1483.42278 311.48036 
L 1484.064221 316.784339 
L 1484.705661 292.371985 
L 1485.347102 312.955639 
L 1485.988543 274.528135 
L 1486.629984 337.262616 
L 1487.271424 309.267441 
L 1487.912865 323.106963 
L 1488.554306 309.618698 
L 1489.195747 277.022059 
L 1489.837187 331.677631 
L 1490.478628 332.90703 
L 1491.120069 304.279594 
L 1491.76151 324.898373 
L 1492.40295 302.382806 
L 1493.044391 334.803818 
L 1493.685832 339.475534 
L 1494.327273 340.81031 
L 1494.327273 340.81031 
" style="fill:none;stroke:#1f77b4;stroke-linecap:square;stroke-width:1.5;"/>
   </g>
   <g id="line2d_15">
    <path clip-path="url(#p89da54a8b7)" d="M 276.872727 738.72 
L 333.960954 720.225411 
L 391.049181 701.499606 
L 448.778849 682.32827 
L 506.508516 662.920494 
L 564.238184 643.276276 
L 621.967851 623.395617 
L 679.697519 603.278516 
L 737.427187 582.924974 
L 795.156854 562.334991 
L 852.886522 541.508566 
L 910.616189 520.445701 
L 968.345857 499.146393 
L 1026.075524 477.610645 
L 1083.805192 455.838455 
L 1141.53486 433.829824 
L 1199.264527 411.584752 
L 1256.994195 389.103238 
L 1314.723862 366.385283 
L 1372.45353 343.430886 
L 1430.824638 319.981044 
L 1489.195747 296.289478 
L 1494.327273 294.195143 
L 1494.327273 294.195143 
" style="fill:none;stroke:#ff7f0e;stroke-linecap:square;stroke-width:1.5;"/>
   </g>
   <g id="patch_3">
    <path d="M 216 768.96 
L 216 103.68 
" style="fill:none;stroke:#000000;stroke-linecap:square;stroke-linejoin:miter;stroke-width:0.8;"/>
   </g>
   <g id="patch_4">
    <path d="M 1555.2 768.96 
L 1555.2 103.68 
" style="fill:none;stroke:#000000;stroke-linecap:square;stroke-linejoin:miter;stroke-width:0.8;"/>
   </g>
   <g id="patch_5">
    <path d="M 216 768.96 
L 1555.2 768.96 
" style="fill:none;stroke:#000000;stroke-linecap:square;stroke-linejoin:miter;stroke-width:0.8;"/>
   </g>
   <g id="patch_6">
    <path d="M 216 103.68 
L 1555.2 103.68 
" style="fill:none;stroke:#000000;stroke-linecap:square;stroke-linejoin:miter;stroke-width:0.8;"/>
   </g>
   <g id="legend_1">
    <g id="patch_7">
     <path d="M 1421.748437 141.03625 
L 1548.2 141.03625 
Q 1550.2 141.03625 1550.2 139.03625 
L 1550.2 110.68 
Q 1550.2 108.68 1548.2 108.68 
L 1421.748437 108.68 
Q 1419.748437 108.68 1419.748437 110.68 
L 1419.748437 139.03625 
Q 1419.748437 141.03625 1421.748437 141.03625 
z
" style="fill:#ffffff;opacity:0.8;stroke:#cccccc;stroke-linejoin:miter;"/>
    </g>
    <g id="line2d_16">
     <path d="M 1423.748437 116.778437 
L 1443.748437 116.778437 
" style="fill:none;stroke:#1f77b4;stroke-linecap:square;stroke-width:1.5;"/>
    </g>
    <g id="line2d_17"/>
    <g id="text_16">
     <!-- Experiment results -->
     <g transform="translate(1451.748437 120.278437)scale(0.1 -0.1)">
      <defs>
       <path d="M 9.8125 72.90625 
L 55.90625 72.90625 
L 55.90625 64.59375 
L 19.671875 64.59375 
L 19.671875 43.015625 
L 54.390625 43.015625 
L 54.390625 34.71875 
L 19.671875 34.71875 
L 19.671875 8.296875 
L 56.78125 8.296875 
L 56.78125 0 
L 9.8125 0 
z
" id="DejaVuSans-69"/>
       <path d="M 54.890625 54.6875 
L 35.109375 28.078125 
L 55.90625 0 
L 45.3125 0 
L 29.390625 21.484375 
L 13.484375 0 
L 2.875 0 
L 24.125 28.609375 
L 4.6875 54.6875 
L 15.28125 54.6875 
L 29.78125 35.203125 
L 44.28125 54.6875 
z
" id="DejaVuSans-120"/>
       <path d="M 18.109375 8.203125 
L 18.109375 -20.796875 
L 9.078125 -20.796875 
L 9.078125 54.6875 
L 18.109375 54.6875 
L 18.109375 46.390625 
Q 20.953125 51.265625 25.265625 53.625 
Q 29.59375 56 35.59375 56 
Q 45.5625 56 51.78125 48.09375 
Q 58.015625 40.1875 58.015625 27.296875 
Q 58.015625 14.40625 51.78125 6.484375 
Q 45.5625 -1.421875 35.59375 -1.421875 
Q 29.59375 -1.421875 25.265625 0.953125 
Q 20.953125 3.328125 18.109375 8.203125 
z
M 48.6875 27.296875 
Q 48.6875 37.203125 44.609375 42.84375 
Q 40.53125 48.484375 33.40625 48.484375 
Q 26.265625 48.484375 22.1875 42.84375 
Q 18.109375 37.203125 18.109375 27.296875 
Q 18.109375 17.390625 22.1875 11.75 
Q 26.265625 6.109375 33.40625 6.109375 
Q 40.53125 6.109375 44.609375 11.75 
Q 48.6875 17.390625 48.6875 27.296875 
z
" id="DejaVuSans-112"/>
       <path d="M 8.5 21.578125 
L 8.5 54.6875 
L 17.484375 54.6875 
L 17.484375 21.921875 
Q 17.484375 14.15625 20.5 10.265625 
Q 23.53125 6.390625 29.59375 6.390625 
Q 36.859375 6.390625 41.078125 11.03125 
Q 45.3125 15.671875 45.3125 23.6875 
L 45.3125 54.6875 
L 54.296875 54.6875 
L 54.296875 0 
L 45.3125 0 
L 45.3125 8.40625 
Q 42.046875 3.421875 37.71875 1 
Q 33.40625 -1.421875 27.6875 -1.421875 
Q 18.265625 -1.421875 13.375 4.4375 
Q 8.5 10.296875 8.5 21.578125 
z
M 31.109375 56 
z
" id="DejaVuSans-117"/>
      </defs>
      <use xlink:href="#DejaVuSans-69"/>
      <use x="63.183594" xlink:href="#DejaVuSans-120"/>
      <use x="122.363281" xlink:href="#DejaVuSans-112"/>
      <use x="185.839844" xlink:href="#DejaVuSans-101"/>
      <use x="247.363281" xlink:href="#DejaVuSans-114"/>
      <use x="288.476562" xlink:href="#DejaVuSans-105"/>
      <use x="316.259766" xlink:href="#DejaVuSans-109"/>
      <use x="413.671875" xlink:href="#DejaVuSans-101"/>
      <use x="475.195312" xlink:href="#DejaVuSans-110"/>
      <use x="538.574219" xlink:href="#DejaVuSans-116"/>
      <use x="577.783203" xlink:href="#DejaVuSans-32"/>
      <use x="609.570312" xlink:href="#DejaVuSans-114"/>
      <use x="648.433594" xlink:href="#DejaVuSans-101"/>
      <use x="709.957031" xlink:href="#DejaVuSans-115"/>
      <use x="762.056641" xlink:href="#DejaVuSans-117"/>
      <use x="825.435547" xlink:href="#DejaVuSans-108"/>
      <use x="853.21875" xlink:href="#DejaVuSans-116"/>
      <use x="892.427734" xlink:href="#DejaVuSans-115"/>
     </g>
    </g>
    <g id="line2d_18">
     <path d="M 1423.748437 131.456563 
L 1443.748437 131.456563 
" style="fill:none;stroke:#ff7f0e;stroke-linecap:square;stroke-width:1.5;"/>
    </g>
    <g id="line2d_19"/>
    <g id="text_17">
     <!-- Approximation -->
     <g transform="translate(1451.748437 134.956563)scale(0.1 -0.1)">
      <defs>
       <path d="M 34.1875 63.1875 
L 20.796875 26.90625 
L 47.609375 26.90625 
z
M 28.609375 72.90625 
L 39.796875 72.90625 
L 67.578125 0 
L 57.328125 0 
L 50.6875 18.703125 
L 17.828125 18.703125 
L 11.1875 0 
L 0.78125 0 
z
" id="DejaVuSans-65"/>
       <path d="M 34.28125 27.484375 
Q 23.390625 27.484375 19.1875 25 
Q 14.984375 22.515625 14.984375 16.5 
Q 14.984375 11.71875 18.140625 8.90625 
Q 21.296875 6.109375 26.703125 6.109375 
Q 34.1875 6.109375 38.703125 11.40625 
Q 43.21875 16.703125 43.21875 25.484375 
L 43.21875 27.484375 
z
M 52.203125 31.203125 
L 52.203125 0 
L 43.21875 0 
L 43.21875 8.296875 
Q 40.140625 3.328125 35.546875 0.953125 
Q 30.953125 -1.421875 24.3125 -1.421875 
Q 15.921875 -1.421875 10.953125 3.296875 
Q 6 8.015625 6 15.921875 
Q 6 25.140625 12.171875 29.828125 
Q 18.359375 34.515625 30.609375 34.515625 
L 43.21875 34.515625 
L 43.21875 35.40625 
Q 43.21875 41.609375 39.140625 45 
Q 35.0625 48.390625 27.6875 48.390625 
Q 23 48.390625 18.546875 47.265625 
Q 14.109375 46.140625 10.015625 43.890625 
L 10.015625 52.203125 
Q 14.9375 54.109375 19.578125 55.046875 
Q 24.21875 56 28.609375 56 
Q 40.484375 56 46.34375 49.84375 
Q 52.203125 43.703125 52.203125 31.203125 
z
" id="DejaVuSans-97"/>
      </defs>
      <use xlink:href="#DejaVuSans-65"/>
      <use x="68.408203" xlink:href="#DejaVuSans-112"/>
      <use x="131.884766" xlink:href="#DejaVuSans-112"/>
      <use x="195.361328" xlink:href="#DejaVuSans-114"/>
      <use x="234.224609" xlink:href="#DejaVuSans-111"/>
      <use x="292.28125" xlink:href="#DejaVuSans-120"/>
      <use x="351.460938" xlink:href="#DejaVuSans-105"/>
      <use x="379.244141" xlink:href="#DejaVuSans-109"/>
      <use x="476.65625" xlink:href="#DejaVuSans-97"/>
      <use x="537.935547" xlink:href="#DejaVuSans-116"/>
      <use x="577.144531" xlink:href="#DejaVuSans-105"/>
      <use x="604.927734" xlink:href="#DejaVuSans-111"/>
      <use x="666.109375" xlink:href="#DejaVuSans-110"/>
     </g>
    </g>
   </g>
  </g>
 </g>
 <defs>
  <clipPath id="p89da54a8b7">
   <rect height="665.28" width="1339.2" x="216" y="103.68"/>
  </clipPath>
 </defs>
</svg>
