<?xml version="1.0" encoding="utf-8" standalone="no"?>
<!DOCTYPE svg PUBLIC "-//W3C//DTD SVG 1.1//EN"
  "http://www.w3.org/Graphics/SVG/1.1/DTD/svg11.dtd">
<!-- Created with matplotlib (https://matplotlib.org/) -->
<svg height="864pt" version="1.1" viewBox="0 0 1728 864" width="1728pt" xmlns="http://www.w3.org/2000/svg" xmlns:xlink="http://www.w3.org/1999/xlink">
 <metadata>
  <rdf:RDF xmlns:cc="http://creativecommons.org/ns#" xmlns:dc="http://purl.org/dc/elements/1.1/" xmlns:rdf="http://www.w3.org/1999/02/22-rdf-syntax-ns#">
   <cc:Work>
    <dc:type rdf:resource="http://purl.org/dc/dcmitype/StillImage"/>
    <dc:date>2020-09-14T22:33:38.548100</dc:date>
    <dc:format>image/svg+xml</dc:format>
    <dc:creator>
     <cc:Agent>
      <dc:title>Matplotlib v3.3.1, https://matplotlib.org/</dc:title>
     </cc:Agent>
    </dc:creator>
   </cc:Work>
  </rdf:RDF>
 </metadata>
 <defs>
  <style type="text/css">*{stroke-linecap:butt;stroke-linejoin:round;}</style>
 </defs>
 <g id="figure_1">
  <g id="patch_1">
   <path d="M 0 864 
L 1728 864 
L 1728 0 
L 0 0 
z
" style="fill:#ffffff;"/>
  </g>
  <g id="axes_1">
   <g id="patch_2">
    <path d="M 216 768.96 
L 1555.2 768.96 
L 1555.2 103.68 
L 216 103.68 
z
" style="fill:#ffffff;"/>
   </g>
   <g id="matplotlib.axis_1">
    <g id="xtick_1">
     <g id="line2d_1">
      <defs>
       <path d="M 0 0 
L 0 3.5 
" id="m81afaabed6" style="stroke:#000000;stroke-width:0.8;"/>
      </defs>
      <g>
       <use style="stroke:#000000;stroke-width:0.8;" x="276.263391" xlink:href="#m81afaabed6" y="768.96"/>
      </g>
     </g>
     <g id="text_1">
      <!-- 0 -->
      <g transform="translate(273.082141 783.558437)scale(0.1 -0.1)">
       <defs>
        <path d="M 31.78125 66.40625 
Q 24.171875 66.40625 20.328125 58.90625 
Q 16.5 51.421875 16.5 36.375 
Q 16.5 21.390625 20.328125 13.890625 
Q 24.171875 6.390625 31.78125 6.390625 
Q 39.453125 6.390625 43.28125 13.890625 
Q 47.125 21.390625 47.125 36.375 
Q 47.125 51.421875 43.28125 58.90625 
Q 39.453125 66.40625 31.78125 66.40625 
z
M 31.78125 74.21875 
Q 44.046875 74.21875 50.515625 64.515625 
Q 56.984375 54.828125 56.984375 36.375 
Q 56.984375 17.96875 50.515625 8.265625 
Q 44.046875 -1.421875 31.78125 -1.421875 
Q 19.53125 -1.421875 13.0625 8.265625 
Q 6.59375 17.96875 6.59375 36.375 
Q 6.59375 54.828125 13.0625 64.515625 
Q 19.53125 74.21875 31.78125 74.21875 
z
" id="DejaVuSans-48"/>
       </defs>
       <use xlink:href="#DejaVuSans-48"/>
      </g>
     </g>
    </g>
    <g id="xtick_2">
     <g id="line2d_2">
      <g>
       <use style="stroke:#000000;stroke-width:0.8;" x="428.597543" xlink:href="#m81afaabed6" y="768.96"/>
      </g>
     </g>
     <g id="text_2">
      <!-- 250 -->
      <g transform="translate(419.053793 783.558437)scale(0.1 -0.1)">
       <defs>
        <path d="M 19.1875 8.296875 
L 53.609375 8.296875 
L 53.609375 0 
L 7.328125 0 
L 7.328125 8.296875 
Q 12.9375 14.109375 22.625 23.890625 
Q 32.328125 33.6875 34.8125 36.53125 
Q 39.546875 41.84375 41.421875 45.53125 
Q 43.3125 49.21875 43.3125 52.78125 
Q 43.3125 58.59375 39.234375 62.25 
Q 35.15625 65.921875 28.609375 65.921875 
Q 23.96875 65.921875 18.8125 64.3125 
Q 13.671875 62.703125 7.8125 59.421875 
L 7.8125 69.390625 
Q 13.765625 71.78125 18.9375 73 
Q 24.125 74.21875 28.421875 74.21875 
Q 39.75 74.21875 46.484375 68.546875 
Q 53.21875 62.890625 53.21875 53.421875 
Q 53.21875 48.921875 51.53125 44.890625 
Q 49.859375 40.875 45.40625 35.40625 
Q 44.1875 33.984375 37.640625 27.21875 
Q 31.109375 20.453125 19.1875 8.296875 
z
" id="DejaVuSans-50"/>
        <path d="M 10.796875 72.90625 
L 49.515625 72.90625 
L 49.515625 64.59375 
L 19.828125 64.59375 
L 19.828125 46.734375 
Q 21.96875 47.46875 24.109375 47.828125 
Q 26.265625 48.1875 28.421875 48.1875 
Q 40.625 48.1875 47.75 41.5 
Q 54.890625 34.8125 54.890625 23.390625 
Q 54.890625 11.625 47.5625 5.09375 
Q 40.234375 -1.421875 26.90625 -1.421875 
Q 22.3125 -1.421875 17.546875 -0.640625 
Q 12.796875 0.140625 7.71875 1.703125 
L 7.71875 11.625 
Q 12.109375 9.234375 16.796875 8.0625 
Q 21.484375 6.890625 26.703125 6.890625 
Q 35.15625 6.890625 40.078125 11.328125 
Q 45.015625 15.765625 45.015625 23.390625 
Q 45.015625 31 40.078125 35.4375 
Q 35.15625 39.890625 26.703125 39.890625 
Q 22.75 39.890625 18.8125 39.015625 
Q 14.890625 38.140625 10.796875 36.28125 
z
" id="DejaVuSans-53"/>
       </defs>
       <use xlink:href="#DejaVuSans-50"/>
       <use x="63.623047" xlink:href="#DejaVuSans-53"/>
       <use x="127.246094" xlink:href="#DejaVuSans-48"/>
      </g>
     </g>
    </g>
    <g id="xtick_3">
     <g id="line2d_3">
      <g>
       <use style="stroke:#000000;stroke-width:0.8;" x="580.931695" xlink:href="#m81afaabed6" y="768.96"/>
      </g>
     </g>
     <g id="text_3">
      <!-- 500 -->
      <g transform="translate(571.387945 783.558437)scale(0.1 -0.1)">
       <use xlink:href="#DejaVuSans-53"/>
       <use x="63.623047" xlink:href="#DejaVuSans-48"/>
       <use x="127.246094" xlink:href="#DejaVuSans-48"/>
      </g>
     </g>
    </g>
    <g id="xtick_4">
     <g id="line2d_4">
      <g>
       <use style="stroke:#000000;stroke-width:0.8;" x="733.265848" xlink:href="#m81afaabed6" y="768.96"/>
      </g>
     </g>
     <g id="text_4">
      <!-- 750 -->
      <g transform="translate(723.722098 783.558437)scale(0.1 -0.1)">
       <defs>
        <path d="M 8.203125 72.90625 
L 55.078125 72.90625 
L 55.078125 68.703125 
L 28.609375 0 
L 18.3125 0 
L 43.21875 64.59375 
L 8.203125 64.59375 
z
" id="DejaVuSans-55"/>
       </defs>
       <use xlink:href="#DejaVuSans-55"/>
       <use x="63.623047" xlink:href="#DejaVuSans-53"/>
       <use x="127.246094" xlink:href="#DejaVuSans-48"/>
      </g>
     </g>
    </g>
    <g id="xtick_5">
     <g id="line2d_5">
      <g>
       <use style="stroke:#000000;stroke-width:0.8;" x="885.6" xlink:href="#m81afaabed6" y="768.96"/>
      </g>
     </g>
     <g id="text_5">
      <!-- 1000 -->
      <g transform="translate(872.875 783.558437)scale(0.1 -0.1)">
       <defs>
        <path d="M 12.40625 8.296875 
L 28.515625 8.296875 
L 28.515625 63.921875 
L 10.984375 60.40625 
L 10.984375 69.390625 
L 28.421875 72.90625 
L 38.28125 72.90625 
L 38.28125 8.296875 
L 54.390625 8.296875 
L 54.390625 0 
L 12.40625 0 
z
" id="DejaVuSans-49"/>
       </defs>
       <use xlink:href="#DejaVuSans-49"/>
       <use x="63.623047" xlink:href="#DejaVuSans-48"/>
       <use x="127.246094" xlink:href="#DejaVuSans-48"/>
       <use x="190.869141" xlink:href="#DejaVuSans-48"/>
      </g>
     </g>
    </g>
    <g id="xtick_6">
     <g id="line2d_6">
      <g>
       <use style="stroke:#000000;stroke-width:0.8;" x="1037.934152" xlink:href="#m81afaabed6" y="768.96"/>
      </g>
     </g>
     <g id="text_6">
      <!-- 1250 -->
      <g transform="translate(1025.209152 783.558437)scale(0.1 -0.1)">
       <use xlink:href="#DejaVuSans-49"/>
       <use x="63.623047" xlink:href="#DejaVuSans-50"/>
       <use x="127.246094" xlink:href="#DejaVuSans-53"/>
       <use x="190.869141" xlink:href="#DejaVuSans-48"/>
      </g>
     </g>
    </g>
    <g id="xtick_7">
     <g id="line2d_7">
      <g>
       <use style="stroke:#000000;stroke-width:0.8;" x="1190.268305" xlink:href="#m81afaabed6" y="768.96"/>
      </g>
     </g>
     <g id="text_7">
      <!-- 1500 -->
      <g transform="translate(1177.543305 783.558437)scale(0.1 -0.1)">
       <use xlink:href="#DejaVuSans-49"/>
       <use x="63.623047" xlink:href="#DejaVuSans-53"/>
       <use x="127.246094" xlink:href="#DejaVuSans-48"/>
       <use x="190.869141" xlink:href="#DejaVuSans-48"/>
      </g>
     </g>
    </g>
    <g id="xtick_8">
     <g id="line2d_8">
      <g>
       <use style="stroke:#000000;stroke-width:0.8;" x="1342.602457" xlink:href="#m81afaabed6" y="768.96"/>
      </g>
     </g>
     <g id="text_8">
      <!-- 1750 -->
      <g transform="translate(1329.877457 783.558437)scale(0.1 -0.1)">
       <use xlink:href="#DejaVuSans-49"/>
       <use x="63.623047" xlink:href="#DejaVuSans-55"/>
       <use x="127.246094" xlink:href="#DejaVuSans-53"/>
       <use x="190.869141" xlink:href="#DejaVuSans-48"/>
      </g>
     </g>
    </g>
    <g id="xtick_9">
     <g id="line2d_9">
      <g>
       <use style="stroke:#000000;stroke-width:0.8;" x="1494.936609" xlink:href="#m81afaabed6" y="768.96"/>
      </g>
     </g>
     <g id="text_9">
      <!-- 2000 -->
      <g transform="translate(1482.211609 783.558437)scale(0.1 -0.1)">
       <use xlink:href="#DejaVuSans-50"/>
       <use x="63.623047" xlink:href="#DejaVuSans-48"/>
       <use x="127.246094" xlink:href="#DejaVuSans-48"/>
       <use x="190.869141" xlink:href="#DejaVuSans-48"/>
      </g>
     </g>
    </g>
    <g id="text_10">
     <!-- Vector length -->
     <g transform="translate(852.139844 797.236562)scale(0.1 -0.1)">
      <defs>
       <path d="M 28.609375 0 
L 0.78125 72.90625 
L 11.078125 72.90625 
L 34.1875 11.53125 
L 57.328125 72.90625 
L 67.578125 72.90625 
L 39.796875 0 
z
" id="DejaVuSans-86"/>
       <path d="M 56.203125 29.59375 
L 56.203125 25.203125 
L 14.890625 25.203125 
Q 15.484375 15.921875 20.484375 11.0625 
Q 25.484375 6.203125 34.421875 6.203125 
Q 39.59375 6.203125 44.453125 7.46875 
Q 49.3125 8.734375 54.109375 11.28125 
L 54.109375 2.78125 
Q 49.265625 0.734375 44.1875 -0.34375 
Q 39.109375 -1.421875 33.890625 -1.421875 
Q 20.796875 -1.421875 13.15625 6.1875 
Q 5.515625 13.8125 5.515625 26.8125 
Q 5.515625 40.234375 12.765625 48.109375 
Q 20.015625 56 32.328125 56 
Q 43.359375 56 49.78125 48.890625 
Q 56.203125 41.796875 56.203125 29.59375 
z
M 47.21875 32.234375 
Q 47.125 39.59375 43.09375 43.984375 
Q 39.0625 48.390625 32.421875 48.390625 
Q 24.90625 48.390625 20.390625 44.140625 
Q 15.875 39.890625 15.1875 32.171875 
z
" id="DejaVuSans-101"/>
       <path d="M 48.78125 52.59375 
L 48.78125 44.1875 
Q 44.96875 46.296875 41.140625 47.34375 
Q 37.3125 48.390625 33.40625 48.390625 
Q 24.65625 48.390625 19.8125 42.84375 
Q 14.984375 37.3125 14.984375 27.296875 
Q 14.984375 17.28125 19.8125 11.734375 
Q 24.65625 6.203125 33.40625 6.203125 
Q 37.3125 6.203125 41.140625 7.25 
Q 44.96875 8.296875 48.78125 10.40625 
L 48.78125 2.09375 
Q 45.015625 0.34375 40.984375 -0.53125 
Q 36.96875 -1.421875 32.421875 -1.421875 
Q 20.0625 -1.421875 12.78125 6.34375 
Q 5.515625 14.109375 5.515625 27.296875 
Q 5.515625 40.671875 12.859375 48.328125 
Q 20.21875 56 33.015625 56 
Q 37.15625 56 41.109375 55.140625 
Q 45.0625 54.296875 48.78125 52.59375 
z
" id="DejaVuSans-99"/>
       <path d="M 18.3125 70.21875 
L 18.3125 54.6875 
L 36.8125 54.6875 
L 36.8125 47.703125 
L 18.3125 47.703125 
L 18.3125 18.015625 
Q 18.3125 11.328125 20.140625 9.421875 
Q 21.96875 7.515625 27.59375 7.515625 
L 36.8125 7.515625 
L 36.8125 0 
L 27.59375 0 
Q 17.1875 0 13.234375 3.875 
Q 9.28125 7.765625 9.28125 18.015625 
L 9.28125 47.703125 
L 2.6875 47.703125 
L 2.6875 54.6875 
L 9.28125 54.6875 
L 9.28125 70.21875 
z
" id="DejaVuSans-116"/>
       <path d="M 30.609375 48.390625 
Q 23.390625 48.390625 19.1875 42.75 
Q 14.984375 37.109375 14.984375 27.296875 
Q 14.984375 17.484375 19.15625 11.84375 
Q 23.34375 6.203125 30.609375 6.203125 
Q 37.796875 6.203125 41.984375 11.859375 
Q 46.1875 17.53125 46.1875 27.296875 
Q 46.1875 37.015625 41.984375 42.703125 
Q 37.796875 48.390625 30.609375 48.390625 
z
M 30.609375 56 
Q 42.328125 56 49.015625 48.375 
Q 55.71875 40.765625 55.71875 27.296875 
Q 55.71875 13.875 49.015625 6.21875 
Q 42.328125 -1.421875 30.609375 -1.421875 
Q 18.84375 -1.421875 12.171875 6.21875 
Q 5.515625 13.875 5.515625 27.296875 
Q 5.515625 40.765625 12.171875 48.375 
Q 18.84375 56 30.609375 56 
z
" id="DejaVuSans-111"/>
       <path d="M 41.109375 46.296875 
Q 39.59375 47.171875 37.8125 47.578125 
Q 36.03125 48 33.890625 48 
Q 26.265625 48 22.1875 43.046875 
Q 18.109375 38.09375 18.109375 28.8125 
L 18.109375 0 
L 9.078125 0 
L 9.078125 54.6875 
L 18.109375 54.6875 
L 18.109375 46.1875 
Q 20.953125 51.171875 25.484375 53.578125 
Q 30.03125 56 36.53125 56 
Q 37.453125 56 38.578125 55.875 
Q 39.703125 55.765625 41.0625 55.515625 
z
" id="DejaVuSans-114"/>
       <path id="DejaVuSans-32"/>
       <path d="M 9.421875 75.984375 
L 18.40625 75.984375 
L 18.40625 0 
L 9.421875 0 
z
" id="DejaVuSans-108"/>
       <path d="M 54.890625 33.015625 
L 54.890625 0 
L 45.90625 0 
L 45.90625 32.71875 
Q 45.90625 40.484375 42.875 44.328125 
Q 39.84375 48.1875 33.796875 48.1875 
Q 26.515625 48.1875 22.3125 43.546875 
Q 18.109375 38.921875 18.109375 30.90625 
L 18.109375 0 
L 9.078125 0 
L 9.078125 54.6875 
L 18.109375 54.6875 
L 18.109375 46.1875 
Q 21.34375 51.125 25.703125 53.5625 
Q 30.078125 56 35.796875 56 
Q 45.21875 56 50.046875 50.171875 
Q 54.890625 44.34375 54.890625 33.015625 
z
" id="DejaVuSans-110"/>
       <path d="M 45.40625 27.984375 
Q 45.40625 37.75 41.375 43.109375 
Q 37.359375 48.484375 30.078125 48.484375 
Q 22.859375 48.484375 18.828125 43.109375 
Q 14.796875 37.75 14.796875 27.984375 
Q 14.796875 18.265625 18.828125 12.890625 
Q 22.859375 7.515625 30.078125 7.515625 
Q 37.359375 7.515625 41.375 12.890625 
Q 45.40625 18.265625 45.40625 27.984375 
z
M 54.390625 6.78125 
Q 54.390625 -7.171875 48.1875 -13.984375 
Q 42 -20.796875 29.203125 -20.796875 
Q 24.46875 -20.796875 20.265625 -20.09375 
Q 16.0625 -19.390625 12.109375 -17.921875 
L 12.109375 -9.1875 
Q 16.0625 -11.328125 19.921875 -12.34375 
Q 23.78125 -13.375 27.78125 -13.375 
Q 36.625 -13.375 41.015625 -8.765625 
Q 45.40625 -4.15625 45.40625 5.171875 
L 45.40625 9.625 
Q 42.625 4.78125 38.28125 2.390625 
Q 33.9375 0 27.875 0 
Q 17.828125 0 11.671875 7.65625 
Q 5.515625 15.328125 5.515625 27.984375 
Q 5.515625 40.671875 11.671875 48.328125 
Q 17.828125 56 27.875 56 
Q 33.9375 56 38.28125 53.609375 
Q 42.625 51.21875 45.40625 46.390625 
L 45.40625 54.6875 
L 54.390625 54.6875 
z
" id="DejaVuSans-103"/>
       <path d="M 54.890625 33.015625 
L 54.890625 0 
L 45.90625 0 
L 45.90625 32.71875 
Q 45.90625 40.484375 42.875 44.328125 
Q 39.84375 48.1875 33.796875 48.1875 
Q 26.515625 48.1875 22.3125 43.546875 
Q 18.109375 38.921875 18.109375 30.90625 
L 18.109375 0 
L 9.078125 0 
L 9.078125 75.984375 
L 18.109375 75.984375 
L 18.109375 46.1875 
Q 21.34375 51.125 25.703125 53.5625 
Q 30.078125 56 35.796875 56 
Q 45.21875 56 50.046875 50.171875 
Q 54.890625 44.34375 54.890625 33.015625 
z
" id="DejaVuSans-104"/>
      </defs>
      <use xlink:href="#DejaVuSans-86"/>
      <use x="60.658203" xlink:href="#DejaVuSans-101"/>
      <use x="122.181641" xlink:href="#DejaVuSans-99"/>
      <use x="177.162109" xlink:href="#DejaVuSans-116"/>
      <use x="216.371094" xlink:href="#DejaVuSans-111"/>
      <use x="277.552734" xlink:href="#DejaVuSans-114"/>
      <use x="318.666016" xlink:href="#DejaVuSans-32"/>
      <use x="350.453125" xlink:href="#DejaVuSans-108"/>
      <use x="378.236328" xlink:href="#DejaVuSans-101"/>
      <use x="439.759766" xlink:href="#DejaVuSans-110"/>
      <use x="503.138672" xlink:href="#DejaVuSans-103"/>
      <use x="566.615234" xlink:href="#DejaVuSans-116"/>
      <use x="605.824219" xlink:href="#DejaVuSans-104"/>
     </g>
    </g>
   </g>
   <g id="matplotlib.axis_2">
    <g id="ytick_1">
     <g id="line2d_10">
      <defs>
       <path d="M 0 0 
L -3.5 0 
" id="m85fc1c69d9" style="stroke:#000000;stroke-width:0.8;"/>
      </defs>
      <g>
       <use style="stroke:#000000;stroke-width:0.8;" x="216" xlink:href="#m85fc1c69d9" y="738.989054"/>
      </g>
     </g>
     <g id="text_11">
      <!-- 0 -->
      <g transform="translate(202.6375 742.788273)scale(0.1 -0.1)">
       <use xlink:href="#DejaVuSans-48"/>
      </g>
     </g>
    </g>
    <g id="ytick_2">
     <g id="line2d_11">
      <g>
       <use style="stroke:#000000;stroke-width:0.8;" x="216" xlink:href="#m85fc1c69d9" y="597.927215"/>
      </g>
     </g>
     <g id="text_12">
      <!-- 2 -->
      <g transform="translate(202.6375 601.726433)scale(0.1 -0.1)">
       <use xlink:href="#DejaVuSans-50"/>
      </g>
     </g>
    </g>
    <g id="ytick_3">
     <g id="line2d_12">
      <g>
       <use style="stroke:#000000;stroke-width:0.8;" x="216" xlink:href="#m85fc1c69d9" y="456.865375"/>
      </g>
     </g>
     <g id="text_13">
      <!-- 4 -->
      <g transform="translate(202.6375 460.664594)scale(0.1 -0.1)">
       <defs>
        <path d="M 37.796875 64.3125 
L 12.890625 25.390625 
L 37.796875 25.390625 
z
M 35.203125 72.90625 
L 47.609375 72.90625 
L 47.609375 25.390625 
L 58.015625 25.390625 
L 58.015625 17.1875 
L 47.609375 17.1875 
L 47.609375 0 
L 37.796875 0 
L 37.796875 17.1875 
L 4.890625 17.1875 
L 4.890625 26.703125 
z
" id="DejaVuSans-52"/>
       </defs>
       <use xlink:href="#DejaVuSans-52"/>
      </g>
     </g>
    </g>
    <g id="ytick_4">
     <g id="line2d_13">
      <g>
       <use style="stroke:#000000;stroke-width:0.8;" x="216" xlink:href="#m85fc1c69d9" y="315.803536"/>
      </g>
     </g>
     <g id="text_14">
      <!-- 6 -->
      <g transform="translate(202.6375 319.602754)scale(0.1 -0.1)">
       <defs>
        <path d="M 33.015625 40.375 
Q 26.375 40.375 22.484375 35.828125 
Q 18.609375 31.296875 18.609375 23.390625 
Q 18.609375 15.53125 22.484375 10.953125 
Q 26.375 6.390625 33.015625 6.390625 
Q 39.65625 6.390625 43.53125 10.953125 
Q 47.40625 15.53125 47.40625 23.390625 
Q 47.40625 31.296875 43.53125 35.828125 
Q 39.65625 40.375 33.015625 40.375 
z
M 52.59375 71.296875 
L 52.59375 62.3125 
Q 48.875 64.0625 45.09375 64.984375 
Q 41.3125 65.921875 37.59375 65.921875 
Q 27.828125 65.921875 22.671875 59.328125 
Q 17.53125 52.734375 16.796875 39.40625 
Q 19.671875 43.65625 24.015625 45.921875 
Q 28.375 48.1875 33.59375 48.1875 
Q 44.578125 48.1875 50.953125 41.515625 
Q 57.328125 34.859375 57.328125 23.390625 
Q 57.328125 12.15625 50.6875 5.359375 
Q 44.046875 -1.421875 33.015625 -1.421875 
Q 20.359375 -1.421875 13.671875 8.265625 
Q 6.984375 17.96875 6.984375 36.375 
Q 6.984375 53.65625 15.1875 63.9375 
Q 23.390625 74.21875 37.203125 74.21875 
Q 40.921875 74.21875 44.703125 73.484375 
Q 48.484375 72.75 52.59375 71.296875 
z
" id="DejaVuSans-54"/>
       </defs>
       <use xlink:href="#DejaVuSans-54"/>
      </g>
     </g>
    </g>
    <g id="ytick_5">
     <g id="line2d_14">
      <g>
       <use style="stroke:#000000;stroke-width:0.8;" x="216" xlink:href="#m85fc1c69d9" y="174.741696"/>
      </g>
     </g>
     <g id="text_15">
      <!-- 8 -->
      <g transform="translate(202.6375 178.540915)scale(0.1 -0.1)">
       <defs>
        <path d="M 31.78125 34.625 
Q 24.75 34.625 20.71875 30.859375 
Q 16.703125 27.09375 16.703125 20.515625 
Q 16.703125 13.921875 20.71875 10.15625 
Q 24.75 6.390625 31.78125 6.390625 
Q 38.8125 6.390625 42.859375 10.171875 
Q 46.921875 13.96875 46.921875 20.515625 
Q 46.921875 27.09375 42.890625 30.859375 
Q 38.875 34.625 31.78125 34.625 
z
M 21.921875 38.8125 
Q 15.578125 40.375 12.03125 44.71875 
Q 8.5 49.078125 8.5 55.328125 
Q 8.5 64.0625 14.71875 69.140625 
Q 20.953125 74.21875 31.78125 74.21875 
Q 42.671875 74.21875 48.875 69.140625 
Q 55.078125 64.0625 55.078125 55.328125 
Q 55.078125 49.078125 51.53125 44.71875 
Q 48 40.375 41.703125 38.8125 
Q 48.828125 37.15625 52.796875 32.3125 
Q 56.78125 27.484375 56.78125 20.515625 
Q 56.78125 9.90625 50.3125 4.234375 
Q 43.84375 -1.421875 31.78125 -1.421875 
Q 19.734375 -1.421875 13.25 4.234375 
Q 6.78125 9.90625 6.78125 20.515625 
Q 6.78125 27.484375 10.78125 32.3125 
Q 14.796875 37.15625 21.921875 38.8125 
z
M 18.3125 54.390625 
Q 18.3125 48.734375 21.84375 45.5625 
Q 25.390625 42.390625 31.78125 42.390625 
Q 38.140625 42.390625 41.71875 45.5625 
Q 45.3125 48.734375 45.3125 54.390625 
Q 45.3125 60.0625 41.71875 63.234375 
Q 38.140625 66.40625 31.78125 66.40625 
Q 25.390625 66.40625 21.84375 63.234375 
Q 18.3125 60.0625 18.3125 54.390625 
z
" id="DejaVuSans-56"/>
       </defs>
       <use xlink:href="#DejaVuSans-56"/>
      </g>
     </g>
    </g>
    <g id="text_16">
     <!-- Time, ms -->
     <g transform="translate(196.557812 459.206719)rotate(-90)scale(0.1 -0.1)">
      <defs>
       <path d="M -0.296875 72.90625 
L 61.375 72.90625 
L 61.375 64.59375 
L 35.5 64.59375 
L 35.5 0 
L 25.59375 0 
L 25.59375 64.59375 
L -0.296875 64.59375 
z
" id="DejaVuSans-84"/>
       <path d="M 9.421875 54.6875 
L 18.40625 54.6875 
L 18.40625 0 
L 9.421875 0 
z
M 9.421875 75.984375 
L 18.40625 75.984375 
L 18.40625 64.59375 
L 9.421875 64.59375 
z
" id="DejaVuSans-105"/>
       <path d="M 52 44.1875 
Q 55.375 50.25 60.0625 53.125 
Q 64.75 56 71.09375 56 
Q 79.640625 56 84.28125 50.015625 
Q 88.921875 44.046875 88.921875 33.015625 
L 88.921875 0 
L 79.890625 0 
L 79.890625 32.71875 
Q 79.890625 40.578125 77.09375 44.375 
Q 74.3125 48.1875 68.609375 48.1875 
Q 61.625 48.1875 57.5625 43.546875 
Q 53.515625 38.921875 53.515625 30.90625 
L 53.515625 0 
L 44.484375 0 
L 44.484375 32.71875 
Q 44.484375 40.625 41.703125 44.40625 
Q 38.921875 48.1875 33.109375 48.1875 
Q 26.21875 48.1875 22.15625 43.53125 
Q 18.109375 38.875 18.109375 30.90625 
L 18.109375 0 
L 9.078125 0 
L 9.078125 54.6875 
L 18.109375 54.6875 
L 18.109375 46.1875 
Q 21.1875 51.21875 25.484375 53.609375 
Q 29.78125 56 35.6875 56 
Q 41.65625 56 45.828125 52.96875 
Q 50 49.953125 52 44.1875 
z
" id="DejaVuSans-109"/>
       <path d="M 11.71875 12.40625 
L 22.015625 12.40625 
L 22.015625 4 
L 14.015625 -11.625 
L 7.71875 -11.625 
L 11.71875 4 
z
" id="DejaVuSans-44"/>
       <path d="M 44.28125 53.078125 
L 44.28125 44.578125 
Q 40.484375 46.53125 36.375 47.5 
Q 32.28125 48.484375 27.875 48.484375 
Q 21.1875 48.484375 17.84375 46.4375 
Q 14.5 44.390625 14.5 40.28125 
Q 14.5 37.15625 16.890625 35.375 
Q 19.28125 33.59375 26.515625 31.984375 
L 29.59375 31.296875 
Q 39.15625 29.25 43.1875 25.515625 
Q 47.21875 21.78125 47.21875 15.09375 
Q 47.21875 7.46875 41.1875 3.015625 
Q 35.15625 -1.421875 24.609375 -1.421875 
Q 20.21875 -1.421875 15.453125 -0.5625 
Q 10.6875 0.296875 5.421875 2 
L 5.421875 11.28125 
Q 10.40625 8.6875 15.234375 7.390625 
Q 20.0625 6.109375 24.8125 6.109375 
Q 31.15625 6.109375 34.5625 8.28125 
Q 37.984375 10.453125 37.984375 14.40625 
Q 37.984375 18.0625 35.515625 20.015625 
Q 33.0625 21.96875 24.703125 23.78125 
L 21.578125 24.515625 
Q 13.234375 26.265625 9.515625 29.90625 
Q 5.8125 33.546875 5.8125 39.890625 
Q 5.8125 47.609375 11.28125 51.796875 
Q 16.75 56 26.8125 56 
Q 31.78125 56 36.171875 55.265625 
Q 40.578125 54.546875 44.28125 53.078125 
z
" id="DejaVuSans-115"/>
      </defs>
      <use xlink:href="#DejaVuSans-84"/>
      <use x="57.958984" xlink:href="#DejaVuSans-105"/>
      <use x="85.742188" xlink:href="#DejaVuSans-109"/>
      <use x="183.154297" xlink:href="#DejaVuSans-101"/>
      <use x="244.677734" xlink:href="#DejaVuSans-44"/>
      <use x="276.464844" xlink:href="#DejaVuSans-32"/>
      <use x="308.251953" xlink:href="#DejaVuSans-109"/>
      <use x="405.664062" xlink:href="#DejaVuSans-115"/>
     </g>
    </g>
   </g>
   <g id="line2d_15">
    <path clip-path="url(#p92ac13d324)" d="M 276.872727 738.652736 
L 277.482064 738.72 
L 278.700737 738.501394 
L 279.91941 738.350051 
L 280.528747 738.366866 
L 281.138084 737.778311 
L 281.74742 737.593336 
L 282.966093 737.643784 
L 284.184767 737.223387 
L 284.794103 737.374729 
L 285.40344 737.072044 
L 286.012776 737.021596 
L 286.622113 736.449856 
L 287.23145 736.365777 
L 287.840786 736.802989 
L 288.450123 736.382592 
L 289.059459 736.180802 
L 289.668796 736.14717 
L 290.887469 735.541798 
L 291.496806 735.609062 
L 292.106143 735.323192 
L 292.715479 734.684188 
L 293.324816 735.390455 
L 293.934152 734.986874 
L 294.543489 734.734636 
L 295.152826 734.062001 
L 295.762162 734.331055 
L 296.371499 734.213344 
L 296.980835 733.0026 
L 297.590172 732.51494 
L 298.199509 732.22907 
L 298.808845 732.699914 
L 300.027518 730.446586 
L 300.636855 733.069864 
L 301.246192 731.438723 
L 301.855528 732.582203 
L 302.464865 730.749272 
L 303.074201 732.481308 
L 304.292875 731.590066 
L 304.902211 730.530666 
L 305.511548 728.697735 
L 306.120885 730.312059 
L 306.730221 729.454449 
L 307.339558 730.665193 
L 307.948894 731.152853 
L 308.558231 730.177532 
L 309.167568 730.732456 
L 309.776904 729.689872 
L 310.386241 729.958926 
L 310.995577 730.396139 
L 311.604914 729.404002 
L 312.214251 729.807583 
L 312.823587 728.832262 
L 313.432924 730.160716 
L 314.04226 725.855851 
L 314.651597 728.899525 
L 315.260934 729.689872 
L 315.87027 727.302016 
L 316.479607 729.118132 
L 317.088943 728.697735 
L 317.69828 727.907388 
L 318.307617 727.419728 
L 318.916953 727.705598 
L 319.52629 726.377143 
L 320.135627 728.479128 
L 320.744963 728.260522 
L 321.3543 727.486991 
L 321.963636 727.352464 
L 322.572973 727.554255 
L 323.18231 723.972472 
L 323.791646 725.738139 
L 324.400983 724.325605 
L 325.010319 725.788587 
L 325.619656 722.425411 
L 326.228993 721.416458 
L 326.838329 723.669786 
L 327.447666 725.36819 
L 328.057002 724.174262 
L 328.666339 725.233663 
L 329.275676 725.183215 
L 330.494349 724.106999 
L 331.103686 724.594659 
L 331.713022 723.854761 
L 332.322359 724.258342 
L 332.931695 724.476948 
L 334.759705 722.761728 
L 335.369042 723.686602 
L 335.978378 722.694465 
L 336.587715 723.552075 
L 337.197052 723.905208 
L 337.806388 722.627201 
L 338.415725 720.861534 
L 339.025061 721.08014 
L 339.634398 720.239346 
L 340.243735 721.920934 
L 340.853071 722.072277 
L 341.462408 721.36601 
L 342.071744 719.751685 
L 342.681081 721.36601 
L 343.290418 720.642927 
L 343.899754 720.928797 
L 344.509091 722.206804 
L 345.118428 719.449 
L 345.727764 720.088003 
L 346.337101 717.632884 
L 346.946437 719.179946 
L 347.555774 719.398552 
L 348.165111 715.64861 
L 348.774447 720.003924 
L 349.383784 718.860444 
L 349.99312 719.045418 
L 350.602457 710.486135 
L 351.211794 719.73487 
L 351.82113 719.533079 
L 352.430467 719.449 
L 353.039803 718.271888 
L 353.64914 717.347014 
L 354.258477 715.64861 
L 354.867813 719.533079 
L 355.47715 716.556668 
L 356.086486 717.683332 
L 356.695823 717.616069 
L 357.30516 712.958069 
L 357.914496 711.764142 
L 358.523833 717.195671 
L 359.13317 715.799953 
L 359.742506 717.061144 
L 360.351843 717.901938 
L 360.961179 716.354877 
L 361.570516 716.338062 
L 362.179853 714.723737 
L 362.789189 716.001744 
L 363.398526 714.30334 
L 364.007862 716.069007 
L 364.617199 715.867217 
L 365.226536 714.858264 
L 365.835872 715.07687 
L 366.445209 714.807816 
L 367.054545 713.378466 
L 367.663882 714.01747 
L 368.273219 715.295477 
L 368.882555 715.867217 
L 369.491892 710.133001 
L 370.101229 714.942343 
L 370.710565 707.946937 
L 371.319902 711.965932 
L 371.929238 715.16095 
L 373.147912 714.01747 
L 373.757248 715.009607 
L 374.366585 708.720467 
L 374.975921 704.651024 
L 375.585258 713.328019 
L 376.194595 714.236076 
L 376.803931 713.042149 
L 377.413268 708.367334 
L 378.022604 709.510814 
L 378.631941 703.221674 
L 379.241278 712.453593 
L 379.850614 710.351608 
L 380.459951 711.831405 
L 381.069287 711.041059 
L 381.678624 713.529809 
L 382.287961 709.931211 
L 382.897297 709.645341 
L 383.506634 708.653204 
L 384.115971 710.721557 
L 384.725307 708.955889 
L 385.334644 710.133001 
L 385.94398 707.879673 
L 386.553317 709.090417 
L 387.162654 708.720467 
L 387.77199 708.535492 
L 388.381327 709.023153 
L 388.990663 707.610619 
L 389.6 704.634208 
L 390.209337 706.315796 
L 390.818673 705.760872 
L 392.037346 681.377844 
L 392.646683 702.313616 
L 393.25602 692.577221 
L 393.865356 691.164687 
L 394.474693 692.08956 
L 395.084029 693.787964 
L 395.693366 691.366477 
L 396.302703 694.477415 
L 396.912039 704.314706 
L 397.521376 700.968346 
L 398.130713 702.515407 
L 398.740049 701.691429 
L 399.349386 702.313616 
L 399.958722 704.213811 
L 400.568059 703.288937 
L 401.177396 701.321479 
L 401.786732 701.960483 
L 402.396069 689.970759 
L 403.005405 689.264492 
L 403.614742 689.684889 
L 404.224079 674.16383 
L 404.833415 681.932768 
L 405.442752 692.863091 
L 406.052088 698.58049 
L 406.661425 698.00875 
L 407.270762 700.413422 
L 407.880098 700.396606 
L 408.489435 695.772238 
L 409.098771 693.283488 
L 409.708108 696.814823 
L 410.317445 692.526773 
L 410.926781 701.254216 
L 411.536118 700.564764 
L 412.145455 699.000888 
L 412.754791 700.480685 
L 413.364128 696.730743 
L 413.973464 699.908945 
L 414.582801 693.485278 
L 415.192138 700.497501 
L 416.410811 695.267762 
L 417.020147 698.361884 
L 417.629484 699.555812 
L 418.238821 693.653437 
L 418.848157 694.965076 
L 419.457494 698.849545 
L 420.06683 696.444873 
L 420.676167 695.957213 
L 421.285504 695.974029 
L 421.89484 697.033429 
L 423.113514 693.485278 
L 423.72285 690.677026 
L 424.332187 694.897812 
L 425.55086 689.550362 
L 426.160197 693.064881 
L 426.769533 691.854138 
L 427.37887 692.37543 
L 427.988206 691.51782 
L 428.597543 687.347482 
L 429.20688 692.308167 
L 429.816216 689.264492 
L 430.425553 693.636621 
L 431.034889 692.509957 
L 431.644226 696.814823 
L 432.253563 690.828369 
L 432.862899 692.08956 
L 433.472236 690.189366 
L 434.081572 693.972939 
L 434.690909 690.189366 
L 435.300246 690.94608 
L 435.909582 690.609763 
L 436.518919 693.148961 
L 437.128256 691.88777 
L 437.737592 691.938217 
L 438.346929 692.37543 
L 438.956265 677.072978 
L 439.565602 692.728564 
L 440.174939 689.331756 
L 440.784275 672.902639 
L 441.393612 690.811553 
L 442.002948 689.483098 
L 442.612285 693.922491 
L 443.221622 688.844095 
L 443.830958 681.495555 
L 444.440295 686.304897 
L 445.049631 685.396839 
L 445.658968 687.347482 
L 446.268305 672.616769 
L 446.877641 685.464103 
L 447.486978 684.236543 
L 448.096314 688.642304 
L 448.705651 648.97364 
L 449.314988 687.936037 
L 449.924324 687.347482 
L 450.533661 685.80042 
L 451.142998 687.297034 
L 451.752334 685.817236 
L 452.361671 679.528097 
L 452.971007 685.02689 
L 453.580344 688.423698 
L 454.189681 684.253359 
L 454.799017 688.490961 
L 455.408354 682.554955 
L 456.01769 684.471966 
L 456.627027 685.817236 
L 457.236364 687.566088 
L 457.8457 656.80984 
L 458.455037 684.757836 
L 459.064373 684.976442 
L 459.67371 686.809373 
L 460.283047 686.220817 
L 460.892383 683.967489 
L 461.50172 686.708478 
L 462.111057 682.992168 
L 462.720393 684.034753 
L 463.32973 677.96422 
L 463.939066 687.498824 
L 464.548403 685.480919 
L 465.15774 688.776831 
L 465.767076 686.304897 
L 466.376413 685.447287 
L 466.985749 673.827513 
L 467.595086 681.007894 
L 468.204423 683.681619 
L 469.423096 676.568501 
L 470.032432 683.193959 
L 470.641769 680.789288 
L 471.251106 663.653904 
L 471.860442 679.948494 
L 472.469779 680.755656 
L 473.079115 682.000031 
L 473.688452 679.612176 
L 474.297789 679.662624 
L 474.907125 659.718988 
L 475.516462 653.076715 
L 476.125799 662.459977 
L 476.735135 677.896956 
L 477.344472 665.705442 
L 477.953808 678.350985 
L 478.563145 673.3903 
L 479.172482 666.277182 
L 479.781818 673.339852 
L 480.391155 674.231094 
L 481.000491 679.02362 
L 481.609828 676.366711 
L 482.219165 676.753476 
L 482.828501 673.67617 
L 483.437838 680.940631 
L 484.047174 680.671576 
L 484.656511 675.710891 
L 485.265848 661.131522 
L 485.875184 675.710891 
L 486.484521 677.896956 
L 487.093857 661.131522 
L 487.703194 653.513928 
L 488.312531 667.319766 
L 488.921867 646.266283 
L 489.531204 667.269319 
L 490.140541 659.920779 
L 490.749877 670.565232 
L 491.359214 673.474379 
L 491.96855 674.180646 
L 492.577887 674.382437 
L 493.187224 671.204235 
L 493.79656 674.516964 
L 494.405897 667.95877 
L 495.015233 668.395983 
L 495.62457 671.641448 
L 496.233907 673.238957 
L 496.843243 670.918365 
L 497.45258 672.902639 
L 498.061916 671.422842 
L 498.671253 667.185239 
L 499.28059 671.910502 
L 499.889926 559.546781 
L 500.499263 626.928019 
L 501.1086 663.38485 
L 501.717936 628.121946 
L 502.327273 667.252503 
L 502.936609 654.354722 
L 503.545946 649.612643 
L 504.155283 667.689716 
L 504.764619 659.147248 
L 505.373956 661.770525 
L 505.983292 668.950907 
L 506.592629 663.922958 
L 507.201966 664.730121 
L 507.811302 666.966633 
L 508.420639 666.142655 
L 509.029975 664.091117 
L 509.639312 664.931911 
L 510.248649 657.66745 
L 510.857985 664.662857 
L 511.467322 659.130432 
L 512.076658 666.966633 
L 512.685995 669.724438 
L 513.295332 659.079984 
L 513.904668 652.858108 
L 514.514005 665.486835 
L 515.123342 663.519377 
L 515.732678 663.922958 
L 516.342015 665.436388 
L 516.951351 670.430705 
L 517.560688 668.177376 
L 518.170025 659.298591 
L 518.779361 669.152698 
L 519.388698 669.30404 
L 519.998034 665.015991 
L 520.607371 659.651724 
L 521.216708 659.433118 
L 521.826044 660.61023 
L 522.435381 656.103573 
L 523.044717 662.829926 
L 523.654054 666.125839 
L 524.263391 651.395127 
L 524.872727 655.683176 
L 525.482064 659.079984 
L 526.0914 664.158381 
L 526.700737 664.444251 
L 527.310074 649.225878 
L 527.91941 666.630315 
L 528.528747 657.230237 
L 529.138084 629.04682 
L 529.74742 661.18197 
L 530.356757 663.519377 
L 530.966093 660.055306 
L 531.57543 650.621596 
L 532.184767 649.192246 
L 532.794103 660.963363 
L 534.012776 665.217781 
L 534.622113 654.354722 
L 535.840786 664.511514 
L 536.450123 665.688626 
L 537.059459 646.299914 
L 537.668796 658.945457 
L 538.278133 654.472433 
L 538.887469 661.551919 
L 539.496806 649.276325 
L 540.106143 656.187653 
L 540.715479 657.600187 
L 541.324816 663.855695 
L 541.934152 657.17979 
L 542.543489 660.273912 
L 543.152826 659.349039 
L 543.762162 657.09571 
L 544.371499 659.718988 
L 544.980835 653.782982 
L 545.590172 653.850245 
L 546.199509 656.742577 
L 546.808845 661.770525 
L 547.418182 660.576598 
L 548.027518 643.962507 
L 548.636855 656.456707 
L 549.246192 606.160405 
L 549.855528 631.148805 
L 550.464865 596.154955 
L 551.074201 583.879362 
L 551.683538 591.143822 
L 552.292875 625.868618 
L 553.511548 644.836933 
L 554.120885 638.96819 
L 554.730221 626.911203 
L 555.339558 611.676014 
L 555.948894 650.268462 
L 556.558231 641.086991 
L 557.776904 612.029148 
L 558.386241 641.238334 
L 558.995577 640.532067 
L 559.604914 648.855928 
L 560.214251 631.855072 
L 560.823587 642.869475 
L 561.432924 604.478817 
L 562.04226 642.011865 
L 563.260934 645.963597 
L 563.87027 639.556746 
L 564.479607 644.332456 
L 565.088943 645.391857 
L 565.69828 650.11712 
L 566.307617 648.368268 
L 566.916953 650.89065 
L 567.52629 652.03413 
L 568.135627 654.337906 
L 568.744963 644.635142 
L 569.3543 646.821207 
L 569.963636 646.938918 
L 570.572973 647.931055 
L 571.18231 654.001588 
L 571.791646 642.650868 
L 572.400983 596.104508 
L 573.010319 649.124982 
L 573.619656 639.472666 
L 574.228993 646.88847 
L 574.838329 644.063402 
L 575.447666 644.702406 
L 576.057002 644.60151 
L 576.666339 635.033274 
L 577.275676 646.081308 
L 577.885012 646.821207 
L 578.494349 646.955734 
L 579.103686 622.18594 
L 579.713022 649.763986 
L 580.322359 643.088081 
L 580.931695 648.149661 
L 581.541032 642.230471 
L 582.150369 644.130666 
L 582.759705 644.752853 
L 583.369042 645.74499 
L 583.978378 636.647598 
L 584.587715 643.575742 
L 585.197052 644.668774 
L 585.806388 639.489482 
L 586.415725 639.119533 
L 587.025061 647.577921 
L 587.634398 645.105987 
L 588.243735 645.862701 
L 588.853071 491.980568 
L 589.462408 547.657953 
L 590.071744 624.657875 
L 590.681081 624.809218 
L 591.290418 628.67687 
L 591.899754 555.023309 
L 592.509091 636.798941 
L 593.118428 637.908789 
L 593.727764 626.289015 
L 594.337101 635.167801 
L 594.946437 634.865115 
L 595.555774 619.579478 
L 596.774447 638.346002 
L 597.383784 634.596061 
L 597.99312 638.833663 
L 598.602457 633.469397 
L 599.211794 641.221518 
L 599.82113 644.046586 
L 600.430467 630.291195 
L 601.039803 641.793258 
L 601.64914 643.777532 
L 602.867813 628.206026 
L 603.47715 632.275469 
L 604.086486 634.39427 
L 604.695823 626.709412 
L 605.30516 638.833663 
L 605.914496 639.321323 
L 606.523833 619.629926 
L 607.13317 627.398863 
L 607.742506 640.380724 
L 608.351843 637.000732 
L 608.961179 626.47399 
L 609.570516 632.847209 
L 610.179853 624.388821 
L 610.789189 610.767956 
L 611.398526 620.353009 
L 612.007862 636.075858 
L 612.617199 630.661144 
L 613.226536 624.102951 
L 613.835872 630.072589 
L 614.445209 631.216069 
L 615.054545 623.463947 
L 615.663882 625.666828 
L 616.273219 612.600888 
L 616.882555 623.548026 
L 617.491892 621.967334 
L 618.101229 627.062546 
L 618.710565 626.726228 
L 619.319902 623.682554 
L 619.929238 614.786952 
L 620.538575 632.056863 
L 621.147912 615.644562 
L 621.757248 622.051413 
L 622.366585 575.84137 
L 622.975921 629.214979 
L 623.585258 621.210619 
L 624.194595 583.828914 
L 624.803931 623.766633 
L 625.413268 612.819494 
L 626.022604 617.61202 
L 626.631941 620.773406 
L 627.241278 587.141643 
L 627.850614 616.821674 
L 628.459951 593.346703 
L 629.069287 619.495399 
L 629.678624 617.460677 
L 630.287961 618.940475 
L 630.897297 617.04028 
L 631.506634 613.307155 
L 632.115971 622.75768 
L 632.725307 619.646742 
L 633.334644 617.309334 
L 633.94398 619.932612 
L 634.553317 633.049 
L 635.77199 597.718832 
L 636.381327 592.505909 
L 636.990663 592.573172 
L 637.6 605.555033 
L 638.209337 628.172394 
L 638.818673 615.644562 
L 639.42801 620.302561 
L 640.037346 607.741098 
L 640.646683 614.080685 
L 641.25602 615.779089 
L 641.865356 604.63016 
L 642.474693 611.12109 
L 643.084029 612.516808 
L 643.693366 608.699603 
L 644.302703 597.432962 
L 644.912039 611.743278 
L 645.521376 611.188353 
L 646.130713 595.112371 
L 646.740049 615.779089 
L 647.349386 619.932612 
L 647.958722 610.969747 
L 648.568059 607.926072 
L 649.177396 589.176364 
L 649.786732 615.711826 
L 650.396069 598.559626 
L 651.005405 585.796372 
L 651.614742 605.68956 
L 652.224079 572.41093 
L 652.833415 575.790923 
L 653.442752 608.918209 
L 654.052088 605.622297 
L 654.661425 610.414823 
L 655.270762 592.774963 
L 655.880098 608.514628 
L 656.489435 612.247754 
L 657.098771 617.242071 
L 657.708108 617.746547 
L 658.317445 615.156902 
L 658.926781 613.155812 
L 659.536118 614.299292 
L 660.145455 594.742421 
L 660.754791 593.19536 
L 661.364128 612.954021 
L 661.973464 604.983293 
L 662.582801 598.559626 
L 663.192138 616.334013 
L 663.801474 612.668151 
L 664.410811 614.938295 
L 665.020147 600.611164 
L 665.629484 608.514628 
L 666.238821 597.853359 
L 666.848157 615.005559 
L 667.457494 607.169358 
L 668.06683 603.368968 
L 668.676167 616.334013 
L 669.285504 613.105364 
L 669.89484 604.562896 
L 670.504177 612.46636 
L 671.113514 602.309568 
L 671.72285 614.904663 
L 672.332187 605.68956 
L 672.941523 618.738684 
L 673.55086 613.307155 
L 674.160197 615.40914 
L 674.769533 615.072822 
L 675.37887 601.805091 
L 675.988206 601.603301 
L 676.597543 606.328564 
L 677.20688 605.958614 
L 677.816216 606.34538 
L 678.425553 603.621207 
L 679.034889 616.115407 
L 679.644226 596.810775 
L 680.862899 609.624476 
L 681.472236 597.214356 
L 682.081572 610.330743 
L 682.690909 612.382281 
L 683.300246 613.374418 
L 683.909582 610.128953 
L 684.518919 580.516185 
L 685.128256 608.733235 
L 685.737592 604.209763 
L 686.346929 571.469241 
L 686.956265 599.349973 
L 687.565602 567.315718 
L 688.174939 593.329887 
L 688.784275 599.904897 
L 689.393612 598.54281 
L 690.002948 593.329887 
L 690.612285 584.013889 
L 691.221622 602.225489 
L 691.830958 602.595438 
L 692.440295 612.382281 
L 693.049631 590.168501 
L 693.658968 609.97761 
L 694.268305 606.379011 
L 694.877641 563.649856 
L 695.486978 598.694153 
L 696.705651 502.994971 
L 697.314988 579.372705 
L 697.924324 587.84791 
L 698.533661 575.63958 
L 699.142998 595.381425 
L 699.752334 593.901627 
L 700.361671 559.126384 
L 700.971007 569.653126 
L 701.580344 543.336271 
L 702.189681 586.855773 
L 702.799017 564.137517 
L 703.408354 553.863013 
L 704.01769 591.211086 
L 704.627027 592.690884 
L 705.236364 590.807505 
L 705.8457 583.946625 
L 706.455037 597.147092 
L 707.064373 586.435376 
L 707.67371 600.190767 
L 708.283047 607.034831 
L 708.892383 602.444095 
L 709.50172 555.393258 
L 710.111057 596.878038 
L 710.720393 578.817781 
L 711.32973 603.503496 
L 711.939066 594.759237 
L 712.548403 579.893998 
L 713.15774 579.877182 
L 713.767076 588.823231 
L 714.985749 572.242772 
L 715.595086 602.864492 
L 716.204423 590.740241 
L 716.813759 576.12724 
L 717.423096 550.365309 
L 718.032432 584.871499 
L 719.251106 598.54281 
L 719.860442 587.074379 
L 720.469779 593.128097 
L 721.079115 584.804235 
L 721.688452 596.928486 
L 722.297789 565.684578 
L 722.907125 590.740241 
L 723.516462 590.168501 
L 724.125799 583.105831 
L 724.735135 599.68629 
L 725.344472 595.179634 
L 725.953808 582.349116 
L 726.563145 595.448688 
L 727.172482 553.358536 
L 727.781818 587.780646 
L 728.391155 575.5555 
L 729.000491 574.580179 
L 729.609828 586.149506 
L 730.219165 566.121791 
L 730.828501 563.027668 
L 731.437838 580.499369 
L 732.047174 555.325995 
L 732.656511 552.013266 
L 733.265848 576.850323 
L 733.875184 583.324438 
L 734.484521 593.901627 
L 735.093857 584.753787 
L 735.703194 598.290572 
L 736.312531 591.160638 
L 736.921867 565.566866 
L 737.531204 585.022842 
L 738.140541 589.949895 
L 738.749877 524.43522 
L 739.359214 563.649856 
L 739.96855 585.022842 
L 740.577887 570.006259 
L 741.187224 584.33339 
L 741.79656 570.645263 
L 742.405897 588.318754 
L 743.015233 589.327707 
L 743.62457 552.080529 
L 744.233907 574.227046 
L 744.843243 584.736972 
L 745.45258 581.289716 
L 746.061916 566.895321 
L 746.671253 596.222219 
L 747.889926 565.970448 
L 748.499263 582.365932 
L 749.1086 587.915173 
L 749.717936 581.356979 
L 750.327273 576.69898 
L 750.936609 579.288626 
L 751.545946 587.915173 
L 752.155283 584.316575 
L 752.764619 588.116964 
L 753.373956 573.016302 
L 753.983292 587.545224 
L 754.592629 583.173095 
L 755.201966 579.675391 
L 755.811302 591.160638 
L 756.420639 583.324438 
L 757.029975 550.096255 
L 757.639312 588.890494 
L 758.248649 585.174185 
L 758.857985 586.166322 
L 759.467322 574.159782 
L 760.076658 589.798552 
L 760.685995 575.589132 
L 761.295332 586.923036 
L 761.904668 584.182047 
L 762.514005 573.318988 
L 763.123342 583.257174 
L 763.732678 583.324438 
L 764.342015 587.982437 
L 764.951351 577.001666 
L 765.560688 586.855773 
L 766.170025 522.955422 
L 766.779361 570.006259 
L 767.388698 555.191467 
L 767.998034 562.876325 
L 768.607371 567.601588 
L 769.216708 567.113928 
L 769.826044 556.015446 
L 770.435381 558.57146 
L 771.044717 559.05912 
L 771.654054 571.687847 
L 772.263391 574.866049 
L 772.872727 586.351296 
L 773.482064 573.167645 
L 774.0914 578.330121 
L 774.700737 557.932456 
L 775.310074 576.345847 
L 775.91941 567.097112 
L 776.528747 578.868229 
L 777.138084 573.117197 
L 777.74742 573.520779 
L 778.356757 567.113928 
L 779.57543 573.789833 
L 780.184767 575.219183 
L 780.794103 554.56928 
L 781.40344 568.307855 
L 782.622113 562.792246 
L 783.23145 576.41311 
L 783.840786 575.219183 
L 784.450123 576.362663 
L 785.059459 566.121791 
L 785.668796 575.000576 
L 786.278133 565.499603 
L 786.887469 571.906454 
L 787.496806 579.641759 
L 788.106143 573.100381 
L 788.715479 545.589599 
L 789.324816 554.619728 
L 789.934152 575.790923 
L 790.543489 561.329264 
L 791.152826 552.517742 
L 791.762162 552.517742 
L 792.371499 566.676715 
L 792.980835 574.025255 
L 793.590172 558.85733 
L 794.199509 553.207193 
L 794.808845 555.948182 
L 795.418182 570.49392 
L 796.027518 572.595905 
L 797.246192 558.991857 
L 797.855528 539.300459 
L 798.464865 570.12397 
L 799.074201 536.845341 
L 799.683538 545.875469 
L 800.292875 549.104118 
L 800.902211 538.896878 
L 801.511548 521.542888 
L 802.120885 513.723503 
L 802.730221 553.358536 
L 803.339558 558.504196 
L 803.948894 524.014823 
L 804.558231 543.269007 
L 805.167568 522.383682 
L 805.776904 564.557914 
L 806.386241 563.71712 
L 806.995577 544.547014 
L 807.604914 562.220506 
L 808.214251 553.795749 
L 808.823587 559.05912 
L 809.432924 569.569046 
L 810.04226 561.110658 
L 810.651597 559.63086 
L 811.260934 563.649856 
L 811.87027 565.398708 
L 812.479607 564.305675 
L 813.088943 536.626734 
L 813.69828 470.405792 
L 814.307617 550.735259 
L 814.916953 546.649 
L 815.52629 447.569825 
L 816.135627 534.222063 
L 816.744963 550.533468 
L 817.3543 546.85079 
L 817.963636 572.057797 
L 818.572973 547.355267 
L 819.18231 566.121791 
L 819.791646 568.879595 
L 820.400983 561.682398 
L 821.010319 561.682398 
L 821.619656 570.577999 
L 822.228993 571.26745 
L 822.838329 562.052347 
L 823.447666 564.77652 
L 824.057002 563.851647 
L 824.666339 566.693531 
L 825.275676 541.486524 
L 825.885012 564.339307 
L 826.494349 564.978311 
L 827.103686 553.4258 
L 827.713022 496.268618 
L 828.322359 547.99427 
L 828.931695 557.074846 
L 829.541032 538.812799 
L 830.150369 552.433663 
L 830.759705 547.13666 
L 831.369042 555.258731 
L 831.978378 548.633274 
L 832.587715 544.328408 
L 833.197052 556.183605 
L 833.806388 522.820895 
L 834.415725 545.875469 
L 835.025061 561.463791 
L 835.634398 555.679128 
L 836.243735 555.107388 
L 836.853071 544.462935 
L 837.462408 556.032262 
L 838.071744 539.233196 
L 838.681081 548.061534 
L 839.290418 567.937906 
L 839.899754 553.493063 
L 840.509091 541.772394 
L 841.118428 543.689404 
L 841.727764 521.980101 
L 842.946437 548.549194 
L 843.555774 553.91346 
L 844.165111 525.763675 
L 844.774447 563.43125 
L 845.383784 553.224009 
L 845.99312 557.579323 
L 846.602457 527.680685 
L 847.211794 544.748805 
L 847.82113 536.223153 
L 848.430467 530.303963 
L 849.039803 553.13993 
L 849.64914 543.554877 
L 850.258477 513.353554 
L 850.867813 530.488937 
L 851.47715 503.768501 
L 852.086486 527.966555 
L 852.695823 493.897579 
L 853.30516 533.482164 
L 853.914496 545.034675 
L 854.523833 532.759081 
L 855.13317 562.876325 
L 855.742506 552.147793 
L 856.961179 549.844017 
L 857.570516 556.519922 
L 858.179853 557.797929 
L 859.398526 542.697267 
L 860.007862 342.033351 
L 860.617199 513.504897 
L 861.226536 542.125527 
L 861.835872 548.128797 
L 862.445209 543.689404 
L 863.054545 527.092129 
L 863.663882 555.124204 
L 864.273219 551.374262 
L 864.882555 541.234286 
L 865.491892 559.210463 
L 866.101229 553.493063 
L 866.710565 544.042538 
L 867.319902 552.500926 
L 867.929238 533.599875 
L 868.538575 551.441526 
L 869.147912 546.581736 
L 869.757248 540.662546 
L 870.366585 549.339541 
L 870.975921 550.953865 
L 871.585258 542.293686 
L 872.194595 545.740942 
L 872.803931 553.274457 
L 873.413268 545.589599 
L 874.022604 548.212877 
L 874.631941 540.040358 
L 875.241278 539.300459 
L 875.850614 551.155656 
L 876.459951 545.236466 
L 877.069287 536.441759 
L 877.678624 548.767801 
L 878.287961 551.037945 
L 878.897297 521.744679 
L 879.506634 540.35986 
L 880.115971 536.64355 
L 880.725307 546.228603 
L 881.334644 543.622141 
L 881.94398 480.848455 
L 882.553317 525.074223 
L 883.162654 531.851024 
L 883.77199 523.308556 
L 884.381327 546.514473 
L 884.990663 540.595282 
L 885.6 533.112215 
L 886.209337 531.413811 
L 886.818673 542.781347 
L 887.42801 529.025956 
L 888.037346 544.900148 
L 888.646683 501.6497 
L 889.25602 545.303729 
L 889.865356 531.716497 
L 890.474693 520.685278 
L 891.084029 521.828758 
L 891.693366 516.817626 
L 892.302703 451.874691 
L 892.912039 540.797073 
L 893.521376 530.842071 
L 894.130713 541.520156 
L 894.740049 526.823075 
L 895.349386 520.416224 
L 895.958722 546.800343 
L 896.568059 542.56274 
L 897.177396 504.272978 
L 897.786732 542.680452 
L 898.396069 523.140397 
L 899.614742 529.025956 
L 900.224079 530.219883 
L 900.833415 520.752542 
L 901.442752 518.011553 
L 902.052088 362.010619 
L 902.661425 525.898202 
L 903.270762 513.219027 
L 903.880098 519.709957 
L 904.489435 531.682865 
L 905.098771 509.553165 
L 905.708108 502.50731 
L 906.317445 533.398085 
L 906.926781 531.565154 
L 907.536118 536.004547 
L 908.145455 503.852581 
L 908.754791 527.327552 
L 909.364128 505.029692 
L 909.973464 539.098669 
L 910.582801 495.226033 
L 911.192138 522.585473 
L 911.801474 457.070798 
L 912.410811 528.958692 
L 913.020147 504.188898 
L 913.629484 528.571927 
L 914.238821 501.801043 
L 914.848157 533.381269 
L 915.457494 492.821362 
L 916.06683 521.341098 
L 916.676167 520.466672 
L 917.285504 522.585473 
L 917.89484 513.00042 
L 918.504177 513.504897 
L 919.113514 502.910891 
L 919.72285 518.768268 
L 920.332187 519.979011 
L 920.941523 540.578466 
L 921.55086 522.955422 
L 922.160197 523.594426 
L 922.769533 510.192168 
L 923.37887 514.059821 
L 923.988206 523.022686 
L 924.597543 513.992557 
L 925.20688 513.992557 
L 925.816216 498.353787 
L 926.425553 533.112215 
L 927.034889 505.954566 
L 927.644226 516.884889 
L 928.253563 486.128641 
L 928.862899 516.262701 
L 929.472236 493.813499 
L 930.081572 515.606882 
L 930.690909 459.340942 
L 931.300246 524.788353 
L 931.909582 494.8729 
L 932.518919 519.00369 
L 933.128256 490.87072 
L 933.737592 511.604702 
L 934.346929 504.895165 
L 934.956265 514.833351 
L 935.565602 508.645107 
L 936.174939 518.919611 
L 936.784275 488.045652 
L 937.393612 513.219027 
L 938.002948 497.563441 
L 938.612285 520.466672 
L 939.221622 523.880296 
L 939.830958 465.327396 
L 940.440295 433.394037 
L 941.049631 494.956979 
L 941.658968 487.053515 
L 942.268305 513.151763 
L 942.877641 496.571304 
L 943.486978 519.508167 
L 944.096314 494.385239 
L 944.705651 523.375819 
L 945.314988 511.386096 
L 945.924324 511.402912 
L 946.533661 514.967879 
L 947.142998 517.305286 
L 947.752334 503.549895 
L 948.361671 518.953243 
L 948.971007 466.672666 
L 949.580344 508.846898 
L 950.799017 518.14608 
L 951.408354 516.884889 
L 952.01769 523.644873 
L 952.627027 492.972705 
L 953.236364 512.22689 
L 953.8457 512.647287 
L 954.455037 497.64752 
L 955.064373 514.698824 
L 955.67371 519.642694 
L 956.283047 518.936427 
L 956.892383 509.839035 
L 957.50172 505.399642 
L 958.111057 505.534169 
L 958.720393 529.227746 
L 959.32973 461.863324 
L 960.548403 508.779634 
L 961.15774 506.879439 
L 961.767076 518.364687 
L 962.376413 510.259432 
L 962.985749 504.256162 
L 963.595086 496.487225 
L 964.204423 502.372783 
L 964.813759 506.660833 
L 965.423096 484.144367 
L 966.032432 486.061378 
L 967.251106 509.553165 
L 967.860442 503.482631 
L 968.469779 518.297423 
L 969.079115 524.788353 
L 969.688452 497.277571 
L 970.297789 482.832729 
L 970.907125 515.405091 
L 971.516462 495.091506 
L 972.125799 517.08668 
L 972.735135 514.1439 
L 973.344472 509.906298 
L 973.953808 511.302016 
L 974.563145 508.140631 
L 975.172482 522.938606 
L 975.781818 495.865037 
L 976.391155 454.81747 
L 977.000491 493.393102 
L 977.609828 515.976831 
L 978.219165 503.684422 
L 978.828501 500.237166 
L 979.437838 499.245029 
L 980.047174 506.660833 
L 980.656511 507.434364 
L 981.265848 510.461222 
L 981.875184 481.958303 
L 982.484521 500.186719 
L 983.093857 495.495088 
L 983.703194 495.865037 
L 984.312531 484.497501 
L 984.921867 481.907855 
L 985.531204 500.455773 
L 986.140541 501.36383 
L 986.749877 508.981425 
L 987.359214 506.391779 
L 987.96855 499.043239 
L 988.577887 507.568891 
L 989.187224 498.975975 
L 989.79656 516.111359 
L 990.405897 503.852581 
L 991.015233 511.184305 
L 992.233907 502.776364 
L 992.843243 510.679829 
L 993.45258 499.884033 
L 994.061916 512.075547 
L 994.671253 505.029692 
L 995.28059 487.843861 
L 995.889926 505.046508 
L 996.499263 501.784227 
L 997.1086 492.215991 
L 997.717936 489.23958 
L 998.327273 502.204624 
L 999.545946 491.072511 
L 1000.155283 500.455773 
L 1000.764619 511.739229 
L 1001.373956 511.167489 
L 1001.983292 510.881619 
L 1002.592629 500.338062 
L 1003.201966 434.873834 
L 1003.811302 500.607116 
L 1004.420639 505.181035 
L 1005.639312 494.385239 
L 1006.248649 502.086913 
L 1006.857985 473.785784 
L 1007.467322 480.579401 
L 1008.076658 483.52218 
L 1008.685995 483.892129 
L 1009.295332 502.490494 
L 1009.904668 496.285434 
L 1010.514005 484.00984 
L 1011.123342 505.113772 
L 1011.732678 419.470487 
L 1012.342015 470.624399 
L 1012.951351 492.821362 
L 1013.560688 493.746236 
L 1014.170025 507.804313 
L 1014.779361 498.269708 
L 1015.388698 496.705831 
L 1015.998034 484.732923 
L 1016.607371 505.046508 
L 1017.216708 492.619572 
L 1017.826044 503.835765 
L 1018.435381 498.488315 
L 1019.044717 479.082787 
L 1019.654054 506.374963 
L 1020.263391 460.73666 
L 1020.872727 497.008517 
L 1021.482064 505.954566 
L 1022.0914 479.150051 
L 1022.700737 488.180179 
L 1023.310074 484.58158 
L 1023.91941 444.021674 
L 1024.528747 490.214901 
L 1025.138084 425.978233 
L 1025.74742 467.446197 
L 1026.356757 444.307544 
L 1026.966093 470.254449 
L 1027.57543 472.45733 
L 1028.184767 430.417626 
L 1028.794103 408.556979 
L 1029.40344 475.467373 
L 1030.012776 486.279984 
L 1030.622113 476.055928 
L 1031.23145 486.918988 
L 1031.840786 479.368657 
L 1032.450123 494.116185 
L 1033.059459 459.828603 
L 1033.668796 473.432651 
L 1034.278133 465.192869 
L 1034.887469 463.713071 
L 1035.496806 472.104196 
L 1036.106143 475.484188 
L 1036.715479 460.484422 
L 1037.324816 461.67835 
L 1037.934152 482.765465 
L 1038.543489 487.759782 
L 1039.762162 474.576131 
L 1040.371499 452.345535 
L 1040.980835 468.438334 
L 1041.590172 473.163597 
L 1042.199509 483.387653 
L 1042.808845 487.053515 
L 1043.418182 495.175586 
L 1044.027518 489.374107 
L 1044.636855 324.84752 
L 1045.246192 459.071888 
L 1045.855528 484.463869 
L 1046.464865 461.442927 
L 1047.074201 482.967256 
L 1047.683538 491.694698 
L 1048.292875 478.66239 
L 1048.902211 473.718521 
L 1049.511548 455.170603 
L 1050.120885 469.329576 
L 1050.730221 470.557135 
L 1051.339558 462.014667 
L 1051.948894 485.708244 
L 1052.558231 409.952698 
L 1053.167568 486.549039 
L 1053.776904 484.800187 
L 1054.386241 475.114239 
L 1054.995577 461.796061 
L 1055.604914 469.413655 
L 1056.214251 474.021207 
L 1056.823587 487.339385 
L 1057.432924 458.567411 
L 1058.651597 487.894309 
L 1059.260934 470.557135 
L 1059.87027 467.227591 
L 1060.479607 439.1787 
L 1061.088943 479.082787 
L 1062.307617 473.23086 
L 1062.916953 484.362974 
L 1063.52629 464.335259 
L 1064.135627 467.227591 
L 1064.744963 451.302951 
L 1065.3543 481.537906 
L 1065.963636 469.211865 
L 1066.572973 485.355111 
L 1067.18231 462.720934 
L 1067.791646 488.045652 
L 1068.400983 464.419338 
L 1069.010319 466.319533 
L 1069.619656 471.112059 
L 1070.228993 463.141331 
L 1070.838329 453.623542 
L 1071.447666 455.30513 
L 1072.057002 456.16274 
L 1072.666339 461.947404 
L 1073.275676 445.081074 
L 1073.885012 467.0258 
L 1074.494349 482.462779 
L 1075.103686 465.394659 
L 1075.713022 478.864181 
L 1076.322359 258.256629 
L 1076.931695 461.375664 
L 1077.541032 459.122336 
L 1078.150369 468.438334 
L 1078.759705 448.393803 
L 1079.369042 490.349428 
L 1079.978378 472.675936 
L 1080.587715 478.813733 
L 1081.806388 463.141331 
L 1082.415725 469.144601 
L 1083.025061 460.383527 
L 1083.634398 441.347949 
L 1084.243735 412.693686 
L 1084.853071 462.989988 
L 1085.462408 459.761339 
L 1086.071744 472.65912 
L 1086.681081 439.935415 
L 1087.290418 431.54429 
L 1087.899754 408.960561 
L 1089.118428 443.601277 
L 1089.727764 371.242538 
L 1090.337101 444.593414 
L 1090.946437 453.909412 
L 1091.555774 431.611553 
L 1092.165111 446.863558 
L 1092.774447 449.806337 
L 1093.99312 472.154644 
L 1094.602457 418.865115 
L 1095.82113 464.486602 
L 1096.430467 454.380257 
L 1097.64914 443.130432 
L 1098.258477 435.630549 
L 1098.867813 430.064492 
L 1099.47715 353.165465 
L 1100.086486 421.959237 
L 1100.695823 418.343822 
L 1101.30516 428.719221 
L 1101.914496 416.729498 
L 1102.523833 440.557602 
L 1103.13317 437.211242 
L 1103.742506 447.637088 
L 1104.351843 435.126072 
L 1104.961179 440.708945 
L 1105.570516 468.152464 
L 1106.179853 448.965543 
L 1106.789189 401.578388 
L 1107.398526 454.750206 
L 1108.007862 448.393803 
L 1108.617199 425.036543 
L 1109.226536 458.701938 
L 1109.835872 454.413889 
L 1110.445209 464.856551 
L 1111.054545 441.549739 
L 1111.663882 468.488782 
L 1112.273219 451.370214 
L 1113.491892 428.853749 
L 1114.101229 375.76601 
L 1114.710565 427.7439 
L 1115.319902 455.67508 
L 1115.929238 441.919689 
L 1116.538575 468.034753 
L 1117.147912 452.984539 
L 1117.757248 445.215601 
L 1118.366585 443.534013 
L 1118.975921 445.518287 
L 1119.585258 452.984539 
L 1120.194595 423.859432 
L 1120.803931 450.209918 
L 1121.413268 449.520467 
L 1122.022604 447.199875 
L 1122.631941 453.270409 
L 1123.241278 464.352075 
L 1124.459951 424.263013 
L 1125.069287 430.064492 
L 1125.678624 422.228291 
L 1126.287961 428.853749 
L 1126.897297 414.76204 
L 1127.506634 429.997228 
L 1128.115971 431.964687 
L 1128.725307 384.779323 
L 1129.334644 463.511281 
L 1129.94398 452.093297 
L 1130.553317 461.59427 
L 1131.162654 430.821207 
L 1131.77199 449.167334 
L 1132.381327 435.697812 
L 1132.990663 457.003534 
L 1133.6 445.585551 
L 1134.209337 459.895866 
L 1134.818673 463.628992 
L 1135.42801 450.663947 
L 1136.037346 371.999253 
L 1136.646683 443.399486 
L 1137.25602 436.202289 
L 1137.865356 407.413499 
L 1138.474693 450.865738 
L 1139.084029 443.18088 
L 1139.693366 439.447754 
L 1140.302703 430.367178 
L 1140.912039 431.039813 
L 1141.521376 418.276559 
L 1142.130713 451.572005 
L 1142.740049 447.906142 
L 1143.349386 412.155578 
L 1144.568059 454.598863 
L 1145.177396 424.263013 
L 1145.786732 456.297267 
L 1146.396069 435.159704 
L 1147.005405 430.484889 
L 1147.614742 421.320234 
L 1148.224079 426.667684 
L 1148.833415 412.138762 
L 1149.442752 430.68668 
L 1150.052088 417.301238 
L 1150.661425 413.214979 
L 1151.270762 399.03919 
L 1151.880098 405.446041 
L 1152.489435 443.332223 
L 1153.098771 444.660677 
L 1153.708108 451.841059 
L 1154.317445 443.803067 
L 1154.926781 438.388353 
L 1155.536118 446.005948 
L 1156.145455 451.151608 
L 1156.754791 457.289404 
L 1157.364128 418.495165 
L 1157.973464 419.974963 
L 1158.582801 444.173017 
L 1159.192138 423.371771 
L 1159.801474 445.720078 
L 1160.410811 450.663947 
L 1161.629484 365.239268 
L 1162.238821 424.431172 
L 1162.848157 418.797851 
L 1163.457494 436.689949 
L 1164.06683 271.843861 
L 1164.676167 413.90443 
L 1165.285504 434.722491 
L 1165.89484 448.763752 
L 1166.504177 439.918599 
L 1167.113514 426.60042 
L 1167.72285 440.793025 
L 1168.332187 271.15441 
L 1168.941523 407.413499 
L 1169.55086 365.743745 
L 1170.160197 412.912293 
L 1170.769533 401.98197 
L 1171.988206 435.277415 
L 1173.20688 402.83958 
L 1173.816216 413.349506 
L 1174.425553 421.606104 
L 1175.034889 411.297968 
L 1175.644226 390.076325 
L 1176.253563 413.635376 
L 1176.862899 403.478583 
L 1177.472236 412.575975 
L 1178.081572 399.106454 
L 1178.690909 423.354955 
L 1179.300246 417.503028 
L 1179.909582 395.860989 
L 1180.518919 404.168034 
L 1181.128256 398.770136 
L 1181.737592 411.869708 
L 1182.346929 408.826033 
L 1182.956265 398.955111 
L 1183.565602 405.513305 
L 1184.174939 401.6961 
L 1184.784275 444.744757 
L 1185.393612 434.369358 
L 1186.002948 431.191156 
L 1186.612285 432.872744 
L 1187.221622 437.513928 
L 1187.830958 438.876014 
L 1189.049631 429.492752 
L 1189.658968 407.060366 
L 1190.268305 394.381191 
L 1190.877641 405.513305 
L 1191.486978 394.936115 
L 1192.096314 403.192713 
L 1192.705651 444.929731 
L 1193.314988 433.881697 
L 1193.924324 429.929965 
L 1194.533661 362.077882 
L 1195.142998 425.053359 
L 1195.752334 423.489482 
L 1196.361671 423.523114 
L 1196.971007 415.468307 
L 1197.580344 432.368268 
L 1198.189681 373.008206 
L 1198.799017 440.860288 
L 1199.408354 404.403457 
L 1200.01769 410.75986 
L 1200.627027 422.598241 
L 1201.236364 393.523581 
L 1202.455037 435.849155 
L 1203.064373 410.171304 
L 1203.67371 404.874301 
L 1204.283047 389.504585 
L 1204.892383 346.052347 
L 1205.50172 419.756357 
L 1206.111057 429.862701 
L 1206.720393 413.837166 
L 1207.32973 413.551296 
L 1207.939066 427.659821 
L 1209.15774 434.789755 
L 1209.767076 440.204469 
L 1210.376413 436.202289 
L 1210.985749 426.264103 
L 1211.595086 375.56422 
L 1212.204423 421.589288 
L 1212.813759 398.887847 
L 1213.423096 426.953554 
L 1214.032432 425.557836 
L 1215.251106 381.819728 
L 1215.860442 397.626656 
L 1216.469779 406.589521 
L 1217.079115 391.707466 
L 1217.688452 237.236777 
L 1218.297789 389.000109 
L 1218.907125 430.905286 
L 1219.516462 407.480763 
L 1220.125799 392.111047 
L 1220.735135 414.341643 
L 1221.344472 395.154722 
L 1221.953808 391.270253 
L 1222.563145 404.033507 
L 1223.172482 371.511592 
L 1223.781818 379.415056 
L 1224.391155 358.479284 
L 1225.000491 406.017781 
L 1225.609828 404.386641 
L 1226.219165 393.389054 
L 1226.828501 386.477727 
L 1227.437838 368.972394 
L 1228.047174 409.683643 
L 1228.656511 392.329654 
L 1229.265848 389.48777 
L 1229.875184 390.34538 
L 1230.484521 367.55986 
L 1231.093857 405.731911 
L 1231.703194 397.273523 
L 1232.312531 374.202133 
L 1232.921867 384.712059 
L 1233.531204 386.696333 
L 1234.140541 371.528408 
L 1234.749877 384.779323 
L 1235.359214 391.556123 
L 1235.96855 373.411787 
L 1236.577887 377.952075 
L 1237.187224 402.688237 
L 1237.79656 369.544134 
L 1238.405897 416.527707 
L 1239.015233 404.807038 
L 1239.62457 408.203846 
L 1240.233907 399.947248 
L 1240.843243 425.692363 
L 1241.45258 388.865582 
L 1242.061916 404.100771 
L 1242.671253 412.155578 
L 1243.28059 368.064336 
L 1243.889926 418.074768 
L 1244.499263 391.270253 
L 1245.1086 388.041604 
L 1245.717936 375.833274 
L 1246.327273 404.319377 
L 1246.936609 406.354099 
L 1247.545946 319.954099 
L 1248.155283 405.597384 
L 1248.764619 375.917353 
L 1249.373956 333.810385 
L 1249.983292 398.46745 
L 1250.592629 403.209529 
L 1251.201966 402.772316 
L 1251.811302 403.058186 
L 1252.420639 196.037867 
L 1253.029975 337.324905 
L 1253.639312 405.227435 
L 1254.248649 396.55044 
L 1254.857985 394.448455 
L 1255.467322 360.026345 
L 1256.076658 410.305831 
L 1256.685995 392.413733 
L 1257.295332 399.03919 
L 1257.904668 386.62907 
L 1258.514005 392.464181 
L 1259.123342 364.045341 
L 1259.732678 366.466828 
L 1260.342015 375.967801 
L 1260.951351 366.870409 
L 1261.560688 330.110891 
L 1262.170025 392.83413 
L 1262.779361 380.003612 
L 1263.388698 389.285979 
L 1263.998034 400.518988 
L 1264.607371 395.709646 
L 1265.216708 394.868852 
L 1265.826044 391.001199 
L 1266.435381 404.958381 
L 1267.044717 392.329654 
L 1267.654054 330.413577 
L 1268.263391 372.436466 
L 1268.872727 352.12288 
L 1269.482064 358.260677 
L 1270.0914 350.239502 
L 1270.700737 381.180724 
L 1271.310074 374.13487 
L 1271.91941 414.1903 
L 1272.528747 412.273289 
L 1273.138084 368.551997 
L 1273.74742 337.879829 
L 1274.356757 382.021518 
L 1274.966093 351.231639 
L 1275.57543 361.371615 
L 1276.184767 365.373795 
L 1276.794103 371.528408 
L 1277.40344 372.217859 
L 1278.012776 397.054916 
L 1278.622113 375.412877 
L 1279.23145 389.790455 
L 1279.840786 325.183838 
L 1280.450123 407.144445 
L 1281.059459 387.234441 
L 1281.668796 348.457018 
L 1282.887469 393.439502 
L 1283.496806 362.582359 
L 1284.106143 395.844173 
L 1284.715479 396.987653 
L 1285.324816 398.887847 
L 1285.934152 330.110891 
L 1286.543489 382.021518 
L 1287.152826 371.175274 
L 1287.762162 398.18158 
L 1288.371499 387.738918 
L 1288.980835 359.303262 
L 1289.590172 384.073056 
L 1290.199509 362.632807 
L 1290.808845 367.946625 
L 1291.418182 186.654605 
L 1292.027518 366.803145 
L 1292.636855 388.579712 
L 1293.246192 388.663791 
L 1293.855528 396.920389 
L 1294.464865 368.652892 
L 1295.074201 405.782359 
L 1295.683538 400.434909 
L 1296.292875 409.885434 
L 1296.902211 403.89898 
L 1297.511548 402.351919 
L 1298.120885 312.857797 
L 1298.730221 359.975897 
L 1299.948894 401.073912 
L 1300.558231 387.621207 
L 1301.167568 392.766866 
L 1301.776904 375.396061 
L 1302.386241 393.187264 
L 1302.995577 357.857096 
L 1303.604914 392.531444 
L 1304.214251 310.654916 
L 1304.823587 380.474457 
L 1305.432924 378.523815 
L 1306.04226 396.499992 
L 1306.651597 382.593258 
L 1307.260934 379.061923 
L 1307.87027 372.99139 
L 1308.479607 382.727785 
L 1309.088943 381.382515 
L 1309.69828 360.951218 
L 1310.307617 318.911514 
L 1310.916953 389.521401 
L 1311.52629 353.55223 
L 1312.135627 383.383605 
L 1312.744963 389.77364 
L 1313.3543 367.576676 
L 1314.572973 346.674535 
L 1315.18231 350.643083 
L 1315.791646 217.074535 
L 1316.400983 354.964764 
L 1317.010319 378.574262 
L 1317.619656 369.325527 
L 1318.228993 387.722102 
L 1318.838329 354.308945 
L 1319.447666 386.746781 
L 1320.057002 372.873678 
L 1320.666339 345.63195 
L 1321.275676 368.551997 
L 1321.885012 341.495243 
L 1322.494349 392.111047 
L 1323.103686 368.61926 
L 1323.713022 377.313071 
L 1324.322359 389.639112 
L 1324.931695 326.882242 
L 1325.541032 354.880685 
L 1326.150369 346.556824 
L 1326.759705 357.705753 
L 1327.369042 323.485434 
L 1327.978378 298.883799 
L 1328.587715 204.983916 
L 1329.197052 249.377844 
L 1329.806388 330.127707 
L 1330.415725 293.031872 
L 1331.025061 289.702328 
L 1331.634398 314.522569 
L 1332.243735 315.312916 
L 1332.853071 325.251102 
L 1333.462408 321.450712 
L 1334.071744 324.965232 
L 1334.681081 319.483254 
L 1335.290418 299.018326 
L 1335.899754 344.303496 
L 1336.509091 299.791857 
L 1337.118428 320.324048 
L 1337.727764 233.285045 
L 1338.337101 297.841214 
L 1339.555774 229.047443 
L 1340.165111 284.623931 
L 1340.774447 279.125138 
L 1341.99312 313.765854 
L 1342.602457 339.796839 
L 1343.211794 360.026345 
L 1343.82113 331.321635 
L 1344.430467 351.63522 
L 1345.039803 359.605948 
L 1345.64914 379.76819 
L 1346.258477 375.76601 
L 1346.867813 383.299525 
L 1347.47715 341.764297 
L 1348.086486 359.824554 
L 1348.695823 302.616925 
L 1349.30516 345.127474 
L 1349.914496 335.761028 
L 1351.13317 340.065893 
L 1351.742506 358.193414 
L 1352.351843 349.365076 
L 1352.961179 362.212409 
L 1353.570516 320.172705 
L 1354.179853 350.138606 
L 1354.789189 311.647053 
L 1355.398526 294.932067 
L 1356.007862 331.388898 
L 1356.617199 242.567411 
L 1357.226536 304.735726 
L 1357.835872 298.51385 
L 1358.445209 305.00478 
L 1359.054545 292.661923 
L 1359.663882 186.452814 
L 1360.273219 305.711047 
L 1360.882555 346.270954 
L 1361.491892 274.265348 
L 1362.101229 318.776987 
L 1362.710565 289.433274 
L 1363.929238 314.825255 
L 1364.538575 300.498124 
L 1365.147912 294.208984 
L 1365.757248 348.120701 
L 1366.366585 311.344367 
L 1366.975921 318.558381 
L 1367.585258 282.437867 
L 1368.194595 301.137127 
L 1368.803931 242.954177 
L 1369.413268 232.780568 
L 1370.022604 289.550985 
L 1370.631941 285.044329 
L 1371.241278 293.216847 
L 1371.850614 292.611475 
L 1372.459951 274.450323 
L 1373.069287 210.718132 
L 1373.678624 298.951063 
L 1374.287961 288.996061 
L 1374.897297 268.194815 
L 1375.506634 290.189988 
L 1376.115971 304.449856 
L 1376.725307 243.660444 
L 1377.334644 280.672199 
L 1377.94398 309.746859 
L 1378.553317 289.147404 
L 1379.162654 298.026189 
L 1379.77199 299.169669 
L 1380.381327 280.890806 
L 1380.990663 280.974885 
L 1381.6 264.37761 
L 1382.209337 293.300926 
L 1382.818673 294.99933 
L 1383.42801 302.179712 
L 1384.037346 287.533079 
L 1384.646683 297.841214 
L 1385.25602 301.204391 
L 1385.865356 285.061144 
L 1386.474693 276.232807 
L 1387.084029 280.756279 
L 1387.693366 293.586796 
L 1388.302703 267.202678 
L 1388.912039 184.821674 
L 1389.521376 266.025566 
L 1390.130713 292.039735 
L 1390.740049 272.129731 
L 1391.349386 269.456006 
L 1392.568059 306.989054 
L 1393.177396 311.848844 
L 1393.786732 287.230393 
L 1394.396069 297.202211 
L 1395.005405 315.86784 
L 1395.614742 256.474146 
L 1396.224079 252.875547 
L 1396.833415 273.205948 
L 1397.442752 283.44682 
L 1398.052088 339.359626 
L 1398.661425 203.806804 
L 1399.270762 310.856707 
L 1399.880098 313.412721 
L 1400.489435 211.844796 
L 1401.098771 262.342888 
L 1401.708108 289.483721 
L 1402.317445 329.202834 
L 1402.926781 318.676092 
L 1403.536118 333.574963 
L 1404.145455 332.515562 
L 1404.754791 314.741176 
L 1405.364128 311.562974 
L 1405.973464 325.318365 
L 1406.582801 320.525839 
L 1407.192138 345.211553 
L 1408.410811 285.262935 
L 1409.020147 177.775819 
L 1409.629484 324.27578 
L 1410.238821 313.681775 
L 1410.848157 354.157602 
L 1411.457494 339.292363 
L 1412.06683 314.825255 
L 1412.676167 313.597696 
L 1413.285504 316.3555 
L 1413.89484 133.92 
L 1414.504177 288.22253 
L 1415.113514 273.424554 
L 1415.72285 247.444017 
L 1416.332187 277.309023 
L 1416.941523 299.152853 
L 1417.55086 269.825956 
L 1418.160197 286.170993 
L 1418.769533 274.467139 
L 1419.988206 319.685045 
L 1420.597543 304.870253 
L 1421.20688 320.374496 
L 1421.816216 302.970058 
L 1422.425553 301.221207 
L 1423.034889 281.815679 
L 1423.644226 333.154566 
L 1424.253563 216.620506 
L 1424.862899 256.541409 
L 1425.472236 314.959782 
L 1426.081572 309.175119 
L 1426.690909 310.234519 
L 1427.300246 320.727629 
L 1427.909582 322.224243 
L 1428.518919 333.087302 
L 1429.128256 339.225099 
L 1429.737592 329.13557 
L 1430.346929 337.947092 
L 1430.956265 348.742888 
L 1431.565602 341.562507 
L 1432.174939 321.248922 
L 1432.784275 326.545924 
L 1433.393612 313.463169 
L 1434.002948 288.59248 
L 1434.612285 297.319922 
L 1435.221622 312.840981 
L 1435.830958 318.07072 
L 1436.440295 314.303963 
L 1437.049631 303.894932 
L 1437.658968 321.736582 
L 1438.268305 320.223153 
L 1438.877641 317.852114 
L 1439.486978 334.920234 
L 1440.096314 339.91455 
L 1440.705651 321.719766 
L 1441.314988 332.296956 
L 1441.924324 316.220973 
L 1442.533661 332.162429 
L 1443.142998 323.771304 
L 1443.752334 326.596372 
L 1444.361671 341.276637 
L 1444.971007 317.566244 
L 1445.580344 303.020506 
L 1446.189681 326.159159 
L 1446.799017 307.981191 
L 1448.627027 349.936816 
L 1449.236364 204.513071 
L 1449.8457 135.382982 
L 1450.455037 267.639891 
L 1451.064373 226.844562 
L 1451.67371 262.94826 
L 1452.283047 266.698202 
L 1452.892383 237.01817 
L 1453.50172 294.79754 
L 1454.111057 242.012487 
L 1454.720393 287.73487 
L 1455.32973 274.399875 
L 1455.939066 192.792402 
L 1456.548403 287.516263 
L 1457.15774 274.416691 
L 1458.376413 228.408439 
L 1458.985749 267.354021 
L 1459.595086 268.329342 
L 1460.204423 259.736427 
L 1460.813759 310.873523 
L 1462.032432 286.456863 
L 1462.641769 295.722413 
L 1463.251106 284.489404 
L 1464.469779 322.64464 
L 1465.079115 311.00805 
L 1465.688452 305.088859 
L 1466.297789 325.553787 
L 1466.907125 300.565387 
L 1467.516462 325.688315 
L 1468.125799 324.27578 
L 1468.735135 329.001043 
L 1469.344472 320.727629 
L 1469.953808 286.120545 
L 1470.563145 298.059821 
L 1471.172482 301.204391 
L 1471.781818 322.089716 
L 1472.391155 321.013499 
L 1473.000491 318.776987 
L 1473.609828 274.887536 
L 1474.828501 309.730043 
L 1475.437838 316.523659 
L 1476.656511 299.388276 
L 1477.265848 300.649467 
L 1477.875184 315.027046 
L 1478.484521 324.830705 
L 1479.093857 291.888392 
L 1479.703194 304.029459 
L 1480.312531 308.821985 
L 1480.921867 307.829848 
L 1481.531204 318.894698 
L 1482.140541 279.125138 
L 1482.749877 320.374496 
L 1483.359214 278.30116 
L 1483.96855 306.484578 
L 1484.577887 289.147404 
L 1485.187224 327.739852 
L 1486.405897 307.493531 
L 1487.015233 321.030315 
L 1487.62457 313.042772 
L 1488.233907 288.575664 
L 1488.843243 283.783137 
L 1489.45258 282.572394 
L 1490.061916 287.045418 
L 1490.671253 276.031016 
L 1491.28059 315.111125 
L 1491.889926 322.560561 
L 1492.499263 290.543122 
L 1493.1086 320.256785 
L 1493.717936 327.588509 
L 1494.327273 291.888392 
L 1494.327273 291.888392 
" style="fill:none;stroke:#1f77b4;stroke-linecap:square;stroke-width:1.5;"/>
   </g>
   <g id="line2d_16">
    <path clip-path="url(#p92ac13d324)" d="M 276.872727 737.417913 
L 319.52629 724.250902 
L 362.179853 710.852841 
L 404.833415 697.223731 
L 447.486978 683.363571 
L 490.140541 669.272361 
L 532.794103 654.950102 
L 576.057002 640.187215 
L 619.319902 625.18663 
L 662.582801 609.948346 
L 705.8457 594.472365 
L 749.1086 578.758685 
L 792.371499 562.807307 
L 835.634398 546.618231 
L 878.897297 530.191456 
L 922.160197 513.526984 
L 965.423096 496.624813 
L 1008.685995 479.484944 
L 1051.948894 462.107377 
L 1095.211794 444.492112 
L 1138.474693 426.639149 
L 1181.737592 408.548487 
L 1225.609828 389.960284 
L 1269.482064 371.12764 
L 1313.3543 352.050555 
L 1357.226536 332.729029 
L 1401.098771 313.163061 
L 1444.971007 293.352653 
L 1488.843243 273.297804 
L 1494.327273 270.77376 
L 1494.327273 270.77376 
" style="fill:none;stroke:#ff7f0e;stroke-linecap:square;stroke-width:1.5;"/>
   </g>
   <g id="patch_3">
    <path d="M 216 768.96 
L 216 103.68 
" style="fill:none;stroke:#000000;stroke-linecap:square;stroke-linejoin:miter;stroke-width:0.8;"/>
   </g>
   <g id="patch_4">
    <path d="M 1555.2 768.96 
L 1555.2 103.68 
" style="fill:none;stroke:#000000;stroke-linecap:square;stroke-linejoin:miter;stroke-width:0.8;"/>
   </g>
   <g id="patch_5">
    <path d="M 216 768.96 
L 1555.2 768.96 
" style="fill:none;stroke:#000000;stroke-linecap:square;stroke-linejoin:miter;stroke-width:0.8;"/>
   </g>
   <g id="patch_6">
    <path d="M 216 103.68 
L 1555.2 103.68 
" style="fill:none;stroke:#000000;stroke-linecap:square;stroke-linejoin:miter;stroke-width:0.8;"/>
   </g>
   <g id="legend_1">
    <g id="patch_7">
     <path d="M 223 141.03625 
L 349.451563 141.03625 
Q 351.451563 141.03625 351.451563 139.03625 
L 351.451563 110.68 
Q 351.451563 108.68 349.451563 108.68 
L 223 108.68 
Q 221 108.68 221 110.68 
L 221 139.03625 
Q 221 141.03625 223 141.03625 
z
" style="fill:#ffffff;opacity:0.8;stroke:#cccccc;stroke-linejoin:miter;"/>
    </g>
    <g id="line2d_17">
     <path d="M 225 116.778437 
L 245 116.778437 
" style="fill:none;stroke:#1f77b4;stroke-linecap:square;stroke-width:1.5;"/>
    </g>
    <g id="line2d_18"/>
    <g id="text_17">
     <!-- Experiment results -->
     <g transform="translate(253 120.278437)scale(0.1 -0.1)">
      <defs>
       <path d="M 9.8125 72.90625 
L 55.90625 72.90625 
L 55.90625 64.59375 
L 19.671875 64.59375 
L 19.671875 43.015625 
L 54.390625 43.015625 
L 54.390625 34.71875 
L 19.671875 34.71875 
L 19.671875 8.296875 
L 56.78125 8.296875 
L 56.78125 0 
L 9.8125 0 
z
" id="DejaVuSans-69"/>
       <path d="M 54.890625 54.6875 
L 35.109375 28.078125 
L 55.90625 0 
L 45.3125 0 
L 29.390625 21.484375 
L 13.484375 0 
L 2.875 0 
L 24.125 28.609375 
L 4.6875 54.6875 
L 15.28125 54.6875 
L 29.78125 35.203125 
L 44.28125 54.6875 
z
" id="DejaVuSans-120"/>
       <path d="M 18.109375 8.203125 
L 18.109375 -20.796875 
L 9.078125 -20.796875 
L 9.078125 54.6875 
L 18.109375 54.6875 
L 18.109375 46.390625 
Q 20.953125 51.265625 25.265625 53.625 
Q 29.59375 56 35.59375 56 
Q 45.5625 56 51.78125 48.09375 
Q 58.015625 40.1875 58.015625 27.296875 
Q 58.015625 14.40625 51.78125 6.484375 
Q 45.5625 -1.421875 35.59375 -1.421875 
Q 29.59375 -1.421875 25.265625 0.953125 
Q 20.953125 3.328125 18.109375 8.203125 
z
M 48.6875 27.296875 
Q 48.6875 37.203125 44.609375 42.84375 
Q 40.53125 48.484375 33.40625 48.484375 
Q 26.265625 48.484375 22.1875 42.84375 
Q 18.109375 37.203125 18.109375 27.296875 
Q 18.109375 17.390625 22.1875 11.75 
Q 26.265625 6.109375 33.40625 6.109375 
Q 40.53125 6.109375 44.609375 11.75 
Q 48.6875 17.390625 48.6875 27.296875 
z
" id="DejaVuSans-112"/>
       <path d="M 8.5 21.578125 
L 8.5 54.6875 
L 17.484375 54.6875 
L 17.484375 21.921875 
Q 17.484375 14.15625 20.5 10.265625 
Q 23.53125 6.390625 29.59375 6.390625 
Q 36.859375 6.390625 41.078125 11.03125 
Q 45.3125 15.671875 45.3125 23.6875 
L 45.3125 54.6875 
L 54.296875 54.6875 
L 54.296875 0 
L 45.3125 0 
L 45.3125 8.40625 
Q 42.046875 3.421875 37.71875 1 
Q 33.40625 -1.421875 27.6875 -1.421875 
Q 18.265625 -1.421875 13.375 4.4375 
Q 8.5 10.296875 8.5 21.578125 
z
M 31.109375 56 
z
" id="DejaVuSans-117"/>
      </defs>
      <use xlink:href="#DejaVuSans-69"/>
      <use x="63.183594" xlink:href="#DejaVuSans-120"/>
      <use x="122.363281" xlink:href="#DejaVuSans-112"/>
      <use x="185.839844" xlink:href="#DejaVuSans-101"/>
      <use x="247.363281" xlink:href="#DejaVuSans-114"/>
      <use x="288.476562" xlink:href="#DejaVuSans-105"/>
      <use x="316.259766" xlink:href="#DejaVuSans-109"/>
      <use x="413.671875" xlink:href="#DejaVuSans-101"/>
      <use x="475.195312" xlink:href="#DejaVuSans-110"/>
      <use x="538.574219" xlink:href="#DejaVuSans-116"/>
      <use x="577.783203" xlink:href="#DejaVuSans-32"/>
      <use x="609.570312" xlink:href="#DejaVuSans-114"/>
      <use x="648.433594" xlink:href="#DejaVuSans-101"/>
      <use x="709.957031" xlink:href="#DejaVuSans-115"/>
      <use x="762.056641" xlink:href="#DejaVuSans-117"/>
      <use x="825.435547" xlink:href="#DejaVuSans-108"/>
      <use x="853.21875" xlink:href="#DejaVuSans-116"/>
      <use x="892.427734" xlink:href="#DejaVuSans-115"/>
     </g>
    </g>
    <g id="line2d_19">
     <path d="M 225 131.456563 
L 245 131.456563 
" style="fill:none;stroke:#ff7f0e;stroke-linecap:square;stroke-width:1.5;"/>
    </g>
    <g id="line2d_20"/>
    <g id="text_18">
     <!-- Approximation -->
     <g transform="translate(253 134.956563)scale(0.1 -0.1)">
      <defs>
       <path d="M 34.1875 63.1875 
L 20.796875 26.90625 
L 47.609375 26.90625 
z
M 28.609375 72.90625 
L 39.796875 72.90625 
L 67.578125 0 
L 57.328125 0 
L 50.6875 18.703125 
L 17.828125 18.703125 
L 11.1875 0 
L 0.78125 0 
z
" id="DejaVuSans-65"/>
       <path d="M 34.28125 27.484375 
Q 23.390625 27.484375 19.1875 25 
Q 14.984375 22.515625 14.984375 16.5 
Q 14.984375 11.71875 18.140625 8.90625 
Q 21.296875 6.109375 26.703125 6.109375 
Q 34.1875 6.109375 38.703125 11.40625 
Q 43.21875 16.703125 43.21875 25.484375 
L 43.21875 27.484375 
z
M 52.203125 31.203125 
L 52.203125 0 
L 43.21875 0 
L 43.21875 8.296875 
Q 40.140625 3.328125 35.546875 0.953125 
Q 30.953125 -1.421875 24.3125 -1.421875 
Q 15.921875 -1.421875 10.953125 3.296875 
Q 6 8.015625 6 15.921875 
Q 6 25.140625 12.171875 29.828125 
Q 18.359375 34.515625 30.609375 34.515625 
L 43.21875 34.515625 
L 43.21875 35.40625 
Q 43.21875 41.609375 39.140625 45 
Q 35.0625 48.390625 27.6875 48.390625 
Q 23 48.390625 18.546875 47.265625 
Q 14.109375 46.140625 10.015625 43.890625 
L 10.015625 52.203125 
Q 14.9375 54.109375 19.578125 55.046875 
Q 24.21875 56 28.609375 56 
Q 40.484375 56 46.34375 49.84375 
Q 52.203125 43.703125 52.203125 31.203125 
z
" id="DejaVuSans-97"/>
      </defs>
      <use xlink:href="#DejaVuSans-65"/>
      <use x="68.408203" xlink:href="#DejaVuSans-112"/>
      <use x="131.884766" xlink:href="#DejaVuSans-112"/>
      <use x="195.361328" xlink:href="#DejaVuSans-114"/>
      <use x="234.224609" xlink:href="#DejaVuSans-111"/>
      <use x="292.28125" xlink:href="#DejaVuSans-120"/>
      <use x="351.460938" xlink:href="#DejaVuSans-105"/>
      <use x="379.244141" xlink:href="#DejaVuSans-109"/>
      <use x="476.65625" xlink:href="#DejaVuSans-97"/>
      <use x="537.935547" xlink:href="#DejaVuSans-116"/>
      <use x="577.144531" xlink:href="#DejaVuSans-105"/>
      <use x="604.927734" xlink:href="#DejaVuSans-111"/>
      <use x="666.109375" xlink:href="#DejaVuSans-110"/>
     </g>
    </g>
   </g>
  </g>
 </g>
 <defs>
  <clipPath id="p92ac13d324">
   <rect height="665.28" width="1339.2" x="216" y="103.68"/>
  </clipPath>
 </defs>
</svg>
