<?xml version="1.0" encoding="utf-8" standalone="no"?>
<!DOCTYPE svg PUBLIC "-//W3C//DTD SVG 1.1//EN"
  "http://www.w3.org/Graphics/SVG/1.1/DTD/svg11.dtd">
<!-- Created with matplotlib (https://matplotlib.org/) -->
<svg height="864pt" version="1.1" viewBox="0 0 1728 864" width="1728pt" xmlns="http://www.w3.org/2000/svg" xmlns:xlink="http://www.w3.org/1999/xlink">
 <metadata>
  <rdf:RDF xmlns:cc="http://creativecommons.org/ns#" xmlns:dc="http://purl.org/dc/elements/1.1/" xmlns:rdf="http://www.w3.org/1999/02/22-rdf-syntax-ns#">
   <cc:Work>
    <dc:type rdf:resource="http://purl.org/dc/dcmitype/StillImage"/>
    <dc:date>2020-09-14T17:09:38.680587</dc:date>
    <dc:format>image/svg+xml</dc:format>
    <dc:creator>
     <cc:Agent>
      <dc:title>Matplotlib v3.3.1, https://matplotlib.org/</dc:title>
     </cc:Agent>
    </dc:creator>
   </cc:Work>
  </rdf:RDF>
 </metadata>
 <defs>
  <style type="text/css">*{stroke-linecap:butt;stroke-linejoin:round;}</style>
 </defs>
 <g id="figure_1">
  <g id="patch_1">
   <path d="M 0 864 
L 1728 864 
L 1728 0 
L 0 0 
z
" style="fill:#ffffff;"/>
  </g>
  <g id="axes_1">
   <g id="patch_2">
    <path d="M 216 768.96 
L 1555.2 768.96 
L 1555.2 103.68 
L 216 103.68 
z
" style="fill:#ffffff;"/>
   </g>
   <g id="matplotlib.axis_1">
    <g id="xtick_1">
     <g id="line2d_1">
      <defs>
       <path d="M 0 0 
L 0 3.5 
" id="mc3e1c692de" style="stroke:#000000;stroke-width:0.8;"/>
      </defs>
      <g>
       <use style="stroke:#000000;stroke-width:0.8;" x="276.872727" xlink:href="#mc3e1c692de" y="768.96"/>
      </g>
     </g>
     <g id="text_1">
      <!-- 0 -->
      <g transform="translate(273.691477 783.558437)scale(0.1 -0.1)">
       <defs>
        <path d="M 31.78125 66.40625 
Q 24.171875 66.40625 20.328125 58.90625 
Q 16.5 51.421875 16.5 36.375 
Q 16.5 21.390625 20.328125 13.890625 
Q 24.171875 6.390625 31.78125 6.390625 
Q 39.453125 6.390625 43.28125 13.890625 
Q 47.125 21.390625 47.125 36.375 
Q 47.125 51.421875 43.28125 58.90625 
Q 39.453125 66.40625 31.78125 66.40625 
z
M 31.78125 74.21875 
Q 44.046875 74.21875 50.515625 64.515625 
Q 56.984375 54.828125 56.984375 36.375 
Q 56.984375 17.96875 50.515625 8.265625 
Q 44.046875 -1.421875 31.78125 -1.421875 
Q 19.53125 -1.421875 13.0625 8.265625 
Q 6.59375 17.96875 6.59375 36.375 
Q 6.59375 54.828125 13.0625 64.515625 
Q 19.53125 74.21875 31.78125 74.21875 
z
" id="DejaVuSans-48"/>
       </defs>
       <use xlink:href="#DejaVuSans-48"/>
      </g>
     </g>
    </g>
    <g id="xtick_2">
     <g id="line2d_2">
      <g>
       <use style="stroke:#000000;stroke-width:0.8;" x="429.130674" xlink:href="#mc3e1c692de" y="768.96"/>
      </g>
     </g>
     <g id="text_2">
      <!-- 250 -->
      <g transform="translate(419.586924 783.558437)scale(0.1 -0.1)">
       <defs>
        <path d="M 19.1875 8.296875 
L 53.609375 8.296875 
L 53.609375 0 
L 7.328125 0 
L 7.328125 8.296875 
Q 12.9375 14.109375 22.625 23.890625 
Q 32.328125 33.6875 34.8125 36.53125 
Q 39.546875 41.84375 41.421875 45.53125 
Q 43.3125 49.21875 43.3125 52.78125 
Q 43.3125 58.59375 39.234375 62.25 
Q 35.15625 65.921875 28.609375 65.921875 
Q 23.96875 65.921875 18.8125 64.3125 
Q 13.671875 62.703125 7.8125 59.421875 
L 7.8125 69.390625 
Q 13.765625 71.78125 18.9375 73 
Q 24.125 74.21875 28.421875 74.21875 
Q 39.75 74.21875 46.484375 68.546875 
Q 53.21875 62.890625 53.21875 53.421875 
Q 53.21875 48.921875 51.53125 44.890625 
Q 49.859375 40.875 45.40625 35.40625 
Q 44.1875 33.984375 37.640625 27.21875 
Q 31.109375 20.453125 19.1875 8.296875 
z
" id="DejaVuSans-50"/>
        <path d="M 10.796875 72.90625 
L 49.515625 72.90625 
L 49.515625 64.59375 
L 19.828125 64.59375 
L 19.828125 46.734375 
Q 21.96875 47.46875 24.109375 47.828125 
Q 26.265625 48.1875 28.421875 48.1875 
Q 40.625 48.1875 47.75 41.5 
Q 54.890625 34.8125 54.890625 23.390625 
Q 54.890625 11.625 47.5625 5.09375 
Q 40.234375 -1.421875 26.90625 -1.421875 
Q 22.3125 -1.421875 17.546875 -0.640625 
Q 12.796875 0.140625 7.71875 1.703125 
L 7.71875 11.625 
Q 12.109375 9.234375 16.796875 8.0625 
Q 21.484375 6.890625 26.703125 6.890625 
Q 35.15625 6.890625 40.078125 11.328125 
Q 45.015625 15.765625 45.015625 23.390625 
Q 45.015625 31 40.078125 35.4375 
Q 35.15625 39.890625 26.703125 39.890625 
Q 22.75 39.890625 18.8125 39.015625 
Q 14.890625 38.140625 10.796875 36.28125 
z
" id="DejaVuSans-53"/>
       </defs>
       <use xlink:href="#DejaVuSans-50"/>
       <use x="63.623047" xlink:href="#DejaVuSans-53"/>
       <use x="127.246094" xlink:href="#DejaVuSans-48"/>
      </g>
     </g>
    </g>
    <g id="xtick_3">
     <g id="line2d_3">
      <g>
       <use style="stroke:#000000;stroke-width:0.8;" x="581.388622" xlink:href="#mc3e1c692de" y="768.96"/>
      </g>
     </g>
     <g id="text_3">
      <!-- 500 -->
      <g transform="translate(571.844872 783.558437)scale(0.1 -0.1)">
       <use xlink:href="#DejaVuSans-53"/>
       <use x="63.623047" xlink:href="#DejaVuSans-48"/>
       <use x="127.246094" xlink:href="#DejaVuSans-48"/>
      </g>
     </g>
    </g>
    <g id="xtick_4">
     <g id="line2d_4">
      <g>
       <use style="stroke:#000000;stroke-width:0.8;" x="733.646569" xlink:href="#mc3e1c692de" y="768.96"/>
      </g>
     </g>
     <g id="text_4">
      <!-- 750 -->
      <g transform="translate(724.102819 783.558437)scale(0.1 -0.1)">
       <defs>
        <path d="M 8.203125 72.90625 
L 55.078125 72.90625 
L 55.078125 68.703125 
L 28.609375 0 
L 18.3125 0 
L 43.21875 64.59375 
L 8.203125 64.59375 
z
" id="DejaVuSans-55"/>
       </defs>
       <use xlink:href="#DejaVuSans-55"/>
       <use x="63.623047" xlink:href="#DejaVuSans-53"/>
       <use x="127.246094" xlink:href="#DejaVuSans-48"/>
      </g>
     </g>
    </g>
    <g id="xtick_5">
     <g id="line2d_5">
      <g>
       <use style="stroke:#000000;stroke-width:0.8;" x="885.904516" xlink:href="#mc3e1c692de" y="768.96"/>
      </g>
     </g>
     <g id="text_5">
      <!-- 1000 -->
      <g transform="translate(873.179516 783.558437)scale(0.1 -0.1)">
       <defs>
        <path d="M 12.40625 8.296875 
L 28.515625 8.296875 
L 28.515625 63.921875 
L 10.984375 60.40625 
L 10.984375 69.390625 
L 28.421875 72.90625 
L 38.28125 72.90625 
L 38.28125 8.296875 
L 54.390625 8.296875 
L 54.390625 0 
L 12.40625 0 
z
" id="DejaVuSans-49"/>
       </defs>
       <use xlink:href="#DejaVuSans-49"/>
       <use x="63.623047" xlink:href="#DejaVuSans-48"/>
       <use x="127.246094" xlink:href="#DejaVuSans-48"/>
       <use x="190.869141" xlink:href="#DejaVuSans-48"/>
      </g>
     </g>
    </g>
    <g id="xtick_6">
     <g id="line2d_6">
      <g>
       <use style="stroke:#000000;stroke-width:0.8;" x="1038.162463" xlink:href="#mc3e1c692de" y="768.96"/>
      </g>
     </g>
     <g id="text_6">
      <!-- 1250 -->
      <g transform="translate(1025.437463 783.558437)scale(0.1 -0.1)">
       <use xlink:href="#DejaVuSans-49"/>
       <use x="63.623047" xlink:href="#DejaVuSans-50"/>
       <use x="127.246094" xlink:href="#DejaVuSans-53"/>
       <use x="190.869141" xlink:href="#DejaVuSans-48"/>
      </g>
     </g>
    </g>
    <g id="xtick_7">
     <g id="line2d_7">
      <g>
       <use style="stroke:#000000;stroke-width:0.8;" x="1190.42041" xlink:href="#mc3e1c692de" y="768.96"/>
      </g>
     </g>
     <g id="text_7">
      <!-- 1500 -->
      <g transform="translate(1177.69541 783.558437)scale(0.1 -0.1)">
       <use xlink:href="#DejaVuSans-49"/>
       <use x="63.623047" xlink:href="#DejaVuSans-53"/>
       <use x="127.246094" xlink:href="#DejaVuSans-48"/>
       <use x="190.869141" xlink:href="#DejaVuSans-48"/>
      </g>
     </g>
    </g>
    <g id="xtick_8">
     <g id="line2d_8">
      <g>
       <use style="stroke:#000000;stroke-width:0.8;" x="1342.678357" xlink:href="#mc3e1c692de" y="768.96"/>
      </g>
     </g>
     <g id="text_8">
      <!-- 1750 -->
      <g transform="translate(1329.953357 783.558437)scale(0.1 -0.1)">
       <use xlink:href="#DejaVuSans-49"/>
       <use x="63.623047" xlink:href="#DejaVuSans-55"/>
       <use x="127.246094" xlink:href="#DejaVuSans-53"/>
       <use x="190.869141" xlink:href="#DejaVuSans-48"/>
      </g>
     </g>
    </g>
    <g id="xtick_9">
     <g id="line2d_9">
      <g>
       <use style="stroke:#000000;stroke-width:0.8;" x="1494.936305" xlink:href="#mc3e1c692de" y="768.96"/>
      </g>
     </g>
     <g id="text_9">
      <!-- 2000 -->
      <g transform="translate(1482.211305 783.558437)scale(0.1 -0.1)">
       <use xlink:href="#DejaVuSans-50"/>
       <use x="63.623047" xlink:href="#DejaVuSans-48"/>
       <use x="127.246094" xlink:href="#DejaVuSans-48"/>
       <use x="190.869141" xlink:href="#DejaVuSans-48"/>
      </g>
     </g>
    </g>
    <g id="text_10">
     <!-- Vector length -->
     <g transform="translate(852.139844 797.236562)scale(0.1 -0.1)">
      <defs>
       <path d="M 28.609375 0 
L 0.78125 72.90625 
L 11.078125 72.90625 
L 34.1875 11.53125 
L 57.328125 72.90625 
L 67.578125 72.90625 
L 39.796875 0 
z
" id="DejaVuSans-86"/>
       <path d="M 56.203125 29.59375 
L 56.203125 25.203125 
L 14.890625 25.203125 
Q 15.484375 15.921875 20.484375 11.0625 
Q 25.484375 6.203125 34.421875 6.203125 
Q 39.59375 6.203125 44.453125 7.46875 
Q 49.3125 8.734375 54.109375 11.28125 
L 54.109375 2.78125 
Q 49.265625 0.734375 44.1875 -0.34375 
Q 39.109375 -1.421875 33.890625 -1.421875 
Q 20.796875 -1.421875 13.15625 6.1875 
Q 5.515625 13.8125 5.515625 26.8125 
Q 5.515625 40.234375 12.765625 48.109375 
Q 20.015625 56 32.328125 56 
Q 43.359375 56 49.78125 48.890625 
Q 56.203125 41.796875 56.203125 29.59375 
z
M 47.21875 32.234375 
Q 47.125 39.59375 43.09375 43.984375 
Q 39.0625 48.390625 32.421875 48.390625 
Q 24.90625 48.390625 20.390625 44.140625 
Q 15.875 39.890625 15.1875 32.171875 
z
" id="DejaVuSans-101"/>
       <path d="M 48.78125 52.59375 
L 48.78125 44.1875 
Q 44.96875 46.296875 41.140625 47.34375 
Q 37.3125 48.390625 33.40625 48.390625 
Q 24.65625 48.390625 19.8125 42.84375 
Q 14.984375 37.3125 14.984375 27.296875 
Q 14.984375 17.28125 19.8125 11.734375 
Q 24.65625 6.203125 33.40625 6.203125 
Q 37.3125 6.203125 41.140625 7.25 
Q 44.96875 8.296875 48.78125 10.40625 
L 48.78125 2.09375 
Q 45.015625 0.34375 40.984375 -0.53125 
Q 36.96875 -1.421875 32.421875 -1.421875 
Q 20.0625 -1.421875 12.78125 6.34375 
Q 5.515625 14.109375 5.515625 27.296875 
Q 5.515625 40.671875 12.859375 48.328125 
Q 20.21875 56 33.015625 56 
Q 37.15625 56 41.109375 55.140625 
Q 45.0625 54.296875 48.78125 52.59375 
z
" id="DejaVuSans-99"/>
       <path d="M 18.3125 70.21875 
L 18.3125 54.6875 
L 36.8125 54.6875 
L 36.8125 47.703125 
L 18.3125 47.703125 
L 18.3125 18.015625 
Q 18.3125 11.328125 20.140625 9.421875 
Q 21.96875 7.515625 27.59375 7.515625 
L 36.8125 7.515625 
L 36.8125 0 
L 27.59375 0 
Q 17.1875 0 13.234375 3.875 
Q 9.28125 7.765625 9.28125 18.015625 
L 9.28125 47.703125 
L 2.6875 47.703125 
L 2.6875 54.6875 
L 9.28125 54.6875 
L 9.28125 70.21875 
z
" id="DejaVuSans-116"/>
       <path d="M 30.609375 48.390625 
Q 23.390625 48.390625 19.1875 42.75 
Q 14.984375 37.109375 14.984375 27.296875 
Q 14.984375 17.484375 19.15625 11.84375 
Q 23.34375 6.203125 30.609375 6.203125 
Q 37.796875 6.203125 41.984375 11.859375 
Q 46.1875 17.53125 46.1875 27.296875 
Q 46.1875 37.015625 41.984375 42.703125 
Q 37.796875 48.390625 30.609375 48.390625 
z
M 30.609375 56 
Q 42.328125 56 49.015625 48.375 
Q 55.71875 40.765625 55.71875 27.296875 
Q 55.71875 13.875 49.015625 6.21875 
Q 42.328125 -1.421875 30.609375 -1.421875 
Q 18.84375 -1.421875 12.171875 6.21875 
Q 5.515625 13.875 5.515625 27.296875 
Q 5.515625 40.765625 12.171875 48.375 
Q 18.84375 56 30.609375 56 
z
" id="DejaVuSans-111"/>
       <path d="M 41.109375 46.296875 
Q 39.59375 47.171875 37.8125 47.578125 
Q 36.03125 48 33.890625 48 
Q 26.265625 48 22.1875 43.046875 
Q 18.109375 38.09375 18.109375 28.8125 
L 18.109375 0 
L 9.078125 0 
L 9.078125 54.6875 
L 18.109375 54.6875 
L 18.109375 46.1875 
Q 20.953125 51.171875 25.484375 53.578125 
Q 30.03125 56 36.53125 56 
Q 37.453125 56 38.578125 55.875 
Q 39.703125 55.765625 41.0625 55.515625 
z
" id="DejaVuSans-114"/>
       <path id="DejaVuSans-32"/>
       <path d="M 9.421875 75.984375 
L 18.40625 75.984375 
L 18.40625 0 
L 9.421875 0 
z
" id="DejaVuSans-108"/>
       <path d="M 54.890625 33.015625 
L 54.890625 0 
L 45.90625 0 
L 45.90625 32.71875 
Q 45.90625 40.484375 42.875 44.328125 
Q 39.84375 48.1875 33.796875 48.1875 
Q 26.515625 48.1875 22.3125 43.546875 
Q 18.109375 38.921875 18.109375 30.90625 
L 18.109375 0 
L 9.078125 0 
L 9.078125 54.6875 
L 18.109375 54.6875 
L 18.109375 46.1875 
Q 21.34375 51.125 25.703125 53.5625 
Q 30.078125 56 35.796875 56 
Q 45.21875 56 50.046875 50.171875 
Q 54.890625 44.34375 54.890625 33.015625 
z
" id="DejaVuSans-110"/>
       <path d="M 45.40625 27.984375 
Q 45.40625 37.75 41.375 43.109375 
Q 37.359375 48.484375 30.078125 48.484375 
Q 22.859375 48.484375 18.828125 43.109375 
Q 14.796875 37.75 14.796875 27.984375 
Q 14.796875 18.265625 18.828125 12.890625 
Q 22.859375 7.515625 30.078125 7.515625 
Q 37.359375 7.515625 41.375 12.890625 
Q 45.40625 18.265625 45.40625 27.984375 
z
M 54.390625 6.78125 
Q 54.390625 -7.171875 48.1875 -13.984375 
Q 42 -20.796875 29.203125 -20.796875 
Q 24.46875 -20.796875 20.265625 -20.09375 
Q 16.0625 -19.390625 12.109375 -17.921875 
L 12.109375 -9.1875 
Q 16.0625 -11.328125 19.921875 -12.34375 
Q 23.78125 -13.375 27.78125 -13.375 
Q 36.625 -13.375 41.015625 -8.765625 
Q 45.40625 -4.15625 45.40625 5.171875 
L 45.40625 9.625 
Q 42.625 4.78125 38.28125 2.390625 
Q 33.9375 0 27.875 0 
Q 17.828125 0 11.671875 7.65625 
Q 5.515625 15.328125 5.515625 27.984375 
Q 5.515625 40.671875 11.671875 48.328125 
Q 17.828125 56 27.875 56 
Q 33.9375 56 38.28125 53.609375 
Q 42.625 51.21875 45.40625 46.390625 
L 45.40625 54.6875 
L 54.390625 54.6875 
z
" id="DejaVuSans-103"/>
       <path d="M 54.890625 33.015625 
L 54.890625 0 
L 45.90625 0 
L 45.90625 32.71875 
Q 45.90625 40.484375 42.875 44.328125 
Q 39.84375 48.1875 33.796875 48.1875 
Q 26.515625 48.1875 22.3125 43.546875 
Q 18.109375 38.921875 18.109375 30.90625 
L 18.109375 0 
L 9.078125 0 
L 9.078125 75.984375 
L 18.109375 75.984375 
L 18.109375 46.1875 
Q 21.34375 51.125 25.703125 53.5625 
Q 30.078125 56 35.796875 56 
Q 45.21875 56 50.046875 50.171875 
Q 54.890625 44.34375 54.890625 33.015625 
z
" id="DejaVuSans-104"/>
      </defs>
      <use xlink:href="#DejaVuSans-86"/>
      <use x="60.658203" xlink:href="#DejaVuSans-101"/>
      <use x="122.181641" xlink:href="#DejaVuSans-99"/>
      <use x="177.162109" xlink:href="#DejaVuSans-116"/>
      <use x="216.371094" xlink:href="#DejaVuSans-111"/>
      <use x="277.552734" xlink:href="#DejaVuSans-114"/>
      <use x="318.666016" xlink:href="#DejaVuSans-32"/>
      <use x="350.453125" xlink:href="#DejaVuSans-108"/>
      <use x="378.236328" xlink:href="#DejaVuSans-101"/>
      <use x="439.759766" xlink:href="#DejaVuSans-110"/>
      <use x="503.138672" xlink:href="#DejaVuSans-103"/>
      <use x="566.615234" xlink:href="#DejaVuSans-116"/>
      <use x="605.824219" xlink:href="#DejaVuSans-104"/>
     </g>
    </g>
   </g>
   <g id="matplotlib.axis_2">
    <g id="ytick_1">
     <g id="line2d_10">
      <defs>
       <path d="M 0 0 
L -3.5 0 
" id="m4093a44a99" style="stroke:#000000;stroke-width:0.8;"/>
      </defs>
      <g>
       <use style="stroke:#000000;stroke-width:0.8;" x="216" xlink:href="#m4093a44a99" y="736.691895"/>
      </g>
     </g>
     <g id="text_11">
      <!-- 0.00 -->
      <g transform="translate(186.734375 740.491114)scale(0.1 -0.1)">
       <defs>
        <path d="M 10.6875 12.40625 
L 21 12.40625 
L 21 0 
L 10.6875 0 
z
" id="DejaVuSans-46"/>
       </defs>
       <use xlink:href="#DejaVuSans-48"/>
       <use x="63.623047" xlink:href="#DejaVuSans-46"/>
       <use x="95.410156" xlink:href="#DejaVuSans-48"/>
       <use x="159.033203" xlink:href="#DejaVuSans-48"/>
      </g>
     </g>
    </g>
    <g id="ytick_2">
     <g id="line2d_11">
      <g>
       <use style="stroke:#000000;stroke-width:0.8;" x="216" xlink:href="#m4093a44a99" y="636.206658"/>
      </g>
     </g>
     <g id="text_12">
      <!-- 0.05 -->
      <g transform="translate(186.734375 640.005876)scale(0.1 -0.1)">
       <use xlink:href="#DejaVuSans-48"/>
       <use x="63.623047" xlink:href="#DejaVuSans-46"/>
       <use x="95.410156" xlink:href="#DejaVuSans-48"/>
       <use x="159.033203" xlink:href="#DejaVuSans-53"/>
      </g>
     </g>
    </g>
    <g id="ytick_3">
     <g id="line2d_12">
      <g>
       <use style="stroke:#000000;stroke-width:0.8;" x="216" xlink:href="#m4093a44a99" y="535.72142"/>
      </g>
     </g>
     <g id="text_13">
      <!-- 0.10 -->
      <g transform="translate(186.734375 539.520639)scale(0.1 -0.1)">
       <use xlink:href="#DejaVuSans-48"/>
       <use x="63.623047" xlink:href="#DejaVuSans-46"/>
       <use x="95.410156" xlink:href="#DejaVuSans-49"/>
       <use x="159.033203" xlink:href="#DejaVuSans-48"/>
      </g>
     </g>
    </g>
    <g id="ytick_4">
     <g id="line2d_13">
      <g>
       <use style="stroke:#000000;stroke-width:0.8;" x="216" xlink:href="#m4093a44a99" y="435.236183"/>
      </g>
     </g>
     <g id="text_14">
      <!-- 0.15 -->
      <g transform="translate(186.734375 439.035402)scale(0.1 -0.1)">
       <use xlink:href="#DejaVuSans-48"/>
       <use x="63.623047" xlink:href="#DejaVuSans-46"/>
       <use x="95.410156" xlink:href="#DejaVuSans-49"/>
       <use x="159.033203" xlink:href="#DejaVuSans-53"/>
      </g>
     </g>
    </g>
    <g id="ytick_5">
     <g id="line2d_14">
      <g>
       <use style="stroke:#000000;stroke-width:0.8;" x="216" xlink:href="#m4093a44a99" y="334.750946"/>
      </g>
     </g>
     <g id="text_15">
      <!-- 0.20 -->
      <g transform="translate(186.734375 338.550165)scale(0.1 -0.1)">
       <use xlink:href="#DejaVuSans-48"/>
       <use x="63.623047" xlink:href="#DejaVuSans-46"/>
       <use x="95.410156" xlink:href="#DejaVuSans-50"/>
       <use x="159.033203" xlink:href="#DejaVuSans-48"/>
      </g>
     </g>
    </g>
    <g id="ytick_6">
     <g id="line2d_15">
      <g>
       <use style="stroke:#000000;stroke-width:0.8;" x="216" xlink:href="#m4093a44a99" y="234.265709"/>
      </g>
     </g>
     <g id="text_16">
      <!-- 0.25 -->
      <g transform="translate(186.734375 238.064927)scale(0.1 -0.1)">
       <use xlink:href="#DejaVuSans-48"/>
       <use x="63.623047" xlink:href="#DejaVuSans-46"/>
       <use x="95.410156" xlink:href="#DejaVuSans-50"/>
       <use x="159.033203" xlink:href="#DejaVuSans-53"/>
      </g>
     </g>
    </g>
    <g id="ytick_7">
     <g id="line2d_16">
      <g>
       <use style="stroke:#000000;stroke-width:0.8;" x="216" xlink:href="#m4093a44a99" y="133.780471"/>
      </g>
     </g>
     <g id="text_17">
      <!-- 0.30 -->
      <g transform="translate(186.734375 137.57969)scale(0.1 -0.1)">
       <defs>
        <path d="M 40.578125 39.3125 
Q 47.65625 37.796875 51.625 33 
Q 55.609375 28.21875 55.609375 21.1875 
Q 55.609375 10.40625 48.1875 4.484375 
Q 40.765625 -1.421875 27.09375 -1.421875 
Q 22.515625 -1.421875 17.65625 -0.515625 
Q 12.796875 0.390625 7.625 2.203125 
L 7.625 11.71875 
Q 11.71875 9.328125 16.59375 8.109375 
Q 21.484375 6.890625 26.8125 6.890625 
Q 36.078125 6.890625 40.9375 10.546875 
Q 45.796875 14.203125 45.796875 21.1875 
Q 45.796875 27.640625 41.28125 31.265625 
Q 36.765625 34.90625 28.71875 34.90625 
L 20.21875 34.90625 
L 20.21875 43.015625 
L 29.109375 43.015625 
Q 36.375 43.015625 40.234375 45.921875 
Q 44.09375 48.828125 44.09375 54.296875 
Q 44.09375 59.90625 40.109375 62.90625 
Q 36.140625 65.921875 28.71875 65.921875 
Q 24.65625 65.921875 20.015625 65.03125 
Q 15.375 64.15625 9.8125 62.3125 
L 9.8125 71.09375 
Q 15.4375 72.65625 20.34375 73.4375 
Q 25.25 74.21875 29.59375 74.21875 
Q 40.828125 74.21875 47.359375 69.109375 
Q 53.90625 64.015625 53.90625 55.328125 
Q 53.90625 49.265625 50.4375 45.09375 
Q 46.96875 40.921875 40.578125 39.3125 
z
" id="DejaVuSans-51"/>
       </defs>
       <use xlink:href="#DejaVuSans-48"/>
       <use x="63.623047" xlink:href="#DejaVuSans-46"/>
       <use x="95.410156" xlink:href="#DejaVuSans-51"/>
       <use x="159.033203" xlink:href="#DejaVuSans-48"/>
      </g>
     </g>
    </g>
    <g id="text_18">
     <!-- Time, ms -->
     <g transform="translate(180.654687 459.206719)rotate(-90)scale(0.1 -0.1)">
      <defs>
       <path d="M -0.296875 72.90625 
L 61.375 72.90625 
L 61.375 64.59375 
L 35.5 64.59375 
L 35.5 0 
L 25.59375 0 
L 25.59375 64.59375 
L -0.296875 64.59375 
z
" id="DejaVuSans-84"/>
       <path d="M 9.421875 54.6875 
L 18.40625 54.6875 
L 18.40625 0 
L 9.421875 0 
z
M 9.421875 75.984375 
L 18.40625 75.984375 
L 18.40625 64.59375 
L 9.421875 64.59375 
z
" id="DejaVuSans-105"/>
       <path d="M 52 44.1875 
Q 55.375 50.25 60.0625 53.125 
Q 64.75 56 71.09375 56 
Q 79.640625 56 84.28125 50.015625 
Q 88.921875 44.046875 88.921875 33.015625 
L 88.921875 0 
L 79.890625 0 
L 79.890625 32.71875 
Q 79.890625 40.578125 77.09375 44.375 
Q 74.3125 48.1875 68.609375 48.1875 
Q 61.625 48.1875 57.5625 43.546875 
Q 53.515625 38.921875 53.515625 30.90625 
L 53.515625 0 
L 44.484375 0 
L 44.484375 32.71875 
Q 44.484375 40.625 41.703125 44.40625 
Q 38.921875 48.1875 33.109375 48.1875 
Q 26.21875 48.1875 22.15625 43.53125 
Q 18.109375 38.875 18.109375 30.90625 
L 18.109375 0 
L 9.078125 0 
L 9.078125 54.6875 
L 18.109375 54.6875 
L 18.109375 46.1875 
Q 21.1875 51.21875 25.484375 53.609375 
Q 29.78125 56 35.6875 56 
Q 41.65625 56 45.828125 52.96875 
Q 50 49.953125 52 44.1875 
z
" id="DejaVuSans-109"/>
       <path d="M 11.71875 12.40625 
L 22.015625 12.40625 
L 22.015625 4 
L 14.015625 -11.625 
L 7.71875 -11.625 
L 11.71875 4 
z
" id="DejaVuSans-44"/>
       <path d="M 44.28125 53.078125 
L 44.28125 44.578125 
Q 40.484375 46.53125 36.375 47.5 
Q 32.28125 48.484375 27.875 48.484375 
Q 21.1875 48.484375 17.84375 46.4375 
Q 14.5 44.390625 14.5 40.28125 
Q 14.5 37.15625 16.890625 35.375 
Q 19.28125 33.59375 26.515625 31.984375 
L 29.59375 31.296875 
Q 39.15625 29.25 43.1875 25.515625 
Q 47.21875 21.78125 47.21875 15.09375 
Q 47.21875 7.46875 41.1875 3.015625 
Q 35.15625 -1.421875 24.609375 -1.421875 
Q 20.21875 -1.421875 15.453125 -0.5625 
Q 10.6875 0.296875 5.421875 2 
L 5.421875 11.28125 
Q 10.40625 8.6875 15.234375 7.390625 
Q 20.0625 6.109375 24.8125 6.109375 
Q 31.15625 6.109375 34.5625 8.28125 
Q 37.984375 10.453125 37.984375 14.40625 
Q 37.984375 18.0625 35.515625 20.015625 
Q 33.0625 21.96875 24.703125 23.78125 
L 21.578125 24.515625 
Q 13.234375 26.265625 9.515625 29.90625 
Q 5.8125 33.546875 5.8125 39.890625 
Q 5.8125 47.609375 11.28125 51.796875 
Q 16.75 56 26.8125 56 
Q 31.78125 56 36.171875 55.265625 
Q 40.578125 54.546875 44.28125 53.078125 
z
" id="DejaVuSans-115"/>
      </defs>
      <use xlink:href="#DejaVuSans-84"/>
      <use x="57.958984" xlink:href="#DejaVuSans-105"/>
      <use x="85.742188" xlink:href="#DejaVuSans-109"/>
      <use x="183.154297" xlink:href="#DejaVuSans-101"/>
      <use x="244.677734" xlink:href="#DejaVuSans-44"/>
      <use x="276.464844" xlink:href="#DejaVuSans-32"/>
      <use x="308.251953" xlink:href="#DejaVuSans-109"/>
      <use x="405.664062" xlink:href="#DejaVuSans-115"/>
     </g>
    </g>
   </g>
   <g id="line2d_17">
    <path clip-path="url(#p034138e390)" d="M 276.872727 734.775291 
L 277.481759 734.775291 
L 278.090791 736.691895 
L 278.699823 734.775291 
L 282.963045 734.775291 
L 283.572077 736.691895 
L 284.181109 734.775291 
L 284.790141 735.254442 
L 285.399172 736.691895 
L 286.008204 734.775291 
L 286.617236 734.29614 
L 287.226268 734.775291 
L 289.053363 734.775291 
L 289.662395 735.254442 
L 290.271427 734.29614 
L 290.880458 734.775291 
L 292.707554 734.775291 
L 293.316586 734.29614 
L 293.925617 734.775291 
L 294.534649 732.379536 
L 295.143681 734.775291 
L 296.361745 734.775291 
L 296.970776 732.858687 
L 297.579808 732.858687 
L 298.18884 735.254442 
L 298.797872 734.29614 
L 299.406903 732.379536 
L 300.015935 733.337838 
L 300.624967 732.379536 
L 301.233999 734.775291 
L 301.843031 732.379536 
L 302.452062 732.379536 
L 303.061094 732.858687 
L 303.670126 732.858687 
L 304.279158 733.337838 
L 304.88819 733.337838 
L 306.106253 732.379536 
L 306.715285 732.379536 
L 307.324317 730.942083 
L 307.933348 732.379536 
L 308.54238 732.858687 
L 309.151412 730.942083 
L 309.760444 732.379536 
L 310.978507 732.379536 
L 311.587539 732.858687 
L 312.196571 732.379536 
L 312.805603 732.858687 
L 313.414635 730.462932 
L 314.023666 730.942083 
L 314.632698 732.379536 
L 315.24173 732.379536 
L 315.850762 730.462932 
L 316.459794 732.379536 
L 317.068825 732.379536 
L 317.677857 730.462932 
L 318.286889 732.379536 
L 318.895921 730.462932 
L 319.504952 730.942083 
L 320.113984 730.462932 
L 320.723016 730.942083 
L 321.332048 730.462932 
L 323.159143 730.462932 
L 323.768175 730.942083 
L 324.377207 730.462932 
L 325.59527 730.462932 
L 326.204302 730.942083 
L 326.813334 730.462932 
L 327.422366 730.462932 
L 328.031398 728.546329 
L 328.640429 730.942083 
L 329.249461 730.462932 
L 329.858493 728.546329 
L 330.467525 731.421234 
L 331.076556 728.546329 
L 332.29462 728.546329 
L 332.903652 730.462932 
L 333.512684 728.546329 
L 334.121715 730.462932 
L 334.730747 730.462932 
L 335.339779 728.546329 
L 335.948811 728.546329 
L 336.557843 730.462932 
L 337.166874 728.546329 
L 337.775906 730.942083 
L 338.384938 729.02548 
L 338.99397 729.02548 
L 339.603002 722.796517 
L 340.212033 720.879913 
L 340.821065 728.546329 
L 341.430097 729.02548 
L 342.039129 728.546329 
L 342.64816 728.546329 
L 343.257192 729.02548 
L 344.475256 729.02548 
L 345.084288 728.546329 
L 345.693319 729.02548 
L 346.302351 726.150574 
L 346.911383 727.108876 
L 348.129447 727.108876 
L 348.738478 728.546329 
L 349.34751 726.150574 
L 349.956542 726.150574 
L 350.565574 727.108876 
L 351.174605 726.629725 
L 351.783637 727.108876 
L 352.392669 726.629725 
L 353.001701 726.629725 
L 353.610733 726.150574 
L 354.219764 725.192272 
L 354.828796 726.150574 
L 355.437828 724.23397 
L 356.04686 724.713121 
L 356.655892 727.108876 
L 357.264923 724.23397 
L 357.873955 727.108876 
L 358.482987 724.23397 
L 359.092019 726.150574 
L 359.701051 724.23397 
L 360.310082 724.23397 
L 360.919114 726.629725 
L 361.528146 724.23397 
L 362.137178 724.23397 
L 362.746209 724.713121 
L 363.355241 724.23397 
L 364.573305 725.192272 
L 365.182337 726.150574 
L 365.791368 724.23397 
L 366.4004 724.713121 
L 367.009432 724.23397 
L 367.618464 724.23397 
L 368.227496 727.108876 
L 368.836527 724.23397 
L 369.445559 680.152083 
L 370.054591 724.713121 
L 370.663623 725.192272 
L 371.272655 725.192272 
L 371.881686 724.713121 
L 372.490718 726.150574 
L 373.09975 724.713121 
L 373.708782 724.23397 
L 374.317813 724.23397 
L 374.926845 724.713121 
L 376.144909 724.713121 
L 376.753941 722.317366 
L 377.362972 724.23397 
L 377.972004 720.400763 
L 378.581036 724.713121 
L 379.190068 722.796517 
L 379.7991 724.713121 
L 380.408131 722.317366 
L 381.017163 722.317366 
L 381.626195 722.796517 
L 382.235227 722.796517 
L 382.844258 694.526611 
L 383.45329 722.796517 
L 384.062322 722.317366 
L 384.671354 722.317366 
L 385.280386 722.796517 
L 386.498449 722.796517 
L 387.107481 722.317366 
L 387.716513 724.23397 
L 388.325545 724.23397 
L 388.934576 722.796517 
L 389.543608 722.317366 
L 390.15264 722.796517 
L 390.761672 722.317366 
L 391.979735 722.317366 
L 392.588767 722.796517 
L 393.197799 722.317366 
L 393.806831 722.796517 
L 395.633926 722.796517 
L 396.242958 722.317366 
L 396.85199 722.317366 
L 397.461021 722.796517 
L 399.288117 722.796517 
L 399.897149 720.400763 
L 400.50618 722.796517 
L 401.115212 720.879913 
L 401.724244 722.796517 
L 402.333276 720.879913 
L 402.942308 722.796517 
L 403.551339 722.317366 
L 404.160371 718.005008 
L 404.769403 720.879913 
L 405.378435 722.796517 
L 405.987466 720.400763 
L 406.596498 720.879913 
L 407.20553 720.879913 
L 407.814562 720.400763 
L 408.423594 720.879913 
L 409.032625 719.921612 
L 409.641657 720.879913 
L 410.250689 720.879913 
L 410.859721 720.400763 
L 411.468753 718.484159 
L 412.077784 720.400763 
L 412.686816 719.921612 
L 413.295848 720.879913 
L 414.513912 720.879913 
L 415.122943 720.400763 
L 415.731975 720.400763 
L 416.341007 719.921612 
L 416.950039 720.400763 
L 417.55907 720.400763 
L 418.168102 720.879913 
L 418.777134 718.484159 
L 419.386166 720.879913 
L 419.995198 720.400763 
L 420.604229 718.96331 
L 421.213261 720.879913 
L 421.822293 718.96331 
L 422.431325 720.879913 
L 423.649388 718.96331 
L 424.25842 720.879913 
L 424.867452 718.96331 
L 425.476484 718.484159 
L 426.085515 718.96331 
L 426.694547 718.484159 
L 427.303579 718.96331 
L 428.521643 718.005008 
L 429.130674 718.484159 
L 429.739706 718.484159 
L 430.348738 718.96331 
L 432.784865 718.96331 
L 433.393897 714.650951 
L 434.002929 718.96331 
L 434.611961 718.005008 
L 435.220992 718.005008 
L 435.830024 718.96331 
L 436.439056 718.96331 
L 437.657119 718.005008 
L 438.266151 716.567555 
L 438.875183 718.005008 
L 439.484215 718.96331 
L 440.093247 718.484159 
L 441.31131 718.484159 
L 441.920342 718.96331 
L 442.529374 717.046706 
L 443.138406 716.567555 
L 443.747437 718.005008 
L 444.356469 716.567555 
L 444.965501 718.96331 
L 445.574533 716.567555 
L 448.01066 716.567555 
L 448.619692 718.484159 
L 449.837755 714.650951 
L 450.446787 716.567555 
L 451.664851 716.567555 
L 452.273882 716.088404 
L 452.882914 716.567555 
L 453.491946 714.650951 
L 454.100978 717.046706 
L 454.71001 716.567555 
L 455.319041 714.650951 
L 455.928073 716.567555 
L 456.537105 716.567555 
L 457.146137 714.650951 
L 457.755168 714.650951 
L 458.3642 717.046706 
L 458.973232 716.567555 
L 460.191296 716.567555 
L 460.800327 714.650951 
L 461.409359 716.567555 
L 462.018391 716.567555 
L 462.627423 682.068687 
L 463.236455 712.734347 
L 463.845486 714.1718 
L 464.454518 716.567555 
L 465.06355 714.650951 
L 465.672582 714.650951 
L 466.281614 716.567555 
L 466.890645 716.567555 
L 467.499677 714.650951 
L 468.108709 714.650951 
L 468.717741 714.1718 
L 469.326772 716.567555 
L 469.935804 714.1718 
L 470.544836 716.567555 
L 471.153868 714.650951 
L 471.7629 716.567555 
L 472.371931 714.650951 
L 474.808059 714.650951 
L 475.41709 714.1718 
L 476.026122 714.1718 
L 476.635154 714.650951 
L 477.853218 714.650951 
L 478.462249 712.255196 
L 479.071281 714.650951 
L 479.680313 714.1718 
L 480.289345 714.650951 
L 480.898376 714.1718 
L 481.507408 714.650951 
L 482.725472 714.650951 
L 483.334504 713.213498 
L 483.943535 712.734347 
L 485.161599 712.734347 
L 485.770631 714.650951 
L 486.379663 712.255196 
L 486.988694 712.255196 
L 487.597726 714.650951 
L 488.81579 714.650951 
L 489.424822 712.734347 
L 490.033853 712.734347 
L 490.642885 714.650951 
L 491.251917 712.734347 
L 491.860949 712.255196 
L 492.46998 713.213498 
L 493.079012 712.255196 
L 493.688044 674.402271 
L 494.297076 710.817744 
L 494.906108 712.734347 
L 496.733203 712.734347 
L 497.342235 710.817744 
L 497.951267 710.338593 
L 498.560298 683.026988 
L 499.16933 710.338593 
L 499.778362 712.255196 
L 500.387394 710.338593 
L 500.996425 713.213498 
L 501.605457 710.338593 
L 502.214489 712.255196 
L 502.823521 710.338593 
L 503.432553 712.734347 
L 504.041584 710.817744 
L 504.650616 710.338593 
L 505.259648 710.338593 
L 506.477712 711.296894 
L 507.086743 710.338593 
L 507.695775 710.817744 
L 508.304807 710.817744 
L 508.913839 710.338593 
L 509.522871 710.338593 
L 510.131902 712.734347 
L 511.349966 712.734347 
L 511.958998 710.817744 
L 512.568029 710.338593 
L 513.177061 710.338593 
L 513.786093 710.817744 
L 514.395125 710.817744 
L 515.004157 710.338593 
L 515.613188 710.338593 
L 516.22222 708.421989 
L 516.831252 710.338593 
L 517.440284 710.338593 
L 518.049316 710.817744 
L 518.658347 708.90114 
L 519.267379 708.421989 
L 519.876411 710.338593 
L 520.485443 712.734347 
L 521.094475 708.421989 
L 521.703506 708.90114 
L 522.312538 708.421989 
L 522.92157 710.338593 
L 523.530602 710.338593 
L 524.139633 710.817744 
L 524.748665 710.338593 
L 525.357697 708.421989 
L 525.966729 710.817744 
L 526.575761 708.421989 
L 527.184792 710.338593 
L 527.793824 708.421989 
L 528.402856 708.421989 
L 529.011888 710.817744 
L 529.62092 708.421989 
L 530.229951 710.817744 
L 530.838983 708.90114 
L 531.448015 708.421989 
L 533.884142 708.421989 
L 534.493174 710.817744 
L 535.102206 708.421989 
L 535.711237 706.984536 
L 536.320269 708.421989 
L 536.929301 706.984536 
L 537.538333 704.588781 
L 538.147365 698.83897 
L 538.756396 705.067932 
L 539.365428 708.90114 
L 539.97446 708.421989 
L 540.583492 706.026234 
L 541.192524 670.089913 
L 541.801555 702.193026 
L 542.410587 706.505385 
L 543.019619 705.067932 
L 543.628651 638.46595 
L 544.237682 702.193026 
L 544.846714 704.588781 
L 545.455746 706.026234 
L 546.064778 706.505385 
L 546.67381 702.193026 
L 547.282841 702.672177 
L 547.891873 702.193026 
L 548.500905 702.193026 
L 549.109937 704.588781 
L 549.718969 703.151328 
L 550.328 674.402271 
L 550.937032 702.672177 
L 551.546064 700.755574 
L 552.155096 703.151328 
L 552.764128 706.505385 
L 553.373159 704.588781 
L 554.591223 704.588781 
L 555.200255 703.151328 
L 555.809286 692.610007 
L 556.418318 688.7768 
L 557.02735 690.214253 
L 557.636382 700.755574 
L 558.245414 704.10963 
L 558.854445 705.067932 
L 559.463477 702.672177 
L 560.072509 702.193026 
L 560.681541 702.672177 
L 561.290573 702.672177 
L 561.899604 700.755574 
L 562.508636 704.588781 
L 563.117668 702.193026 
L 563.7267 705.067932 
L 564.335732 702.672177 
L 564.944763 704.10963 
L 565.553795 704.10963 
L 566.162827 702.672177 
L 566.771859 702.193026 
L 567.38089 702.672177 
L 567.989922 702.193026 
L 568.598954 704.588781 
L 569.207986 702.193026 
L 569.817018 702.672177 
L 570.426049 702.672177 
L 571.035081 700.755574 
L 571.644113 702.193026 
L 572.253145 702.672177 
L 572.862177 700.755574 
L 573.471208 700.755574 
L 574.08024 702.193026 
L 575.298304 702.193026 
L 575.907335 703.151328 
L 577.125399 702.193026 
L 577.734431 700.276423 
L 578.343463 700.755574 
L 578.952494 700.755574 
L 579.561526 702.193026 
L 580.170558 703.151328 
L 580.77959 702.672177 
L 581.388622 704.588781 
L 581.997653 703.151328 
L 582.606685 702.193026 
L 583.215717 702.672177 
L 583.824749 702.672177 
L 584.433781 703.151328 
L 585.042812 703.151328 
L 585.651844 702.193026 
L 586.260876 702.672177 
L 586.869908 702.672177 
L 587.478939 700.276423 
L 588.087971 702.672177 
L 588.697003 700.755574 
L 589.306035 700.276423 
L 589.915067 702.672177 
L 590.524098 702.672177 
L 591.13313 702.193026 
L 591.742162 702.672177 
L 592.351194 700.755574 
L 592.960226 700.276423 
L 593.569257 700.755574 
L 594.178289 700.755574 
L 594.787321 702.672177 
L 595.396353 702.672177 
L 596.005385 700.755574 
L 596.614416 700.755574 
L 597.223448 700.276423 
L 597.83248 700.755574 
L 598.441512 700.276423 
L 599.050543 698.359819 
L 599.659575 702.672177 
L 600.268607 700.276423 
L 600.877639 700.755574 
L 601.486671 700.755574 
L 602.095702 702.672177 
L 602.704734 700.276423 
L 603.313766 702.193026 
L 603.922798 699.797272 
L 604.53183 700.755574 
L 605.140861 699.797272 
L 605.749893 702.672177 
L 606.358925 661.944347 
L 606.967957 700.755574 
L 607.576988 700.276423 
L 608.18602 700.755574 
L 608.795052 702.672177 
L 609.404084 702.672177 
L 610.013116 700.276423 
L 610.622147 700.276423 
L 611.231179 700.755574 
L 611.840211 700.755574 
L 612.449243 700.276423 
L 613.058275 700.276423 
L 613.667306 698.359819 
L 614.276338 700.755574 
L 614.88537 700.755574 
L 615.494402 700.276423 
L 616.103434 698.83897 
L 616.712465 700.755574 
L 617.321497 700.276423 
L 617.930529 700.755574 
L 618.539561 698.83897 
L 619.148592 698.83897 
L 619.757624 698.359819 
L 620.366656 698.83897 
L 620.975688 698.83897 
L 621.58472 700.276423 
L 622.193751 660.027743 
L 622.802783 698.83897 
L 623.411815 656.673686 
L 624.020847 698.359819 
L 625.23891 698.359819 
L 625.847942 696.443215 
L 627.066006 696.443215 
L 627.675038 698.83897 
L 628.284069 698.359819 
L 628.893101 695.964064 
L 629.502133 696.443215 
L 630.111165 696.443215 
L 630.720196 697.880668 
L 631.329228 696.443215 
L 631.93826 696.443215 
L 632.547292 696.922366 
L 633.765355 695.964064 
L 634.374387 696.922366 
L 634.983419 694.526611 
L 635.592451 698.83897 
L 636.810514 698.83897 
L 637.419546 698.359819 
L 638.028578 696.922366 
L 638.63761 696.443215 
L 639.246642 698.83897 
L 639.855673 696.922366 
L 640.464705 694.526611 
L 641.073737 696.443215 
L 642.900832 696.443215 
L 643.509864 694.526611 
L 644.118896 698.359819 
L 644.727928 696.922366 
L 645.945991 696.922366 
L 646.555023 696.443215 
L 647.164055 696.922366 
L 647.773087 698.359819 
L 648.382118 696.443215 
L 648.99115 696.922366 
L 649.600182 662.423498 
L 650.209214 696.443215 
L 650.818245 694.526611 
L 651.427277 694.526611 
L 652.036309 696.443215 
L 652.645341 696.443215 
L 653.254373 692.610007 
L 653.863404 694.526611 
L 654.472436 695.964064 
L 655.081468 696.443215 
L 655.6905 694.526611 
L 656.299532 660.506894 
L 656.908563 694.526611 
L 658.126627 694.526611 
L 658.735659 696.443215 
L 659.344691 694.526611 
L 660.562754 694.526611 
L 661.171786 656.673686 
L 661.780818 698.359819 
L 662.389849 696.922366 
L 662.998881 694.526611 
L 663.607913 694.526611 
L 664.216945 696.443215 
L 665.435008 692.610007 
L 666.04404 688.7768 
L 666.653072 690.214253 
L 667.262104 693.089158 
L 667.871136 692.130856 
L 668.480167 694.526611 
L 669.089199 692.130856 
L 669.698231 692.610007 
L 672.134358 692.610007 
L 672.74339 694.526611 
L 673.352422 692.610007 
L 674.570485 692.610007 
L 675.179517 691.172555 
L 675.788549 692.610007 
L 676.397581 639.903403 
L 677.006612 692.610007 
L 677.615644 694.526611 
L 678.224676 692.610007 
L 678.833708 692.130856 
L 679.44274 694.526611 
L 680.051771 692.130856 
L 680.660803 692.610007 
L 681.269835 692.130856 
L 681.878867 692.610007 
L 682.487898 694.526611 
L 683.09693 692.130856 
L 683.705962 692.610007 
L 686.142089 692.610007 
L 686.751121 690.693404 
L 687.360153 692.610007 
L 689.187248 692.610007 
L 689.79628 693.089158 
L 690.405312 692.610007 
L 691.014344 694.04746 
L 691.623375 692.610007 
L 693.450471 692.610007 
L 694.059502 690.214253 
L 694.668534 692.610007 
L 695.277566 692.130856 
L 696.49563 693.089158 
L 697.104661 691.172555 
L 697.713693 693.089158 
L 698.322725 690.693404 
L 698.931757 692.610007 
L 699.540789 692.610007 
L 700.14982 690.693404 
L 700.758852 692.610007 
L 701.367884 690.214253 
L 702.585948 691.172555 
L 703.194979 690.693404 
L 703.804011 688.297649 
L 704.413043 690.214253 
L 706.240138 690.214253 
L 706.84917 692.610007 
L 707.458202 692.610007 
L 708.067234 690.214253 
L 708.676265 690.693404 
L 709.285297 690.214253 
L 709.894329 690.693404 
L 710.503361 690.693404 
L 711.112393 688.7768 
L 711.721424 690.693404 
L 712.330456 688.297649 
L 712.939488 692.610007 
L 713.54852 688.297649 
L 714.157552 692.610007 
L 714.766583 688.297649 
L 715.375615 688.7768 
L 715.984647 688.297649 
L 716.593679 688.7768 
L 717.20271 690.214253 
L 717.811742 688.297649 
L 718.420774 648.52812 
L 719.029806 688.297649 
L 720.247869 688.297649 
L 720.856901 688.7768 
L 721.465933 691.172555 
L 722.074965 689.255951 
L 722.683997 690.214253 
L 723.293028 610.196044 
L 723.90206 690.693404 
L 724.511092 688.7768 
L 725.120124 649.965573 
L 725.729155 690.214253 
L 726.338187 614.029252 
L 726.947219 658.59029 
L 727.556251 680.152083 
L 728.165283 620.258214 
L 728.774314 684.464441 
L 729.383346 686.381045 
L 729.992378 683.026988 
L 730.60141 684.943592 
L 731.210442 683.98529 
L 731.819473 683.98529 
L 732.428505 682.547838 
L 733.037537 686.860196 
L 733.646569 683.98529 
L 734.255601 682.068687 
L 734.864632 683.98529 
L 735.473664 684.464441 
L 736.082696 683.026988 
L 736.691728 682.547838 
L 737.300759 684.464441 
L 737.909791 683.026988 
L 738.518823 682.068687 
L 739.127855 680.631234 
L 739.736887 682.068687 
L 740.345918 680.631234 
L 740.95495 684.464441 
L 741.563982 682.547838 
L 742.173014 683.98529 
L 742.782046 684.464441 
L 743.391077 684.464441 
L 744.000109 684.943592 
L 744.609141 682.547838 
L 745.827205 682.547838 
L 746.436236 684.464441 
L 747.045268 682.547838 
L 747.6543 682.068687 
L 748.263332 672.485668 
L 748.872363 668.173309 
L 749.481395 682.068687 
L 750.090427 680.152083 
L 750.699459 678.71463 
L 751.308491 680.631234 
L 751.917522 680.631234 
L 752.526554 684.464441 
L 753.135586 682.547838 
L 753.744618 682.068687 
L 754.35365 680.631234 
L 754.962681 682.547838 
L 755.571713 680.152083 
L 756.180745 680.631234 
L 756.789777 682.547838 
L 757.398808 682.068687 
L 758.00784 680.631234 
L 758.616872 678.71463 
L 759.225904 680.631234 
L 759.834936 684.464441 
L 760.443967 684.943592 
L 761.052999 684.943592 
L 761.662031 684.464441 
L 762.271063 683.026988 
L 762.880095 646.132365 
L 763.489126 674.402271 
L 764.098158 682.068687 
L 764.70719 683.98529 
L 765.316222 682.068687 
L 765.925254 682.068687 
L 766.534285 684.464441 
L 767.143317 682.068687 
L 767.752349 683.026988 
L 768.970412 682.068687 
L 769.579444 682.547838 
L 770.188476 682.547838 
L 770.797508 683.98529 
L 771.40654 682.547838 
L 772.015571 682.547838 
L 772.624603 682.068687 
L 773.233635 682.547838 
L 773.842667 684.943592 
L 774.451699 682.547838 
L 775.06073 683.98529 
L 775.669762 684.464441 
L 776.278794 682.068687 
L 776.887826 682.547838 
L 777.496858 682.547838 
L 778.105889 683.026988 
L 778.714921 680.152083 
L 779.323953 682.068687 
L 780.542016 683.026988 
L 781.151048 680.631234 
L 781.76008 682.547838 
L 782.369112 682.547838 
L 782.978144 682.068687 
L 783.587175 682.068687 
L 784.196207 680.631234 
L 784.805239 683.026988 
L 785.414271 682.068687 
L 786.632334 682.068687 
L 787.241366 679.672932 
L 787.850398 680.152083 
L 788.45943 682.547838 
L 789.068462 680.631234 
L 789.677493 682.547838 
L 790.286525 680.152083 
L 790.895557 680.631234 
L 791.504589 680.631234 
L 792.11362 682.547838 
L 792.722652 680.631234 
L 793.331684 680.152083 
L 793.940716 680.152083 
L 794.549748 678.235479 
L 795.767811 683.026988 
L 796.376843 680.152083 
L 796.985875 678.235479 
L 797.594907 682.547838 
L 798.203938 680.631234 
L 798.81297 680.631234 
L 799.422002 678.71463 
L 800.031034 680.631234 
L 800.640065 680.631234 
L 801.249097 680.152083 
L 801.858129 678.235479 
L 802.467161 678.71463 
L 803.076193 680.152083 
L 803.685224 680.631234 
L 804.294256 677.756328 
L 804.903288 678.235479 
L 805.51232 680.631234 
L 806.121352 678.71463 
L 806.730383 678.71463 
L 807.339415 678.235479 
L 807.948447 680.631234 
L 808.557479 678.71463 
L 809.775542 678.71463 
L 810.384574 678.235479 
L 810.993606 680.631234 
L 811.602638 678.71463 
L 812.820701 678.71463 
L 813.429733 680.631234 
L 814.038765 680.152083 
L 814.647797 678.235479 
L 815.256828 673.92312 
L 815.86586 678.71463 
L 816.474892 676.798026 
L 817.083924 678.235479 
L 817.692956 678.71463 
L 818.301987 678.235479 
L 820.129083 678.235479 
L 821.347146 674.402271 
L 821.956178 676.798026 
L 822.56521 678.71463 
L 823.174242 678.235479 
L 823.783273 678.71463 
L 824.392305 674.402271 
L 825.001337 678.71463 
L 825.610369 676.798026 
L 826.219401 676.318875 
L 826.828432 678.71463 
L 827.437464 676.318875 
L 828.046496 674.402271 
L 828.655528 676.798026 
L 829.26456 676.318875 
L 829.873591 674.402271 
L 830.482623 674.881422 
L 831.091655 675.839724 
L 831.700687 575.218025 
L 832.309718 674.402271 
L 832.91875 676.798026 
L 833.527782 677.756328 
L 834.136814 678.235479 
L 834.745846 676.318875 
L 835.354877 678.235479 
L 835.963909 678.235479 
L 836.572941 676.798026 
L 837.181973 676.318875 
L 837.791005 676.318875 
L 838.400036 672.485668 
L 839.009068 674.402271 
L 839.6181 675.839724 
L 840.836164 676.798026 
L 841.445195 675.839724 
L 842.054227 674.402271 
L 842.663259 676.798026 
L 843.272291 674.402271 
L 843.881322 676.318875 
L 844.490354 674.402271 
L 845.099386 676.798026 
L 845.708418 674.402271 
L 846.31745 674.402271 
L 846.926481 675.839724 
L 847.535513 614.508403 
L 848.144545 676.318875 
L 848.753577 676.318875 
L 849.362609 674.402271 
L 849.97164 674.881422 
L 850.580672 674.402271 
L 852.407768 674.402271 
L 853.016799 674.881422 
L 853.625831 674.402271 
L 854.234863 676.798026 
L 854.843895 672.006517 
L 855.452926 672.485668 
L 856.061958 672.485668 
L 856.67099 676.318875 
L 857.280022 672.485668 
L 857.889054 676.318875 
L 859.107117 672.485668 
L 859.716149 672.485668 
L 860.325181 674.402271 
L 860.934213 670.569064 
L 861.543244 670.569064 
L 862.152276 607.800289 
L 862.761308 622.653969 
L 863.37034 592.467459 
L 863.979372 666.256705 
L 864.588403 662.902649 
L 865.197435 658.59029 
L 865.806467 575.697176 
L 866.415499 614.029252 
L 867.02453 599.654723 
L 867.633562 591.988308 
L 868.242594 660.027743 
L 868.851626 660.506894 
L 869.460658 648.52812 
L 870.069689 657.631988 
L 870.678721 658.59029 
L 871.287753 610.196044 
L 871.896785 658.59029 
L 872.505817 660.506894 
L 873.114848 660.506894 
L 873.72388 610.196044 
L 874.332912 658.111139 
L 874.941944 605.883686 
L 875.550975 569.947364 
L 876.160007 658.111139 
L 876.769039 653.798781 
L 877.378071 658.59029 
L 877.987103 593.904912 
L 878.596134 591.509157 
L 879.205166 660.027743 
L 879.814198 649.965573 
L 880.42323 627.924629 
L 881.032262 660.027743 
L 881.641293 656.194535 
L 882.250325 660.027743 
L 882.859357 654.277931 
L 883.468389 662.423498 
L 884.077421 658.59029 
L 884.686452 662.423498 
L 885.295484 664.819252 
L 885.904516 660.506894 
L 886.513548 666.256705 
L 887.122579 593.904912 
L 887.731611 606.362836 
L 888.340643 648.52812 
L 888.949675 607.800289 
L 889.558707 646.611516 
L 890.167738 654.277931 
L 890.77677 660.027743 
L 891.385802 656.673686 
L 891.994834 658.59029 
L 892.603866 652.361328 
L 893.212897 656.673686 
L 894.430961 627.924629 
L 895.039993 648.048969 
L 895.649025 650.444724 
L 896.258056 658.111139 
L 896.867088 657.631988 
L 897.47612 660.027743 
L 898.085152 652.361328 
L 898.694183 660.027743 
L 899.303215 660.506894 
L 899.912247 654.277931 
L 900.521279 642.299158 
L 901.130311 638.46595 
L 901.739342 648.048969 
L 902.348374 661.944347 
L 902.957406 658.59029 
L 903.566438 662.423498 
L 904.17547 656.194535 
L 904.784501 660.506894 
L 905.393533 656.194535 
L 906.002565 642.299158 
L 906.611597 643.736611 
L 907.220628 637.986799 
L 907.82966 652.361328 
L 908.438692 660.027743 
L 909.047724 630.320384 
L 910.874819 656.194535 
L 911.483851 626.008025 
L 912.092883 647.090667 
L 912.701915 644.215762 
L 913.310946 660.027743 
L 913.919978 654.277931 
L 915.138042 662.423498 
L 915.747074 658.59029 
L 916.965137 658.59029 
L 917.574169 646.132365 
L 918.183201 646.132365 
L 918.792232 639.903403 
L 919.401264 662.423498 
L 920.010296 662.423498 
L 920.619328 661.944347 
L 921.22836 658.111139 
L 921.837391 626.008025 
L 922.446423 658.59029 
L 923.055455 650.444724 
L 923.664487 640.382554 
L 924.273519 646.132365 
L 924.88255 646.132365 
L 925.491582 661.944347 
L 926.100614 658.59029 
L 926.709646 660.027743 
L 927.318678 621.695667 
L 927.927709 658.59029 
L 928.536741 644.694912 
L 929.145773 654.277931 
L 929.754805 641.820007 
L 930.363836 656.673686 
L 930.972868 660.506894 
L 931.5819 656.673686 
L 932.190932 658.111139 
L 933.408995 661.944347 
L 934.018027 614.508403 
L 934.627059 639.903403 
L 935.236091 649.965573 
L 935.845123 661.944347 
L 936.454154 654.277931 
L 937.063186 658.111139 
L 937.672218 658.59029 
L 938.28125 640.382554 
L 938.890282 654.277931 
L 939.499313 632.236988 
L 940.108345 655.715384 
L 940.717377 656.194535 
L 941.326409 621.695667 
L 941.93544 654.277931 
L 942.544472 656.194535 
L 943.153504 658.59029 
L 943.762536 578.09293 
L 944.371568 650.444724 
L 944.980599 631.757837 
L 945.589631 635.591044 
L 946.198663 638.46595 
L 946.807695 649.007271 
L 947.416727 654.757082 
L 948.025758 658.59029 
L 948.63479 658.111139 
L 949.243822 648.048969 
L 949.852854 662.423498 
L 950.461885 658.111139 
L 951.070917 657.631988 
L 951.679949 660.027743 
L 952.288981 658.59029 
L 952.898013 606.841987 
L 953.507044 658.111139 
L 954.116076 660.506894 
L 955.33414 656.673686 
L 956.552203 658.59029 
L 957.161235 654.277931 
L 957.770267 660.506894 
L 958.379299 662.902649 
L 958.988331 658.111139 
L 959.597362 660.506894 
L 960.206394 656.673686 
L 960.815426 656.194535 
L 961.424458 656.673686 
L 962.033489 658.111139 
L 962.642521 656.194535 
L 963.251553 657.631988 
L 963.860585 661.944347 
L 964.469617 660.027743 
L 965.078648 588.1551 
L 965.68768 662.423498 
L 966.296712 660.506894 
L 966.905744 662.423498 
L 967.514776 547.42727 
L 968.123807 660.506894 
L 968.732839 655.715384 
L 969.341871 656.194535 
L 969.950903 658.111139 
L 970.559935 658.59029 
L 971.168966 656.673686 
L 971.777998 658.59029 
L 972.38703 656.194535 
L 972.996062 656.673686 
L 973.605093 654.277931 
L 974.214125 656.194535 
L 974.823157 652.361328 
L 975.432189 656.194535 
L 976.041221 654.757082 
L 976.650252 656.194535 
L 977.868316 656.194535 
L 978.477348 656.673686 
L 979.08638 660.027743 
L 979.695411 658.59029 
L 980.304443 534.011043 
L 980.913475 656.673686 
L 981.522507 658.59029 
L 982.131538 658.59029 
L 982.74057 660.027743 
L 983.349602 658.59029 
L 983.958634 658.59029 
L 984.567666 656.673686 
L 985.176697 660.506894 
L 985.785729 658.111139 
L 986.394761 658.59029 
L 987.003793 658.111139 
L 987.612825 655.715384 
L 988.221856 658.59029 
L 988.830888 656.673686 
L 989.43992 662.423498 
L 990.048952 657.631988 
L 990.657984 660.027743 
L 991.267015 662.902649 
L 991.876047 660.027743 
L 992.485079 658.59029 
L 993.094111 660.027743 
L 993.703142 655.715384 
L 994.312174 660.506894 
L 995.530238 654.277931 
L 996.13927 654.277931 
L 996.748301 656.194535 
L 997.357333 656.673686 
L 997.966365 654.277931 
L 998.575397 658.59029 
L 999.184429 547.906421 
L 999.79346 656.194535 
L 1000.402492 654.277931 
L 1001.011524 580.009534 
L 1001.620556 652.361328 
L 1002.229588 656.673686 
L 1002.838619 658.59029 
L 1003.447651 654.757082 
L 1004.056683 658.59029 
L 1004.665715 654.277931 
L 1005.274746 658.59029 
L 1005.883778 656.194535 
L 1006.49281 658.59029 
L 1007.101842 652.361328 
L 1007.710874 656.194535 
L 1008.319905 655.715384 
L 1009.537969 656.673686 
L 1010.147001 656.673686 
L 1010.756033 660.027743 
L 1011.365064 581.926138 
L 1011.974096 655.715384 
L 1012.583128 656.673686 
L 1013.19216 658.111139 
L 1013.801192 656.194535 
L 1014.410223 654.757082 
L 1015.019255 654.277931 
L 1015.628287 657.631988 
L 1016.237319 654.757082 
L 1016.84635 658.111139 
L 1017.455382 653.798781 
L 1018.673446 649.965573 
L 1019.282478 529.219534 
L 1019.891509 611.633497 
L 1020.500541 650.444724 
L 1021.718605 650.444724 
L 1022.327637 566.114157 
L 1022.936668 646.132365 
L 1023.5457 616.425006 
L 1024.154732 646.132365 
L 1024.763764 641.820007 
L 1025.372795 642.778309 
L 1025.981827 616.425006 
L 1026.590859 649.965573 
L 1027.199891 650.444724 
L 1027.808923 648.52812 
L 1028.417954 640.382554 
L 1029.026986 646.132365 
L 1029.636018 646.132365 
L 1030.24505 648.52812 
L 1030.854082 648.52812 
L 1031.463113 646.611516 
L 1032.072145 643.736611 
L 1032.681177 561.801798 
L 1033.290209 649.965573 
L 1033.899241 649.965573 
L 1034.508272 646.132365 
L 1035.117304 650.444724 
L 1035.726336 650.444724 
L 1036.335368 649.965573 
L 1036.944399 646.132365 
L 1037.553431 649.965573 
L 1038.162463 650.444724 
L 1038.771495 648.048969 
L 1039.380527 650.444724 
L 1039.989558 648.048969 
L 1040.59859 649.965573 
L 1041.207622 648.52812 
L 1041.816654 644.694912 
L 1042.425686 638.46595 
L 1043.034717 642.299158 
L 1043.643749 639.903403 
L 1044.252781 642.299158 
L 1044.861813 648.048969 
L 1045.470845 648.048969 
L 1046.079876 579.530383 
L 1046.688908 646.611516 
L 1047.29794 642.778309 
L 1048.516003 641.820007 
L 1049.125035 648.52812 
L 1049.734067 646.132365 
L 1050.343099 640.861705 
L 1050.952131 646.132365 
L 1051.561162 644.215762 
L 1052.170194 644.694912 
L 1052.779226 650.444724 
L 1053.388258 649.965573 
L 1053.99729 605.883686 
L 1054.606321 469.325665 
L 1055.215353 653.798781 
L 1055.824385 651.882177 
L 1056.433417 650.444724 
L 1057.042448 646.132365 
L 1058.869544 646.132365 
L 1059.478576 646.611516 
L 1060.087607 648.52812 
L 1060.696639 592.467459 
L 1061.305671 576.176327 
L 1061.914703 648.048969 
L 1062.523735 644.694912 
L 1063.132766 648.048969 
L 1063.741798 648.048969 
L 1064.35083 648.52812 
L 1064.959862 646.132365 
L 1066.177925 646.132365 
L 1066.786957 648.048969 
L 1067.395989 643.736611 
L 1068.005021 643.736611 
L 1068.614052 646.611516 
L 1069.223084 644.694912 
L 1069.832116 639.903403 
L 1070.441148 583.842742 
L 1071.05018 643.736611 
L 1071.659211 644.215762 
L 1072.877275 644.215762 
L 1073.486307 648.52812 
L 1074.095339 646.132365 
L 1074.70437 650.444724 
L 1075.313402 646.132365 
L 1075.922434 644.215762 
L 1076.531466 646.132365 
L 1077.140498 648.52812 
L 1077.749529 646.132365 
L 1078.358561 646.611516 
L 1078.967593 648.048969 
L 1079.576625 648.048969 
L 1080.185656 646.132365 
L 1080.794688 648.52812 
L 1081.40372 648.52812 
L 1082.012752 650.444724 
L 1082.621784 618.34161 
L 1083.230815 648.048969 
L 1083.839847 606.362836 
L 1084.448879 507.657741 
L 1085.057911 593.904912 
L 1085.666943 648.048969 
L 1086.275974 644.215762 
L 1086.885006 648.52812 
L 1087.494038 646.611516 
L 1088.10307 632.236988 
L 1088.712102 553.656232 
L 1089.321133 632.236988 
L 1089.930165 636.070195 
L 1090.539197 644.215762 
L 1091.148229 643.736611 
L 1091.75726 642.778309 
L 1092.366292 612.112648 
L 1092.975324 642.299158 
L 1093.584356 539.281704 
L 1094.193388 644.215762 
L 1094.802419 644.694912 
L 1095.411451 642.299158 
L 1096.020483 642.299158 
L 1096.629515 639.903403 
L 1097.238547 642.778309 
L 1097.847578 641.820007 
L 1098.45661 642.299158 
L 1099.065642 642.299158 
L 1099.674674 642.778309 
L 1100.283705 641.820007 
L 1100.892737 644.215762 
L 1101.501769 643.736611 
L 1102.110801 643.736611 
L 1102.719833 642.299158 
L 1103.328864 637.986799 
L 1103.937896 636.070195 
L 1104.546928 642.778309 
L 1105.15596 639.903403 
L 1105.764992 641.820007 
L 1106.374023 636.549346 
L 1106.983055 637.986799 
L 1107.592087 638.46595 
L 1108.201119 639.903403 
L 1108.810151 629.841233 
L 1109.419182 386.911701 
L 1110.028214 637.507648 
L 1110.637246 632.236988 
L 1111.246278 642.299158 
L 1111.855309 593.904912 
L 1112.464341 640.382554 
L 1113.073373 639.903403 
L 1113.682405 642.299158 
L 1114.291437 511.490948 
L 1114.900468 640.382554 
L 1115.5095 641.820007 
L 1116.118532 640.382554 
L 1116.727564 642.778309 
L 1117.336596 641.820007 
L 1117.945627 641.820007 
L 1118.554659 638.46595 
L 1119.163691 640.382554 
L 1119.772723 639.903403 
L 1120.381755 638.46595 
L 1120.990786 639.903403 
L 1121.599818 640.382554 
L 1122.20885 640.382554 
L 1123.426913 635.591044 
L 1124.035945 640.382554 
L 1124.644977 639.903403 
L 1125.254009 639.903403 
L 1125.863041 640.382554 
L 1126.472072 637.986799 
L 1127.081104 641.820007 
L 1127.690136 640.382554 
L 1128.299168 642.299158 
L 1128.9082 644.694912 
L 1129.517231 644.215762 
L 1130.126263 642.299158 
L 1130.735295 644.215762 
L 1131.344327 643.736611 
L 1131.953358 644.215762 
L 1132.56239 646.132365 
L 1133.171422 644.215762 
L 1133.780454 644.694912 
L 1134.389486 639.903403 
L 1134.998517 617.862459 
L 1135.607549 644.694912 
L 1136.216581 635.591044 
L 1136.825613 544.073213 
L 1137.434645 557.48944 
L 1138.043676 632.236988 
L 1138.652708 596.300667 
L 1139.26174 551.739628 
L 1139.870772 584.321893 
L 1140.479804 624.091422 
L 1141.088835 596.300667 
L 1141.697867 629.841233 
L 1142.306899 634.153592 
L 1142.915931 634.632743 
L 1143.524962 632.236988 
L 1144.133994 627.924629 
L 1144.743026 633.674441 
L 1145.352058 636.549346 
L 1145.96109 636.070195 
L 1146.570121 636.070195 
L 1147.179153 634.153592 
L 1147.788185 639.903403 
L 1148.397217 638.46595 
L 1149.006249 636.549346 
L 1149.61528 634.153592 
L 1150.224312 634.632743 
L 1150.833344 636.549346 
L 1151.442376 634.153592 
L 1152.051408 636.070195 
L 1152.660439 630.320384 
L 1153.269471 636.070195 
L 1153.878503 634.153592 
L 1154.487535 634.632743 
L 1155.096566 635.591044 
L 1155.705598 634.632743 
L 1156.31463 635.591044 
L 1156.923662 636.070195 
L 1157.532694 638.46595 
L 1158.141725 634.632743 
L 1158.750757 634.153592 
L 1159.359789 638.46595 
L 1159.968821 637.507648 
L 1160.577853 547.906421 
L 1161.186884 624.570573 
L 1161.795916 587.675949 
L 1162.404948 634.632743 
L 1163.01398 634.153592 
L 1163.623012 636.070195 
L 1164.232043 634.153592 
L 1164.841075 636.549346 
L 1165.450107 634.153592 
L 1166.059139 636.549346 
L 1166.66817 634.153592 
L 1167.277202 636.549346 
L 1167.886234 634.632743 
L 1168.495266 633.674441 
L 1169.104298 634.632743 
L 1169.713329 636.070195 
L 1170.322361 639.903403 
L 1170.931393 638.46595 
L 1171.540425 634.632743 
L 1172.149457 634.632743 
L 1172.758488 634.153592 
L 1173.36752 634.153592 
L 1173.976552 637.986799 
L 1174.585584 637.986799 
L 1175.194615 638.46595 
L 1175.803647 636.549346 
L 1176.412679 636.549346 
L 1177.021711 637.986799 
L 1177.630743 636.070195 
L 1178.239774 640.382554 
L 1179.457838 632.236988 
L 1180.06687 634.153592 
L 1180.675902 641.820007 
L 1181.284933 638.46595 
L 1181.893965 634.153592 
L 1182.502997 634.153592 
L 1183.112029 632.716139 
L 1183.721061 629.841233 
L 1184.330092 630.320384 
L 1184.939124 632.236988 
L 1185.548156 636.549346 
L 1186.157188 638.46595 
L 1186.766219 634.632743 
L 1187.375251 637.986799 
L 1187.984283 519.636515 
L 1188.593315 636.549346 
L 1189.202347 635.591044 
L 1189.811378 637.986799 
L 1190.42041 608.27944 
L 1191.029442 636.549346 
L 1191.638474 561.801798 
L 1192.247506 630.320384 
L 1192.856537 630.320384 
L 1193.465569 634.632743 
L 1194.074601 627.924629 
L 1194.683633 632.236988 
L 1195.292665 632.236988 
L 1195.901696 624.091422 
L 1197.11976 632.236988 
L 1197.728792 622.174818 
L 1198.337823 632.236988 
L 1198.946855 633.674441 
L 1199.555887 629.841233 
L 1200.164919 632.236988 
L 1200.773951 632.236988 
L 1201.382982 628.40378 
L 1201.992014 631.757837 
L 1202.601046 624.091422 
L 1203.210078 632.236988 
L 1203.81911 632.716139 
L 1204.428141 628.882931 
L 1205.037173 630.320384 
L 1205.646205 628.40378 
L 1206.255237 628.40378 
L 1206.864268 638.46595 
L 1207.4733 632.236988 
L 1208.082332 630.320384 
L 1209.300396 636.549346 
L 1209.909427 627.924629 
L 1210.518459 634.153592 
L 1211.127491 569.947364 
L 1211.736523 634.632743 
L 1212.345555 634.153592 
L 1212.954586 634.632743 
L 1213.563618 636.070195 
L 1214.781682 632.236988 
L 1215.390714 637.986799 
L 1215.999745 634.153592 
L 1216.608777 638.46595 
L 1217.217809 626.008025 
L 1217.826841 627.924629 
L 1218.435872 630.320384 
L 1219.044904 628.40378 
L 1219.653936 627.924629 
L 1220.262968 632.236988 
L 1220.872 628.40378 
L 1221.481031 626.966327 
L 1222.090063 626.487176 
L 1222.699095 627.924629 
L 1223.308127 627.924629 
L 1223.917159 628.40378 
L 1224.52619 634.153592 
L 1225.135222 634.153592 
L 1225.744254 632.236988 
L 1226.962318 632.236988 
L 1227.571349 636.070195 
L 1228.180381 632.236988 
L 1228.789413 632.236988 
L 1229.398445 634.153592 
L 1230.007476 630.320384 
L 1230.616508 636.549346 
L 1231.22554 631.757837 
L 1231.834572 585.759346 
L 1232.443604 610.196044 
L 1233.052635 499.512175 
L 1233.661667 602.050478 
L 1234.270699 554.135383 
L 1234.879731 535.927647 
L 1235.488763 475.554627 
L 1236.097794 620.737365 
L 1236.706826 624.091422 
L 1237.315858 437.701702 
L 1237.92489 414.702457 
L 1238.533922 620.737365 
L 1239.142953 557.48944 
L 1239.751985 617.862459 
L 1240.361017 610.196044 
L 1240.970049 608.27944 
L 1241.57908 609.716893 
L 1242.188112 615.466705 
L 1242.797144 619.779063 
L 1243.406176 619.779063 
L 1244.015208 607.800289 
L 1244.624239 616.425006 
L 1245.233271 588.1551 
L 1245.842303 615.945855 
L 1246.451335 622.174818 
L 1247.060367 603.967082 
L 1247.669398 614.029252 
L 1248.27843 588.1551 
L 1248.887462 622.653969 
L 1249.496494 615.945855 
L 1250.105525 622.174818 
L 1251.323589 614.508403 
L 1251.932621 618.34161 
L 1252.541653 624.091422 
L 1253.150684 626.008025 
L 1253.759716 626.966327 
L 1254.368748 628.40378 
L 1254.97778 624.091422 
L 1255.586812 626.008025 
L 1256.195843 622.174818 
L 1256.804875 624.570573 
L 1257.413907 626.008025 
L 1258.022939 627.924629 
L 1258.631971 622.174818 
L 1259.241002 627.924629 
L 1259.850034 630.320384 
L 1260.459066 630.320384 
L 1261.677129 408.952645 
L 1262.286161 618.34161 
L 1262.895193 624.091422 
L 1263.504225 581.926138 
L 1264.113257 608.27944 
L 1264.722288 616.425006 
L 1265.33132 593.904912 
L 1265.940352 618.34161 
L 1266.549384 617.862459 
L 1267.158416 613.550101 
L 1267.767447 616.425006 
L 1268.376479 509.095194 
L 1268.985511 628.40378 
L 1269.594543 628.40378 
L 1270.203575 396.973871 
L 1270.812606 634.153592 
L 1271.421638 622.174818 
L 1272.03067 630.320384 
L 1272.639702 626.008025 
L 1273.248733 617.862459 
L 1273.857765 604.446233 
L 1274.466797 619.779063 
L 1275.075829 617.862459 
L 1275.684861 616.425006 
L 1276.293892 576.176327 
L 1276.902924 596.300667 
L 1277.511956 611.633497 
L 1278.120988 610.196044 
L 1278.73002 618.34161 
L 1279.339051 618.34161 
L 1279.948083 620.258214 
L 1280.557115 623.612271 
L 1281.166147 622.174818 
L 1281.775178 620.258214 
L 1282.38421 622.653969 
L 1282.993242 622.174818 
L 1283.602274 487.533401 
L 1284.211306 622.653969 
L 1284.820337 620.737365 
L 1285.429369 620.258214 
L 1286.038401 620.258214 
L 1286.647433 619.779063 
L 1287.256465 622.653969 
L 1287.865496 618.34161 
L 1288.474528 617.862459 
L 1289.08356 620.258214 
L 1289.692592 626.487176 
L 1290.301624 624.091422 
L 1290.910655 627.924629 
L 1291.519687 396.973871 
L 1292.128719 624.091422 
L 1292.737751 628.40378 
L 1293.346782 624.091422 
L 1293.955814 626.008025 
L 1294.564846 623.612271 
L 1295.173878 626.487176 
L 1295.78291 624.570573 
L 1296.391941 620.258214 
L 1297.000973 622.174818 
L 1297.610005 621.695667 
L 1298.219037 620.258214 
L 1298.828069 619.779063 
L 1299.4371 588.1551 
L 1300.046132 624.091422 
L 1300.655164 626.008025 
L 1301.264196 557.968591 
L 1301.873228 624.091422 
L 1302.482259 612.112648 
L 1303.091291 610.196044 
L 1303.700323 615.945855 
L 1304.309355 181.835095 
L 1304.918386 609.716893 
L 1305.527418 620.737365 
L 1306.13645 620.258214 
L 1306.745482 614.029252 
L 1307.354514 618.34161 
L 1307.963545 616.425006 
L 1308.572577 588.1551 
L 1309.181609 617.862459 
L 1310.399673 622.653969 
L 1311.008704 614.029252 
L 1311.617736 626.008025 
L 1312.226768 622.653969 
L 1312.8358 622.653969 
L 1313.444832 624.091422 
L 1314.053863 624.091422 
L 1314.662895 624.570573 
L 1315.271927 619.779063 
L 1315.880959 624.091422 
L 1316.48999 626.008025 
L 1317.099022 522.032269 
L 1317.708054 517.24076 
L 1318.317086 618.34161 
L 1318.926118 620.258214 
L 1319.535149 614.508403 
L 1320.144181 614.029252 
L 1320.753213 617.862459 
L 1321.362245 614.029252 
L 1321.971277 509.574345 
L 1322.580308 616.425006 
L 1323.18934 614.029252 
L 1323.798372 617.383308 
L 1324.407404 615.945855 
L 1325.016435 605.883686 
L 1325.625467 615.945855 
L 1326.234499 618.34161 
L 1326.843531 622.174818 
L 1328.061594 626.008025 
L 1328.670626 619.779063 
L 1329.279658 620.258214 
L 1329.88869 622.174818 
L 1330.497722 618.34161 
L 1331.106753 624.091422 
L 1331.715785 622.174818 
L 1332.324817 624.570573 
L 1332.933849 624.091422 
L 1333.542881 619.779063 
L 1334.151912 618.34161 
L 1334.760944 534.011043 
L 1335.369976 499.512175 
L 1335.979008 595.821516 
L 1336.588039 499.512175 
L 1337.197071 519.636515 
L 1337.806103 587.675949 
L 1338.415135 596.300667 
L 1339.024167 607.800289 
L 1339.633198 610.196044 
L 1340.24223 605.883686 
L 1340.851262 608.27944 
L 1341.460294 614.029252 
L 1342.069326 616.425006 
L 1342.678357 615.945855 
L 1343.287389 614.029252 
L 1343.896421 510.053496 
L 1344.505453 616.425006 
L 1345.114485 616.425006 
L 1345.723516 617.862459 
L 1346.332548 615.945855 
L 1346.94158 612.112648 
L 1347.550612 614.508403 
L 1348.159643 617.862459 
L 1348.768675 612.112648 
L 1349.377707 535.927647 
L 1349.986739 614.029252 
L 1350.595771 622.653969 
L 1351.204802 453.513684 
L 1351.813834 617.862459 
L 1352.422866 616.425006 
L 1353.031898 620.737365 
L 1353.64093 610.196044 
L 1354.249961 618.34161 
L 1354.858993 584.321893 
L 1355.468025 610.196044 
L 1356.077057 618.34161 
L 1356.686088 613.550101 
L 1357.29512 606.362836 
L 1357.904152 612.112648 
L 1358.513184 612.591799 
L 1359.122216 612.112648 
L 1359.731247 613.550101 
L 1360.340279 616.425006 
L 1360.949311 612.591799 
L 1361.558343 607.800289 
L 1362.776406 616.425006 
L 1363.385438 609.716893 
L 1363.99447 612.112648 
L 1364.603502 614.029252 
L 1365.212534 614.508403 
L 1365.821565 617.862459 
L 1366.430597 615.945855 
L 1367.039629 617.862459 
L 1367.648661 616.425006 
L 1368.257692 618.34161 
L 1368.866724 618.34161 
L 1369.475756 617.862459 
L 1370.084788 616.425006 
L 1370.69382 615.945855 
L 1371.302851 509.095194 
L 1371.911883 611.633497 
L 1372.520915 614.508403 
L 1373.129947 609.716893 
L 1373.738979 608.27944 
L 1374.34801 609.716893 
L 1374.957042 617.862459 
L 1375.566074 617.862459 
L 1376.175106 425.722928 
L 1376.784138 617.862459 
L 1377.393169 615.466705 
L 1378.002201 619.779063 
L 1378.611233 613.550101 
L 1379.220265 614.508403 
L 1379.829296 616.425006 
L 1380.438328 615.945855 
L 1381.04736 614.029252 
L 1381.656392 615.466705 
L 1382.265424 615.466705 
L 1382.874455 618.34161 
L 1383.483487 583.842742 
L 1384.092519 612.112648 
L 1384.701551 607.800289 
L 1385.310583 605.883686 
L 1385.919614 523.948873 
L 1386.528646 614.029252 
L 1387.137678 607.800289 
L 1387.74671 608.27944 
L 1388.355742 613.550101 
L 1388.964773 609.237742 
L 1389.573805 609.716893 
L 1390.182837 613.550101 
L 1390.791869 614.029252 
L 1391.4009 612.112648 
L 1392.009932 618.34161 
L 1392.618964 597.738119 
L 1393.227996 531.615288 
L 1393.837028 614.029252 
L 1394.446059 614.508403 
L 1395.055091 614.029252 
L 1396.273155 606.362836 
L 1396.882187 612.112648 
L 1397.491218 612.112648 
L 1398.10025 603.967082 
L 1398.709282 614.029252 
L 1399.318314 614.508403 
L 1399.927345 545.510666 
L 1400.536377 614.508403 
L 1401.145409 612.591799 
L 1401.754441 616.425006 
L 1402.363473 614.029252 
L 1403.581536 614.029252 
L 1404.190568 616.425006 
L 1404.7996 439.139155 
L 1405.408632 616.425006 
L 1406.017663 614.508403 
L 1406.626695 614.508403 
L 1407.235727 323.184625 
L 1407.844759 610.196044 
L 1408.453791 608.27944 
L 1409.062822 609.716893 
L 1409.671854 602.050478 
L 1410.280886 607.800289 
L 1410.889918 602.050478 
L 1411.498949 608.27944 
L 1412.107981 607.800289 
L 1412.717013 252.749436 
L 1413.326045 606.362836 
L 1413.935077 580.009534 
L 1414.544108 603.967082 
L 1415.15314 607.800289 
L 1415.762172 606.362836 
L 1416.371204 577.61378 
L 1416.980236 605.883686 
L 1417.589267 563.718402 
L 1418.198299 599.654723 
L 1418.807331 601.571327 
L 1419.416363 603.967082 
L 1420.025395 604.446233 
L 1420.634426 602.050478 
L 1421.243458 603.967082 
L 1421.85249 603.967082 
L 1422.461522 607.800289 
L 1423.070553 603.967082 
L 1423.679585 605.883686 
L 1424.288617 605.883686 
L 1424.897649 602.050478 
L 1425.506681 603.967082 
L 1426.115712 602.529629 
L 1426.724744 612.591799 
L 1427.333776 607.800289 
L 1427.942808 467.409061 
L 1428.55184 587.675949 
L 1429.160871 597.738119 
L 1429.769903 598.21727 
L 1430.378935 503.345382 
L 1430.987967 491.845759 
L 1431.596998 576.176327 
L 1432.20603 576.176327 
L 1432.815062 569.947364 
L 1433.424094 588.1551 
L 1434.033126 596.300667 
L 1434.642157 600.613025 
L 1435.251189 600.613025 
L 1435.860221 597.738119 
L 1436.469253 601.571327 
L 1437.078285 598.21727 
L 1437.687316 601.571327 
L 1438.296348 598.21727 
L 1438.90538 605.883686 
L 1439.514412 602.050478 
L 1440.123444 601.571327 
L 1440.732475 601.571327 
L 1441.341507 602.050478 
L 1441.950539 605.883686 
L 1442.559571 600.133874 
L 1443.777634 603.967082 
L 1444.386666 603.967082 
L 1444.995698 600.133874 
L 1445.60473 605.883686 
L 1446.213761 599.654723 
L 1446.822793 603.967082 
L 1447.431825 602.529629 
L 1448.040857 598.696421 
L 1448.649889 533.531892 
L 1449.25892 133.92 
L 1449.867952 591.988308 
L 1450.476984 591.988308 
L 1451.086016 581.926138 
L 1451.695048 594.384063 
L 1452.304079 597.738119 
L 1452.913111 593.904912 
L 1453.522143 595.821516 
L 1454.131175 602.050478 
L 1454.740206 602.050478 
L 1455.349238 602.529629 
L 1455.95827 601.571327 
L 1456.567302 603.967082 
L 1457.176334 602.050478 
L 1457.785365 605.883686 
L 1458.394397 601.571327 
L 1459.003429 601.571327 
L 1459.612461 596.300667 
L 1460.221493 599.654723 
L 1460.830524 595.821516 
L 1461.439556 601.571327 
L 1462.048588 602.050478 
L 1462.65762 602.050478 
L 1463.266652 603.967082 
L 1463.875683 601.571327 
L 1464.484715 602.529629 
L 1465.093747 602.050478 
L 1465.702779 603.967082 
L 1466.31181 431.47274 
L 1466.920842 588.1551 
L 1467.529874 596.300667 
L 1468.138906 588.1551 
L 1468.747938 600.133874 
L 1469.356969 595.821516 
L 1469.966001 593.904912 
L 1471.184065 606.362836 
L 1471.793097 606.362836 
L 1472.402128 607.800289 
L 1473.01116 608.27944 
L 1473.620192 545.510666 
L 1474.229224 610.196044 
L 1474.838255 606.362836 
L 1475.447287 605.883686 
L 1476.056319 605.883686 
L 1476.665351 602.050478 
L 1477.274383 605.883686 
L 1477.883414 606.362836 
L 1478.492446 602.050478 
L 1479.101478 606.362836 
L 1479.71051 605.883686 
L 1480.319542 610.196044 
L 1480.928573 606.362836 
L 1481.537605 608.27944 
L 1482.146637 602.050478 
L 1483.364701 605.883686 
L 1483.973732 605.883686 
L 1484.582764 608.27944 
L 1485.191796 598.21727 
L 1485.800828 596.300667 
L 1487.018891 600.133874 
L 1487.627923 602.529629 
L 1488.236955 599.654723 
L 1488.845987 591.509157 
L 1489.455018 600.133874 
L 1490.06405 603.967082 
L 1490.673082 601.571327 
L 1491.282114 603.967082 
L 1491.891146 604.446233 
L 1492.500177 586.238497 
L 1493.109209 573.780572 
L 1493.718241 543.594062 
L 1494.327273 350.496229 
L 1494.327273 350.496229 
" style="fill:none;stroke:#1f77b4;stroke-linecap:square;stroke-width:1.5;"/>
   </g>
   <g id="line2d_18">
    <path clip-path="url(#p034138e390)" d="M 276.872727 738.72 
L 1494.327273 582.283246 
L 1494.327273 582.283246 
" style="fill:none;stroke:#ff7f0e;stroke-linecap:square;stroke-width:1.5;"/>
   </g>
   <g id="patch_3">
    <path d="M 216 768.96 
L 216 103.68 
" style="fill:none;stroke:#000000;stroke-linecap:square;stroke-linejoin:miter;stroke-width:0.8;"/>
   </g>
   <g id="patch_4">
    <path d="M 1555.2 768.96 
L 1555.2 103.68 
" style="fill:none;stroke:#000000;stroke-linecap:square;stroke-linejoin:miter;stroke-width:0.8;"/>
   </g>
   <g id="patch_5">
    <path d="M 216 768.96 
L 1555.2 768.96 
" style="fill:none;stroke:#000000;stroke-linecap:square;stroke-linejoin:miter;stroke-width:0.8;"/>
   </g>
   <g id="patch_6">
    <path d="M 216 103.68 
L 1555.2 103.68 
" style="fill:none;stroke:#000000;stroke-linecap:square;stroke-linejoin:miter;stroke-width:0.8;"/>
   </g>
   <g id="legend_1">
    <g id="patch_7">
     <path d="M 223 141.03625 
L 349.451563 141.03625 
Q 351.451563 141.03625 351.451563 139.03625 
L 351.451563 110.68 
Q 351.451563 108.68 349.451563 108.68 
L 223 108.68 
Q 221 108.68 221 110.68 
L 221 139.03625 
Q 221 141.03625 223 141.03625 
z
" style="fill:#ffffff;opacity:0.8;stroke:#cccccc;stroke-linejoin:miter;"/>
    </g>
    <g id="line2d_19">
     <path d="M 225 116.778437 
L 245 116.778437 
" style="fill:none;stroke:#1f77b4;stroke-linecap:square;stroke-width:1.5;"/>
    </g>
    <g id="line2d_20"/>
    <g id="text_19">
     <!-- Experiment results -->
     <g transform="translate(253 120.278437)scale(0.1 -0.1)">
      <defs>
       <path d="M 9.8125 72.90625 
L 55.90625 72.90625 
L 55.90625 64.59375 
L 19.671875 64.59375 
L 19.671875 43.015625 
L 54.390625 43.015625 
L 54.390625 34.71875 
L 19.671875 34.71875 
L 19.671875 8.296875 
L 56.78125 8.296875 
L 56.78125 0 
L 9.8125 0 
z
" id="DejaVuSans-69"/>
       <path d="M 54.890625 54.6875 
L 35.109375 28.078125 
L 55.90625 0 
L 45.3125 0 
L 29.390625 21.484375 
L 13.484375 0 
L 2.875 0 
L 24.125 28.609375 
L 4.6875 54.6875 
L 15.28125 54.6875 
L 29.78125 35.203125 
L 44.28125 54.6875 
z
" id="DejaVuSans-120"/>
       <path d="M 18.109375 8.203125 
L 18.109375 -20.796875 
L 9.078125 -20.796875 
L 9.078125 54.6875 
L 18.109375 54.6875 
L 18.109375 46.390625 
Q 20.953125 51.265625 25.265625 53.625 
Q 29.59375 56 35.59375 56 
Q 45.5625 56 51.78125 48.09375 
Q 58.015625 40.1875 58.015625 27.296875 
Q 58.015625 14.40625 51.78125 6.484375 
Q 45.5625 -1.421875 35.59375 -1.421875 
Q 29.59375 -1.421875 25.265625 0.953125 
Q 20.953125 3.328125 18.109375 8.203125 
z
M 48.6875 27.296875 
Q 48.6875 37.203125 44.609375 42.84375 
Q 40.53125 48.484375 33.40625 48.484375 
Q 26.265625 48.484375 22.1875 42.84375 
Q 18.109375 37.203125 18.109375 27.296875 
Q 18.109375 17.390625 22.1875 11.75 
Q 26.265625 6.109375 33.40625 6.109375 
Q 40.53125 6.109375 44.609375 11.75 
Q 48.6875 17.390625 48.6875 27.296875 
z
" id="DejaVuSans-112"/>
       <path d="M 8.5 21.578125 
L 8.5 54.6875 
L 17.484375 54.6875 
L 17.484375 21.921875 
Q 17.484375 14.15625 20.5 10.265625 
Q 23.53125 6.390625 29.59375 6.390625 
Q 36.859375 6.390625 41.078125 11.03125 
Q 45.3125 15.671875 45.3125 23.6875 
L 45.3125 54.6875 
L 54.296875 54.6875 
L 54.296875 0 
L 45.3125 0 
L 45.3125 8.40625 
Q 42.046875 3.421875 37.71875 1 
Q 33.40625 -1.421875 27.6875 -1.421875 
Q 18.265625 -1.421875 13.375 4.4375 
Q 8.5 10.296875 8.5 21.578125 
z
M 31.109375 56 
z
" id="DejaVuSans-117"/>
      </defs>
      <use xlink:href="#DejaVuSans-69"/>
      <use x="63.183594" xlink:href="#DejaVuSans-120"/>
      <use x="122.363281" xlink:href="#DejaVuSans-112"/>
      <use x="185.839844" xlink:href="#DejaVuSans-101"/>
      <use x="247.363281" xlink:href="#DejaVuSans-114"/>
      <use x="288.476562" xlink:href="#DejaVuSans-105"/>
      <use x="316.259766" xlink:href="#DejaVuSans-109"/>
      <use x="413.671875" xlink:href="#DejaVuSans-101"/>
      <use x="475.195312" xlink:href="#DejaVuSans-110"/>
      <use x="538.574219" xlink:href="#DejaVuSans-116"/>
      <use x="577.783203" xlink:href="#DejaVuSans-32"/>
      <use x="609.570312" xlink:href="#DejaVuSans-114"/>
      <use x="648.433594" xlink:href="#DejaVuSans-101"/>
      <use x="709.957031" xlink:href="#DejaVuSans-115"/>
      <use x="762.056641" xlink:href="#DejaVuSans-117"/>
      <use x="825.435547" xlink:href="#DejaVuSans-108"/>
      <use x="853.21875" xlink:href="#DejaVuSans-116"/>
      <use x="892.427734" xlink:href="#DejaVuSans-115"/>
     </g>
    </g>
    <g id="line2d_21">
     <path d="M 225 131.456563 
L 245 131.456563 
" style="fill:none;stroke:#ff7f0e;stroke-linecap:square;stroke-width:1.5;"/>
    </g>
    <g id="line2d_22"/>
    <g id="text_20">
     <!-- Approximation -->
     <g transform="translate(253 134.956563)scale(0.1 -0.1)">
      <defs>
       <path d="M 34.1875 63.1875 
L 20.796875 26.90625 
L 47.609375 26.90625 
z
M 28.609375 72.90625 
L 39.796875 72.90625 
L 67.578125 0 
L 57.328125 0 
L 50.6875 18.703125 
L 17.828125 18.703125 
L 11.1875 0 
L 0.78125 0 
z
" id="DejaVuSans-65"/>
       <path d="M 34.28125 27.484375 
Q 23.390625 27.484375 19.1875 25 
Q 14.984375 22.515625 14.984375 16.5 
Q 14.984375 11.71875 18.140625 8.90625 
Q 21.296875 6.109375 26.703125 6.109375 
Q 34.1875 6.109375 38.703125 11.40625 
Q 43.21875 16.703125 43.21875 25.484375 
L 43.21875 27.484375 
z
M 52.203125 31.203125 
L 52.203125 0 
L 43.21875 0 
L 43.21875 8.296875 
Q 40.140625 3.328125 35.546875 0.953125 
Q 30.953125 -1.421875 24.3125 -1.421875 
Q 15.921875 -1.421875 10.953125 3.296875 
Q 6 8.015625 6 15.921875 
Q 6 25.140625 12.171875 29.828125 
Q 18.359375 34.515625 30.609375 34.515625 
L 43.21875 34.515625 
L 43.21875 35.40625 
Q 43.21875 41.609375 39.140625 45 
Q 35.0625 48.390625 27.6875 48.390625 
Q 23 48.390625 18.546875 47.265625 
Q 14.109375 46.140625 10.015625 43.890625 
L 10.015625 52.203125 
Q 14.9375 54.109375 19.578125 55.046875 
Q 24.21875 56 28.609375 56 
Q 40.484375 56 46.34375 49.84375 
Q 52.203125 43.703125 52.203125 31.203125 
z
" id="DejaVuSans-97"/>
      </defs>
      <use xlink:href="#DejaVuSans-65"/>
      <use x="68.408203" xlink:href="#DejaVuSans-112"/>
      <use x="131.884766" xlink:href="#DejaVuSans-112"/>
      <use x="195.361328" xlink:href="#DejaVuSans-114"/>
      <use x="234.224609" xlink:href="#DejaVuSans-111"/>
      <use x="292.28125" xlink:href="#DejaVuSans-120"/>
      <use x="351.460938" xlink:href="#DejaVuSans-105"/>
      <use x="379.244141" xlink:href="#DejaVuSans-109"/>
      <use x="476.65625" xlink:href="#DejaVuSans-97"/>
      <use x="537.935547" xlink:href="#DejaVuSans-116"/>
      <use x="577.144531" xlink:href="#DejaVuSans-105"/>
      <use x="604.927734" xlink:href="#DejaVuSans-111"/>
      <use x="666.109375" xlink:href="#DejaVuSans-110"/>
     </g>
    </g>
   </g>
  </g>
 </g>
 <defs>
  <clipPath id="p034138e390">
   <rect height="665.28" width="1339.2" x="216" y="103.68"/>
  </clipPath>
 </defs>
</svg>
