<?xml version="1.0" encoding="utf-8" standalone="no"?>
<!DOCTYPE svg PUBLIC "-//W3C//DTD SVG 1.1//EN"
  "http://www.w3.org/Graphics/SVG/1.1/DTD/svg11.dtd">
<!-- Created with matplotlib (https://matplotlib.org/) -->
<svg height="864pt" version="1.1" viewBox="0 0 1728 864" width="1728pt" xmlns="http://www.w3.org/2000/svg" xmlns:xlink="http://www.w3.org/1999/xlink">
 <metadata>
  <rdf:RDF xmlns:cc="http://creativecommons.org/ns#" xmlns:dc="http://purl.org/dc/elements/1.1/" xmlns:rdf="http://www.w3.org/1999/02/22-rdf-syntax-ns#">
   <cc:Work>
    <dc:type rdf:resource="http://purl.org/dc/dcmitype/StillImage"/>
    <dc:date>2020-09-14T14:30:03.548996</dc:date>
    <dc:format>image/svg+xml</dc:format>
    <dc:creator>
     <cc:Agent>
      <dc:title>Matplotlib v3.3.1, https://matplotlib.org/</dc:title>
     </cc:Agent>
    </dc:creator>
   </cc:Work>
  </rdf:RDF>
 </metadata>
 <defs>
  <style type="text/css">*{stroke-linecap:butt;stroke-linejoin:round;}</style>
 </defs>
 <g id="figure_1">
  <g id="patch_1">
   <path d="M 0 864 
L 1728 864 
L 1728 0 
L 0 0 
z
" style="fill:#ffffff;"/>
  </g>
  <g id="axes_1">
   <g id="patch_2">
    <path d="M 216 768.96 
L 1555.2 768.96 
L 1555.2 103.68 
L 216 103.68 
z
" style="fill:#ffffff;"/>
   </g>
   <g id="matplotlib.axis_1">
    <g id="xtick_1">
     <g id="line2d_1">
      <defs>
       <path d="M 0 0 
L 0 3.5 
" id="mdfb6e31a96" style="stroke:#000000;stroke-width:0.8;"/>
      </defs>
      <g>
       <use style="stroke:#000000;stroke-width:0.8;" x="276.872727" xlink:href="#mdfb6e31a96" y="768.96"/>
      </g>
     </g>
     <g id="text_1">
      <!-- 0 -->
      <g transform="translate(273.691477 783.558437)scale(0.1 -0.1)">
       <defs>
        <path d="M 31.78125 66.40625 
Q 24.171875 66.40625 20.328125 58.90625 
Q 16.5 51.421875 16.5 36.375 
Q 16.5 21.390625 20.328125 13.890625 
Q 24.171875 6.390625 31.78125 6.390625 
Q 39.453125 6.390625 43.28125 13.890625 
Q 47.125 21.390625 47.125 36.375 
Q 47.125 51.421875 43.28125 58.90625 
Q 39.453125 66.40625 31.78125 66.40625 
z
M 31.78125 74.21875 
Q 44.046875 74.21875 50.515625 64.515625 
Q 56.984375 54.828125 56.984375 36.375 
Q 56.984375 17.96875 50.515625 8.265625 
Q 44.046875 -1.421875 31.78125 -1.421875 
Q 19.53125 -1.421875 13.0625 8.265625 
Q 6.59375 17.96875 6.59375 36.375 
Q 6.59375 54.828125 13.0625 64.515625 
Q 19.53125 74.21875 31.78125 74.21875 
z
" id="DejaVuSans-48"/>
       </defs>
       <use xlink:href="#DejaVuSans-48"/>
      </g>
     </g>
    </g>
    <g id="xtick_2">
     <g id="line2d_2">
      <g>
       <use style="stroke:#000000;stroke-width:0.8;" x="429.130674" xlink:href="#mdfb6e31a96" y="768.96"/>
      </g>
     </g>
     <g id="text_2">
      <!-- 250 -->
      <g transform="translate(419.586924 783.558437)scale(0.1 -0.1)">
       <defs>
        <path d="M 19.1875 8.296875 
L 53.609375 8.296875 
L 53.609375 0 
L 7.328125 0 
L 7.328125 8.296875 
Q 12.9375 14.109375 22.625 23.890625 
Q 32.328125 33.6875 34.8125 36.53125 
Q 39.546875 41.84375 41.421875 45.53125 
Q 43.3125 49.21875 43.3125 52.78125 
Q 43.3125 58.59375 39.234375 62.25 
Q 35.15625 65.921875 28.609375 65.921875 
Q 23.96875 65.921875 18.8125 64.3125 
Q 13.671875 62.703125 7.8125 59.421875 
L 7.8125 69.390625 
Q 13.765625 71.78125 18.9375 73 
Q 24.125 74.21875 28.421875 74.21875 
Q 39.75 74.21875 46.484375 68.546875 
Q 53.21875 62.890625 53.21875 53.421875 
Q 53.21875 48.921875 51.53125 44.890625 
Q 49.859375 40.875 45.40625 35.40625 
Q 44.1875 33.984375 37.640625 27.21875 
Q 31.109375 20.453125 19.1875 8.296875 
z
" id="DejaVuSans-50"/>
        <path d="M 10.796875 72.90625 
L 49.515625 72.90625 
L 49.515625 64.59375 
L 19.828125 64.59375 
L 19.828125 46.734375 
Q 21.96875 47.46875 24.109375 47.828125 
Q 26.265625 48.1875 28.421875 48.1875 
Q 40.625 48.1875 47.75 41.5 
Q 54.890625 34.8125 54.890625 23.390625 
Q 54.890625 11.625 47.5625 5.09375 
Q 40.234375 -1.421875 26.90625 -1.421875 
Q 22.3125 -1.421875 17.546875 -0.640625 
Q 12.796875 0.140625 7.71875 1.703125 
L 7.71875 11.625 
Q 12.109375 9.234375 16.796875 8.0625 
Q 21.484375 6.890625 26.703125 6.890625 
Q 35.15625 6.890625 40.078125 11.328125 
Q 45.015625 15.765625 45.015625 23.390625 
Q 45.015625 31 40.078125 35.4375 
Q 35.15625 39.890625 26.703125 39.890625 
Q 22.75 39.890625 18.8125 39.015625 
Q 14.890625 38.140625 10.796875 36.28125 
z
" id="DejaVuSans-53"/>
       </defs>
       <use xlink:href="#DejaVuSans-50"/>
       <use x="63.623047" xlink:href="#DejaVuSans-53"/>
       <use x="127.246094" xlink:href="#DejaVuSans-48"/>
      </g>
     </g>
    </g>
    <g id="xtick_3">
     <g id="line2d_3">
      <g>
       <use style="stroke:#000000;stroke-width:0.8;" x="581.388622" xlink:href="#mdfb6e31a96" y="768.96"/>
      </g>
     </g>
     <g id="text_3">
      <!-- 500 -->
      <g transform="translate(571.844872 783.558437)scale(0.1 -0.1)">
       <use xlink:href="#DejaVuSans-53"/>
       <use x="63.623047" xlink:href="#DejaVuSans-48"/>
       <use x="127.246094" xlink:href="#DejaVuSans-48"/>
      </g>
     </g>
    </g>
    <g id="xtick_4">
     <g id="line2d_4">
      <g>
       <use style="stroke:#000000;stroke-width:0.8;" x="733.646569" xlink:href="#mdfb6e31a96" y="768.96"/>
      </g>
     </g>
     <g id="text_4">
      <!-- 750 -->
      <g transform="translate(724.102819 783.558437)scale(0.1 -0.1)">
       <defs>
        <path d="M 8.203125 72.90625 
L 55.078125 72.90625 
L 55.078125 68.703125 
L 28.609375 0 
L 18.3125 0 
L 43.21875 64.59375 
L 8.203125 64.59375 
z
" id="DejaVuSans-55"/>
       </defs>
       <use xlink:href="#DejaVuSans-55"/>
       <use x="63.623047" xlink:href="#DejaVuSans-53"/>
       <use x="127.246094" xlink:href="#DejaVuSans-48"/>
      </g>
     </g>
    </g>
    <g id="xtick_5">
     <g id="line2d_5">
      <g>
       <use style="stroke:#000000;stroke-width:0.8;" x="885.904516" xlink:href="#mdfb6e31a96" y="768.96"/>
      </g>
     </g>
     <g id="text_5">
      <!-- 1000 -->
      <g transform="translate(873.179516 783.558437)scale(0.1 -0.1)">
       <defs>
        <path d="M 12.40625 8.296875 
L 28.515625 8.296875 
L 28.515625 63.921875 
L 10.984375 60.40625 
L 10.984375 69.390625 
L 28.421875 72.90625 
L 38.28125 72.90625 
L 38.28125 8.296875 
L 54.390625 8.296875 
L 54.390625 0 
L 12.40625 0 
z
" id="DejaVuSans-49"/>
       </defs>
       <use xlink:href="#DejaVuSans-49"/>
       <use x="63.623047" xlink:href="#DejaVuSans-48"/>
       <use x="127.246094" xlink:href="#DejaVuSans-48"/>
       <use x="190.869141" xlink:href="#DejaVuSans-48"/>
      </g>
     </g>
    </g>
    <g id="xtick_6">
     <g id="line2d_6">
      <g>
       <use style="stroke:#000000;stroke-width:0.8;" x="1038.162463" xlink:href="#mdfb6e31a96" y="768.96"/>
      </g>
     </g>
     <g id="text_6">
      <!-- 1250 -->
      <g transform="translate(1025.437463 783.558437)scale(0.1 -0.1)">
       <use xlink:href="#DejaVuSans-49"/>
       <use x="63.623047" xlink:href="#DejaVuSans-50"/>
       <use x="127.246094" xlink:href="#DejaVuSans-53"/>
       <use x="190.869141" xlink:href="#DejaVuSans-48"/>
      </g>
     </g>
    </g>
    <g id="xtick_7">
     <g id="line2d_7">
      <g>
       <use style="stroke:#000000;stroke-width:0.8;" x="1190.42041" xlink:href="#mdfb6e31a96" y="768.96"/>
      </g>
     </g>
     <g id="text_7">
      <!-- 1500 -->
      <g transform="translate(1177.69541 783.558437)scale(0.1 -0.1)">
       <use xlink:href="#DejaVuSans-49"/>
       <use x="63.623047" xlink:href="#DejaVuSans-53"/>
       <use x="127.246094" xlink:href="#DejaVuSans-48"/>
       <use x="190.869141" xlink:href="#DejaVuSans-48"/>
      </g>
     </g>
    </g>
    <g id="xtick_8">
     <g id="line2d_8">
      <g>
       <use style="stroke:#000000;stroke-width:0.8;" x="1342.678357" xlink:href="#mdfb6e31a96" y="768.96"/>
      </g>
     </g>
     <g id="text_8">
      <!-- 1750 -->
      <g transform="translate(1329.953357 783.558437)scale(0.1 -0.1)">
       <use xlink:href="#DejaVuSans-49"/>
       <use x="63.623047" xlink:href="#DejaVuSans-55"/>
       <use x="127.246094" xlink:href="#DejaVuSans-53"/>
       <use x="190.869141" xlink:href="#DejaVuSans-48"/>
      </g>
     </g>
    </g>
    <g id="xtick_9">
     <g id="line2d_9">
      <g>
       <use style="stroke:#000000;stroke-width:0.8;" x="1494.936305" xlink:href="#mdfb6e31a96" y="768.96"/>
      </g>
     </g>
     <g id="text_9">
      <!-- 2000 -->
      <g transform="translate(1482.211305 783.558437)scale(0.1 -0.1)">
       <use xlink:href="#DejaVuSans-50"/>
       <use x="63.623047" xlink:href="#DejaVuSans-48"/>
       <use x="127.246094" xlink:href="#DejaVuSans-48"/>
       <use x="190.869141" xlink:href="#DejaVuSans-48"/>
      </g>
     </g>
    </g>
    <g id="text_10">
     <!-- Vector length -->
     <g transform="translate(852.139844 797.236562)scale(0.1 -0.1)">
      <defs>
       <path d="M 28.609375 0 
L 0.78125 72.90625 
L 11.078125 72.90625 
L 34.1875 11.53125 
L 57.328125 72.90625 
L 67.578125 72.90625 
L 39.796875 0 
z
" id="DejaVuSans-86"/>
       <path d="M 56.203125 29.59375 
L 56.203125 25.203125 
L 14.890625 25.203125 
Q 15.484375 15.921875 20.484375 11.0625 
Q 25.484375 6.203125 34.421875 6.203125 
Q 39.59375 6.203125 44.453125 7.46875 
Q 49.3125 8.734375 54.109375 11.28125 
L 54.109375 2.78125 
Q 49.265625 0.734375 44.1875 -0.34375 
Q 39.109375 -1.421875 33.890625 -1.421875 
Q 20.796875 -1.421875 13.15625 6.1875 
Q 5.515625 13.8125 5.515625 26.8125 
Q 5.515625 40.234375 12.765625 48.109375 
Q 20.015625 56 32.328125 56 
Q 43.359375 56 49.78125 48.890625 
Q 56.203125 41.796875 56.203125 29.59375 
z
M 47.21875 32.234375 
Q 47.125 39.59375 43.09375 43.984375 
Q 39.0625 48.390625 32.421875 48.390625 
Q 24.90625 48.390625 20.390625 44.140625 
Q 15.875 39.890625 15.1875 32.171875 
z
" id="DejaVuSans-101"/>
       <path d="M 48.78125 52.59375 
L 48.78125 44.1875 
Q 44.96875 46.296875 41.140625 47.34375 
Q 37.3125 48.390625 33.40625 48.390625 
Q 24.65625 48.390625 19.8125 42.84375 
Q 14.984375 37.3125 14.984375 27.296875 
Q 14.984375 17.28125 19.8125 11.734375 
Q 24.65625 6.203125 33.40625 6.203125 
Q 37.3125 6.203125 41.140625 7.25 
Q 44.96875 8.296875 48.78125 10.40625 
L 48.78125 2.09375 
Q 45.015625 0.34375 40.984375 -0.53125 
Q 36.96875 -1.421875 32.421875 -1.421875 
Q 20.0625 -1.421875 12.78125 6.34375 
Q 5.515625 14.109375 5.515625 27.296875 
Q 5.515625 40.671875 12.859375 48.328125 
Q 20.21875 56 33.015625 56 
Q 37.15625 56 41.109375 55.140625 
Q 45.0625 54.296875 48.78125 52.59375 
z
" id="DejaVuSans-99"/>
       <path d="M 18.3125 70.21875 
L 18.3125 54.6875 
L 36.8125 54.6875 
L 36.8125 47.703125 
L 18.3125 47.703125 
L 18.3125 18.015625 
Q 18.3125 11.328125 20.140625 9.421875 
Q 21.96875 7.515625 27.59375 7.515625 
L 36.8125 7.515625 
L 36.8125 0 
L 27.59375 0 
Q 17.1875 0 13.234375 3.875 
Q 9.28125 7.765625 9.28125 18.015625 
L 9.28125 47.703125 
L 2.6875 47.703125 
L 2.6875 54.6875 
L 9.28125 54.6875 
L 9.28125 70.21875 
z
" id="DejaVuSans-116"/>
       <path d="M 30.609375 48.390625 
Q 23.390625 48.390625 19.1875 42.75 
Q 14.984375 37.109375 14.984375 27.296875 
Q 14.984375 17.484375 19.15625 11.84375 
Q 23.34375 6.203125 30.609375 6.203125 
Q 37.796875 6.203125 41.984375 11.859375 
Q 46.1875 17.53125 46.1875 27.296875 
Q 46.1875 37.015625 41.984375 42.703125 
Q 37.796875 48.390625 30.609375 48.390625 
z
M 30.609375 56 
Q 42.328125 56 49.015625 48.375 
Q 55.71875 40.765625 55.71875 27.296875 
Q 55.71875 13.875 49.015625 6.21875 
Q 42.328125 -1.421875 30.609375 -1.421875 
Q 18.84375 -1.421875 12.171875 6.21875 
Q 5.515625 13.875 5.515625 27.296875 
Q 5.515625 40.765625 12.171875 48.375 
Q 18.84375 56 30.609375 56 
z
" id="DejaVuSans-111"/>
       <path d="M 41.109375 46.296875 
Q 39.59375 47.171875 37.8125 47.578125 
Q 36.03125 48 33.890625 48 
Q 26.265625 48 22.1875 43.046875 
Q 18.109375 38.09375 18.109375 28.8125 
L 18.109375 0 
L 9.078125 0 
L 9.078125 54.6875 
L 18.109375 54.6875 
L 18.109375 46.1875 
Q 20.953125 51.171875 25.484375 53.578125 
Q 30.03125 56 36.53125 56 
Q 37.453125 56 38.578125 55.875 
Q 39.703125 55.765625 41.0625 55.515625 
z
" id="DejaVuSans-114"/>
       <path id="DejaVuSans-32"/>
       <path d="M 9.421875 75.984375 
L 18.40625 75.984375 
L 18.40625 0 
L 9.421875 0 
z
" id="DejaVuSans-108"/>
       <path d="M 54.890625 33.015625 
L 54.890625 0 
L 45.90625 0 
L 45.90625 32.71875 
Q 45.90625 40.484375 42.875 44.328125 
Q 39.84375 48.1875 33.796875 48.1875 
Q 26.515625 48.1875 22.3125 43.546875 
Q 18.109375 38.921875 18.109375 30.90625 
L 18.109375 0 
L 9.078125 0 
L 9.078125 54.6875 
L 18.109375 54.6875 
L 18.109375 46.1875 
Q 21.34375 51.125 25.703125 53.5625 
Q 30.078125 56 35.796875 56 
Q 45.21875 56 50.046875 50.171875 
Q 54.890625 44.34375 54.890625 33.015625 
z
" id="DejaVuSans-110"/>
       <path d="M 45.40625 27.984375 
Q 45.40625 37.75 41.375 43.109375 
Q 37.359375 48.484375 30.078125 48.484375 
Q 22.859375 48.484375 18.828125 43.109375 
Q 14.796875 37.75 14.796875 27.984375 
Q 14.796875 18.265625 18.828125 12.890625 
Q 22.859375 7.515625 30.078125 7.515625 
Q 37.359375 7.515625 41.375 12.890625 
Q 45.40625 18.265625 45.40625 27.984375 
z
M 54.390625 6.78125 
Q 54.390625 -7.171875 48.1875 -13.984375 
Q 42 -20.796875 29.203125 -20.796875 
Q 24.46875 -20.796875 20.265625 -20.09375 
Q 16.0625 -19.390625 12.109375 -17.921875 
L 12.109375 -9.1875 
Q 16.0625 -11.328125 19.921875 -12.34375 
Q 23.78125 -13.375 27.78125 -13.375 
Q 36.625 -13.375 41.015625 -8.765625 
Q 45.40625 -4.15625 45.40625 5.171875 
L 45.40625 9.625 
Q 42.625 4.78125 38.28125 2.390625 
Q 33.9375 0 27.875 0 
Q 17.828125 0 11.671875 7.65625 
Q 5.515625 15.328125 5.515625 27.984375 
Q 5.515625 40.671875 11.671875 48.328125 
Q 17.828125 56 27.875 56 
Q 33.9375 56 38.28125 53.609375 
Q 42.625 51.21875 45.40625 46.390625 
L 45.40625 54.6875 
L 54.390625 54.6875 
z
" id="DejaVuSans-103"/>
       <path d="M 54.890625 33.015625 
L 54.890625 0 
L 45.90625 0 
L 45.90625 32.71875 
Q 45.90625 40.484375 42.875 44.328125 
Q 39.84375 48.1875 33.796875 48.1875 
Q 26.515625 48.1875 22.3125 43.546875 
Q 18.109375 38.921875 18.109375 30.90625 
L 18.109375 0 
L 9.078125 0 
L 9.078125 75.984375 
L 18.109375 75.984375 
L 18.109375 46.1875 
Q 21.34375 51.125 25.703125 53.5625 
Q 30.078125 56 35.796875 56 
Q 45.21875 56 50.046875 50.171875 
Q 54.890625 44.34375 54.890625 33.015625 
z
" id="DejaVuSans-104"/>
      </defs>
      <use xlink:href="#DejaVuSans-86"/>
      <use x="60.658203" xlink:href="#DejaVuSans-101"/>
      <use x="122.181641" xlink:href="#DejaVuSans-99"/>
      <use x="177.162109" xlink:href="#DejaVuSans-116"/>
      <use x="216.371094" xlink:href="#DejaVuSans-111"/>
      <use x="277.552734" xlink:href="#DejaVuSans-114"/>
      <use x="318.666016" xlink:href="#DejaVuSans-32"/>
      <use x="350.453125" xlink:href="#DejaVuSans-108"/>
      <use x="378.236328" xlink:href="#DejaVuSans-101"/>
      <use x="439.759766" xlink:href="#DejaVuSans-110"/>
      <use x="503.138672" xlink:href="#DejaVuSans-103"/>
      <use x="566.615234" xlink:href="#DejaVuSans-116"/>
      <use x="605.824219" xlink:href="#DejaVuSans-104"/>
     </g>
    </g>
   </g>
   <g id="matplotlib.axis_2">
    <g id="ytick_1">
     <g id="line2d_10">
      <defs>
       <path d="M 0 0 
L -3.5 0 
" id="m35a25f638b" style="stroke:#000000;stroke-width:0.8;"/>
      </defs>
      <g>
       <use style="stroke:#000000;stroke-width:0.8;" x="216" xlink:href="#m35a25f638b" y="738.72"/>
      </g>
     </g>
     <g id="text_11">
      <!-- 0.00 -->
      <g transform="translate(186.734375 742.519219)scale(0.1 -0.1)">
       <defs>
        <path d="M 10.6875 12.40625 
L 21 12.40625 
L 21 0 
L 10.6875 0 
z
" id="DejaVuSans-46"/>
       </defs>
       <use xlink:href="#DejaVuSans-48"/>
       <use x="63.623047" xlink:href="#DejaVuSans-46"/>
       <use x="95.410156" xlink:href="#DejaVuSans-48"/>
       <use x="159.033203" xlink:href="#DejaVuSans-48"/>
      </g>
     </g>
    </g>
    <g id="ytick_2">
     <g id="line2d_11">
      <g>
       <use style="stroke:#000000;stroke-width:0.8;" x="216" xlink:href="#m35a25f638b" y="660.571046"/>
      </g>
     </g>
     <g id="text_12">
      <!-- 0.05 -->
      <g transform="translate(186.734375 664.370264)scale(0.1 -0.1)">
       <use xlink:href="#DejaVuSans-48"/>
       <use x="63.623047" xlink:href="#DejaVuSans-46"/>
       <use x="95.410156" xlink:href="#DejaVuSans-48"/>
       <use x="159.033203" xlink:href="#DejaVuSans-53"/>
      </g>
     </g>
    </g>
    <g id="ytick_3">
     <g id="line2d_12">
      <g>
       <use style="stroke:#000000;stroke-width:0.8;" x="216" xlink:href="#m35a25f638b" y="582.422091"/>
      </g>
     </g>
     <g id="text_13">
      <!-- 0.10 -->
      <g transform="translate(186.734375 586.22131)scale(0.1 -0.1)">
       <use xlink:href="#DejaVuSans-48"/>
       <use x="63.623047" xlink:href="#DejaVuSans-46"/>
       <use x="95.410156" xlink:href="#DejaVuSans-49"/>
       <use x="159.033203" xlink:href="#DejaVuSans-48"/>
      </g>
     </g>
    </g>
    <g id="ytick_4">
     <g id="line2d_13">
      <g>
       <use style="stroke:#000000;stroke-width:0.8;" x="216" xlink:href="#m35a25f638b" y="504.273137"/>
      </g>
     </g>
     <g id="text_14">
      <!-- 0.15 -->
      <g transform="translate(186.734375 508.072356)scale(0.1 -0.1)">
       <use xlink:href="#DejaVuSans-48"/>
       <use x="63.623047" xlink:href="#DejaVuSans-46"/>
       <use x="95.410156" xlink:href="#DejaVuSans-49"/>
       <use x="159.033203" xlink:href="#DejaVuSans-53"/>
      </g>
     </g>
    </g>
    <g id="ytick_5">
     <g id="line2d_14">
      <g>
       <use style="stroke:#000000;stroke-width:0.8;" x="216" xlink:href="#m35a25f638b" y="426.124182"/>
      </g>
     </g>
     <g id="text_15">
      <!-- 0.20 -->
      <g transform="translate(186.734375 429.923401)scale(0.1 -0.1)">
       <use xlink:href="#DejaVuSans-48"/>
       <use x="63.623047" xlink:href="#DejaVuSans-46"/>
       <use x="95.410156" xlink:href="#DejaVuSans-50"/>
       <use x="159.033203" xlink:href="#DejaVuSans-48"/>
      </g>
     </g>
    </g>
    <g id="ytick_6">
     <g id="line2d_15">
      <g>
       <use style="stroke:#000000;stroke-width:0.8;" x="216" xlink:href="#m35a25f638b" y="347.975228"/>
      </g>
     </g>
     <g id="text_16">
      <!-- 0.25 -->
      <g transform="translate(186.734375 351.774447)scale(0.1 -0.1)">
       <use xlink:href="#DejaVuSans-48"/>
       <use x="63.623047" xlink:href="#DejaVuSans-46"/>
       <use x="95.410156" xlink:href="#DejaVuSans-50"/>
       <use x="159.033203" xlink:href="#DejaVuSans-53"/>
      </g>
     </g>
    </g>
    <g id="ytick_7">
     <g id="line2d_16">
      <g>
       <use style="stroke:#000000;stroke-width:0.8;" x="216" xlink:href="#m35a25f638b" y="269.826274"/>
      </g>
     </g>
     <g id="text_17">
      <!-- 0.30 -->
      <g transform="translate(186.734375 273.625492)scale(0.1 -0.1)">
       <defs>
        <path d="M 40.578125 39.3125 
Q 47.65625 37.796875 51.625 33 
Q 55.609375 28.21875 55.609375 21.1875 
Q 55.609375 10.40625 48.1875 4.484375 
Q 40.765625 -1.421875 27.09375 -1.421875 
Q 22.515625 -1.421875 17.65625 -0.515625 
Q 12.796875 0.390625 7.625 2.203125 
L 7.625 11.71875 
Q 11.71875 9.328125 16.59375 8.109375 
Q 21.484375 6.890625 26.8125 6.890625 
Q 36.078125 6.890625 40.9375 10.546875 
Q 45.796875 14.203125 45.796875 21.1875 
Q 45.796875 27.640625 41.28125 31.265625 
Q 36.765625 34.90625 28.71875 34.90625 
L 20.21875 34.90625 
L 20.21875 43.015625 
L 29.109375 43.015625 
Q 36.375 43.015625 40.234375 45.921875 
Q 44.09375 48.828125 44.09375 54.296875 
Q 44.09375 59.90625 40.109375 62.90625 
Q 36.140625 65.921875 28.71875 65.921875 
Q 24.65625 65.921875 20.015625 65.03125 
Q 15.375 64.15625 9.8125 62.3125 
L 9.8125 71.09375 
Q 15.4375 72.65625 20.34375 73.4375 
Q 25.25 74.21875 29.59375 74.21875 
Q 40.828125 74.21875 47.359375 69.109375 
Q 53.90625 64.015625 53.90625 55.328125 
Q 53.90625 49.265625 50.4375 45.09375 
Q 46.96875 40.921875 40.578125 39.3125 
z
" id="DejaVuSans-51"/>
       </defs>
       <use xlink:href="#DejaVuSans-48"/>
       <use x="63.623047" xlink:href="#DejaVuSans-46"/>
       <use x="95.410156" xlink:href="#DejaVuSans-51"/>
       <use x="159.033203" xlink:href="#DejaVuSans-48"/>
      </g>
     </g>
    </g>
    <g id="ytick_8">
     <g id="line2d_17">
      <g>
       <use style="stroke:#000000;stroke-width:0.8;" x="216" xlink:href="#m35a25f638b" y="191.677319"/>
      </g>
     </g>
     <g id="text_18">
      <!-- 0.35 -->
      <g transform="translate(186.734375 195.476538)scale(0.1 -0.1)">
       <use xlink:href="#DejaVuSans-48"/>
       <use x="63.623047" xlink:href="#DejaVuSans-46"/>
       <use x="95.410156" xlink:href="#DejaVuSans-51"/>
       <use x="159.033203" xlink:href="#DejaVuSans-53"/>
      </g>
     </g>
    </g>
    <g id="ytick_9">
     <g id="line2d_18">
      <g>
       <use style="stroke:#000000;stroke-width:0.8;" x="216" xlink:href="#m35a25f638b" y="113.528365"/>
      </g>
     </g>
     <g id="text_19">
      <!-- 0.40 -->
      <g transform="translate(186.734375 117.327584)scale(0.1 -0.1)">
       <defs>
        <path d="M 37.796875 64.3125 
L 12.890625 25.390625 
L 37.796875 25.390625 
z
M 35.203125 72.90625 
L 47.609375 72.90625 
L 47.609375 25.390625 
L 58.015625 25.390625 
L 58.015625 17.1875 
L 47.609375 17.1875 
L 47.609375 0 
L 37.796875 0 
L 37.796875 17.1875 
L 4.890625 17.1875 
L 4.890625 26.703125 
z
" id="DejaVuSans-52"/>
       </defs>
       <use xlink:href="#DejaVuSans-48"/>
       <use x="63.623047" xlink:href="#DejaVuSans-46"/>
       <use x="95.410156" xlink:href="#DejaVuSans-52"/>
       <use x="159.033203" xlink:href="#DejaVuSans-48"/>
      </g>
     </g>
    </g>
    <g id="text_20">
     <!-- Time, ms -->
     <g transform="translate(180.654687 459.206719)rotate(-90)scale(0.1 -0.1)">
      <defs>
       <path d="M -0.296875 72.90625 
L 61.375 72.90625 
L 61.375 64.59375 
L 35.5 64.59375 
L 35.5 0 
L 25.59375 0 
L 25.59375 64.59375 
L -0.296875 64.59375 
z
" id="DejaVuSans-84"/>
       <path d="M 9.421875 54.6875 
L 18.40625 54.6875 
L 18.40625 0 
L 9.421875 0 
z
M 9.421875 75.984375 
L 18.40625 75.984375 
L 18.40625 64.59375 
L 9.421875 64.59375 
z
" id="DejaVuSans-105"/>
       <path d="M 52 44.1875 
Q 55.375 50.25 60.0625 53.125 
Q 64.75 56 71.09375 56 
Q 79.640625 56 84.28125 50.015625 
Q 88.921875 44.046875 88.921875 33.015625 
L 88.921875 0 
L 79.890625 0 
L 79.890625 32.71875 
Q 79.890625 40.578125 77.09375 44.375 
Q 74.3125 48.1875 68.609375 48.1875 
Q 61.625 48.1875 57.5625 43.546875 
Q 53.515625 38.921875 53.515625 30.90625 
L 53.515625 0 
L 44.484375 0 
L 44.484375 32.71875 
Q 44.484375 40.625 41.703125 44.40625 
Q 38.921875 48.1875 33.109375 48.1875 
Q 26.21875 48.1875 22.15625 43.53125 
Q 18.109375 38.875 18.109375 30.90625 
L 18.109375 0 
L 9.078125 0 
L 9.078125 54.6875 
L 18.109375 54.6875 
L 18.109375 46.1875 
Q 21.1875 51.21875 25.484375 53.609375 
Q 29.78125 56 35.6875 56 
Q 41.65625 56 45.828125 52.96875 
Q 50 49.953125 52 44.1875 
z
" id="DejaVuSans-109"/>
       <path d="M 11.71875 12.40625 
L 22.015625 12.40625 
L 22.015625 4 
L 14.015625 -11.625 
L 7.71875 -11.625 
L 11.71875 4 
z
" id="DejaVuSans-44"/>
       <path d="M 44.28125 53.078125 
L 44.28125 44.578125 
Q 40.484375 46.53125 36.375 47.5 
Q 32.28125 48.484375 27.875 48.484375 
Q 21.1875 48.484375 17.84375 46.4375 
Q 14.5 44.390625 14.5 40.28125 
Q 14.5 37.15625 16.890625 35.375 
Q 19.28125 33.59375 26.515625 31.984375 
L 29.59375 31.296875 
Q 39.15625 29.25 43.1875 25.515625 
Q 47.21875 21.78125 47.21875 15.09375 
Q 47.21875 7.46875 41.1875 3.015625 
Q 35.15625 -1.421875 24.609375 -1.421875 
Q 20.21875 -1.421875 15.453125 -0.5625 
Q 10.6875 0.296875 5.421875 2 
L 5.421875 11.28125 
Q 10.40625 8.6875 15.234375 7.390625 
Q 20.0625 6.109375 24.8125 6.109375 
Q 31.15625 6.109375 34.5625 8.28125 
Q 37.984375 10.453125 37.984375 14.40625 
Q 37.984375 18.0625 35.515625 20.015625 
Q 33.0625 21.96875 24.703125 23.78125 
L 21.578125 24.515625 
Q 13.234375 26.265625 9.515625 29.90625 
Q 5.8125 33.546875 5.8125 39.890625 
Q 5.8125 47.609375 11.28125 51.796875 
Q 16.75 56 26.8125 56 
Q 31.78125 56 36.171875 55.265625 
Q 40.578125 54.546875 44.28125 53.078125 
z
" id="DejaVuSans-115"/>
      </defs>
      <use xlink:href="#DejaVuSans-84"/>
      <use x="57.958984" xlink:href="#DejaVuSans-105"/>
      <use x="85.742188" xlink:href="#DejaVuSans-109"/>
      <use x="183.154297" xlink:href="#DejaVuSans-101"/>
      <use x="244.677734" xlink:href="#DejaVuSans-44"/>
      <use x="276.464844" xlink:href="#DejaVuSans-32"/>
      <use x="308.251953" xlink:href="#DejaVuSans-109"/>
      <use x="405.664062" xlink:href="#DejaVuSans-115"/>
     </g>
    </g>
   </g>
   <g id="line2d_19">
    <path clip-path="url(#p3ccfbfeb5b)" d="M 276.872727 738.72 
L 277.481759 738.72 
L 278.090791 737.229427 
L 278.699823 736.856784 
L 279.308854 737.229427 
L 279.917886 737.229427 
L 280.526918 738.72 
L 281.13595 736.856784 
L 281.744982 736.856784 
L 282.354013 737.229427 
L 282.963045 736.856784 
L 283.572077 737.229427 
L 284.181109 737.229427 
L 284.790141 736.856784 
L 285.399172 737.229427 
L 286.008204 736.856784 
L 286.617236 738.72 
L 287.226268 737.60207 
L 287.835299 737.229427 
L 288.444331 738.72 
L 289.053363 736.856784 
L 289.662395 737.229427 
L 290.880458 737.229427 
L 291.48949 735.738854 
L 292.098522 737.229427 
L 293.316586 737.229427 
L 293.925617 735.366211 
L 294.534649 737.60207 
L 295.143681 737.229427 
L 295.752713 737.229427 
L 296.361745 735.738854 
L 297.579808 735.738854 
L 298.18884 735.366211 
L 298.797872 736.856784 
L 299.406903 735.738854 
L 300.015935 736.111497 
L 300.624967 735.366211 
L 301.843031 735.366211 
L 302.452062 736.856784 
L 303.061094 735.738854 
L 303.670126 735.366211 
L 304.279158 735.366211 
L 304.88819 735.738854 
L 305.497221 735.366211 
L 306.106253 735.738854 
L 306.715285 735.366211 
L 307.324317 735.738854 
L 307.933348 735.366211 
L 308.54238 735.366211 
L 309.151412 735.738854 
L 311.587539 735.738854 
L 312.196571 733.875638 
L 312.805603 735.738854 
L 313.414635 735.738854 
L 314.023666 736.111497 
L 314.632698 735.366211 
L 315.24173 734.248281 
L 315.850762 733.875638 
L 316.459794 735.366211 
L 317.068825 735.366211 
L 317.677857 733.875638 
L 318.286889 733.875638 
L 318.895921 735.366211 
L 319.504952 733.875638 
L 320.723016 733.875638 
L 321.332048 734.248281 
L 321.94108 733.875638 
L 322.550111 733.875638 
L 323.159143 732.385065 
L 323.768175 732.385065 
L 324.377207 733.875638 
L 324.986239 733.875638 
L 325.59527 732.012421 
L 326.204302 733.875638 
L 326.813334 732.012421 
L 327.422366 733.875638 
L 328.031398 733.875638 
L 328.640429 732.757708 
L 329.249461 732.757708 
L 329.858493 734.620924 
L 330.467525 733.875638 
L 331.076556 732.385065 
L 331.685588 734.248281 
L 332.29462 734.248281 
L 332.903652 732.385065 
L 333.512684 732.385065 
L 334.121715 732.757708 
L 334.730747 732.757708 
L 335.339779 733.875638 
L 335.948811 734.248281 
L 336.557843 732.385065 
L 337.166874 732.385065 
L 337.775906 732.012421 
L 338.384938 733.875638 
L 338.99397 732.385065 
L 339.603002 733.875638 
L 340.212033 732.757708 
L 340.821065 732.385065 
L 341.430097 732.757708 
L 342.039129 730.894492 
L 342.64816 732.012421 
L 343.257192 732.757708 
L 343.866224 730.894492 
L 344.475256 732.385065 
L 345.084288 730.894492 
L 345.693319 730.521848 
L 346.302351 730.894492 
L 346.911383 730.521848 
L 347.520415 730.521848 
L 348.129447 731.267135 
L 348.738478 730.521848 
L 349.34751 732.385065 
L 349.956542 730.521848 
L 350.565574 731.267135 
L 351.174605 730.521848 
L 352.392669 731.267135 
L 353.001701 730.521848 
L 353.610733 730.894492 
L 354.828796 730.894492 
L 355.437828 731.267135 
L 356.04686 730.894492 
L 356.655892 730.894492 
L 357.264923 730.521848 
L 357.873955 730.894492 
L 358.482987 730.894492 
L 359.092019 731.267135 
L 359.701051 730.894492 
L 360.310082 730.894492 
L 360.919114 730.521848 
L 361.528146 731.267135 
L 362.137178 730.521848 
L 362.746209 730.894492 
L 363.355241 730.521848 
L 363.964273 729.403919 
L 364.573305 731.267135 
L 365.791368 731.267135 
L 366.4004 730.894492 
L 367.009432 729.776562 
L 367.618464 729.403919 
L 368.227496 729.403919 
L 368.836527 730.894492 
L 369.445559 729.031275 
L 370.054591 729.031275 
L 370.663623 729.403919 
L 371.272655 729.031275 
L 371.881686 729.776562 
L 372.490718 729.031275 
L 373.09975 729.403919 
L 376.753941 729.403919 
L 377.362972 727.913346 
L 377.972004 729.776562 
L 378.581036 727.913346 
L 379.190068 729.031275 
L 379.7991 729.031275 
L 380.408131 727.913346 
L 381.017163 727.913346 
L 381.626195 705.927394 
L 382.235227 727.540702 
L 382.844258 726.422773 
L 383.45329 729.031275 
L 384.062322 729.031275 
L 384.671354 727.913346 
L 385.280386 729.031275 
L 385.889417 729.776562 
L 386.498449 729.403919 
L 387.107481 729.776562 
L 387.716513 727.913346 
L 388.325545 727.913346 
L 388.934576 729.031275 
L 389.543608 727.540702 
L 391.370704 727.540702 
L 391.979735 727.913346 
L 392.588767 727.540702 
L 393.197799 727.913346 
L 395.024894 727.913346 
L 395.633926 726.422773 
L 396.242958 726.050129 
L 396.85199 727.540702 
L 397.461021 727.913346 
L 398.070053 727.540702 
L 398.679085 726.422773 
L 399.288117 726.050129 
L 399.897149 727.540702 
L 400.50618 726.422773 
L 401.115212 727.913346 
L 401.724244 726.422773 
L 402.333276 727.913346 
L 402.942308 726.050129 
L 403.551339 727.913346 
L 404.160371 726.422773 
L 405.378435 726.422773 
L 405.987466 727.913346 
L 406.596498 724.9322 
L 407.20553 726.422773 
L 407.814562 726.050129 
L 408.423594 726.422773 
L 409.032625 726.422773 
L 409.641657 726.050129 
L 410.859721 726.050129 
L 411.468753 724.559556 
L 412.077784 724.559556 
L 412.686816 726.050129 
L 413.295848 724.559556 
L 413.90488 726.050129 
L 414.513912 724.186913 
L 415.122943 726.050129 
L 415.731975 726.050129 
L 416.341007 724.559556 
L 416.950039 724.559556 
L 417.55907 726.050129 
L 418.168102 724.9322 
L 419.386166 724.9322 
L 419.995198 726.422773 
L 420.604229 725.677486 
L 421.213261 726.422773 
L 422.431325 724.9322 
L 423.040357 724.559556 
L 423.649388 725.677486 
L 424.25842 724.559556 
L 424.867452 724.9322 
L 425.476484 726.422773 
L 426.085515 724.559556 
L 426.694547 724.9322 
L 427.303579 702.946248 
L 427.912611 726.050129 
L 428.521643 724.186913 
L 429.130674 724.9322 
L 429.739706 724.559556 
L 430.348738 724.559556 
L 430.95777 724.9322 
L 431.566802 724.559556 
L 432.175833 724.9322 
L 432.784865 723.068983 
L 433.393897 724.559556 
L 434.002929 724.559556 
L 434.611961 722.69634 
L 435.220992 723.441627 
L 435.830024 723.068983 
L 436.439056 721.57841 
L 437.048088 723.068983 
L 438.266151 723.068983 
L 438.875183 724.186913 
L 439.484215 721.57841 
L 440.093247 723.068983 
L 441.31131 720.087837 
L 441.920342 720.087837 
L 442.529374 718.597264 
L 443.138406 718.597264 
L 443.747437 713.380259 
L 444.356469 720.087837 
L 444.965501 723.068983 
L 445.574533 723.068983 
L 446.183565 721.57841 
L 446.792596 721.205767 
L 447.401628 723.068983 
L 448.619692 723.068983 
L 449.228723 693.257523 
L 449.837755 723.068983 
L 450.446787 721.57841 
L 451.055819 723.068983 
L 452.273882 723.068983 
L 452.882914 721.57841 
L 453.491946 721.57841 
L 454.100978 723.068983 
L 454.71001 723.068983 
L 455.319041 721.57841 
L 455.928073 721.57841 
L 456.537105 629.535527 
L 457.146137 721.57841 
L 457.755168 723.068983 
L 458.3642 721.57841 
L 459.582264 721.57841 
L 460.191296 719.715194 
L 460.800327 723.068983 
L 461.409359 721.205767 
L 462.018391 721.57841 
L 463.236455 721.57841 
L 463.845486 721.205767 
L 464.454518 721.57841 
L 465.06355 721.57841 
L 465.672582 721.205767 
L 466.281614 721.57841 
L 466.890645 719.715194 
L 467.499677 719.715194 
L 468.108709 721.57841 
L 468.717741 721.57841 
L 469.326772 719.715194 
L 469.935804 721.57841 
L 471.7629 721.57841 
L 472.371931 720.087837 
L 472.980963 721.57841 
L 473.589995 720.087837 
L 474.199027 721.57841 
L 474.808059 720.087837 
L 475.41709 719.715194 
L 476.026122 718.224621 
L 476.635154 721.57841 
L 477.244186 718.224621 
L 477.853218 719.715194 
L 478.462249 720.087837 
L 479.071281 720.087837 
L 479.680313 721.57841 
L 480.289345 720.087837 
L 480.898376 719.715194 
L 482.725472 719.715194 
L 483.334504 720.087837 
L 483.943535 719.715194 
L 484.552567 720.087837 
L 485.161599 719.715194 
L 485.770631 720.087837 
L 486.379663 720.087837 
L 486.988694 720.460481 
L 487.597726 720.087837 
L 488.206758 718.224621 
L 488.81579 719.715194 
L 489.424822 720.087837 
L 490.033853 718.597264 
L 490.642885 718.224621 
L 491.251917 718.597264 
L 491.860949 718.224621 
L 492.46998 719.715194 
L 493.079012 718.597264 
L 493.688044 718.597264 
L 494.297076 720.087837 
L 494.906108 718.224621 
L 495.515139 718.224621 
L 496.124171 718.597264 
L 496.733203 719.715194 
L 497.951267 718.224621 
L 498.560298 718.224621 
L 499.778362 718.969908 
L 500.387394 718.597264 
L 500.996425 719.715194 
L 501.605457 718.597264 
L 502.214489 716.734048 
L 502.823521 718.224621 
L 503.432553 716.734048 
L 504.041584 718.224621 
L 504.650616 718.597264 
L 505.259648 718.224621 
L 505.86868 720.087837 
L 506.477712 720.087837 
L 507.086743 718.969908 
L 508.304807 718.224621 
L 509.522871 718.224621 
L 510.131902 718.597264 
L 510.740934 719.715194 
L 511.349966 718.224621 
L 511.958998 718.224621 
L 512.568029 716.734048 
L 513.177061 718.224621 
L 513.786093 718.597264 
L 514.395125 718.224621 
L 515.004157 718.597264 
L 515.613188 718.224621 
L 516.22222 718.969908 
L 516.831252 717.106691 
L 517.440284 716.734048 
L 518.049316 717.106691 
L 518.658347 715.243475 
L 519.267379 716.734048 
L 519.876411 716.734048 
L 520.485443 717.106691 
L 521.094475 716.734048 
L 521.703506 717.106691 
L 522.312538 716.734048 
L 523.530602 717.479335 
L 524.139633 717.479335 
L 524.748665 716.734048 
L 525.357697 716.734048 
L 525.966729 695.120739 
L 526.575761 695.120739 
L 527.184792 718.224621 
L 527.793824 716.734048 
L 528.402856 685.804658 
L 529.011888 716.734048 
L 529.62092 715.616118 
L 530.229951 714.870832 
L 530.838983 716.734048 
L 532.057047 713.752902 
L 532.666078 717.106691 
L 533.27511 715.243475 
L 533.884142 716.734048 
L 534.493174 717.106691 
L 535.102206 716.734048 
L 535.711237 716.734048 
L 536.320269 717.106691 
L 536.929301 715.616118 
L 537.538333 714.870832 
L 538.147365 715.616118 
L 538.756396 715.243475 
L 539.365428 716.734048 
L 539.97446 717.106691 
L 540.583492 715.243475 
L 541.192524 693.630166 
L 541.801555 715.616118 
L 542.410587 714.870832 
L 543.019619 715.243475 
L 543.628651 715.243475 
L 544.237682 713.380259 
L 544.846714 713.752902 
L 545.455746 669.780998 
L 546.064778 713.380259 
L 546.67381 682.823512 
L 547.282841 713.752902 
L 547.891873 715.243475 
L 548.500905 713.752902 
L 549.109937 715.616118 
L 549.718969 713.752902 
L 550.328 714.125545 
L 550.937032 713.752902 
L 551.546064 712.262329 
L 552.155096 711.889686 
L 552.764128 713.752902 
L 553.373159 713.752902 
L 553.982191 712.262329 
L 554.591223 711.889686 
L 555.200255 710.771756 
L 555.809286 711.889686 
L 557.02735 711.889686 
L 557.636382 713.752902 
L 558.854445 710.771756 
L 559.463477 710.399113 
L 560.072509 712.262329 
L 560.681541 712.262329 
L 561.290573 711.889686 
L 561.899604 712.262329 
L 562.508636 711.889686 
L 563.117668 710.771756 
L 564.335732 710.771756 
L 564.944763 709.281183 
L 565.553795 708.90854 
L 566.162827 710.399113 
L 566.771859 710.399113 
L 567.989922 707.417967 
L 568.598954 712.262329 
L 569.207986 710.02647 
L 569.817018 710.771756 
L 571.035081 710.771756 
L 571.644113 708.90854 
L 572.253145 708.535896 
L 572.862177 710.771756 
L 573.471208 710.399113 
L 574.08024 709.281183 
L 574.689272 710.771756 
L 575.298304 708.535896 
L 575.907335 707.045323 
L 576.516367 708.90854 
L 577.125399 710.399113 
L 577.734431 710.771756 
L 578.343463 705.927394 
L 578.952494 707.417967 
L 579.561526 710.399113 
L 580.170558 709.281183 
L 580.77959 705.927394 
L 581.388622 707.417967 
L 583.215717 707.417967 
L 583.824749 707.79061 
L 584.433781 709.281183 
L 585.042812 705.927394 
L 585.651844 710.771756 
L 586.260876 708.90854 
L 586.869908 707.417967 
L 587.478939 707.79061 
L 588.087971 707.045323 
L 588.697003 707.045323 
L 589.306035 708.90854 
L 589.915067 705.55475 
L 590.524098 705.927394 
L 591.13313 705.927394 
L 591.742162 707.417967 
L 592.351194 705.927394 
L 592.960226 709.281183 
L 593.569257 710.399113 
L 594.178289 709.281183 
L 594.787321 709.281183 
L 595.396353 707.045323 
L 596.005385 707.79061 
L 596.614416 705.927394 
L 597.223448 707.417967 
L 597.83248 707.045323 
L 598.441512 705.927394 
L 599.050543 707.417967 
L 599.659575 704.064177 
L 600.268607 709.281183 
L 600.877639 707.045323 
L 601.486671 707.417967 
L 602.095702 708.90854 
L 602.704734 708.90854 
L 603.313766 705.927394 
L 603.922798 708.90854 
L 604.53183 705.927394 
L 605.140861 707.417967 
L 605.749893 707.417967 
L 606.358925 705.55475 
L 606.967957 707.79061 
L 607.576988 708.90854 
L 608.18602 710.771756 
L 609.404084 710.771756 
L 610.013116 709.281183 
L 610.622147 708.535896 
L 611.231179 710.771756 
L 611.840211 709.281183 
L 612.449243 708.535896 
L 613.058275 708.90854 
L 613.667306 707.417967 
L 614.276338 707.417967 
L 614.88537 709.281183 
L 615.494402 705.927394 
L 616.103434 709.281183 
L 616.712465 707.417967 
L 617.321497 707.417967 
L 617.930529 705.927394 
L 618.539561 707.417967 
L 619.148592 705.55475 
L 619.757624 707.417967 
L 620.366656 705.927394 
L 620.975688 705.927394 
L 621.58472 707.417967 
L 622.193751 705.927394 
L 624.629879 705.927394 
L 625.23891 702.946248 
L 625.847942 702.946248 
L 627.066006 705.927394 
L 628.284069 705.927394 
L 628.893101 704.064177 
L 629.502133 702.946248 
L 630.111165 704.436821 
L 630.720196 704.064177 
L 631.329228 704.436821 
L 633.765355 704.436821 
L 634.374387 705.927394 
L 634.983419 704.064177 
L 635.592451 704.064177 
L 636.201483 704.436821 
L 636.810514 702.946248 
L 637.419546 702.573604 
L 638.028578 702.573604 
L 638.63761 704.436821 
L 639.855673 704.436821 
L 640.464705 701.083031 
L 641.073737 704.064177 
L 641.682769 702.573604 
L 642.2918 702.946248 
L 642.900832 704.436821 
L 643.509864 702.946248 
L 644.118896 704.436821 
L 644.727928 701.455675 
L 645.336959 702.573604 
L 645.945991 701.083031 
L 646.555023 702.946248 
L 647.164055 702.946248 
L 647.773087 702.573604 
L 648.382118 702.946248 
L 648.99115 702.946248 
L 649.600182 704.064177 
L 650.209214 702.573604 
L 650.818245 702.946248 
L 651.427277 702.946248 
L 652.036309 701.083031 
L 652.645341 701.083031 
L 653.254373 701.455675 
L 653.863404 702.946248 
L 654.472436 702.573604 
L 655.081468 701.455675 
L 656.299532 701.455675 
L 656.908563 701.083031 
L 657.517595 701.083031 
L 658.126627 701.455675 
L 658.735659 702.573604 
L 659.344691 701.083031 
L 659.953722 702.573604 
L 660.562754 701.455675 
L 661.171786 701.455675 
L 661.780818 702.573604 
L 662.389849 704.436821 
L 662.998881 702.573604 
L 663.607913 701.083031 
L 664.216945 702.573604 
L 664.825977 701.083031 
L 665.435008 702.573604 
L 666.04404 701.083031 
L 666.653072 701.455675 
L 667.262104 701.083031 
L 667.871136 701.455675 
L 668.480167 701.083031 
L 669.089199 699.592458 
L 669.698231 699.592458 
L 670.307263 698.474529 
L 670.916295 699.592458 
L 671.525326 699.219815 
L 672.134358 699.965102 
L 672.74339 701.083031 
L 673.352422 701.083031 
L 673.961453 699.592458 
L 674.570485 699.965102 
L 675.179517 701.083031 
L 675.788549 699.592458 
L 676.397581 701.083031 
L 677.006612 701.083031 
L 677.615644 699.965102 
L 678.224676 701.083031 
L 678.833708 699.592458 
L 679.44274 701.083031 
L 680.051771 701.083031 
L 680.660803 699.219815 
L 681.269835 698.474529 
L 681.878867 699.219815 
L 682.487898 698.474529 
L 683.09693 699.592458 
L 683.705962 698.101885 
L 684.314994 699.592458 
L 684.924026 699.592458 
L 685.533057 698.101885 
L 686.142089 698.101885 
L 686.751121 699.592458 
L 687.360153 698.101885 
L 687.969185 699.592458 
L 688.578216 701.455675 
L 689.187248 699.592458 
L 690.405312 699.592458 
L 691.014344 693.630166 
L 691.623375 694.748096 
L 692.232407 695.120739 
L 692.841439 697.729242 
L 693.450471 680.587652 
L 694.059502 595.997634 
L 694.668534 702.573604 
L 695.277566 692.139593 
L 695.886598 612.393937 
L 696.49563 585.563623 
L 697.104661 701.083031 
L 698.322725 638.851608 
L 698.931757 677.97915 
L 699.540789 648.167689 
L 700.14982 693.257523 
L 700.758852 699.592458 
L 701.367884 699.965102 
L 701.976916 696.238669 
L 702.585948 635.870462 
L 703.194979 698.101885 
L 703.804011 496.501885 
L 704.413043 602.705213 
L 705.022075 596.742921 
L 705.631106 690.276377 
L 706.240138 685.432015 
L 706.84917 696.611312 
L 707.458202 623.200591 
L 708.067234 597.86085 
L 708.676265 665.309279 
L 709.285297 697.729242 
L 709.894329 683.568799 
L 710.503361 682.078226 
L 711.112393 696.238669 
L 711.721424 698.474529 
L 712.330456 696.238669 
L 712.939488 697.729242 
L 713.54852 699.965102 
L 714.157552 688.785804 
L 714.766583 688.785804 
L 715.375615 693.257523 
L 715.984647 685.432015 
L 716.593679 686.922588 
L 717.20271 694.748096 
L 717.811742 695.120739 
L 718.420774 695.120739 
L 719.029806 687.295231 
L 719.638838 688.413161 
L 720.247869 695.120739 
L 720.856901 697.729242 
L 721.465933 695.120739 
L 722.074965 696.983956 
L 722.683997 688.785804 
L 723.293028 688.785804 
L 723.90206 696.238669 
L 724.511092 696.611312 
L 725.120124 695.120739 
L 725.729155 695.120739 
L 726.338187 694.748096 
L 726.947219 688.785804 
L 727.556251 692.139593 
L 728.165283 693.257523 
L 728.774314 685.432015 
L 729.383346 685.804658 
L 729.992378 696.611312 
L 730.60141 694.748096 
L 731.210442 695.120739 
L 731.819473 694.748096 
L 732.428505 696.238669 
L 733.037537 693.257523 
L 733.646569 695.120739 
L 734.864632 695.120739 
L 735.473664 686.922588 
L 736.082696 690.276377 
L 736.691728 695.120739 
L 737.300759 683.941442 
L 737.909791 690.276377 
L 739.127855 696.611312 
L 739.736887 693.630166 
L 740.345918 655.620555 
L 740.95495 695.120739 
L 741.563982 693.630166 
L 742.173014 695.120739 
L 743.391077 685.432015 
L 744.000109 690.276377 
L 744.609141 685.804658 
L 745.218173 687.295231 
L 745.827205 694.748096 
L 746.436236 695.120739 
L 747.045268 693.257523 
L 747.6543 693.630166 
L 748.263332 693.257523 
L 748.872363 682.450869 
L 749.481395 677.97915 
L 750.090427 693.630166 
L 750.699459 682.823512 
L 751.308491 688.413161 
L 751.917522 692.139593 
L 752.526554 692.139593 
L 753.135586 693.257523 
L 753.744618 693.257523 
L 754.35365 660.83756 
L 754.962681 694.748096 
L 755.571713 693.630166 
L 756.180745 693.257523 
L 756.789777 683.941442 
L 757.398808 692.139593 
L 758.00784 695.120739 
L 759.225904 682.450869 
L 759.834936 693.257523 
L 761.052999 693.257523 
L 761.662031 692.139593 
L 762.271063 691.76695 
L 762.880095 682.078226 
L 763.489126 686.922588 
L 764.098158 688.413161 
L 764.70719 685.804658 
L 765.316222 690.64902 
L 765.925254 693.630166 
L 766.534285 693.630166 
L 767.143317 694.748096 
L 767.752349 695.120739 
L 768.361381 694.748096 
L 768.970412 648.167689 
L 769.579444 691.76695 
L 770.188476 683.941442 
L 770.797508 680.587652 
L 771.40654 693.257523 
L 772.015571 685.432015 
L 772.624603 685.804658 
L 773.233635 693.630166 
L 773.842667 693.630166 
L 774.451699 690.276377 
L 775.06073 688.785804 
L 775.669762 691.76695 
L 776.278794 679.097079 
L 776.887826 686.922588 
L 777.496858 685.432015 
L 778.105889 681.332939 
L 778.714921 690.276377 
L 779.323953 690.276377 
L 779.932985 657.483771 
L 780.542016 690.276377 
L 781.151048 690.276377 
L 781.76008 648.540333 
L 782.369112 682.078226 
L 782.978144 688.785804 
L 783.587175 690.276377 
L 784.196207 680.587652 
L 784.805239 677.97915 
L 785.414271 690.276377 
L 786.023303 683.941442 
L 786.632334 685.432015 
L 787.241366 691.394307 
L 787.850398 687.295231 
L 788.45943 685.804658 
L 789.068462 687.295231 
L 789.677493 684.314085 
L 790.286525 688.785804 
L 790.895557 691.76695 
L 791.504589 688.785804 
L 792.722652 679.097079 
L 793.331684 687.295231 
L 793.940716 688.785804 
L 794.549748 688.785804 
L 795.158779 682.450869 
L 795.767811 685.432015 
L 796.376843 677.606506 
L 796.985875 684.314085 
L 797.594907 683.941442 
L 798.203938 690.276377 
L 798.81297 690.276377 
L 799.422002 690.64902 
L 800.031034 687.295231 
L 800.640065 662.328133 
L 801.249097 684.314085 
L 801.858129 674.62536 
L 802.467161 683.941442 
L 803.076193 676.488577 
L 803.685224 674.62536 
L 804.294256 679.469723 
L 804.903288 676.488577 
L 805.51232 679.097079 
L 806.121352 673.134787 
L 806.730383 657.483771 
L 807.339415 687.295231 
L 807.948447 688.785804 
L 808.557479 687.295231 
L 809.166511 667.172495 
L 809.775542 685.432015 
L 810.384574 679.469723 
L 810.993606 676.488577 
L 811.602638 677.606506 
L 812.211669 674.62536 
L 812.820701 624.691165 
L 813.429733 658.974344 
L 814.038765 654.502625 
L 814.647797 685.432015 
L 815.256828 686.922588 
L 815.86586 676.488577 
L 816.474892 679.097079 
L 817.083924 687.295231 
L 817.692956 682.078226 
L 818.301987 683.941442 
L 818.911019 684.314085 
L 819.520051 673.134787 
L 820.129083 683.568799 
L 820.738115 673.134787 
L 821.347146 680.960296 
L 821.956178 683.941442 
L 822.56521 682.078226 
L 823.174242 685.432015 
L 823.783273 686.922588 
L 824.392305 685.432015 
L 825.610369 668.290425 
L 826.219401 681.332939 
L 826.828432 674.252717 
L 827.437464 684.314085 
L 828.046496 685.432015 
L 828.655528 687.295231 
L 829.26456 686.922588 
L 829.873591 683.941442 
L 830.482623 679.469723 
L 831.091655 676.488577 
L 831.700687 685.432015 
L 832.309718 673.134787 
L 832.91875 683.941442 
L 833.527782 686.922588 
L 834.136814 680.960296 
L 834.745846 685.432015 
L 835.354877 682.823512 
L 835.963909 686.177301 
L 836.572941 671.644214 
L 837.181973 680.587652 
L 837.791005 673.134787 
L 838.400036 682.450869 
L 839.009068 680.587652 
L 839.6181 685.804658 
L 840.227132 685.804658 
L 840.836164 683.941442 
L 841.445195 680.587652 
L 842.054227 624.318521 
L 842.663259 685.804658 
L 843.272291 666.799852 
L 843.881322 680.960296 
L 844.490354 671.271571 
L 845.099386 677.97915 
L 845.708418 676.488577 
L 846.31745 647.795046 
L 846.926481 682.823512 
L 847.535513 650.776192 
L 848.144545 680.587652 
L 848.753577 677.97915 
L 849.362609 661.95549 
L 849.97164 679.097079 
L 850.580672 673.134787 
L 851.189704 679.469723 
L 851.798736 680.960296 
L 852.407768 680.587652 
L 853.016799 674.252717 
L 853.625831 672.762144 
L 854.234863 682.823512 
L 854.843895 662.328133 
L 855.452926 679.469723 
L 856.061958 680.960296 
L 856.67099 684.314085 
L 857.280022 680.960296 
L 857.889054 662.328133 
L 858.498085 682.823512 
L 859.107117 682.450869 
L 859.716149 682.823512 
L 860.325181 671.644214 
L 860.934213 677.606506 
L 861.543244 672.762144 
L 862.152276 679.097079 
L 862.761308 683.941442 
L 863.979372 674.62536 
L 864.588403 674.62536 
L 865.197435 676.115933 
L 865.806467 671.644214 
L 866.415499 680.587652 
L 867.02453 683.941442 
L 867.633562 680.960296 
L 868.242594 680.587652 
L 868.851626 682.078226 
L 869.460658 680.960296 
L 870.069689 669.780998 
L 870.678721 669.780998 
L 871.287753 677.97915 
L 871.896785 677.606506 
L 872.505817 679.097079 
L 873.114848 682.450869 
L 873.72388 683.941442 
L 874.332912 676.115933 
L 874.941944 679.469723 
L 875.550975 679.097079 
L 876.160007 664.936636 
L 876.769039 666.799852 
L 877.378071 676.115933 
L 877.987103 682.450869 
L 878.596134 684.314085 
L 879.205166 682.823512 
L 879.814198 680.587652 
L 880.42323 681.332939 
L 881.032262 679.097079 
L 881.641293 668.290425 
L 882.250325 671.644214 
L 882.859357 668.290425 
L 883.468389 676.488577 
L 884.077421 681.332939 
L 884.686452 679.469723 
L 885.295484 679.097079 
L 885.904516 682.078226 
L 886.513548 683.941442 
L 887.731611 677.606506 
L 888.340643 680.587652 
L 888.949675 663.446063 
L 889.558707 668.290425 
L 890.167738 674.62536 
L 890.77677 679.097079 
L 891.385802 679.097079 
L 891.994834 679.469723 
L 892.603866 682.450869 
L 893.212897 677.606506 
L 893.821929 676.488577 
L 894.430961 679.097079 
L 895.039993 660.83756 
L 895.649025 664.936636 
L 896.258056 674.62536 
L 896.867088 682.450869 
L 897.47612 679.097079 
L 898.085152 679.097079 
L 898.694183 679.469723 
L 899.303215 659.346987 
L 899.912247 679.097079 
L 900.521279 663.818706 
L 901.130311 665.681922 
L 901.739342 673.134787 
L 902.348374 682.450869 
L 902.957406 680.587652 
L 903.566438 677.97915 
L 904.17547 679.097079 
L 905.393533 676.115933 
L 906.002565 665.309279 
L 906.611597 638.851608 
L 907.220628 664.936636 
L 907.82966 679.469723 
L 908.438692 653.012052 
L 909.047724 673.134787 
L 909.656756 680.960296 
L 910.265787 680.960296 
L 910.874819 655.993198 
L 911.483851 677.97915 
L 912.092883 664.936636 
L 912.701915 671.644214 
L 913.310946 664.936636 
L 913.919978 651.148835 
L 914.52901 674.62536 
L 915.138042 676.115933 
L 915.747074 680.587652 
L 916.356105 677.606506 
L 916.965137 679.097079 
L 917.574169 679.097079 
L 918.183201 663.446063 
L 918.792232 664.191349 
L 919.401264 671.644214 
L 920.010296 676.115933 
L 920.619328 675.74329 
L 921.22836 679.842366 
L 921.837391 679.097079 
L 922.446423 680.587652 
L 923.055455 666.799852 
L 923.664487 669.780998 
L 924.273519 662.328133 
L 924.88255 674.62536 
L 925.491582 679.469723 
L 926.100614 679.469723 
L 926.709646 677.233863 
L 927.318678 677.97915 
L 927.927709 679.469723 
L 928.536741 679.097079 
L 929.145773 677.97915 
L 929.754805 677.606506 
L 930.363836 679.469723 
L 931.5819 679.469723 
L 932.190932 680.587652 
L 932.799964 677.97915 
L 933.408995 679.842366 
L 934.627059 679.097079 
L 935.236091 679.097079 
L 935.845123 679.469723 
L 936.454154 679.097079 
L 937.063186 680.587652 
L 937.672218 680.960296 
L 938.28125 677.97915 
L 938.890282 681.332939 
L 939.499313 679.469723 
L 940.108345 679.097079 
L 940.717377 680.960296 
L 941.326409 680.587652 
L 941.93544 657.483771 
L 942.544472 683.941442 
L 943.153504 680.960296 
L 943.762536 679.469723 
L 944.371568 680.960296 
L 944.980599 682.823512 
L 945.589631 680.960296 
L 946.198663 679.469723 
L 946.807695 682.823512 
L 947.416727 680.587652 
L 948.025758 682.450869 
L 948.63479 679.469723 
L 949.852854 679.469723 
L 950.461885 679.097079 
L 951.070917 673.134787 
L 951.679949 680.587652 
L 952.288981 679.469723 
L 952.898013 676.115933 
L 953.507044 674.62536 
L 954.725108 681.332939 
L 955.33414 680.587652 
L 955.943172 677.97915 
L 956.552203 676.488577 
L 957.161235 679.097079 
L 957.770267 677.97915 
L 958.379299 677.606506 
L 958.988331 679.469723 
L 959.597362 675.74329 
L 960.206394 679.469723 
L 960.815426 681.332939 
L 961.424458 682.450869 
L 962.033489 680.960296 
L 962.642521 680.587652 
L 963.251553 677.606506 
L 963.860585 679.842366 
L 964.469617 679.097079 
L 965.078648 682.450869 
L 965.68768 679.097079 
L 966.296712 674.62536 
L 966.905744 676.115933 
L 967.514776 676.115933 
L 968.123807 674.62536 
L 968.732839 675.74329 
L 969.341871 677.606506 
L 969.950903 673.134787 
L 970.559935 674.252717 
L 971.168966 679.469723 
L 972.38703 676.488577 
L 972.996062 679.097079 
L 973.605093 676.115933 
L 974.214125 676.488577 
L 974.823157 677.233863 
L 975.432189 676.488577 
L 976.041221 676.115933 
L 976.650252 677.606506 
L 977.868316 674.62536 
L 979.08638 677.606506 
L 979.695411 612.021294 
L 980.304443 679.469723 
L 980.913475 679.469723 
L 981.522507 677.606506 
L 982.131538 679.469723 
L 982.74057 677.606506 
L 983.349602 677.606506 
L 983.958634 623.945878 
L 984.567666 677.606506 
L 985.176697 677.606506 
L 985.785729 679.469723 
L 986.394761 677.97915 
L 987.003793 568.422033 
L 987.612825 679.469723 
L 988.221856 680.587652 
L 988.830888 680.587652 
L 989.43992 676.488577 
L 990.048952 679.842366 
L 990.657984 677.97915 
L 991.267015 676.488577 
L 991.876047 672.762144 
L 992.485079 673.134787 
L 993.094111 674.62536 
L 993.703142 671.644214 
L 994.312174 674.62536 
L 994.921206 671.644214 
L 995.530238 669.780998 
L 996.13927 671.271571 
L 996.748301 668.290425 
L 997.357333 671.644214 
L 997.966365 670.153641 
L 998.575397 671.644214 
L 999.184429 649.285619 
L 999.79346 674.62536 
L 1000.402492 668.663068 
L 1001.011524 669.780998 
L 1002.229588 669.780998 
L 1002.838619 668.663068 
L 1003.447651 668.663068 
L 1004.056683 668.290425 
L 1004.665715 666.799852 
L 1005.274746 667.172495 
L 1005.883778 663.818706 
L 1006.49281 669.780998 
L 1007.101842 667.172495 
L 1007.710874 666.427209 
L 1008.319905 670.153641 
L 1008.928937 668.290425 
L 1009.537969 668.290425 
L 1010.147001 665.681922 
L 1010.756033 664.936636 
L 1011.365064 666.427209 
L 1011.974096 666.799852 
L 1012.583128 664.936636 
L 1013.19216 666.799852 
L 1013.801192 667.172495 
L 1014.410223 668.290425 
L 1015.019255 663.818706 
L 1015.628287 663.818706 
L 1016.237319 666.427209 
L 1016.84635 666.427209 
L 1017.455382 665.681922 
L 1018.064414 666.799852 
L 1018.673446 666.427209 
L 1019.282478 663.446063 
L 1019.891509 667.172495 
L 1020.500541 667.172495 
L 1021.109573 664.936636 
L 1021.718605 666.427209 
L 1022.327637 677.97915 
L 1022.936668 675.74329 
L 1023.5457 674.998004 
L 1024.154732 677.97915 
L 1024.763764 677.606506 
L 1025.372795 675.74329 
L 1025.981827 674.62536 
L 1026.590859 674.998004 
L 1027.199891 674.62536 
L 1027.808923 676.115933 
L 1028.417954 674.62536 
L 1029.026986 666.427209 
L 1029.636018 671.644214 
L 1030.24505 666.427209 
L 1030.854082 665.309279 
L 1031.463113 658.974344 
L 1032.072145 646.677116 
L 1032.681177 665.309279 
L 1033.290209 670.153641 
L 1033.899241 671.644214 
L 1034.508272 671.644214 
L 1035.117304 668.663068 
L 1035.726336 669.780998 
L 1036.335368 669.780998 
L 1036.944399 671.644214 
L 1038.162463 671.644214 
L 1038.771495 669.780998 
L 1039.380527 670.153641 
L 1039.989558 671.644214 
L 1040.59859 671.271571 
L 1041.207622 670.153641 
L 1041.816654 670.153641 
L 1042.425686 673.134787 
L 1043.034717 673.134787 
L 1043.643749 671.271571 
L 1044.252781 668.290425 
L 1045.470845 674.62536 
L 1046.079876 671.644214 
L 1046.688908 674.998004 
L 1047.29794 670.526285 
L 1047.906972 641.832754 
L 1048.516003 643.323327 
L 1049.125035 669.780998 
L 1049.734067 674.62536 
L 1050.343099 673.134787 
L 1050.952131 635.870462 
L 1051.561162 673.134787 
L 1052.170194 671.644214 
L 1052.779226 640.342181 
L 1053.388258 671.644214 
L 1053.99729 669.780998 
L 1054.606321 660.464917 
L 1055.215353 660.464917 
L 1055.824385 669.780998 
L 1056.433417 668.290425 
L 1057.042448 668.290425 
L 1057.65148 670.153641 
L 1058.260512 668.290425 
L 1058.869544 665.309279 
L 1059.478576 669.780998 
L 1060.087607 668.290425 
L 1060.696639 668.290425 
L 1061.305671 673.134787 
L 1061.914703 671.271571 
L 1062.523735 673.134787 
L 1063.132766 673.134787 
L 1063.741798 668.663068 
L 1064.35083 665.681922 
L 1064.959862 666.799852 
L 1065.568894 666.427209 
L 1066.177925 666.799852 
L 1066.786957 666.799852 
L 1067.395989 667.172495 
L 1068.005021 661.95549 
L 1068.614052 666.799852 
L 1069.223084 663.818706 
L 1069.832116 663.446063 
L 1070.441148 666.799852 
L 1071.05018 663.446063 
L 1071.659211 668.290425 
L 1072.268243 664.936636 
L 1072.877275 663.446063 
L 1073.486307 662.328133 
L 1074.095339 662.328133 
L 1074.70437 660.464917 
L 1075.313402 628.044954 
L 1075.922434 651.521479 
L 1076.531466 657.483771 
L 1077.140498 657.483771 
L 1077.749529 648.167689 
L 1078.358561 668.663068 
L 1078.967593 669.780998 
L 1079.576625 668.290425 
L 1080.185656 670.153641 
L 1080.794688 670.153641 
L 1081.40372 671.271571 
L 1082.012752 671.644214 
L 1082.621784 663.446063 
L 1083.230815 668.663068 
L 1083.839847 668.290425 
L 1084.448879 666.799852 
L 1085.057911 668.290425 
L 1085.666943 668.663068 
L 1086.275974 608.667505 
L 1086.885006 670.153641 
L 1087.494038 668.290425 
L 1088.10307 671.271571 
L 1088.712102 673.134787 
L 1089.321133 671.271571 
L 1089.930165 671.644214 
L 1090.539197 668.290425 
L 1091.148229 669.780998 
L 1091.75726 669.780998 
L 1092.366292 668.663068 
L 1092.975324 668.663068 
L 1093.584356 666.427209 
L 1094.193388 671.644214 
L 1094.802419 671.271571 
L 1095.411451 671.644214 
L 1096.020483 671.271571 
L 1096.629515 669.780998 
L 1097.238547 669.780998 
L 1097.847578 666.427209 
L 1098.45661 671.271571 
L 1099.065642 671.644214 
L 1099.674674 665.681922 
L 1100.283705 666.799852 
L 1100.892737 666.799852 
L 1101.501769 668.290425 
L 1102.110801 668.663068 
L 1102.719833 668.663068 
L 1103.328864 669.780998 
L 1103.937896 668.663068 
L 1104.546928 663.446063 
L 1105.15596 664.936636 
L 1105.764992 668.290425 
L 1106.374023 666.799852 
L 1106.983055 664.936636 
L 1107.592087 668.290425 
L 1108.201119 666.427209 
L 1108.810151 662.328133 
L 1109.419182 667.172495 
L 1110.028214 670.153641 
L 1110.637246 668.290425 
L 1111.246278 607.549575 
L 1111.855309 666.799852 
L 1112.464341 668.290425 
L 1113.073373 663.446063 
L 1113.682405 667.172495 
L 1114.291437 665.681922 
L 1114.900468 641.832754 
L 1115.5095 667.172495 
L 1116.118532 666.799852 
L 1116.727564 667.172495 
L 1117.336596 663.818706 
L 1117.945627 665.309279 
L 1118.554659 663.818706 
L 1119.163691 663.818706 
L 1119.772723 669.780998 
L 1120.381755 670.153641 
L 1120.990786 666.799852 
L 1121.599818 669.780998 
L 1122.20885 666.799852 
L 1122.817882 662.328133 
L 1123.426913 662.328133 
L 1124.035945 660.464917 
L 1124.644977 663.818706 
L 1125.254009 661.95549 
L 1125.863041 663.446063 
L 1127.081104 660.464917 
L 1127.690136 655.993198 
L 1128.299168 666.799852 
L 1128.9082 668.290425 
L 1129.517231 666.799852 
L 1130.126263 663.818706 
L 1130.735295 667.172495 
L 1131.344327 668.290425 
L 1131.953358 666.799852 
L 1132.56239 666.427209 
L 1133.171422 665.309279 
L 1133.780454 666.799852 
L 1134.389486 661.95549 
L 1134.998517 626.554381 
L 1135.607549 654.129982 
L 1136.216581 662.328133 
L 1136.825613 658.601701 
L 1137.434645 657.111128 
L 1138.043676 651.148835 
L 1138.652708 658.974344 
L 1139.26174 659.346987 
L 1139.870772 660.464917 
L 1140.479804 660.092274 
L 1141.088835 660.83756 
L 1141.697867 662.328133 
L 1142.306899 661.95549 
L 1142.915931 660.464917 
L 1143.524962 663.446063 
L 1144.133994 661.95549 
L 1144.743026 662.328133 
L 1145.352058 657.111128 
L 1145.96109 654.129982 
L 1146.570121 655.620555 
L 1147.179153 657.483771 
L 1147.788185 651.148835 
L 1148.397217 655.620555 
L 1149.006249 657.111128 
L 1149.61528 655.993198 
L 1150.224312 657.483771 
L 1150.833344 657.483771 
L 1151.442376 655.620555 
L 1152.051408 657.111128 
L 1152.660439 654.129982 
L 1153.269471 652.639409 
L 1153.878503 654.502625 
L 1154.487535 654.129982 
L 1155.096566 652.639409 
L 1155.705598 654.129982 
L 1156.31463 655.993198 
L 1156.923662 655.993198 
L 1157.532694 654.502625 
L 1158.141725 652.639409 
L 1158.750757 655.993198 
L 1159.359789 655.620555 
L 1159.968821 655.993198 
L 1160.577853 654.502625 
L 1161.186884 655.993198 
L 1161.795916 652.639409 
L 1162.404948 652.639409 
L 1163.01398 651.148835 
L 1163.623012 654.502625 
L 1164.232043 654.129982 
L 1164.841075 654.502625 
L 1166.059139 654.502625 
L 1166.66817 654.129982 
L 1167.277202 652.639409 
L 1167.886234 654.129982 
L 1168.495266 654.129982 
L 1169.104298 655.620555 
L 1169.713329 655.993198 
L 1170.322361 655.993198 
L 1170.931393 651.521479 
L 1171.540425 649.285619 
L 1172.149457 649.658262 
L 1172.758488 649.658262 
L 1173.36752 651.521479 
L 1173.976552 655.993198 
L 1174.585584 652.639409 
L 1175.194615 641.832754 
L 1175.803647 660.83756 
L 1176.412679 664.936636 
L 1177.021711 665.309279 
L 1177.630743 663.446063 
L 1178.239774 660.464917 
L 1178.848806 664.191349 
L 1179.457838 661.95549 
L 1180.06687 662.328133 
L 1180.675902 609.412791 
L 1181.284933 663.818706 
L 1181.893965 661.95549 
L 1182.502997 664.191349 
L 1183.721061 660.464917 
L 1184.330092 660.464917 
L 1184.939124 663.446063 
L 1185.548156 658.601701 
L 1186.157188 662.328133 
L 1186.766219 661.95549 
L 1187.375251 665.309279 
L 1187.984283 660.464917 
L 1188.593315 663.818706 
L 1189.202347 662.328133 
L 1189.811378 663.818706 
L 1190.42041 661.95549 
L 1191.029442 660.464917 
L 1191.638474 662.328133 
L 1192.247506 663.818706 
L 1192.856537 659.346987 
L 1193.465569 652.639409 
L 1194.074601 654.502625 
L 1194.683633 657.483771 
L 1195.292665 655.993198 
L 1195.901696 652.639409 
L 1196.510728 632.516673 
L 1197.11976 654.129982 
L 1198.337823 645.186543 
L 1198.946855 653.012052 
L 1199.555887 649.285619 
L 1200.164919 651.148835 
L 1200.773951 649.658262 
L 1201.382982 649.658262 
L 1201.992014 660.464917 
L 1202.601046 660.83756 
L 1203.210078 660.83756 
L 1203.81911 660.464917 
L 1204.428141 658.601701 
L 1205.037173 660.464917 
L 1205.646205 660.464917 
L 1206.255237 660.83756 
L 1206.864268 658.974344 
L 1207.4733 632.14403 
L 1208.082332 659.346987 
L 1208.691364 657.483771 
L 1209.300396 658.974344 
L 1209.909427 659.346987 
L 1210.518459 662.328133 
L 1211.127491 657.483771 
L 1212.345555 657.483771 
L 1212.954586 635.497819 
L 1213.563618 660.092274 
L 1214.17265 660.83756 
L 1214.781682 657.483771 
L 1215.390714 657.111128 
L 1215.999745 651.148835 
L 1216.608777 651.521479 
L 1217.217809 651.521479 
L 1217.826841 649.285619 
L 1218.435872 648.540333 
L 1219.044904 646.677116 
L 1219.653936 647.795046 
L 1220.262968 651.148835 
L 1220.872 658.974344 
L 1221.481031 644.8139 
L 1222.090063 657.483771 
L 1222.699095 658.974344 
L 1223.308127 657.483771 
L 1223.917159 658.974344 
L 1224.52619 657.483771 
L 1225.135222 657.483771 
L 1225.744254 652.639409 
L 1226.353286 652.639409 
L 1226.962318 655.620555 
L 1227.571349 651.521479 
L 1228.180381 652.639409 
L 1228.789413 658.974344 
L 1229.398445 657.483771 
L 1230.007476 657.483771 
L 1230.616508 653.012052 
L 1231.22554 655.993198 
L 1231.834572 654.502625 
L 1232.443604 660.83756 
L 1233.052635 657.483771 
L 1233.661667 660.83756 
L 1234.270699 658.601701 
L 1234.879731 658.974344 
L 1235.488763 660.83756 
L 1236.097794 660.092274 
L 1236.706826 658.974344 
L 1237.315858 657.483771 
L 1237.92489 660.092274 
L 1238.533922 655.993198 
L 1239.142953 659.346987 
L 1239.751985 657.483771 
L 1240.361017 658.601701 
L 1240.970049 658.974344 
L 1241.57908 653.012052 
L 1242.188112 655.620555 
L 1242.797144 657.483771 
L 1243.406176 651.521479 
L 1244.015208 655.993198 
L 1244.624239 655.993198 
L 1245.233271 657.483771 
L 1245.842303 655.620555 
L 1246.451335 657.483771 
L 1247.060367 658.974344 
L 1247.669398 657.111128 
L 1248.27843 657.483771 
L 1248.887462 591.898558 
L 1249.496494 658.974344 
L 1250.105525 658.601701 
L 1250.714557 658.601701 
L 1251.323589 655.993198 
L 1251.932621 657.111128 
L 1252.541653 650.030906 
L 1253.150684 651.148835 
L 1253.759716 655.993198 
L 1254.368748 646.304473 
L 1254.97778 645.186543 
L 1255.586812 649.658262 
L 1256.195843 648.167689 
L 1257.413907 648.167689 
L 1258.022939 647.795046 
L 1259.241002 647.795046 
L 1259.850034 651.148835 
L 1260.459066 646.304473 
L 1261.068098 646.304473 
L 1261.677129 133.92 
L 1262.286161 641.832754 
L 1262.895193 649.658262 
L 1263.504225 629.162884 
L 1264.113257 623.200591 
L 1264.722288 646.677116 
L 1265.33132 650.030906 
L 1265.940352 649.658262 
L 1266.549384 646.304473 
L 1267.158416 654.502625 
L 1267.767447 653.012052 
L 1268.376479 651.148835 
L 1268.985511 651.521479 
L 1269.594543 655.993198 
L 1270.203575 654.502625 
L 1270.812606 654.502625 
L 1271.421638 651.521479 
L 1272.03067 654.875268 
L 1272.639702 653.012052 
L 1273.248733 625.809094 
L 1273.857765 652.639409 
L 1274.466797 654.502625 
L 1275.075829 654.502625 
L 1275.684861 654.129982 
L 1276.293892 652.639409 
L 1276.902924 657.483771 
L 1278.120988 657.483771 
L 1278.73002 626.554381 
L 1279.339051 657.483771 
L 1279.948083 655.620555 
L 1280.557115 652.639409 
L 1281.166147 657.483771 
L 1281.775178 650.776192 
L 1282.38421 654.129982 
L 1284.211306 649.658262 
L 1284.820337 651.148835 
L 1285.429369 651.148835 
L 1286.038401 650.776192 
L 1286.647433 651.148835 
L 1287.865496 651.148835 
L 1288.474528 652.639409 
L 1289.08356 632.14403 
L 1290.301624 655.993198 
L 1290.910655 654.129982 
L 1291.519687 655.993198 
L 1292.128719 629.162884 
L 1292.737751 648.540333 
L 1293.346782 645.93183 
L 1293.955814 646.677116 
L 1294.564846 643.69597 
L 1295.173878 638.478965 
L 1295.78291 642.205397 
L 1296.391941 641.832754 
L 1297.000973 651.521479 
L 1297.610005 652.639409 
L 1298.219037 653.012052 
L 1298.828069 649.658262 
L 1299.4371 654.502625 
L 1300.046132 652.639409 
L 1300.655164 579.601331 
L 1301.264196 651.148835 
L 1302.482259 654.129982 
L 1303.091291 649.658262 
L 1303.700323 643.69597 
L 1304.309355 648.540333 
L 1304.918386 647.795046 
L 1305.527418 646.677116 
L 1306.13645 610.903364 
L 1306.745482 646.304473 
L 1307.963545 650.030906 
L 1308.572577 646.677116 
L 1309.181609 646.304473 
L 1309.790641 649.658262 
L 1310.399673 651.148835 
L 1311.008704 650.030906 
L 1311.617736 648.167689 
L 1312.226768 651.148835 
L 1312.8358 651.521479 
L 1313.444832 649.285619 
L 1314.053863 593.389131 
L 1314.662895 650.030906 
L 1315.271927 651.148835 
L 1315.880959 651.521479 
L 1316.48999 652.639409 
L 1317.099022 649.285619 
L 1317.708054 651.148835 
L 1318.317086 651.521479 
L 1318.926118 651.148835 
L 1319.535149 648.167689 
L 1320.144181 648.167689 
L 1320.753213 647.795046 
L 1321.362245 646.304473 
L 1321.971277 649.658262 
L 1322.580308 649.658262 
L 1323.18934 652.639409 
L 1323.798372 649.658262 
L 1324.407404 644.8139 
L 1325.016435 645.186543 
L 1325.625467 649.658262 
L 1326.234499 645.186543 
L 1326.843531 645.186543 
L 1327.452563 647.795046 
L 1328.061594 626.181738 
L 1328.670626 647.795046 
L 1329.279658 646.677116 
L 1329.88869 646.304473 
L 1330.497722 649.658262 
L 1331.106753 646.304473 
L 1331.715785 649.658262 
L 1332.324817 644.8139 
L 1332.933849 647.795046 
L 1333.542881 648.167689 
L 1334.151912 645.186543 
L 1334.760944 649.658262 
L 1335.369976 647.795046 
L 1335.979008 651.148835 
L 1336.588039 651.521479 
L 1337.197071 649.658262 
L 1337.806103 638.851608 
L 1339.024167 649.285619 
L 1339.633198 650.030906 
L 1340.24223 649.285619 
L 1340.851262 650.030906 
L 1341.460294 618.356229 
L 1342.069326 645.186543 
L 1342.678357 618.356229 
L 1343.287389 646.304473 
L 1343.896421 643.69597 
L 1344.505453 640.342181 
L 1345.114485 638.851608 
L 1345.723516 641.832754 
L 1346.332548 636.988392 
L 1346.94158 629.535527 
L 1347.550612 647.795046 
L 1348.159643 646.304473 
L 1348.768675 649.285619 
L 1349.377707 588.917412 
L 1349.986739 648.167689 
L 1350.595771 648.167689 
L 1351.204802 646.677116 
L 1351.813834 646.677116 
L 1352.422866 646.304473 
L 1353.031898 646.677116 
L 1353.64093 647.795046 
L 1354.249961 649.658262 
L 1354.858993 646.677116 
L 1355.468025 646.304473 
L 1356.077057 646.304473 
L 1356.686088 648.540333 
L 1357.29512 649.658262 
L 1357.904152 649.658262 
L 1358.513184 623.200591 
L 1359.122216 580.719261 
L 1359.731247 648.167689 
L 1360.340279 622.827948 
L 1360.949311 646.304473 
L 1361.558343 650.030906 
L 1362.167375 652.639409 
L 1362.776406 649.285619 
L 1363.385438 650.030906 
L 1363.99447 646.677116 
L 1364.603502 642.205397 
L 1365.212534 644.441257 
L 1365.821565 644.8139 
L 1366.430597 642.205397 
L 1367.039629 644.8139 
L 1367.648661 644.8139 
L 1368.257692 640.342181 
L 1369.475756 646.304473 
L 1370.084788 640.342181 
L 1370.69382 648.167689 
L 1371.302851 642.205397 
L 1371.911883 646.304473 
L 1372.520915 643.323327 
L 1373.129947 644.8139 
L 1373.738979 644.8139 
L 1374.34801 641.832754 
L 1374.957042 643.323327 
L 1375.566074 640.342181 
L 1376.175106 646.304473 
L 1376.784138 643.323327 
L 1377.393169 636.988392 
L 1378.002201 645.186543 
L 1378.611233 641.832754 
L 1379.220265 649.658262 
L 1379.829296 643.69597 
L 1380.438328 644.8139 
L 1381.04736 642.950684 
L 1381.656392 645.186543 
L 1382.265424 645.186543 
L 1382.874455 648.540333 
L 1383.483487 621.337375 
L 1384.092519 646.304473 
L 1384.701551 604.195786 
L 1385.310583 643.69597 
L 1385.919614 612.021294 
L 1386.528646 510.289686 
L 1387.137678 644.8139 
L 1387.74671 645.186543 
L 1388.355742 646.677116 
L 1388.964773 644.8139 
L 1389.573805 644.8139 
L 1390.182837 645.186543 
L 1390.791869 643.323327 
L 1391.4009 646.677116 
L 1392.009932 646.304473 
L 1392.618964 643.323327 
L 1393.227996 643.323327 
L 1393.837028 643.69597 
L 1394.446059 645.186543 
L 1395.055091 640.342181 
L 1395.664123 644.8139 
L 1396.273155 638.478965 
L 1396.882187 641.832754 
L 1397.491218 638.851608 
L 1398.10025 643.323327 
L 1398.709282 643.323327 
L 1399.318314 640.342181 
L 1399.927345 643.323327 
L 1400.536377 640.342181 
L 1401.145409 643.69597 
L 1401.754441 640.342181 
L 1402.363473 641.832754 
L 1402.972504 640.342181 
L 1404.190568 640.342181 
L 1404.7996 638.851608 
L 1405.408632 642.205397 
L 1406.017663 640.342181 
L 1406.626695 640.342181 
L 1407.235727 643.323327 
L 1407.844759 638.851608 
L 1408.453791 638.851608 
L 1409.062822 640.342181 
L 1410.280886 640.342181 
L 1410.889918 641.832754 
L 1411.498949 641.460111 
L 1412.107981 641.460111 
L 1412.717013 637.361035 
L 1413.326045 640.342181 
L 1413.935077 636.988392 
L 1414.544108 638.851608 
L 1415.15314 640.342181 
L 1415.762172 637.361035 
L 1416.371204 636.988392 
L 1416.980236 643.69597 
L 1417.589267 638.851608 
L 1418.198299 636.988392 
L 1418.807331 645.186543 
L 1419.416363 638.478965 
L 1420.025395 641.832754 
L 1420.634426 638.478965 
L 1421.243458 615.375083 
L 1421.85249 405.949575 
L 1422.461522 613.511867 
L 1423.070553 634.007246 
L 1423.679585 628.79024 
L 1424.288617 596.742921 
L 1424.897649 631.0261 
L 1425.506681 631.398743 
L 1426.115712 631.0261 
L 1426.724744 635.497819 
L 1427.333776 588.544769 
L 1427.942808 637.361035 
L 1428.55184 634.007246 
L 1429.160871 634.007246 
L 1429.769903 628.044954 
L 1430.378935 636.988392 
L 1430.987967 640.342181 
L 1431.596998 640.342181 
L 1432.20603 641.832754 
L 1432.815062 640.342181 
L 1433.424094 636.988392 
L 1434.033126 643.69597 
L 1434.642157 639.969538 
L 1435.251189 641.832754 
L 1435.860221 641.832754 
L 1436.469253 644.441257 
L 1437.078285 642.950684 
L 1437.687316 636.988392 
L 1438.296348 638.478965 
L 1438.90538 643.323327 
L 1439.514412 637.361035 
L 1440.123444 636.988392 
L 1440.732475 640.342181 
L 1441.341507 636.988392 
L 1441.950539 636.988392 
L 1442.559571 634.007246 
L 1443.168602 637.361035 
L 1443.777634 638.851608 
L 1444.386666 632.889316 
L 1444.995698 639.969538 
L 1445.60473 640.342181 
L 1446.213761 640.342181 
L 1446.822793 637.361035 
L 1447.431825 640.342181 
L 1448.040857 639.969538 
L 1448.649889 637.361035 
L 1449.25892 644.441257 
L 1449.867952 636.988392 
L 1450.476984 634.007246 
L 1451.086016 638.851608 
L 1451.695048 638.851608 
L 1452.304079 640.342181 
L 1452.913111 636.988392 
L 1453.522143 638.851608 
L 1454.131175 635.497819 
L 1454.740206 613.88451 
L 1455.349238 584.07305 
L 1455.95827 637.361035 
L 1456.567302 638.478965 
L 1457.176334 633.634603 
L 1457.785365 634.007246 
L 1458.394397 607.549575 
L 1459.003429 635.497819 
L 1459.612461 607.549575 
L 1460.221493 632.14403 
L 1460.830524 636.988392 
L 1461.439556 638.478965 
L 1462.048588 635.497819 
L 1462.65762 638.478965 
L 1463.875683 636.988392 
L 1464.484715 634.007246 
L 1465.093747 639.969538 
L 1465.702779 641.832754 
L 1466.31181 636.988392 
L 1466.920842 635.497819 
L 1467.529874 641.460111 
L 1468.138906 634.007246 
L 1468.747938 640.342181 
L 1469.356969 638.478965 
L 1469.966001 632.516673 
L 1470.575033 637.361035 
L 1471.184065 640.342181 
L 1471.793097 638.851608 
L 1472.402128 635.497819 
L 1473.01116 638.851608 
L 1473.620192 636.988392 
L 1474.229224 637.361035 
L 1474.838255 634.007246 
L 1475.447287 637.733678 
L 1476.056319 631.0261 
L 1476.665351 635.497819 
L 1477.274383 632.516673 
L 1477.883414 635.497819 
L 1478.492446 633.634603 
L 1479.101478 636.988392 
L 1479.71051 634.379889 
L 1480.319542 638.851608 
L 1480.928573 638.851608 
L 1481.537605 632.14403 
L 1482.146637 631.0261 
L 1483.364701 636.988392 
L 1483.973732 633.634603 
L 1484.582764 631.398743 
L 1485.191796 632.14403 
L 1485.800828 630.653457 
L 1486.409859 632.516673 
L 1487.018891 593.389131 
L 1487.627923 629.535527 
L 1488.236955 629.535527 
L 1488.845987 634.007246 
L 1489.455018 632.516673 
L 1490.06405 634.379889 
L 1490.673082 635.497819 
L 1491.282114 638.478965 
L 1491.891146 599.351423 
L 1492.500177 634.007246 
L 1493.109209 634.007246 
L 1493.718241 582.209834 
L 1494.327273 632.14403 
L 1494.327273 632.14403 
" style="fill:none;stroke:#1f77b4;stroke-linecap:square;stroke-width:1.5;"/>
   </g>
   <g id="line2d_20">
    <path clip-path="url(#p3ccfbfeb5b)" d="M 276.872727 734.095249 
L 1494.327273 627.406492 
L 1494.327273 627.406492 
" style="fill:none;stroke:#ff7f0e;stroke-linecap:square;stroke-width:1.5;"/>
   </g>
   <g id="patch_3">
    <path d="M 216 768.96 
L 216 103.68 
" style="fill:none;stroke:#000000;stroke-linecap:square;stroke-linejoin:miter;stroke-width:0.8;"/>
   </g>
   <g id="patch_4">
    <path d="M 1555.2 768.96 
L 1555.2 103.68 
" style="fill:none;stroke:#000000;stroke-linecap:square;stroke-linejoin:miter;stroke-width:0.8;"/>
   </g>
   <g id="patch_5">
    <path d="M 216 768.96 
L 1555.2 768.96 
" style="fill:none;stroke:#000000;stroke-linecap:square;stroke-linejoin:miter;stroke-width:0.8;"/>
   </g>
   <g id="patch_6">
    <path d="M 216 103.68 
L 1555.2 103.68 
" style="fill:none;stroke:#000000;stroke-linecap:square;stroke-linejoin:miter;stroke-width:0.8;"/>
   </g>
   <g id="legend_1">
    <g id="patch_7">
     <path d="M 1421.748437 141.03625 
L 1548.2 141.03625 
Q 1550.2 141.03625 1550.2 139.03625 
L 1550.2 110.68 
Q 1550.2 108.68 1548.2 108.68 
L 1421.748437 108.68 
Q 1419.748437 108.68 1419.748437 110.68 
L 1419.748437 139.03625 
Q 1419.748437 141.03625 1421.748437 141.03625 
z
" style="fill:#ffffff;opacity:0.8;stroke:#cccccc;stroke-linejoin:miter;"/>
    </g>
    <g id="line2d_21">
     <path d="M 1423.748437 116.778437 
L 1443.748437 116.778437 
" style="fill:none;stroke:#1f77b4;stroke-linecap:square;stroke-width:1.5;"/>
    </g>
    <g id="line2d_22"/>
    <g id="text_21">
     <!-- Experiment results -->
     <g transform="translate(1451.748437 120.278437)scale(0.1 -0.1)">
      <defs>
       <path d="M 9.8125 72.90625 
L 55.90625 72.90625 
L 55.90625 64.59375 
L 19.671875 64.59375 
L 19.671875 43.015625 
L 54.390625 43.015625 
L 54.390625 34.71875 
L 19.671875 34.71875 
L 19.671875 8.296875 
L 56.78125 8.296875 
L 56.78125 0 
L 9.8125 0 
z
" id="DejaVuSans-69"/>
       <path d="M 54.890625 54.6875 
L 35.109375 28.078125 
L 55.90625 0 
L 45.3125 0 
L 29.390625 21.484375 
L 13.484375 0 
L 2.875 0 
L 24.125 28.609375 
L 4.6875 54.6875 
L 15.28125 54.6875 
L 29.78125 35.203125 
L 44.28125 54.6875 
z
" id="DejaVuSans-120"/>
       <path d="M 18.109375 8.203125 
L 18.109375 -20.796875 
L 9.078125 -20.796875 
L 9.078125 54.6875 
L 18.109375 54.6875 
L 18.109375 46.390625 
Q 20.953125 51.265625 25.265625 53.625 
Q 29.59375 56 35.59375 56 
Q 45.5625 56 51.78125 48.09375 
Q 58.015625 40.1875 58.015625 27.296875 
Q 58.015625 14.40625 51.78125 6.484375 
Q 45.5625 -1.421875 35.59375 -1.421875 
Q 29.59375 -1.421875 25.265625 0.953125 
Q 20.953125 3.328125 18.109375 8.203125 
z
M 48.6875 27.296875 
Q 48.6875 37.203125 44.609375 42.84375 
Q 40.53125 48.484375 33.40625 48.484375 
Q 26.265625 48.484375 22.1875 42.84375 
Q 18.109375 37.203125 18.109375 27.296875 
Q 18.109375 17.390625 22.1875 11.75 
Q 26.265625 6.109375 33.40625 6.109375 
Q 40.53125 6.109375 44.609375 11.75 
Q 48.6875 17.390625 48.6875 27.296875 
z
" id="DejaVuSans-112"/>
       <path d="M 8.5 21.578125 
L 8.5 54.6875 
L 17.484375 54.6875 
L 17.484375 21.921875 
Q 17.484375 14.15625 20.5 10.265625 
Q 23.53125 6.390625 29.59375 6.390625 
Q 36.859375 6.390625 41.078125 11.03125 
Q 45.3125 15.671875 45.3125 23.6875 
L 45.3125 54.6875 
L 54.296875 54.6875 
L 54.296875 0 
L 45.3125 0 
L 45.3125 8.40625 
Q 42.046875 3.421875 37.71875 1 
Q 33.40625 -1.421875 27.6875 -1.421875 
Q 18.265625 -1.421875 13.375 4.4375 
Q 8.5 10.296875 8.5 21.578125 
z
M 31.109375 56 
z
" id="DejaVuSans-117"/>
      </defs>
      <use xlink:href="#DejaVuSans-69"/>
      <use x="63.183594" xlink:href="#DejaVuSans-120"/>
      <use x="122.363281" xlink:href="#DejaVuSans-112"/>
      <use x="185.839844" xlink:href="#DejaVuSans-101"/>
      <use x="247.363281" xlink:href="#DejaVuSans-114"/>
      <use x="288.476562" xlink:href="#DejaVuSans-105"/>
      <use x="316.259766" xlink:href="#DejaVuSans-109"/>
      <use x="413.671875" xlink:href="#DejaVuSans-101"/>
      <use x="475.195312" xlink:href="#DejaVuSans-110"/>
      <use x="538.574219" xlink:href="#DejaVuSans-116"/>
      <use x="577.783203" xlink:href="#DejaVuSans-32"/>
      <use x="609.570312" xlink:href="#DejaVuSans-114"/>
      <use x="648.433594" xlink:href="#DejaVuSans-101"/>
      <use x="709.957031" xlink:href="#DejaVuSans-115"/>
      <use x="762.056641" xlink:href="#DejaVuSans-117"/>
      <use x="825.435547" xlink:href="#DejaVuSans-108"/>
      <use x="853.21875" xlink:href="#DejaVuSans-116"/>
      <use x="892.427734" xlink:href="#DejaVuSans-115"/>
     </g>
    </g>
    <g id="line2d_23">
     <path d="M 1423.748437 131.456563 
L 1443.748437 131.456563 
" style="fill:none;stroke:#ff7f0e;stroke-linecap:square;stroke-width:1.5;"/>
    </g>
    <g id="line2d_24"/>
    <g id="text_22">
     <!-- Approximation -->
     <g transform="translate(1451.748437 134.956563)scale(0.1 -0.1)">
      <defs>
       <path d="M 34.1875 63.1875 
L 20.796875 26.90625 
L 47.609375 26.90625 
z
M 28.609375 72.90625 
L 39.796875 72.90625 
L 67.578125 0 
L 57.328125 0 
L 50.6875 18.703125 
L 17.828125 18.703125 
L 11.1875 0 
L 0.78125 0 
z
" id="DejaVuSans-65"/>
       <path d="M 34.28125 27.484375 
Q 23.390625 27.484375 19.1875 25 
Q 14.984375 22.515625 14.984375 16.5 
Q 14.984375 11.71875 18.140625 8.90625 
Q 21.296875 6.109375 26.703125 6.109375 
Q 34.1875 6.109375 38.703125 11.40625 
Q 43.21875 16.703125 43.21875 25.484375 
L 43.21875 27.484375 
z
M 52.203125 31.203125 
L 52.203125 0 
L 43.21875 0 
L 43.21875 8.296875 
Q 40.140625 3.328125 35.546875 0.953125 
Q 30.953125 -1.421875 24.3125 -1.421875 
Q 15.921875 -1.421875 10.953125 3.296875 
Q 6 8.015625 6 15.921875 
Q 6 25.140625 12.171875 29.828125 
Q 18.359375 34.515625 30.609375 34.515625 
L 43.21875 34.515625 
L 43.21875 35.40625 
Q 43.21875 41.609375 39.140625 45 
Q 35.0625 48.390625 27.6875 48.390625 
Q 23 48.390625 18.546875 47.265625 
Q 14.109375 46.140625 10.015625 43.890625 
L 10.015625 52.203125 
Q 14.9375 54.109375 19.578125 55.046875 
Q 24.21875 56 28.609375 56 
Q 40.484375 56 46.34375 49.84375 
Q 52.203125 43.703125 52.203125 31.203125 
z
" id="DejaVuSans-97"/>
      </defs>
      <use xlink:href="#DejaVuSans-65"/>
      <use x="68.408203" xlink:href="#DejaVuSans-112"/>
      <use x="131.884766" xlink:href="#DejaVuSans-112"/>
      <use x="195.361328" xlink:href="#DejaVuSans-114"/>
      <use x="234.224609" xlink:href="#DejaVuSans-111"/>
      <use x="292.28125" xlink:href="#DejaVuSans-120"/>
      <use x="351.460938" xlink:href="#DejaVuSans-105"/>
      <use x="379.244141" xlink:href="#DejaVuSans-109"/>
      <use x="476.65625" xlink:href="#DejaVuSans-97"/>
      <use x="537.935547" xlink:href="#DejaVuSans-116"/>
      <use x="577.144531" xlink:href="#DejaVuSans-105"/>
      <use x="604.927734" xlink:href="#DejaVuSans-111"/>
      <use x="666.109375" xlink:href="#DejaVuSans-110"/>
     </g>
    </g>
   </g>
  </g>
 </g>
 <defs>
  <clipPath id="p3ccfbfeb5b">
   <rect height="665.28" width="1339.2" x="216" y="103.68"/>
  </clipPath>
 </defs>
</svg>
