<?xml version="1.0" encoding="utf-8" standalone="no"?>
<!DOCTYPE svg PUBLIC "-//W3C//DTD SVG 1.1//EN"
  "http://www.w3.org/Graphics/SVG/1.1/DTD/svg11.dtd">
<!-- Created with matplotlib (https://matplotlib.org/) -->
<svg height="864pt" version="1.1" viewBox="0 0 1728 864" width="1728pt" xmlns="http://www.w3.org/2000/svg" xmlns:xlink="http://www.w3.org/1999/xlink">
 <metadata>
  <rdf:RDF xmlns:cc="http://creativecommons.org/ns#" xmlns:dc="http://purl.org/dc/elements/1.1/" xmlns:rdf="http://www.w3.org/1999/02/22-rdf-syntax-ns#">
   <cc:Work>
    <dc:type rdf:resource="http://purl.org/dc/dcmitype/StillImage"/>
    <dc:date>2020-09-12T14:23:21.025314</dc:date>
    <dc:format>image/svg+xml</dc:format>
    <dc:creator>
     <cc:Agent>
      <dc:title>Matplotlib v3.3.1, https://matplotlib.org/</dc:title>
     </cc:Agent>
    </dc:creator>
   </cc:Work>
  </rdf:RDF>
 </metadata>
 <defs>
  <style type="text/css">*{stroke-linecap:butt;stroke-linejoin:round;}</style>
 </defs>
 <g id="figure_1">
  <g id="patch_1">
   <path d="M 0 864 
L 1728 864 
L 1728 0 
L 0 0 
z
" style="fill:#ffffff;"/>
  </g>
  <g id="axes_1">
   <g id="patch_2">
    <path d="M 216 768.96 
L 1555.2 768.96 
L 1555.2 103.68 
L 216 103.68 
z
" style="fill:#ffffff;"/>
   </g>
   <g id="matplotlib.axis_1">
    <g id="xtick_1">
     <g id="line2d_1">
      <defs>
       <path d="M 0 0 
L 0 3.5 
" id="me7cdff44f1" style="stroke:#000000;stroke-width:0.8;"/>
      </defs>
      <g>
       <use style="stroke:#000000;stroke-width:0.8;" x="276.872727" xlink:href="#me7cdff44f1" y="768.96"/>
      </g>
     </g>
     <g id="text_1">
      <!-- 0 -->
      <g transform="translate(273.691477 783.558437)scale(0.1 -0.1)">
       <defs>
        <path d="M 31.78125 66.40625 
Q 24.171875 66.40625 20.328125 58.90625 
Q 16.5 51.421875 16.5 36.375 
Q 16.5 21.390625 20.328125 13.890625 
Q 24.171875 6.390625 31.78125 6.390625 
Q 39.453125 6.390625 43.28125 13.890625 
Q 47.125 21.390625 47.125 36.375 
Q 47.125 51.421875 43.28125 58.90625 
Q 39.453125 66.40625 31.78125 66.40625 
z
M 31.78125 74.21875 
Q 44.046875 74.21875 50.515625 64.515625 
Q 56.984375 54.828125 56.984375 36.375 
Q 56.984375 17.96875 50.515625 8.265625 
Q 44.046875 -1.421875 31.78125 -1.421875 
Q 19.53125 -1.421875 13.0625 8.265625 
Q 6.59375 17.96875 6.59375 36.375 
Q 6.59375 54.828125 13.0625 64.515625 
Q 19.53125 74.21875 31.78125 74.21875 
z
" id="DejaVuSans-48"/>
       </defs>
       <use xlink:href="#DejaVuSans-48"/>
      </g>
     </g>
    </g>
    <g id="xtick_2">
     <g id="line2d_2">
      <g>
       <use style="stroke:#000000;stroke-width:0.8;" x="437.14847" xlink:href="#me7cdff44f1" y="768.96"/>
      </g>
     </g>
     <g id="text_2">
      <!-- 250 -->
      <g transform="translate(427.60472 783.558437)scale(0.1 -0.1)">
       <defs>
        <path d="M 19.1875 8.296875 
L 53.609375 8.296875 
L 53.609375 0 
L 7.328125 0 
L 7.328125 8.296875 
Q 12.9375 14.109375 22.625 23.890625 
Q 32.328125 33.6875 34.8125 36.53125 
Q 39.546875 41.84375 41.421875 45.53125 
Q 43.3125 49.21875 43.3125 52.78125 
Q 43.3125 58.59375 39.234375 62.25 
Q 35.15625 65.921875 28.609375 65.921875 
Q 23.96875 65.921875 18.8125 64.3125 
Q 13.671875 62.703125 7.8125 59.421875 
L 7.8125 69.390625 
Q 13.765625 71.78125 18.9375 73 
Q 24.125 74.21875 28.421875 74.21875 
Q 39.75 74.21875 46.484375 68.546875 
Q 53.21875 62.890625 53.21875 53.421875 
Q 53.21875 48.921875 51.53125 44.890625 
Q 49.859375 40.875 45.40625 35.40625 
Q 44.1875 33.984375 37.640625 27.21875 
Q 31.109375 20.453125 19.1875 8.296875 
z
" id="DejaVuSans-50"/>
        <path d="M 10.796875 72.90625 
L 49.515625 72.90625 
L 49.515625 64.59375 
L 19.828125 64.59375 
L 19.828125 46.734375 
Q 21.96875 47.46875 24.109375 47.828125 
Q 26.265625 48.1875 28.421875 48.1875 
Q 40.625 48.1875 47.75 41.5 
Q 54.890625 34.8125 54.890625 23.390625 
Q 54.890625 11.625 47.5625 5.09375 
Q 40.234375 -1.421875 26.90625 -1.421875 
Q 22.3125 -1.421875 17.546875 -0.640625 
Q 12.796875 0.140625 7.71875 1.703125 
L 7.71875 11.625 
Q 12.109375 9.234375 16.796875 8.0625 
Q 21.484375 6.890625 26.703125 6.890625 
Q 35.15625 6.890625 40.078125 11.328125 
Q 45.015625 15.765625 45.015625 23.390625 
Q 45.015625 31 40.078125 35.4375 
Q 35.15625 39.890625 26.703125 39.890625 
Q 22.75 39.890625 18.8125 39.015625 
Q 14.890625 38.140625 10.796875 36.28125 
z
" id="DejaVuSans-53"/>
       </defs>
       <use xlink:href="#DejaVuSans-50"/>
       <use x="63.623047" xlink:href="#DejaVuSans-53"/>
       <use x="127.246094" xlink:href="#DejaVuSans-48"/>
      </g>
     </g>
    </g>
    <g id="xtick_3">
     <g id="line2d_3">
      <g>
       <use style="stroke:#000000;stroke-width:0.8;" x="597.424214" xlink:href="#me7cdff44f1" y="768.96"/>
      </g>
     </g>
     <g id="text_3">
      <!-- 500 -->
      <g transform="translate(587.880464 783.558437)scale(0.1 -0.1)">
       <use xlink:href="#DejaVuSans-53"/>
       <use x="63.623047" xlink:href="#DejaVuSans-48"/>
       <use x="127.246094" xlink:href="#DejaVuSans-48"/>
      </g>
     </g>
    </g>
    <g id="xtick_4">
     <g id="line2d_4">
      <g>
       <use style="stroke:#000000;stroke-width:0.8;" x="757.699957" xlink:href="#me7cdff44f1" y="768.96"/>
      </g>
     </g>
     <g id="text_4">
      <!-- 750 -->
      <g transform="translate(748.156207 783.558437)scale(0.1 -0.1)">
       <defs>
        <path d="M 8.203125 72.90625 
L 55.078125 72.90625 
L 55.078125 68.703125 
L 28.609375 0 
L 18.3125 0 
L 43.21875 64.59375 
L 8.203125 64.59375 
z
" id="DejaVuSans-55"/>
       </defs>
       <use xlink:href="#DejaVuSans-55"/>
       <use x="63.623047" xlink:href="#DejaVuSans-53"/>
       <use x="127.246094" xlink:href="#DejaVuSans-48"/>
      </g>
     </g>
    </g>
    <g id="xtick_5">
     <g id="line2d_5">
      <g>
       <use style="stroke:#000000;stroke-width:0.8;" x="917.9757" xlink:href="#me7cdff44f1" y="768.96"/>
      </g>
     </g>
     <g id="text_5">
      <!-- 1000 -->
      <g transform="translate(905.2507 783.558437)scale(0.1 -0.1)">
       <defs>
        <path d="M 12.40625 8.296875 
L 28.515625 8.296875 
L 28.515625 63.921875 
L 10.984375 60.40625 
L 10.984375 69.390625 
L 28.421875 72.90625 
L 38.28125 72.90625 
L 38.28125 8.296875 
L 54.390625 8.296875 
L 54.390625 0 
L 12.40625 0 
z
" id="DejaVuSans-49"/>
       </defs>
       <use xlink:href="#DejaVuSans-49"/>
       <use x="63.623047" xlink:href="#DejaVuSans-48"/>
       <use x="127.246094" xlink:href="#DejaVuSans-48"/>
       <use x="190.869141" xlink:href="#DejaVuSans-48"/>
      </g>
     </g>
    </g>
    <g id="xtick_6">
     <g id="line2d_6">
      <g>
       <use style="stroke:#000000;stroke-width:0.8;" x="1078.251443" xlink:href="#me7cdff44f1" y="768.96"/>
      </g>
     </g>
     <g id="text_6">
      <!-- 1250 -->
      <g transform="translate(1065.526443 783.558437)scale(0.1 -0.1)">
       <use xlink:href="#DejaVuSans-49"/>
       <use x="63.623047" xlink:href="#DejaVuSans-50"/>
       <use x="127.246094" xlink:href="#DejaVuSans-53"/>
       <use x="190.869141" xlink:href="#DejaVuSans-48"/>
      </g>
     </g>
    </g>
    <g id="xtick_7">
     <g id="line2d_7">
      <g>
       <use style="stroke:#000000;stroke-width:0.8;" x="1238.527187" xlink:href="#me7cdff44f1" y="768.96"/>
      </g>
     </g>
     <g id="text_7">
      <!-- 1500 -->
      <g transform="translate(1225.802187 783.558437)scale(0.1 -0.1)">
       <use xlink:href="#DejaVuSans-49"/>
       <use x="63.623047" xlink:href="#DejaVuSans-53"/>
       <use x="127.246094" xlink:href="#DejaVuSans-48"/>
       <use x="190.869141" xlink:href="#DejaVuSans-48"/>
      </g>
     </g>
    </g>
    <g id="xtick_8">
     <g id="line2d_8">
      <g>
       <use style="stroke:#000000;stroke-width:0.8;" x="1398.80293" xlink:href="#me7cdff44f1" y="768.96"/>
      </g>
     </g>
     <g id="text_8">
      <!-- 1750 -->
      <g transform="translate(1386.07793 783.558437)scale(0.1 -0.1)">
       <use xlink:href="#DejaVuSans-49"/>
       <use x="63.623047" xlink:href="#DejaVuSans-55"/>
       <use x="127.246094" xlink:href="#DejaVuSans-53"/>
       <use x="190.869141" xlink:href="#DejaVuSans-48"/>
      </g>
     </g>
    </g>
    <g id="text_9">
     <!-- Vector length -->
     <g transform="translate(852.139844 797.236562)scale(0.1 -0.1)">
      <defs>
       <path d="M 28.609375 0 
L 0.78125 72.90625 
L 11.078125 72.90625 
L 34.1875 11.53125 
L 57.328125 72.90625 
L 67.578125 72.90625 
L 39.796875 0 
z
" id="DejaVuSans-86"/>
       <path d="M 56.203125 29.59375 
L 56.203125 25.203125 
L 14.890625 25.203125 
Q 15.484375 15.921875 20.484375 11.0625 
Q 25.484375 6.203125 34.421875 6.203125 
Q 39.59375 6.203125 44.453125 7.46875 
Q 49.3125 8.734375 54.109375 11.28125 
L 54.109375 2.78125 
Q 49.265625 0.734375 44.1875 -0.34375 
Q 39.109375 -1.421875 33.890625 -1.421875 
Q 20.796875 -1.421875 13.15625 6.1875 
Q 5.515625 13.8125 5.515625 26.8125 
Q 5.515625 40.234375 12.765625 48.109375 
Q 20.015625 56 32.328125 56 
Q 43.359375 56 49.78125 48.890625 
Q 56.203125 41.796875 56.203125 29.59375 
z
M 47.21875 32.234375 
Q 47.125 39.59375 43.09375 43.984375 
Q 39.0625 48.390625 32.421875 48.390625 
Q 24.90625 48.390625 20.390625 44.140625 
Q 15.875 39.890625 15.1875 32.171875 
z
" id="DejaVuSans-101"/>
       <path d="M 48.78125 52.59375 
L 48.78125 44.1875 
Q 44.96875 46.296875 41.140625 47.34375 
Q 37.3125 48.390625 33.40625 48.390625 
Q 24.65625 48.390625 19.8125 42.84375 
Q 14.984375 37.3125 14.984375 27.296875 
Q 14.984375 17.28125 19.8125 11.734375 
Q 24.65625 6.203125 33.40625 6.203125 
Q 37.3125 6.203125 41.140625 7.25 
Q 44.96875 8.296875 48.78125 10.40625 
L 48.78125 2.09375 
Q 45.015625 0.34375 40.984375 -0.53125 
Q 36.96875 -1.421875 32.421875 -1.421875 
Q 20.0625 -1.421875 12.78125 6.34375 
Q 5.515625 14.109375 5.515625 27.296875 
Q 5.515625 40.671875 12.859375 48.328125 
Q 20.21875 56 33.015625 56 
Q 37.15625 56 41.109375 55.140625 
Q 45.0625 54.296875 48.78125 52.59375 
z
" id="DejaVuSans-99"/>
       <path d="M 18.3125 70.21875 
L 18.3125 54.6875 
L 36.8125 54.6875 
L 36.8125 47.703125 
L 18.3125 47.703125 
L 18.3125 18.015625 
Q 18.3125 11.328125 20.140625 9.421875 
Q 21.96875 7.515625 27.59375 7.515625 
L 36.8125 7.515625 
L 36.8125 0 
L 27.59375 0 
Q 17.1875 0 13.234375 3.875 
Q 9.28125 7.765625 9.28125 18.015625 
L 9.28125 47.703125 
L 2.6875 47.703125 
L 2.6875 54.6875 
L 9.28125 54.6875 
L 9.28125 70.21875 
z
" id="DejaVuSans-116"/>
       <path d="M 30.609375 48.390625 
Q 23.390625 48.390625 19.1875 42.75 
Q 14.984375 37.109375 14.984375 27.296875 
Q 14.984375 17.484375 19.15625 11.84375 
Q 23.34375 6.203125 30.609375 6.203125 
Q 37.796875 6.203125 41.984375 11.859375 
Q 46.1875 17.53125 46.1875 27.296875 
Q 46.1875 37.015625 41.984375 42.703125 
Q 37.796875 48.390625 30.609375 48.390625 
z
M 30.609375 56 
Q 42.328125 56 49.015625 48.375 
Q 55.71875 40.765625 55.71875 27.296875 
Q 55.71875 13.875 49.015625 6.21875 
Q 42.328125 -1.421875 30.609375 -1.421875 
Q 18.84375 -1.421875 12.171875 6.21875 
Q 5.515625 13.875 5.515625 27.296875 
Q 5.515625 40.765625 12.171875 48.375 
Q 18.84375 56 30.609375 56 
z
" id="DejaVuSans-111"/>
       <path d="M 41.109375 46.296875 
Q 39.59375 47.171875 37.8125 47.578125 
Q 36.03125 48 33.890625 48 
Q 26.265625 48 22.1875 43.046875 
Q 18.109375 38.09375 18.109375 28.8125 
L 18.109375 0 
L 9.078125 0 
L 9.078125 54.6875 
L 18.109375 54.6875 
L 18.109375 46.1875 
Q 20.953125 51.171875 25.484375 53.578125 
Q 30.03125 56 36.53125 56 
Q 37.453125 56 38.578125 55.875 
Q 39.703125 55.765625 41.0625 55.515625 
z
" id="DejaVuSans-114"/>
       <path id="DejaVuSans-32"/>
       <path d="M 9.421875 75.984375 
L 18.40625 75.984375 
L 18.40625 0 
L 9.421875 0 
z
" id="DejaVuSans-108"/>
       <path d="M 54.890625 33.015625 
L 54.890625 0 
L 45.90625 0 
L 45.90625 32.71875 
Q 45.90625 40.484375 42.875 44.328125 
Q 39.84375 48.1875 33.796875 48.1875 
Q 26.515625 48.1875 22.3125 43.546875 
Q 18.109375 38.921875 18.109375 30.90625 
L 18.109375 0 
L 9.078125 0 
L 9.078125 54.6875 
L 18.109375 54.6875 
L 18.109375 46.1875 
Q 21.34375 51.125 25.703125 53.5625 
Q 30.078125 56 35.796875 56 
Q 45.21875 56 50.046875 50.171875 
Q 54.890625 44.34375 54.890625 33.015625 
z
" id="DejaVuSans-110"/>
       <path d="M 45.40625 27.984375 
Q 45.40625 37.75 41.375 43.109375 
Q 37.359375 48.484375 30.078125 48.484375 
Q 22.859375 48.484375 18.828125 43.109375 
Q 14.796875 37.75 14.796875 27.984375 
Q 14.796875 18.265625 18.828125 12.890625 
Q 22.859375 7.515625 30.078125 7.515625 
Q 37.359375 7.515625 41.375 12.890625 
Q 45.40625 18.265625 45.40625 27.984375 
z
M 54.390625 6.78125 
Q 54.390625 -7.171875 48.1875 -13.984375 
Q 42 -20.796875 29.203125 -20.796875 
Q 24.46875 -20.796875 20.265625 -20.09375 
Q 16.0625 -19.390625 12.109375 -17.921875 
L 12.109375 -9.1875 
Q 16.0625 -11.328125 19.921875 -12.34375 
Q 23.78125 -13.375 27.78125 -13.375 
Q 36.625 -13.375 41.015625 -8.765625 
Q 45.40625 -4.15625 45.40625 5.171875 
L 45.40625 9.625 
Q 42.625 4.78125 38.28125 2.390625 
Q 33.9375 0 27.875 0 
Q 17.828125 0 11.671875 7.65625 
Q 5.515625 15.328125 5.515625 27.984375 
Q 5.515625 40.671875 11.671875 48.328125 
Q 17.828125 56 27.875 56 
Q 33.9375 56 38.28125 53.609375 
Q 42.625 51.21875 45.40625 46.390625 
L 45.40625 54.6875 
L 54.390625 54.6875 
z
" id="DejaVuSans-103"/>
       <path d="M 54.890625 33.015625 
L 54.890625 0 
L 45.90625 0 
L 45.90625 32.71875 
Q 45.90625 40.484375 42.875 44.328125 
Q 39.84375 48.1875 33.796875 48.1875 
Q 26.515625 48.1875 22.3125 43.546875 
Q 18.109375 38.921875 18.109375 30.90625 
L 18.109375 0 
L 9.078125 0 
L 9.078125 75.984375 
L 18.109375 75.984375 
L 18.109375 46.1875 
Q 21.34375 51.125 25.703125 53.5625 
Q 30.078125 56 35.796875 56 
Q 45.21875 56 50.046875 50.171875 
Q 54.890625 44.34375 54.890625 33.015625 
z
" id="DejaVuSans-104"/>
      </defs>
      <use xlink:href="#DejaVuSans-86"/>
      <use x="60.658203" xlink:href="#DejaVuSans-101"/>
      <use x="122.181641" xlink:href="#DejaVuSans-99"/>
      <use x="177.162109" xlink:href="#DejaVuSans-116"/>
      <use x="216.371094" xlink:href="#DejaVuSans-111"/>
      <use x="277.552734" xlink:href="#DejaVuSans-114"/>
      <use x="318.666016" xlink:href="#DejaVuSans-32"/>
      <use x="350.453125" xlink:href="#DejaVuSans-108"/>
      <use x="378.236328" xlink:href="#DejaVuSans-101"/>
      <use x="439.759766" xlink:href="#DejaVuSans-110"/>
      <use x="503.138672" xlink:href="#DejaVuSans-103"/>
      <use x="566.615234" xlink:href="#DejaVuSans-116"/>
      <use x="605.824219" xlink:href="#DejaVuSans-104"/>
     </g>
    </g>
   </g>
   <g id="matplotlib.axis_2">
    <g id="ytick_1">
     <g id="line2d_9">
      <defs>
       <path d="M 0 0 
L -3.5 0 
" id="mde0d5e2f85" style="stroke:#000000;stroke-width:0.8;"/>
      </defs>
      <g>
       <use style="stroke:#000000;stroke-width:0.8;" x="216" xlink:href="#mde0d5e2f85" y="738.770878"/>
      </g>
     </g>
     <g id="text_10">
      <!-- 0.0 -->
      <g transform="translate(193.096875 742.570096)scale(0.1 -0.1)">
       <defs>
        <path d="M 10.6875 12.40625 
L 21 12.40625 
L 21 0 
L 10.6875 0 
z
" id="DejaVuSans-46"/>
       </defs>
       <use xlink:href="#DejaVuSans-48"/>
       <use x="63.623047" xlink:href="#DejaVuSans-46"/>
       <use x="95.410156" xlink:href="#DejaVuSans-48"/>
      </g>
     </g>
    </g>
    <g id="ytick_2">
     <g id="line2d_10">
      <g>
       <use style="stroke:#000000;stroke-width:0.8;" x="216" xlink:href="#mde0d5e2f85" y="627.355486"/>
      </g>
     </g>
     <g id="text_11">
      <!-- 0.1 -->
      <g transform="translate(193.096875 631.154705)scale(0.1 -0.1)">
       <use xlink:href="#DejaVuSans-48"/>
       <use x="63.623047" xlink:href="#DejaVuSans-46"/>
       <use x="95.410156" xlink:href="#DejaVuSans-49"/>
      </g>
     </g>
    </g>
    <g id="ytick_3">
     <g id="line2d_11">
      <g>
       <use style="stroke:#000000;stroke-width:0.8;" x="216" xlink:href="#mde0d5e2f85" y="515.940095"/>
      </g>
     </g>
     <g id="text_12">
      <!-- 0.2 -->
      <g transform="translate(193.096875 519.739314)scale(0.1 -0.1)">
       <use xlink:href="#DejaVuSans-48"/>
       <use x="63.623047" xlink:href="#DejaVuSans-46"/>
       <use x="95.410156" xlink:href="#DejaVuSans-50"/>
      </g>
     </g>
    </g>
    <g id="ytick_4">
     <g id="line2d_12">
      <g>
       <use style="stroke:#000000;stroke-width:0.8;" x="216" xlink:href="#mde0d5e2f85" y="404.524704"/>
      </g>
     </g>
     <g id="text_13">
      <!-- 0.3 -->
      <g transform="translate(193.096875 408.323923)scale(0.1 -0.1)">
       <defs>
        <path d="M 40.578125 39.3125 
Q 47.65625 37.796875 51.625 33 
Q 55.609375 28.21875 55.609375 21.1875 
Q 55.609375 10.40625 48.1875 4.484375 
Q 40.765625 -1.421875 27.09375 -1.421875 
Q 22.515625 -1.421875 17.65625 -0.515625 
Q 12.796875 0.390625 7.625 2.203125 
L 7.625 11.71875 
Q 11.71875 9.328125 16.59375 8.109375 
Q 21.484375 6.890625 26.8125 6.890625 
Q 36.078125 6.890625 40.9375 10.546875 
Q 45.796875 14.203125 45.796875 21.1875 
Q 45.796875 27.640625 41.28125 31.265625 
Q 36.765625 34.90625 28.71875 34.90625 
L 20.21875 34.90625 
L 20.21875 43.015625 
L 29.109375 43.015625 
Q 36.375 43.015625 40.234375 45.921875 
Q 44.09375 48.828125 44.09375 54.296875 
Q 44.09375 59.90625 40.109375 62.90625 
Q 36.140625 65.921875 28.71875 65.921875 
Q 24.65625 65.921875 20.015625 65.03125 
Q 15.375 64.15625 9.8125 62.3125 
L 9.8125 71.09375 
Q 15.4375 72.65625 20.34375 73.4375 
Q 25.25 74.21875 29.59375 74.21875 
Q 40.828125 74.21875 47.359375 69.109375 
Q 53.90625 64.015625 53.90625 55.328125 
Q 53.90625 49.265625 50.4375 45.09375 
Q 46.96875 40.921875 40.578125 39.3125 
z
" id="DejaVuSans-51"/>
       </defs>
       <use xlink:href="#DejaVuSans-48"/>
       <use x="63.623047" xlink:href="#DejaVuSans-46"/>
       <use x="95.410156" xlink:href="#DejaVuSans-51"/>
      </g>
     </g>
    </g>
    <g id="ytick_5">
     <g id="line2d_13">
      <g>
       <use style="stroke:#000000;stroke-width:0.8;" x="216" xlink:href="#mde0d5e2f85" y="293.109313"/>
      </g>
     </g>
     <g id="text_14">
      <!-- 0.4 -->
      <g transform="translate(193.096875 296.908532)scale(0.1 -0.1)">
       <defs>
        <path d="M 37.796875 64.3125 
L 12.890625 25.390625 
L 37.796875 25.390625 
z
M 35.203125 72.90625 
L 47.609375 72.90625 
L 47.609375 25.390625 
L 58.015625 25.390625 
L 58.015625 17.1875 
L 47.609375 17.1875 
L 47.609375 0 
L 37.796875 0 
L 37.796875 17.1875 
L 4.890625 17.1875 
L 4.890625 26.703125 
z
" id="DejaVuSans-52"/>
       </defs>
       <use xlink:href="#DejaVuSans-48"/>
       <use x="63.623047" xlink:href="#DejaVuSans-46"/>
       <use x="95.410156" xlink:href="#DejaVuSans-52"/>
      </g>
     </g>
    </g>
    <g id="ytick_6">
     <g id="line2d_14">
      <g>
       <use style="stroke:#000000;stroke-width:0.8;" x="216" xlink:href="#mde0d5e2f85" y="181.693922"/>
      </g>
     </g>
     <g id="text_15">
      <!-- 0.5 -->
      <g transform="translate(193.096875 185.493141)scale(0.1 -0.1)">
       <use xlink:href="#DejaVuSans-48"/>
       <use x="63.623047" xlink:href="#DejaVuSans-46"/>
       <use x="95.410156" xlink:href="#DejaVuSans-53"/>
      </g>
     </g>
    </g>
    <g id="text_16">
     <!-- Time, ms -->
     <g transform="translate(187.017188 459.206719)rotate(-90)scale(0.1 -0.1)">
      <defs>
       <path d="M -0.296875 72.90625 
L 61.375 72.90625 
L 61.375 64.59375 
L 35.5 64.59375 
L 35.5 0 
L 25.59375 0 
L 25.59375 64.59375 
L -0.296875 64.59375 
z
" id="DejaVuSans-84"/>
       <path d="M 9.421875 54.6875 
L 18.40625 54.6875 
L 18.40625 0 
L 9.421875 0 
z
M 9.421875 75.984375 
L 18.40625 75.984375 
L 18.40625 64.59375 
L 9.421875 64.59375 
z
" id="DejaVuSans-105"/>
       <path d="M 52 44.1875 
Q 55.375 50.25 60.0625 53.125 
Q 64.75 56 71.09375 56 
Q 79.640625 56 84.28125 50.015625 
Q 88.921875 44.046875 88.921875 33.015625 
L 88.921875 0 
L 79.890625 0 
L 79.890625 32.71875 
Q 79.890625 40.578125 77.09375 44.375 
Q 74.3125 48.1875 68.609375 48.1875 
Q 61.625 48.1875 57.5625 43.546875 
Q 53.515625 38.921875 53.515625 30.90625 
L 53.515625 0 
L 44.484375 0 
L 44.484375 32.71875 
Q 44.484375 40.625 41.703125 44.40625 
Q 38.921875 48.1875 33.109375 48.1875 
Q 26.21875 48.1875 22.15625 43.53125 
Q 18.109375 38.875 18.109375 30.90625 
L 18.109375 0 
L 9.078125 0 
L 9.078125 54.6875 
L 18.109375 54.6875 
L 18.109375 46.1875 
Q 21.1875 51.21875 25.484375 53.609375 
Q 29.78125 56 35.6875 56 
Q 41.65625 56 45.828125 52.96875 
Q 50 49.953125 52 44.1875 
z
" id="DejaVuSans-109"/>
       <path d="M 11.71875 12.40625 
L 22.015625 12.40625 
L 22.015625 4 
L 14.015625 -11.625 
L 7.71875 -11.625 
L 11.71875 4 
z
" id="DejaVuSans-44"/>
       <path d="M 44.28125 53.078125 
L 44.28125 44.578125 
Q 40.484375 46.53125 36.375 47.5 
Q 32.28125 48.484375 27.875 48.484375 
Q 21.1875 48.484375 17.84375 46.4375 
Q 14.5 44.390625 14.5 40.28125 
Q 14.5 37.15625 16.890625 35.375 
Q 19.28125 33.59375 26.515625 31.984375 
L 29.59375 31.296875 
Q 39.15625 29.25 43.1875 25.515625 
Q 47.21875 21.78125 47.21875 15.09375 
Q 47.21875 7.46875 41.1875 3.015625 
Q 35.15625 -1.421875 24.609375 -1.421875 
Q 20.21875 -1.421875 15.453125 -0.5625 
Q 10.6875 0.296875 5.421875 2 
L 5.421875 11.28125 
Q 10.40625 8.6875 15.234375 7.390625 
Q 20.0625 6.109375 24.8125 6.109375 
Q 31.15625 6.109375 34.5625 8.28125 
Q 37.984375 10.453125 37.984375 14.40625 
Q 37.984375 18.0625 35.515625 20.015625 
Q 33.0625 21.96875 24.703125 23.78125 
L 21.578125 24.515625 
Q 13.234375 26.265625 9.515625 29.90625 
Q 5.8125 33.546875 5.8125 39.890625 
Q 5.8125 47.609375 11.28125 51.796875 
Q 16.75 56 26.8125 56 
Q 31.78125 56 36.171875 55.265625 
Q 40.578125 54.546875 44.28125 53.078125 
z
" id="DejaVuSans-115"/>
      </defs>
      <use xlink:href="#DejaVuSans-84"/>
      <use x="57.958984" xlink:href="#DejaVuSans-105"/>
      <use x="85.742188" xlink:href="#DejaVuSans-109"/>
      <use x="183.154297" xlink:href="#DejaVuSans-101"/>
      <use x="244.677734" xlink:href="#DejaVuSans-44"/>
      <use x="276.464844" xlink:href="#DejaVuSans-32"/>
      <use x="308.251953" xlink:href="#DejaVuSans-109"/>
      <use x="405.664062" xlink:href="#DejaVuSans-115"/>
     </g>
    </g>
   </g>
   <g id="line2d_15">
    <path clip-path="url(#pea05dae708)" d="M 276.872727 736.380163 
L 277.51383 737.442703 
L 278.154933 737.708338 
L 278.796036 737.442703 
L 279.437139 737.708338 
L 280.078242 737.442703 
L 280.719345 736.645798 
L 281.360448 737.708338 
L 282.642654 737.708338 
L 283.283757 736.645798 
L 284.565963 736.645798 
L 285.207066 736.911433 
L 286.489272 736.380163 
L 287.130375 735.317623 
L 289.053684 735.317623 
L 289.694787 731.067463 
L 290.33589 733.458178 
L 291.618096 732.926908 
L 292.259199 734.520718 
L 292.900302 733.192543 
L 293.541405 733.989448 
L 294.182508 734.520718 
L 294.823611 734.255083 
L 295.464713 732.926908 
L 296.105816 734.520718 
L 296.746919 734.255083 
L 297.388022 733.458178 
L 298.029125 732.926908 
L 299.952434 732.926908 
L 300.593537 733.192543 
L 301.875743 733.192543 
L 302.516846 732.130003 
L 303.157949 732.130003 
L 303.799052 732.926908 
L 304.440155 732.130003 
L 305.081258 728.942383 
L 305.722361 731.864368 
L 306.363464 731.864368 
L 307.004567 731.067463 
L 307.64567 730.801828 
L 308.286773 731.067463 
L 310.851185 731.067463 
L 311.492288 730.004923 
L 312.133391 730.004923 
L 312.774494 729.473653 
L 313.415597 730.004923 
L 314.0567 729.739288 
L 314.697803 728.676748 
L 315.338906 730.004923 
L 315.980009 728.676748 
L 316.621112 728.676748 
L 317.262215 728.942383 
L 317.903318 728.676748 
L 321.108832 728.676748 
L 321.749935 727.614208 
L 322.391038 728.676748 
L 323.032141 727.614208 
L 324.95545 727.614208 
L 325.596553 726.551668 
L 326.237656 726.817303 
L 327.519862 726.286033 
L 328.160965 726.551668 
L 328.802068 726.286033 
L 329.443171 726.551668 
L 330.084274 726.551668 
L 330.725377 725.489128 
L 331.36648 725.489128 
L 332.007583 723.098413 
L 332.648686 725.489128 
L 333.289789 725.489128 
L 333.930892 724.426588 
L 334.571995 724.160953 
L 336.495304 724.160953 
L 337.136407 724.692223 
L 337.77751 724.160953 
L 338.418613 724.426588 
L 339.059716 724.160953 
L 339.700819 723.364048 
L 340.341922 723.364048 
L 340.983025 723.098413 
L 342.906333 723.098413 
L 343.547436 723.364048 
L 344.188539 723.098413 
L 344.829642 723.098413 
L 345.470745 720.973333 
L 346.111848 720.973333 
L 346.752951 722.301508 
L 347.394054 722.301508 
L 348.035157 720.707698 
L 348.67626 722.301508 
L 349.317363 720.707698 
L 349.958466 720.707698 
L 350.599569 656.42403 
L 351.240672 720.973333 
L 351.881775 720.707698 
L 352.522878 720.707698 
L 353.163981 721.238968 
L 353.805084 720.973333 
L 354.446187 720.973333 
L 355.08729 719.910793 
L 356.369496 719.910793 
L 357.010599 720.973333 
L 357.651702 719.645158 
L 358.292805 718.582618 
L 358.933908 718.848253 
L 359.575011 718.582618 
L 360.216114 715.394998 
L 360.857217 718.848253 
L 361.49832 718.848253 
L 362.139423 688.565864 
L 362.780526 718.848253 
L 363.421629 718.848253 
L 364.062732 717.520078 
L 364.703835 717.520078 
L 365.344938 718.316983 
L 365.98604 718.848253 
L 366.627143 717.520078 
L 367.268246 716.457538 
L 367.909349 717.785713 
L 368.550452 716.457538 
L 369.191555 717.520078 
L 369.832658 717.785713 
L 370.473761 717.254443 
L 371.114864 717.520078 
L 371.755967 716.457538 
L 373.038173 716.457538 
L 373.679276 715.394998 
L 374.320379 716.457538 
L 374.961482 716.457538 
L 375.602585 715.394998 
L 376.243688 716.457538 
L 376.884791 715.394998 
L 378.8081 715.394998 
L 379.449203 714.332458 
L 380.090306 715.394998 
L 380.731409 715.129363 
L 381.372512 696.534914 
L 382.013615 714.066823 
L 382.654718 715.394998 
L 383.295821 715.394998 
L 383.936924 714.332458 
L 385.860233 714.332458 
L 386.501336 709.816663 
L 387.142439 714.066823 
L 387.783542 713.004283 
L 388.424645 713.004283 
L 389.065748 713.535553 
L 389.70685 713.004283 
L 390.347953 713.269918 
L 390.989056 713.269918 
L 391.630159 711.941743 
L 392.912365 711.941743 
L 393.553468 713.269918 
L 394.194571 712.473013 
L 394.835674 711.941743 
L 395.476777 711.941743 
L 396.11788 712.207378 
L 396.758983 711.941743 
L 397.400086 695.472374 
L 398.041189 711.941743 
L 398.682292 712.207378 
L 399.323395 711.144838 
L 399.964498 710.879203 
L 400.605601 710.879203 
L 401.246704 711.144838 
L 401.887807 710.879203 
L 403.811116 710.879203 
L 404.452219 710.082298 
L 405.093322 711.144838 
L 405.734425 707.691583 
L 406.375528 706.097774 
L 407.016631 708.754123 
L 407.657734 710.082298 
L 408.298837 709.816663 
L 408.93994 707.691583 
L 411.504352 707.691583 
L 412.145455 706.363409 
L 412.786558 706.629043 
L 413.42766 707.425948 
L 414.068763 706.629043 
L 414.709866 703.175789 
L 415.350969 706.363409 
L 415.992072 706.363409 
L 416.633175 706.097774 
L 417.274278 706.629043 
L 417.915381 706.629043 
L 418.556484 706.363409 
L 419.197587 705.300869 
L 419.83869 706.097774 
L 420.479793 705.035234 
L 421.761999 705.566504 
L 422.403102 704.503964 
L 423.044205 705.300869 
L 423.685308 704.503964 
L 424.326411 705.300869 
L 424.967514 704.238329 
L 425.608617 684.050069 
L 426.24972 704.238329 
L 426.890823 704.238329 
L 427.531926 703.175789 
L 428.173029 704.238329 
L 428.814132 703.175789 
L 431.378544 703.175789 
L 432.019647 702.910154 
L 432.66075 704.238329 
L 433.942956 704.238329 
L 434.584059 702.910154 
L 435.225162 704.238329 
L 435.866265 704.238329 
L 436.507368 702.910154 
L 437.14847 599.578142 
L 437.789573 703.175789 
L 439.071779 703.175789 
L 439.712882 667.315065 
L 440.353985 703.175789 
L 440.995088 703.175789 
L 441.636191 698.659994 
L 442.277294 702.113249 
L 442.918397 685.643879 
L 443.5595 626.141641 
L 444.200603 659.61165 
L 444.841706 675.018479 
L 445.482809 695.472374 
L 446.123912 700.785074 
L 448.688324 700.785074 
L 449.329427 699.722534 
L 451.252736 699.722534 
L 451.893839 699.456899 
L 452.534942 699.456899 
L 453.176045 699.988169 
L 453.817148 699.722534 
L 454.458251 698.394359 
L 455.099354 698.659994 
L 455.740457 698.659994 
L 456.38156 697.863089 
L 457.663766 698.925629 
L 458.304869 654.033315 
L 458.945972 658.814745 
L 459.587075 693.081659 
L 460.228178 697.597454 
L 460.86928 697.331819 
L 461.510383 697.597454 
L 462.151486 696.269279 
L 462.792589 697.597454 
L 463.433692 697.863089 
L 464.074795 696.269279 
L 464.715898 697.597454 
L 465.357001 696.269279 
L 465.998104 696.269279 
L 466.639207 695.472374 
L 467.28031 696.534914 
L 467.921413 641.814105 
L 468.562516 695.206739 
L 469.203619 695.206739 
L 469.844722 689.628404 
L 470.485825 693.081659 
L 471.126928 692.816024 
L 471.768031 692.019119 
L 472.409134 688.565864 
L 473.050237 690.956579 
L 473.69134 692.019119 
L 476.255752 692.019119 
L 476.896855 690.690944 
L 477.537958 690.956579 
L 480.10237 690.956579 
L 480.743473 689.894039 
L 481.384576 689.628404 
L 482.025679 690.956579 
L 482.666782 689.894039 
L 483.307885 689.628404 
L 485.231193 689.628404 
L 485.872296 643.407915 
L 486.513399 687.768959 
L 487.154502 687.237689 
L 487.795605 617.375686 
L 488.436708 687.768959 
L 489.077811 688.565864 
L 489.718914 687.768959 
L 490.360017 687.237689 
L 491.00112 687.503324 
L 491.642223 687.503324 
L 492.283326 687.237689 
L 492.924429 687.503324 
L 493.565532 686.175149 
L 494.847738 686.706419 
L 495.488841 686.440784 
L 496.129944 681.924989 
L 496.771047 686.440784 
L 497.41215 685.378244 
L 498.053253 650.845695 
L 498.694356 682.721894 
L 499.335459 683.253164 
L 499.976562 679.799909 
L 500.617665 680.862449 
L 501.258768 682.190624 
L 501.899871 681.924989 
L 502.540974 654.033315 
L 503.182077 638.36085 
L 503.82318 642.876645 
L 504.464283 674.487209 
L 505.105386 580.452422 
L 505.746489 627.204181 
L 506.387592 482.698745 
L 507.028695 626.407276 
L 507.669798 590.812187 
L 508.3109 676.612289 
L 508.952003 677.409194 
L 509.593106 676.346654 
L 510.234209 680.862449 
L 510.875312 678.471734 
L 511.516415 667.5807 
L 512.157518 675.284114 
L 512.798621 677.409194 
L 513.439724 677.409194 
L 514.080827 678.471734 
L 514.72193 678.737369 
L 515.363033 678.737369 
L 516.004136 673.955939 
L 516.645239 670.76832 
L 517.286342 676.346654 
L 517.927445 678.737369 
L 518.568548 677.409194 
L 519.209651 676.612289 
L 519.850754 677.674829 
L 520.491857 677.409194 
L 521.774063 677.409194 
L 522.415166 663.86181 
L 523.056269 676.346654 
L 523.697372 676.346654 
L 524.338475 667.5807 
L 524.979578 649.51752 
L 525.620681 672.893399 
L 526.902887 620.563306 
L 527.54399 668.64324 
L 528.185093 672.096494 
L 528.826196 674.487209 
L 529.467299 675.549749 
L 530.108402 675.018479 
L 530.749505 675.549749 
L 531.390607 673.955939 
L 532.03171 674.221574 
L 532.672813 673.955939 
L 533.313916 674.221574 
L 534.596122 674.221574 
L 535.237225 674.487209 
L 535.878328 674.221574 
L 536.519431 672.096494 
L 537.160534 669.440145 
L 537.801637 669.70578 
L 538.44274 470.2139 
L 539.083843 563.983053 
L 539.724946 519.622009 
L 540.366049 466.760645 
L 541.007152 571.420832 
L 541.648255 543.794793 
L 542.289358 587.093297 
L 542.930461 659.877285 
L 543.571564 667.5807 
L 544.212667 667.315065 
L 544.85377 660.67419 
L 545.494873 649.783155 
L 546.135976 587.093297 
L 546.777079 595.062347 
L 547.418182 659.61165 
L 548.059285 669.70578 
L 548.700388 668.64324 
L 549.341491 655.095855 
L 549.982594 655.36149 
L 550.623697 667.315065 
L 551.2648 668.64324 
L 551.905903 641.54847 
L 552.547006 630.657436 
L 553.188109 646.064265 
L 553.829212 648.45498 
L 554.470315 665.189985 
L 555.111417 652.70514 
L 555.75252 651.908235 
L 556.393623 660.67419 
L 557.034726 667.5807 
L 557.675829 667.315065 
L 558.316932 665.189985 
L 558.958035 666.51816 
L 559.599138 646.3299 
L 560.240241 650.845695 
L 560.881344 647.658075 
L 561.522447 651.6426 
L 562.16355 663.064905 
L 562.804653 659.346015 
L 563.445756 664.92435 
L 564.086859 665.189985 
L 564.727962 665.189985 
L 565.369065 659.61165 
L 566.010168 663.86181 
L 566.651271 664.127445 
L 567.292374 657.220935 
L 567.933477 662.002365 
L 568.57458 663.064905 
L 569.215683 663.86181 
L 569.856786 663.33054 
L 570.497889 663.064905 
L 571.138992 663.064905 
L 571.780095 663.33054 
L 572.421198 662.79927 
L 573.062301 663.33054 
L 573.703404 662.002365 
L 574.344507 662.79927 
L 574.98561 662.79927 
L 575.626713 634.907596 
L 576.267816 658.54911 
L 576.908919 660.67419 
L 577.550022 661.73673 
L 578.191125 657.48657 
L 578.832227 660.939825 
L 579.47333 660.67419 
L 580.114433 660.67419 
L 580.755536 660.939825 
L 581.396639 660.408555 
L 582.037742 660.939825 
L 582.678845 660.408555 
L 583.319948 660.939825 
L 583.961051 660.939825 
L 584.602154 655.36149 
L 585.243257 656.42403 
L 585.88436 658.283475 
L 586.525463 661.73673 
L 587.166566 659.877285 
L 587.807669 659.61165 
L 588.448772 660.939825 
L 589.089875 659.61165 
L 589.730978 660.67419 
L 590.372081 659.61165 
L 591.013184 659.61165 
L 591.654287 662.002365 
L 592.29539 661.73673 
L 592.936493 546.982413 
L 593.577596 658.814745 
L 594.218699 660.939825 
L 596.142008 660.939825 
L 596.783111 659.61165 
L 597.424214 660.67419 
L 598.065317 660.67419 
L 598.70642 659.61165 
L 599.988626 659.61165 
L 600.629729 659.877285 
L 601.270832 563.717418 
L 602.553037 658.814745 
L 603.19414 658.814745 
L 603.835243 658.54911 
L 605.117449 658.54911 
L 605.758552 652.70514 
L 606.399655 658.283475 
L 607.040758 658.283475 
L 607.681861 658.54911 
L 608.322964 657.48657 
L 608.964067 657.48657 
L 609.60517 578.327342 
L 610.246273 657.48657 
L 610.887376 656.42403 
L 611.528479 657.48657 
L 612.169582 656.42403 
L 612.810685 656.158395 
L 613.451788 655.36149 
L 614.092891 655.095855 
L 614.733994 655.095855 
L 615.375097 655.36149 
L 616.0162 656.158395 
L 616.657303 655.095855 
L 617.298406 561.592338 
L 617.939509 654.29895 
L 618.580612 654.033315 
L 619.221715 655.095855 
L 620.503921 654.033315 
L 621.145024 654.033315 
L 621.786127 653.23641 
L 622.42723 654.033315 
L 623.068333 654.033315 
L 623.709436 652.970775 
L 624.350539 652.970775 
L 624.991642 558.670353 
L 625.632745 652.17387 
L 626.273847 653.23641 
L 626.91495 652.17387 
L 627.556053 653.23641 
L 628.197156 652.17387 
L 628.838259 652.17387 
L 629.479362 651.6426 
L 630.120465 651.6426 
L 630.761568 652.970775 
L 631.402671 650.845695 
L 632.043774 644.20482 
L 632.684877 629.329261 
L 633.32598 646.3299 
L 633.967083 646.3299 
L 634.608186 600.640682 
L 635.249289 605.156476 
L 635.890392 622.954021 
L 636.531495 634.110691 
L 637.172598 631.985611 
L 637.813701 625.344736 
L 638.454804 643.939185 
L 639.095907 614.188066 
L 639.73701 638.626485 
L 640.378113 644.20482 
L 641.019216 643.939185 
L 641.660319 643.939185 
L 642.301422 644.20482 
L 642.942525 644.20482 
L 643.583628 644.73609 
L 644.224731 641.0172 
L 644.865834 644.20482 
L 645.506937 620.828941 
L 646.14804 638.36085 
L 646.789143 642.876645 
L 647.430246 642.07974 
L 648.071349 642.876645 
L 648.712452 641.814105 
L 649.353555 643.14228 
L 649.994657 641.814105 
L 650.63576 607.281556 
L 651.276863 647.126805 
L 651.917966 647.39244 
L 652.559069 646.064265 
L 653.200172 556.014003 
L 653.841275 645.26736 
L 654.482378 645.26736 
L 655.123481 646.064265 
L 655.764584 645.001725 
L 656.405687 645.26736 
L 657.04679 645.26736 
L 657.687893 645.001725 
L 658.328996 645.26736 
L 658.970099 641.814105 
L 659.611202 645.26736 
L 660.252305 597.187427 
L 660.893408 632.782516 
L 661.534511 642.876645 
L 663.45782 642.876645 
L 664.098923 643.14228 
L 664.740026 642.876645 
L 666.022232 642.876645 
L 666.663335 641.0172 
L 667.304438 637.563945 
L 667.945541 641.814105 
L 671.792159 641.814105 
L 672.433262 640.48593 
L 673.074364 640.751565 
L 673.715467 562.654878 
L 674.35657 635.173231 
L 674.997673 639.95466 
L 675.638776 638.36085 
L 676.279879 639.689025 
L 676.920982 639.95466 
L 677.562085 639.42339 
L 678.203188 638.626485 
L 678.844291 639.42339 
L 679.485394 638.36085 
L 680.126497 620.828941 
L 680.7676 638.36085 
L 681.408703 639.689025 
L 682.049806 638.36085 
L 682.690909 638.626485 
L 683.332012 638.36085 
L 683.973115 643.14228 
L 684.614218 642.876645 
L 685.896424 640.751565 
L 686.537527 637.563945 
L 687.17863 640.48593 
L 687.819733 641.814105 
L 688.460836 545.919873 
L 689.101939 639.689025 
L 689.743042 640.751565 
L 690.384145 638.36085 
L 691.025248 637.563945 
L 691.666351 638.626485 
L 692.307454 635.970136 
L 692.948557 634.907596 
L 693.58966 636.235771 
L 694.230763 624.282196 
L 694.871866 636.235771 
L 695.512969 633.845056 
L 696.154072 523.606534 
L 696.795174 590.546552 
L 697.436277 616.047511 
L 698.07738 635.173231 
L 698.718483 626.141641 
L 699.359586 567.170673 
L 700.000689 633.048151 
L 700.641792 631.719976 
L 701.282895 633.048151 
L 701.923998 634.110691 
L 702.565101 634.110691 
L 703.206204 633.048151 
L 703.847307 633.048151 
L 704.48841 614.984971 
L 705.129513 631.719976 
L 705.770616 633.048151 
L 706.411719 630.657436 
L 707.052822 631.719976 
L 707.693925 633.048151 
L 708.335028 630.657436 
L 708.976131 631.719976 
L 710.258337 631.719976 
L 710.89944 631.985611 
L 711.540543 630.657436 
L 712.181646 630.657436 
L 712.822749 622.954021 
L 713.463852 630.657436 
L 714.104955 629.594896 
L 714.746058 629.594896 
L 715.387161 630.657436 
L 716.028264 634.110691 
L 716.669367 634.110691 
L 717.31047 633.048151 
L 717.951573 633.048151 
L 718.592676 634.110691 
L 719.233779 633.048151 
L 719.874882 633.048151 
L 720.515984 632.782516 
L 721.157087 594.265442 
L 721.79819 630.657436 
L 722.439293 578.327342 
L 723.080396 613.125526 
L 723.721499 620.828941 
L 724.362602 630.657436 
L 725.003705 631.719976 
L 725.644808 631.985611 
L 726.285911 630.657436 
L 726.927014 631.985611 
L 727.568117 631.985611 
L 728.20922 631.719976 
L 728.850323 626.141641 
L 729.491426 595.062347 
L 730.132529 624.813466 
L 730.773632 603.031396 
L 731.414735 602.765761 
L 732.055838 621.891481 
L 732.696941 625.079101 
L 733.338044 622.954021 
L 733.979147 619.500766 
L 734.62025 625.344736 
L 735.261353 622.954021 
L 735.902456 624.282196 
L 736.543559 620.828941 
L 737.184662 622.688386 
L 737.825765 616.047511 
L 738.466868 618.438226 
L 739.107971 621.891481 
L 739.749074 557.076543 
L 740.390177 609.672271 
L 741.03128 607.281556 
L 741.672383 612.594256 
L 742.313486 593.999807 
L 742.954589 587.358932 
L 743.595692 613.125526 
L 744.236794 606.219016 
L 744.877897 618.438226 
L 745.519 617.375686 
L 746.160103 619.500766 
L 746.801206 617.375686 
L 747.442309 617.375686 
L 748.083412 548.310588 
L 748.724515 528.387964 
L 749.365618 595.062347 
L 750.006721 607.281556 
L 750.647824 617.375686 
L 751.288927 618.703861 
L 751.93003 619.500766 
L 752.571133 620.563306 
L 753.212236 619.500766 
L 753.853339 581.780597 
L 754.494442 619.500766 
L 755.776648 619.500766 
L 756.417751 612.859891 
L 757.058854 618.172591 
L 757.699957 595.062347 
L 758.34106 595.062347 
L 758.982163 616.313146 
L 759.623266 618.703861 
L 760.264369 618.438226 
L 760.905472 617.641321 
L 761.546575 617.110051 
L 762.187678 618.438226 
L 762.828781 617.375686 
L 763.469884 617.110051 
L 764.110987 617.375686 
L 765.393193 617.375686 
L 766.034296 612.594256 
L 766.675399 596.390522 
L 767.316502 610.734811 
L 767.957604 616.047511 
L 768.598707 600.375047 
L 769.23981 614.984971 
L 769.880913 548.044953 
L 770.522016 614.188066 
L 771.804222 614.188066 
L 772.445325 614.984971 
L 773.086428 614.984971 
L 773.727531 610.734811 
L 774.368634 586.827662 
L 775.009737 601.703222 
L 775.65084 583.905677 
L 776.291943 607.281556 
L 776.933046 614.188066 
L 777.574149 613.922431 
L 778.215252 612.594256 
L 778.856355 611.531716 
L 779.497458 610.734811 
L 780.138561 607.281556 
L 780.779664 611.531716 
L 781.420767 607.281556 
L 782.06187 611.797351 
L 782.702973 618.703861 
L 783.344076 618.438226 
L 783.985179 617.375686 
L 784.626282 618.172591 
L 785.267385 617.375686 
L 785.908488 617.641321 
L 786.549591 617.375686 
L 787.831797 617.375686 
L 788.4729 617.110051 
L 789.114003 617.110051 
L 789.755106 616.047511 
L 790.396209 617.375686 
L 791.037312 616.313146 
L 791.678414 609.672271 
L 792.319517 608.344096 
L 792.96062 592.671632 
L 793.601723 609.406636 
L 794.242826 615.250606 
L 794.883929 614.188066 
L 795.525032 614.984971 
L 796.166135 613.922431 
L 796.807238 608.344096 
L 797.448341 615.250606 
L 798.089444 612.859891 
L 798.730547 613.922431 
L 799.37165 576.202262 
L 800.012753 611.531716 
L 800.653856 591.874727 
L 801.294959 500.496289 
L 801.936062 606.219016 
L 802.577165 608.344096 
L 803.218268 598.249967 
L 803.859371 606.219016 
L 804.500474 547.248048 
L 805.141577 601.703222 
L 805.78268 603.828301 
L 806.423783 604.890841 
L 807.064886 606.219016 
L 807.705989 597.187427 
L 808.347092 612.062986 
L 808.988195 612.594256 
L 809.629298 611.531716 
L 810.270401 611.797351 
L 812.19371 611.797351 
L 812.834813 610.734811 
L 814.117019 610.734811 
L 814.758121 610.469176 
L 815.399224 611.531716 
L 816.040327 610.203541 
L 816.68143 609.672271 
L 817.322533 609.406636 
L 817.963636 558.404718 
L 818.604739 602.500126 
L 819.245842 601.437587 
L 819.886945 607.281556 
L 820.528048 607.281556 
L 821.169151 608.609731 
L 821.810254 608.344096 
L 823.733563 608.344096 
L 824.374666 607.281556 
L 825.015769 599.578142 
L 825.656872 607.281556 
L 826.297975 607.281556 
L 826.939078 605.953381 
L 827.580181 607.281556 
L 828.862387 607.281556 
L 829.50349 605.953381 
L 830.144593 605.953381 
L 831.426799 606.484651 
L 832.067902 559.467258 
L 832.709005 605.156476 
L 833.350108 606.484651 
L 833.991211 606.219016 
L 834.632314 605.422111 
L 835.273417 405.664597 
L 835.91452 573.811547 
L 836.555623 599.312507 
L 837.196726 598.249967 
L 837.837829 598.249967 
L 838.478931 598.515602 
L 839.761137 598.515602 
L 840.40224 596.124887 
L 841.043343 598.249967 
L 841.684446 598.515602 
L 842.325549 598.249967 
L 842.966652 598.515602 
L 843.607755 598.249967 
L 844.248858 604.093936 
L 844.889961 602.500126 
L 845.531064 602.765761 
L 846.81327 602.765761 
L 847.454373 603.031396 
L 848.736579 602.500126 
L 849.377682 537.153918 
L 850.018785 601.703222 
L 850.659888 604.890841 
L 851.300991 566.108133 
L 851.942094 601.703222 
L 852.583197 600.640682 
L 853.2243 600.640682 
L 853.865403 595.327982 
L 854.506506 598.515602 
L 855.147609 585.233852 
L 855.788712 598.515602 
L 856.429815 598.515602 
L 857.070918 597.187427 
L 857.712021 600.640682 
L 858.353124 597.187427 
L 858.994227 597.453062 
L 859.63533 597.187427 
L 860.276433 599.578142 
L 860.917536 597.453062 
L 861.558639 589.218377 
L 862.199741 596.124887 
L 862.840844 596.124887 
L 863.481947 596.390522 
L 864.12305 578.327342 
L 864.764153 595.062347 
L 865.405256 596.124887 
L 866.046359 595.062347 
L 866.687462 595.327982 
L 867.328565 595.062347 
L 867.969668 558.404718 
L 868.610771 593.734172 
L 869.251874 591.874727 
L 869.892977 593.734172 
L 870.53408 591.874727 
L 871.175183 593.999807 
L 871.816286 593.734172 
L 872.457389 590.812187 
L 873.098492 593.999807 
L 873.739595 592.937267 
L 874.380698 589.484012 
L 875.021801 592.671632 
L 875.662904 592.937267 
L 876.304007 592.671632 
L 876.94511 544.857333 
L 877.586213 596.124887 
L 878.227316 597.187427 
L 878.868419 592.671632 
L 879.509522 593.999807 
L 880.150625 587.093297 
L 880.791728 593.734172 
L 881.432831 588.421472 
L 882.073934 593.734172 
L 882.715037 592.671632 
L 883.35614 593.734172 
L 883.997243 592.937267 
L 884.638346 592.671632 
L 885.279449 455.869611 
L 885.920551 523.606534 
L 886.561654 463.573026 
L 887.202757 426.915397 
L 887.84386 495.980495 
L 888.484963 536.091378 
L 889.126066 588.155837 
L 889.767169 591.609092 
L 890.408272 579.389882 
L 891.049375 580.718057 
L 892.331581 584.968217 
L 892.972684 584.968217 
L 893.613787 583.905677 
L 894.25489 584.968217 
L 894.895993 583.905677 
L 895.537096 583.640042 
L 896.178199 583.905677 
L 896.819302 582.843137 
L 897.460405 583.905677 
L 898.101508 582.843137 
L 898.742611 583.905677 
L 899.383714 582.843137 
L 900.024817 582.577502 
L 900.66592 551.763843 
L 901.307023 583.108772 
L 901.948126 583.905677 
L 902.589229 581.514962 
L 903.230332 574.874087 
L 903.871435 565.842498 
L 904.512538 581.780597 
L 905.153641 578.061707 
L 905.794744 578.327342 
L 906.435847 574.077182 
L 907.07695 576.202262 
L 907.718053 568.233212 
L 908.359156 577.264802 
L 909.000259 577.264802 
L 909.641361 577.530437 
L 910.282464 576.202262 
L 910.923567 572.749007 
L 911.56467 575.139722 
L 912.205773 576.202262 
L 913.487979 576.202262 
L 914.129082 570.358292 
L 914.770185 574.874087 
L 915.411288 575.139722 
L 916.052391 517.231294 
L 916.693494 569.827022 
L 917.334597 568.498847 
L 917.9757 571.686467 
L 918.616803 583.905677 
L 919.257906 584.171312 
L 919.899009 586.030757 
L 920.540112 506.871529 
L 921.181215 581.514962 
L 921.822318 582.577502 
L 922.463421 583.905677 
L 923.104524 562.389243 
L 923.745627 583.905677 
L 924.38673 501.558829 
L 925.027833 444.712941 
L 925.668936 582.843137 
L 926.310039 551.763843 
L 926.951142 533.966298 
L 927.592245 568.233212 
L 928.233348 574.608452 
L 928.874451 574.874087 
L 929.515554 574.874087 
L 930.156657 574.077182 
L 930.79776 574.077182 
L 931.438863 562.920513 
L 932.079966 574.077182 
L 932.721069 574.077182 
L 933.362171 571.686467 
L 934.003274 574.874087 
L 934.644377 570.358292 
L 935.28548 574.077182 
L 935.926583 573.811547 
L 936.567686 580.452422 
L 938.490995 580.452422 
L 939.132098 580.718057 
L 939.773201 579.389882 
L 940.414304 579.389882 
L 941.055407 579.124247 
L 941.69651 580.452422 
L 942.337613 579.389882 
L 942.978716 579.655517 
L 943.619819 578.592977 
L 944.260922 578.327342 
L 944.902025 579.124247 
L 945.543128 578.061707 
L 946.184231 578.592977 
L 946.825334 579.655517 
L 947.466437 578.061707 
L 948.10754 578.327342 
L 948.748643 578.061707 
L 949.389746 577.530437 
L 950.030849 578.327342 
L 950.671952 576.999167 
L 951.313055 578.327342 
L 951.954158 577.264802 
L 952.595261 580.452422 
L 953.236364 503.683909 
L 953.877467 581.514962 
L 955.159673 579.389882 
L 955.800776 409.914757 
L 956.441879 571.686467 
L 957.082981 576.202262 
L 957.724084 576.202262 
L 958.365187 574.874087 
L 959.00629 468.08882 
L 959.647393 575.139722 
L 960.288496 574.608452 
L 960.929599 575.139722 
L 961.570702 575.139722 
L 962.211805 576.202262 
L 962.852908 574.874087 
L 963.494011 568.233212 
L 964.135114 575.139722 
L 964.776217 573.811547 
L 965.41732 574.077182 
L 966.058423 565.842498 
L 966.699526 572.749007 
L 967.340629 573.014642 
L 967.981732 572.749007 
L 969.263938 572.749007 
L 969.905041 571.420832 
L 970.546144 572.749007 
L 971.187247 571.686467 
L 971.82835 571.686467 
L 972.469453 576.202262 
L 973.110556 574.874087 
L 973.751659 574.077182 
L 975.033865 575.139722 
L 976.316071 575.139722 
L 976.957174 574.077182 
L 977.598277 573.545912 
L 978.23938 574.077182 
L 978.880483 572.749007 
L 979.521586 573.811547 
L 980.162688 574.077182 
L 980.803791 573.811547 
L 982.085997 573.811547 
L 982.7271 572.483372 
L 983.368203 572.749007 
L 984.650409 572.749007 
L 985.291512 571.686467 
L 985.932615 571.686467 
L 986.573718 572.749007 
L 987.214821 570.623927 
L 987.855924 571.686467 
L 988.497027 568.233212 
L 989.13813 571.686467 
L 989.779233 566.373768 
L 990.420336 571.686467 
L 991.061439 571.686467 
L 991.702542 535.825743 
L 992.343645 492.792875 
L 992.984748 565.045593 
L 993.625851 567.436308 
L 994.266954 566.108133 
L 996.190263 566.108133 
L 996.831366 565.045593 
L 997.472469 565.045593 
L 998.113572 566.373768 
L 998.754675 565.045593 
L 999.395778 565.045593 
L 1000.036881 563.983053 
L 1000.677984 564.779958 
L 1001.319087 559.467258 
L 1001.96019 560.264163 
L 1002.601293 563.717418 
L 1003.242396 564.779958 
L 1003.883498 563.717418 
L 1004.524601 563.983053 
L 1005.165704 564.779958 
L 1005.806807 562.389243 
L 1006.44791 563.983053 
L 1007.089013 557.076543 
L 1007.730116 566.108133 
L 1008.371219 565.311228 
L 1009.012322 567.436308 
L 1009.653425 566.108133 
L 1010.294528 566.108133 
L 1010.935631 545.919873 
L 1011.576734 561.592338 
L 1012.217837 561.592338 
L 1012.85894 562.920513 
L 1013.500043 561.592338 
L 1014.141146 557.342178 
L 1014.782249 558.139083 
L 1015.423352 548.310588 
L 1016.064455 553.888923 
L 1016.705558 557.076543 
L 1017.346661 491.4647 
L 1017.987764 538.482093 
L 1018.628867 516.965659 
L 1019.26997 563.717418 
L 1019.911073 558.404718 
L 1020.552176 559.467258 
L 1021.193279 559.732893 
L 1021.834382 558.139083 
L 1022.475485 559.201623 
L 1023.116588 550.435668 
L 1023.757691 546.185508 
L 1024.398794 538.216458 
L 1025.039897 540.341538 
L 1026.322103 540.341538 
L 1026.963206 541.404078 
L 1027.604308 539.544633 
L 1028.245411 541.404078 
L 1028.886514 540.341538 
L 1030.16872 540.341538 
L 1030.809823 540.607173 
L 1031.450926 540.607173 
L 1032.092029 538.216458 
L 1032.733132 539.544633 
L 1033.374235 534.763203 
L 1034.015338 538.216458 
L 1034.656441 539.278998 
L 1035.297544 540.607173 
L 1036.57975 544.060428 
L 1037.220853 543.794793 
L 1037.861956 542.466618 
L 1038.503059 542.732253 
L 1039.144162 547.248048 
L 1039.785265 554.685828 
L 1040.426368 558.139083 
L 1041.708574 558.139083 
L 1042.349677 518.293834 
L 1042.99078 558.139083 
L 1043.631883 550.435668 
L 1044.272986 558.670353 
L 1044.914089 558.404718 
L 1045.555192 557.076543 
L 1046.196295 558.404718 
L 1046.837398 557.076543 
L 1047.478501 552.826383 
L 1048.760707 552.295113 
L 1049.40181 528.122329 
L 1050.042913 552.826383 
L 1050.684016 552.826383 
L 1051.325118 551.498208 
L 1051.966221 551.763843 
L 1052.607324 556.014003 
L 1053.248427 555.748368 
L 1053.88953 556.279638 
L 1054.530633 556.014003 
L 1055.171736 555.217098 
L 1056.453942 554.685828 
L 1057.095045 554.685828 
L 1057.736148 553.888923 
L 1058.377251 545.919873 
L 1059.018354 554.951463 
L 1059.659457 554.685828 
L 1060.30056 554.685828 
L 1061.582766 555.217098 
L 1062.864972 554.685828 
L 1063.506075 553.623288 
L 1064.788281 553.623288 
L 1065.429384 517.762564 
L 1066.070487 553.623288 
L 1066.71159 476.05787 
L 1067.352693 552.560748 
L 1067.993796 552.826383 
L 1068.634899 546.982413 
L 1069.276002 552.560748 
L 1069.917105 551.232573 
L 1070.558208 552.826383 
L 1071.199311 552.560748 
L 1071.840414 530.247409 
L 1072.481517 551.498208 
L 1073.12262 552.295113 
L 1073.763723 551.763843 
L 1074.404826 540.607173 
L 1075.045928 540.607173 
L 1075.687031 545.919873 
L 1076.328134 546.185508 
L 1076.969237 547.248048 
L 1077.61034 547.248048 
L 1078.251443 545.919873 
L 1079.533649 545.919873 
L 1080.815855 546.451143 
L 1081.456958 544.857333 
L 1082.098061 484.823825 
L 1082.739164 544.857333 
L 1083.380267 544.857333 
L 1084.02137 545.919873 
L 1085.303576 543.794793 
L 1085.944679 544.857333 
L 1086.585782 544.060428 
L 1087.226885 543.529158 
L 1087.867988 548.310588 
L 1089.150194 548.310588 
L 1089.791297 547.248048 
L 1090.4324 547.248048 
L 1091.073503 546.982413 
L 1092.355709 547.513683 
L 1092.996812 543.794793 
L 1093.637915 546.982413 
L 1094.279018 546.982413 
L 1094.920121 542.997888 
L 1095.561224 547.248048 
L 1096.202327 545.919873 
L 1096.84343 546.185508 
L 1097.484533 542.997888 
L 1098.125636 527.059789 
L 1098.766738 546.185508 
L 1099.407841 468.354455 
L 1100.048944 544.857333 
L 1100.690047 525.997249 
L 1101.33115 546.185508 
L 1101.972253 540.607173 
L 1102.613356 545.122968 
L 1103.254459 544.060428 
L 1103.895562 540.607173 
L 1104.536665 538.216458 
L 1105.177768 543.529158 
L 1105.818871 543.794793 
L 1106.459974 539.544633 
L 1107.101077 539.278998 
L 1107.74218 544.060428 
L 1108.383283 534.763203 
L 1109.024386 538.216458 
L 1109.665489 537.950823 
L 1110.306592 539.013363 
L 1110.947695 542.732253 
L 1111.588798 533.700663 
L 1112.229901 538.216458 
L 1112.871004 441.259686 
L 1113.512107 541.404078 
L 1114.15321 528.387964 
L 1114.794313 538.216458 
L 1115.435416 536.091378 
L 1116.076519 540.341538 
L 1116.717622 540.341538 
L 1117.358725 540.607173 
L 1117.999828 540.341538 
L 1118.640931 540.607173 
L 1119.282034 540.341538 
L 1119.923137 540.607173 
L 1120.56424 540.341538 
L 1121.205343 520.418914 
L 1121.846445 530.513044 
L 1122.487548 531.575584 
L 1123.128651 530.513044 
L 1123.769754 430.103016 
L 1124.410857 525.997249 
L 1125.05196 525.997249 
L 1125.693063 520.153279 
L 1126.334166 523.606534 
L 1126.975269 447.103656 
L 1127.616372 502.621369 
L 1128.257475 519.090739 
L 1128.898578 531.309949 
L 1129.539681 493.324145 
L 1130.180784 522.543994 
L 1130.821887 523.872169 
L 1131.46299 523.872169 
L 1132.104093 521.481454 
L 1132.745196 522.809629 
L 1133.386299 522.543994 
L 1134.027402 531.575584 
L 1134.668505 528.122329 
L 1135.309608 530.513044 
L 1135.950711 492.792875 
L 1136.591814 529.184869 
L 1137.232917 530.513044 
L 1137.87402 535.028838 
L 1138.515123 535.028838 
L 1139.156226 433.290636 
L 1139.797329 445.775481 
L 1140.438432 532.903759 
L 1141.079535 534.763203 
L 1141.720638 521.481454 
L 1143.002844 521.481454 
L 1143.643947 412.039837 
L 1144.28505 423.196507 
L 1144.926153 514.840579 
L 1145.567255 469.15136 
L 1146.208358 519.356374 
L 1146.849461 519.090739 
L 1147.490564 518.293834 
L 1148.131667 519.356374 
L 1148.77277 517.231294 
L 1149.413873 526.794154 
L 1150.054976 527.059789 
L 1150.696079 527.059789 
L 1151.337182 482.167475 
L 1151.978285 527.059789 
L 1152.619388 527.059789 
L 1153.260491 531.575584 
L 1153.901594 531.575584 
L 1154.542697 524.934709 
L 1155.1838 531.575584 
L 1155.824903 530.247409 
L 1157.107109 530.247409 
L 1157.748212 529.184869 
L 1158.389315 530.513044 
L 1159.030418 529.184869 
L 1160.953727 529.184869 
L 1161.59483 528.919234 
L 1162.235933 528.122329 
L 1162.877036 528.387964 
L 1163.518139 529.450504 
L 1164.159242 528.122329 
L 1164.800345 529.184869 
L 1165.441448 527.856694 
L 1166.082551 528.387964 
L 1166.723654 486.948905 
L 1167.364757 424.524682 
L 1168.00586 527.059789 
L 1168.646963 527.059789 
L 1169.288065 527.325424 
L 1169.929168 504.480814 
L 1170.570271 527.059789 
L 1171.211374 525.997249 
L 1171.852477 527.325424 
L 1172.49358 527.059789 
L 1173.134683 525.731614 
L 1173.775786 527.059789 
L 1174.416889 522.543994 
L 1175.057992 525.997249 
L 1175.699095 520.418914 
L 1176.340198 525.997249 
L 1176.981301 518.028199 
L 1177.622404 516.965659 
L 1178.263507 464.635565 
L 1178.90461 521.481454 
L 1179.545713 521.481454 
L 1180.186816 520.418914 
L 1180.827919 515.106214 
L 1181.469022 511.387324 
L 1182.110125 515.903119 
L 1182.751228 510.324784 
L 1183.392331 510.324784 
L 1184.033434 503.683909 
L 1184.674537 492.52724 
L 1185.31564 510.059149 
L 1185.956743 509.262244 
L 1186.597846 503.949544 
L 1187.238949 504.746449 
L 1187.880052 497.83994 
L 1188.521155 510.590419 
L 1189.162258 503.683909 
L 1189.803361 499.168114 
L 1190.444464 503.683909 
L 1191.085567 502.621369 
L 1191.72667 503.418274 
L 1192.367773 502.621369 
L 1193.008875 502.621369 
L 1193.649978 502.355734 
L 1194.291081 497.043035 
L 1194.932184 502.621369 
L 1195.573287 491.730335 
L 1196.21439 520.684549 
L 1196.855493 481.37057 
L 1197.496596 519.356374 
L 1198.137699 520.418914 
L 1198.778802 520.418914 
L 1199.419905 515.637484 
L 1200.061008 515.637484 
L 1200.702111 515.903119 
L 1201.343214 514.840579 
L 1201.984317 514.840579 
L 1202.62542 515.106214 
L 1203.266523 519.090739 
L 1203.907626 450.025641 
L 1204.548729 133.92 
L 1205.189832 515.903119 
L 1205.830935 513.778039 
L 1206.472038 513.778039 
L 1207.113141 511.652959 
L 1207.754244 512.449864 
L 1208.395347 499.433749 
L 1209.03645 426.649762 
L 1209.677553 454.541436 
L 1210.318656 345.365454 
L 1210.959759 492.792875 
L 1211.600862 495.71486 
L 1212.883068 498.371209 
L 1213.524171 497.30867 
L 1214.165274 506.871529 
L 1214.806377 512.449864 
L 1216.088583 481.37057 
L 1216.729685 497.043035 
L 1217.370788 495.71486 
L 1218.011891 502.621369 
L 1219.294097 490.40216 
L 1219.9352 475.792235 
L 1220.576303 454.807071 
L 1221.217406 493.58978 
L 1221.858509 412.571107 
L 1222.499612 426.915397 
L 1223.140715 499.168114 
L 1223.781818 508.996609 
L 1224.422921 510.324784 
L 1225.064024 490.40216 
L 1225.705127 509.262244 
L 1226.34623 499.168114 
L 1226.987333 510.324784 
L 1228.269539 510.324784 
L 1228.910642 510.590419 
L 1229.551745 509.262244 
L 1230.192848 509.262244 
L 1230.833951 514.574944 
L 1231.475054 498.105575 
L 1232.116157 509.527879 
L 1232.75726 503.683909 
L 1233.398363 504.746449 
L 1234.039466 507.137164 
L 1234.680569 508.199704 
L 1235.321672 503.683909 
L 1235.962775 501.293194 
L 1236.603878 503.683909 
L 1237.244981 497.30867 
L 1237.886084 497.30867 
L 1238.527187 503.683909 
L 1239.16829 502.621369 
L 1239.809393 484.823825 
L 1240.450495 502.621369 
L 1241.091598 502.621369 
L 1241.732701 480.30803 
L 1242.373804 471.542075 
L 1243.014907 501.293194 
L 1243.65601 485.886365 
L 1244.297113 481.37057 
L 1244.938216 500.230654 
L 1245.579319 501.558829 
L 1246.220422 500.230654 
L 1246.861525 495.980495 
L 1247.502628 500.496289 
L 1248.143731 500.230654 
L 1248.784834 499.433749 
L 1249.425937 499.168114 
L 1250.06704 461.182311 
L 1250.708143 499.168114 
L 1251.349246 499.168114 
L 1251.990349 498.105575 
L 1252.631452 499.168114 
L 1253.272555 498.105575 
L 1255.195864 498.105575 
L 1255.836967 491.4647 
L 1256.47807 498.105575 
L 1257.119173 394.507927 
L 1257.760276 359.975378 
L 1258.401379 503.683909 
L 1259.042482 505.808989 
L 1259.683585 309.770365 
L 1260.324688 499.168114 
L 1260.965791 500.230654 
L 1261.606894 500.496289 
L 1262.247997 358.115934 
L 1262.8891 496.7774 
L 1263.530202 493.324145 
L 1264.171305 500.496289 
L 1264.812408 494.65232 
L 1265.453511 495.980495 
L 1266.094614 498.105575 
L 1266.735717 430.103016 
L 1267.37682 499.168114 
L 1268.017923 499.433749 
L 1268.659026 499.433749 
L 1269.300129 478.979855 
L 1269.941232 486.152 
L 1270.582335 418.946347 
L 1271.223438 484.55819 
L 1271.864541 486.948905 
L 1272.505644 486.948905 
L 1273.146747 498.105575 
L 1273.78785 494.65232 
L 1274.428953 498.371209 
L 1275.070056 499.168114 
L 1275.711159 498.105575 
L 1276.352262 491.4647 
L 1276.993365 498.105575 
L 1277.634468 498.371209 
L 1278.275571 473.667155 
L 1278.916674 497.83994 
L 1279.557777 492.261605 
L 1280.19888 495.71486 
L 1280.839983 494.65232 
L 1281.481086 495.980495 
L 1282.122189 493.324145 
L 1282.763292 495.71486 
L 1284.045498 495.71486 
L 1284.686601 491.4647 
L 1285.327704 494.386685 
L 1285.968807 495.71486 
L 1286.60991 408.852217 
L 1287.251012 494.917955 
L 1287.892115 494.65232 
L 1288.533218 494.65232 
L 1289.174321 494.917955 
L 1289.815424 430.368651 
L 1290.456527 475.792235 
L 1291.09763 474.99533 
L 1291.738733 481.636205 
L 1292.379836 482.698745 
L 1293.020939 479.24549 
L 1293.662042 481.636205 
L 1294.303145 482.43311 
L 1294.944248 450.025641 
L 1295.585351 475.792235 
L 1296.226454 414.430552 
L 1296.867557 481.37057 
L 1297.50866 481.636205 
L 1298.149763 476.854775 
L 1298.790866 480.30803 
L 1299.431969 476.854775 
L 1300.073072 480.30803 
L 1300.714175 389.195228 
L 1301.355278 478.18295 
L 1301.996381 480.042395 
L 1302.637484 467.02628 
L 1303.278587 490.136525 
L 1303.91969 483.761285 
L 1304.560793 491.4647 
L 1305.201896 490.136525 
L 1305.842999 490.40216 
L 1306.484102 476.854775 
L 1307.125205 480.30803 
L 1307.766308 479.24549 
L 1308.407411 406.727137 
L 1309.048514 472.604615 
L 1309.689617 477.917315 
L 1310.33072 478.18295 
L 1310.971822 479.24549 
L 1311.612925 469.15136 
L 1312.254028 461.447946 
L 1312.895131 488.27708 
L 1313.536234 488.27708 
L 1314.177337 486.948905 
L 1314.81844 478.18295 
L 1315.459543 440.197146 
L 1316.100646 482.43311 
L 1316.741749 486.948905 
L 1317.382852 486.948905 
L 1318.023955 484.55819 
L 1318.665058 486.948905 
L 1319.306161 486.68327 
L 1319.947264 486.152 
L 1320.588367 484.823825 
L 1321.22947 485.62073 
L 1321.870573 483.761285 
L 1322.511676 482.43311 
L 1323.152779 485.62073 
L 1323.793882 486.948905 
L 1324.434985 485.886365 
L 1325.076088 480.30803 
L 1325.717191 478.979855 
L 1326.358294 486.152 
L 1326.999397 484.823825 
L 1327.6405 480.30803 
L 1328.281603 482.43311 
L 1328.922706 378.835463 
L 1329.563809 483.49565 
L 1330.204912 259.565351 
L 1330.846015 482.43311 
L 1331.487118 483.761285 
L 1332.128221 482.698745 
L 1332.769324 261.956066 
L 1333.410427 481.37057 
L 1334.05153 483.49565 
L 1334.692632 483.761285 
L 1335.333735 285.331946 
L 1335.974838 480.30803 
L 1336.615941 288.519566 
L 1337.257044 482.698745 
L 1337.898147 406.727137 
L 1338.53925 469.15136 
L 1339.180353 366.881888 
L 1339.821456 243.095982 
L 1340.462559 407.789677 
L 1341.103662 282.941231 
L 1341.744765 269.925116 
L 1342.385868 400.086262 
L 1343.026971 450.025641 
L 1343.668074 433.556271 
L 1344.309177 451.353816 
L 1344.95028 455.869611 
L 1346.232486 263.018606 
L 1346.873589 439.931511 
L 1347.514692 455.603976 
L 1348.155795 392.382848 
L 1348.796898 442.322226 
L 1349.438001 454.275801 
L 1350.079104 454.807071 
L 1350.720207 389.195228 
L 1351.36131 310.832905 
L 1352.002413 430.103016 
L 1352.643516 452.416356 
L 1353.925722 435.946986 
L 1354.566825 448.166196 
L 1355.207928 207.235258 
L 1355.849031 380.960543 
L 1356.490134 455.869611 
L 1357.131237 382.023083 
L 1357.77234 449.228736 
L 1358.413442 451.088181 
L 1359.054545 445.775481 
L 1359.695648 445.509846 
L 1360.336751 374.585303 
L 1360.977854 446.838021 
L 1361.618957 451.353816 
L 1362.26006 451.353816 
L 1362.901163 442.322226 
L 1363.542266 447.103656 
L 1364.183369 438.072066 
L 1364.824472 437.806431 
L 1366.106678 463.573026 
L 1367.388884 453.744531 
L 1368.029987 387.867053 
L 1368.67109 372.194588 
L 1369.312193 438.868971 
L 1369.953296 451.353816 
L 1371.235502 400.883167 
L 1371.876605 435.415716 
L 1372.517708 456.666516 
L 1373.158811 416.821267 
L 1373.799914 425.587222 
L 1374.441017 439.134606 
L 1375.08212 421.337062 
L 1375.723223 425.587222 
L 1376.364326 383.085623 
L 1377.005429 356.787759 
L 1377.646532 426.915397 
L 1378.287635 429.040476 
L 1378.928738 438.072066 
L 1379.569841 362.897363 
L 1380.210944 433.290636 
L 1380.852047 365.288078 
L 1381.49315 445.509846 
L 1382.134252 399.820627 
L 1382.775355 426.915397 
L 1383.416458 437.009526 
L 1384.057561 416.821267 
L 1384.698664 324.38029 
L 1385.339767 215.204308 
L 1385.98087 408.055312 
L 1386.621973 423.462142 
L 1387.263076 407.789677 
L 1387.904179 425.587222 
L 1388.545282 434.884446 
L 1389.186385 437.806431 
L 1389.827488 417.883807 
L 1390.468591 441.259686 
L 1391.109694 432.493731 
L 1391.750797 444.712941 
L 1392.3919 443.650401 
L 1393.033003 450.556911 
L 1393.674106 442.587861 
L 1394.315209 444.447306 
L 1394.956312 444.712941 
L 1395.597415 429.306111 
L 1396.238518 442.322226 
L 1396.879621 441.525321 
L 1397.520724 444.712941 
L 1398.161827 396.367372 
L 1398.80293 454.807071 
L 1399.444033 465.698105 
L 1400.085136 469.416995 
L 1400.726239 430.103016 
L 1401.367342 453.744531 
L 1402.008445 305.520205 
L 1402.649548 470.2139 
L 1403.290651 473.667155 
L 1403.931754 447.103656 
L 1404.572857 431.165556 
L 1405.21396 429.040476 
L 1405.855062 455.869611 
L 1406.496165 463.573026 
L 1407.137268 447.900561 
L 1407.778371 460.385406 
L 1408.419474 467.02628 
L 1409.060577 465.698105 
L 1409.70168 468.885725 
L 1410.342783 445.775481 
L 1410.983886 460.119771 
L 1411.624989 459.322866 
L 1412.266092 455.869611 
L 1412.907195 422.399602 
L 1413.548298 285.331946 
L 1414.189401 464.635565 
L 1414.830504 452.416356 
L 1415.471607 457.994691 
L 1416.11271 459.322866 
L 1416.753813 451.353816 
L 1418.036019 317.739415 
L 1418.677122 459.322866 
L 1419.318225 462.510486 
L 1419.959328 462.510486 
L 1420.600431 461.447946 
L 1421.241534 462.510486 
L 1421.882637 462.776121 
L 1423.164843 462.244851 
L 1423.805946 458.260326 
L 1424.447049 462.510486 
L 1425.088152 461.447946 
L 1425.729255 462.510486 
L 1426.370358 461.182311 
L 1427.011461 455.869611 
L 1427.652564 461.447946 
L 1428.293667 461.182311 
L 1428.934769 461.447946 
L 1429.575872 454.807071 
L 1430.216975 427.977937 
L 1430.858078 454.541436 
L 1431.499181 454.807071 
L 1432.140284 461.447946 
L 1432.781387 453.478896 
L 1433.42249 454.807071 
L 1434.063593 447.900561 
L 1434.704696 454.541436 
L 1435.345799 432.493731 
L 1435.986902 452.416356 
L 1436.628005 453.744531 
L 1437.269108 453.478896 
L 1437.910211 446.838021 
L 1438.551314 445.775481 
L 1439.192417 433.290636 
L 1439.83352 452.416356 
L 1440.474623 452.416356 
L 1441.115726 453.478896 
L 1441.756829 452.681991 
L 1442.397932 445.775481 
L 1443.039035 427.977937 
L 1443.680138 451.088181 
L 1444.321241 443.650401 
L 1444.962344 444.712941 
L 1445.603447 338.458944 
L 1446.24455 450.025641 
L 1446.885653 425.587222 
L 1447.526756 456.932151 
L 1448.808962 443.650401 
L 1449.450065 427.977937 
L 1450.091168 447.900561 
L 1450.732271 442.322226 
L 1452.014477 275.237816 
L 1452.655579 244.158522 
L 1453.296682 433.290636 
L 1453.937785 439.134606 
L 1454.578888 409.914757 
L 1455.219991 431.431191 
L 1455.861094 441.259686 
L 1456.502197 442.587861 
L 1457.1433 440.197146 
L 1457.784403 441.259686 
L 1458.425506 439.931511 
L 1459.066609 440.197146 
L 1459.707712 440.197146 
L 1460.348815 452.681991 
L 1460.989918 441.259686 
L 1461.631021 439.931511 
L 1462.272124 282.144326 
L 1462.913227 451.088181 
L 1463.55433 449.228736 
L 1464.836536 451.353816 
L 1465.477639 451.353816 
L 1466.118742 437.806431 
L 1466.759845 438.337701 
L 1467.400948 443.384766 
L 1468.042051 414.696187 
L 1468.683154 448.963101 
L 1469.324257 448.166196 
L 1469.96536 449.228736 
L 1470.606463 450.556911 
L 1471.247566 445.775481 
L 1471.888669 450.025641 
L 1472.529772 447.900561 
L 1473.170875 450.291276 
L 1473.811978 441.790956 
L 1474.453081 437.009526 
L 1475.094184 435.946986 
L 1475.735287 413.368012 
L 1476.376389 427.712302 
L 1477.017492 366.881888 
L 1477.658595 427.181032 
L 1478.299698 426.915397 
L 1478.940801 426.915397 
L 1479.581904 421.337062 
L 1480.223007 426.649762 
L 1480.86411 422.133967 
L 1481.505213 418.946347 
L 1482.146316 427.977937 
L 1482.787419 427.712302 
L 1483.428522 426.649762 
L 1484.069625 426.649762 
L 1484.710728 427.977937 
L 1485.351831 418.946347 
L 1485.992934 404.336422 
L 1486.634037 418.946347 
L 1487.27514 424.790317 
L 1487.916243 425.587222 
L 1488.557346 425.587222 
L 1489.198449 415.493092 
L 1489.839552 255.315192 
L 1490.480655 452.416356 
L 1491.121758 444.712941 
L 1491.762861 444.712941 
L 1492.403964 399.023722 
L 1493.045067 443.650401 
L 1493.68617 444.712941 
L 1494.327273 278.425436 
L 1494.327273 278.425436 
" style="fill:none;stroke:#1f77b4;stroke-linecap:square;stroke-width:1.5;"/>
   </g>
   <g id="line2d_16">
    <path clip-path="url(#pea05dae708)" d="M 276.872727 738.72 
L 1494.327273 418.668117 
L 1494.327273 418.668117 
" style="fill:none;stroke:#ff7f0e;stroke-linecap:square;stroke-width:1.5;"/>
   </g>
   <g id="patch_3">
    <path d="M 216 768.96 
L 216 103.68 
" style="fill:none;stroke:#000000;stroke-linecap:square;stroke-linejoin:miter;stroke-width:0.8;"/>
   </g>
   <g id="patch_4">
    <path d="M 1555.2 768.96 
L 1555.2 103.68 
" style="fill:none;stroke:#000000;stroke-linecap:square;stroke-linejoin:miter;stroke-width:0.8;"/>
   </g>
   <g id="patch_5">
    <path d="M 216 768.96 
L 1555.2 768.96 
" style="fill:none;stroke:#000000;stroke-linecap:square;stroke-linejoin:miter;stroke-width:0.8;"/>
   </g>
   <g id="patch_6">
    <path d="M 216 103.68 
L 1555.2 103.68 
" style="fill:none;stroke:#000000;stroke-linecap:square;stroke-linejoin:miter;stroke-width:0.8;"/>
   </g>
   <g id="legend_1">
    <g id="patch_7">
     <path d="M 1421.748437 141.03625 
L 1548.2 141.03625 
Q 1550.2 141.03625 1550.2 139.03625 
L 1550.2 110.68 
Q 1550.2 108.68 1548.2 108.68 
L 1421.748437 108.68 
Q 1419.748437 108.68 1419.748437 110.68 
L 1419.748437 139.03625 
Q 1419.748437 141.03625 1421.748437 141.03625 
z
" style="fill:#ffffff;opacity:0.8;stroke:#cccccc;stroke-linejoin:miter;"/>
    </g>
    <g id="line2d_17">
     <path d="M 1423.748437 116.778437 
L 1443.748437 116.778437 
" style="fill:none;stroke:#1f77b4;stroke-linecap:square;stroke-width:1.5;"/>
    </g>
    <g id="line2d_18"/>
    <g id="text_17">
     <!-- Experiment results -->
     <g transform="translate(1451.748437 120.278437)scale(0.1 -0.1)">
      <defs>
       <path d="M 9.8125 72.90625 
L 55.90625 72.90625 
L 55.90625 64.59375 
L 19.671875 64.59375 
L 19.671875 43.015625 
L 54.390625 43.015625 
L 54.390625 34.71875 
L 19.671875 34.71875 
L 19.671875 8.296875 
L 56.78125 8.296875 
L 56.78125 0 
L 9.8125 0 
z
" id="DejaVuSans-69"/>
       <path d="M 54.890625 54.6875 
L 35.109375 28.078125 
L 55.90625 0 
L 45.3125 0 
L 29.390625 21.484375 
L 13.484375 0 
L 2.875 0 
L 24.125 28.609375 
L 4.6875 54.6875 
L 15.28125 54.6875 
L 29.78125 35.203125 
L 44.28125 54.6875 
z
" id="DejaVuSans-120"/>
       <path d="M 18.109375 8.203125 
L 18.109375 -20.796875 
L 9.078125 -20.796875 
L 9.078125 54.6875 
L 18.109375 54.6875 
L 18.109375 46.390625 
Q 20.953125 51.265625 25.265625 53.625 
Q 29.59375 56 35.59375 56 
Q 45.5625 56 51.78125 48.09375 
Q 58.015625 40.1875 58.015625 27.296875 
Q 58.015625 14.40625 51.78125 6.484375 
Q 45.5625 -1.421875 35.59375 -1.421875 
Q 29.59375 -1.421875 25.265625 0.953125 
Q 20.953125 3.328125 18.109375 8.203125 
z
M 48.6875 27.296875 
Q 48.6875 37.203125 44.609375 42.84375 
Q 40.53125 48.484375 33.40625 48.484375 
Q 26.265625 48.484375 22.1875 42.84375 
Q 18.109375 37.203125 18.109375 27.296875 
Q 18.109375 17.390625 22.1875 11.75 
Q 26.265625 6.109375 33.40625 6.109375 
Q 40.53125 6.109375 44.609375 11.75 
Q 48.6875 17.390625 48.6875 27.296875 
z
" id="DejaVuSans-112"/>
       <path d="M 8.5 21.578125 
L 8.5 54.6875 
L 17.484375 54.6875 
L 17.484375 21.921875 
Q 17.484375 14.15625 20.5 10.265625 
Q 23.53125 6.390625 29.59375 6.390625 
Q 36.859375 6.390625 41.078125 11.03125 
Q 45.3125 15.671875 45.3125 23.6875 
L 45.3125 54.6875 
L 54.296875 54.6875 
L 54.296875 0 
L 45.3125 0 
L 45.3125 8.40625 
Q 42.046875 3.421875 37.71875 1 
Q 33.40625 -1.421875 27.6875 -1.421875 
Q 18.265625 -1.421875 13.375 4.4375 
Q 8.5 10.296875 8.5 21.578125 
z
M 31.109375 56 
z
" id="DejaVuSans-117"/>
      </defs>
      <use xlink:href="#DejaVuSans-69"/>
      <use x="63.183594" xlink:href="#DejaVuSans-120"/>
      <use x="122.363281" xlink:href="#DejaVuSans-112"/>
      <use x="185.839844" xlink:href="#DejaVuSans-101"/>
      <use x="247.363281" xlink:href="#DejaVuSans-114"/>
      <use x="288.476562" xlink:href="#DejaVuSans-105"/>
      <use x="316.259766" xlink:href="#DejaVuSans-109"/>
      <use x="413.671875" xlink:href="#DejaVuSans-101"/>
      <use x="475.195312" xlink:href="#DejaVuSans-110"/>
      <use x="538.574219" xlink:href="#DejaVuSans-116"/>
      <use x="577.783203" xlink:href="#DejaVuSans-32"/>
      <use x="609.570312" xlink:href="#DejaVuSans-114"/>
      <use x="648.433594" xlink:href="#DejaVuSans-101"/>
      <use x="709.957031" xlink:href="#DejaVuSans-115"/>
      <use x="762.056641" xlink:href="#DejaVuSans-117"/>
      <use x="825.435547" xlink:href="#DejaVuSans-108"/>
      <use x="853.21875" xlink:href="#DejaVuSans-116"/>
      <use x="892.427734" xlink:href="#DejaVuSans-115"/>
     </g>
    </g>
    <g id="line2d_19">
     <path d="M 1423.748437 131.456563 
L 1443.748437 131.456563 
" style="fill:none;stroke:#ff7f0e;stroke-linecap:square;stroke-width:1.5;"/>
    </g>
    <g id="line2d_20"/>
    <g id="text_18">
     <!-- Approximation -->
     <g transform="translate(1451.748437 134.956563)scale(0.1 -0.1)">
      <defs>
       <path d="M 34.1875 63.1875 
L 20.796875 26.90625 
L 47.609375 26.90625 
z
M 28.609375 72.90625 
L 39.796875 72.90625 
L 67.578125 0 
L 57.328125 0 
L 50.6875 18.703125 
L 17.828125 18.703125 
L 11.1875 0 
L 0.78125 0 
z
" id="DejaVuSans-65"/>
       <path d="M 34.28125 27.484375 
Q 23.390625 27.484375 19.1875 25 
Q 14.984375 22.515625 14.984375 16.5 
Q 14.984375 11.71875 18.140625 8.90625 
Q 21.296875 6.109375 26.703125 6.109375 
Q 34.1875 6.109375 38.703125 11.40625 
Q 43.21875 16.703125 43.21875 25.484375 
L 43.21875 27.484375 
z
M 52.203125 31.203125 
L 52.203125 0 
L 43.21875 0 
L 43.21875 8.296875 
Q 40.140625 3.328125 35.546875 0.953125 
Q 30.953125 -1.421875 24.3125 -1.421875 
Q 15.921875 -1.421875 10.953125 3.296875 
Q 6 8.015625 6 15.921875 
Q 6 25.140625 12.171875 29.828125 
Q 18.359375 34.515625 30.609375 34.515625 
L 43.21875 34.515625 
L 43.21875 35.40625 
Q 43.21875 41.609375 39.140625 45 
Q 35.0625 48.390625 27.6875 48.390625 
Q 23 48.390625 18.546875 47.265625 
Q 14.109375 46.140625 10.015625 43.890625 
L 10.015625 52.203125 
Q 14.9375 54.109375 19.578125 55.046875 
Q 24.21875 56 28.609375 56 
Q 40.484375 56 46.34375 49.84375 
Q 52.203125 43.703125 52.203125 31.203125 
z
" id="DejaVuSans-97"/>
      </defs>
      <use xlink:href="#DejaVuSans-65"/>
      <use x="68.408203" xlink:href="#DejaVuSans-112"/>
      <use x="131.884766" xlink:href="#DejaVuSans-112"/>
      <use x="195.361328" xlink:href="#DejaVuSans-114"/>
      <use x="234.224609" xlink:href="#DejaVuSans-111"/>
      <use x="292.28125" xlink:href="#DejaVuSans-120"/>
      <use x="351.460938" xlink:href="#DejaVuSans-105"/>
      <use x="379.244141" xlink:href="#DejaVuSans-109"/>
      <use x="476.65625" xlink:href="#DejaVuSans-97"/>
      <use x="537.935547" xlink:href="#DejaVuSans-116"/>
      <use x="577.144531" xlink:href="#DejaVuSans-105"/>
      <use x="604.927734" xlink:href="#DejaVuSans-111"/>
      <use x="666.109375" xlink:href="#DejaVuSans-110"/>
     </g>
    </g>
   </g>
  </g>
 </g>
 <defs>
  <clipPath id="pea05dae708">
   <rect height="665.28" width="1339.2" x="216" y="103.68"/>
  </clipPath>
 </defs>
</svg>
