<?xml version="1.0" encoding="utf-8" standalone="no"?>
<!DOCTYPE svg PUBLIC "-//W3C//DTD SVG 1.1//EN"
  "http://www.w3.org/Graphics/SVG/1.1/DTD/svg11.dtd">
<!-- Created with matplotlib (https://matplotlib.org/) -->
<svg height="864pt" version="1.1" viewBox="0 0 1728 864" width="1728pt" xmlns="http://www.w3.org/2000/svg" xmlns:xlink="http://www.w3.org/1999/xlink">
 <metadata>
  <rdf:RDF xmlns:cc="http://creativecommons.org/ns#" xmlns:dc="http://purl.org/dc/elements/1.1/" xmlns:rdf="http://www.w3.org/1999/02/22-rdf-syntax-ns#">
   <cc:Work>
    <dc:type rdf:resource="http://purl.org/dc/dcmitype/StillImage"/>
    <dc:date>2020-09-14T13:58:23.574526</dc:date>
    <dc:format>image/svg+xml</dc:format>
    <dc:creator>
     <cc:Agent>
      <dc:title>Matplotlib v3.3.1, https://matplotlib.org/</dc:title>
     </cc:Agent>
    </dc:creator>
   </cc:Work>
  </rdf:RDF>
 </metadata>
 <defs>
  <style type="text/css">*{stroke-linecap:butt;stroke-linejoin:round;}</style>
 </defs>
 <g id="figure_1">
  <g id="patch_1">
   <path d="M 0 864 
L 1728 864 
L 1728 0 
L 0 0 
z
" style="fill:#ffffff;"/>
  </g>
  <g id="axes_1">
   <g id="patch_2">
    <path d="M 216 768.96 
L 1555.2 768.96 
L 1555.2 103.68 
L 216 103.68 
z
" style="fill:#ffffff;"/>
   </g>
   <g id="matplotlib.axis_1">
    <g id="xtick_1">
     <g id="line2d_1">
      <defs>
       <path d="M 0 0 
L 0 3.5 
" id="m2ccc954c79" style="stroke:#000000;stroke-width:0.8;"/>
      </defs>
      <g>
       <use style="stroke:#000000;stroke-width:0.8;" x="276.872727" xlink:href="#m2ccc954c79" y="768.96"/>
      </g>
     </g>
     <g id="text_1">
      <!-- 0 -->
      <g transform="translate(273.691477 783.558437)scale(0.1 -0.1)">
       <defs>
        <path d="M 31.78125 66.40625 
Q 24.171875 66.40625 20.328125 58.90625 
Q 16.5 51.421875 16.5 36.375 
Q 16.5 21.390625 20.328125 13.890625 
Q 24.171875 6.390625 31.78125 6.390625 
Q 39.453125 6.390625 43.28125 13.890625 
Q 47.125 21.390625 47.125 36.375 
Q 47.125 51.421875 43.28125 58.90625 
Q 39.453125 66.40625 31.78125 66.40625 
z
M 31.78125 74.21875 
Q 44.046875 74.21875 50.515625 64.515625 
Q 56.984375 54.828125 56.984375 36.375 
Q 56.984375 17.96875 50.515625 8.265625 
Q 44.046875 -1.421875 31.78125 -1.421875 
Q 19.53125 -1.421875 13.0625 8.265625 
Q 6.59375 17.96875 6.59375 36.375 
Q 6.59375 54.828125 13.0625 64.515625 
Q 19.53125 74.21875 31.78125 74.21875 
z
" id="DejaVuSans-48"/>
       </defs>
       <use xlink:href="#DejaVuSans-48"/>
      </g>
     </g>
    </g>
    <g id="xtick_2">
     <g id="line2d_2">
      <g>
       <use style="stroke:#000000;stroke-width:0.8;" x="429.130674" xlink:href="#m2ccc954c79" y="768.96"/>
      </g>
     </g>
     <g id="text_2">
      <!-- 250 -->
      <g transform="translate(419.586924 783.558437)scale(0.1 -0.1)">
       <defs>
        <path d="M 19.1875 8.296875 
L 53.609375 8.296875 
L 53.609375 0 
L 7.328125 0 
L 7.328125 8.296875 
Q 12.9375 14.109375 22.625 23.890625 
Q 32.328125 33.6875 34.8125 36.53125 
Q 39.546875 41.84375 41.421875 45.53125 
Q 43.3125 49.21875 43.3125 52.78125 
Q 43.3125 58.59375 39.234375 62.25 
Q 35.15625 65.921875 28.609375 65.921875 
Q 23.96875 65.921875 18.8125 64.3125 
Q 13.671875 62.703125 7.8125 59.421875 
L 7.8125 69.390625 
Q 13.765625 71.78125 18.9375 73 
Q 24.125 74.21875 28.421875 74.21875 
Q 39.75 74.21875 46.484375 68.546875 
Q 53.21875 62.890625 53.21875 53.421875 
Q 53.21875 48.921875 51.53125 44.890625 
Q 49.859375 40.875 45.40625 35.40625 
Q 44.1875 33.984375 37.640625 27.21875 
Q 31.109375 20.453125 19.1875 8.296875 
z
" id="DejaVuSans-50"/>
        <path d="M 10.796875 72.90625 
L 49.515625 72.90625 
L 49.515625 64.59375 
L 19.828125 64.59375 
L 19.828125 46.734375 
Q 21.96875 47.46875 24.109375 47.828125 
Q 26.265625 48.1875 28.421875 48.1875 
Q 40.625 48.1875 47.75 41.5 
Q 54.890625 34.8125 54.890625 23.390625 
Q 54.890625 11.625 47.5625 5.09375 
Q 40.234375 -1.421875 26.90625 -1.421875 
Q 22.3125 -1.421875 17.546875 -0.640625 
Q 12.796875 0.140625 7.71875 1.703125 
L 7.71875 11.625 
Q 12.109375 9.234375 16.796875 8.0625 
Q 21.484375 6.890625 26.703125 6.890625 
Q 35.15625 6.890625 40.078125 11.328125 
Q 45.015625 15.765625 45.015625 23.390625 
Q 45.015625 31 40.078125 35.4375 
Q 35.15625 39.890625 26.703125 39.890625 
Q 22.75 39.890625 18.8125 39.015625 
Q 14.890625 38.140625 10.796875 36.28125 
z
" id="DejaVuSans-53"/>
       </defs>
       <use xlink:href="#DejaVuSans-50"/>
       <use x="63.623047" xlink:href="#DejaVuSans-53"/>
       <use x="127.246094" xlink:href="#DejaVuSans-48"/>
      </g>
     </g>
    </g>
    <g id="xtick_3">
     <g id="line2d_3">
      <g>
       <use style="stroke:#000000;stroke-width:0.8;" x="581.388622" xlink:href="#m2ccc954c79" y="768.96"/>
      </g>
     </g>
     <g id="text_3">
      <!-- 500 -->
      <g transform="translate(571.844872 783.558437)scale(0.1 -0.1)">
       <use xlink:href="#DejaVuSans-53"/>
       <use x="63.623047" xlink:href="#DejaVuSans-48"/>
       <use x="127.246094" xlink:href="#DejaVuSans-48"/>
      </g>
     </g>
    </g>
    <g id="xtick_4">
     <g id="line2d_4">
      <g>
       <use style="stroke:#000000;stroke-width:0.8;" x="733.646569" xlink:href="#m2ccc954c79" y="768.96"/>
      </g>
     </g>
     <g id="text_4">
      <!-- 750 -->
      <g transform="translate(724.102819 783.558437)scale(0.1 -0.1)">
       <defs>
        <path d="M 8.203125 72.90625 
L 55.078125 72.90625 
L 55.078125 68.703125 
L 28.609375 0 
L 18.3125 0 
L 43.21875 64.59375 
L 8.203125 64.59375 
z
" id="DejaVuSans-55"/>
       </defs>
       <use xlink:href="#DejaVuSans-55"/>
       <use x="63.623047" xlink:href="#DejaVuSans-53"/>
       <use x="127.246094" xlink:href="#DejaVuSans-48"/>
      </g>
     </g>
    </g>
    <g id="xtick_5">
     <g id="line2d_5">
      <g>
       <use style="stroke:#000000;stroke-width:0.8;" x="885.904516" xlink:href="#m2ccc954c79" y="768.96"/>
      </g>
     </g>
     <g id="text_5">
      <!-- 1000 -->
      <g transform="translate(873.179516 783.558437)scale(0.1 -0.1)">
       <defs>
        <path d="M 12.40625 8.296875 
L 28.515625 8.296875 
L 28.515625 63.921875 
L 10.984375 60.40625 
L 10.984375 69.390625 
L 28.421875 72.90625 
L 38.28125 72.90625 
L 38.28125 8.296875 
L 54.390625 8.296875 
L 54.390625 0 
L 12.40625 0 
z
" id="DejaVuSans-49"/>
       </defs>
       <use xlink:href="#DejaVuSans-49"/>
       <use x="63.623047" xlink:href="#DejaVuSans-48"/>
       <use x="127.246094" xlink:href="#DejaVuSans-48"/>
       <use x="190.869141" xlink:href="#DejaVuSans-48"/>
      </g>
     </g>
    </g>
    <g id="xtick_6">
     <g id="line2d_6">
      <g>
       <use style="stroke:#000000;stroke-width:0.8;" x="1038.162463" xlink:href="#m2ccc954c79" y="768.96"/>
      </g>
     </g>
     <g id="text_6">
      <!-- 1250 -->
      <g transform="translate(1025.437463 783.558437)scale(0.1 -0.1)">
       <use xlink:href="#DejaVuSans-49"/>
       <use x="63.623047" xlink:href="#DejaVuSans-50"/>
       <use x="127.246094" xlink:href="#DejaVuSans-53"/>
       <use x="190.869141" xlink:href="#DejaVuSans-48"/>
      </g>
     </g>
    </g>
    <g id="xtick_7">
     <g id="line2d_7">
      <g>
       <use style="stroke:#000000;stroke-width:0.8;" x="1190.42041" xlink:href="#m2ccc954c79" y="768.96"/>
      </g>
     </g>
     <g id="text_7">
      <!-- 1500 -->
      <g transform="translate(1177.69541 783.558437)scale(0.1 -0.1)">
       <use xlink:href="#DejaVuSans-49"/>
       <use x="63.623047" xlink:href="#DejaVuSans-53"/>
       <use x="127.246094" xlink:href="#DejaVuSans-48"/>
       <use x="190.869141" xlink:href="#DejaVuSans-48"/>
      </g>
     </g>
    </g>
    <g id="xtick_8">
     <g id="line2d_8">
      <g>
       <use style="stroke:#000000;stroke-width:0.8;" x="1342.678357" xlink:href="#m2ccc954c79" y="768.96"/>
      </g>
     </g>
     <g id="text_8">
      <!-- 1750 -->
      <g transform="translate(1329.953357 783.558437)scale(0.1 -0.1)">
       <use xlink:href="#DejaVuSans-49"/>
       <use x="63.623047" xlink:href="#DejaVuSans-55"/>
       <use x="127.246094" xlink:href="#DejaVuSans-53"/>
       <use x="190.869141" xlink:href="#DejaVuSans-48"/>
      </g>
     </g>
    </g>
    <g id="xtick_9">
     <g id="line2d_9">
      <g>
       <use style="stroke:#000000;stroke-width:0.8;" x="1494.936305" xlink:href="#m2ccc954c79" y="768.96"/>
      </g>
     </g>
     <g id="text_9">
      <!-- 2000 -->
      <g transform="translate(1482.211305 783.558437)scale(0.1 -0.1)">
       <use xlink:href="#DejaVuSans-50"/>
       <use x="63.623047" xlink:href="#DejaVuSans-48"/>
       <use x="127.246094" xlink:href="#DejaVuSans-48"/>
       <use x="190.869141" xlink:href="#DejaVuSans-48"/>
      </g>
     </g>
    </g>
    <g id="text_10">
     <!-- Vector length -->
     <g transform="translate(852.139844 797.236562)scale(0.1 -0.1)">
      <defs>
       <path d="M 28.609375 0 
L 0.78125 72.90625 
L 11.078125 72.90625 
L 34.1875 11.53125 
L 57.328125 72.90625 
L 67.578125 72.90625 
L 39.796875 0 
z
" id="DejaVuSans-86"/>
       <path d="M 56.203125 29.59375 
L 56.203125 25.203125 
L 14.890625 25.203125 
Q 15.484375 15.921875 20.484375 11.0625 
Q 25.484375 6.203125 34.421875 6.203125 
Q 39.59375 6.203125 44.453125 7.46875 
Q 49.3125 8.734375 54.109375 11.28125 
L 54.109375 2.78125 
Q 49.265625 0.734375 44.1875 -0.34375 
Q 39.109375 -1.421875 33.890625 -1.421875 
Q 20.796875 -1.421875 13.15625 6.1875 
Q 5.515625 13.8125 5.515625 26.8125 
Q 5.515625 40.234375 12.765625 48.109375 
Q 20.015625 56 32.328125 56 
Q 43.359375 56 49.78125 48.890625 
Q 56.203125 41.796875 56.203125 29.59375 
z
M 47.21875 32.234375 
Q 47.125 39.59375 43.09375 43.984375 
Q 39.0625 48.390625 32.421875 48.390625 
Q 24.90625 48.390625 20.390625 44.140625 
Q 15.875 39.890625 15.1875 32.171875 
z
" id="DejaVuSans-101"/>
       <path d="M 48.78125 52.59375 
L 48.78125 44.1875 
Q 44.96875 46.296875 41.140625 47.34375 
Q 37.3125 48.390625 33.40625 48.390625 
Q 24.65625 48.390625 19.8125 42.84375 
Q 14.984375 37.3125 14.984375 27.296875 
Q 14.984375 17.28125 19.8125 11.734375 
Q 24.65625 6.203125 33.40625 6.203125 
Q 37.3125 6.203125 41.140625 7.25 
Q 44.96875 8.296875 48.78125 10.40625 
L 48.78125 2.09375 
Q 45.015625 0.34375 40.984375 -0.53125 
Q 36.96875 -1.421875 32.421875 -1.421875 
Q 20.0625 -1.421875 12.78125 6.34375 
Q 5.515625 14.109375 5.515625 27.296875 
Q 5.515625 40.671875 12.859375 48.328125 
Q 20.21875 56 33.015625 56 
Q 37.15625 56 41.109375 55.140625 
Q 45.0625 54.296875 48.78125 52.59375 
z
" id="DejaVuSans-99"/>
       <path d="M 18.3125 70.21875 
L 18.3125 54.6875 
L 36.8125 54.6875 
L 36.8125 47.703125 
L 18.3125 47.703125 
L 18.3125 18.015625 
Q 18.3125 11.328125 20.140625 9.421875 
Q 21.96875 7.515625 27.59375 7.515625 
L 36.8125 7.515625 
L 36.8125 0 
L 27.59375 0 
Q 17.1875 0 13.234375 3.875 
Q 9.28125 7.765625 9.28125 18.015625 
L 9.28125 47.703125 
L 2.6875 47.703125 
L 2.6875 54.6875 
L 9.28125 54.6875 
L 9.28125 70.21875 
z
" id="DejaVuSans-116"/>
       <path d="M 30.609375 48.390625 
Q 23.390625 48.390625 19.1875 42.75 
Q 14.984375 37.109375 14.984375 27.296875 
Q 14.984375 17.484375 19.15625 11.84375 
Q 23.34375 6.203125 30.609375 6.203125 
Q 37.796875 6.203125 41.984375 11.859375 
Q 46.1875 17.53125 46.1875 27.296875 
Q 46.1875 37.015625 41.984375 42.703125 
Q 37.796875 48.390625 30.609375 48.390625 
z
M 30.609375 56 
Q 42.328125 56 49.015625 48.375 
Q 55.71875 40.765625 55.71875 27.296875 
Q 55.71875 13.875 49.015625 6.21875 
Q 42.328125 -1.421875 30.609375 -1.421875 
Q 18.84375 -1.421875 12.171875 6.21875 
Q 5.515625 13.875 5.515625 27.296875 
Q 5.515625 40.765625 12.171875 48.375 
Q 18.84375 56 30.609375 56 
z
" id="DejaVuSans-111"/>
       <path d="M 41.109375 46.296875 
Q 39.59375 47.171875 37.8125 47.578125 
Q 36.03125 48 33.890625 48 
Q 26.265625 48 22.1875 43.046875 
Q 18.109375 38.09375 18.109375 28.8125 
L 18.109375 0 
L 9.078125 0 
L 9.078125 54.6875 
L 18.109375 54.6875 
L 18.109375 46.1875 
Q 20.953125 51.171875 25.484375 53.578125 
Q 30.03125 56 36.53125 56 
Q 37.453125 56 38.578125 55.875 
Q 39.703125 55.765625 41.0625 55.515625 
z
" id="DejaVuSans-114"/>
       <path id="DejaVuSans-32"/>
       <path d="M 9.421875 75.984375 
L 18.40625 75.984375 
L 18.40625 0 
L 9.421875 0 
z
" id="DejaVuSans-108"/>
       <path d="M 54.890625 33.015625 
L 54.890625 0 
L 45.90625 0 
L 45.90625 32.71875 
Q 45.90625 40.484375 42.875 44.328125 
Q 39.84375 48.1875 33.796875 48.1875 
Q 26.515625 48.1875 22.3125 43.546875 
Q 18.109375 38.921875 18.109375 30.90625 
L 18.109375 0 
L 9.078125 0 
L 9.078125 54.6875 
L 18.109375 54.6875 
L 18.109375 46.1875 
Q 21.34375 51.125 25.703125 53.5625 
Q 30.078125 56 35.796875 56 
Q 45.21875 56 50.046875 50.171875 
Q 54.890625 44.34375 54.890625 33.015625 
z
" id="DejaVuSans-110"/>
       <path d="M 45.40625 27.984375 
Q 45.40625 37.75 41.375 43.109375 
Q 37.359375 48.484375 30.078125 48.484375 
Q 22.859375 48.484375 18.828125 43.109375 
Q 14.796875 37.75 14.796875 27.984375 
Q 14.796875 18.265625 18.828125 12.890625 
Q 22.859375 7.515625 30.078125 7.515625 
Q 37.359375 7.515625 41.375 12.890625 
Q 45.40625 18.265625 45.40625 27.984375 
z
M 54.390625 6.78125 
Q 54.390625 -7.171875 48.1875 -13.984375 
Q 42 -20.796875 29.203125 -20.796875 
Q 24.46875 -20.796875 20.265625 -20.09375 
Q 16.0625 -19.390625 12.109375 -17.921875 
L 12.109375 -9.1875 
Q 16.0625 -11.328125 19.921875 -12.34375 
Q 23.78125 -13.375 27.78125 -13.375 
Q 36.625 -13.375 41.015625 -8.765625 
Q 45.40625 -4.15625 45.40625 5.171875 
L 45.40625 9.625 
Q 42.625 4.78125 38.28125 2.390625 
Q 33.9375 0 27.875 0 
Q 17.828125 0 11.671875 7.65625 
Q 5.515625 15.328125 5.515625 27.984375 
Q 5.515625 40.671875 11.671875 48.328125 
Q 17.828125 56 27.875 56 
Q 33.9375 56 38.28125 53.609375 
Q 42.625 51.21875 45.40625 46.390625 
L 45.40625 54.6875 
L 54.390625 54.6875 
z
" id="DejaVuSans-103"/>
       <path d="M 54.890625 33.015625 
L 54.890625 0 
L 45.90625 0 
L 45.90625 32.71875 
Q 45.90625 40.484375 42.875 44.328125 
Q 39.84375 48.1875 33.796875 48.1875 
Q 26.515625 48.1875 22.3125 43.546875 
Q 18.109375 38.921875 18.109375 30.90625 
L 18.109375 0 
L 9.078125 0 
L 9.078125 75.984375 
L 18.109375 75.984375 
L 18.109375 46.1875 
Q 21.34375 51.125 25.703125 53.5625 
Q 30.078125 56 35.796875 56 
Q 45.21875 56 50.046875 50.171875 
Q 54.890625 44.34375 54.890625 33.015625 
z
" id="DejaVuSans-104"/>
      </defs>
      <use xlink:href="#DejaVuSans-86"/>
      <use x="60.658203" xlink:href="#DejaVuSans-101"/>
      <use x="122.181641" xlink:href="#DejaVuSans-99"/>
      <use x="177.162109" xlink:href="#DejaVuSans-116"/>
      <use x="216.371094" xlink:href="#DejaVuSans-111"/>
      <use x="277.552734" xlink:href="#DejaVuSans-114"/>
      <use x="318.666016" xlink:href="#DejaVuSans-32"/>
      <use x="350.453125" xlink:href="#DejaVuSans-108"/>
      <use x="378.236328" xlink:href="#DejaVuSans-101"/>
      <use x="439.759766" xlink:href="#DejaVuSans-110"/>
      <use x="503.138672" xlink:href="#DejaVuSans-103"/>
      <use x="566.615234" xlink:href="#DejaVuSans-116"/>
      <use x="605.824219" xlink:href="#DejaVuSans-104"/>
     </g>
    </g>
   </g>
   <g id="matplotlib.axis_2">
    <g id="ytick_1">
     <g id="line2d_10">
      <defs>
       <path d="M 0 0 
L -3.5 0 
" id="mc6665023a1" style="stroke:#000000;stroke-width:0.8;"/>
      </defs>
      <g>
       <use style="stroke:#000000;stroke-width:0.8;" x="216" xlink:href="#mc6665023a1" y="736.800578"/>
      </g>
     </g>
     <g id="text_11">
      <!-- 0.00 -->
      <g transform="translate(186.734375 740.599796)scale(0.1 -0.1)">
       <defs>
        <path d="M 10.6875 12.40625 
L 21 12.40625 
L 21 0 
L 10.6875 0 
z
" id="DejaVuSans-46"/>
       </defs>
       <use xlink:href="#DejaVuSans-48"/>
       <use x="63.623047" xlink:href="#DejaVuSans-46"/>
       <use x="95.410156" xlink:href="#DejaVuSans-48"/>
       <use x="159.033203" xlink:href="#DejaVuSans-48"/>
      </g>
     </g>
    </g>
    <g id="ytick_2">
     <g id="line2d_11">
      <g>
       <use style="stroke:#000000;stroke-width:0.8;" x="216" xlink:href="#mc6665023a1" y="600.996903"/>
      </g>
     </g>
     <g id="text_12">
      <!-- 0.05 -->
      <g transform="translate(186.734375 604.796122)scale(0.1 -0.1)">
       <use xlink:href="#DejaVuSans-48"/>
       <use x="63.623047" xlink:href="#DejaVuSans-46"/>
       <use x="95.410156" xlink:href="#DejaVuSans-48"/>
       <use x="159.033203" xlink:href="#DejaVuSans-53"/>
      </g>
     </g>
    </g>
    <g id="ytick_3">
     <g id="line2d_12">
      <g>
       <use style="stroke:#000000;stroke-width:0.8;" x="216" xlink:href="#mc6665023a1" y="465.193229"/>
      </g>
     </g>
     <g id="text_13">
      <!-- 0.10 -->
      <g transform="translate(186.734375 468.992447)scale(0.1 -0.1)">
       <use xlink:href="#DejaVuSans-48"/>
       <use x="63.623047" xlink:href="#DejaVuSans-46"/>
       <use x="95.410156" xlink:href="#DejaVuSans-49"/>
       <use x="159.033203" xlink:href="#DejaVuSans-48"/>
      </g>
     </g>
    </g>
    <g id="ytick_4">
     <g id="line2d_13">
      <g>
       <use style="stroke:#000000;stroke-width:0.8;" x="216" xlink:href="#mc6665023a1" y="329.389554"/>
      </g>
     </g>
     <g id="text_14">
      <!-- 0.15 -->
      <g transform="translate(186.734375 333.188773)scale(0.1 -0.1)">
       <use xlink:href="#DejaVuSans-48"/>
       <use x="63.623047" xlink:href="#DejaVuSans-46"/>
       <use x="95.410156" xlink:href="#DejaVuSans-49"/>
       <use x="159.033203" xlink:href="#DejaVuSans-53"/>
      </g>
     </g>
    </g>
    <g id="ytick_5">
     <g id="line2d_14">
      <g>
       <use style="stroke:#000000;stroke-width:0.8;" x="216" xlink:href="#mc6665023a1" y="193.58588"/>
      </g>
     </g>
     <g id="text_15">
      <!-- 0.20 -->
      <g transform="translate(186.734375 197.385099)scale(0.1 -0.1)">
       <use xlink:href="#DejaVuSans-48"/>
       <use x="63.623047" xlink:href="#DejaVuSans-46"/>
       <use x="95.410156" xlink:href="#DejaVuSans-50"/>
       <use x="159.033203" xlink:href="#DejaVuSans-48"/>
      </g>
     </g>
    </g>
    <g id="text_16">
     <!-- Time, ms -->
     <g transform="translate(180.654687 459.206719)rotate(-90)scale(0.1 -0.1)">
      <defs>
       <path d="M -0.296875 72.90625 
L 61.375 72.90625 
L 61.375 64.59375 
L 35.5 64.59375 
L 35.5 0 
L 25.59375 0 
L 25.59375 64.59375 
L -0.296875 64.59375 
z
" id="DejaVuSans-84"/>
       <path d="M 9.421875 54.6875 
L 18.40625 54.6875 
L 18.40625 0 
L 9.421875 0 
z
M 9.421875 75.984375 
L 18.40625 75.984375 
L 18.40625 64.59375 
L 9.421875 64.59375 
z
" id="DejaVuSans-105"/>
       <path d="M 52 44.1875 
Q 55.375 50.25 60.0625 53.125 
Q 64.75 56 71.09375 56 
Q 79.640625 56 84.28125 50.015625 
Q 88.921875 44.046875 88.921875 33.015625 
L 88.921875 0 
L 79.890625 0 
L 79.890625 32.71875 
Q 79.890625 40.578125 77.09375 44.375 
Q 74.3125 48.1875 68.609375 48.1875 
Q 61.625 48.1875 57.5625 43.546875 
Q 53.515625 38.921875 53.515625 30.90625 
L 53.515625 0 
L 44.484375 0 
L 44.484375 32.71875 
Q 44.484375 40.625 41.703125 44.40625 
Q 38.921875 48.1875 33.109375 48.1875 
Q 26.21875 48.1875 22.15625 43.53125 
Q 18.109375 38.875 18.109375 30.90625 
L 18.109375 0 
L 9.078125 0 
L 9.078125 54.6875 
L 18.109375 54.6875 
L 18.109375 46.1875 
Q 21.1875 51.21875 25.484375 53.609375 
Q 29.78125 56 35.6875 56 
Q 41.65625 56 45.828125 52.96875 
Q 50 49.953125 52 44.1875 
z
" id="DejaVuSans-109"/>
       <path d="M 11.71875 12.40625 
L 22.015625 12.40625 
L 22.015625 4 
L 14.015625 -11.625 
L 7.71875 -11.625 
L 11.71875 4 
z
" id="DejaVuSans-44"/>
       <path d="M 44.28125 53.078125 
L 44.28125 44.578125 
Q 40.484375 46.53125 36.375 47.5 
Q 32.28125 48.484375 27.875 48.484375 
Q 21.1875 48.484375 17.84375 46.4375 
Q 14.5 44.390625 14.5 40.28125 
Q 14.5 37.15625 16.890625 35.375 
Q 19.28125 33.59375 26.515625 31.984375 
L 29.59375 31.296875 
Q 39.15625 29.25 43.1875 25.515625 
Q 47.21875 21.78125 47.21875 15.09375 
Q 47.21875 7.46875 41.1875 3.015625 
Q 35.15625 -1.421875 24.609375 -1.421875 
Q 20.21875 -1.421875 15.453125 -0.5625 
Q 10.6875 0.296875 5.421875 2 
L 5.421875 11.28125 
Q 10.40625 8.6875 15.234375 7.390625 
Q 20.0625 6.109375 24.8125 6.109375 
Q 31.15625 6.109375 34.5625 8.28125 
Q 37.984375 10.453125 37.984375 14.40625 
Q 37.984375 18.0625 35.515625 20.015625 
Q 33.0625 21.96875 24.703125 23.78125 
L 21.578125 24.515625 
Q 13.234375 26.265625 9.515625 29.90625 
Q 5.8125 33.546875 5.8125 39.890625 
Q 5.8125 47.609375 11.28125 51.796875 
Q 16.75 56 26.8125 56 
Q 31.78125 56 36.171875 55.265625 
Q 40.578125 54.546875 44.28125 53.078125 
z
" id="DejaVuSans-115"/>
      </defs>
      <use xlink:href="#DejaVuSans-84"/>
      <use x="57.958984" xlink:href="#DejaVuSans-105"/>
      <use x="85.742188" xlink:href="#DejaVuSans-109"/>
      <use x="183.154297" xlink:href="#DejaVuSans-101"/>
      <use x="244.677734" xlink:href="#DejaVuSans-44"/>
      <use x="276.464844" xlink:href="#DejaVuSans-32"/>
      <use x="308.251953" xlink:href="#DejaVuSans-109"/>
      <use x="405.664062" xlink:href="#DejaVuSans-115"/>
     </g>
    </g>
   </g>
   <g id="line2d_15">
    <path clip-path="url(#p3f5f52d7f8)" d="M 276.872727 734.210328 
L 277.481759 734.210328 
L 278.090791 736.800578 
L 278.699823 734.210328 
L 279.917886 734.210328 
L 280.526918 733.562766 
L 281.13595 734.210328 
L 282.354013 734.210328 
L 282.963045 736.800578 
L 283.572077 734.210328 
L 284.790141 734.210328 
L 285.399172 736.800578 
L 286.008204 734.210328 
L 287.226268 734.210328 
L 287.835299 734.85789 
L 289.053363 733.562766 
L 289.662395 734.210328 
L 290.271427 734.210328 
L 290.880458 733.562766 
L 292.098522 733.562766 
L 292.707554 734.210328 
L 293.925617 734.210328 
L 294.534649 729.029829 
L 295.143681 731.620078 
L 295.752713 731.620078 
L 296.361745 726.439579 
L 296.970776 730.972516 
L 297.579808 734.210328 
L 298.18884 731.620078 
L 298.797872 731.620078 
L 299.406903 730.972516 
L 300.015935 731.620078 
L 301.843031 731.620078 
L 302.452062 730.972516 
L 304.279158 730.972516 
L 304.88819 731.620078 
L 305.497221 731.620078 
L 306.106253 730.972516 
L 306.715285 730.972516 
L 307.324317 721.25908 
L 307.933348 725.792017 
L 308.54238 722.554205 
L 309.760444 723.84933 
L 310.369476 726.439579 
L 310.978507 725.792017 
L 311.587539 723.201768 
L 312.196571 728.382267 
L 312.805603 728.382267 
L 313.414635 725.792017 
L 314.023666 719.963956 
L 314.632698 722.554205 
L 315.24173 723.201768 
L 315.850762 729.029829 
L 316.459794 728.382267 
L 317.068825 731.620078 
L 317.677857 729.029829 
L 318.286889 728.382267 
L 318.895921 729.029829 
L 319.504952 730.972516 
L 320.113984 728.382267 
L 320.723016 728.382267 
L 321.332048 729.029829 
L 321.94108 729.029829 
L 322.550111 728.382267 
L 326.204302 728.382267 
L 326.813334 726.439579 
L 327.422366 728.382267 
L 328.031398 729.029829 
L 328.640429 725.792017 
L 329.249461 728.382267 
L 330.467525 728.382267 
L 331.076556 726.439579 
L 331.685588 726.439579 
L 332.29462 729.029829 
L 332.903652 726.439579 
L 333.512684 728.382267 
L 334.121715 725.792017 
L 337.166874 725.792017 
L 337.775906 723.201768 
L 338.384938 725.792017 
L 338.99397 725.792017 
L 339.603002 725.144455 
L 340.212033 726.439579 
L 340.821065 726.439579 
L 341.430097 722.554205 
L 342.039129 725.792017 
L 342.64816 725.792017 
L 343.257192 723.201768 
L 343.866224 723.201768 
L 344.475256 725.144455 
L 345.693319 726.439579 
L 346.302351 722.554205 
L 346.911383 726.439579 
L 347.520415 723.201768 
L 348.129447 722.554205 
L 348.738478 725.792017 
L 349.34751 722.554205 
L 349.956542 723.84933 
L 350.565574 723.201768 
L 351.174605 723.84933 
L 351.783637 723.201768 
L 353.610733 723.201768 
L 354.219764 722.554205 
L 354.828796 722.554205 
L 355.437828 720.611518 
L 356.04686 723.201768 
L 356.655892 721.25908 
L 357.264923 721.25908 
L 358.482987 723.84933 
L 359.701051 722.554205 
L 360.310082 719.963956 
L 360.919114 722.554205 
L 361.528146 719.963956 
L 362.137178 723.201768 
L 362.746209 722.554205 
L 363.355241 723.84933 
L 365.182337 719.963956 
L 365.791368 721.25908 
L 366.4004 720.611518 
L 367.009432 717.373706 
L 368.227496 723.84933 
L 368.836527 721.25908 
L 369.445559 719.963956 
L 370.054591 723.201768 
L 370.663623 720.611518 
L 371.272655 720.611518 
L 371.881686 718.021268 
L 372.490718 720.611518 
L 374.317813 720.611518 
L 374.926845 718.021268 
L 375.535877 719.963956 
L 376.144909 720.611518 
L 376.753941 720.611518 
L 377.362972 718.021268 
L 377.972004 720.611518 
L 378.581036 718.021268 
L 379.190068 720.611518 
L 379.7991 718.021268 
L 380.408131 717.373706 
L 381.017163 718.021268 
L 381.626195 718.021268 
L 382.235227 716.726144 
L 383.45329 718.021268 
L 385.280386 718.021268 
L 385.889417 715.431019 
L 386.498449 715.431019 
L 387.107481 714.783457 
L 387.716513 716.726144 
L 388.325545 701.184647 
L 388.934576 714.783457 
L 389.543608 717.373706 
L 390.15264 718.021268 
L 390.761672 712.840769 
L 391.370704 718.021268 
L 391.979735 717.373706 
L 392.588767 717.373706 
L 393.197799 718.021268 
L 393.806831 718.021268 
L 394.415862 715.431019 
L 395.024894 718.021268 
L 395.633926 714.135894 
L 396.242958 714.135894 
L 396.85199 711.545645 
L 397.461021 715.431019 
L 399.288117 715.431019 
L 399.897149 714.783457 
L 400.50618 715.431019 
L 401.724244 714.135894 
L 402.333276 717.373706 
L 402.942308 714.783457 
L 405.378435 714.783457 
L 405.987466 715.431019 
L 406.596498 712.193207 
L 407.20553 714.783457 
L 407.814562 714.783457 
L 408.423594 715.431019 
L 409.032625 714.783457 
L 409.641657 715.431019 
L 410.250689 714.783457 
L 410.859721 712.193207 
L 411.468753 712.840769 
L 412.077784 712.840769 
L 412.686816 715.431019 
L 413.295848 712.193207 
L 413.90488 715.431019 
L 414.513912 712.193207 
L 415.122943 714.783457 
L 415.731975 715.431019 
L 416.341007 715.431019 
L 416.950039 712.193207 
L 417.55907 712.193207 
L 418.168102 712.840769 
L 418.777134 712.840769 
L 419.386166 712.193207 
L 419.995198 712.193207 
L 420.604229 712.840769 
L 421.213261 709.602957 
L 421.822293 712.840769 
L 422.431325 712.840769 
L 423.040357 711.545645 
L 423.649388 712.840769 
L 424.25842 712.193207 
L 425.476484 712.193207 
L 426.085515 712.840769 
L 426.694547 708.955395 
L 427.303579 712.193207 
L 427.912611 709.602957 
L 429.739706 709.602957 
L 430.348738 710.25052 
L 430.95777 712.193207 
L 431.566802 709.602957 
L 432.175833 712.193207 
L 432.784865 709.602957 
L 433.393897 712.193207 
L 434.002929 709.602957 
L 436.439056 709.602957 
L 437.048088 712.840769 
L 437.657119 709.602957 
L 438.875183 709.602957 
L 439.484215 706.365146 
L 440.093247 708.955395 
L 441.31131 710.25052 
L 441.920342 712.193207 
L 442.529374 710.25052 
L 443.138406 710.25052 
L 443.747437 709.602957 
L 444.356469 709.602957 
L 444.965501 708.955395 
L 446.183565 710.25052 
L 446.792596 706.365146 
L 447.401628 707.012708 
L 448.01066 706.365146 
L 448.619692 708.955395 
L 449.228723 707.012708 
L 451.055819 707.012708 
L 451.664851 706.365146 
L 452.273882 707.012708 
L 452.882914 706.365146 
L 453.491946 707.012708 
L 454.100978 706.365146 
L 454.71001 709.602957 
L 455.319041 707.012708 
L 456.537105 707.012708 
L 457.146137 706.365146 
L 457.755168 706.365146 
L 458.3642 707.012708 
L 458.973232 706.365146 
L 459.582264 707.012708 
L 460.191296 704.422458 
L 460.800327 707.012708 
L 461.409359 707.012708 
L 462.018391 703.774896 
L 462.627423 706.365146 
L 463.236455 704.422458 
L 463.845486 704.422458 
L 464.454518 707.012708 
L 465.06355 669.45409 
L 465.672582 706.365146 
L 466.281614 707.012708 
L 466.890645 709.602957 
L 467.499677 707.012708 
L 470.544836 707.012708 
L 471.153868 704.422458 
L 471.7629 703.774896 
L 472.371931 707.012708 
L 472.980963 703.774896 
L 473.589995 707.012708 
L 474.199027 704.422458 
L 474.808059 706.365146 
L 475.41709 704.422458 
L 476.026122 704.422458 
L 476.635154 703.774896 
L 477.853218 703.774896 
L 478.462249 707.012708 
L 479.071281 705.070021 
L 479.680313 704.422458 
L 480.289345 705.070021 
L 481.507408 703.774896 
L 482.11644 704.422458 
L 482.725472 703.774896 
L 483.334504 704.422458 
L 483.943535 703.774896 
L 484.552567 704.422458 
L 485.161599 707.012708 
L 485.770631 704.422458 
L 486.379663 707.012708 
L 486.988694 704.422458 
L 487.597726 705.070021 
L 488.206758 704.422458 
L 490.642885 704.422458 
L 491.251917 703.774896 
L 493.688044 703.774896 
L 494.297076 701.832209 
L 494.906108 704.422458 
L 495.515139 703.774896 
L 496.124171 705.070021 
L 496.733203 703.774896 
L 497.342235 701.832209 
L 497.951267 701.184647 
L 498.560298 701.184647 
L 499.16933 704.422458 
L 499.778362 699.241959 
L 500.387394 701.184647 
L 502.214489 701.184647 
L 502.823521 701.832209 
L 503.432553 699.241959 
L 504.041584 657.150405 
L 504.650616 701.184647 
L 505.259648 698.594397 
L 505.86868 701.832209 
L 506.477712 698.594397 
L 507.086743 701.832209 
L 507.695775 699.241959 
L 508.304807 701.184647 
L 508.913839 698.594397 
L 509.522871 701.184647 
L 510.131902 702.479771 
L 510.740934 698.594397 
L 511.349966 673.987026 
L 511.958998 698.594397 
L 512.568029 698.594397 
L 513.177061 660.388216 
L 513.786093 696.004147 
L 514.395125 697.946835 
L 515.004157 696.004147 
L 515.613188 696.004147 
L 516.22222 692.766336 
L 517.440284 699.241959 
L 518.049316 696.004147 
L 518.658347 694.06146 
L 519.267379 699.241959 
L 519.876411 699.241959 
L 520.485443 698.594397 
L 521.703506 698.594397 
L 522.312538 658.445529 
L 522.92157 696.004147 
L 523.530602 696.65171 
L 524.139633 696.004147 
L 524.748665 694.06146 
L 525.357697 694.06146 
L 525.966729 696.65171 
L 526.575761 695.356585 
L 527.184792 696.004147 
L 527.793824 695.356585 
L 528.402856 699.241959 
L 529.011888 636.428408 
L 529.62092 693.413898 
L 530.229951 688.233399 
L 530.838983 696.004147 
L 531.448015 693.413898 
L 532.057047 696.004147 
L 532.666078 693.413898 
L 533.27511 696.004147 
L 533.884142 696.004147 
L 534.493174 693.413898 
L 535.102206 693.413898 
L 535.711237 694.06146 
L 536.320269 693.413898 
L 536.929301 695.356585 
L 537.538333 693.413898 
L 538.147365 696.004147 
L 538.756396 696.004147 
L 539.365428 695.356585 
L 539.97446 696.004147 
L 540.583492 696.004147 
L 541.192524 584.623418 
L 541.801555 693.413898 
L 543.628651 693.413898 
L 544.237682 696.004147 
L 544.846714 692.766336 
L 545.455746 695.356585 
L 546.064778 695.356585 
L 546.67381 690.823648 
L 547.282841 692.766336 
L 547.891873 693.413898 
L 549.109937 693.413898 
L 549.718969 692.766336 
L 550.328 694.06146 
L 550.937032 690.823648 
L 551.546064 692.766336 
L 552.155096 692.766336 
L 552.764128 690.176086 
L 553.373159 692.766336 
L 553.982191 639.018658 
L 554.591223 690.176086 
L 555.200255 692.766336 
L 555.809286 692.766336 
L 556.418318 690.823648 
L 557.02735 693.413898 
L 557.636382 694.06146 
L 558.245414 693.413898 
L 558.854445 694.06146 
L 559.463477 692.766336 
L 560.072509 692.766336 
L 560.681541 693.413898 
L 561.290573 690.823648 
L 561.899604 696.004147 
L 562.508636 692.766336 
L 563.117668 690.823648 
L 563.7267 690.823648 
L 564.335732 693.413898 
L 564.944763 692.766336 
L 565.553795 688.233399 
L 566.162827 691.471211 
L 567.38089 690.176086 
L 568.598954 690.176086 
L 569.207986 690.823648 
L 569.817018 683.0529 
L 570.426049 666.216278 
L 571.035081 677.224838 
L 571.644113 684.995587 
L 572.253145 690.176086 
L 572.862177 690.823648 
L 573.471208 684.995587 
L 574.08024 688.233399 
L 574.689272 690.823648 
L 575.298304 690.176086 
L 575.907335 688.233399 
L 576.516367 691.471211 
L 577.125399 690.823648 
L 577.734431 688.233399 
L 578.343463 690.823648 
L 578.952494 690.823648 
L 579.561526 688.233399 
L 580.170558 690.176086 
L 580.77959 688.233399 
L 581.388622 686.938274 
L 581.997653 674.634589 
L 582.606685 676.577276 
L 583.215717 676.577276 
L 583.824749 690.176086 
L 584.433781 688.233399 
L 585.042812 688.233399 
L 585.651844 673.987026 
L 586.260876 673.987026 
L 586.869908 682.405337 
L 587.478939 687.585837 
L 588.087971 688.233399 
L 588.697003 687.585837 
L 589.306035 685.643149 
L 589.915067 688.233399 
L 591.742162 688.233399 
L 592.351194 687.585837 
L 592.960226 687.585837 
L 593.569257 684.995587 
L 594.178289 688.233399 
L 594.787321 677.224838 
L 595.396353 619.591786 
L 596.005385 683.0529 
L 596.614416 685.643149 
L 597.223448 679.167526 
L 597.83248 673.987026 
L 598.441512 674.634589 
L 599.050543 682.405337 
L 599.659575 688.233399 
L 600.268607 688.233399 
L 600.877639 685.643149 
L 601.486671 685.643149 
L 602.095702 684.995587 
L 602.704734 682.405337 
L 603.313766 683.0529 
L 603.922798 682.405337 
L 604.53183 684.995587 
L 605.140861 682.405337 
L 605.749893 674.634589 
L 606.358925 674.634589 
L 606.967957 684.995587 
L 607.576988 684.995587 
L 608.18602 682.405337 
L 608.795052 671.396777 
L 609.404084 668.806527 
L 610.013116 679.815088 
L 610.622147 682.405337 
L 611.231179 682.405337 
L 611.840211 679.815088 
L 612.449243 682.405337 
L 613.058275 679.167526 
L 613.667306 679.815088 
L 614.276338 679.815088 
L 614.88537 682.405337 
L 616.103434 677.224838 
L 616.712465 679.815088 
L 617.321497 668.806527 
L 617.930529 674.634589 
L 618.539561 674.634589 
L 619.148592 683.0529 
L 619.757624 671.396777 
L 620.366656 672.044339 
L 620.975688 683.0529 
L 621.58472 684.995587 
L 622.193751 679.815088 
L 622.802783 683.0529 
L 623.411815 682.405337 
L 624.020847 683.0529 
L 624.629879 677.224838 
L 625.23891 622.829598 
L 625.847942 677.224838 
L 626.456974 679.167526 
L 627.066006 659.740654 
L 627.675038 668.806527 
L 628.284069 673.987026 
L 628.893101 672.691902 
L 629.502133 668.806527 
L 630.111165 674.634589 
L 631.329228 674.634589 
L 631.93826 677.872401 
L 632.547292 677.224838 
L 633.156324 679.815088 
L 633.765355 677.872401 
L 634.374387 679.815088 
L 634.983419 682.405337 
L 635.592451 679.815088 
L 636.201483 672.691902 
L 636.810514 679.815088 
L 637.419546 677.224838 
L 638.028578 631.247909 
L 638.63761 678.519963 
L 639.246642 671.396777 
L 639.855673 661.035779 
L 640.464705 677.224838 
L 641.073737 665.568716 
L 641.682769 665.568716 
L 642.2918 679.815088 
L 644.118896 679.815088 
L 644.727928 671.396777 
L 645.336959 676.577276 
L 645.945991 676.577276 
L 646.555023 673.987026 
L 647.164055 677.224838 
L 647.773087 673.987026 
L 648.382118 560.016047 
L 648.99115 668.158965 
L 649.600182 630.600347 
L 650.209214 673.987026 
L 650.818245 671.396777 
L 651.427277 663.626028 
L 652.036309 666.86384 
L 652.645341 674.634589 
L 653.863404 674.634589 
L 654.472436 671.396777 
L 655.081468 674.634589 
L 655.6905 668.158965 
L 656.299532 647.436969 
L 656.908563 663.626028 
L 657.517595 661.035779 
L 658.126627 661.035779 
L 658.735659 668.806527 
L 659.344691 402.010826 
L 659.953722 671.396777 
L 660.562754 661.035779 
L 661.171786 669.45409 
L 661.780818 666.216278 
L 662.389849 668.806527 
L 662.998881 668.806527 
L 663.607913 673.987026 
L 664.216945 666.216278 
L 664.825977 662.978466 
L 665.435008 650.027218 
L 666.04404 666.86384 
L 666.653072 671.396777 
L 667.262104 664.273591 
L 667.871136 655.207717 
L 668.480167 666.216278 
L 669.089199 661.035779 
L 669.698231 658.445529 
L 670.307263 674.634589 
L 670.916295 671.396777 
L 671.525326 668.806527 
L 672.134358 672.044339 
L 672.74339 672.691902 
L 673.352422 655.207717 
L 673.961453 658.445529 
L 674.570485 666.86384 
L 675.179517 672.044339 
L 675.788549 671.396777 
L 676.397581 672.044339 
L 677.006612 668.806527 
L 677.615644 668.806527 
L 678.833708 663.626028 
L 679.44274 668.806527 
L 680.051771 669.45409 
L 680.660803 668.158965 
L 681.269835 671.396777 
L 681.878867 668.806527 
L 682.487898 668.806527 
L 683.09693 669.45409 
L 683.705962 668.806527 
L 684.314994 600.812477 
L 684.924026 671.396777 
L 685.533057 668.806527 
L 686.142089 635.780846 
L 686.751121 657.797967 
L 687.360153 652.617468 
L 687.969185 661.035779 
L 688.578216 671.396777 
L 689.187248 660.388216 
L 689.79628 652.617468 
L 690.405312 655.85528 
L 691.014344 660.388216 
L 691.623375 666.216278 
L 692.232407 666.216278 
L 692.841439 666.86384 
L 693.450471 668.158965 
L 694.059502 668.806527 
L 694.668534 671.396777 
L 695.277566 668.806527 
L 695.886598 671.396777 
L 696.49563 671.396777 
L 697.104661 673.987026 
L 697.713693 592.394166 
L 698.322725 663.626028 
L 698.931757 668.806527 
L 699.540789 668.806527 
L 700.14982 671.396777 
L 700.758852 671.396777 
L 701.367884 668.806527 
L 701.976916 669.45409 
L 702.585948 669.45409 
L 703.194979 665.568716 
L 703.804011 671.396777 
L 704.413043 668.806527 
L 705.022075 668.158965 
L 705.631106 671.396777 
L 706.240138 671.396777 
L 707.458202 666.216278 
L 708.067234 668.806527 
L 708.676265 669.45409 
L 709.894329 662.978466 
L 710.503361 660.388216 
L 711.112393 662.978466 
L 711.721424 574.26242 
L 712.330456 628.010097 
L 712.939488 662.978466 
L 714.157552 657.797967 
L 714.766583 639.66622 
L 715.375615 661.035779 
L 715.984647 661.035779 
L 716.593679 662.978466 
L 717.20271 662.978466 
L 717.811742 660.388216 
L 718.420774 663.626028 
L 719.029806 660.388216 
L 719.638838 663.626028 
L 720.247869 663.626028 
L 720.856901 661.035779 
L 722.074965 666.216278 
L 722.683997 664.273591 
L 723.293028 666.86384 
L 723.90206 661.035779 
L 724.511092 662.978466 
L 725.120124 663.626028 
L 725.729155 661.035779 
L 726.338187 657.797967 
L 726.947219 663.626028 
L 727.556251 663.626028 
L 728.165283 662.978466 
L 728.774314 657.797967 
L 729.383346 662.978466 
L 729.992378 661.035779 
L 730.60141 661.035779 
L 731.210442 663.626028 
L 731.819473 663.626028 
L 732.428505 660.388216 
L 733.037537 658.445529 
L 733.646569 661.035779 
L 734.255601 646.789406 
L 734.864632 637.075971 
L 735.473664 657.150405 
L 736.082696 661.035779 
L 736.691728 666.86384 
L 737.300759 661.035779 
L 737.909791 665.568716 
L 738.518823 666.216278 
L 739.127855 663.626028 
L 739.736887 666.216278 
L 740.345918 663.626028 
L 740.95495 665.568716 
L 741.563982 666.86384 
L 742.173014 658.445529 
L 742.782046 663.626028 
L 743.391077 661.035779 
L 744.000109 666.216278 
L 744.609141 666.216278 
L 745.218173 664.273591 
L 745.827205 662.978466 
L 746.436236 661.035779 
L 747.6543 661.035779 
L 748.263332 663.626028 
L 748.872363 662.978466 
L 749.481395 661.035779 
L 750.090427 661.035779 
L 750.699459 662.978466 
L 751.308491 661.035779 
L 751.917522 663.626028 
L 752.526554 657.150405 
L 753.135586 661.035779 
L 753.744618 662.978466 
L 754.35365 661.035779 
L 754.962681 659.740654 
L 755.571713 655.85528 
L 756.180745 660.388216 
L 756.789777 657.797967 
L 758.00784 640.961345 
L 758.616872 660.388216 
L 759.225904 658.445529 
L 759.834936 658.445529 
L 760.443967 661.035779 
L 761.052999 657.797967 
L 761.662031 655.207717 
L 762.271063 657.797967 
L 762.880095 655.207717 
L 763.489126 657.150405 
L 764.098158 657.150405 
L 764.70719 660.388216 
L 765.316222 658.445529 
L 765.925254 655.85528 
L 766.534285 654.560155 
L 767.143317 587.213667 
L 767.752349 651.969906 
L 768.361381 639.018658 
L 768.970412 655.207717 
L 769.579444 660.388216 
L 770.188476 661.035779 
L 770.797508 658.445529 
L 771.40654 660.388216 
L 772.015571 657.797967 
L 772.624603 622.829598 
L 773.233635 661.035779 
L 773.842667 654.560155 
L 774.451699 658.445529 
L 775.06073 655.207717 
L 775.669762 658.445529 
L 776.278794 660.388216 
L 776.887826 660.388216 
L 777.496858 658.445529 
L 778.105889 657.797967 
L 778.714921 605.992976 
L 779.323953 654.560155 
L 779.932985 618.296662 
L 780.542016 655.85528 
L 781.151048 657.797967 
L 781.76008 655.207717 
L 782.369112 655.207717 
L 782.978144 652.617468 
L 783.587175 652.617468 
L 784.196207 655.207717 
L 784.805239 650.027218 
L 785.414271 652.617468 
L 786.023303 655.85528 
L 786.632334 660.388216 
L 787.241366 655.85528 
L 787.850398 663.626028 
L 788.45943 663.626028 
L 789.068462 660.388216 
L 789.677493 519.219617 
L 790.286525 661.035779 
L 791.504589 661.035779 
L 792.11362 659.740654 
L 792.722652 603.402727 
L 793.331684 655.207717 
L 793.940716 657.150405 
L 794.549748 658.445529 
L 795.158779 655.207717 
L 795.767811 654.560155 
L 796.376843 657.797967 
L 796.985875 655.207717 
L 797.594907 658.445529 
L 798.203938 652.617468 
L 798.81297 652.617468 
L 799.422002 661.035779 
L 800.031034 654.560155 
L 800.640065 658.445529 
L 801.249097 657.150405 
L 801.858129 657.150405 
L 802.467161 655.207717 
L 803.076193 657.797967 
L 804.294256 652.617468 
L 804.903288 568.434358 
L 805.51232 655.85528 
L 806.121352 655.207717 
L 806.730383 660.388216 
L 807.339415 657.150405 
L 807.948447 657.797967 
L 808.557479 657.150405 
L 809.166511 657.150405 
L 809.775542 655.85528 
L 810.384574 658.445529 
L 810.993606 644.199157 
L 811.602638 639.018658 
L 812.211669 644.199157 
L 812.820701 652.617468 
L 813.429733 651.969906 
L 814.038765 652.617468 
L 814.647797 652.617468 
L 815.256828 649.379656 
L 815.86586 654.560155 
L 816.474892 652.617468 
L 817.083924 650.027218 
L 817.692956 655.207717 
L 818.301987 652.617468 
L 820.129083 652.617468 
L 820.738115 650.027218 
L 821.347146 652.617468 
L 822.56521 652.617468 
L 823.174242 654.560155 
L 823.783273 655.85528 
L 824.392305 554.187986 
L 825.001337 655.207717 
L 825.610369 655.207717 
L 826.219401 658.445529 
L 826.828432 651.969906 
L 827.437464 655.207717 
L 828.046496 557.425798 
L 828.655528 650.027218 
L 829.26456 600.812477 
L 829.873591 652.617468 
L 830.482623 650.027218 
L 831.091655 650.027218 
L 831.700687 647.436969 
L 832.309718 649.379656 
L 832.91875 650.027218 
L 833.527782 646.789406 
L 834.136814 647.436969 
L 834.745846 650.027218 
L 835.354877 583.975855 
L 835.963909 650.027218 
L 836.572941 652.617468 
L 837.791005 647.436969 
L 838.400036 647.436969 
L 839.009068 601.46004 
L 839.6181 639.018658 
L 840.227132 652.617468 
L 840.836164 650.027218 
L 841.445195 551.597736 
L 842.054227 650.027218 
L 845.099386 650.027218 
L 845.708418 647.436969 
L 846.31745 647.436969 
L 846.926481 650.027218 
L 847.535513 641.608907 
L 848.144545 646.789406 
L 848.753577 646.789406 
L 849.362609 650.027218 
L 849.97164 645.494282 
L 850.580672 644.199157 
L 851.189704 647.436969 
L 851.798736 652.617468 
L 852.407768 646.789406 
L 853.016799 652.617468 
L 853.625831 649.379656 
L 854.234863 650.027218 
L 855.452926 650.027218 
L 856.061958 652.617468 
L 856.67099 650.027218 
L 857.280022 646.789406 
L 857.889054 647.436969 
L 858.498085 642.25647 
L 859.107117 646.789406 
L 859.716149 647.436969 
L 860.325181 647.436969 
L 860.934213 641.608907 
L 862.152276 648.084531 
L 862.761308 644.199157 
L 863.37034 647.436969 
L 863.979372 652.617468 
L 864.588403 646.789406 
L 865.197435 652.617468 
L 865.806467 577.500232 
L 866.415499 639.018658 
L 867.02453 628.010097 
L 867.633562 558.07336 
L 868.242594 554.835548 
L 868.851626 549.007487 
L 869.460658 639.018658 
L 870.069689 641.608907 
L 870.678721 646.789406 
L 871.287753 644.846719 
L 871.896785 644.846719 
L 872.505817 644.199157 
L 873.114848 640.961345 
L 873.72388 642.25647 
L 874.332912 644.846719 
L 874.941944 642.25647 
L 875.550975 630.600347 
L 876.160007 628.65766 
L 876.769039 641.608907 
L 877.378071 647.436969 
L 877.987103 497.850059 
L 878.596134 644.846719 
L 879.205166 648.084531 
L 879.814198 644.199157 
L 880.42323 641.608907 
L 881.032262 639.66622 
L 881.641293 641.608907 
L 882.250325 644.846719 
L 882.859357 644.846719 
L 883.468389 641.608907 
L 884.077421 642.25647 
L 884.686452 639.018658 
L 885.295484 645.494282 
L 885.904516 639.018658 
L 887.122579 644.199157 
L 887.731611 642.25647 
L 888.340643 592.394166 
L 888.949675 641.608907 
L 890.167738 641.608907 
L 890.77677 551.597736 
L 891.385802 644.199157 
L 891.994834 644.199157 
L 892.603866 641.608907 
L 893.212897 635.780846 
L 893.821929 620.239349 
L 894.430961 620.886911 
L 895.039993 611.173475 
L 895.649025 633.190596 
L 896.258056 557.425798 
L 896.867088 541.884301 
L 897.47612 594.984416 
L 898.085152 633.838159 
L 898.694183 635.780846 
L 899.303215 628.010097 
L 899.912247 633.838159 
L 900.521279 637.075971 
L 901.130311 633.838159 
L 901.739342 633.190596 
L 902.348374 633.190596 
L 902.957406 641.608907 
L 904.17547 641.608907 
L 904.784501 638.371095 
L 906.002565 639.66622 
L 906.611597 639.018658 
L 907.220628 639.018658 
L 907.82966 642.25647 
L 908.438692 639.018658 
L 909.047724 636.428408 
L 909.656756 642.25647 
L 910.265787 642.25647 
L 910.874819 635.780846 
L 911.483851 638.371095 
L 912.092883 635.780846 
L 912.701915 636.428408 
L 913.310946 639.66622 
L 913.919978 637.075971 
L 914.52901 641.608907 
L 915.138042 636.428408 
L 915.747074 557.425798 
L 916.356105 641.608907 
L 916.965137 639.018658 
L 918.183201 639.018658 
L 918.792232 633.190596 
L 919.401264 633.190596 
L 920.010296 636.428408 
L 920.619328 635.780846 
L 921.22836 576.205107 
L 921.837391 624.772285 
L 922.446423 633.838159 
L 923.055455 637.075971 
L 923.664487 639.018658 
L 924.273519 635.780846 
L 924.88255 637.075971 
L 925.491582 636.428408 
L 926.100614 636.428408 
L 926.709646 633.190596 
L 927.318678 637.075971 
L 927.927709 639.66622 
L 929.145773 633.190596 
L 929.754805 636.428408 
L 930.363836 636.428408 
L 930.972868 633.838159 
L 931.5819 637.075971 
L 932.190932 635.780846 
L 932.799964 633.838159 
L 933.408995 636.428408 
L 934.018027 633.838159 
L 934.627059 633.190596 
L 935.236091 562.606297 
L 935.845123 633.190596 
L 936.454154 637.075971 
L 937.063186 633.190596 
L 937.672218 633.838159 
L 938.28125 635.780846 
L 938.890282 628.010097 
L 939.499313 633.838159 
L 940.717377 633.838159 
L 941.326409 635.780846 
L 941.93544 633.838159 
L 942.544472 633.190596 
L 943.153504 578.795356 
L 943.762536 633.838159 
L 944.371568 631.247909 
L 944.980599 633.838159 
L 945.589631 625.419848 
L 946.198663 628.010097 
L 946.807695 631.247909 
L 947.416727 631.247909 
L 948.025758 630.600347 
L 948.63479 633.838159 
L 949.243822 605.992976 
L 950.461885 622.829598 
L 951.070917 628.010097 
L 952.288981 628.010097 
L 952.898013 625.419848 
L 953.507044 628.010097 
L 954.116076 624.772285 
L 954.725108 628.65766 
L 955.33414 628.010097 
L 955.943172 628.65766 
L 956.552203 620.239349 
L 957.161235 628.65766 
L 957.770267 521.809867 
L 958.379299 590.451479 
L 958.988331 619.591786 
L 959.597362 628.010097 
L 960.206394 633.190596 
L 960.815426 627.362535 
L 961.424458 619.591786 
L 962.033489 622.829598 
L 962.642521 567.786796 
L 963.251553 628.010097 
L 963.860585 625.419848 
L 964.469617 582.033168 
L 965.078648 614.411287 
L 965.68768 624.772285 
L 966.296712 619.591786 
L 966.905744 591.099042 
L 967.514776 622.182036 
L 968.123807 627.362535 
L 968.732839 619.591786 
L 969.341871 622.829598 
L 969.950903 625.419848 
L 970.559935 622.829598 
L 971.168966 617.001537 
L 971.777998 608.583226 
L 972.38703 622.182036 
L 972.996062 625.419848 
L 974.823157 625.419848 
L 975.432189 571.67217 
L 976.041221 625.419848 
L 976.650252 565.844109 
L 977.259284 604.050289 
L 977.868316 617.001537 
L 978.477348 620.239349 
L 979.08638 619.591786 
L 979.695411 620.239349 
L 980.304443 622.829598 
L 980.913475 619.591786 
L 981.522507 622.182036 
L 982.131538 604.050289 
L 982.74057 608.583226 
L 983.349602 622.829598 
L 983.958634 620.239349 
L 984.567666 625.419848 
L 985.176697 627.362535 
L 985.785729 605.992976 
L 986.394761 622.829598 
L 987.003793 625.419848 
L 987.612825 631.247909 
L 988.221856 609.230788 
L 988.830888 615.05885 
L 989.43992 622.829598 
L 990.048952 628.65766 
L 990.657984 625.419848 
L 991.267015 625.419848 
L 991.876047 628.010097 
L 992.485079 394.88764 
L 993.094111 512.096431 
L 993.703142 567.786796 
L 994.312174 609.230788 
L 994.921206 619.591786 
L 995.530238 615.05885 
L 996.13927 615.05885 
L 996.748301 611.821038 
L 997.357333 573.614857 
L 997.966365 611.173475 
L 998.575397 552.245299 
L 999.184429 618.296662 
L 999.79346 622.829598 
L 1000.402492 620.239349 
L 1001.011524 617.001537 
L 1001.620556 546.417237 
L 1002.229588 549.655049 
L 1002.838619 606.640539 
L 1003.447651 611.821038 
L 1004.056683 605.992976 
L 1004.665715 590.451479 
L 1005.274746 614.411287 
L 1005.883778 617.649099 
L 1006.49281 611.821038 
L 1007.101842 609.230788 
L 1007.710874 620.239349 
L 1008.319905 611.821038 
L 1008.928937 617.649099 
L 1009.537969 620.239349 
L 1010.147001 609.878351 
L 1010.756033 549.007487 
L 1011.365064 615.05885 
L 1011.974096 617.649099 
L 1012.583128 589.803917 
L 1013.19216 609.230788 
L 1013.801192 615.05885 
L 1014.410223 622.829598 
L 1015.019255 617.001537 
L 1015.628287 576.852669 
L 1016.237319 342.435087 
L 1016.84635 557.425798 
L 1017.455382 380.641267 
L 1018.064414 595.631978 
L 1018.673446 606.640539 
L 1019.282478 609.230788 
L 1019.891509 609.230788 
L 1020.500541 614.411287 
L 1021.109573 612.4686 
L 1021.718605 614.411287 
L 1022.327637 446.045068 
L 1022.936668 614.411287 
L 1023.5457 615.05885 
L 1024.154732 615.05885 
L 1024.763764 611.821038 
L 1025.372795 617.001537 
L 1025.981827 614.411287 
L 1026.590859 622.829598 
L 1027.199891 617.001537 
L 1027.808923 620.239349 
L 1029.026986 620.239349 
L 1029.636018 619.591786 
L 1030.24505 620.239349 
L 1030.854082 617.649099 
L 1031.463113 614.411287 
L 1032.072145 622.829598 
L 1032.681177 620.239349 
L 1033.290209 620.239349 
L 1033.899241 617.001537 
L 1034.508272 617.001537 
L 1035.117304 622.829598 
L 1038.162463 622.829598 
L 1038.771495 617.649099 
L 1039.380527 614.411287 
L 1039.989558 609.230788 
L 1040.59859 614.411287 
L 1041.207622 614.411287 
L 1041.816654 617.649099 
L 1042.425686 622.182036 
L 1043.034717 614.411287 
L 1043.643749 618.296662 
L 1044.252781 484.898811 
L 1044.861813 617.649099 
L 1045.470845 614.411287 
L 1046.079876 617.001537 
L 1046.688908 617.649099 
L 1047.29794 620.239349 
L 1047.906972 611.173475 
L 1048.516003 617.001537 
L 1049.125035 614.411287 
L 1049.734067 614.411287 
L 1050.343099 619.591786 
L 1050.952131 617.001537 
L 1051.561162 617.001537 
L 1052.170194 622.829598 
L 1052.779226 622.829598 
L 1053.388258 620.239349 
L 1053.99729 625.419848 
L 1054.606321 620.239349 
L 1055.215353 620.239349 
L 1055.824385 622.829598 
L 1056.433417 622.829598 
L 1057.042448 617.001537 
L 1057.65148 622.829598 
L 1058.260512 619.591786 
L 1058.869544 620.239349 
L 1059.478576 625.419848 
L 1060.087607 622.829598 
L 1060.696639 617.649099 
L 1061.305671 617.001537 
L 1061.914703 609.878351 
L 1062.523735 614.411287 
L 1063.132766 604.050289 
L 1063.741798 510.801306 
L 1064.35083 614.411287 
L 1064.959862 617.649099 
L 1065.568894 617.649099 
L 1066.177925 617.001537 
L 1066.786957 614.411287 
L 1067.395989 609.878351 
L 1068.614052 619.591786 
L 1069.223084 611.821038 
L 1069.832116 614.411287 
L 1070.441148 609.230788 
L 1071.05018 611.821038 
L 1071.659211 571.67217 
L 1072.268243 605.992976 
L 1072.877275 571.024608 
L 1073.486307 606.640539 
L 1074.095339 614.411287 
L 1074.70437 606.640539 
L 1075.313402 609.230788 
L 1075.922434 617.001537 
L 1076.531466 617.001537 
L 1077.140498 615.05885 
L 1077.749529 619.591786 
L 1078.358561 617.001537 
L 1078.967593 564.548984 
L 1079.576625 570.377045 
L 1080.185656 617.001537 
L 1080.794688 617.649099 
L 1081.40372 611.821038 
L 1082.012752 611.173475 
L 1082.621784 611.821038 
L 1083.230815 608.583226 
L 1083.839847 611.173475 
L 1084.448879 611.173475 
L 1085.057911 620.239349 
L 1085.666943 620.239349 
L 1086.275974 617.001537 
L 1086.885006 617.649099 
L 1087.494038 565.844109 
L 1088.10307 611.821038 
L 1088.712102 619.591786 
L 1089.321133 614.411287 
L 1089.930165 617.001537 
L 1090.539197 617.649099 
L 1091.148229 619.591786 
L 1091.75726 619.591786 
L 1092.366292 620.239349 
L 1092.975324 506.26837 
L 1093.584356 611.821038 
L 1094.193388 609.230788 
L 1094.802419 611.821038 
L 1095.411451 606.640539 
L 1096.020483 516.629368 
L 1096.629515 602.755164 
L 1097.238547 576.852669 
L 1097.847578 584.623418 
L 1098.45661 611.821038 
L 1099.065642 604.050289 
L 1099.674674 606.640539 
L 1100.283705 582.033168 
L 1100.892737 607.288101 
L 1101.501769 476.4805 
L 1102.110801 571.67217 
L 1102.719833 604.050289 
L 1103.328864 592.394166 
L 1103.937896 587.213667 
L 1104.546928 590.451479 
L 1105.15596 600.812477 
L 1105.764992 571.024608 
L 1106.374023 595.631978 
L 1106.983055 595.631978 
L 1107.592087 597.574665 
L 1108.810151 604.050289 
L 1109.419182 576.852669 
L 1110.028214 492.021997 
L 1110.637246 593.041729 
L 1111.246278 568.434358 
L 1111.855309 408.48645 
L 1112.464341 595.631978 
L 1113.073373 593.041729 
L 1113.682405 595.631978 
L 1114.291437 601.46004 
L 1114.900468 543.179425 
L 1115.5095 513.391556 
L 1116.118532 595.631978 
L 1116.727564 572.967295 
L 1117.336596 598.222228 
L 1117.945627 595.631978 
L 1118.554659 595.631978 
L 1119.163691 601.46004 
L 1119.772723 598.86979 
L 1120.381755 604.050289 
L 1120.990786 601.46004 
L 1121.599818 554.187986 
L 1122.20885 598.222228 
L 1122.817882 600.164915 
L 1123.426913 600.812477 
L 1124.035945 597.574665 
L 1124.644977 598.222228 
L 1125.254009 598.222228 
L 1125.863041 593.041729 
L 1126.472072 600.164915 
L 1127.081104 598.222228 
L 1127.690136 568.434358 
L 1128.299168 598.86979 
L 1128.9082 604.050289 
L 1129.517231 605.992976 
L 1130.126263 604.050289 
L 1130.735295 579.442919 
L 1131.344327 585.27098 
L 1131.953358 440.864569 
L 1132.56239 589.803917 
L 1133.171422 589.803917 
L 1133.780454 584.623418 
L 1134.389486 587.86123 
L 1134.998517 598.86979 
L 1135.607549 595.631978 
L 1136.825613 600.812477 
L 1137.434645 598.86979 
L 1138.043676 600.164915 
L 1138.652708 600.812477 
L 1139.26174 595.631978 
L 1139.870772 604.050289 
L 1140.479804 600.164915 
L 1141.088835 609.230788 
L 1141.697867 608.583226 
L 1142.306899 606.640539 
L 1142.915931 600.164915 
L 1143.524962 609.230788 
L 1144.133994 606.640539 
L 1144.743026 378.69858 
L 1145.352058 609.230788 
L 1147.179153 609.230788 
L 1147.788185 608.583226 
L 1148.397217 605.992976 
L 1149.006249 606.640539 
L 1149.61528 609.878351 
L 1150.224312 608.583226 
L 1151.442376 603.402727 
L 1152.051408 609.878351 
L 1152.660439 607.288101 
L 1153.269471 608.583226 
L 1153.878503 606.640539 
L 1154.487535 607.288101 
L 1155.096566 605.992976 
L 1155.705598 519.219617 
L 1156.31463 606.640539 
L 1156.923662 604.050289 
L 1157.532694 606.640539 
L 1158.141725 608.583226 
L 1158.750757 340.4924 
L 1159.359789 584.623418 
L 1159.968821 606.640539 
L 1160.577853 606.640539 
L 1161.186884 609.878351 
L 1161.795916 607.288101 
L 1162.404948 603.402727 
L 1163.01398 611.821038 
L 1163.623012 608.583226 
L 1164.232043 606.640539 
L 1164.841075 604.050289 
L 1165.450107 598.86979 
L 1166.059139 603.402727 
L 1166.66817 609.878351 
L 1167.277202 598.86979 
L 1167.886234 595.631978 
L 1168.495266 601.46004 
L 1169.104298 598.222228 
L 1169.713329 552.245299 
L 1170.322361 595.631978 
L 1170.931393 598.222228 
L 1171.540425 426.618197 
L 1172.149457 589.803917 
L 1172.758488 587.213667 
L 1173.36752 601.46004 
L 1173.976552 598.222228 
L 1174.585584 592.394166 
L 1175.194615 592.394166 
L 1175.803647 598.222228 
L 1176.412679 595.631978 
L 1177.021711 595.631978 
L 1177.630743 598.86979 
L 1178.239774 592.394166 
L 1178.848806 598.222228 
L 1179.457838 598.222228 
L 1180.06687 594.984416 
L 1180.675902 598.86979 
L 1181.284933 593.041729 
L 1181.893965 596.279541 
L 1182.502997 598.222228 
L 1183.721061 598.222228 
L 1184.330092 593.041729 
L 1184.939124 593.041729 
L 1185.548156 583.975855 
L 1186.157188 598.222228 
L 1186.766219 594.984416 
L 1187.375251 547.0648 
L 1187.984283 592.394166 
L 1188.593315 598.86979 
L 1189.202347 595.631978 
L 1189.811378 595.631978 
L 1190.42041 589.803917 
L 1191.029442 593.041729 
L 1191.638474 593.041729 
L 1192.856537 598.222228 
L 1193.465569 595.631978 
L 1194.074601 592.394166 
L 1194.683633 598.86979 
L 1195.292665 593.041729 
L 1195.901696 595.631978 
L 1196.510728 594.984416 
L 1197.11976 598.222228 
L 1197.728792 595.631978 
L 1198.337823 595.631978 
L 1198.946855 593.041729 
L 1199.555887 592.394166 
L 1200.164919 589.803917 
L 1200.773951 593.041729 
L 1201.382982 593.041729 
L 1201.992014 576.205107 
L 1202.601046 528.285491 
L 1203.210078 299.048407 
L 1203.81911 590.451479 
L 1204.428141 487.489061 
L 1205.037173 589.803917 
L 1205.646205 590.451479 
L 1206.255237 595.631978 
L 1206.864268 583.975855 
L 1207.4733 592.394166 
L 1208.082332 589.803917 
L 1208.691364 594.984416 
L 1209.300396 598.86979 
L 1209.909427 584.623418 
L 1210.518459 503.030558 
L 1211.127491 580.090481 
L 1211.736523 581.385606 
L 1212.345555 580.090481 
L 1212.954586 587.86123 
L 1213.563618 584.623418 
L 1214.17265 576.205107 
L 1214.781682 587.213667 
L 1215.390714 579.442919 
L 1215.999745 581.385606 
L 1216.608777 582.680731 
L 1217.217809 582.033168 
L 1217.826841 543.179425 
L 1218.435872 255.661728 
L 1219.044904 576.205107 
L 1219.653936 585.27098 
L 1220.262968 573.614857 
L 1220.872 576.205107 
L 1221.481031 495.259809 
L 1222.090063 568.434358 
L 1222.699095 581.385606 
L 1223.308127 587.86123 
L 1223.917159 587.213667 
L 1224.52619 582.033168 
L 1225.135222 578.795356 
L 1225.744254 563.253859 
L 1226.353286 582.033168 
L 1227.571349 593.041729 
L 1228.789413 582.033168 
L 1229.398445 593.041729 
L 1230.007476 590.451479 
L 1230.616508 475.832938 
L 1231.22554 587.213667 
L 1231.834572 592.394166 
L 1232.443604 584.623418 
L 1233.052635 595.631978 
L 1233.661667 587.213667 
L 1234.270699 589.803917 
L 1234.879731 585.27098 
L 1235.488763 587.213667 
L 1236.097794 473.242688 
L 1236.706826 587.213667 
L 1237.315858 595.631978 
L 1237.92489 587.213667 
L 1238.533922 589.803917 
L 1239.142953 587.213667 
L 1240.970049 587.213667 
L 1241.57908 582.033168 
L 1242.188112 573.614857 
L 1242.797144 313.29478 
L 1243.406176 571.67217 
L 1244.015208 560.66361 
L 1244.624239 580.090481 
L 1245.233271 584.623418 
L 1245.842303 582.680731 
L 1246.451335 587.213667 
L 1247.060367 584.623418 
L 1247.669398 587.213667 
L 1248.27843 587.213667 
L 1248.887462 365.09977 
L 1249.496494 578.795356 
L 1250.105525 572.967295 
L 1250.714557 584.623418 
L 1251.323589 573.614857 
L 1251.932621 578.795356 
L 1252.541653 582.680731 
L 1253.150684 584.623418 
L 1253.759716 582.033168 
L 1254.368748 560.016047 
L 1254.97778 570.377045 
L 1255.586812 568.434358 
L 1256.195843 560.66361 
L 1256.804875 572.967295 
L 1257.413907 498.497621 
L 1258.022939 579.442919 
L 1258.631971 579.442919 
L 1259.241002 578.795356 
L 1259.850034 582.680731 
L 1260.459066 579.442919 
L 1261.068098 576.852669 
L 1261.677129 585.27098 
L 1262.286161 578.795356 
L 1262.895193 579.442919 
L 1263.504225 581.385606 
L 1264.113257 418.847448 
L 1264.722288 587.86123 
L 1265.33132 587.213667 
L 1265.940352 579.442919 
L 1266.549384 587.213667 
L 1267.158416 582.033168 
L 1267.767447 584.623418 
L 1268.376479 584.623418 
L 1268.985511 464.824377 
L 1269.594543 533.46599 
L 1270.203575 581.385606 
L 1270.812606 581.385606 
L 1271.421638 572.967295 
L 1272.03067 571.024608 
L 1272.639702 579.442919 
L 1273.248733 579.442919 
L 1273.857765 576.852669 
L 1274.466797 551.597736 
L 1275.075829 584.623418 
L 1275.684861 581.385606 
L 1276.293892 581.385606 
L 1276.902924 584.623418 
L 1277.511956 571.67217 
L 1278.120988 581.385606 
L 1278.73002 299.69597 
L 1279.339051 582.033168 
L 1279.948083 581.385606 
L 1280.557115 582.033168 
L 1281.166147 576.205107 
L 1281.775178 585.27098 
L 1282.38421 571.67217 
L 1283.602274 585.27098 
L 1284.211306 580.090481 
L 1284.820337 576.852669 
L 1285.429369 576.852669 
L 1286.038401 582.680731 
L 1286.647433 574.26242 
L 1287.256465 576.852669 
L 1287.865496 576.852669 
L 1288.474528 582.680731 
L 1289.08356 578.795356 
L 1289.692592 582.680731 
L 1290.301624 579.442919 
L 1290.910655 582.033168 
L 1291.519687 582.680731 
L 1292.128719 498.497621 
L 1292.737751 571.024608 
L 1293.346782 568.434358 
L 1294.564846 573.614857 
L 1295.173878 574.26242 
L 1295.78291 573.614857 
L 1296.391941 576.205107 
L 1297.000973 580.090481 
L 1297.610005 578.795356 
L 1298.219037 582.033168 
L 1298.828069 579.442919 
L 1299.4371 581.385606 
L 1300.046132 579.442919 
L 1300.655164 576.852669 
L 1301.264196 578.795356 
L 1301.873228 576.852669 
L 1302.482259 468.062189 
L 1303.091291 576.852669 
L 1303.700323 579.442919 
L 1304.309355 494.612247 
L 1304.918386 581.385606 
L 1305.527418 576.205107 
L 1306.13645 576.205107 
L 1306.745482 571.67217 
L 1307.354514 580.090481 
L 1307.963545 576.205107 
L 1308.572577 579.442919 
L 1309.181609 579.442919 
L 1309.790641 576.852669 
L 1310.399673 579.442919 
L 1311.008704 573.614857 
L 1311.617736 579.442919 
L 1312.226768 582.033168 
L 1312.8358 572.967295 
L 1313.444832 582.680731 
L 1314.662895 570.377045 
L 1315.271927 536.056239 
L 1315.880959 538.646489 
L 1316.48999 580.090481 
L 1317.099022 574.26242 
L 1317.708054 576.205107 
L 1318.317086 302.286219 
L 1318.926118 578.795356 
L 1319.535149 579.442919 
L 1320.144181 568.434358 
L 1320.753213 576.205107 
L 1321.362245 572.967295 
L 1321.971277 568.434358 
L 1322.580308 574.26242 
L 1323.18934 565.844109 
L 1323.798372 574.26242 
L 1324.407404 576.205107 
L 1325.016435 579.442919 
L 1325.625467 574.26242 
L 1326.234499 576.852669 
L 1326.843531 576.852669 
L 1327.452563 582.680731 
L 1328.061594 544.47455 
L 1328.670626 579.442919 
L 1329.279658 581.385606 
L 1329.88869 582.033168 
L 1330.497722 574.26242 
L 1331.106753 574.26242 
L 1331.715785 565.196546 
L 1332.324817 571.024608 
L 1332.933849 573.614857 
L 1333.542881 581.385606 
L 1334.151912 578.795356 
L 1334.760944 578.795356 
L 1335.369976 582.033168 
L 1335.979008 578.795356 
L 1336.588039 582.033168 
L 1337.197071 578.795356 
L 1337.806103 581.385606 
L 1338.415135 383.879079 
L 1339.024167 576.852669 
L 1339.633198 582.033168 
L 1340.24223 580.090481 
L 1340.851262 585.27098 
L 1341.460294 582.033168 
L 1342.069326 527.637928 
L 1342.678357 571.67217 
L 1343.287389 581.385606 
L 1343.896421 576.852669 
L 1344.505453 580.090481 
L 1345.114485 546.417237 
L 1345.723516 581.385606 
L 1346.332548 565.844109 
L 1346.94158 568.434358 
L 1347.550612 571.67217 
L 1348.159643 440.217007 
L 1348.768675 568.434358 
L 1349.377707 555.483111 
L 1349.986739 549.007487 
L 1350.595771 541.236738 
L 1351.204802 508.211057 
L 1351.813834 560.66361 
L 1352.422866 555.483111 
L 1353.031898 516.629368 
L 1353.64093 544.47455 
L 1354.249961 560.016047 
L 1354.858993 560.016047 
L 1355.468025 554.835548 
L 1356.077057 555.483111 
L 1356.686088 538.646489 
L 1357.29512 560.016047 
L 1357.904152 560.016047 
L 1358.513184 551.597736 
L 1359.122216 547.0648 
L 1359.731247 515.981805 
L 1360.340279 536.056239 
L 1360.949311 560.016047 
L 1361.558343 546.417237 
L 1362.167375 524.400116 
L 1362.776406 547.0648 
L 1363.385438 554.835548 
L 1363.99447 551.597736 
L 1364.603502 557.425798 
L 1365.212534 481.660999 
L 1365.821565 532.818427 
L 1366.430597 562.606297 
L 1367.039629 554.187986 
L 1367.648661 549.007487 
L 1368.257692 525.047679 
L 1368.866724 535.408677 
L 1369.475756 554.187986 
L 1370.084788 538.646489 
L 1370.69382 541.236738 
L 1371.302851 540.589176 
L 1371.911883 560.016047 
L 1372.520915 554.187986 
L 1373.129947 560.016047 
L 1373.738979 269.260538 
L 1374.34801 510.801306 
L 1374.957042 534.761114 
L 1375.566074 565.844109 
L 1376.175106 562.606297 
L 1377.393169 535.408677 
L 1378.002201 546.417237 
L 1378.611233 560.66361 
L 1379.220265 551.597736 
L 1379.829296 506.26837 
L 1381.04736 557.425798 
L 1381.656392 527.637928 
L 1382.265424 519.219617 
L 1382.874455 544.47455 
L 1383.483487 554.187986 
L 1384.092519 508.211057 
L 1384.701551 536.056239 
L 1385.310583 549.007487 
L 1385.919614 500.440308 
L 1386.528646 492.66956 
L 1387.137678 419.49501 
L 1387.74671 551.597736 
L 1388.355742 519.86718 
L 1388.964773 558.07336 
L 1389.573805 554.835548 
L 1390.791869 554.835548 
L 1391.4009 560.016047 
L 1392.009932 557.425798 
L 1392.618964 381.28883 
L 1393.227996 497.850059 
L 1393.837028 546.417237 
L 1394.446059 558.07336 
L 1395.055091 554.187986 
L 1395.664123 549.007487 
L 1396.273155 551.597736 
L 1396.882187 486.841498 
L 1397.491218 552.245299 
L 1398.10025 514.039118 
L 1398.709282 554.187986 
L 1399.927345 551.597736 
L 1400.536377 538.646489 
L 1401.145409 554.835548 
L 1401.754441 402.658388 
L 1402.363473 554.835548 
L 1402.972504 547.0648 
L 1403.581536 546.417237 
L 1404.7996 557.425798 
L 1405.408632 467.414627 
L 1406.017663 557.425798 
L 1406.626695 560.016047 
L 1407.235727 514.039118 
L 1407.844759 547.0648 
L 1408.453791 555.483111 
L 1409.062822 549.655049 
L 1409.671854 551.597736 
L 1410.280886 541.236738 
L 1410.889918 535.408677 
L 1411.498949 488.784185 
L 1412.107981 541.236738 
L 1412.717013 475.832938 
L 1413.326045 536.056239 
L 1413.935077 537.998926 
L 1414.544108 535.408677 
L 1415.15314 462.234128 
L 1415.762172 554.187986 
L 1416.371204 405.248638 
L 1416.980236 500.440308 
L 1417.589267 343.730212 
L 1418.198299 500.440308 
L 1418.807331 497.850059 
L 1419.416363 411.724262 
L 1420.025395 296.458158 
L 1420.634426 540.589176 
L 1421.243458 528.285491 
L 1421.85249 538.646489 
L 1422.461522 454.463379 
L 1423.070553 479.07075 
L 1423.679585 531.523302 
L 1424.897649 424.675509 
L 1425.506681 547.0648 
L 1426.115712 506.26837 
L 1426.724744 444.102381 
L 1427.333776 536.056239 
L 1427.942808 547.0648 
L 1428.55184 549.007487 
L 1429.160871 536.056239 
L 1429.769903 546.417237 
L 1430.378935 543.826988 
L 1430.987967 541.884301 
L 1431.596998 546.417237 
L 1432.20603 549.007487 
L 1432.815062 552.245299 
L 1433.424094 543.826988 
L 1434.033126 547.0648 
L 1434.642157 549.655049 
L 1435.251189 545.769675 
L 1435.860221 544.47455 
L 1436.469253 547.0648 
L 1437.078285 546.417237 
L 1437.687316 549.007487 
L 1438.296348 540.589176 
L 1438.90538 546.417237 
L 1439.514412 540.589176 
L 1440.123444 551.597736 
L 1440.732475 551.597736 
L 1441.341507 543.826988 
L 1442.559571 543.826988 
L 1443.168602 541.236738 
L 1444.386666 530.228178 
L 1444.995698 547.0648 
L 1445.60473 538.646489 
L 1446.213761 541.236738 
L 1446.822793 536.056239 
L 1447.431825 541.884301 
L 1448.040857 540.589176 
L 1448.649889 547.0648 
L 1449.25892 535.408677 
L 1449.867952 549.007487 
L 1450.476984 544.47455 
L 1451.086016 543.179425 
L 1451.695048 389.059578 
L 1452.304079 500.440308 
L 1452.913111 540.589176 
L 1453.522143 538.646489 
L 1454.131175 416.257198 
L 1454.740206 538.646489 
L 1455.349238 525.047679 
L 1455.95827 541.236738 
L 1456.567302 536.056239 
L 1457.176334 536.056239 
L 1457.785365 533.46599 
L 1458.394397 487.489061 
L 1459.003429 533.46599 
L 1459.612461 536.056239 
L 1460.221493 536.056239 
L 1460.830524 530.228178 
L 1462.048588 530.228178 
L 1462.65762 525.047679 
L 1463.266652 535.408677 
L 1463.875683 530.228178 
L 1464.484715 530.228178 
L 1465.093747 533.46599 
L 1465.702779 521.809867 
L 1466.31181 526.990366 
L 1466.920842 525.047679 
L 1467.529874 386.469329 
L 1468.138906 540.589176 
L 1468.747938 540.589176 
L 1469.356969 538.646489 
L 1469.966001 541.236738 
L 1470.575033 540.589176 
L 1471.184065 543.826988 
L 1471.793097 543.826988 
L 1472.402128 527.637928 
L 1473.01116 537.351364 
L 1474.229224 527.637928 
L 1474.838255 527.637928 
L 1475.447287 533.46599 
L 1476.056319 532.818427 
L 1476.665351 530.228178 
L 1477.274383 519.86718 
L 1477.883414 538.646489 
L 1478.492446 526.990366 
L 1479.101478 538.646489 
L 1479.71051 530.228178 
L 1480.319542 313.29478 
L 1480.928573 524.400116 
L 1481.537605 541.236738 
L 1482.146637 547.0648 
L 1482.755669 484.251249 
L 1483.364701 479.07075 
L 1483.973732 532.818427 
L 1484.582764 528.285491 
L 1485.191796 538.646489 
L 1485.800828 538.646489 
L 1486.409859 521.809867 
L 1487.018891 525.047679 
L 1487.627923 535.408677 
L 1488.236955 536.056239 
L 1488.845987 361.861958 
L 1489.455018 453.815817 
L 1490.06405 511.448869 
L 1490.673082 527.637928 
L 1491.282114 536.056239 
L 1491.891146 530.228178 
L 1492.500177 519.219617 
L 1493.109209 535.408677 
L 1493.718241 133.92 
L 1494.327273 536.056239 
L 1494.327273 536.056239 
" style="fill:none;stroke:#1f77b4;stroke-linecap:square;stroke-width:1.5;"/>
   </g>
   <g id="line2d_16">
    <path clip-path="url(#p3f5f52d7f8)" d="M 276.872727 738.72 
L 1494.327273 521.919905 
L 1494.327273 521.919905 
" style="fill:none;stroke:#ff7f0e;stroke-linecap:square;stroke-width:1.5;"/>
   </g>
   <g id="patch_3">
    <path d="M 216 768.96 
L 216 103.68 
" style="fill:none;stroke:#000000;stroke-linecap:square;stroke-linejoin:miter;stroke-width:0.8;"/>
   </g>
   <g id="patch_4">
    <path d="M 1555.2 768.96 
L 1555.2 103.68 
" style="fill:none;stroke:#000000;stroke-linecap:square;stroke-linejoin:miter;stroke-width:0.8;"/>
   </g>
   <g id="patch_5">
    <path d="M 216 768.96 
L 1555.2 768.96 
" style="fill:none;stroke:#000000;stroke-linecap:square;stroke-linejoin:miter;stroke-width:0.8;"/>
   </g>
   <g id="patch_6">
    <path d="M 216 103.68 
L 1555.2 103.68 
" style="fill:none;stroke:#000000;stroke-linecap:square;stroke-linejoin:miter;stroke-width:0.8;"/>
   </g>
   <g id="legend_1">
    <g id="patch_7">
     <path d="M 223 141.03625 
L 349.451563 141.03625 
Q 351.451563 141.03625 351.451563 139.03625 
L 351.451563 110.68 
Q 351.451563 108.68 349.451563 108.68 
L 223 108.68 
Q 221 108.68 221 110.68 
L 221 139.03625 
Q 221 141.03625 223 141.03625 
z
" style="fill:#ffffff;opacity:0.8;stroke:#cccccc;stroke-linejoin:miter;"/>
    </g>
    <g id="line2d_17">
     <path d="M 225 116.778437 
L 245 116.778437 
" style="fill:none;stroke:#1f77b4;stroke-linecap:square;stroke-width:1.5;"/>
    </g>
    <g id="line2d_18"/>
    <g id="text_17">
     <!-- Experiment results -->
     <g transform="translate(253 120.278437)scale(0.1 -0.1)">
      <defs>
       <path d="M 9.8125 72.90625 
L 55.90625 72.90625 
L 55.90625 64.59375 
L 19.671875 64.59375 
L 19.671875 43.015625 
L 54.390625 43.015625 
L 54.390625 34.71875 
L 19.671875 34.71875 
L 19.671875 8.296875 
L 56.78125 8.296875 
L 56.78125 0 
L 9.8125 0 
z
" id="DejaVuSans-69"/>
       <path d="M 54.890625 54.6875 
L 35.109375 28.078125 
L 55.90625 0 
L 45.3125 0 
L 29.390625 21.484375 
L 13.484375 0 
L 2.875 0 
L 24.125 28.609375 
L 4.6875 54.6875 
L 15.28125 54.6875 
L 29.78125 35.203125 
L 44.28125 54.6875 
z
" id="DejaVuSans-120"/>
       <path d="M 18.109375 8.203125 
L 18.109375 -20.796875 
L 9.078125 -20.796875 
L 9.078125 54.6875 
L 18.109375 54.6875 
L 18.109375 46.390625 
Q 20.953125 51.265625 25.265625 53.625 
Q 29.59375 56 35.59375 56 
Q 45.5625 56 51.78125 48.09375 
Q 58.015625 40.1875 58.015625 27.296875 
Q 58.015625 14.40625 51.78125 6.484375 
Q 45.5625 -1.421875 35.59375 -1.421875 
Q 29.59375 -1.421875 25.265625 0.953125 
Q 20.953125 3.328125 18.109375 8.203125 
z
M 48.6875 27.296875 
Q 48.6875 37.203125 44.609375 42.84375 
Q 40.53125 48.484375 33.40625 48.484375 
Q 26.265625 48.484375 22.1875 42.84375 
Q 18.109375 37.203125 18.109375 27.296875 
Q 18.109375 17.390625 22.1875 11.75 
Q 26.265625 6.109375 33.40625 6.109375 
Q 40.53125 6.109375 44.609375 11.75 
Q 48.6875 17.390625 48.6875 27.296875 
z
" id="DejaVuSans-112"/>
       <path d="M 8.5 21.578125 
L 8.5 54.6875 
L 17.484375 54.6875 
L 17.484375 21.921875 
Q 17.484375 14.15625 20.5 10.265625 
Q 23.53125 6.390625 29.59375 6.390625 
Q 36.859375 6.390625 41.078125 11.03125 
Q 45.3125 15.671875 45.3125 23.6875 
L 45.3125 54.6875 
L 54.296875 54.6875 
L 54.296875 0 
L 45.3125 0 
L 45.3125 8.40625 
Q 42.046875 3.421875 37.71875 1 
Q 33.40625 -1.421875 27.6875 -1.421875 
Q 18.265625 -1.421875 13.375 4.4375 
Q 8.5 10.296875 8.5 21.578125 
z
M 31.109375 56 
z
" id="DejaVuSans-117"/>
      </defs>
      <use xlink:href="#DejaVuSans-69"/>
      <use x="63.183594" xlink:href="#DejaVuSans-120"/>
      <use x="122.363281" xlink:href="#DejaVuSans-112"/>
      <use x="185.839844" xlink:href="#DejaVuSans-101"/>
      <use x="247.363281" xlink:href="#DejaVuSans-114"/>
      <use x="288.476562" xlink:href="#DejaVuSans-105"/>
      <use x="316.259766" xlink:href="#DejaVuSans-109"/>
      <use x="413.671875" xlink:href="#DejaVuSans-101"/>
      <use x="475.195312" xlink:href="#DejaVuSans-110"/>
      <use x="538.574219" xlink:href="#DejaVuSans-116"/>
      <use x="577.783203" xlink:href="#DejaVuSans-32"/>
      <use x="609.570312" xlink:href="#DejaVuSans-114"/>
      <use x="648.433594" xlink:href="#DejaVuSans-101"/>
      <use x="709.957031" xlink:href="#DejaVuSans-115"/>
      <use x="762.056641" xlink:href="#DejaVuSans-117"/>
      <use x="825.435547" xlink:href="#DejaVuSans-108"/>
      <use x="853.21875" xlink:href="#DejaVuSans-116"/>
      <use x="892.427734" xlink:href="#DejaVuSans-115"/>
     </g>
    </g>
    <g id="line2d_19">
     <path d="M 225 131.456563 
L 245 131.456563 
" style="fill:none;stroke:#ff7f0e;stroke-linecap:square;stroke-width:1.5;"/>
    </g>
    <g id="line2d_20"/>
    <g id="text_18">
     <!-- Approximation -->
     <g transform="translate(253 134.956563)scale(0.1 -0.1)">
      <defs>
       <path d="M 34.1875 63.1875 
L 20.796875 26.90625 
L 47.609375 26.90625 
z
M 28.609375 72.90625 
L 39.796875 72.90625 
L 67.578125 0 
L 57.328125 0 
L 50.6875 18.703125 
L 17.828125 18.703125 
L 11.1875 0 
L 0.78125 0 
z
" id="DejaVuSans-65"/>
       <path d="M 34.28125 27.484375 
Q 23.390625 27.484375 19.1875 25 
Q 14.984375 22.515625 14.984375 16.5 
Q 14.984375 11.71875 18.140625 8.90625 
Q 21.296875 6.109375 26.703125 6.109375 
Q 34.1875 6.109375 38.703125 11.40625 
Q 43.21875 16.703125 43.21875 25.484375 
L 43.21875 27.484375 
z
M 52.203125 31.203125 
L 52.203125 0 
L 43.21875 0 
L 43.21875 8.296875 
Q 40.140625 3.328125 35.546875 0.953125 
Q 30.953125 -1.421875 24.3125 -1.421875 
Q 15.921875 -1.421875 10.953125 3.296875 
Q 6 8.015625 6 15.921875 
Q 6 25.140625 12.171875 29.828125 
Q 18.359375 34.515625 30.609375 34.515625 
L 43.21875 34.515625 
L 43.21875 35.40625 
Q 43.21875 41.609375 39.140625 45 
Q 35.0625 48.390625 27.6875 48.390625 
Q 23 48.390625 18.546875 47.265625 
Q 14.109375 46.140625 10.015625 43.890625 
L 10.015625 52.203125 
Q 14.9375 54.109375 19.578125 55.046875 
Q 24.21875 56 28.609375 56 
Q 40.484375 56 46.34375 49.84375 
Q 52.203125 43.703125 52.203125 31.203125 
z
" id="DejaVuSans-97"/>
      </defs>
      <use xlink:href="#DejaVuSans-65"/>
      <use x="68.408203" xlink:href="#DejaVuSans-112"/>
      <use x="131.884766" xlink:href="#DejaVuSans-112"/>
      <use x="195.361328" xlink:href="#DejaVuSans-114"/>
      <use x="234.224609" xlink:href="#DejaVuSans-111"/>
      <use x="292.28125" xlink:href="#DejaVuSans-120"/>
      <use x="351.460938" xlink:href="#DejaVuSans-105"/>
      <use x="379.244141" xlink:href="#DejaVuSans-109"/>
      <use x="476.65625" xlink:href="#DejaVuSans-97"/>
      <use x="537.935547" xlink:href="#DejaVuSans-116"/>
      <use x="577.144531" xlink:href="#DejaVuSans-105"/>
      <use x="604.927734" xlink:href="#DejaVuSans-111"/>
      <use x="666.109375" xlink:href="#DejaVuSans-110"/>
     </g>
    </g>
   </g>
  </g>
 </g>
 <defs>
  <clipPath id="p3f5f52d7f8">
   <rect height="665.28" width="1339.2" x="216" y="103.68"/>
  </clipPath>
 </defs>
</svg>
